<?xml version="1.0" encoding="UTF-8" standalone="no"?>
<!-- Created with Inkscape (http://www.inkscape.org/) -->

<svg
   xmlns:dc="http://purl.org/dc/elements/1.1/"
   xmlns:cc="http://creativecommons.org/ns#"
   xmlns:rdf="http://www.w3.org/1999/02/22-rdf-syntax-ns#"
   xmlns:svg="http://www.w3.org/2000/svg"
   xmlns="http://www.w3.org/2000/svg"
   xmlns:sodipodi="http://sodipodi.sourceforge.net/DTD/sodipodi-0.dtd"
   xmlns:inkscape="http://www.inkscape.org/namespaces/inkscape"
   width="210mm"
   height="297mm"
   viewBox="0 0 744.09448819 1052.3622047"
   id="svg2"
   version="1.1"
   inkscape:version="0.91 r13725"
   sodipodi:docname="sheetBottom.svg">
  <defs
     id="defs4">
    <marker
       orient="auto"
       id="DistanceX"
       style="overflow:visible"
       refX="0.0"
       refY="0.0">
      <path
         id="path3343"
         d="M 3,-3 L -3,3 M 0,-5 L  0,5"
         style="stroke:#000000; stroke-width:0.5" />
    </marker>
    <pattern
       id="Hatch"
       x="0"
       y="0"
       patternUnits="userSpaceOnUse"
       width="8"
       height="8">
      <path
         id="path3346"
         d="M8 4 l-4,4"
         stroke-width="0.25"
         stroke="#000000"
         linecap="square" />
      <path
         id="path3348"
         d="M6 2 l-4,4"
         stroke-width="0.25"
         stroke="#000000"
         linecap="square" />
      <path
         id="path3350"
         d="M4 0 l-4,4"
         stroke-width="0.25"
         stroke="#000000"
         linecap="square" />
    </pattern>
    <marker
       orient="auto"
       id="DistanceX-5"
       style="overflow:visible"
       refX="0.0"
       refY="0.0">
      <path
         id="path3855"
         d="M 3,-3 L -3,3 M 0,-5 L  0,5"
         style="stroke:#000000; stroke-width:0.5" />
    </marker>
    <pattern
       id="Hatch-5"
       x="0"
       y="0"
       patternUnits="userSpaceOnUse"
       width="8"
       height="8">
      <path
         id="path3858"
         d="M8 4 l-4,4"
         stroke-width="0.25"
         stroke="#000000"
         linecap="square" />
      <path
         id="path3860"
         d="M6 2 l-4,4"
         stroke-width="0.25"
         stroke="#000000"
         linecap="square" />
      <path
         id="path3862"
         d="M4 0 l-4,4"
         stroke-width="0.25"
         stroke="#000000"
         linecap="square" />
    </pattern>
  </defs>
  <sodipodi:namedview
     id="base"
     pagecolor="#ffffff"
     bordercolor="#666666"
     borderopacity="1.0"
     inkscape:pageopacity="0.0"
     inkscape:pageshadow="2"
     inkscape:zoom="1.4236715"
     inkscape:cx="-377.16112"
     inkscape:cy="316.95363"
     inkscape:document-units="px"
     inkscape:current-layer="layer1"
     showgrid="false"
     showguides="true"
     inkscape:guide-bbox="true"
     inkscape:window-width="1920"
     inkscape:window-height="1017"
     inkscape:window-x="-8"
     inkscape:window-y="-8"
     inkscape:window-maximized="1">
    <sodipodi:guide
       position="-885.03564,376.49136"
       orientation="1,0"
       id="guide4119" />
  </sodipodi:namedview>
  <metadata
     id="metadata7">
    <rdf:RDF>
      <cc:Work
         rdf:about="">
        <dc:format>image/svg+xml</dc:format>
        <dc:type
           rdf:resource="http://purl.org/dc/dcmitype/StillImage" />
        <dc:title></dc:title>
      </cc:Work>
    </rdf:RDF>
  </metadata>
  <g
     inkscape:label="Layer 1"
     inkscape:groupmode="layer"
     id="layer1">
    <path
       inkscape:connector-curvature="0"
       style="fill:none;stroke:#000000"
       d="m -422.38917,523.42818 -442.91338,0"
       id="path3866" />
    <path
       inkscape:connector-curvature="0"
       style="fill:none;stroke:#000000"
       d="m -865.30255,523.42818 0,382.67718"
       id="path3868" />
    <path
       inkscape:connector-curvature="0"
       style="fill:none;stroke:#000000"
       d="m -865.30255,906.10536 442.91338,0"
       id="path3870" />
    <path
       inkscape:connector-curvature="0"
       style="fill:none;stroke:#000000"
       d="m -422.38917,906.10536 0,-382.67718"
       id="path3872" />
    <path
       style="fill:none;stroke:#000000"
       d="m -494.08692,848.22786 c -10.49487,5.9709 -22.14681,10.69238 -34.40439,9.3406 -80.85474,0 -161.70949,0 -242.56423,0 -21.02266,-4.9992 -40.38373,-19.54828 -46.63105,-40.86842 -5.30742,-11.92036 -2.1053,-25.26205 -2.97525,-37.91973 0,-52.40296 0,-104.80593 0,-157.2089 4.99909,-21.02271 19.54825,-40.38375 40.86839,-46.63105 11.92038,-5.30742 25.26208,-2.1053 37.91976,-2.97525 75.07917,0 150.15834,0 225.23751,0 21.02272,4.99908 40.38374,19.54825 46.63105,40.8684 5.30742,11.92037 2.1053,25.26207 2.97525,37.91975 0,52.40296 0,104.80593 0,157.2089 -4.35467,16.06883 -12.54433,31.20797 -27.05704,40.2657 z"
       id="path3900"
       inkscape:connector-curvature="0" />
    <path
       style="fill:none;stroke:#000000"
       d="m -839.29255,645.77787 c -5.479,1.80734 -11.86286,0.36937 -15.98119,-3.69049 -4.75316,-4.44769 -6.24359,-11.94386 -3.53548,-17.86918 2.5965,-6.20742 9.47752,-10.23186 16.16313,-9.45622 6.7059,0.5512 12.65994,5.85154 13.98817,12.44966 1.54796,6.54807 -1.65326,13.8484 -7.51781,17.15078 -0.98427,0.58138 -2.02933,1.06186 -3.11682,1.41545 z"
       id="path3922"
       inkscape:connector-curvature="0" />
    <path
       style="fill:none;stroke:#000000"
       d="m -438.54452,645.77787 c -5.479,1.80734 -11.86286,0.36936 -15.98119,-3.69049 -4.75314,-4.4477 -6.24359,-11.94386 -3.53548,-17.86918 2.5965,-6.20742 9.47753,-10.23186 16.16313,-9.45623 6.70589,0.55122 12.65995,5.85154 13.98817,12.44967 1.54795,6.54807 -1.65326,13.84841 -7.51781,17.15078 -0.98427,0.58138 -2.02933,1.06186 -3.11682,1.41545 z"
       id="path3942"
       inkscape:connector-curvature="0" />
    <path
       style="fill:none;stroke:#000000"
       d="m -828.27499,798.92026 c 0.0257,5.76919 -3.31438,11.39612 -8.44799,14.05834 -5.69889,3.14614 -13.28886,2.24721 -18.08742,-2.15939 -5.10119,-4.38753 -6.80237,-12.17529 -3.99881,-18.29394 2.59655,-6.20739 9.47737,-10.23233 16.16313,-9.4566 6.70597,0.55129 12.65979,5.85196 13.98815,12.45003 0.24873,1.11571 0.38272,2.25807 0.38294,3.40156 z"
       id="path3958"
       inkscape:connector-curvature="0" />
    <path
       style="fill:none;stroke:#000000"
       d="m -456.37161,808.29236 c -3.4118,-4.65225 -4.01691,-11.16775 -1.42869,-16.339 2.76113,-5.8951 9.42991,-9.62936 15.90225,-8.88469 6.70598,0.55128 12.65979,5.85196 13.98815,12.45003 1.54795,6.54798 -1.65309,13.84845 -7.51782,17.15053 -5.7493,3.49561 -13.68167,2.70714 -18.63465,-1.85003 -0.85705,-0.75643 -1.63693,-1.60186 -2.30924,-2.52684 z"
       id="path3966"
       inkscape:connector-curvature="0" />
  </g>
</svg>
