<?xml version="1.0" encoding="UTF-8" standalone="no"?>
<!-- Created with Inkscape (http://www.inkscape.org/) -->

<svg
   xmlns:dc="http://purl.org/dc/elements/1.1/"
   xmlns:cc="http://creativecommons.org/ns#"
   xmlns:rdf="http://www.w3.org/1999/02/22-rdf-syntax-ns#"
   xmlns:svg="http://www.w3.org/2000/svg"
   xmlns="http://www.w3.org/2000/svg"
   xmlns:sodipodi="http://sodipodi.sourceforge.net/DTD/sodipodi-0.dtd"
   xmlns:inkscape="http://www.inkscape.org/namespaces/inkscape"
   width="210mm"
   height="297mm"
   viewBox="0 0 744.09448819 1052.3622047"
   id="svg5121"
   version="1.1"
   inkscape:version="0.91 r13725"
   sodipodi:docname="sheetTop.svg">
  <defs
     id="defs5123">
    <marker
       orient="auto"
       id="DistanceX"
       style="overflow:visible"
       refX="0.0"
       refY="0.0">
      <path
         id="path5136"
         d="M 3,-3 L -3,3 M 0,-5 L  0,5"
         style="stroke:#000000; stroke-width:0.5" />
    </marker>
    <pattern
       id="Hatch"
       x="0"
       y="0"
       patternUnits="userSpaceOnUse"
       width="8"
       height="8">
      <path
         id="path5139"
         d="M8 4 l-4,4"
         stroke-width="0.25"
         stroke="#000000"
         linecap="square" />
      <path
         id="path5141"
         d="M6 2 l-4,4"
         stroke-width="0.25"
         stroke="#000000"
         linecap="square" />
      <path
         id="path5143"
         d="M4 0 l-4,4"
         stroke-width="0.25"
         stroke="#000000"
         linecap="square" />
    </pattern>
  </defs>
  <sodipodi:namedview
     id="base"
     pagecolor="#ffffff"
     bordercolor="#666666"
     borderopacity="1.0"
     inkscape:pageopacity="0.0"
     inkscape:pageshadow="2"
     inkscape:zoom="1.8966109"
     inkscape:cx="-611.48272"
     inkscape:cy="587.21308"
     inkscape:document-units="px"
     inkscape:current-layer="layer1"
     showgrid="false"
     inkscape:window-width="1920"
     inkscape:window-height="1017"
     inkscape:window-x="-8"
     inkscape:window-y="-8"
     inkscape:window-maximized="1" />
  <metadata
     id="metadata5126">
    <rdf:RDF>
      <cc:Work
         rdf:about="">
        <dc:format>image/svg+xml</dc:format>
        <dc:type
           rdf:resource="http://purl.org/dc/dcmitype/StillImage" />
        <dc:title></dc:title>
      </cc:Work>
    </rdf:RDF>
  </metadata>
  <g
     inkscape:label="Layer 1"
     inkscape:groupmode="layer"
     id="layer1">
    <path
       inkscape:connector-curvature="0"
       style="fill:none;stroke:#000000"
       d="m -401.40047,258.16647 -442.91338,0"
       id="path5147"
       sodipodi:nodetypes="cc" />
    <path
       inkscape:connector-curvature="0"
       style="fill:none;stroke:#000000"
       d="m -844.31385,258.16647 0,382.67718"
       id="path5149"
       sodipodi:nodetypes="cc" />
    <path
       inkscape:connector-curvature="0"
       style="fill:none;stroke:#000000"
       d="m -844.31385,640.84365 442.91338,0"
       id="path5151"
       sodipodi:nodetypes="cc" />
    <path
       inkscape:connector-curvature="0"
       style="fill:none;stroke:#000000"
       d="m -401.40047,640.84365 0,-382.67718"
       id="path5153"
       sodipodi:nodetypes="cc" />
    <path
       inkscape:connector-curvature="0"
       style="fill:none;stroke:#000000"
       d="m -750.06684,560.41695 -17.71654,-17.7165"
       id="path5155"
       sodipodi:nodetypes="cc" />
    <path
       inkscape:connector-curvature="0"
       style="fill:none;stroke:#000000"
       d="m -767.78338,542.70045 0,-186.39075"
       id="path5157"
       sodipodi:nodetypes="cc" />
    <path
       inkscape:connector-curvature="0"
       style="fill:none;stroke:#000000"
       d="m -767.78338,356.3097 17.71654,-17.71653"
       id="path5159"
       sodipodi:nodetypes="cc" />
    <path
       inkscape:connector-curvature="0"
       style="fill:none;stroke:#000000"
       d="m -750.06684,338.59317 254.41936,0"
       id="path5161"
       sodipodi:nodetypes="cc" />
    <path
       inkscape:connector-curvature="0"
       style="fill:none;stroke:#000000"
       d="m -495.64748,338.59317 17.71654,17.71653"
       id="path5163"
       sodipodi:nodetypes="cc" />
    <path
       inkscape:connector-curvature="0"
       style="fill:none;stroke:#000000"
       d="m -477.93094,356.3097 0,186.39075"
       id="path5165"
       sodipodi:nodetypes="cc" />
    <path
       inkscape:connector-curvature="0"
       style="fill:none;stroke:#000000"
       d="m -477.93094,542.70045 -17.71654,17.7165"
       id="path5167"
       sodipodi:nodetypes="cc" />
    <path
       inkscape:connector-curvature="0"
       style="fill:none;stroke:#000000"
       d="m -495.64748,560.41695 -254.41936,0"
       id="path5169"
       sodipodi:nodetypes="cc" />
    <path
       style="fill:none;stroke:#000000"
       d="m -815.34803,359.62411 c 2.12669,2.89497 2.46112,6.96995 0.78855,10.15705 -1.7608,3.56832 -5.87757,5.76832 -9.82461,5.23734 -4.02345,-0.41553 -7.55648,-3.62122 -8.35716,-7.58823 -0.94599,-4.00158 1.0103,-8.46295 4.59426,-10.48097 3.51342,-2.13626 8.361,-1.65439 11.38776,1.1306 0.52375,0.46228 1.00034,0.97894 1.4112,1.54421 z"
       id="path5181"
       inkscape:connector-curvature="0" />
    <path
       style="fill:none;stroke:#000000"
       d="m -412.73905,365.35151 c 0.0189,3.59213 -2.10578,7.08542 -5.33224,8.68076 -3.52191,1.85186 -8.1456,1.21192 -11.0267,-1.53768 -3.01078,-2.70109 -3.98484,-7.37118 -2.30084,-11.05117 1.58677,-3.7934 5.79176,-6.25289 9.87743,-5.77888 4.09807,0.33687 7.73658,3.57605 8.54833,7.60821 0.152,0.68184 0.23389,1.37995 0.23402,2.07876 z"
       id="path5203"
       inkscape:connector-curvature="0" />
    <path
       style="fill:none;stroke:#000000"
       d="m -831.11432,539.38605 c -2.12669,-2.895 -2.46112,-6.97002 -0.78855,-10.15716 1.7608,-3.5683 5.87759,-5.76821 9.8246,-5.23725 4.02344,0.41551 7.55652,3.62114 8.35717,7.58815 0.94597,4.00159 -1.01023,8.46304 -4.59426,10.48103 -3.51343,2.13621 -8.36098,1.65436 -11.38776,-1.13058 -0.52375,-0.46227 -1.00034,-0.97892 -1.4112,-1.54419 z"
       id="path5211"
       inkscape:connector-curvature="0" />
    <path
       style="fill:none;stroke:#000000"
       d="m -419.47204,524.39145 c 3.42215,1.09203 6.08795,4.19217 6.60814,7.75371 0.67288,3.92178 -1.36448,8.12144 -4.86983,10.01185 -3.4993,2.02871 -8.24183,1.51196 -11.22136,-1.22677 -3.11742,-2.68132 -4.15707,-7.44056 -2.44374,-11.17979 1.58676,-3.79339 5.79179,-6.2528 9.87743,-5.7788 0.69545,0.0661 1.3847,0.20398 2.04936,0.4198 z"
       id="path5239"
       inkscape:connector-curvature="0" />
  </g>
</svg>
