<?xml version="1.0" encoding="UTF-8" standalone="no"?>
<!-- Created with Inkscape (http://www.inkscape.org/) -->

<svg
   xmlns:dc="http://purl.org/dc/elements/1.1/"
   xmlns:cc="http://creativecommons.org/ns#"
   xmlns:rdf="http://www.w3.org/1999/02/22-rdf-syntax-ns#"
   xmlns:svg="http://www.w3.org/2000/svg"
   xmlns="http://www.w3.org/2000/svg"
   xmlns:sodipodi="http://sodipodi.sourceforge.net/DTD/sodipodi-0.dtd"
   xmlns:inkscape="http://www.inkscape.org/namespaces/inkscape"
   width="210mm"
   height="297mm"
   viewBox="0 0 744.09448819 1052.3622047"
   id="svg4124"
   version="1.1"
   inkscape:version="0.91 r13725"
   sodipodi:docname="sheetMiddle.svg">
  <defs
     id="defs4126">
    <marker
       orient="auto"
       id="DistanceX"
       style="overflow:visible"
       refX="0.0"
       refY="0.0">
      <path
         id="path4139"
         d="M 3,-3 L -3,3 M 0,-5 L  0,5"
         style="stroke:#000000; stroke-width:0.5" />
    </marker>
    <pattern
       id="Hatch"
       x="0"
       y="0"
       patternUnits="userSpaceOnUse"
       width="8"
       height="8">
      <path
         id="path4142"
         d="M8 4 l-4,4"
         stroke-width="0.25"
         stroke="#000000"
         linecap="square" />
      <path
         id="path4144"
         d="M6 2 l-4,4"
         stroke-width="0.25"
         stroke="#000000"
         linecap="square" />
      <path
         id="path4146"
         d="M4 0 l-4,4"
         stroke-width="0.25"
         stroke="#000000"
         linecap="square" />
    </pattern>
  </defs>
  <sodipodi:namedview
     id="base"
     pagecolor="#ffffff"
     bordercolor="#666666"
     borderopacity="1.0"
     inkscape:pageopacity="0.0"
     inkscape:pageshadow="2"
     inkscape:zoom="1.4883838"
     inkscape:cx="-877.14286"
     inkscape:cy="668.57143"
     inkscape:document-units="px"
     inkscape:current-layer="layer1"
     showgrid="false"
     inkscape:window-width="1920"
     inkscape:window-height="1017"
     inkscape:window-x="-8"
     inkscape:window-y="-8"
     inkscape:window-maximized="1" />
  <metadata
     id="metadata4129">
    <rdf:RDF>
      <cc:Work
         rdf:about="">
        <dc:format>image/svg+xml</dc:format>
        <dc:type
           rdf:resource="http://purl.org/dc/dcmitype/StillImage" />
        <dc:title></dc:title>
      </cc:Work>
    </rdf:RDF>
  </metadata>
  <g
     inkscape:label="Layer 1"
     inkscape:groupmode="layer"
     id="layer1">
    <path
       inkscape:connector-curvature="0"
       style="fill:none;stroke:#000000"
       d="m -692.82902,158.16647 -442.91338,0"
       id="path4150"
       sodipodi:nodetypes="cc" />
    <path
       inkscape:connector-curvature="0"
       style="fill:none;stroke:#000000"
       d="m -1135.7424,158.16647 0,382.67718"
       id="path4152"
       sodipodi:nodetypes="cc" />
    <path
       inkscape:connector-curvature="0"
       style="fill:none;stroke:#000000"
       d="m -1135.7424,540.84365 442.91338,0"
       id="path4154"
       sodipodi:nodetypes="cc" />
    <path
       inkscape:connector-curvature="0"
       style="fill:none;stroke:#000000"
       d="m -692.82902,540.84365 0,-382.67718"
       id="path4156"
       sodipodi:nodetypes="cc" />
    <path
       style="fill:none;stroke:#000000"
       d="m -1128.6558,179.42631 c -0.024,-4.57178 2.6801,-9.01769 6.7863,-11.04823 4.4825,-2.35703 10.3674,-1.54252 14.0343,1.95712 3.8319,3.43781 5.0715,9.38154 2.9283,14.0652 -2.0194,4.82815 -7.3715,7.95806 -12.5714,7.35481 -5.2158,-0.42863 -9.8468,-4.55118 -10.8797,-9.68313 -0.1934,-0.86782 -0.2976,-1.75635 -0.2978,-2.64577 z"
       id="path4160"
       inkscape:connector-curvature="0" />
    <path
       style="fill:none;stroke:#000000"
       d="m -1025.3032,172.13702 c 2.6678,-3.71298 7.4689,-5.72055 11.9846,-4.94943 5.0118,0.72795 9.2938,4.84585 10.2034,9.83233 1.0793,5.0335 -1.411,10.57103 -5.8981,13.10022 -4.4718,2.71875 -10.6414,2.10554 -14.4938,-1.43888 -3.9677,-3.41254 -5.2905,-9.4698 -3.1102,-14.22879 0.3536,-0.81576 0.7915,-1.59583 1.3141,-2.31545 z"
       id="path4182"
       inkscape:connector-curvature="0" />
    <path
       style="fill:none;stroke:#000000"
       d="m -702.28398,172.13702 c 2.70661,3.68456 3.13211,8.87084 1.0036,12.92721 -2.24095,4.54162 -7.48075,7.34128 -12.50421,6.66555 -5.12077,-0.52879 -9.61762,-4.60861 -10.63639,-9.6577 -1.20386,-5.09292 1.28575,-10.77101 5.84714,-13.33948 4.47169,-2.719 10.64155,-2.1057 14.4938,1.43901 0.66659,0.58837 1.27315,1.24595 1.79606,1.96541 z"
       id="path4208"
       inkscape:connector-curvature="0" />
    <path
       style="fill:none;stroke:#000000"
       d="m -809.46902,191.22092 c -4.34068,1.43561 -9.40482,0.23787 -12.60496,-3.0401 -3.62672,-3.53472 -4.67024,-9.38309 -2.4754,-13.95187 2.08534,-4.7068 7.3552,-7.72267 12.47201,-7.13157 5.21574,0.42875 9.84658,4.55142 10.87965,9.68329 1.2039,5.09289 -1.28549,10.77124 -5.84713,13.33947 -0.76554,0.45213 -1.57836,0.82579 -2.42417,1.10078 z"
       id="path4234"
       inkscape:connector-curvature="0" />
    <path
       style="fill:none;stroke:#000000"
       d="m -904.25262,172.13702 c 2.70671,3.68453 3.13231,8.87087 1.00363,12.92722 -2.24098,4.5415 -7.48062,7.34125 -12.50405,6.66552 -5.12076,-0.52882 -9.61751,-4.60866 -10.63641,-9.65767 -1.20396,-5.09296 1.28592,-10.77099 5.84725,-13.33949 4.4716,-2.71898 10.64134,-2.10564 14.49351,1.43901 0.66659,0.58837 1.27315,1.24596 1.79607,1.96541 z"
       id="path4248"
       inkscape:connector-curvature="0" />
    <path
       style="fill:none;stroke:#000000"
       d="m -1082.2434,256.3097 c 4.6734,-18.79225 19.7334,-35.15486 38.6853,-39.95328 10.7492,-1.79067 22.1065,-0.31174 33.099,-0.79475 74.461,0 148.92204,0 223.38307,0 18.79204,4.67378 35.15521,19.73324 39.95334,38.68534 1.79057,10.74925 0.31171,22.10653 0.7947,33.09896 0,51.78483 0,103.56965 0,155.35448 -4.67346,18.79222 -19.73341,35.15486 -38.6853,39.95325 -10.74924,1.79068 -22.10657,0.31174 -33.09901,0.79475 -74.46103,0 -148.92207,0 -223.3831,0 -18.792,-4.67383 -35.1553,-19.73317 -39.9533,-38.6853 -1.7906,-10.74925 -0.3117,-22.10654 -0.7947,-33.09897 0,-51.78483 0,-103.56965 0,-155.35448 z"
       id="path4264"
       inkscape:connector-curvature="0" />
    <path
       style="fill:none;stroke:#000000"
       d="m -1117.6708,256.08435 c 3.4105,-1.12801 7.3894,-0.18684 9.9036,2.38878 2.8496,2.77727 3.6698,7.37236 1.9451,10.9621 -1.6386,3.6981 -5.7791,6.06768 -9.7993,5.60326 -4.0981,-0.33688 -7.7367,-3.57601 -8.5484,-7.60822 -0.9459,-4.00158 1.0102,-8.463 4.5943,-10.48097 0.6015,-0.35527 1.2401,-0.64888 1.9047,-0.86495 z"
       id="path4296"
       inkscape:connector-curvature="0" />
    <path
       style="fill:none;stroke:#000000"
       d="m -721.79484,271.07891 c -2.12669,-2.89497 -2.46112,-6.96995 -0.78855,-10.15705 1.7608,-3.56832 5.87757,-5.76831 9.82461,-5.23733 4.02345,0.41553 7.55648,3.62122 8.35716,7.58822 0.94599,4.00159 -1.01031,8.46295 -4.59426,10.48098 -3.51342,2.13626 -8.36101,1.65439 -11.38776,-1.13061 -0.52375,-0.46227 -1.00034,-0.97894 -1.4112,-1.54421 z"
       id="path4310"
       inkscape:connector-curvature="0" />
    <path
       style="fill:none;stroke:#000000"
       d="m -1112.4218,337.71045 c 4.3555,1.38991 7.7483,5.33557 8.4103,9.86847 0.8564,4.99135 -1.7366,10.33629 -6.1979,12.7423 -4.4537,2.58208 -10.4898,1.92445 -14.282,-1.56139 -3.9675,-3.41261 -5.2906,-9.46971 -3.1101,-14.2287 2.0195,-4.82803 7.3713,-7.95834 12.5713,-7.355 0.8852,0.0842 1.7624,0.25963 2.6084,0.53432 z"
       id="path4338"
       inkscape:connector-curvature="0" />
    <path
       style="fill:none;stroke:#000000"
       d="m -702.28398,342.21565 c 2.70659,3.68453 3.13213,8.8708 1.00357,12.92712 -2.24097,4.5416 -7.48064,7.34157 -12.50419,6.66576 -5.12077,-0.52884 -9.61744,-4.60881 -10.63636,-9.6578 -1.2039,-5.0929 1.28569,-10.77104 5.84713,-13.33942 4.4717,-2.71893 10.64149,-2.10565 14.49379,1.43896 0.66659,0.58836 1.27315,1.24593 1.79606,1.96538 z"
       id="path4360"
       inkscape:connector-curvature="0" />
    <path
       style="fill:none;stroke:#000000"
       d="m -706.02855,427.93115 c 2.12672,2.89499 2.4611,6.97 0.78856,10.15713 -1.76078,3.56833 -5.8776,5.76824 -9.82461,5.23728 -4.02346,-0.41551 -7.55655,-3.62117 -8.35717,-7.58822 -0.94598,-4.00158 1.01026,-8.46298 4.59426,-10.48096 3.51343,-2.13621 8.36098,-1.65436 11.38776,1.13058 0.52375,0.46227 1.00034,0.97892 1.4112,1.54419 z"
       id="path4380"
       inkscape:connector-curvature="0" />
    <path
       style="fill:none;stroke:#000000"
       d="m -1111.6486,424.39145 c 3.4221,1.09205 6.0879,4.19219 6.6081,7.7537 0.6729,3.92179 -1.3645,8.12142 -4.8698,10.01186 -3.4993,2.02874 -8.2419,1.51193 -11.2214,-1.22676 -3.1174,-2.68133 -4.157,-7.44057 -2.4437,-11.1798 1.5867,-3.79344 5.7918,-6.25277 9.8774,-5.7788 0.6955,0.0661 1.3847,0.20399 2.0494,0.4198 z"
       id="path4398"
       inkscape:connector-curvature="0" />
    <path
       style="fill:none;stroke:#000000"
       d="m -904.25262,512.29415 c 2.70668,3.68454 3.13235,8.87092 1.00359,12.92725 -2.24104,4.54147 -7.48043,7.3418 -12.50402,6.66593 -5.12078,-0.52892 -9.61722,-4.60907 -10.63637,-9.65793 -1.20397,-5.09292 1.2857,-10.77117 5.84724,-13.33945 4.47164,-2.71877 10.64118,-2.10551 14.49349,1.43889 0.66659,0.58833 1.27316,1.24588 1.79607,1.96531 z"
       id="path4420"
       inkscape:connector-curvature="0" />
    <path
       style="fill:none;stroke:#000000"
       d="m -803.26823,526.87305 c -2.66775,3.71301 -7.46885,5.72067 -11.98462,4.94952 -5.01174,-0.72797 -9.29372,-4.84597 -10.20334,-9.83242 -1.07932,-5.0335 1.41102,-10.57098 5.89811,-13.10022 4.47174,-2.71873 10.6414,-2.10555 14.49379,1.4389 3.96761,3.41257 5.29056,9.46979 3.11014,14.22877 -0.35354,0.81576 -0.79146,1.59583 -1.31408,2.31545 z"
       id="path4444"
       inkscape:connector-curvature="0" />
    <path
       style="fill:none;stroke:#000000"
       d="m -702.28398,526.87305 c -2.66774,3.71301 -7.46885,5.72067 -11.98462,4.94952 -5.01174,-0.72797 -9.29371,-4.84598 -10.20334,-9.83242 -1.07933,-5.0335 1.41104,-10.57097 5.89811,-13.10022 4.47174,-2.71873 10.6414,-2.10555 14.49379,1.4389 3.96761,3.41257 5.29056,9.46979 3.11014,14.22877 -0.35354,0.81576 -0.79146,1.59583 -1.31408,2.31545 z"
       id="path4464"
       inkscape:connector-curvature="0" />
    <path
       style="fill:none;stroke:#000000"
       d="m -1019.1024,507.78915 c 4.3407,-1.43563 9.4048,-0.23787 12.605,3.04013 3.6267,3.53471 4.6702,9.38307 2.4754,13.95184 -2.0853,4.70684 -7.3552,7.72279 -12.472,7.13167 -5.2158,-0.42875 -9.8466,-4.55151 -10.8797,-9.6834 -1.2038,-5.09288 1.2855,-10.77121 5.8471,-13.33945 0.7656,-0.45213 1.5784,-0.8258 2.4242,-1.10079 z"
       id="path4476"
       inkscape:connector-curvature="0" />
    <path
       style="fill:none;stroke:#000000"
       d="m -1112.4218,507.78915 c 4.3555,1.38977 7.7484,5.33549 8.4103,9.86842 0.8564,4.99139 -1.7367,10.33622 -6.1979,12.74239 -4.4537,2.58221 -10.4899,1.92454 -14.282,-1.56148 -3.9674,-3.41269 -5.2906,-9.46975 -3.1101,-14.22879 2.0194,-4.82809 7.3714,-7.95813 12.5713,-7.35484 0.8852,0.0842 1.7624,0.25962 2.6084,0.5343 z"
       id="path4498"
       inkscape:connector-curvature="0" />
  </g>
</svg>
