  0
SECTION
  2
BLOCKS
  0
ENDSEC
  0
SECTION
  2
ENTITIES
  0
LINE
  8
0
 10
62.5
 20
54
 11
-62.5
 21
54
  0
LINE
  8
0
 10
-62.5
 20
54
 11
-62.5
 21
-54
  0
LINE
  8
0
 10
-62.5
 20
-54
 11
62.5
 21
-54
  0
LINE
  8
0
 10
62.5
 20
-54
 11
62.5
 21
54
  0
LINE
  8
0
 10
-35.9014
 20
-42.3018
 11
-36.2469
 21
-42.2963
  0
LINE
  8
0
 10
-36.2469
 20
-42.2963
 11
-36.9366
 21
-42.2529
  0
LINE
  8
0
 10
-36.9366
 20
-42.2529
 11
-37.6221
 21
-42.1663
  0
LINE
  8
0
 10
-37.6221
 20
-42.1663
 11
-38.3009
 21
-42.0368
  0
LINE
  8
0
 10
-38.3009
 20
-42.0368
 11
-38.9703
 21
-41.865
  0
LINE
  8
0
 10
-38.9703
 20
-41.865
 11
-39.6275
 21
-41.6514
  0
LINE
  8
0
 10
-39.6275
 20
-41.6514
 11
-40.27
 21
-41.3971
  0
LINE
  8
0
 10
-40.27
 20
-41.3971
 11
-40.8953
 21
-41.1028
  0
LINE
  8
0
 10
-40.8953
 20
-41.1028
 11
-41.5008
 21
-40.7699
  0
LINE
  8
0
 10
-41.5008
 20
-40.7699
 11
-42.0843
 21
-40.3996
  0
LINE
  8
0
 10
-42.0843
 20
-40.3996
 11
-42.6433
 21
-39.9935
  0
LINE
  8
0
 10
-42.6433
 20
-39.9935
 11
-43.1758
 21
-39.553
  0
LINE
  8
0
 10
-43.1758
 20
-39.553
 11
-43.6795
 21
-39.0799
  0
LINE
  8
0
 10
-43.6795
 20
-39.0799
 11
-48.6795
 21
-34.0799
  0
LINE
  8
0
 10
-48.6795
 20
-34.0799
 11
-48.92
 21
-33.8318
  0
LINE
  8
0
 10
-48.92
 20
-33.8318
 11
-49.377
 21
-33.3134
  0
LINE
  8
0
 10
-49.377
 20
-33.3134
 11
-49.8006
 21
-32.7674
  0
LINE
  8
0
 10
-49.8006
 20
-32.7674
 11
-50.189
 21
-32.1958
  0
LINE
  8
0
 10
-50.189
 20
-32.1958
 11
-50.5407
 21
-31.601
  0
LINE
  8
0
 10
-50.5407
 20
-31.601
 11
-50.8545
 21
-30.9853
  0
LINE
  8
0
 10
-50.8545
 20
-30.9853
 11
-51.1289
 21
-30.3511
  0
LINE
  8
0
 10
-51.1289
 20
-30.3511
 11
-51.363
 21
-29.7009
  0
LINE
  8
0
 10
-51.363
 20
-29.7009
 11
-51.5558
 21
-29.0374
  0
LINE
  8
0
 10
-51.5558
 20
-29.0374
 11
-51.7065
 21
-28.3629
  0
LINE
  8
0
 10
-51.7065
 20
-28.3629
 11
-51.8146
 21
-27.6804
  0
LINE
  8
0
 10
-51.8146
 20
-27.6804
 11
-51.8797
 21
-26.9924
  0
LINE
  8
0
 10
-51.8797
 20
-26.9924
 11
-51.9014
 21
-26.3018
  0
LINE
  8
0
 10
-51.9014
 20
-26.3018
 11
-51.9014
 21
26.3018
  0
LINE
  8
0
 10
-51.9014
 20
26.3018
 11
-51.8959
 21
26.6473
  0
LINE
  8
0
 10
-51.8959
 20
26.6473
 11
-51.8526
 21
27.3369
  0
LINE
  8
0
 10
-51.8526
 20
27.3369
 11
-51.7659
 21
28.0225
  0
LINE
  8
0
 10
-51.7659
 20
28.0225
 11
-51.6364
 21
28.7013
  0
LINE
  8
0
 10
-51.6364
 20
28.7013
 11
-51.4646
 21
29.3707
  0
LINE
  8
0
 10
-51.4646
 20
29.3707
 11
-51.2511
 21
30.0279
  0
LINE
  8
0
 10
-51.2511
 20
30.0279
 11
-50.9967
 21
30.6704
  0
LINE
  8
0
 10
-50.9967
 20
30.6704
 11
-50.7024
 21
31.2957
  0
LINE
  8
0
 10
-50.7024
 20
31.2957
 11
-50.3695
 21
31.9012
  0
LINE
  8
0
 10
-50.3695
 20
31.9012
 11
-49.9993
 21
32.4847
  0
LINE
  8
0
 10
-49.9993
 20
32.4847
 11
-49.5931
 21
33.0437
  0
LINE
  8
0
 10
-49.5931
 20
33.0437
 11
-49.1526
 21
33.5762
  0
LINE
  8
0
 10
-49.1526
 20
33.5762
 11
-48.6795
 21
34.0799
  0
LINE
  8
0
 10
-48.6795
 20
34.0799
 11
-43.6795
 21
39.0799
  0
LINE
  8
0
 10
-43.6795
 20
39.0799
 11
-43.4314
 21
39.3204
  0
LINE
  8
0
 10
-43.4314
 20
39.3204
 11
-42.913
 21
39.7774
  0
LINE
  8
0
 10
-42.913
 20
39.7774
 11
-42.367
 21
40.2009
  0
LINE
  8
0
 10
-42.367
 20
40.2009
 11
-41.7955
 21
40.5894
  0
LINE
  8
0
 10
-41.7955
 20
40.5894
 11
-41.2007
 21
40.9411
  0
LINE
  8
0
 10
-41.2007
 20
40.9411
 11
-40.5849
 21
41.2549
  0
LINE
  8
0
 10
-40.5849
 20
41.2549
 11
-39.9507
 21
41.5293
  0
LINE
  8
0
 10
-39.9507
 20
41.5293
 11
-39.3006
 21
41.7634
  0
LINE
  8
0
 10
-39.3006
 20
41.7634
 11
-38.637
 21
41.9562
  0
LINE
  8
0
 10
-38.637
 20
41.9562
 11
-37.9626
 21
42.1069
  0
LINE
  8
0
 10
-37.9626
 20
42.1069
 11
-37.28
 21
42.215
  0
LINE
  8
0
 10
-37.28
 20
42.215
 11
-36.5921
 21
42.28
  0
LINE
  8
0
 10
-36.5921
 20
42.28
 11
-35.9014
 21
42.3018
  0
LINE
  8
0
 10
-35.9014
 20
42.3018
 11
35.9014
 21
42.3018
  0
LINE
  8
0
 10
35.9014
 20
42.3018
 11
36.2469
 21
42.2963
  0
LINE
  8
0
 10
36.2469
 20
42.2963
 11
36.9366
 21
42.2529
  0
LINE
  8
0
 10
36.9366
 20
42.2529
 11
37.6221
 21
42.1663
  0
LINE
  8
0
 10
37.6221
 20
42.1663
 11
38.3009
 21
42.0368
  0
LINE
  8
0
 10
38.3009
 20
42.0368
 11
38.9703
 21
41.865
  0
LINE
  8
0
 10
38.9703
 20
41.865
 11
39.6275
 21
41.6514
  0
LINE
  8
0
 10
39.6275
 20
41.6514
 11
40.27
 21
41.3971
  0
LINE
  8
0
 10
40.27
 20
41.3971
 11
40.8953
 21
41.1028
  0
LINE
  8
0
 10
40.8953
 20
41.1028
 11
41.5008
 21
40.7699
  0
LINE
  8
0
 10
41.5008
 20
40.7699
 11
42.0843
 21
40.3996
  0
LINE
  8
0
 10
42.0843
 20
40.3996
 11
42.6433
 21
39.9935
  0
LINE
  8
0
 10
42.6433
 20
39.9935
 11
43.1758
 21
39.553
  0
LINE
  8
0
 10
43.1758
 20
39.553
 11
43.6795
 21
39.0799
  0
LINE
  8
0
 10
43.6795
 20
39.0799
 11
48.6795
 21
34.0799
  0
LINE
  8
0
 10
48.6795
 20
34.0799
 11
48.92
 21
33.8318
  0
LINE
  8
0
 10
48.92
 20
33.8318
 11
49.377
 21
33.3134
  0
LINE
  8
0
 10
49.377
 20
33.3134
 11
49.8006
 21
32.7674
  0
LINE
  8
0
 10
49.8006
 20
32.7674
 11
50.189
 21
32.1958
  0
LINE
  8
0
 10
50.189
 20
32.1958
 11
50.5407
 21
31.601
  0
LINE
  8
0
 10
50.5407
 20
31.601
 11
50.8545
 21
30.9853
  0
LINE
  8
0
 10
50.8545
 20
30.9853
 11
51.1289
 21
30.3511
  0
LINE
  8
0
 10
51.1289
 20
30.3511
 11
51.363
 21
29.7009
  0
LINE
  8
0
 10
51.363
 20
29.7009
 11
51.5558
 21
29.0374
  0
LINE
  8
0
 10
51.5558
 20
29.0374
 11
51.7065
 21
28.3629
  0
LINE
  8
0
 10
51.7065
 20
28.3629
 11
51.8146
 21
27.6804
  0
LINE
  8
0
 10
51.8146
 20
27.6804
 11
51.8797
 21
26.9924
  0
LINE
  8
0
 10
51.8797
 20
26.9924
 11
51.9014
 21
26.3018
  0
LINE
  8
0
 10
51.9014
 20
26.3018
 11
51.9014
 21
-26.3018
  0
LINE
  8
0
 10
51.9014
 20
-26.3018
 11
51.8959
 21
-26.6473
  0
LINE
  8
0
 10
51.8959
 20
-26.6473
 11
51.8526
 21
-27.3369
  0
LINE
  8
0
 10
51.8526
 20
-27.3369
 11
51.7659
 21
-28.0225
  0
LINE
  8
0
 10
51.7659
 20
-28.0225
 11
51.6364
 21
-28.7013
  0
LINE
  8
0
 10
51.6364
 20
-28.7013
 11
51.4646
 21
-29.3707
  0
LINE
  8
0
 10
51.4646
 20
-29.3707
 11
51.2511
 21
-30.0279
  0
LINE
  8
0
 10
51.2511
 20
-30.0279
 11
50.9967
 21
-30.6704
  0
LINE
  8
0
 10
50.9967
 20
-30.6704
 11
50.7024
 21
-31.2957
  0
LINE
  8
0
 10
50.7024
 20
-31.2957
 11
50.3695
 21
-31.9012
  0
LINE
  8
0
 10
50.3695
 20
-31.9012
 11
49.9993
 21
-32.4847
  0
LINE
  8
0
 10
49.9993
 20
-32.4847
 11
49.5931
 21
-33.0437
  0
LINE
  8
0
 10
49.5931
 20
-33.0437
 11
49.1526
 21
-33.5762
  0
LINE
  8
0
 10
49.1526
 20
-33.5762
 11
48.6795
 21
-34.0799
  0
LINE
  8
0
 10
48.6795
 20
-34.0799
 11
43.6795
 21
-39.0799
  0
LINE
  8
0
 10
43.6795
 20
-39.0799
 11
43.4314
 21
-39.3204
  0
LINE
  8
0
 10
43.4314
 20
-39.3204
 11
42.913
 21
-39.7774
  0
LINE
  8
0
 10
42.913
 20
-39.7774
 11
42.367
 21
-40.2009
  0
LINE
  8
0
 10
42.367
 20
-40.2009
 11
41.7955
 21
-40.5894
  0
LINE
  8
0
 10
41.7955
 20
-40.5894
 11
41.2007
 21
-40.9411
  0
LINE
  8
0
 10
41.2007
 20
-40.9411
 11
40.5849
 21
-41.2549
  0
LINE
  8
0
 10
40.5849
 20
-41.2549
 11
39.9507
 21
-41.5293
  0
LINE
  8
0
 10
39.9507
 20
-41.5293
 11
39.3006
 21
-41.7634
  0
LINE
  8
0
 10
39.3006
 20
-41.7634
 11
38.637
 21
-41.9562
  0
LINE
  8
0
 10
38.637
 20
-41.9562
 11
37.9626
 21
-42.1069
  0
LINE
  8
0
 10
37.9626
 20
-42.1069
 11
37.28
 21
-42.215
  0
LINE
  8
0
 10
37.28
 20
-42.215
 11
36.5921
 21
-42.28
  0
LINE
  8
0
 10
36.5921
 20
-42.28
 11
35.9014
 21
-42.3018
  0
LINE
  8
0
 10
35.9014
 20
-42.3018
 11
-35.9014
 21
-42.3018
  0
LINE
  8
0
 10
-56.8011
 20
19.7579
 11
-57.0513
 21
19.7815
  0
LINE
  8
0
 10
-57.0513
 20
19.7815
 11
-57.2995
 21
19.8208
  0
LINE
  8
0
 10
-57.2995
 20
19.8208
 11
-57.5448
 21
19.8757
  0
LINE
  8
0
 10
-57.5448
 20
19.8757
 11
-57.7861
 21
19.9458
  0
LINE
  8
0
 10
-57.7861
 20
19.9458
 11
-58.0225
 21
20.0309
  0
LINE
  8
0
 10
-58.0225
 20
20.0309
 11
-58.2531
 21
20.1307
  0
LINE
  8
0
 10
-58.2531
 20
20.1307
 11
-58.477
 21
20.2448
  0
LINE
  8
0
 10
-58.477
 20
20.2448
 11
-58.6933
 21
20.3727
  0
LINE
  8
0
 10
-58.6933
 20
20.3727
 11
-58.9011
 21
20.5139
  0
LINE
  8
0
 10
-58.9011
 20
20.5139
 11
-59.0997
 21
20.6679
  0
LINE
  8
0
 10
-59.0997
 20
20.6679
 11
-59.2882
 21
20.8341
  0
LINE
  8
0
 10
-59.2882
 20
20.8341
 11
-59.4659
 21
21.0118
  0
LINE
  8
0
 10
-59.4659
 20
21.0118
 11
-59.632
 21
21.2003
  0
LINE
  8
0
 10
-59.632
 20
21.2003
 11
-59.7861
 21
21.3988
  0
LINE
  8
0
 10
-59.7861
 20
21.3988
 11
-59.9273
 21
21.6067
  0
LINE
  8
0
 10
-59.9273
 20
21.6067
 11
-60.0552
 21
21.823
  0
LINE
  8
0
 10
-60.0552
 20
21.823
 11
-60.1693
 21
22.0469
  0
LINE
  8
0
 10
-60.1693
 20
22.0469
 11
-60.2691
 21
22.2775
  0
LINE
  8
0
 10
-60.2691
 20
22.2775
 11
-60.3542
 21
22.5139
  0
LINE
  8
0
 10
-60.3542
 20
22.5139
 11
-60.4243
 21
22.7552
  0
LINE
  8
0
 10
-60.4243
 20
22.7552
 11
-60.4791
 21
23.0005
  0
LINE
  8
0
 10
-60.4791
 20
23.0005
 11
-60.5184
 21
23.2487
  0
LINE
  8
0
 10
-60.5184
 20
23.2487
 11
-60.5421
 21
23.4988
  0
LINE
  8
0
 10
-60.5421
 20
23.4988
 11
-60.55
 21
23.75
  0
LINE
  8
0
 10
-60.55
 20
23.75
 11
-60.5421
 21
24.0012
  0
LINE
  8
0
 10
-60.5421
 20
24.0012
 11
-60.5184
 21
24.2513
  0
LINE
  8
0
 10
-60.5184
 20
24.2513
 11
-60.4791
 21
24.4995
  0
LINE
  8
0
 10
-60.4791
 20
24.4995
 11
-60.4243
 21
24.7448
  0
LINE
  8
0
 10
-60.4243
 20
24.7448
 11
-60.3542
 21
24.9861
  0
LINE
  8
0
 10
-60.3542
 20
24.9861
 11
-60.2691
 21
25.2225
  0
LINE
  8
0
 10
-60.2691
 20
25.2225
 11
-60.1693
 21
25.4531
  0
LINE
  8
0
 10
-60.1693
 20
25.4531
 11
-60.0552
 21
25.677
  0
LINE
  8
0
 10
-60.0552
 20
25.677
 11
-59.9273
 21
25.8933
  0
LINE
  8
0
 10
-59.9273
 20
25.8933
 11
-59.7861
 21
26.1011
  0
LINE
  8
0
 10
-59.7861
 20
26.1011
 11
-59.632
 21
26.2997
  0
LINE
  8
0
 10
-59.632
 20
26.2997
 11
-59.4659
 21
26.4882
  0
LINE
  8
0
 10
-59.4659
 20
26.4882
 11
-59.2882
 21
26.6659
  0
LINE
  8
0
 10
-59.2882
 20
26.6659
 11
-59.0997
 21
26.832
  0
LINE
  8
0
 10
-59.0997
 20
26.832
 11
-58.9011
 21
26.9861
  0
LINE
  8
0
 10
-58.9011
 20
26.9861
 11
-58.6933
 21
27.1273
  0
LINE
  8
0
 10
-58.6933
 20
27.1273
 11
-58.477
 21
27.2552
  0
LINE
  8
0
 10
-58.477
 20
27.2552
 11
-58.2531
 21
27.3693
  0
LINE
  8
0
 10
-58.2531
 20
27.3693
 11
-58.0225
 21
27.4691
  0
LINE
  8
0
 10
-58.0225
 20
27.4691
 11
-57.7861
 21
27.5542
  0
LINE
  8
0
 10
-57.7861
 20
27.5542
 11
-57.5448
 21
27.6243
  0
LINE
  8
0
 10
-57.5448
 20
27.6243
 11
-57.2995
 21
27.6791
  0
LINE
  8
0
 10
-57.2995
 20
27.6791
 11
-57.0513
 21
27.7184
  0
LINE
  8
0
 10
-57.0513
 20
27.7184
 11
-56.8011
 21
27.7421
  0
LINE
  8
0
 10
-56.8011
 20
27.7421
 11
-56.55
 21
27.75
  0
LINE
  8
0
 10
-56.55
 20
27.75
 11
-56.2988
 21
27.7421
  0
LINE
  8
0
 10
-56.2988
 20
27.7421
 11
-56.0487
 21
27.7184
  0
LINE
  8
0
 10
-56.0487
 20
27.7184
 11
-55.8005
 21
27.6791
  0
LINE
  8
0
 10
-55.8005
 20
27.6791
 11
-55.5552
 21
27.6243
  0
LINE
  8
0
 10
-55.5552
 20
27.6243
 11
-55.3139
 21
27.5542
  0
LINE
  8
0
 10
-55.3139
 20
27.5542
 11
-55.0775
 21
27.4691
  0
LINE
  8
0
 10
-55.0775
 20
27.4691
 11
-54.8469
 21
27.3693
  0
LINE
  8
0
 10
-54.8469
 20
27.3693
 11
-54.623
 21
27.2552
  0
LINE
  8
0
 10
-54.623
 20
27.2552
 11
-54.4067
 21
27.1273
  0
LINE
  8
0
 10
-54.4067
 20
27.1273
 11
-54.1989
 21
26.9861
  0
LINE
  8
0
 10
-54.1989
 20
26.9861
 11
-54.0003
 21
26.832
  0
LINE
  8
0
 10
-54.0003
 20
26.832
 11
-53.8118
 21
26.6659
  0
LINE
  8
0
 10
-53.8118
 20
26.6659
 11
-53.6341
 21
26.4882
  0
LINE
  8
0
 10
-53.6341
 20
26.4882
 11
-53.4679
 21
26.2997
  0
LINE
  8
0
 10
-53.4679
 20
26.2997
 11
-53.3139
 21
26.1011
  0
LINE
  8
0
 10
-53.3139
 20
26.1011
 11
-53.1727
 21
25.8933
  0
LINE
  8
0
 10
-53.1727
 20
25.8933
 11
-53.0448
 21
25.677
  0
LINE
  8
0
 10
-53.0448
 20
25.677
 11
-52.9307
 21
25.4531
  0
LINE
  8
0
 10
-52.9307
 20
25.4531
 11
-52.8309
 21
25.2225
  0
LINE
  8
0
 10
-52.8309
 20
25.2225
 11
-52.7458
 21
24.9861
  0
LINE
  8
0
 10
-52.7458
 20
24.9861
 11
-52.6757
 21
24.7448
  0
LINE
  8
0
 10
-52.6757
 20
24.7448
 11
-52.6208
 21
24.4995
  0
LINE
  8
0
 10
-52.6208
 20
24.4995
 11
-52.5815
 21
24.2513
  0
LINE
  8
0
 10
-52.5815
 20
24.2513
 11
-52.5579
 21
24.0012
  0
LINE
  8
0
 10
-52.5579
 20
24.0012
 11
-52.55
 21
23.75
  0
LINE
  8
0
 10
-52.55
 20
23.75
 11
-52.5579
 21
23.4988
  0
LINE
  8
0
 10
-52.5579
 20
23.4988
 11
-52.5815
 21
23.2487
  0
LINE
  8
0
 10
-52.5815
 20
23.2487
 11
-52.6208
 21
23.0005
  0
LINE
  8
0
 10
-52.6208
 20
23.0005
 11
-52.6757
 21
22.7552
  0
LINE
  8
0
 10
-52.6757
 20
22.7552
 11
-52.7458
 21
22.5139
  0
LINE
  8
0
 10
-52.7458
 20
22.5139
 11
-52.8309
 21
22.2775
  0
LINE
  8
0
 10
-52.8309
 20
22.2775
 11
-52.9307
 21
22.0469
  0
LINE
  8
0
 10
-52.9307
 20
22.0469
 11
-53.0448
 21
21.823
  0
LINE
  8
0
 10
-53.0448
 20
21.823
 11
-53.1727
 21
21.6067
  0
LINE
  8
0
 10
-53.1727
 20
21.6067
 11
-53.3139
 21
21.3988
  0
LINE
  8
0
 10
-53.3139
 20
21.3988
 11
-53.4679
 21
21.2003
  0
LINE
  8
0
 10
-53.4679
 20
21.2003
 11
-53.6341
 21
21.0118
  0
LINE
  8
0
 10
-53.6341
 20
21.0118
 11
-53.8118
 21
20.8341
  0
LINE
  8
0
 10
-53.8118
 20
20.8341
 11
-54.0003
 21
20.6679
  0
LINE
  8
0
 10
-54.0003
 20
20.6679
 11
-54.1989
 21
20.5139
  0
LINE
  8
0
 10
-54.1989
 20
20.5139
 11
-54.4067
 21
20.3727
  0
LINE
  8
0
 10
-54.4067
 20
20.3727
 11
-54.623
 21
20.2448
  0
LINE
  8
0
 10
-54.623
 20
20.2448
 11
-54.8469
 21
20.1307
  0
LINE
  8
0
 10
-54.8469
 20
20.1307
 11
-55.0775
 21
20.0309
  0
LINE
  8
0
 10
-55.0775
 20
20.0309
 11
-55.3139
 21
19.9458
  0
LINE
  8
0
 10
-55.3139
 20
19.9458
 11
-55.5552
 21
19.8757
  0
LINE
  8
0
 10
-55.5552
 20
19.8757
 11
-55.8005
 21
19.8208
  0
LINE
  8
0
 10
-55.8005
 20
19.8208
 11
-56.0487
 21
19.7815
  0
LINE
  8
0
 10
-56.0487
 20
19.7815
 11
-56.2988
 21
19.7579
  0
LINE
  8
0
 10
-56.2988
 20
19.7579
 11
-56.55
 21
19.75
  0
LINE
  8
0
 10
-56.55
 20
19.75
 11
-56.8011
 21
19.7579
  0
LINE
  8
0
 10
56.2988
 20
19.7579
 11
56.0487
 21
19.7815
  0
LINE
  8
0
 10
56.0487
 20
19.7815
 11
55.8005
 21
19.8208
  0
LINE
  8
0
 10
55.8005
 20
19.8208
 11
55.5552
 21
19.8757
  0
LINE
  8
0
 10
55.5552
 20
19.8757
 11
55.3139
 21
19.9458
  0
LINE
  8
0
 10
55.3139
 20
19.9458
 11
55.0775
 21
20.0309
  0
LINE
  8
0
 10
55.0775
 20
20.0309
 11
54.8469
 21
20.1307
  0
LINE
  8
0
 10
54.8469
 20
20.1307
 11
54.623
 21
20.2448
  0
LINE
  8
0
 10
54.623
 20
20.2448
 11
54.4067
 21
20.3727
  0
LINE
  8
0
 10
54.4067
 20
20.3727
 11
54.1989
 21
20.5139
  0
LINE
  8
0
 10
54.1989
 20
20.5139
 11
54.0003
 21
20.6679
  0
LINE
  8
0
 10
54.0003
 20
20.6679
 11
53.8118
 21
20.8341
  0
LINE
  8
0
 10
53.8118
 20
20.8341
 11
53.6341
 21
21.0118
  0
LINE
  8
0
 10
53.6341
 20
21.0118
 11
53.4679
 21
21.2003
  0
LINE
  8
0
 10
53.4679
 20
21.2003
 11
53.3139
 21
21.3988
  0
LINE
  8
0
 10
53.3139
 20
21.3988
 11
53.1727
 21
21.6067
  0
LINE
  8
0
 10
53.1727
 20
21.6067
 11
53.0448
 21
21.823
  0
LINE
  8
0
 10
53.0448
 20
21.823
 11
52.9307
 21
22.0469
  0
LINE
  8
0
 10
52.9307
 20
22.0469
 11
52.8309
 21
22.2775
  0
LINE
  8
0
 10
52.8309
 20
22.2775
 11
52.7458
 21
22.5139
  0
LINE
  8
0
 10
52.7458
 20
22.5139
 11
52.6757
 21
22.7552
  0
LINE
  8
0
 10
52.6757
 20
22.7552
 11
52.6208
 21
23.0005
  0
LINE
  8
0
 10
52.6208
 20
23.0005
 11
52.5815
 21
23.2487
  0
LINE
  8
0
 10
52.5815
 20
23.2487
 11
52.5579
 21
23.4988
  0
LINE
  8
0
 10
52.5579
 20
23.4988
 11
52.55
 21
23.75
  0
LINE
  8
0
 10
52.55
 20
23.75
 11
52.5579
 21
24.0012
  0
LINE
  8
0
 10
52.5579
 20
24.0012
 11
52.5815
 21
24.2513
  0
LINE
  8
0
 10
52.5815
 20
24.2513
 11
52.6208
 21
24.4995
  0
LINE
  8
0
 10
52.6208
 20
24.4995
 11
52.6757
 21
24.7448
  0
LINE
  8
0
 10
52.6757
 20
24.7448
 11
52.7458
 21
24.9861
  0
LINE
  8
0
 10
52.7458
 20
24.9861
 11
52.8309
 21
25.2225
  0
LINE
  8
0
 10
52.8309
 20
25.2225
 11
52.9307
 21
25.4531
  0
LINE
  8
0
 10
52.9307
 20
25.4531
 11
53.0448
 21
25.677
  0
LINE
  8
0
 10
53.0448
 20
25.677
 11
53.1727
 21
25.8933
  0
LINE
  8
0
 10
53.1727
 20
25.8933
 11
53.3139
 21
26.1011
  0
LINE
  8
0
 10
53.3139
 20
26.1011
 11
53.4679
 21
26.2997
  0
LINE
  8
0
 10
53.4679
 20
26.2997
 11
53.6341
 21
26.4882
  0
LINE
  8
0
 10
53.6341
 20
26.4882
 11
53.8118
 21
26.6659
  0
LINE
  8
0
 10
53.8118
 20
26.6659
 11
54.0003
 21
26.832
  0
LINE
  8
0
 10
54.0003
 20
26.832
 11
54.1989
 21
26.9861
  0
LINE
  8
0
 10
54.1989
 20
26.9861
 11
54.4067
 21
27.1273
  0
LINE
  8
0
 10
54.4067
 20
27.1273
 11
54.623
 21
27.2552
  0
LINE
  8
0
 10
54.623
 20
27.2552
 11
54.8469
 21
27.3693
  0
LINE
  8
0
 10
54.8469
 20
27.3693
 11
55.0775
 21
27.4691
  0
LINE
  8
0
 10
55.0775
 20
27.4691
 11
55.3139
 21
27.5542
  0
LINE
  8
0
 10
55.3139
 20
27.5542
 11
55.5552
 21
27.6243
  0
LINE
  8
0
 10
55.5552
 20
27.6243
 11
55.8005
 21
27.6791
  0
LINE
  8
0
 10
55.8005
 20
27.6791
 11
56.0487
 21
27.7184
  0
LINE
  8
0
 10
56.0487
 20
27.7184
 11
56.2988
 21
27.7421
  0
LINE
  8
0
 10
56.2988
 20
27.7421
 11
56.55
 21
27.75
  0
LINE
  8
0
 10
56.55
 20
27.75
 11
56.8011
 21
27.7421
  0
LINE
  8
0
 10
56.8011
 20
27.7421
 11
57.0513
 21
27.7184
  0
LINE
  8
0
 10
57.0513
 20
27.7184
 11
57.2995
 21
27.6791
  0
LINE
  8
0
 10
57.2995
 20
27.6791
 11
57.5448
 21
27.6243
  0
LINE
  8
0
 10
57.5448
 20
27.6243
 11
57.7861
 21
27.5542
  0
LINE
  8
0
 10
57.7861
 20
27.5542
 11
58.0225
 21
27.4691
  0
LINE
  8
0
 10
58.0225
 20
27.4691
 11
58.2531
 21
27.3693
  0
LINE
  8
0
 10
58.2531
 20
27.3693
 11
58.477
 21
27.2552
  0
LINE
  8
0
 10
58.477
 20
27.2552
 11
58.6933
 21
27.1273
  0
LINE
  8
0
 10
58.6933
 20
27.1273
 11
58.9011
 21
26.9861
  0
LINE
  8
0
 10
58.9011
 20
26.9861
 11
59.0997
 21
26.832
  0
LINE
  8
0
 10
59.0997
 20
26.832
 11
59.2882
 21
26.6659
  0
LINE
  8
0
 10
59.2882
 20
26.6659
 11
59.4659
 21
26.4882
  0
LINE
  8
0
 10
59.4659
 20
26.4882
 11
59.632
 21
26.2997
  0
LINE
  8
0
 10
59.632
 20
26.2997
 11
59.7861
 21
26.1011
  0
LINE
  8
0
 10
59.7861
 20
26.1011
 11
59.9273
 21
25.8933
  0
LINE
  8
0
 10
59.9273
 20
25.8933
 11
60.0552
 21
25.677
  0
LINE
  8
0
 10
60.0552
 20
25.677
 11
60.1693
 21
25.4531
  0
LINE
  8
0
 10
60.1693
 20
25.4531
 11
60.2691
 21
25.2225
  0
LINE
  8
0
 10
60.2691
 20
25.2225
 11
60.3542
 21
24.9861
  0
LINE
  8
0
 10
60.3542
 20
24.9861
 11
60.4243
 21
24.7448
  0
LINE
  8
0
 10
60.4243
 20
24.7448
 11
60.4791
 21
24.4995
  0
LINE
  8
0
 10
60.4791
 20
24.4995
 11
60.5184
 21
24.2513
  0
LINE
  8
0
 10
60.5184
 20
24.2513
 11
60.5421
 21
24.0012
  0
LINE
  8
0
 10
60.5421
 20
24.0012
 11
60.55
 21
23.75
  0
LINE
  8
0
 10
60.55
 20
23.75
 11
60.5421
 21
23.4988
  0
LINE
  8
0
 10
60.5421
 20
23.4988
 11
60.5184
 21
23.2487
  0
LINE
  8
0
 10
60.5184
 20
23.2487
 11
60.4791
 21
23.0005
  0
LINE
  8
0
 10
60.4791
 20
23.0005
 11
60.4243
 21
22.7552
  0
LINE
  8
0
 10
60.4243
 20
22.7552
 11
60.3542
 21
22.5139
  0
LINE
  8
0
 10
60.3542
 20
22.5139
 11
60.2691
 21
22.2775
  0
LINE
  8
0
 10
60.2691
 20
22.2775
 11
60.1693
 21
22.0469
  0
LINE
  8
0
 10
60.1693
 20
22.0469
 11
60.0552
 21
21.823
  0
LINE
  8
0
 10
60.0552
 20
21.823
 11
59.9273
 21
21.6067
  0
LINE
  8
0
 10
59.9273
 20
21.6067
 11
59.7861
 21
21.3988
  0
LINE
  8
0
 10
59.7861
 20
21.3988
 11
59.632
 21
21.2003
  0
LINE
  8
0
 10
59.632
 20
21.2003
 11
59.4659
 21
21.0118
  0
LINE
  8
0
 10
59.4659
 20
21.0118
 11
59.2882
 21
20.8341
  0
LINE
  8
0
 10
59.2882
 20
20.8341
 11
59.0997
 21
20.6679
  0
LINE
  8
0
 10
59.0997
 20
20.6679
 11
58.9011
 21
20.5139
  0
LINE
  8
0
 10
58.9011
 20
20.5139
 11
58.6933
 21
20.3727
  0
LINE
  8
0
 10
58.6933
 20
20.3727
 11
58.477
 21
20.2448
  0
LINE
  8
0
 10
58.477
 20
20.2448
 11
58.2531
 21
20.1307
  0
LINE
  8
0
 10
58.2531
 20
20.1307
 11
58.0225
 21
20.0309
  0
LINE
  8
0
 10
58.0225
 20
20.0309
 11
57.7861
 21
19.9458
  0
LINE
  8
0
 10
57.7861
 20
19.9458
 11
57.5448
 21
19.8757
  0
LINE
  8
0
 10
57.5448
 20
19.8757
 11
57.2995
 21
19.8208
  0
LINE
  8
0
 10
57.2995
 20
19.8208
 11
57.0513
 21
19.7815
  0
LINE
  8
0
 10
57.0513
 20
19.7815
 11
56.8011
 21
19.7579
  0
LINE
  8
0
 10
56.8011
 20
19.7579
 11
56.55
 21
19.75
  0
LINE
  8
0
 10
56.55
 20
19.75
 11
56.2988
 21
19.7579
  0
LINE
  8
0
 10
-56.8011
 20
-27.7421
 11
-57.0513
 21
-27.7184
  0
LINE
  8
0
 10
-57.0513
 20
-27.7184
 11
-57.2995
 21
-27.6791
  0
LINE
  8
0
 10
-57.2995
 20
-27.6791
 11
-57.5448
 21
-27.6243
  0
LINE
  8
0
 10
-57.5448
 20
-27.6243
 11
-57.7861
 21
-27.5542
  0
LINE
  8
0
 10
-57.7861
 20
-27.5542
 11
-58.0225
 21
-27.4691
  0
LINE
  8
0
 10
-58.0225
 20
-27.4691
 11
-58.2531
 21
-27.3693
  0
LINE
  8
0
 10
-58.2531
 20
-27.3693
 11
-58.477
 21
-27.2552
  0
LINE
  8
0
 10
-58.477
 20
-27.2552
 11
-58.6933
 21
-27.1273
  0
LINE
  8
0
 10
-58.6933
 20
-27.1273
 11
-58.9011
 21
-26.9861
  0
LINE
  8
0
 10
-58.9011
 20
-26.9861
 11
-59.0997
 21
-26.832
  0
LINE
  8
0
 10
-59.0997
 20
-26.832
 11
-59.2882
 21
-26.6659
  0
LINE
  8
0
 10
-59.2882
 20
-26.6659
 11
-59.4659
 21
-26.4882
  0
LINE
  8
0
 10
-59.4659
 20
-26.4882
 11
-59.632
 21
-26.2997
  0
LINE
  8
0
 10
-59.632
 20
-26.2997
 11
-59.7861
 21
-26.1011
  0
LINE
  8
0
 10
-59.7861
 20
-26.1011
 11
-59.9273
 21
-25.8933
  0
LINE
  8
0
 10
-59.9273
 20
-25.8933
 11
-60.0552
 21
-25.677
  0
LINE
  8
0
 10
-60.0552
 20
-25.677
 11
-60.1693
 21
-25.4531
  0
LINE
  8
0
 10
-60.1693
 20
-25.4531
 11
-60.2691
 21
-25.2225
  0
LINE
  8
0
 10
-60.2691
 20
-25.2225
 11
-60.3542
 21
-24.9861
  0
LINE
  8
0
 10
-60.3542
 20
-24.9861
 11
-60.4243
 21
-24.7448
  0
LINE
  8
0
 10
-60.4243
 20
-24.7448
 11
-60.4791
 21
-24.4995
  0
LINE
  8
0
 10
-60.4791
 20
-24.4995
 11
-60.5184
 21
-24.2513
  0
LINE
  8
0
 10
-60.5184
 20
-24.2513
 11
-60.5421
 21
-24.0012
  0
LINE
  8
0
 10
-60.5421
 20
-24.0012
 11
-60.55
 21
-23.75
  0
LINE
  8
0
 10
-60.55
 20
-23.75
 11
-60.5421
 21
-23.4988
  0
LINE
  8
0
 10
-60.5421
 20
-23.4988
 11
-60.5184
 21
-23.2487
  0
LINE
  8
0
 10
-60.5184
 20
-23.2487
 11
-60.4791
 21
-23.0005
  0
LINE
  8
0
 10
-60.4791
 20
-23.0005
 11
-60.4243
 21
-22.7552
  0
LINE
  8
0
 10
-60.4243
 20
-22.7552
 11
-60.3542
 21
-22.5139
  0
LINE
  8
0
 10
-60.3542
 20
-22.5139
 11
-60.2691
 21
-22.2775
  0
LINE
  8
0
 10
-60.2691
 20
-22.2775
 11
-60.1693
 21
-22.0469
  0
LINE
  8
0
 10
-60.1693
 20
-22.0469
 11
-60.0552
 21
-21.823
  0
LINE
  8
0
 10
-60.0552
 20
-21.823
 11
-59.9273
 21
-21.6067
  0
LINE
  8
0
 10
-59.9273
 20
-21.6067
 11
-59.7861
 21
-21.3988
  0
LINE
  8
0
 10
-59.7861
 20
-21.3988
 11
-59.632
 21
-21.2003
  0
LINE
  8
0
 10
-59.632
 20
-21.2003
 11
-59.4659
 21
-21.0118
  0
LINE
  8
0
 10
-59.4659
 20
-21.0118
 11
-59.2882
 21
-20.8341
  0
LINE
  8
0
 10
-59.2882
 20
-20.8341
 11
-59.0997
 21
-20.6679
  0
LINE
  8
0
 10
-59.0997
 20
-20.6679
 11
-58.9011
 21
-20.5139
  0
LINE
  8
0
 10
-58.9011
 20
-20.5139
 11
-58.6933
 21
-20.3727
  0
LINE
  8
0
 10
-58.6933
 20
-20.3727
 11
-58.477
 21
-20.2448
  0
LINE
  8
0
 10
-58.477
 20
-20.2448
 11
-58.2531
 21
-20.1307
  0
LINE
  8
0
 10
-58.2531
 20
-20.1307
 11
-58.0225
 21
-20.0309
  0
LINE
  8
0
 10
-58.0225
 20
-20.0309
 11
-57.7861
 21
-19.9458
  0
LINE
  8
0
 10
-57.7861
 20
-19.9458
 11
-57.5448
 21
-19.8757
  0
LINE
  8
0
 10
-57.5448
 20
-19.8757
 11
-57.2995
 21
-19.8208
  0
LINE
  8
0
 10
-57.2995
 20
-19.8208
 11
-57.0513
 21
-19.7815
  0
LINE
  8
0
 10
-57.0513
 20
-19.7815
 11
-56.8011
 21
-19.7579
  0
LINE
  8
0
 10
-56.8011
 20
-19.7579
 11
-56.55
 21
-19.75
  0
LINE
  8
0
 10
-56.55
 20
-19.75
 11
-56.2988
 21
-19.7579
  0
LINE
  8
0
 10
-56.2988
 20
-19.7579
 11
-56.0487
 21
-19.7815
  0
LINE
  8
0
 10
-56.0487
 20
-19.7815
 11
-55.8005
 21
-19.8208
  0
LINE
  8
0
 10
-55.8005
 20
-19.8208
 11
-55.5552
 21
-19.8757
  0
LINE
  8
0
 10
-55.5552
 20
-19.8757
 11
-55.3139
 21
-19.9458
  0
LINE
  8
0
 10
-55.3139
 20
-19.9458
 11
-55.0775
 21
-20.0309
  0
LINE
  8
0
 10
-55.0775
 20
-20.0309
 11
-54.8469
 21
-20.1307
  0
LINE
  8
0
 10
-54.8469
 20
-20.1307
 11
-54.623
 21
-20.2448
  0
LINE
  8
0
 10
-54.623
 20
-20.2448
 11
-54.4067
 21
-20.3727
  0
LINE
  8
0
 10
-54.4067
 20
-20.3727
 11
-54.1989
 21
-20.5139
  0
LINE
  8
0
 10
-54.1989
 20
-20.5139
 11
-54.0003
 21
-20.6679
  0
LINE
  8
0
 10
-54.0003
 20
-20.6679
 11
-53.8118
 21
-20.8341
  0
LINE
  8
0
 10
-53.8118
 20
-20.8341
 11
-53.6341
 21
-21.0118
  0
LINE
  8
0
 10
-53.6341
 20
-21.0118
 11
-53.4679
 21
-21.2003
  0
LINE
  8
0
 10
-53.4679
 20
-21.2003
 11
-53.3139
 21
-21.3988
  0
LINE
  8
0
 10
-53.3139
 20
-21.3988
 11
-53.1727
 21
-21.6067
  0
LINE
  8
0
 10
-53.1727
 20
-21.6067
 11
-53.0448
 21
-21.823
  0
LINE
  8
0
 10
-53.0448
 20
-21.823
 11
-52.9307
 21
-22.0469
  0
LINE
  8
0
 10
-52.9307
 20
-22.0469
 11
-52.8309
 21
-22.2775
  0
LINE
  8
0
 10
-52.8309
 20
-22.2775
 11
-52.7458
 21
-22.5139
  0
LINE
  8
0
 10
-52.7458
 20
-22.5139
 11
-52.6757
 21
-22.7552
  0
LINE
  8
0
 10
-52.6757
 20
-22.7552
 11
-52.6208
 21
-23.0005
  0
LINE
  8
0
 10
-52.6208
 20
-23.0005
 11
-52.5815
 21
-23.2487
  0
LINE
  8
0
 10
-52.5815
 20
-23.2487
 11
-52.5579
 21
-23.4988
  0
LINE
  8
0
 10
-52.5579
 20
-23.4988
 11
-52.55
 21
-23.75
  0
LINE
  8
0
 10
-52.55
 20
-23.75
 11
-52.5579
 21
-24.0012
  0
LINE
  8
0
 10
-52.5579
 20
-24.0012
 11
-52.5815
 21
-24.2513
  0
LINE
  8
0
 10
-52.5815
 20
-24.2513
 11
-52.6208
 21
-24.4995
  0
LINE
  8
0
 10
-52.6208
 20
-24.4995
 11
-52.6757
 21
-24.7448
  0
LINE
  8
0
 10
-52.6757
 20
-24.7448
 11
-52.7458
 21
-24.9861
  0
LINE
  8
0
 10
-52.7458
 20
-24.9861
 11
-52.8309
 21
-25.2225
  0
LINE
  8
0
 10
-52.8309
 20
-25.2225
 11
-52.9307
 21
-25.4531
  0
LINE
  8
0
 10
-52.9307
 20
-25.4531
 11
-53.0448
 21
-25.677
  0
LINE
  8
0
 10
-53.0448
 20
-25.677
 11
-53.1727
 21
-25.8933
  0
LINE
  8
0
 10
-53.1727
 20
-25.8933
 11
-53.3139
 21
-26.1011
  0
LINE
  8
0
 10
-53.3139
 20
-26.1011
 11
-53.4679
 21
-26.2997
  0
LINE
  8
0
 10
-53.4679
 20
-26.2997
 11
-53.6341
 21
-26.4882
  0
LINE
  8
0
 10
-53.6341
 20
-26.4882
 11
-53.8118
 21
-26.6659
  0
LINE
  8
0
 10
-53.8118
 20
-26.6659
 11
-54.0003
 21
-26.832
  0
LINE
  8
0
 10
-54.0003
 20
-26.832
 11
-54.1989
 21
-26.9861
  0
LINE
  8
0
 10
-54.1989
 20
-26.9861
 11
-54.4067
 21
-27.1273
  0
LINE
  8
0
 10
-54.4067
 20
-27.1273
 11
-54.623
 21
-27.2552
  0
LINE
  8
0
 10
-54.623
 20
-27.2552
 11
-54.8469
 21
-27.3693
  0
LINE
  8
0
 10
-54.8469
 20
-27.3693
 11
-55.0775
 21
-27.4691
  0
LINE
  8
0
 10
-55.0775
 20
-27.4691
 11
-55.3139
 21
-27.5542
  0
LINE
  8
0
 10
-55.3139
 20
-27.5542
 11
-55.5552
 21
-27.6243
  0
LINE
  8
0
 10
-55.5552
 20
-27.6243
 11
-55.8005
 21
-27.6791
  0
LINE
  8
0
 10
-55.8005
 20
-27.6791
 11
-56.0487
 21
-27.7184
  0
LINE
  8
0
 10
-56.0487
 20
-27.7184
 11
-56.2988
 21
-27.7421
  0
LINE
  8
0
 10
-56.2988
 20
-27.7421
 11
-56.55
 21
-27.75
  0
LINE
  8
0
 10
-56.55
 20
-27.75
 11
-56.8011
 21
-27.7421
  0
LINE
  8
0
 10
56.2988
 20
-27.7421
 11
56.0487
 21
-27.7184
  0
LINE
  8
0
 10
56.0487
 20
-27.7184
 11
55.8005
 21
-27.6791
  0
LINE
  8
0
 10
55.8005
 20
-27.6791
 11
55.5552
 21
-27.6243
  0
LINE
  8
0
 10
55.5552
 20
-27.6243
 11
55.3139
 21
-27.5542
  0
LINE
  8
0
 10
55.3139
 20
-27.5542
 11
55.0775
 21
-27.4691
  0
LINE
  8
0
 10
55.0775
 20
-27.4691
 11
54.8469
 21
-27.3693
  0
LINE
  8
0
 10
54.8469
 20
-27.3693
 11
54.623
 21
-27.2552
  0
LINE
  8
0
 10
54.623
 20
-27.2552
 11
54.4067
 21
-27.1273
  0
LINE
  8
0
 10
54.4067
 20
-27.1273
 11
54.1989
 21
-26.9861
  0
LINE
  8
0
 10
54.1989
 20
-26.9861
 11
54.0003
 21
-26.832
  0
LINE
  8
0
 10
54.0003
 20
-26.832
 11
53.8118
 21
-26.6659
  0
LINE
  8
0
 10
53.8118
 20
-26.6659
 11
53.6341
 21
-26.4882
  0
LINE
  8
0
 10
53.6341
 20
-26.4882
 11
53.4679
 21
-26.2997
  0
LINE
  8
0
 10
53.4679
 20
-26.2997
 11
53.3139
 21
-26.1011
  0
LINE
  8
0
 10
53.3139
 20
-26.1011
 11
53.1727
 21
-25.8933
  0
LINE
  8
0
 10
53.1727
 20
-25.8933
 11
53.0448
 21
-25.677
  0
LINE
  8
0
 10
53.0448
 20
-25.677
 11
52.9307
 21
-25.4531
  0
LINE
  8
0
 10
52.9307
 20
-25.4531
 11
52.8309
 21
-25.2225
  0
LINE
  8
0
 10
52.8309
 20
-25.2225
 11
52.7458
 21
-24.9861
  0
LINE
  8
0
 10
52.7458
 20
-24.9861
 11
52.6757
 21
-24.7448
  0
LINE
  8
0
 10
52.6757
 20
-24.7448
 11
52.6208
 21
-24.4995
  0
LINE
  8
0
 10
52.6208
 20
-24.4995
 11
52.5815
 21
-24.2513
  0
LINE
  8
0
 10
52.5815
 20
-24.2513
 11
52.5579
 21
-24.0012
  0
LINE
  8
0
 10
52.5579
 20
-24.0012
 11
52.55
 21
-23.75
  0
LINE
  8
0
 10
52.55
 20
-23.75
 11
52.5579
 21
-23.4988
  0
LINE
  8
0
 10
52.5579
 20
-23.4988
 11
52.5815
 21
-23.2487
  0
LINE
  8
0
 10
52.5815
 20
-23.2487
 11
52.6208
 21
-23.0005
  0
LINE
  8
0
 10
52.6208
 20
-23.0005
 11
52.6757
 21
-22.7552
  0
LINE
  8
0
 10
52.6757
 20
-22.7552
 11
52.7458
 21
-22.5139
  0
LINE
  8
0
 10
52.7458
 20
-22.5139
 11
52.8309
 21
-22.2775
  0
LINE
  8
0
 10
52.8309
 20
-22.2775
 11
52.9307
 21
-22.0469
  0
LINE
  8
0
 10
52.9307
 20
-22.0469
 11
53.0448
 21
-21.823
  0
LINE
  8
0
 10
53.0448
 20
-21.823
 11
53.1727
 21
-21.6067
  0
LINE
  8
0
 10
53.1727
 20
-21.6067
 11
53.3139
 21
-21.3988
  0
LINE
  8
0
 10
53.3139
 20
-21.3988
 11
53.4679
 21
-21.2003
  0
LINE
  8
0
 10
53.4679
 20
-21.2003
 11
53.6341
 21
-21.0118
  0
LINE
  8
0
 10
53.6341
 20
-21.0118
 11
53.8118
 21
-20.8341
  0
LINE
  8
0
 10
53.8118
 20
-20.8341
 11
54.0003
 21
-20.6679
  0
LINE
  8
0
 10
54.0003
 20
-20.6679
 11
54.1989
 21
-20.5139
  0
LINE
  8
0
 10
54.1989
 20
-20.5139
 11
54.4067
 21
-20.3727
  0
LINE
  8
0
 10
54.4067
 20
-20.3727
 11
54.623
 21
-20.2448
  0
LINE
  8
0
 10
54.623
 20
-20.2448
 11
54.8469
 21
-20.1307
  0
LINE
  8
0
 10
54.8469
 20
-20.1307
 11
55.0775
 21
-20.0309
  0
LINE
  8
0
 10
55.0775
 20
-20.0309
 11
55.3139
 21
-19.9458
  0
LINE
  8
0
 10
55.3139
 20
-19.9458
 11
55.5552
 21
-19.8757
  0
LINE
  8
0
 10
55.5552
 20
-19.8757
 11
55.8005
 21
-19.8208
  0
LINE
  8
0
 10
55.8005
 20
-19.8208
 11
56.0487
 21
-19.7815
  0
LINE
  8
0
 10
56.0487
 20
-19.7815
 11
56.2988
 21
-19.7579
  0
LINE
  8
0
 10
56.2988
 20
-19.7579
 11
56.55
 21
-19.75
  0
LINE
  8
0
 10
56.55
 20
-19.75
 11
56.8011
 21
-19.7579
  0
LINE
  8
0
 10
56.8011
 20
-19.7579
 11
57.0513
 21
-19.7815
  0
LINE
  8
0
 10
57.0513
 20
-19.7815
 11
57.2995
 21
-19.8208
  0
LINE
  8
0
 10
57.2995
 20
-19.8208
 11
57.5448
 21
-19.8757
  0
LINE
  8
0
 10
57.5448
 20
-19.8757
 11
57.7861
 21
-19.9458
  0
LINE
  8
0
 10
57.7861
 20
-19.9458
 11
58.0225
 21
-20.0309
  0
LINE
  8
0
 10
58.0225
 20
-20.0309
 11
58.2531
 21
-20.1307
  0
LINE
  8
0
 10
58.2531
 20
-20.1307
 11
58.477
 21
-20.2448
  0
LINE
  8
0
 10
58.477
 20
-20.2448
 11
58.6933
 21
-20.3727
  0
LINE
  8
0
 10
58.6933
 20
-20.3727
 11
58.9011
 21
-20.5139
  0
LINE
  8
0
 10
58.9011
 20
-20.5139
 11
59.0997
 21
-20.6679
  0
LINE
  8
0
 10
59.0997
 20
-20.6679
 11
59.2882
 21
-20.8341
  0
LINE
  8
0
 10
59.2882
 20
-20.8341
 11
59.4659
 21
-21.0118
  0
LINE
  8
0
 10
59.4659
 20
-21.0118
 11
59.632
 21
-21.2003
  0
LINE
  8
0
 10
59.632
 20
-21.2003
 11
59.7861
 21
-21.3988
  0
LINE
  8
0
 10
59.7861
 20
-21.3988
 11
59.9273
 21
-21.6067
  0
LINE
  8
0
 10
59.9273
 20
-21.6067
 11
60.0552
 21
-21.823
  0
LINE
  8
0
 10
60.0552
 20
-21.823
 11
60.1693
 21
-22.0469
  0
LINE
  8
0
 10
60.1693
 20
-22.0469
 11
60.2691
 21
-22.2775
  0
LINE
  8
0
 10
60.2691
 20
-22.2775
 11
60.3542
 21
-22.5139
  0
LINE
  8
0
 10
60.3542
 20
-22.5139
 11
60.4243
 21
-22.7552
  0
LINE
  8
0
 10
60.4243
 20
-22.7552
 11
60.4791
 21
-23.0005
  0
LINE
  8
0
 10
60.4791
 20
-23.0005
 11
60.5184
 21
-23.2487
  0
LINE
  8
0
 10
60.5184
 20
-23.2487
 11
60.5421
 21
-23.4988
  0
LINE
  8
0
 10
60.5421
 20
-23.4988
 11
60.55
 21
-23.75
  0
LINE
  8
0
 10
60.55
 20
-23.75
 11
60.5421
 21
-24.0012
  0
LINE
  8
0
 10
60.5421
 20
-24.0012
 11
60.5184
 21
-24.2513
  0
LINE
  8
0
 10
60.5184
 20
-24.2513
 11
60.4791
 21
-24.4995
  0
LINE
  8
0
 10
60.4791
 20
-24.4995
 11
60.4243
 21
-24.7448
  0
LINE
  8
0
 10
60.4243
 20
-24.7448
 11
60.3542
 21
-24.9861
  0
LINE
  8
0
 10
60.3542
 20
-24.9861
 11
60.2691
 21
-25.2225
  0
LINE
  8
0
 10
60.2691
 20
-25.2225
 11
60.1693
 21
-25.4531
  0
LINE
  8
0
 10
60.1693
 20
-25.4531
 11
60.0552
 21
-25.677
  0
LINE
  8
0
 10
60.0552
 20
-25.677
 11
59.9273
 21
-25.8933
  0
LINE
  8
0
 10
59.9273
 20
-25.8933
 11
59.7861
 21
-26.1011
  0
LINE
  8
0
 10
59.7861
 20
-26.1011
 11
59.632
 21
-26.2997
  0
LINE
  8
0
 10
59.632
 20
-26.2997
 11
59.4659
 21
-26.4882
  0
LINE
  8
0
 10
59.4659
 20
-26.4882
 11
59.2882
 21
-26.6659
  0
LINE
  8
0
 10
59.2882
 20
-26.6659
 11
59.0997
 21
-26.832
  0
LINE
  8
0
 10
59.0997
 20
-26.832
 11
58.9011
 21
-26.9861
  0
LINE
  8
0
 10
58.9011
 20
-26.9861
 11
58.6933
 21
-27.1273
  0
LINE
  8
0
 10
58.6933
 20
-27.1273
 11
58.477
 21
-27.2552
  0
LINE
  8
0
 10
58.477
 20
-27.2552
 11
58.2531
 21
-27.3693
  0
LINE
  8
0
 10
58.2531
 20
-27.3693
 11
58.0225
 21
-27.4691
  0
LINE
  8
0
 10
58.0225
 20
-27.4691
 11
57.7861
 21
-27.5542
  0
LINE
  8
0
 10
57.7861
 20
-27.5542
 11
57.5448
 21
-27.6243
  0
LINE
  8
0
 10
57.5448
 20
-27.6243
 11
57.2995
 21
-27.6791
  0
LINE
  8
0
 10
57.2995
 20
-27.6791
 11
57.0513
 21
-27.7184
  0
LINE
  8
0
 10
57.0513
 20
-27.7184
 11
56.8011
 21
-27.7421
  0
LINE
  8
0
 10
56.8011
 20
-27.7421
 11
56.55
 21
-27.75
  0
LINE
  8
0
 10
56.55
 20
-27.75
 11
56.2988
 21
-27.7421
  0
ENDSEC
  0
SECTION
  2
OBJECTS
  0
DICTIONARY
  0
ENDSEC
  0
EOF
