  0
SECTION
  2
BLOCKS
  0
ENDSEC
  0
SECTION
  2
ENTITIES
  0
LINE
  8
0
 10
70
 20
50
 11
-70
 21
50
  0
LINE
  8
0
 10
-70
 20
50
 11
-70
 21
-50
  0
LINE
  8
0
 10
-70
 20
-50
 11
70
 21
-50
  0
LINE
  8
0
 10
70
 20
-50
 11
70
 21
50
  0
LINE
  8
0
 10
-65.0942
 20
43.5029
 11
-65.2811
 21
43.5266
  0
LINE
  8
0
 10
-65.2811
 20
43.5266
 11
-65.4635
 21
43.5734
  0
LINE
  8
0
 10
-65.4635
 20
43.5734
 11
-65.6387
 21
43.6427
  0
LINE
  8
0
 10
-65.6387
 20
43.6427
 11
-65.8037
 21
43.7335
  0
LINE
  8
0
 10
-65.8037
 20
43.7335
 11
-65.9561
 21
43.8442
  0
LINE
  8
0
 10
-65.9561
 20
43.8442
 11
-66.0934
 21
43.9732
  0
LINE
  8
0
 10
-66.0934
 20
43.9732
 11
-66.2135
 21
44.1183
  0
LINE
  8
0
 10
-66.2135
 20
44.1183
 11
-66.3145
 21
44.2774
  0
LINE
  8
0
 10
-66.3145
 20
44.2774
 11
-66.3947
 21
44.4478
  0
LINE
  8
0
 10
-66.3947
 20
44.4478
 11
-66.4529
 21
44.627
  0
LINE
  8
0
 10
-66.4529
 20
44.627
 11
-66.4882
 21
44.812
  0
LINE
  8
0
 10
-66.4882
 20
44.812
 11
-66.5
 21
45
  0
LINE
  8
0
 10
-66.5
 20
45
 11
-66.4882
 21
45.188
  0
LINE
  8
0
 10
-66.4882
 20
45.188
 11
-66.4529
 21
45.373
  0
LINE
  8
0
 10
-66.4529
 20
45.373
 11
-66.3947
 21
45.5522
  0
LINE
  8
0
 10
-66.3947
 20
45.5522
 11
-66.3145
 21
45.7226
  0
LINE
  8
0
 10
-66.3145
 20
45.7226
 11
-66.2135
 21
45.8817
  0
LINE
  8
0
 10
-66.2135
 20
45.8817
 11
-66.0934
 21
46.0268
  0
LINE
  8
0
 10
-66.0934
 20
46.0268
 11
-65.9561
 21
46.1558
  0
LINE
  8
0
 10
-65.9561
 20
46.1558
 11
-65.8037
 21
46.2665
  0
LINE
  8
0
 10
-65.8037
 20
46.2665
 11
-65.6387
 21
46.3572
  0
LINE
  8
0
 10
-65.6387
 20
46.3572
 11
-65.4635
 21
46.4266
  0
LINE
  8
0
 10
-65.4635
 20
46.4266
 11
-65.2811
 21
46.4734
  0
LINE
  8
0
 10
-65.2811
 20
46.4734
 11
-65.0942
 21
46.497
  0
LINE
  8
0
 10
-65.0942
 20
46.497
 11
-64.9058
 21
46.497
  0
LINE
  8
0
 10
-64.9058
 20
46.497
 11
-64.7189
 21
46.4734
  0
LINE
  8
0
 10
-64.7189
 20
46.4734
 11
-64.5365
 21
46.4266
  0
LINE
  8
0
 10
-64.5365
 20
46.4266
 11
-64.3613
 21
46.3572
  0
LINE
  8
0
 10
-64.3613
 20
46.3572
 11
-64.1963
 21
46.2665
  0
LINE
  8
0
 10
-64.1963
 20
46.2665
 11
-64.0439
 21
46.1558
  0
LINE
  8
0
 10
-64.0439
 20
46.1558
 11
-63.9065
 21
46.0268
  0
LINE
  8
0
 10
-63.9065
 20
46.0268
 11
-63.7865
 21
45.8817
  0
LINE
  8
0
 10
-63.7865
 20
45.8817
 11
-63.6855
 21
45.7226
  0
LINE
  8
0
 10
-63.6855
 20
45.7226
 11
-63.6053
 21
45.5522
  0
LINE
  8
0
 10
-63.6053
 20
45.5522
 11
-63.5471
 21
45.373
  0
LINE
  8
0
 10
-63.5471
 20
45.373
 11
-63.5118
 21
45.188
  0
LINE
  8
0
 10
-63.5118
 20
45.188
 11
-63.5
 21
45
  0
LINE
  8
0
 10
-63.5
 20
45
 11
-63.5118
 21
44.812
  0
LINE
  8
0
 10
-63.5118
 20
44.812
 11
-63.5471
 21
44.627
  0
LINE
  8
0
 10
-63.5471
 20
44.627
 11
-63.6053
 21
44.4478
  0
LINE
  8
0
 10
-63.6053
 20
44.4478
 11
-63.6855
 21
44.2774
  0
LINE
  8
0
 10
-63.6855
 20
44.2774
 11
-63.7865
 21
44.1183
  0
LINE
  8
0
 10
-63.7865
 20
44.1183
 11
-63.9065
 21
43.9732
  0
LINE
  8
0
 10
-63.9065
 20
43.9732
 11
-64.0439
 21
43.8442
  0
LINE
  8
0
 10
-64.0439
 20
43.8442
 11
-64.1963
 21
43.7335
  0
LINE
  8
0
 10
-64.1963
 20
43.7335
 11
-64.3613
 21
43.6427
  0
LINE
  8
0
 10
-64.3613
 20
43.6427
 11
-64.5365
 21
43.5734
  0
LINE
  8
0
 10
-64.5365
 20
43.5734
 11
-64.7189
 21
43.5266
  0
LINE
  8
0
 10
-64.7189
 20
43.5266
 11
-64.9058
 21
43.5029
  0
LINE
  8
0
 10
-64.9058
 20
43.5029
 11
-65.0942
 21
43.5029
  0
LINE
  8
0
 10
64.9058
 20
43.5029
 11
64.7189
 21
43.5266
  0
LINE
  8
0
 10
64.7189
 20
43.5266
 11
64.5365
 21
43.5734
  0
LINE
  8
0
 10
64.5365
 20
43.5734
 11
64.3613
 21
43.6427
  0
LINE
  8
0
 10
64.3613
 20
43.6427
 11
64.1963
 21
43.7335
  0
LINE
  8
0
 10
64.1963
 20
43.7335
 11
64.0439
 21
43.8442
  0
LINE
  8
0
 10
64.0439
 20
43.8442
 11
63.9065
 21
43.9732
  0
LINE
  8
0
 10
63.9065
 20
43.9732
 11
63.7865
 21
44.1183
  0
LINE
  8
0
 10
63.7865
 20
44.1183
 11
63.6855
 21
44.2774
  0
LINE
  8
0
 10
63.6855
 20
44.2774
 11
63.6053
 21
44.4478
  0
LINE
  8
0
 10
63.6053
 20
44.4478
 11
63.5471
 21
44.627
  0
LINE
  8
0
 10
63.5471
 20
44.627
 11
63.5118
 21
44.812
  0
LINE
  8
0
 10
63.5118
 20
44.812
 11
63.5
 21
45
  0
LINE
  8
0
 10
63.5
 20
45
 11
63.5118
 21
45.188
  0
LINE
  8
0
 10
63.5118
 20
45.188
 11
63.5471
 21
45.373
  0
LINE
  8
0
 10
63.5471
 20
45.373
 11
63.6053
 21
45.5522
  0
LINE
  8
0
 10
63.6053
 20
45.5522
 11
63.6855
 21
45.7226
  0
LINE
  8
0
 10
63.6855
 20
45.7226
 11
63.7865
 21
45.8817
  0
LINE
  8
0
 10
63.7865
 20
45.8817
 11
63.9065
 21
46.0268
  0
LINE
  8
0
 10
63.9065
 20
46.0268
 11
64.0439
 21
46.1558
  0
LINE
  8
0
 10
64.0439
 20
46.1558
 11
64.1963
 21
46.2665
  0
LINE
  8
0
 10
64.1963
 20
46.2665
 11
64.3613
 21
46.3572
  0
LINE
  8
0
 10
64.3613
 20
46.3572
 11
64.5365
 21
46.4266
  0
LINE
  8
0
 10
64.5365
 20
46.4266
 11
64.7189
 21
46.4734
  0
LINE
  8
0
 10
64.7189
 20
46.4734
 11
64.9058
 21
46.497
  0
LINE
  8
0
 10
64.9058
 20
46.497
 11
65.0942
 21
46.497
  0
LINE
  8
0
 10
65.0942
 20
46.497
 11
65.2811
 21
46.4734
  0
LINE
  8
0
 10
65.2811
 20
46.4734
 11
65.4635
 21
46.4266
  0
LINE
  8
0
 10
65.4635
 20
46.4266
 11
65.6387
 21
46.3572
  0
LINE
  8
0
 10
65.6387
 20
46.3572
 11
65.8037
 21
46.2665
  0
LINE
  8
0
 10
65.8037
 20
46.2665
 11
65.9561
 21
46.1558
  0
LINE
  8
0
 10
65.9561
 20
46.1558
 11
66.0934
 21
46.0268
  0
LINE
  8
0
 10
66.0934
 20
46.0268
 11
66.2135
 21
45.8817
  0
LINE
  8
0
 10
66.2135
 20
45.8817
 11
66.3145
 21
45.7226
  0
LINE
  8
0
 10
66.3145
 20
45.7226
 11
66.3947
 21
45.5522
  0
LINE
  8
0
 10
66.3947
 20
45.5522
 11
66.4529
 21
45.373
  0
LINE
  8
0
 10
66.4529
 20
45.373
 11
66.4882
 21
45.188
  0
LINE
  8
0
 10
66.4882
 20
45.188
 11
66.5
 21
45
  0
LINE
  8
0
 10
66.5
 20
45
 11
66.4882
 21
44.812
  0
LINE
  8
0
 10
66.4882
 20
44.812
 11
66.4529
 21
44.627
  0
LINE
  8
0
 10
66.4529
 20
44.627
 11
66.3947
 21
44.4478
  0
LINE
  8
0
 10
66.3947
 20
44.4478
 11
66.3145
 21
44.2774
  0
LINE
  8
0
 10
66.3145
 20
44.2774
 11
66.2135
 21
44.1183
  0
LINE
  8
0
 10
66.2135
 20
44.1183
 11
66.0934
 21
43.9732
  0
LINE
  8
0
 10
66.0934
 20
43.9732
 11
65.9561
 21
43.8442
  0
LINE
  8
0
 10
65.9561
 20
43.8442
 11
65.8037
 21
43.7335
  0
LINE
  8
0
 10
65.8037
 20
43.7335
 11
65.6387
 21
43.6427
  0
LINE
  8
0
 10
65.6387
 20
43.6427
 11
65.4635
 21
43.5734
  0
LINE
  8
0
 10
65.4635
 20
43.5734
 11
65.2811
 21
43.5266
  0
LINE
  8
0
 10
65.2811
 20
43.5266
 11
65.0942
 21
43.5029
  0
LINE
  8
0
 10
65.0942
 20
43.5029
 11
64.9058
 21
43.5029
  0
LINE
  8
0
 10
-5.09418
 20
3.50294
 11
-5.28107
 21
3.52657
  0
LINE
  8
0
 10
-5.28107
 20
3.52657
 11
-5.46352
 21
3.57341
  0
LINE
  8
0
 10
-5.46352
 20
3.57341
 11
-5.63866
 21
3.64275
  0
LINE
  8
0
 10
-5.63866
 20
3.64275
 11
-5.80373
 21
3.73351
  0
LINE
  8
0
 10
-5.80373
 20
3.73351
 11
-5.95613
 21
3.84422
  0
LINE
  8
0
 10
-5.95613
 20
3.84422
 11
-6.09344
 21
3.97318
  0
LINE
  8
0
 10
-6.09344
 20
3.97318
 11
-6.21352
 21
4.11832
  0
LINE
  8
0
 10
-6.21352
 20
4.11832
 11
-6.31445
 21
4.27736
  0
LINE
  8
0
 10
-6.31445
 20
4.27736
 11
-6.39465
 21
4.4478
  0
LINE
  8
0
 10
-6.39465
 20
4.4478
 11
-6.45287
 21
4.62695
  0
LINE
  8
0
 10
-6.45287
 20
4.62695
 11
-6.48816
 21
4.812
  0
LINE
  8
0
 10
-6.48816
 20
4.812
 11
-6.5
 21
5
  0
LINE
  8
0
 10
-6.5
 20
5
 11
-6.48816
 21
5.18799
  0
LINE
  8
0
 10
-6.48816
 20
5.18799
 11
-6.45287
 21
5.37303
  0
LINE
  8
0
 10
-6.45287
 20
5.37303
 11
-6.39465
 21
5.55219
  0
LINE
  8
0
 10
-6.39465
 20
5.55219
 11
-6.31445
 21
5.72263
  0
LINE
  8
0
 10
-6.31445
 20
5.72263
 11
-6.21352
 21
5.88167
  0
LINE
  8
0
 10
-6.21352
 20
5.88167
 11
-6.09344
 21
6.02681
  0
LINE
  8
0
 10
-6.09344
 20
6.02681
 11
-5.95613
 21
6.15576
  0
LINE
  8
0
 10
-5.95613
 20
6.15576
 11
-5.80373
 21
6.26648
  0
LINE
  8
0
 10
-5.80373
 20
6.26648
 11
-5.63866
 21
6.35724
  0
LINE
  8
0
 10
-5.63866
 20
6.35724
 11
-5.46352
 21
6.42657
  0
LINE
  8
0
 10
-5.46352
 20
6.42657
 11
-5.28107
 21
6.47342
  0
LINE
  8
0
 10
-5.28107
 20
6.47342
 11
-5.09418
 21
6.49704
  0
LINE
  8
0
 10
-5.09418
 20
6.49704
 11
-4.90581
 21
6.49704
  0
LINE
  8
0
 10
-4.90581
 20
6.49704
 11
-4.71892
 21
6.47342
  0
LINE
  8
0
 10
-4.71892
 20
6.47342
 11
-4.53647
 21
6.42657
  0
LINE
  8
0
 10
-4.53647
 20
6.42657
 11
-4.36133
 21
6.35724
  0
LINE
  8
0
 10
-4.36133
 20
6.35724
 11
-4.19626
 21
6.26648
  0
LINE
  8
0
 10
-4.19626
 20
6.26648
 11
-4.04385
 21
6.15576
  0
LINE
  8
0
 10
-4.04385
 20
6.15576
 11
-3.90654
 21
6.02681
  0
LINE
  8
0
 10
-3.90654
 20
6.02681
 11
-3.78647
 21
5.88167
  0
LINE
  8
0
 10
-3.78647
 20
5.88167
 11
-3.68553
 21
5.72263
  0
LINE
  8
0
 10
-3.68553
 20
5.72263
 11
-3.60533
 21
5.55219
  0
LINE
  8
0
 10
-3.60533
 20
5.55219
 11
-3.54712
 21
5.37303
  0
LINE
  8
0
 10
-3.54712
 20
5.37303
 11
-3.51183
 21
5.18799
  0
LINE
  8
0
 10
-3.51183
 20
5.18799
 11
-3.5
 21
5
  0
LINE
  8
0
 10
-3.5
 20
5
 11
-3.51183
 21
4.812
  0
LINE
  8
0
 10
-3.51183
 20
4.812
 11
-3.54712
 21
4.62695
  0
LINE
  8
0
 10
-3.54712
 20
4.62695
 11
-3.60533
 21
4.4478
  0
LINE
  8
0
 10
-3.60533
 20
4.4478
 11
-3.68553
 21
4.27736
  0
LINE
  8
0
 10
-3.68553
 20
4.27736
 11
-3.78647
 21
4.11832
  0
LINE
  8
0
 10
-3.78647
 20
4.11832
 11
-3.90654
 21
3.97318
  0
LINE
  8
0
 10
-3.90654
 20
3.97318
 11
-4.04385
 21
3.84422
  0
LINE
  8
0
 10
-4.04385
 20
3.84422
 11
-4.19626
 21
3.73351
  0
LINE
  8
0
 10
-4.19626
 20
3.73351
 11
-4.36133
 21
3.64275
  0
LINE
  8
0
 10
-4.36133
 20
3.64275
 11
-4.53647
 21
3.57341
  0
LINE
  8
0
 10
-4.53647
 20
3.57341
 11
-4.71892
 21
3.52657
  0
LINE
  8
0
 10
-4.71892
 20
3.52657
 11
-4.90581
 21
3.50294
  0
LINE
  8
0
 10
-4.90581
 20
3.50294
 11
-5.09418
 21
3.50294
  0
LINE
  8
0
 10
4.90581
 20
3.50294
 11
4.71892
 21
3.52657
  0
LINE
  8
0
 10
4.71892
 20
3.52657
 11
4.53647
 21
3.57341
  0
LINE
  8
0
 10
4.53647
 20
3.57341
 11
4.36133
 21
3.64275
  0
LINE
  8
0
 10
4.36133
 20
3.64275
 11
4.19626
 21
3.73351
  0
LINE
  8
0
 10
4.19626
 20
3.73351
 11
4.04385
 21
3.84422
  0
LINE
  8
0
 10
4.04385
 20
3.84422
 11
3.90654
 21
3.97318
  0
LINE
  8
0
 10
3.90654
 20
3.97318
 11
3.78647
 21
4.11832
  0
LINE
  8
0
 10
3.78647
 20
4.11832
 11
3.68553
 21
4.27736
  0
LINE
  8
0
 10
3.68553
 20
4.27736
 11
3.60533
 21
4.4478
  0
LINE
  8
0
 10
3.60533
 20
4.4478
 11
3.54712
 21
4.62695
  0
LINE
  8
0
 10
3.54712
 20
4.62695
 11
3.51183
 21
4.812
  0
LINE
  8
0
 10
3.51183
 20
4.812
 11
3.5
 21
5
  0
LINE
  8
0
 10
3.5
 20
5
 11
3.51183
 21
5.18799
  0
LINE
  8
0
 10
3.51183
 20
5.18799
 11
3.54712
 21
5.37303
  0
LINE
  8
0
 10
3.54712
 20
5.37303
 11
3.60533
 21
5.55219
  0
LINE
  8
0
 10
3.60533
 20
5.55219
 11
3.68553
 21
5.72263
  0
LINE
  8
0
 10
3.68553
 20
5.72263
 11
3.78647
 21
5.88167
  0
LINE
  8
0
 10
3.78647
 20
5.88167
 11
3.90654
 21
6.02681
  0
LINE
  8
0
 10
3.90654
 20
6.02681
 11
4.04385
 21
6.15576
  0
LINE
  8
0
 10
4.04385
 20
6.15576
 11
4.19626
 21
6.26648
  0
LINE
  8
0
 10
4.19626
 20
6.26648
 11
4.36133
 21
6.35724
  0
LINE
  8
0
 10
4.36133
 20
6.35724
 11
4.53647
 21
6.42657
  0
LINE
  8
0
 10
4.53647
 20
6.42657
 11
4.71892
 21
6.47342
  0
LINE
  8
0
 10
4.71892
 20
6.47342
 11
4.90581
 21
6.49704
  0
LINE
  8
0
 10
4.90581
 20
6.49704
 11
5.09418
 21
6.49704
  0
LINE
  8
0
 10
5.09418
 20
6.49704
 11
5.28107
 21
6.47342
  0
LINE
  8
0
 10
5.28107
 20
6.47342
 11
5.46352
 21
6.42657
  0
LINE
  8
0
 10
5.46352
 20
6.42657
 11
5.63866
 21
6.35724
  0
LINE
  8
0
 10
5.63866
 20
6.35724
 11
5.80373
 21
6.26648
  0
LINE
  8
0
 10
5.80373
 20
6.26648
 11
5.95613
 21
6.15576
  0
LINE
  8
0
 10
5.95613
 20
6.15576
 11
6.09344
 21
6.02681
  0
LINE
  8
0
 10
6.09344
 20
6.02681
 11
6.21352
 21
5.88167
  0
LINE
  8
0
 10
6.21352
 20
5.88167
 11
6.31445
 21
5.72263
  0
LINE
  8
0
 10
6.31445
 20
5.72263
 11
6.39465
 21
5.55219
  0
LINE
  8
0
 10
6.39465
 20
5.55219
 11
6.45287
 21
5.37303
  0
LINE
  8
0
 10
6.45287
 20
5.37303
 11
6.48816
 21
5.18799
  0
LINE
  8
0
 10
6.48816
 20
5.18799
 11
6.5
 21
5
  0
LINE
  8
0
 10
6.5
 20
5
 11
6.48816
 21
4.812
  0
LINE
  8
0
 10
6.48816
 20
4.812
 11
6.45287
 21
4.62695
  0
LINE
  8
0
 10
6.45287
 20
4.62695
 11
6.39465
 21
4.4478
  0
LINE
  8
0
 10
6.39465
 20
4.4478
 11
6.31445
 21
4.27736
  0
LINE
  8
0
 10
6.31445
 20
4.27736
 11
6.21352
 21
4.11832
  0
LINE
  8
0
 10
6.21352
 20
4.11832
 11
6.09344
 21
3.97318
  0
LINE
  8
0
 10
6.09344
 20
3.97318
 11
5.95613
 21
3.84422
  0
LINE
  8
0
 10
5.95613
 20
3.84422
 11
5.80373
 21
3.73351
  0
LINE
  8
0
 10
5.80373
 20
3.73351
 11
5.63866
 21
3.64275
  0
LINE
  8
0
 10
5.63866
 20
3.64275
 11
5.46352
 21
3.57341
  0
LINE
  8
0
 10
5.46352
 20
3.57341
 11
5.28107
 21
3.52657
  0
LINE
  8
0
 10
5.28107
 20
3.52657
 11
5.09418
 21
3.50294
  0
LINE
  8
0
 10
5.09418
 20
3.50294
 11
4.90581
 21
3.50294
  0
LINE
  8
0
 10
-5.09418
 20
-6.49704
 11
-5.28107
 21
-6.47342
  0
LINE
  8
0
 10
-5.28107
 20
-6.47342
 11
-5.46352
 21
-6.42657
  0
LINE
  8
0
 10
-5.46352
 20
-6.42657
 11
-5.63866
 21
-6.35724
  0
LINE
  8
0
 10
-5.63866
 20
-6.35724
 11
-5.80373
 21
-6.26648
  0
LINE
  8
0
 10
-5.80373
 20
-6.26648
 11
-5.95613
 21
-6.15576
  0
LINE
  8
0
 10
-5.95613
 20
-6.15576
 11
-6.09344
 21
-6.02681
  0
LINE
  8
0
 10
-6.09344
 20
-6.02681
 11
-6.21352
 21
-5.88167
  0
LINE
  8
0
 10
-6.21352
 20
-5.88167
 11
-6.31445
 21
-5.72263
  0
LINE
  8
0
 10
-6.31445
 20
-5.72263
 11
-6.39465
 21
-5.55219
  0
LINE
  8
0
 10
-6.39465
 20
-5.55219
 11
-6.45287
 21
-5.37303
  0
LINE
  8
0
 10
-6.45287
 20
-5.37303
 11
-6.48816
 21
-5.18799
  0
LINE
  8
0
 10
-6.48816
 20
-5.18799
 11
-6.5
 21
-5
  0
LINE
  8
0
 10
-6.5
 20
-5
 11
-6.48816
 21
-4.812
  0
LINE
  8
0
 10
-6.48816
 20
-4.812
 11
-6.45287
 21
-4.62695
  0
LINE
  8
0
 10
-6.45287
 20
-4.62695
 11
-6.39465
 21
-4.4478
  0
LINE
  8
0
 10
-6.39465
 20
-4.4478
 11
-6.31445
 21
-4.27736
  0
LINE
  8
0
 10
-6.31445
 20
-4.27736
 11
-6.21352
 21
-4.11832
  0
LINE
  8
0
 10
-6.21352
 20
-4.11832
 11
-6.09344
 21
-3.97318
  0
LINE
  8
0
 10
-6.09344
 20
-3.97318
 11
-5.95613
 21
-3.84422
  0
LINE
  8
0
 10
-5.95613
 20
-3.84422
 11
-5.80373
 21
-3.73351
  0
LINE
  8
0
 10
-5.80373
 20
-3.73351
 11
-5.63866
 21
-3.64275
  0
LINE
  8
0
 10
-5.63866
 20
-3.64275
 11
-5.46352
 21
-3.57341
  0
LINE
  8
0
 10
-5.46352
 20
-3.57341
 11
-5.28107
 21
-3.52657
  0
LINE
  8
0
 10
-5.28107
 20
-3.52657
 11
-5.09418
 21
-3.50294
  0
LINE
  8
0
 10
-5.09418
 20
-3.50294
 11
-4.90581
 21
-3.50294
  0
LINE
  8
0
 10
-4.90581
 20
-3.50294
 11
-4.71892
 21
-3.52657
  0
LINE
  8
0
 10
-4.71892
 20
-3.52657
 11
-4.53647
 21
-3.57341
  0
LINE
  8
0
 10
-4.53647
 20
-3.57341
 11
-4.36133
 21
-3.64275
  0
LINE
  8
0
 10
-4.36133
 20
-3.64275
 11
-4.19626
 21
-3.73351
  0
LINE
  8
0
 10
-4.19626
 20
-3.73351
 11
-4.04385
 21
-3.84422
  0
LINE
  8
0
 10
-4.04385
 20
-3.84422
 11
-3.90654
 21
-3.97318
  0
LINE
  8
0
 10
-3.90654
 20
-3.97318
 11
-3.78647
 21
-4.11832
  0
LINE
  8
0
 10
-3.78647
 20
-4.11832
 11
-3.68553
 21
-4.27736
  0
LINE
  8
0
 10
-3.68553
 20
-4.27736
 11
-3.60533
 21
-4.4478
  0
LINE
  8
0
 10
-3.60533
 20
-4.4478
 11
-3.54712
 21
-4.62695
  0
LINE
  8
0
 10
-3.54712
 20
-4.62695
 11
-3.51183
 21
-4.812
  0
LINE
  8
0
 10
-3.51183
 20
-4.812
 11
-3.5
 21
-5
  0
LINE
  8
0
 10
-3.5
 20
-5
 11
-3.51183
 21
-5.18799
  0
LINE
  8
0
 10
-3.51183
 20
-5.18799
 11
-3.54712
 21
-5.37303
  0
LINE
  8
0
 10
-3.54712
 20
-5.37303
 11
-3.60533
 21
-5.55219
  0
LINE
  8
0
 10
-3.60533
 20
-5.55219
 11
-3.68553
 21
-5.72263
  0
LINE
  8
0
 10
-3.68553
 20
-5.72263
 11
-3.78647
 21
-5.88167
  0
LINE
  8
0
 10
-3.78647
 20
-5.88167
 11
-3.90654
 21
-6.02681
  0
LINE
  8
0
 10
-3.90654
 20
-6.02681
 11
-4.04385
 21
-6.15576
  0
LINE
  8
0
 10
-4.04385
 20
-6.15576
 11
-4.19626
 21
-6.26648
  0
LINE
  8
0
 10
-4.19626
 20
-6.26648
 11
-4.36133
 21
-6.35724
  0
LINE
  8
0
 10
-4.36133
 20
-6.35724
 11
-4.53647
 21
-6.42657
  0
LINE
  8
0
 10
-4.53647
 20
-6.42657
 11
-4.71892
 21
-6.47342
  0
LINE
  8
0
 10
-4.71892
 20
-6.47342
 11
-4.90581
 21
-6.49704
  0
LINE
  8
0
 10
-4.90581
 20
-6.49704
 11
-5.09418
 21
-6.49704
  0
LINE
  8
0
 10
4.90581
 20
-6.49704
 11
4.71892
 21
-6.47342
  0
LINE
  8
0
 10
4.71892
 20
-6.47342
 11
4.53647
 21
-6.42657
  0
LINE
  8
0
 10
4.53647
 20
-6.42657
 11
4.36133
 21
-6.35724
  0
LINE
  8
0
 10
4.36133
 20
-6.35724
 11
4.19626
 21
-6.26648
  0
LINE
  8
0
 10
4.19626
 20
-6.26648
 11
4.04385
 21
-6.15576
  0
LINE
  8
0
 10
4.04385
 20
-6.15576
 11
3.90654
 21
-6.02681
  0
LINE
  8
0
 10
3.90654
 20
-6.02681
 11
3.78647
 21
-5.88167
  0
LINE
  8
0
 10
3.78647
 20
-5.88167
 11
3.68553
 21
-5.72263
  0
LINE
  8
0
 10
3.68553
 20
-5.72263
 11
3.60533
 21
-5.55219
  0
LINE
  8
0
 10
3.60533
 20
-5.55219
 11
3.54712
 21
-5.37303
  0
LINE
  8
0
 10
3.54712
 20
-5.37303
 11
3.51183
 21
-5.18799
  0
LINE
  8
0
 10
3.51183
 20
-5.18799
 11
3.5
 21
-5
  0
LINE
  8
0
 10
3.5
 20
-5
 11
3.51183
 21
-4.812
  0
LINE
  8
0
 10
3.51183
 20
-4.812
 11
3.54712
 21
-4.62695
  0
LINE
  8
0
 10
3.54712
 20
-4.62695
 11
3.60533
 21
-4.4478
  0
LINE
  8
0
 10
3.60533
 20
-4.4478
 11
3.68553
 21
-4.27736
  0
LINE
  8
0
 10
3.68553
 20
-4.27736
 11
3.78647
 21
-4.11832
  0
LINE
  8
0
 10
3.78647
 20
-4.11832
 11
3.90654
 21
-3.97318
  0
LINE
  8
0
 10
3.90654
 20
-3.97318
 11
4.04385
 21
-3.84422
  0
LINE
  8
0
 10
4.04385
 20
-3.84422
 11
4.19626
 21
-3.73351
  0
LINE
  8
0
 10
4.19626
 20
-3.73351
 11
4.36133
 21
-3.64275
  0
LINE
  8
0
 10
4.36133
 20
-3.64275
 11
4.53647
 21
-3.57341
  0
LINE
  8
0
 10
4.53647
 20
-3.57341
 11
4.71892
 21
-3.52657
  0
LINE
  8
0
 10
4.71892
 20
-3.52657
 11
4.90581
 21
-3.50294
  0
LINE
  8
0
 10
4.90581
 20
-3.50294
 11
5.09418
 21
-3.50294
  0
LINE
  8
0
 10
5.09418
 20
-3.50294
 11
5.28107
 21
-3.52657
  0
LINE
  8
0
 10
5.28107
 20
-3.52657
 11
5.46352
 21
-3.57341
  0
LINE
  8
0
 10
5.46352
 20
-3.57341
 11
5.63866
 21
-3.64275
  0
LINE
  8
0
 10
5.63866
 20
-3.64275
 11
5.80373
 21
-3.73351
  0
LINE
  8
0
 10
5.80373
 20
-3.73351
 11
5.95613
 21
-3.84422
  0
LINE
  8
0
 10
5.95613
 20
-3.84422
 11
6.09344
 21
-3.97318
  0
LINE
  8
0
 10
6.09344
 20
-3.97318
 11
6.21352
 21
-4.11832
  0
LINE
  8
0
 10
6.21352
 20
-4.11832
 11
6.31445
 21
-4.27736
  0
LINE
  8
0
 10
6.31445
 20
-4.27736
 11
6.39465
 21
-4.4478
  0
LINE
  8
0
 10
6.39465
 20
-4.4478
 11
6.45287
 21
-4.62695
  0
LINE
  8
0
 10
6.45287
 20
-4.62695
 11
6.48816
 21
-4.812
  0
LINE
  8
0
 10
6.48816
 20
-4.812
 11
6.5
 21
-5
  0
LINE
  8
0
 10
6.5
 20
-5
 11
6.48816
 21
-5.18799
  0
LINE
  8
0
 10
6.48816
 20
-5.18799
 11
6.45287
 21
-5.37303
  0
LINE
  8
0
 10
6.45287
 20
-5.37303
 11
6.39465
 21
-5.55219
  0
LINE
  8
0
 10
6.39465
 20
-5.55219
 11
6.31445
 21
-5.72263
  0
LINE
  8
0
 10
6.31445
 20
-5.72263
 11
6.21352
 21
-5.88167
  0
LINE
  8
0
 10
6.21352
 20
-5.88167
 11
6.09344
 21
-6.02681
  0
LINE
  8
0
 10
6.09344
 20
-6.02681
 11
5.95613
 21
-6.15576
  0
LINE
  8
0
 10
5.95613
 20
-6.15576
 11
5.80373
 21
-6.26648
  0
LINE
  8
0
 10
5.80373
 20
-6.26648
 11
5.63866
 21
-6.35724
  0
LINE
  8
0
 10
5.63866
 20
-6.35724
 11
5.46352
 21
-6.42657
  0
LINE
  8
0
 10
5.46352
 20
-6.42657
 11
5.28107
 21
-6.47342
  0
LINE
  8
0
 10
5.28107
 20
-6.47342
 11
5.09418
 21
-6.49704
  0
LINE
  8
0
 10
5.09418
 20
-6.49704
 11
4.90581
 21
-6.49704
  0
LINE
  8
0
 10
-65.0942
 20
-46.497
 11
-65.2811
 21
-46.4734
  0
LINE
  8
0
 10
-65.2811
 20
-46.4734
 11
-65.4635
 21
-46.4266
  0
LINE
  8
0
 10
-65.4635
 20
-46.4266
 11
-65.6387
 21
-46.3572
  0
LINE
  8
0
 10
-65.6387
 20
-46.3572
 11
-65.8037
 21
-46.2665
  0
LINE
  8
0
 10
-65.8037
 20
-46.2665
 11
-65.9561
 21
-46.1558
  0
LINE
  8
0
 10
-65.9561
 20
-46.1558
 11
-66.0934
 21
-46.0268
  0
LINE
  8
0
 10
-66.0934
 20
-46.0268
 11
-66.2135
 21
-45.8817
  0
LINE
  8
0
 10
-66.2135
 20
-45.8817
 11
-66.3145
 21
-45.7226
  0
LINE
  8
0
 10
-66.3145
 20
-45.7226
 11
-66.3947
 21
-45.5522
  0
LINE
  8
0
 10
-66.3947
 20
-45.5522
 11
-66.4529
 21
-45.373
  0
LINE
  8
0
 10
-66.4529
 20
-45.373
 11
-66.4882
 21
-45.188
  0
LINE
  8
0
 10
-66.4882
 20
-45.188
 11
-66.5
 21
-45
  0
LINE
  8
0
 10
-66.5
 20
-45
 11
-66.4882
 21
-44.812
  0
LINE
  8
0
 10
-66.4882
 20
-44.812
 11
-66.4529
 21
-44.627
  0
LINE
  8
0
 10
-66.4529
 20
-44.627
 11
-66.3947
 21
-44.4478
  0
LINE
  8
0
 10
-66.3947
 20
-44.4478
 11
-66.3145
 21
-44.2774
  0
LINE
  8
0
 10
-66.3145
 20
-44.2774
 11
-66.2135
 21
-44.1183
  0
LINE
  8
0
 10
-66.2135
 20
-44.1183
 11
-66.0934
 21
-43.9732
  0
LINE
  8
0
 10
-66.0934
 20
-43.9732
 11
-65.9561
 21
-43.8442
  0
LINE
  8
0
 10
-65.9561
 20
-43.8442
 11
-65.8037
 21
-43.7335
  0
LINE
  8
0
 10
-65.8037
 20
-43.7335
 11
-65.6387
 21
-43.6427
  0
LINE
  8
0
 10
-65.6387
 20
-43.6427
 11
-65.4635
 21
-43.5734
  0
LINE
  8
0
 10
-65.4635
 20
-43.5734
 11
-65.2811
 21
-43.5266
  0
LINE
  8
0
 10
-65.2811
 20
-43.5266
 11
-65.0942
 21
-43.5029
  0
LINE
  8
0
 10
-65.0942
 20
-43.5029
 11
-64.9058
 21
-43.5029
  0
LINE
  8
0
 10
-64.9058
 20
-43.5029
 11
-64.7189
 21
-43.5266
  0
LINE
  8
0
 10
-64.7189
 20
-43.5266
 11
-64.5365
 21
-43.5734
  0
LINE
  8
0
 10
-64.5365
 20
-43.5734
 11
-64.3613
 21
-43.6427
  0
LINE
  8
0
 10
-64.3613
 20
-43.6427
 11
-64.1963
 21
-43.7335
  0
LINE
  8
0
 10
-64.1963
 20
-43.7335
 11
-64.0439
 21
-43.8442
  0
LINE
  8
0
 10
-64.0439
 20
-43.8442
 11
-63.9065
 21
-43.9732
  0
LINE
  8
0
 10
-63.9065
 20
-43.9732
 11
-63.7865
 21
-44.1183
  0
LINE
  8
0
 10
-63.7865
 20
-44.1183
 11
-63.6855
 21
-44.2774
  0
LINE
  8
0
 10
-63.6855
 20
-44.2774
 11
-63.6053
 21
-44.4478
  0
LINE
  8
0
 10
-63.6053
 20
-44.4478
 11
-63.5471
 21
-44.627
  0
LINE
  8
0
 10
-63.5471
 20
-44.627
 11
-63.5118
 21
-44.812
  0
LINE
  8
0
 10
-63.5118
 20
-44.812
 11
-63.5
 21
-45
  0
LINE
  8
0
 10
-63.5
 20
-45
 11
-63.5118
 21
-45.188
  0
LINE
  8
0
 10
-63.5118
 20
-45.188
 11
-63.5471
 21
-45.373
  0
LINE
  8
0
 10
-63.5471
 20
-45.373
 11
-63.6053
 21
-45.5522
  0
LINE
  8
0
 10
-63.6053
 20
-45.5522
 11
-63.6855
 21
-45.7226
  0
LINE
  8
0
 10
-63.6855
 20
-45.7226
 11
-63.7865
 21
-45.8817
  0
LINE
  8
0
 10
-63.7865
 20
-45.8817
 11
-63.9065
 21
-46.0268
  0
LINE
  8
0
 10
-63.9065
 20
-46.0268
 11
-64.0439
 21
-46.1558
  0
LINE
  8
0
 10
-64.0439
 20
-46.1558
 11
-64.1963
 21
-46.2665
  0
LINE
  8
0
 10
-64.1963
 20
-46.2665
 11
-64.3613
 21
-46.3572
  0
LINE
  8
0
 10
-64.3613
 20
-46.3572
 11
-64.5365
 21
-46.4266
  0
LINE
  8
0
 10
-64.5365
 20
-46.4266
 11
-64.7189
 21
-46.4734
  0
LINE
  8
0
 10
-64.7189
 20
-46.4734
 11
-64.9058
 21
-46.497
  0
LINE
  8
0
 10
-64.9058
 20
-46.497
 11
-65.0942
 21
-46.497
  0
LINE
  8
0
 10
64.9058
 20
-46.497
 11
64.7189
 21
-46.4734
  0
LINE
  8
0
 10
64.7189
 20
-46.4734
 11
64.5365
 21
-46.4266
  0
LINE
  8
0
 10
64.5365
 20
-46.4266
 11
64.3613
 21
-46.3572
  0
LINE
  8
0
 10
64.3613
 20
-46.3572
 11
64.1963
 21
-46.2665
  0
LINE
  8
0
 10
64.1963
 20
-46.2665
 11
64.0439
 21
-46.1558
  0
LINE
  8
0
 10
64.0439
 20
-46.1558
 11
63.9065
 21
-46.0268
  0
LINE
  8
0
 10
63.9065
 20
-46.0268
 11
63.7865
 21
-45.8817
  0
LINE
  8
0
 10
63.7865
 20
-45.8817
 11
63.6855
 21
-45.7226
  0
LINE
  8
0
 10
63.6855
 20
-45.7226
 11
63.6053
 21
-45.5522
  0
LINE
  8
0
 10
63.6053
 20
-45.5522
 11
63.5471
 21
-45.373
  0
LINE
  8
0
 10
63.5471
 20
-45.373
 11
63.5118
 21
-45.188
  0
LINE
  8
0
 10
63.5118
 20
-45.188
 11
63.5
 21
-45
  0
LINE
  8
0
 10
63.5
 20
-45
 11
63.5118
 21
-44.812
  0
LINE
  8
0
 10
63.5118
 20
-44.812
 11
63.5471
 21
-44.627
  0
LINE
  8
0
 10
63.5471
 20
-44.627
 11
63.6053
 21
-44.4478
  0
LINE
  8
0
 10
63.6053
 20
-44.4478
 11
63.6855
 21
-44.2774
  0
LINE
  8
0
 10
63.6855
 20
-44.2774
 11
63.7865
 21
-44.1183
  0
LINE
  8
0
 10
63.7865
 20
-44.1183
 11
63.9065
 21
-43.9732
  0
LINE
  8
0
 10
63.9065
 20
-43.9732
 11
64.0439
 21
-43.8442
  0
LINE
  8
0
 10
64.0439
 20
-43.8442
 11
64.1963
 21
-43.7335
  0
LINE
  8
0
 10
64.1963
 20
-43.7335
 11
64.3613
 21
-43.6427
  0
LINE
  8
0
 10
64.3613
 20
-43.6427
 11
64.5365
 21
-43.5734
  0
LINE
  8
0
 10
64.5365
 20
-43.5734
 11
64.7189
 21
-43.5266
  0
LINE
  8
0
 10
64.7189
 20
-43.5266
 11
64.9058
 21
-43.5029
  0
LINE
  8
0
 10
64.9058
 20
-43.5029
 11
65.0942
 21
-43.5029
  0
LINE
  8
0
 10
65.0942
 20
-43.5029
 11
65.2811
 21
-43.5266
  0
LINE
  8
0
 10
65.2811
 20
-43.5266
 11
65.4635
 21
-43.5734
  0
LINE
  8
0
 10
65.4635
 20
-43.5734
 11
65.6387
 21
-43.6427
  0
LINE
  8
0
 10
65.6387
 20
-43.6427
 11
65.8037
 21
-43.7335
  0
LINE
  8
0
 10
65.8037
 20
-43.7335
 11
65.9561
 21
-43.8442
  0
LINE
  8
0
 10
65.9561
 20
-43.8442
 11
66.0934
 21
-43.9732
  0
LINE
  8
0
 10
66.0934
 20
-43.9732
 11
66.2135
 21
-44.1183
  0
LINE
  8
0
 10
66.2135
 20
-44.1183
 11
66.3145
 21
-44.2774
  0
LINE
  8
0
 10
66.3145
 20
-44.2774
 11
66.3947
 21
-44.4478
  0
LINE
  8
0
 10
66.3947
 20
-44.4478
 11
66.4529
 21
-44.627
  0
LINE
  8
0
 10
66.4529
 20
-44.627
 11
66.4882
 21
-44.812
  0
LINE
  8
0
 10
66.4882
 20
-44.812
 11
66.5
 21
-45
  0
LINE
  8
0
 10
66.5
 20
-45
 11
66.4882
 21
-45.188
  0
LINE
  8
0
 10
66.4882
 20
-45.188
 11
66.4529
 21
-45.373
  0
LINE
  8
0
 10
66.4529
 20
-45.373
 11
66.3947
 21
-45.5522
  0
LINE
  8
0
 10
66.3947
 20
-45.5522
 11
66.3145
 21
-45.7226
  0
LINE
  8
0
 10
66.3145
 20
-45.7226
 11
66.2135
 21
-45.8817
  0
LINE
  8
0
 10
66.2135
 20
-45.8817
 11
66.0934
 21
-46.0268
  0
LINE
  8
0
 10
66.0934
 20
-46.0268
 11
65.9561
 21
-46.1558
  0
LINE
  8
0
 10
65.9561
 20
-46.1558
 11
65.8037
 21
-46.2665
  0
LINE
  8
0
 10
65.8037
 20
-46.2665
 11
65.6387
 21
-46.3572
  0
LINE
  8
0
 10
65.6387
 20
-46.3572
 11
65.4635
 21
-46.4266
  0
LINE
  8
0
 10
65.4635
 20
-46.4266
 11
65.2811
 21
-46.4734
  0
LINE
  8
0
 10
65.2811
 20
-46.4734
 11
65.0942
 21
-46.497
  0
LINE
  8
0
 10
65.0942
 20
-46.497
 11
64.9058
 21
-46.497
  0
ENDSEC
  0
SECTION
  2
OBJECTS
  0
DICTIONARY
  0
ENDSEC
  0
EOF
