  0
SECTION
  2
BLOCKS
  0
ENDSEC
  0
SECTION
  2
ENTITIES
  0
LINE
  8
0
 10
62.5
 20
50
 11
-62.5
 21
50
  0
LINE
  8
0
 10
-62.5
 20
50
 11
-62.5
 21
-50
  0
LINE
  8
0
 10
-62.5
 20
-50
 11
62.5
 21
-50
  0
LINE
  8
0
 10
62.5
 20
-50
 11
62.5
 21
50
  0
LINE
  8
0
 10
-57.0942
 20
42.5029
 11
-57.2811
 21
42.5266
  0
LINE
  8
0
 10
-57.2811
 20
42.5266
 11
-57.4635
 21
42.5734
  0
LINE
  8
0
 10
-57.4635
 20
42.5734
 11
-57.6387
 21
42.6427
  0
LINE
  8
0
 10
-57.6387
 20
42.6427
 11
-57.8037
 21
42.7335
  0
LINE
  8
0
 10
-57.8037
 20
42.7335
 11
-57.9561
 21
42.8442
  0
LINE
  8
0
 10
-57.9561
 20
42.8442
 11
-58.0934
 21
42.9732
  0
LINE
  8
0
 10
-58.0934
 20
42.9732
 11
-58.2135
 21
43.1183
  0
LINE
  8
0
 10
-58.2135
 20
43.1183
 11
-58.3145
 21
43.2774
  0
LINE
  8
0
 10
-58.3145
 20
43.2774
 11
-58.3947
 21
43.4478
  0
LINE
  8
0
 10
-58.3947
 20
43.4478
 11
-58.4529
 21
43.627
  0
LINE
  8
0
 10
-58.4529
 20
43.627
 11
-58.4882
 21
43.812
  0
LINE
  8
0
 10
-58.4882
 20
43.812
 11
-58.5
 21
44
  0
LINE
  8
0
 10
-58.5
 20
44
 11
-58.4882
 21
44.188
  0
LINE
  8
0
 10
-58.4882
 20
44.188
 11
-58.4529
 21
44.373
  0
LINE
  8
0
 10
-58.4529
 20
44.373
 11
-58.3947
 21
44.5522
  0
LINE
  8
0
 10
-58.3947
 20
44.5522
 11
-58.3145
 21
44.7226
  0
LINE
  8
0
 10
-58.3145
 20
44.7226
 11
-58.2135
 21
44.8817
  0
LINE
  8
0
 10
-58.2135
 20
44.8817
 11
-58.0934
 21
45.0268
  0
LINE
  8
0
 10
-58.0934
 20
45.0268
 11
-57.9561
 21
45.1558
  0
LINE
  8
0
 10
-57.9561
 20
45.1558
 11
-57.8037
 21
45.2665
  0
LINE
  8
0
 10
-57.8037
 20
45.2665
 11
-57.6387
 21
45.3572
  0
LINE
  8
0
 10
-57.6387
 20
45.3572
 11
-57.4635
 21
45.4266
  0
LINE
  8
0
 10
-57.4635
 20
45.4266
 11
-57.2811
 21
45.4734
  0
LINE
  8
0
 10
-57.2811
 20
45.4734
 11
-57.0942
 21
45.497
  0
LINE
  8
0
 10
-57.0942
 20
45.497
 11
-56.9058
 21
45.497
  0
LINE
  8
0
 10
-56.9058
 20
45.497
 11
-56.7189
 21
45.4734
  0
LINE
  8
0
 10
-56.7189
 20
45.4734
 11
-56.5365
 21
45.4266
  0
LINE
  8
0
 10
-56.5365
 20
45.4266
 11
-56.3613
 21
45.3572
  0
LINE
  8
0
 10
-56.3613
 20
45.3572
 11
-56.1963
 21
45.2665
  0
LINE
  8
0
 10
-56.1963
 20
45.2665
 11
-56.0439
 21
45.1558
  0
LINE
  8
0
 10
-56.0439
 20
45.1558
 11
-55.9065
 21
45.0268
  0
LINE
  8
0
 10
-55.9065
 20
45.0268
 11
-55.7865
 21
44.8817
  0
LINE
  8
0
 10
-55.7865
 20
44.8817
 11
-55.6855
 21
44.7226
  0
LINE
  8
0
 10
-55.6855
 20
44.7226
 11
-55.6053
 21
44.5522
  0
LINE
  8
0
 10
-55.6053
 20
44.5522
 11
-55.5471
 21
44.373
  0
LINE
  8
0
 10
-55.5471
 20
44.373
 11
-55.5118
 21
44.188
  0
LINE
  8
0
 10
-55.5118
 20
44.188
 11
-55.5
 21
44
  0
LINE
  8
0
 10
-55.5
 20
44
 11
-55.5118
 21
43.812
  0
LINE
  8
0
 10
-55.5118
 20
43.812
 11
-55.5471
 21
43.627
  0
LINE
  8
0
 10
-55.5471
 20
43.627
 11
-55.6053
 21
43.4478
  0
LINE
  8
0
 10
-55.6053
 20
43.4478
 11
-55.6855
 21
43.2774
  0
LINE
  8
0
 10
-55.6855
 20
43.2774
 11
-55.7865
 21
43.1183
  0
LINE
  8
0
 10
-55.7865
 20
43.1183
 11
-55.9065
 21
42.9732
  0
LINE
  8
0
 10
-55.9065
 20
42.9732
 11
-56.0439
 21
42.8442
  0
LINE
  8
0
 10
-56.0439
 20
42.8442
 11
-56.1963
 21
42.7335
  0
LINE
  8
0
 10
-56.1963
 20
42.7335
 11
-56.3613
 21
42.6427
  0
LINE
  8
0
 10
-56.3613
 20
42.6427
 11
-56.5365
 21
42.5734
  0
LINE
  8
0
 10
-56.5365
 20
42.5734
 11
-56.7189
 21
42.5266
  0
LINE
  8
0
 10
-56.7189
 20
42.5266
 11
-56.9058
 21
42.5029
  0
LINE
  8
0
 10
-56.9058
 20
42.5029
 11
-57.0942
 21
42.5029
  0
LINE
  8
0
 10
56.9058
 20
42.5029
 11
56.7189
 21
42.5266
  0
LINE
  8
0
 10
56.7189
 20
42.5266
 11
56.5365
 21
42.5734
  0
LINE
  8
0
 10
56.5365
 20
42.5734
 11
56.3613
 21
42.6427
  0
LINE
  8
0
 10
56.3613
 20
42.6427
 11
56.1963
 21
42.7335
  0
LINE
  8
0
 10
56.1963
 20
42.7335
 11
56.0439
 21
42.8442
  0
LINE
  8
0
 10
56.0439
 20
42.8442
 11
55.9065
 21
42.9732
  0
LINE
  8
0
 10
55.9065
 20
42.9732
 11
55.7865
 21
43.1183
  0
LINE
  8
0
 10
55.7865
 20
43.1183
 11
55.6855
 21
43.2774
  0
LINE
  8
0
 10
55.6855
 20
43.2774
 11
55.6053
 21
43.4478
  0
LINE
  8
0
 10
55.6053
 20
43.4478
 11
55.5471
 21
43.627
  0
LINE
  8
0
 10
55.5471
 20
43.627
 11
55.5118
 21
43.812
  0
LINE
  8
0
 10
55.5118
 20
43.812
 11
55.5
 21
44
  0
LINE
  8
0
 10
55.5
 20
44
 11
55.5118
 21
44.188
  0
LINE
  8
0
 10
55.5118
 20
44.188
 11
55.5471
 21
44.373
  0
LINE
  8
0
 10
55.5471
 20
44.373
 11
55.6053
 21
44.5522
  0
LINE
  8
0
 10
55.6053
 20
44.5522
 11
55.6855
 21
44.7226
  0
LINE
  8
0
 10
55.6855
 20
44.7226
 11
55.7865
 21
44.8817
  0
LINE
  8
0
 10
55.7865
 20
44.8817
 11
55.9065
 21
45.0268
  0
LINE
  8
0
 10
55.9065
 20
45.0268
 11
56.0439
 21
45.1558
  0
LINE
  8
0
 10
56.0439
 20
45.1558
 11
56.1963
 21
45.2665
  0
LINE
  8
0
 10
56.1963
 20
45.2665
 11
56.3613
 21
45.3572
  0
LINE
  8
0
 10
56.3613
 20
45.3572
 11
56.5365
 21
45.4266
  0
LINE
  8
0
 10
56.5365
 20
45.4266
 11
56.7189
 21
45.4734
  0
LINE
  8
0
 10
56.7189
 20
45.4734
 11
56.9058
 21
45.497
  0
LINE
  8
0
 10
56.9058
 20
45.497
 11
57.0942
 21
45.497
  0
LINE
  8
0
 10
57.0942
 20
45.497
 11
57.2811
 21
45.4734
  0
LINE
  8
0
 10
57.2811
 20
45.4734
 11
57.4635
 21
45.4266
  0
LINE
  8
0
 10
57.4635
 20
45.4266
 11
57.6387
 21
45.3572
  0
LINE
  8
0
 10
57.6387
 20
45.3572
 11
57.8037
 21
45.2665
  0
LINE
  8
0
 10
57.8037
 20
45.2665
 11
57.9561
 21
45.1558
  0
LINE
  8
0
 10
57.9561
 20
45.1558
 11
58.0934
 21
45.0268
  0
LINE
  8
0
 10
58.0934
 20
45.0268
 11
58.2135
 21
44.8817
  0
LINE
  8
0
 10
58.2135
 20
44.8817
 11
58.3145
 21
44.7226
  0
LINE
  8
0
 10
58.3145
 20
44.7226
 11
58.3947
 21
44.5522
  0
LINE
  8
0
 10
58.3947
 20
44.5522
 11
58.4529
 21
44.373
  0
LINE
  8
0
 10
58.4529
 20
44.373
 11
58.4882
 21
44.188
  0
LINE
  8
0
 10
58.4882
 20
44.188
 11
58.5
 21
44
  0
LINE
  8
0
 10
58.5
 20
44
 11
58.4882
 21
43.812
  0
LINE
  8
0
 10
58.4882
 20
43.812
 11
58.4529
 21
43.627
  0
LINE
  8
0
 10
58.4529
 20
43.627
 11
58.3947
 21
43.4478
  0
LINE
  8
0
 10
58.3947
 20
43.4478
 11
58.3145
 21
43.2774
  0
LINE
  8
0
 10
58.3145
 20
43.2774
 11
58.2135
 21
43.1183
  0
LINE
  8
0
 10
58.2135
 20
43.1183
 11
58.0934
 21
42.9732
  0
LINE
  8
0
 10
58.0934
 20
42.9732
 11
57.9561
 21
42.8442
  0
LINE
  8
0
 10
57.9561
 20
42.8442
 11
57.8037
 21
42.7335
  0
LINE
  8
0
 10
57.8037
 20
42.7335
 11
57.6387
 21
42.6427
  0
LINE
  8
0
 10
57.6387
 20
42.6427
 11
57.4635
 21
42.5734
  0
LINE
  8
0
 10
57.4635
 20
42.5734
 11
57.2811
 21
42.5266
  0
LINE
  8
0
 10
57.2811
 20
42.5266
 11
57.0942
 21
42.5029
  0
LINE
  8
0
 10
57.0942
 20
42.5029
 11
56.9058
 21
42.5029
  0
LINE
  8
0
 10
-0.0941772
 20
42.5029
 11
-0.281067
 21
42.5266
  0
LINE
  8
0
 10
-0.281067
 20
42.5266
 11
-0.463516
 21
42.5734
  0
LINE
  8
0
 10
-0.463516
 20
42.5734
 11
-0.638657
 21
42.6427
  0
LINE
  8
0
 10
-0.638657
 20
42.6427
 11
-0.803726
 21
42.7335
  0
LINE
  8
0
 10
-0.803726
 20
42.7335
 11
-0.956131
 21
42.8442
  0
LINE
  8
0
 10
-0.956131
 20
42.8442
 11
-1.09344
 21
42.9732
  0
LINE
  8
0
 10
-1.09344
 20
42.9732
 11
-1.21352
 21
43.1183
  0
LINE
  8
0
 10
-1.21352
 20
43.1183
 11
-1.31445
 21
43.2774
  0
LINE
  8
0
 10
-1.31445
 20
43.2774
 11
-1.39465
 21
43.4478
  0
LINE
  8
0
 10
-1.39465
 20
43.4478
 11
-1.45287
 21
43.627
  0
LINE
  8
0
 10
-1.45287
 20
43.627
 11
-1.48816
 21
43.812
  0
LINE
  8
0
 10
-1.48816
 20
43.812
 11
-1.5
 21
44
  0
LINE
  8
0
 10
-1.5
 20
44
 11
-1.48816
 21
44.188
  0
LINE
  8
0
 10
-1.48816
 20
44.188
 11
-1.45287
 21
44.373
  0
LINE
  8
0
 10
-1.45287
 20
44.373
 11
-1.39465
 21
44.5522
  0
LINE
  8
0
 10
-1.39465
 20
44.5522
 11
-1.31445
 21
44.7226
  0
LINE
  8
0
 10
-1.31445
 20
44.7226
 11
-1.21352
 21
44.8817
  0
LINE
  8
0
 10
-1.21352
 20
44.8817
 11
-1.09344
 21
45.0268
  0
LINE
  8
0
 10
-1.09344
 20
45.0268
 11
-0.956131
 21
45.1558
  0
LINE
  8
0
 10
-0.956131
 20
45.1558
 11
-0.803726
 21
45.2665
  0
LINE
  8
0
 10
-0.803726
 20
45.2665
 11
-0.638657
 21
45.3572
  0
LINE
  8
0
 10
-0.638657
 20
45.3572
 11
-0.463516
 21
45.4266
  0
LINE
  8
0
 10
-0.463516
 20
45.4266
 11
-0.281067
 21
45.4734
  0
LINE
  8
0
 10
-0.281067
 20
45.4734
 11
-0.0941772
 21
45.497
  0
LINE
  8
0
 10
-0.0941772
 20
45.497
 11
0.0941772
 21
45.497
  0
LINE
  8
0
 10
0.0941772
 20
45.497
 11
0.281067
 21
45.4734
  0
LINE
  8
0
 10
0.281067
 20
45.4734
 11
0.463516
 21
45.4266
  0
LINE
  8
0
 10
0.463516
 20
45.4266
 11
0.638657
 21
45.3572
  0
LINE
  8
0
 10
0.638657
 20
45.3572
 11
0.803726
 21
45.2665
  0
LINE
  8
0
 10
0.803726
 20
45.2665
 11
0.956131
 21
45.1558
  0
LINE
  8
0
 10
0.956131
 20
45.1558
 11
1.09344
 21
45.0268
  0
LINE
  8
0
 10
1.09344
 20
45.0268
 11
1.21352
 21
44.8817
  0
LINE
  8
0
 10
1.21352
 20
44.8817
 11
1.31445
 21
44.7226
  0
LINE
  8
0
 10
1.31445
 20
44.7226
 11
1.39465
 21
44.5522
  0
LINE
  8
0
 10
1.39465
 20
44.5522
 11
1.45287
 21
44.373
  0
LINE
  8
0
 10
1.45287
 20
44.373
 11
1.48816
 21
44.188
  0
LINE
  8
0
 10
1.48816
 20
44.188
 11
1.5
 21
44
  0
LINE
  8
0
 10
1.5
 20
44
 11
1.48816
 21
43.812
  0
LINE
  8
0
 10
1.48816
 20
43.812
 11
1.45287
 21
43.627
  0
LINE
  8
0
 10
1.45287
 20
43.627
 11
1.39465
 21
43.4478
  0
LINE
  8
0
 10
1.39465
 20
43.4478
 11
1.31445
 21
43.2774
  0
LINE
  8
0
 10
1.31445
 20
43.2774
 11
1.21352
 21
43.1183
  0
LINE
  8
0
 10
1.21352
 20
43.1183
 11
1.09344
 21
42.9732
  0
LINE
  8
0
 10
1.09344
 20
42.9732
 11
0.956131
 21
42.8442
  0
LINE
  8
0
 10
0.956131
 20
42.8442
 11
0.803726
 21
42.7335
  0
LINE
  8
0
 10
0.803726
 20
42.7335
 11
0.638657
 21
42.6427
  0
LINE
  8
0
 10
0.638657
 20
42.6427
 11
0.463516
 21
42.5734
  0
LINE
  8
0
 10
0.463516
 20
42.5734
 11
0.281067
 21
42.5266
  0
LINE
  8
0
 10
0.281067
 20
42.5266
 11
0.0941772
 21
42.5029
  0
LINE
  8
0
 10
0.0941772
 20
42.5029
 11
-0.0941772
 21
42.5029
  0
LINE
  8
0
 10
-35.9014
 20
-36.3014
 11
-36.6836
 21
-36.2399
  0
LINE
  8
0
 10
-36.6836
 20
-36.2399
 11
-37.2964
 21
-36.1029
  0
LINE
  8
0
 10
-37.2964
 20
-36.1029
 11
-37.8871
 21
-35.8902
  0
LINE
  8
0
 10
-37.8871
 20
-35.8902
 11
-38.4466
 21
-35.6051
  0
LINE
  8
0
 10
-38.4466
 20
-35.6051
 11
-38.9659
 21
-35.2522
  0
LINE
  8
0
 10
-38.9659
 20
-35.2522
 11
-39.4369
 21
-34.8369
  0
LINE
  8
0
 10
-39.4369
 20
-34.8369
 11
-44.4369
 21
-29.8369
  0
LINE
  8
0
 10
-44.4369
 20
-29.8369
 11
-44.9465
 21
-29.2403
  0
LINE
  8
0
 10
-44.9465
 20
-29.2403
 11
-45.2829
 21
-28.7102
  0
LINE
  8
0
 10
-45.2829
 20
-28.7102
 11
-45.5503
 21
-28.142
  0
LINE
  8
0
 10
-45.5503
 20
-28.142
 11
-45.7443
 21
-27.5449
  0
LINE
  8
0
 10
-45.7443
 20
-27.5449
 11
-45.862
 21
-26.9281
  0
LINE
  8
0
 10
-45.862
 20
-26.9281
 11
-45.9014
 21
-26.3014
  0
LINE
  8
0
 10
-45.9014
 20
-26.3014
 11
-45.9014
 21
26.3014
  0
LINE
  8
0
 10
-45.9014
 20
26.3014
 11
-45.8398
 21
27.0836
  0
LINE
  8
0
 10
-45.8398
 20
27.0836
 11
-45.7029
 21
27.6964
  0
LINE
  8
0
 10
-45.7029
 20
27.6964
 11
-45.4902
 21
28.2871
  0
LINE
  8
0
 10
-45.4902
 20
28.2871
 11
-45.2051
 21
28.8466
  0
LINE
  8
0
 10
-45.2051
 20
28.8466
 11
-44.8522
 21
29.3659
  0
LINE
  8
0
 10
-44.8522
 20
29.3659
 11
-44.4369
 21
29.8369
  0
LINE
  8
0
 10
-44.4369
 20
29.8369
 11
-39.4369
 21
34.8369
  0
LINE
  8
0
 10
-39.4369
 20
34.8369
 11
-38.8403
 21
35.3465
  0
LINE
  8
0
 10
-38.8403
 20
35.3465
 11
-38.3102
 21
35.6829
  0
LINE
  8
0
 10
-38.3102
 20
35.6829
 11
-37.742
 21
35.9503
  0
LINE
  8
0
 10
-37.742
 20
35.9503
 11
-37.1449
 21
36.1443
  0
LINE
  8
0
 10
-37.1449
 20
36.1443
 11
-36.5281
 21
36.262
  0
LINE
  8
0
 10
-36.5281
 20
36.262
 11
-35.9014
 21
36.3014
  0
LINE
  8
0
 10
-35.9014
 20
36.3014
 11
35.9014
 21
36.3014
  0
LINE
  8
0
 10
35.9014
 20
36.3014
 11
36.6836
 21
36.2399
  0
LINE
  8
0
 10
36.6836
 20
36.2399
 11
37.2964
 21
36.1029
  0
LINE
  8
0
 10
37.2964
 20
36.1029
 11
37.8871
 21
35.8902
  0
LINE
  8
0
 10
37.8871
 20
35.8902
 11
38.4466
 21
35.6051
  0
LINE
  8
0
 10
38.4466
 20
35.6051
 11
38.9659
 21
35.2522
  0
LINE
  8
0
 10
38.9659
 20
35.2522
 11
39.4369
 21
34.8369
  0
LINE
  8
0
 10
39.4369
 20
34.8369
 11
44.4369
 21
29.8369
  0
LINE
  8
0
 10
44.4369
 20
29.8369
 11
44.9465
 21
29.2403
  0
LINE
  8
0
 10
44.9465
 20
29.2403
 11
45.2829
 21
28.7102
  0
LINE
  8
0
 10
45.2829
 20
28.7102
 11
45.5503
 21
28.142
  0
LINE
  8
0
 10
45.5503
 20
28.142
 11
45.7443
 21
27.5449
  0
LINE
  8
0
 10
45.7443
 20
27.5449
 11
45.862
 21
26.9281
  0
LINE
  8
0
 10
45.862
 20
26.9281
 11
45.9014
 21
26.3014
  0
LINE
  8
0
 10
45.9014
 20
26.3014
 11
45.9014
 21
-26.3014
  0
LINE
  8
0
 10
45.9014
 20
-26.3014
 11
45.8398
 21
-27.0836
  0
LINE
  8
0
 10
45.8398
 20
-27.0836
 11
45.7029
 21
-27.6964
  0
LINE
  8
0
 10
45.7029
 20
-27.6964
 11
45.4902
 21
-28.2871
  0
LINE
  8
0
 10
45.4902
 20
-28.2871
 11
45.2051
 21
-28.8466
  0
LINE
  8
0
 10
45.2051
 20
-28.8466
 11
44.8522
 21
-29.3659
  0
LINE
  8
0
 10
44.8522
 20
-29.3659
 11
44.4369
 21
-29.8369
  0
LINE
  8
0
 10
44.4369
 20
-29.8369
 11
39.4369
 21
-34.8369
  0
LINE
  8
0
 10
39.4369
 20
-34.8369
 11
38.8403
 21
-35.3465
  0
LINE
  8
0
 10
38.8403
 20
-35.3465
 11
38.3102
 21
-35.6829
  0
LINE
  8
0
 10
38.3102
 20
-35.6829
 11
37.742
 21
-35.9503
  0
LINE
  8
0
 10
37.742
 20
-35.9503
 11
37.1449
 21
-36.1443
  0
LINE
  8
0
 10
37.1449
 20
-36.1443
 11
36.5281
 21
-36.262
  0
LINE
  8
0
 10
36.5281
 20
-36.262
 11
35.9014
 21
-36.3014
  0
LINE
  8
0
 10
35.9014
 20
-36.3014
 11
-35.9014
 21
-36.3014
  0
LINE
  8
0
 10
55.6431
 20
21.7059
 11
54.9625
 21
21.953
  0
LINE
  8
0
 10
54.9625
 20
21.953
 11
54.4082
 21
22.4189
  0
LINE
  8
0
 10
54.4082
 20
22.4189
 11
54.0513
 21
23.037
  0
LINE
  8
0
 10
54.0513
 20
23.037
 11
53.925
 21
23.75
  0
LINE
  8
0
 10
53.925
 20
23.75
 11
54.0513
 21
24.463
  0
LINE
  8
0
 10
54.0513
 20
24.463
 11
54.4082
 21
25.0811
  0
LINE
  8
0
 10
54.4082
 20
25.0811
 11
54.9625
 21
25.547
  0
LINE
  8
0
 10
54.9625
 20
25.547
 11
55.6431
 21
25.7941
  0
LINE
  8
0
 10
55.6431
 20
25.7941
 11
56.3569
 21
25.7941
  0
LINE
  8
0
 10
56.3569
 20
25.7941
 11
57.0375
 21
25.547
  0
LINE
  8
0
 10
57.0375
 20
25.547
 11
57.5918
 21
25.0811
  0
LINE
  8
0
 10
57.5918
 20
25.0811
 11
57.9487
 21
24.463
  0
LINE
  8
0
 10
57.9487
 20
24.463
 11
58.075
 21
23.75
  0
LINE
  8
0
 10
58.075
 20
23.75
 11
57.9487
 21
23.037
  0
LINE
  8
0
 10
57.9487
 20
23.037
 11
57.5918
 21
22.4189
  0
LINE
  8
0
 10
57.5918
 20
22.4189
 11
57.0375
 21
21.953
  0
LINE
  8
0
 10
57.0375
 20
21.953
 11
56.3569
 21
21.7059
  0
LINE
  8
0
 10
56.3569
 20
21.7059
 11
55.6431
 21
21.7059
  0
LINE
  8
0
 10
-56.3569
 20
21.7059
 11
-57.0375
 21
21.953
  0
LINE
  8
0
 10
-57.0375
 20
21.953
 11
-57.5918
 21
22.4189
  0
LINE
  8
0
 10
-57.5918
 20
22.4189
 11
-57.9487
 21
23.037
  0
LINE
  8
0
 10
-57.9487
 20
23.037
 11
-58.075
 21
23.75
  0
LINE
  8
0
 10
-58.075
 20
23.75
 11
-57.9487
 21
24.463
  0
LINE
  8
0
 10
-57.9487
 20
24.463
 11
-57.5918
 21
25.0811
  0
LINE
  8
0
 10
-57.5918
 20
25.0811
 11
-57.0375
 21
25.547
  0
LINE
  8
0
 10
-57.0375
 20
25.547
 11
-56.3569
 21
25.7941
  0
LINE
  8
0
 10
-56.3569
 20
25.7941
 11
-55.6431
 21
25.7941
  0
LINE
  8
0
 10
-55.6431
 20
25.7941
 11
-54.9625
 21
25.547
  0
LINE
  8
0
 10
-54.9625
 20
25.547
 11
-54.4082
 21
25.0811
  0
LINE
  8
0
 10
-54.4082
 20
25.0811
 11
-54.0513
 21
24.463
  0
LINE
  8
0
 10
-54.0513
 20
24.463
 11
-53.925
 21
23.75
  0
LINE
  8
0
 10
-53.925
 20
23.75
 11
-54.0513
 21
23.037
  0
LINE
  8
0
 10
-54.0513
 20
23.037
 11
-54.4082
 21
22.4189
  0
LINE
  8
0
 10
-54.4082
 20
22.4189
 11
-54.9625
 21
21.953
  0
LINE
  8
0
 10
-54.9625
 20
21.953
 11
-55.6431
 21
21.7059
  0
LINE
  8
0
 10
-55.6431
 20
21.7059
 11
-56.3569
 21
21.7059
  0
LINE
  8
0
 10
-57.0942
 20
-1.49704
 11
-57.2811
 21
-1.47342
  0
LINE
  8
0
 10
-57.2811
 20
-1.47342
 11
-57.4635
 21
-1.42657
  0
LINE
  8
0
 10
-57.4635
 20
-1.42657
 11
-57.6387
 21
-1.35724
  0
LINE
  8
0
 10
-57.6387
 20
-1.35724
 11
-57.8037
 21
-1.26648
  0
LINE
  8
0
 10
-57.8037
 20
-1.26648
 11
-57.9561
 21
-1.15576
  0
LINE
  8
0
 10
-57.9561
 20
-1.15576
 11
-58.0934
 21
-1.02681
  0
LINE
  8
0
 10
-58.0934
 20
-1.02681
 11
-58.2135
 21
-0.881668
  0
LINE
  8
0
 10
-58.2135
 20
-0.881668
 11
-58.3145
 21
-0.722626
  0
LINE
  8
0
 10
-58.3145
 20
-0.722626
 11
-58.3947
 21
-0.552185
  0
LINE
  8
0
 10
-58.3947
 20
-0.552185
 11
-58.4529
 21
-0.373032
  0
LINE
  8
0
 10
-58.4529
 20
-0.373032
 11
-58.4882
 21
-0.187988
  0
LINE
  8
0
 10
-58.4882
 20
-0.187988
 11
-58.5
 21
0
  0
LINE
  8
0
 10
-58.5
 20
0
 11
-58.4882
 21
0.187988
  0
LINE
  8
0
 10
-58.4882
 20
0.187988
 11
-58.4529
 21
0.373032
  0
LINE
  8
0
 10
-58.4529
 20
0.373032
 11
-58.3947
 21
0.552185
  0
LINE
  8
0
 10
-58.3947
 20
0.552185
 11
-58.3145
 21
0.722626
  0
LINE
  8
0
 10
-58.3145
 20
0.722626
 11
-58.2135
 21
0.881668
  0
LINE
  8
0
 10
-58.2135
 20
0.881668
 11
-58.0934
 21
1.02681
  0
LINE
  8
0
 10
-58.0934
 20
1.02681
 11
-57.9561
 21
1.15576
  0
LINE
  8
0
 10
-57.9561
 20
1.15576
 11
-57.8037
 21
1.26648
  0
LINE
  8
0
 10
-57.8037
 20
1.26648
 11
-57.6387
 21
1.35724
  0
LINE
  8
0
 10
-57.6387
 20
1.35724
 11
-57.4635
 21
1.42657
  0
LINE
  8
0
 10
-57.4635
 20
1.42657
 11
-57.2811
 21
1.47342
  0
LINE
  8
0
 10
-57.2811
 20
1.47342
 11
-57.0942
 21
1.49704
  0
LINE
  8
0
 10
-57.0942
 20
1.49704
 11
-56.9058
 21
1.49704
  0
LINE
  8
0
 10
-56.9058
 20
1.49704
 11
-56.7189
 21
1.47342
  0
LINE
  8
0
 10
-56.7189
 20
1.47342
 11
-56.5365
 21
1.42657
  0
LINE
  8
0
 10
-56.5365
 20
1.42657
 11
-56.3613
 21
1.35724
  0
LINE
  8
0
 10
-56.3613
 20
1.35724
 11
-56.1963
 21
1.26648
  0
LINE
  8
0
 10
-56.1963
 20
1.26648
 11
-56.0439
 21
1.15576
  0
LINE
  8
0
 10
-56.0439
 20
1.15576
 11
-55.9065
 21
1.02681
  0
LINE
  8
0
 10
-55.9065
 20
1.02681
 11
-55.7865
 21
0.881668
  0
LINE
  8
0
 10
-55.7865
 20
0.881668
 11
-55.6855
 21
0.722626
  0
LINE
  8
0
 10
-55.6855
 20
0.722626
 11
-55.6053
 21
0.552185
  0
LINE
  8
0
 10
-55.6053
 20
0.552185
 11
-55.5471
 21
0.373032
  0
LINE
  8
0
 10
-55.5471
 20
0.373032
 11
-55.5118
 21
0.187988
  0
LINE
  8
0
 10
-55.5118
 20
0.187988
 11
-55.5
 21
0
  0
LINE
  8
0
 10
-55.5
 20
0
 11
-55.5118
 21
-0.187988
  0
LINE
  8
0
 10
-55.5118
 20
-0.187988
 11
-55.5471
 21
-0.373032
  0
LINE
  8
0
 10
-55.5471
 20
-0.373032
 11
-55.6053
 21
-0.552185
  0
LINE
  8
0
 10
-55.6053
 20
-0.552185
 11
-55.6855
 21
-0.722626
  0
LINE
  8
0
 10
-55.6855
 20
-0.722626
 11
-55.7865
 21
-0.881668
  0
LINE
  8
0
 10
-55.7865
 20
-0.881668
 11
-55.9065
 21
-1.02681
  0
LINE
  8
0
 10
-55.9065
 20
-1.02681
 11
-56.0439
 21
-1.15576
  0
LINE
  8
0
 10
-56.0439
 20
-1.15576
 11
-56.1963
 21
-1.26648
  0
LINE
  8
0
 10
-56.1963
 20
-1.26648
 11
-56.3613
 21
-1.35724
  0
LINE
  8
0
 10
-56.3613
 20
-1.35724
 11
-56.5365
 21
-1.42657
  0
LINE
  8
0
 10
-56.5365
 20
-1.42657
 11
-56.7189
 21
-1.47342
  0
LINE
  8
0
 10
-56.7189
 20
-1.47342
 11
-56.9058
 21
-1.49704
  0
LINE
  8
0
 10
-56.9058
 20
-1.49704
 11
-57.0942
 21
-1.49704
  0
LINE
  8
0
 10
56.9058
 20
-1.49704
 11
56.7189
 21
-1.47342
  0
LINE
  8
0
 10
56.7189
 20
-1.47342
 11
56.5365
 21
-1.42657
  0
LINE
  8
0
 10
56.5365
 20
-1.42657
 11
56.3613
 21
-1.35724
  0
LINE
  8
0
 10
56.3613
 20
-1.35724
 11
56.1963
 21
-1.26648
  0
LINE
  8
0
 10
56.1963
 20
-1.26648
 11
56.0439
 21
-1.15576
  0
LINE
  8
0
 10
56.0439
 20
-1.15576
 11
55.9065
 21
-1.02681
  0
LINE
  8
0
 10
55.9065
 20
-1.02681
 11
55.7865
 21
-0.881668
  0
LINE
  8
0
 10
55.7865
 20
-0.881668
 11
55.6855
 21
-0.722626
  0
LINE
  8
0
 10
55.6855
 20
-0.722626
 11
55.6053
 21
-0.552185
  0
LINE
  8
0
 10
55.6053
 20
-0.552185
 11
55.5471
 21
-0.373032
  0
LINE
  8
0
 10
55.5471
 20
-0.373032
 11
55.5118
 21
-0.187988
  0
LINE
  8
0
 10
55.5118
 20
-0.187988
 11
55.5
 21
0
  0
LINE
  8
0
 10
55.5
 20
0
 11
55.5118
 21
0.187988
  0
LINE
  8
0
 10
55.5118
 20
0.187988
 11
55.5471
 21
0.373032
  0
LINE
  8
0
 10
55.5471
 20
0.373032
 11
55.6053
 21
0.552185
  0
LINE
  8
0
 10
55.6053
 20
0.552185
 11
55.6855
 21
0.722626
  0
LINE
  8
0
 10
55.6855
 20
0.722626
 11
55.7865
 21
0.881668
  0
LINE
  8
0
 10
55.7865
 20
0.881668
 11
55.9065
 21
1.02681
  0
LINE
  8
0
 10
55.9065
 20
1.02681
 11
56.0439
 21
1.15576
  0
LINE
  8
0
 10
56.0439
 20
1.15576
 11
56.1963
 21
1.26648
  0
LINE
  8
0
 10
56.1963
 20
1.26648
 11
56.3613
 21
1.35724
  0
LINE
  8
0
 10
56.3613
 20
1.35724
 11
56.5365
 21
1.42657
  0
LINE
  8
0
 10
56.5365
 20
1.42657
 11
56.7189
 21
1.47342
  0
LINE
  8
0
 10
56.7189
 20
1.47342
 11
56.9058
 21
1.49704
  0
LINE
  8
0
 10
56.9058
 20
1.49704
 11
57.0942
 21
1.49704
  0
LINE
  8
0
 10
57.0942
 20
1.49704
 11
57.2811
 21
1.47342
  0
LINE
  8
0
 10
57.2811
 20
1.47342
 11
57.4635
 21
1.42657
  0
LINE
  8
0
 10
57.4635
 20
1.42657
 11
57.6387
 21
1.35724
  0
LINE
  8
0
 10
57.6387
 20
1.35724
 11
57.8037
 21
1.26648
  0
LINE
  8
0
 10
57.8037
 20
1.26648
 11
57.9561
 21
1.15576
  0
LINE
  8
0
 10
57.9561
 20
1.15576
 11
58.0934
 21
1.02681
  0
LINE
  8
0
 10
58.0934
 20
1.02681
 11
58.2135
 21
0.881668
  0
LINE
  8
0
 10
58.2135
 20
0.881668
 11
58.3145
 21
0.722626
  0
LINE
  8
0
 10
58.3145
 20
0.722626
 11
58.3947
 21
0.552185
  0
LINE
  8
0
 10
58.3947
 20
0.552185
 11
58.4529
 21
0.373032
  0
LINE
  8
0
 10
58.4529
 20
0.373032
 11
58.4882
 21
0.187988
  0
LINE
  8
0
 10
58.4882
 20
0.187988
 11
58.5
 21
0
  0
LINE
  8
0
 10
58.5
 20
0
 11
58.4882
 21
-0.187988
  0
LINE
  8
0
 10
58.4882
 20
-0.187988
 11
58.4529
 21
-0.373032
  0
LINE
  8
0
 10
58.4529
 20
-0.373032
 11
58.3947
 21
-0.552185
  0
LINE
  8
0
 10
58.3947
 20
-0.552185
 11
58.3145
 21
-0.722626
  0
LINE
  8
0
 10
58.3145
 20
-0.722626
 11
58.2135
 21
-0.881668
  0
LINE
  8
0
 10
58.2135
 20
-0.881668
 11
58.0934
 21
-1.02681
  0
LINE
  8
0
 10
58.0934
 20
-1.02681
 11
57.9561
 21
-1.15576
  0
LINE
  8
0
 10
57.9561
 20
-1.15576
 11
57.8037
 21
-1.26648
  0
LINE
  8
0
 10
57.8037
 20
-1.26648
 11
57.6387
 21
-1.35724
  0
LINE
  8
0
 10
57.6387
 20
-1.35724
 11
57.4635
 21
-1.42657
  0
LINE
  8
0
 10
57.4635
 20
-1.42657
 11
57.2811
 21
-1.47342
  0
LINE
  8
0
 10
57.2811
 20
-1.47342
 11
57.0942
 21
-1.49704
  0
LINE
  8
0
 10
57.0942
 20
-1.49704
 11
56.9058
 21
-1.49704
  0
LINE
  8
0
 10
55.6431
 20
-25.7941
 11
54.9625
 21
-25.547
  0
LINE
  8
0
 10
54.9625
 20
-25.547
 11
54.4082
 21
-25.0811
  0
LINE
  8
0
 10
54.4082
 20
-25.0811
 11
54.0513
 21
-24.463
  0
LINE
  8
0
 10
54.0513
 20
-24.463
 11
53.925
 21
-23.75
  0
LINE
  8
0
 10
53.925
 20
-23.75
 11
54.0513
 21
-23.037
  0
LINE
  8
0
 10
54.0513
 20
-23.037
 11
54.4082
 21
-22.4189
  0
LINE
  8
0
 10
54.4082
 20
-22.4189
 11
54.9625
 21
-21.953
  0
LINE
  8
0
 10
54.9625
 20
-21.953
 11
55.6431
 21
-21.7059
  0
LINE
  8
0
 10
55.6431
 20
-21.7059
 11
56.3569
 21
-21.7059
  0
LINE
  8
0
 10
56.3569
 20
-21.7059
 11
57.0375
 21
-21.953
  0
LINE
  8
0
 10
57.0375
 20
-21.953
 11
57.5918
 21
-22.4189
  0
LINE
  8
0
 10
57.5918
 20
-22.4189
 11
57.9487
 21
-23.037
  0
LINE
  8
0
 10
57.9487
 20
-23.037
 11
58.075
 21
-23.75
  0
LINE
  8
0
 10
58.075
 20
-23.75
 11
57.9487
 21
-24.463
  0
LINE
  8
0
 10
57.9487
 20
-24.463
 11
57.5918
 21
-25.0811
  0
LINE
  8
0
 10
57.5918
 20
-25.0811
 11
57.0375
 21
-25.547
  0
LINE
  8
0
 10
57.0375
 20
-25.547
 11
56.3569
 21
-25.7941
  0
LINE
  8
0
 10
56.3569
 20
-25.7941
 11
55.6431
 21
-25.7941
  0
LINE
  8
0
 10
-56.3569
 20
-25.7941
 11
-57.0375
 21
-25.547
  0
LINE
  8
0
 10
-57.0375
 20
-25.547
 11
-57.5918
 21
-25.0811
  0
LINE
  8
0
 10
-57.5918
 20
-25.0811
 11
-57.9487
 21
-24.463
  0
LINE
  8
0
 10
-57.9487
 20
-24.463
 11
-58.075
 21
-23.75
  0
LINE
  8
0
 10
-58.075
 20
-23.75
 11
-57.9487
 21
-23.037
  0
LINE
  8
0
 10
-57.9487
 20
-23.037
 11
-57.5918
 21
-22.4189
  0
LINE
  8
0
 10
-57.5918
 20
-22.4189
 11
-57.0375
 21
-21.953
  0
LINE
  8
0
 10
-57.0375
 20
-21.953
 11
-56.3569
 21
-21.7059
  0
LINE
  8
0
 10
-56.3569
 20
-21.7059
 11
-55.6431
 21
-21.7059
  0
LINE
  8
0
 10
-55.6431
 20
-21.7059
 11
-54.9625
 21
-21.953
  0
LINE
  8
0
 10
-54.9625
 20
-21.953
 11
-54.4082
 21
-22.4189
  0
LINE
  8
0
 10
-54.4082
 20
-22.4189
 11
-54.0513
 21
-23.037
  0
LINE
  8
0
 10
-54.0513
 20
-23.037
 11
-53.925
 21
-23.75
  0
LINE
  8
0
 10
-53.925
 20
-23.75
 11
-54.0513
 21
-24.463
  0
LINE
  8
0
 10
-54.0513
 20
-24.463
 11
-54.4082
 21
-25.0811
  0
LINE
  8
0
 10
-54.4082
 20
-25.0811
 11
-54.9625
 21
-25.547
  0
LINE
  8
0
 10
-54.9625
 20
-25.547
 11
-55.6431
 21
-25.7941
  0
LINE
  8
0
 10
-55.6431
 20
-25.7941
 11
-56.3569
 21
-25.7941
  0
LINE
  8
0
 10
-57.0942
 20
-45.497
 11
-57.2811
 21
-45.4734
  0
LINE
  8
0
 10
-57.2811
 20
-45.4734
 11
-57.4635
 21
-45.4266
  0
LINE
  8
0
 10
-57.4635
 20
-45.4266
 11
-57.6387
 21
-45.3572
  0
LINE
  8
0
 10
-57.6387
 20
-45.3572
 11
-57.8037
 21
-45.2665
  0
LINE
  8
0
 10
-57.8037
 20
-45.2665
 11
-57.9561
 21
-45.1558
  0
LINE
  8
0
 10
-57.9561
 20
-45.1558
 11
-58.0934
 21
-45.0268
  0
LINE
  8
0
 10
-58.0934
 20
-45.0268
 11
-58.2135
 21
-44.8817
  0
LINE
  8
0
 10
-58.2135
 20
-44.8817
 11
-58.3145
 21
-44.7226
  0
LINE
  8
0
 10
-58.3145
 20
-44.7226
 11
-58.3947
 21
-44.5522
  0
LINE
  8
0
 10
-58.3947
 20
-44.5522
 11
-58.4529
 21
-44.373
  0
LINE
  8
0
 10
-58.4529
 20
-44.373
 11
-58.4882
 21
-44.188
  0
LINE
  8
0
 10
-58.4882
 20
-44.188
 11
-58.5
 21
-44
  0
LINE
  8
0
 10
-58.5
 20
-44
 11
-58.4882
 21
-43.812
  0
LINE
  8
0
 10
-58.4882
 20
-43.812
 11
-58.4529
 21
-43.627
  0
LINE
  8
0
 10
-58.4529
 20
-43.627
 11
-58.3947
 21
-43.4478
  0
LINE
  8
0
 10
-58.3947
 20
-43.4478
 11
-58.3145
 21
-43.2774
  0
LINE
  8
0
 10
-58.3145
 20
-43.2774
 11
-58.2135
 21
-43.1183
  0
LINE
  8
0
 10
-58.2135
 20
-43.1183
 11
-58.0934
 21
-42.9732
  0
LINE
  8
0
 10
-58.0934
 20
-42.9732
 11
-57.9561
 21
-42.8442
  0
LINE
  8
0
 10
-57.9561
 20
-42.8442
 11
-57.8037
 21
-42.7335
  0
LINE
  8
0
 10
-57.8037
 20
-42.7335
 11
-57.6387
 21
-42.6427
  0
LINE
  8
0
 10
-57.6387
 20
-42.6427
 11
-57.4635
 21
-42.5734
  0
LINE
  8
0
 10
-57.4635
 20
-42.5734
 11
-57.2811
 21
-42.5266
  0
LINE
  8
0
 10
-57.2811
 20
-42.5266
 11
-57.0942
 21
-42.5029
  0
LINE
  8
0
 10
-57.0942
 20
-42.5029
 11
-56.9058
 21
-42.5029
  0
LINE
  8
0
 10
-56.9058
 20
-42.5029
 11
-56.7189
 21
-42.5266
  0
LINE
  8
0
 10
-56.7189
 20
-42.5266
 11
-56.5365
 21
-42.5734
  0
LINE
  8
0
 10
-56.5365
 20
-42.5734
 11
-56.3613
 21
-42.6427
  0
LINE
  8
0
 10
-56.3613
 20
-42.6427
 11
-56.1963
 21
-42.7335
  0
LINE
  8
0
 10
-56.1963
 20
-42.7335
 11
-56.0439
 21
-42.8442
  0
LINE
  8
0
 10
-56.0439
 20
-42.8442
 11
-55.9065
 21
-42.9732
  0
LINE
  8
0
 10
-55.9065
 20
-42.9732
 11
-55.7865
 21
-43.1183
  0
LINE
  8
0
 10
-55.7865
 20
-43.1183
 11
-55.6855
 21
-43.2774
  0
LINE
  8
0
 10
-55.6855
 20
-43.2774
 11
-55.6053
 21
-43.4478
  0
LINE
  8
0
 10
-55.6053
 20
-43.4478
 11
-55.5471
 21
-43.627
  0
LINE
  8
0
 10
-55.5471
 20
-43.627
 11
-55.5118
 21
-43.812
  0
LINE
  8
0
 10
-55.5118
 20
-43.812
 11
-55.5
 21
-44
  0
LINE
  8
0
 10
-55.5
 20
-44
 11
-55.5118
 21
-44.188
  0
LINE
  8
0
 10
-55.5118
 20
-44.188
 11
-55.5471
 21
-44.373
  0
LINE
  8
0
 10
-55.5471
 20
-44.373
 11
-55.6053
 21
-44.5522
  0
LINE
  8
0
 10
-55.6053
 20
-44.5522
 11
-55.6855
 21
-44.7226
  0
LINE
  8
0
 10
-55.6855
 20
-44.7226
 11
-55.7865
 21
-44.8817
  0
LINE
  8
0
 10
-55.7865
 20
-44.8817
 11
-55.9065
 21
-45.0268
  0
LINE
  8
0
 10
-55.9065
 20
-45.0268
 11
-56.0439
 21
-45.1558
  0
LINE
  8
0
 10
-56.0439
 20
-45.1558
 11
-56.1963
 21
-45.2665
  0
LINE
  8
0
 10
-56.1963
 20
-45.2665
 11
-56.3613
 21
-45.3572
  0
LINE
  8
0
 10
-56.3613
 20
-45.3572
 11
-56.5365
 21
-45.4266
  0
LINE
  8
0
 10
-56.5365
 20
-45.4266
 11
-56.7189
 21
-45.4734
  0
LINE
  8
0
 10
-56.7189
 20
-45.4734
 11
-56.9058
 21
-45.497
  0
LINE
  8
0
 10
-56.9058
 20
-45.497
 11
-57.0942
 21
-45.497
  0
LINE
  8
0
 10
56.9058
 20
-45.497
 11
56.7189
 21
-45.4734
  0
LINE
  8
0
 10
56.7189
 20
-45.4734
 11
56.5365
 21
-45.4266
  0
LINE
  8
0
 10
56.5365
 20
-45.4266
 11
56.3613
 21
-45.3572
  0
LINE
  8
0
 10
56.3613
 20
-45.3572
 11
56.1963
 21
-45.2665
  0
LINE
  8
0
 10
56.1963
 20
-45.2665
 11
56.0439
 21
-45.1558
  0
LINE
  8
0
 10
56.0439
 20
-45.1558
 11
55.9065
 21
-45.0268
  0
LINE
  8
0
 10
55.9065
 20
-45.0268
 11
55.7865
 21
-44.8817
  0
LINE
  8
0
 10
55.7865
 20
-44.8817
 11
55.6855
 21
-44.7226
  0
LINE
  8
0
 10
55.6855
 20
-44.7226
 11
55.6053
 21
-44.5522
  0
LINE
  8
0
 10
55.6053
 20
-44.5522
 11
55.5471
 21
-44.373
  0
LINE
  8
0
 10
55.5471
 20
-44.373
 11
55.5118
 21
-44.188
  0
LINE
  8
0
 10
55.5118
 20
-44.188
 11
55.5
 21
-44
  0
LINE
  8
0
 10
55.5
 20
-44
 11
55.5118
 21
-43.812
  0
LINE
  8
0
 10
55.5118
 20
-43.812
 11
55.5471
 21
-43.627
  0
LINE
  8
0
 10
55.5471
 20
-43.627
 11
55.6053
 21
-43.4478
  0
LINE
  8
0
 10
55.6053
 20
-43.4478
 11
55.6855
 21
-43.2774
  0
LINE
  8
0
 10
55.6855
 20
-43.2774
 11
55.7865
 21
-43.1183
  0
LINE
  8
0
 10
55.7865
 20
-43.1183
 11
55.9065
 21
-42.9732
  0
LINE
  8
0
 10
55.9065
 20
-42.9732
 11
56.0439
 21
-42.8442
  0
LINE
  8
0
 10
56.0439
 20
-42.8442
 11
56.1963
 21
-42.7335
  0
LINE
  8
0
 10
56.1963
 20
-42.7335
 11
56.3613
 21
-42.6427
  0
LINE
  8
0
 10
56.3613
 20
-42.6427
 11
56.5365
 21
-42.5734
  0
LINE
  8
0
 10
56.5365
 20
-42.5734
 11
56.7189
 21
-42.5266
  0
LINE
  8
0
 10
56.7189
 20
-42.5266
 11
56.9058
 21
-42.5029
  0
LINE
  8
0
 10
56.9058
 20
-42.5029
 11
57.0942
 21
-42.5029
  0
LINE
  8
0
 10
57.0942
 20
-42.5029
 11
57.2811
 21
-42.5266
  0
LINE
  8
0
 10
57.2811
 20
-42.5266
 11
57.4635
 21
-42.5734
  0
LINE
  8
0
 10
57.4635
 20
-42.5734
 11
57.6387
 21
-42.6427
  0
LINE
  8
0
 10
57.6387
 20
-42.6427
 11
57.8037
 21
-42.7335
  0
LINE
  8
0
 10
57.8037
 20
-42.7335
 11
57.9561
 21
-42.8442
  0
LINE
  8
0
 10
57.9561
 20
-42.8442
 11
58.0934
 21
-42.9732
  0
LINE
  8
0
 10
58.0934
 20
-42.9732
 11
58.2135
 21
-43.1183
  0
LINE
  8
0
 10
58.2135
 20
-43.1183
 11
58.3145
 21
-43.2774
  0
LINE
  8
0
 10
58.3145
 20
-43.2774
 11
58.3947
 21
-43.4478
  0
LINE
  8
0
 10
58.3947
 20
-43.4478
 11
58.4529
 21
-43.627
  0
LINE
  8
0
 10
58.4529
 20
-43.627
 11
58.4882
 21
-43.812
  0
LINE
  8
0
 10
58.4882
 20
-43.812
 11
58.5
 21
-44
  0
LINE
  8
0
 10
58.5
 20
-44
 11
58.4882
 21
-44.188
  0
LINE
  8
0
 10
58.4882
 20
-44.188
 11
58.4529
 21
-44.373
  0
LINE
  8
0
 10
58.4529
 20
-44.373
 11
58.3947
 21
-44.5522
  0
LINE
  8
0
 10
58.3947
 20
-44.5522
 11
58.3145
 21
-44.7226
  0
LINE
  8
0
 10
58.3145
 20
-44.7226
 11
58.2135
 21
-44.8817
  0
LINE
  8
0
 10
58.2135
 20
-44.8817
 11
58.0934
 21
-45.0268
  0
LINE
  8
0
 10
58.0934
 20
-45.0268
 11
57.9561
 21
-45.1558
  0
LINE
  8
0
 10
57.9561
 20
-45.1558
 11
57.8037
 21
-45.2665
  0
LINE
  8
0
 10
57.8037
 20
-45.2665
 11
57.6387
 21
-45.3572
  0
LINE
  8
0
 10
57.6387
 20
-45.3572
 11
57.4635
 21
-45.4266
  0
LINE
  8
0
 10
57.4635
 20
-45.4266
 11
57.2811
 21
-45.4734
  0
LINE
  8
0
 10
57.2811
 20
-45.4734
 11
57.0942
 21
-45.497
  0
LINE
  8
0
 10
57.0942
 20
-45.497
 11
56.9058
 21
-45.497
  0
LINE
  8
0
 10
-0.0941772
 20
-45.497
 11
-0.281067
 21
-45.4734
  0
LINE
  8
0
 10
-0.281067
 20
-45.4734
 11
-0.463516
 21
-45.4266
  0
LINE
  8
0
 10
-0.463516
 20
-45.4266
 11
-0.638657
 21
-45.3572
  0
LINE
  8
0
 10
-0.638657
 20
-45.3572
 11
-0.803726
 21
-45.2665
  0
LINE
  8
0
 10
-0.803726
 20
-45.2665
 11
-0.956131
 21
-45.1558
  0
LINE
  8
0
 10
-0.956131
 20
-45.1558
 11
-1.09344
 21
-45.0268
  0
LINE
  8
0
 10
-1.09344
 20
-45.0268
 11
-1.21352
 21
-44.8817
  0
LINE
  8
0
 10
-1.21352
 20
-44.8817
 11
-1.31445
 21
-44.7226
  0
LINE
  8
0
 10
-1.31445
 20
-44.7226
 11
-1.39465
 21
-44.5522
  0
LINE
  8
0
 10
-1.39465
 20
-44.5522
 11
-1.45287
 21
-44.373
  0
LINE
  8
0
 10
-1.45287
 20
-44.373
 11
-1.48816
 21
-44.188
  0
LINE
  8
0
 10
-1.48816
 20
-44.188
 11
-1.5
 21
-44
  0
LINE
  8
0
 10
-1.5
 20
-44
 11
-1.48816
 21
-43.812
  0
LINE
  8
0
 10
-1.48816
 20
-43.812
 11
-1.45287
 21
-43.627
  0
LINE
  8
0
 10
-1.45287
 20
-43.627
 11
-1.39465
 21
-43.4478
  0
LINE
  8
0
 10
-1.39465
 20
-43.4478
 11
-1.31445
 21
-43.2774
  0
LINE
  8
0
 10
-1.31445
 20
-43.2774
 11
-1.21352
 21
-43.1183
  0
LINE
  8
0
 10
-1.21352
 20
-43.1183
 11
-1.09344
 21
-42.9732
  0
LINE
  8
0
 10
-1.09344
 20
-42.9732
 11
-0.956131
 21
-42.8442
  0
LINE
  8
0
 10
-0.956131
 20
-42.8442
 11
-0.803726
 21
-42.7335
  0
LINE
  8
0
 10
-0.803726
 20
-42.7335
 11
-0.638657
 21
-42.6427
  0
LINE
  8
0
 10
-0.638657
 20
-42.6427
 11
-0.463516
 21
-42.5734
  0
LINE
  8
0
 10
-0.463516
 20
-42.5734
 11
-0.281067
 21
-42.5266
  0
LINE
  8
0
 10
-0.281067
 20
-42.5266
 11
-0.0941772
 21
-42.5029
  0
LINE
  8
0
 10
-0.0941772
 20
-42.5029
 11
0.0941772
 21
-42.5029
  0
LINE
  8
0
 10
0.0941772
 20
-42.5029
 11
0.281067
 21
-42.5266
  0
LINE
  8
0
 10
0.281067
 20
-42.5266
 11
0.463516
 21
-42.5734
  0
LINE
  8
0
 10
0.463516
 20
-42.5734
 11
0.638657
 21
-42.6427
  0
LINE
  8
0
 10
0.638657
 20
-42.6427
 11
0.803726
 21
-42.7335
  0
LINE
  8
0
 10
0.803726
 20
-42.7335
 11
0.956131
 21
-42.8442
  0
LINE
  8
0
 10
0.956131
 20
-42.8442
 11
1.09344
 21
-42.9732
  0
LINE
  8
0
 10
1.09344
 20
-42.9732
 11
1.21352
 21
-43.1183
  0
LINE
  8
0
 10
1.21352
 20
-43.1183
 11
1.31445
 21
-43.2774
  0
LINE
  8
0
 10
1.31445
 20
-43.2774
 11
1.39465
 21
-43.4478
  0
LINE
  8
0
 10
1.39465
 20
-43.4478
 11
1.45287
 21
-43.627
  0
LINE
  8
0
 10
1.45287
 20
-43.627
 11
1.48816
 21
-43.812
  0
LINE
  8
0
 10
1.48816
 20
-43.812
 11
1.5
 21
-44
  0
LINE
  8
0
 10
1.5
 20
-44
 11
1.48816
 21
-44.188
  0
LINE
  8
0
 10
1.48816
 20
-44.188
 11
1.45287
 21
-44.373
  0
LINE
  8
0
 10
1.45287
 20
-44.373
 11
1.39465
 21
-44.5522
  0
LINE
  8
0
 10
1.39465
 20
-44.5522
 11
1.31445
 21
-44.7226
  0
LINE
  8
0
 10
1.31445
 20
-44.7226
 11
1.21352
 21
-44.8817
  0
LINE
  8
0
 10
1.21352
 20
-44.8817
 11
1.09344
 21
-45.0268
  0
LINE
  8
0
 10
1.09344
 20
-45.0268
 11
0.956131
 21
-45.1558
  0
LINE
  8
0
 10
0.956131
 20
-45.1558
 11
0.803726
 21
-45.2665
  0
LINE
  8
0
 10
0.803726
 20
-45.2665
 11
0.638657
 21
-45.3572
  0
LINE
  8
0
 10
0.638657
 20
-45.3572
 11
0.463516
 21
-45.4266
  0
LINE
  8
0
 10
0.463516
 20
-45.4266
 11
0.281067
 21
-45.4734
  0
LINE
  8
0
 10
0.281067
 20
-45.4734
 11
0.0941772
 21
-45.497
  0
LINE
  8
0
 10
0.0941772
 20
-45.497
 11
-0.0941772
 21
-45.497
  0
ENDSEC
  0
SECTION
  2
OBJECTS
  0
DICTIONARY
  0
ENDSEC
  0
EOF
