  0
SECTION
  2
BLOCKS
  0
ENDSEC
  0
SECTION
  2
ENTITIES
  0
LINE
  8
0
 10
39.6614
 20
-61.0648
 11
43.3621
 21
-60.3589
  0
LINE
  8
0
 10
43.3621
 20
-60.3589
 11
46.9451
 21
-59.1947
  0
LINE
  8
0
 10
46.9451
 20
-59.1947
 11
50.354
 21
-57.5906
  0
LINE
  8
0
 10
50.354
 20
-57.5906
 11
53.535
 21
-55.5719
  0
LINE
  8
0
 10
53.535
 20
-55.5719
 11
57.1146
 21
-52.5146
  0
LINE
  8
0
 10
57.1146
 20
-52.5146
 11
62.1146
 21
-47.5146
  0
LINE
  8
0
 10
62.1146
 20
-47.5146
 11
64.606
 21
-44.6886
  0
LINE
  8
0
 10
64.606
 20
-44.6886
 11
66.7237
 21
-41.5726
  0
LINE
  8
0
 10
66.7237
 20
-41.5726
 11
68.434
 21
-38.2159
  0
LINE
  8
0
 10
68.434
 20
-38.2159
 11
69.7102
 21
-34.6711
  0
LINE
  8
0
 10
69.7102
 20
-34.6711
 11
70.532
 21
-30.9944
  0
LINE
  8
0
 10
70.532
 20
-30.9944
 11
70.9014
 21
-26.3014
  0
LINE
  8
0
 10
70.9014
 20
-26.3014
 11
70.9014
 21
26.3014
  0
LINE
  8
0
 10
70.9014
 20
26.3014
 11
70.6648
 21
30.0614
  0
LINE
  8
0
 10
70.6648
 20
30.0614
 11
69.9589
 21
33.7621
  0
LINE
  8
0
 10
69.9589
 20
33.7621
 11
68.7947
 21
37.3451
  0
LINE
  8
0
 10
68.7947
 20
37.3451
 11
67.1906
 21
40.754
  0
LINE
  8
0
 10
67.1906
 20
40.754
 11
65.1719
 21
43.935
  0
LINE
  8
0
 10
65.1719
 20
43.935
 11
62.1146
 21
47.5146
  0
LINE
  8
0
 10
62.1146
 20
47.5146
 11
57.1146
 21
52.5146
  0
LINE
  8
0
 10
57.1146
 20
52.5146
 11
54.2886
 21
55.0061
  0
LINE
  8
0
 10
54.2886
 20
55.0061
 11
51.1726
 21
57.1237
  0
LINE
  8
0
 10
51.1726
 20
57.1237
 11
47.8158
 21
58.834
  0
LINE
  8
0
 10
47.8158
 20
58.834
 11
44.2711
 21
60.1102
  0
LINE
  8
0
 10
44.2711
 20
60.1102
 11
40.5944
 21
60.9321
  0
LINE
  8
0
 10
40.5944
 20
60.9321
 11
35.9014
 21
61.3014
  0
LINE
  8
0
 10
35.9014
 20
61.3014
 11
-35.9014
 21
61.3014
  0
LINE
  8
0
 10
-35.9014
 20
61.3014
 11
-39.6614
 21
61.0648
  0
LINE
  8
0
 10
-39.6614
 20
61.0648
 11
-43.3621
 21
60.3589
  0
LINE
  8
0
 10
-43.3621
 20
60.3589
 11
-46.9451
 21
59.1947
  0
LINE
  8
0
 10
-46.9451
 20
59.1947
 11
-50.354
 21
57.5906
  0
LINE
  8
0
 10
-50.354
 20
57.5906
 11
-53.535
 21
55.5719
  0
LINE
  8
0
 10
-53.535
 20
55.5719
 11
-57.1146
 21
52.5146
  0
LINE
  8
0
 10
-57.1146
 20
52.5146
 11
-62.1146
 21
47.5146
  0
LINE
  8
0
 10
-62.1146
 20
47.5146
 11
-64.606
 21
44.6886
  0
LINE
  8
0
 10
-64.606
 20
44.6886
 11
-66.7237
 21
41.5726
  0
LINE
  8
0
 10
-66.7237
 20
41.5726
 11
-68.434
 21
38.2159
  0
LINE
  8
0
 10
-68.434
 20
38.2159
 11
-69.7102
 21
34.6711
  0
LINE
  8
0
 10
-69.7102
 20
34.6711
 11
-70.532
 21
30.9944
  0
LINE
  8
0
 10
-70.532
 20
30.9944
 11
-70.9014
 21
26.3014
  0
LINE
  8
0
 10
-70.9014
 20
26.3014
 11
-70.9014
 21
-26.3014
  0
LINE
  8
0
 10
-70.9014
 20
-26.3014
 11
-70.6648
 21
-30.0614
  0
LINE
  8
0
 10
-70.6648
 20
-30.0614
 11
-69.9589
 21
-33.7621
  0
LINE
  8
0
 10
-69.9589
 20
-33.7621
 11
-68.7947
 21
-37.3451
  0
LINE
  8
0
 10
-68.7947
 20
-37.3451
 11
-67.1906
 21
-40.754
  0
LINE
  8
0
 10
-67.1906
 20
-40.754
 11
-65.1719
 21
-43.935
  0
LINE
  8
0
 10
-65.1719
 20
-43.935
 11
-62.1146
 21
-47.5146
  0
LINE
  8
0
 10
-62.1146
 20
-47.5146
 11
-57.1146
 21
-52.5146
  0
LINE
  8
0
 10
-57.1146
 20
-52.5146
 11
-54.2886
 21
-55.0061
  0
LINE
  8
0
 10
-54.2886
 20
-55.0061
 11
-51.1726
 21
-57.1237
  0
LINE
  8
0
 10
-51.1726
 20
-57.1237
 11
-47.8158
 21
-58.834
  0
LINE
  8
0
 10
-47.8158
 20
-58.834
 11
-44.2711
 21
-60.1102
  0
LINE
  8
0
 10
-44.2711
 20
-60.1102
 11
-40.5944
 21
-60.9321
  0
LINE
  8
0
 10
-40.5944
 20
-60.9321
 11
-35.9014
 21
-61.3014
  0
LINE
  8
0
 10
-35.9014
 20
-61.3014
 11
35.9014
 21
-61.3014
  0
LINE
  8
0
 10
35.9014
 20
-61.3014
 11
39.6614
 21
-61.0648
  0
LINE
  8
0
 10
-65.0942
 20
30.5029
 11
-65.2811
 21
30.5266
  0
LINE
  8
0
 10
-65.2811
 20
30.5266
 11
-65.4635
 21
30.5734
  0
LINE
  8
0
 10
-65.4635
 20
30.5734
 11
-65.6387
 21
30.6427
  0
LINE
  8
0
 10
-65.6387
 20
30.6427
 11
-65.8037
 21
30.7335
  0
LINE
  8
0
 10
-65.8037
 20
30.7335
 11
-65.9561
 21
30.8442
  0
LINE
  8
0
 10
-65.9561
 20
30.8442
 11
-66.0934
 21
30.9732
  0
LINE
  8
0
 10
-66.0934
 20
30.9732
 11
-66.2135
 21
31.1183
  0
LINE
  8
0
 10
-66.2135
 20
31.1183
 11
-66.3145
 21
31.2774
  0
LINE
  8
0
 10
-66.3145
 20
31.2774
 11
-66.3947
 21
31.4478
  0
LINE
  8
0
 10
-66.3947
 20
31.4478
 11
-66.4529
 21
31.627
  0
LINE
  8
0
 10
-66.4529
 20
31.627
 11
-66.4882
 21
31.812
  0
LINE
  8
0
 10
-66.4882
 20
31.812
 11
-66.5
 21
32
  0
LINE
  8
0
 10
-66.5
 20
32
 11
-66.4882
 21
32.188
  0
LINE
  8
0
 10
-66.4882
 20
32.188
 11
-66.4529
 21
32.373
  0
LINE
  8
0
 10
-66.4529
 20
32.373
 11
-66.3947
 21
32.5522
  0
LINE
  8
0
 10
-66.3947
 20
32.5522
 11
-66.3145
 21
32.7226
  0
LINE
  8
0
 10
-66.3145
 20
32.7226
 11
-66.2135
 21
32.8817
  0
LINE
  8
0
 10
-66.2135
 20
32.8817
 11
-66.0934
 21
33.0268
  0
LINE
  8
0
 10
-66.0934
 20
33.0268
 11
-65.9561
 21
33.1558
  0
LINE
  8
0
 10
-65.9561
 20
33.1558
 11
-65.8037
 21
33.2665
  0
LINE
  8
0
 10
-65.8037
 20
33.2665
 11
-65.6387
 21
33.3572
  0
LINE
  8
0
 10
-65.6387
 20
33.3572
 11
-65.4635
 21
33.4266
  0
LINE
  8
0
 10
-65.4635
 20
33.4266
 11
-65.2811
 21
33.4734
  0
LINE
  8
0
 10
-65.2811
 20
33.4734
 11
-65.0942
 21
33.497
  0
LINE
  8
0
 10
-65.0942
 20
33.497
 11
-64.9058
 21
33.497
  0
LINE
  8
0
 10
-64.9058
 20
33.497
 11
-64.7189
 21
33.4734
  0
LINE
  8
0
 10
-64.7189
 20
33.4734
 11
-64.5365
 21
33.4266
  0
LINE
  8
0
 10
-64.5365
 20
33.4266
 11
-64.3613
 21
33.3572
  0
LINE
  8
0
 10
-64.3613
 20
33.3572
 11
-64.1963
 21
33.2665
  0
LINE
  8
0
 10
-64.1963
 20
33.2665
 11
-64.0439
 21
33.1558
  0
LINE
  8
0
 10
-64.0439
 20
33.1558
 11
-63.9065
 21
33.0268
  0
LINE
  8
0
 10
-63.9065
 20
33.0268
 11
-63.7865
 21
32.8817
  0
LINE
  8
0
 10
-63.7865
 20
32.8817
 11
-63.6855
 21
32.7226
  0
LINE
  8
0
 10
-63.6855
 20
32.7226
 11
-63.6053
 21
32.5522
  0
LINE
  8
0
 10
-63.6053
 20
32.5522
 11
-63.5471
 21
32.373
  0
LINE
  8
0
 10
-63.5471
 20
32.373
 11
-63.5118
 21
32.188
  0
LINE
  8
0
 10
-63.5118
 20
32.188
 11
-63.5
 21
32
  0
LINE
  8
0
 10
-63.5
 20
32
 11
-63.5118
 21
31.812
  0
LINE
  8
0
 10
-63.5118
 20
31.812
 11
-63.5471
 21
31.627
  0
LINE
  8
0
 10
-63.5471
 20
31.627
 11
-63.6053
 21
31.4478
  0
LINE
  8
0
 10
-63.6053
 20
31.4478
 11
-63.6855
 21
31.2774
  0
LINE
  8
0
 10
-63.6855
 20
31.2774
 11
-63.7865
 21
31.1183
  0
LINE
  8
0
 10
-63.7865
 20
31.1183
 11
-63.9065
 21
30.9732
  0
LINE
  8
0
 10
-63.9065
 20
30.9732
 11
-64.0439
 21
30.8442
  0
LINE
  8
0
 10
-64.0439
 20
30.8442
 11
-64.1963
 21
30.7335
  0
LINE
  8
0
 10
-64.1963
 20
30.7335
 11
-64.3613
 21
30.6427
  0
LINE
  8
0
 10
-64.3613
 20
30.6427
 11
-64.5365
 21
30.5734
  0
LINE
  8
0
 10
-64.5365
 20
30.5734
 11
-64.7189
 21
30.5266
  0
LINE
  8
0
 10
-64.7189
 20
30.5266
 11
-64.9058
 21
30.5029
  0
LINE
  8
0
 10
-64.9058
 20
30.5029
 11
-65.0942
 21
30.5029
  0
LINE
  8
0
 10
64.9058
 20
30.5029
 11
64.7189
 21
30.5266
  0
LINE
  8
0
 10
64.7189
 20
30.5266
 11
64.5365
 21
30.5734
  0
LINE
  8
0
 10
64.5365
 20
30.5734
 11
64.3613
 21
30.6427
  0
LINE
  8
0
 10
64.3613
 20
30.6427
 11
64.1963
 21
30.7335
  0
LINE
  8
0
 10
64.1963
 20
30.7335
 11
64.0439
 21
30.8442
  0
LINE
  8
0
 10
64.0439
 20
30.8442
 11
63.9065
 21
30.9732
  0
LINE
  8
0
 10
63.9065
 20
30.9732
 11
63.7865
 21
31.1183
  0
LINE
  8
0
 10
63.7865
 20
31.1183
 11
63.6855
 21
31.2774
  0
LINE
  8
0
 10
63.6855
 20
31.2774
 11
63.6053
 21
31.4478
  0
LINE
  8
0
 10
63.6053
 20
31.4478
 11
63.5471
 21
31.627
  0
LINE
  8
0
 10
63.5471
 20
31.627
 11
63.5118
 21
31.812
  0
LINE
  8
0
 10
63.5118
 20
31.812
 11
63.5
 21
32
  0
LINE
  8
0
 10
63.5
 20
32
 11
63.5118
 21
32.188
  0
LINE
  8
0
 10
63.5118
 20
32.188
 11
63.5471
 21
32.373
  0
LINE
  8
0
 10
63.5471
 20
32.373
 11
63.6053
 21
32.5522
  0
LINE
  8
0
 10
63.6053
 20
32.5522
 11
63.6855
 21
32.7226
  0
LINE
  8
0
 10
63.6855
 20
32.7226
 11
63.7865
 21
32.8817
  0
LINE
  8
0
 10
63.7865
 20
32.8817
 11
63.9065
 21
33.0268
  0
LINE
  8
0
 10
63.9065
 20
33.0268
 11
64.0439
 21
33.1558
  0
LINE
  8
0
 10
64.0439
 20
33.1558
 11
64.1963
 21
33.2665
  0
LINE
  8
0
 10
64.1963
 20
33.2665
 11
64.3613
 21
33.3572
  0
LINE
  8
0
 10
64.3613
 20
33.3572
 11
64.5365
 21
33.4266
  0
LINE
  8
0
 10
64.5365
 20
33.4266
 11
64.7189
 21
33.4734
  0
LINE
  8
0
 10
64.7189
 20
33.4734
 11
64.9058
 21
33.497
  0
LINE
  8
0
 10
64.9058
 20
33.497
 11
65.0942
 21
33.497
  0
LINE
  8
0
 10
65.0942
 20
33.497
 11
65.2811
 21
33.4734
  0
LINE
  8
0
 10
65.2811
 20
33.4734
 11
65.4635
 21
33.4266
  0
LINE
  8
0
 10
65.4635
 20
33.4266
 11
65.6387
 21
33.3572
  0
LINE
  8
0
 10
65.6387
 20
33.3572
 11
65.8037
 21
33.2665
  0
LINE
  8
0
 10
65.8037
 20
33.2665
 11
65.9561
 21
33.1558
  0
LINE
  8
0
 10
65.9561
 20
33.1558
 11
66.0934
 21
33.0268
  0
LINE
  8
0
 10
66.0934
 20
33.0268
 11
66.2135
 21
32.8817
  0
LINE
  8
0
 10
66.2135
 20
32.8817
 11
66.3145
 21
32.7226
  0
LINE
  8
0
 10
66.3145
 20
32.7226
 11
66.3947
 21
32.5522
  0
LINE
  8
0
 10
66.3947
 20
32.5522
 11
66.4529
 21
32.373
  0
LINE
  8
0
 10
66.4529
 20
32.373
 11
66.4882
 21
32.188
  0
LINE
  8
0
 10
66.4882
 20
32.188
 11
66.5
 21
32
  0
LINE
  8
0
 10
66.5
 20
32
 11
66.4882
 21
31.812
  0
LINE
  8
0
 10
66.4882
 20
31.812
 11
66.4529
 21
31.627
  0
LINE
  8
0
 10
66.4529
 20
31.627
 11
66.3947
 21
31.4478
  0
LINE
  8
0
 10
66.3947
 20
31.4478
 11
66.3145
 21
31.2774
  0
LINE
  8
0
 10
66.3145
 20
31.2774
 11
66.2135
 21
31.1183
  0
LINE
  8
0
 10
66.2135
 20
31.1183
 11
66.0934
 21
30.9732
  0
LINE
  8
0
 10
66.0934
 20
30.9732
 11
65.9561
 21
30.8442
  0
LINE
  8
0
 10
65.9561
 20
30.8442
 11
65.8037
 21
30.7335
  0
LINE
  8
0
 10
65.8037
 20
30.7335
 11
65.6387
 21
30.6427
  0
LINE
  8
0
 10
65.6387
 20
30.6427
 11
65.4635
 21
30.5734
  0
LINE
  8
0
 10
65.4635
 20
30.5734
 11
65.2811
 21
30.5266
  0
LINE
  8
0
 10
65.2811
 20
30.5266
 11
65.0942
 21
30.5029
  0
LINE
  8
0
 10
65.0942
 20
30.5029
 11
64.9058
 21
30.5029
  0
LINE
  8
0
 10
-20.0942
 20
18.5029
 11
-20.2811
 21
18.5266
  0
LINE
  8
0
 10
-20.2811
 20
18.5266
 11
-20.4635
 21
18.5734
  0
LINE
  8
0
 10
-20.4635
 20
18.5734
 11
-20.6387
 21
18.6427
  0
LINE
  8
0
 10
-20.6387
 20
18.6427
 11
-20.8037
 21
18.7335
  0
LINE
  8
0
 10
-20.8037
 20
18.7335
 11
-20.9561
 21
18.8442
  0
LINE
  8
0
 10
-20.9561
 20
18.8442
 11
-21.0934
 21
18.9732
  0
LINE
  8
0
 10
-21.0934
 20
18.9732
 11
-21.2135
 21
19.1183
  0
LINE
  8
0
 10
-21.2135
 20
19.1183
 11
-21.3145
 21
19.2774
  0
LINE
  8
0
 10
-21.3145
 20
19.2774
 11
-21.3947
 21
19.4478
  0
LINE
  8
0
 10
-21.3947
 20
19.4478
 11
-21.4529
 21
19.627
  0
LINE
  8
0
 10
-21.4529
 20
19.627
 11
-21.4882
 21
19.812
  0
LINE
  8
0
 10
-21.4882
 20
19.812
 11
-21.5
 21
20
  0
LINE
  8
0
 10
-21.5
 20
20
 11
-21.4882
 21
20.188
  0
LINE
  8
0
 10
-21.4882
 20
20.188
 11
-21.4529
 21
20.373
  0
LINE
  8
0
 10
-21.4529
 20
20.373
 11
-21.3947
 21
20.5522
  0
LINE
  8
0
 10
-21.3947
 20
20.5522
 11
-21.3145
 21
20.7226
  0
LINE
  8
0
 10
-21.3145
 20
20.7226
 11
-21.2135
 21
20.8817
  0
LINE
  8
0
 10
-21.2135
 20
20.8817
 11
-21.0934
 21
21.0268
  0
LINE
  8
0
 10
-21.0934
 20
21.0268
 11
-20.9561
 21
21.1558
  0
LINE
  8
0
 10
-20.9561
 20
21.1558
 11
-20.8037
 21
21.2665
  0
LINE
  8
0
 10
-20.8037
 20
21.2665
 11
-20.6387
 21
21.3572
  0
LINE
  8
0
 10
-20.6387
 20
21.3572
 11
-20.4635
 21
21.4266
  0
LINE
  8
0
 10
-20.4635
 20
21.4266
 11
-20.2811
 21
21.4734
  0
LINE
  8
0
 10
-20.2811
 20
21.4734
 11
-20.0942
 21
21.497
  0
LINE
  8
0
 10
-20.0942
 20
21.497
 11
-19.9058
 21
21.497
  0
LINE
  8
0
 10
-19.9058
 20
21.497
 11
-19.7189
 21
21.4734
  0
LINE
  8
0
 10
-19.7189
 20
21.4734
 11
-19.5365
 21
21.4266
  0
LINE
  8
0
 10
-19.5365
 20
21.4266
 11
-19.3613
 21
21.3572
  0
LINE
  8
0
 10
-19.3613
 20
21.3572
 11
-19.1963
 21
21.2665
  0
LINE
  8
0
 10
-19.1963
 20
21.2665
 11
-19.0439
 21
21.1558
  0
LINE
  8
0
 10
-19.0439
 20
21.1558
 11
-18.9065
 21
21.0268
  0
LINE
  8
0
 10
-18.9065
 20
21.0268
 11
-18.7865
 21
20.8817
  0
LINE
  8
0
 10
-18.7865
 20
20.8817
 11
-18.6855
 21
20.7226
  0
LINE
  8
0
 10
-18.6855
 20
20.7226
 11
-18.6053
 21
20.5522
  0
LINE
  8
0
 10
-18.6053
 20
20.5522
 11
-18.5471
 21
20.373
  0
LINE
  8
0
 10
-18.5471
 20
20.373
 11
-18.5118
 21
20.188
  0
LINE
  8
0
 10
-18.5118
 20
20.188
 11
-18.5
 21
20
  0
LINE
  8
0
 10
-18.5
 20
20
 11
-18.5118
 21
19.812
  0
LINE
  8
0
 10
-18.5118
 20
19.812
 11
-18.5471
 21
19.627
  0
LINE
  8
0
 10
-18.5471
 20
19.627
 11
-18.6053
 21
19.4478
  0
LINE
  8
0
 10
-18.6053
 20
19.4478
 11
-18.6855
 21
19.2774
  0
LINE
  8
0
 10
-18.6855
 20
19.2774
 11
-18.7865
 21
19.1183
  0
LINE
  8
0
 10
-18.7865
 20
19.1183
 11
-18.9065
 21
18.9732
  0
LINE
  8
0
 10
-18.9065
 20
18.9732
 11
-19.0439
 21
18.8442
  0
LINE
  8
0
 10
-19.0439
 20
18.8442
 11
-19.1963
 21
18.7335
  0
LINE
  8
0
 10
-19.1963
 20
18.7335
 11
-19.3613
 21
18.6427
  0
LINE
  8
0
 10
-19.3613
 20
18.6427
 11
-19.5365
 21
18.5734
  0
LINE
  8
0
 10
-19.5365
 20
18.5734
 11
-19.7189
 21
18.5266
  0
LINE
  8
0
 10
-19.7189
 20
18.5266
 11
-19.9058
 21
18.5029
  0
LINE
  8
0
 10
-19.9058
 20
18.5029
 11
-20.0942
 21
18.5029
  0
LINE
  8
0
 10
19.9058
 20
18.5029
 11
19.7189
 21
18.5266
  0
LINE
  8
0
 10
19.7189
 20
18.5266
 11
19.5365
 21
18.5734
  0
LINE
  8
0
 10
19.5365
 20
18.5734
 11
19.3613
 21
18.6427
  0
LINE
  8
0
 10
19.3613
 20
18.6427
 11
19.1963
 21
18.7335
  0
LINE
  8
0
 10
19.1963
 20
18.7335
 11
19.0439
 21
18.8442
  0
LINE
  8
0
 10
19.0439
 20
18.8442
 11
18.9065
 21
18.9732
  0
LINE
  8
0
 10
18.9065
 20
18.9732
 11
18.7865
 21
19.1183
  0
LINE
  8
0
 10
18.7865
 20
19.1183
 11
18.6855
 21
19.2774
  0
LINE
  8
0
 10
18.6855
 20
19.2774
 11
18.6053
 21
19.4478
  0
LINE
  8
0
 10
18.6053
 20
19.4478
 11
18.5471
 21
19.627
  0
LINE
  8
0
 10
18.5471
 20
19.627
 11
18.5118
 21
19.812
  0
LINE
  8
0
 10
18.5118
 20
19.812
 11
18.5
 21
20
  0
LINE
  8
0
 10
18.5
 20
20
 11
18.5118
 21
20.188
  0
LINE
  8
0
 10
18.5118
 20
20.188
 11
18.5471
 21
20.373
  0
LINE
  8
0
 10
18.5471
 20
20.373
 11
18.6053
 21
20.5522
  0
LINE
  8
0
 10
18.6053
 20
20.5522
 11
18.6855
 21
20.7226
  0
LINE
  8
0
 10
18.6855
 20
20.7226
 11
18.7865
 21
20.8817
  0
LINE
  8
0
 10
18.7865
 20
20.8817
 11
18.9065
 21
21.0268
  0
LINE
  8
0
 10
18.9065
 20
21.0268
 11
19.0439
 21
21.1558
  0
LINE
  8
0
 10
19.0439
 20
21.1558
 11
19.1963
 21
21.2665
  0
LINE
  8
0
 10
19.1963
 20
21.2665
 11
19.3613
 21
21.3572
  0
LINE
  8
0
 10
19.3613
 20
21.3572
 11
19.5365
 21
21.4266
  0
LINE
  8
0
 10
19.5365
 20
21.4266
 11
19.7189
 21
21.4734
  0
LINE
  8
0
 10
19.7189
 20
21.4734
 11
19.9058
 21
21.497
  0
LINE
  8
0
 10
19.9058
 20
21.497
 11
20.0942
 21
21.497
  0
LINE
  8
0
 10
20.0942
 20
21.497
 11
20.2811
 21
21.4734
  0
LINE
  8
0
 10
20.2811
 20
21.4734
 11
20.4635
 21
21.4266
  0
LINE
  8
0
 10
20.4635
 20
21.4266
 11
20.6387
 21
21.3572
  0
LINE
  8
0
 10
20.6387
 20
21.3572
 11
20.8037
 21
21.2665
  0
LINE
  8
0
 10
20.8037
 20
21.2665
 11
20.9561
 21
21.1558
  0
LINE
  8
0
 10
20.9561
 20
21.1558
 11
21.0934
 21
21.0268
  0
LINE
  8
0
 10
21.0934
 20
21.0268
 11
21.2135
 21
20.8817
  0
LINE
  8
0
 10
21.2135
 20
20.8817
 11
21.3145
 21
20.7226
  0
LINE
  8
0
 10
21.3145
 20
20.7226
 11
21.3947
 21
20.5522
  0
LINE
  8
0
 10
21.3947
 20
20.5522
 11
21.4529
 21
20.373
  0
LINE
  8
0
 10
21.4529
 20
20.373
 11
21.4882
 21
20.188
  0
LINE
  8
0
 10
21.4882
 20
20.188
 11
21.5
 21
20
  0
LINE
  8
0
 10
21.5
 20
20
 11
21.4882
 21
19.812
  0
LINE
  8
0
 10
21.4882
 20
19.812
 11
21.4529
 21
19.627
  0
LINE
  8
0
 10
21.4529
 20
19.627
 11
21.3947
 21
19.4478
  0
LINE
  8
0
 10
21.3947
 20
19.4478
 11
21.3145
 21
19.2774
  0
LINE
  8
0
 10
21.3145
 20
19.2774
 11
21.2135
 21
19.1183
  0
LINE
  8
0
 10
21.2135
 20
19.1183
 11
21.0934
 21
18.9732
  0
LINE
  8
0
 10
21.0934
 20
18.9732
 11
20.9561
 21
18.8442
  0
LINE
  8
0
 10
20.9561
 20
18.8442
 11
20.8037
 21
18.7335
  0
LINE
  8
0
 10
20.8037
 20
18.7335
 11
20.6387
 21
18.6427
  0
LINE
  8
0
 10
20.6387
 20
18.6427
 11
20.4635
 21
18.5734
  0
LINE
  8
0
 10
20.4635
 20
18.5734
 11
20.2811
 21
18.5266
  0
LINE
  8
0
 10
20.2811
 20
18.5266
 11
20.0942
 21
18.5029
  0
LINE
  8
0
 10
20.0942
 20
18.5029
 11
19.9058
 21
18.5029
  0
LINE
  8
0
 10
-20.0942
 20
-21.497
 11
-20.2811
 21
-21.4734
  0
LINE
  8
0
 10
-20.2811
 20
-21.4734
 11
-20.4635
 21
-21.4266
  0
LINE
  8
0
 10
-20.4635
 20
-21.4266
 11
-20.6387
 21
-21.3572
  0
LINE
  8
0
 10
-20.6387
 20
-21.3572
 11
-20.8037
 21
-21.2665
  0
LINE
  8
0
 10
-20.8037
 20
-21.2665
 11
-20.9561
 21
-21.1558
  0
LINE
  8
0
 10
-20.9561
 20
-21.1558
 11
-21.0934
 21
-21.0268
  0
LINE
  8
0
 10
-21.0934
 20
-21.0268
 11
-21.2135
 21
-20.8817
  0
LINE
  8
0
 10
-21.2135
 20
-20.8817
 11
-21.3145
 21
-20.7226
  0
LINE
  8
0
 10
-21.3145
 20
-20.7226
 11
-21.3947
 21
-20.5522
  0
LINE
  8
0
 10
-21.3947
 20
-20.5522
 11
-21.4529
 21
-20.373
  0
LINE
  8
0
 10
-21.4529
 20
-20.373
 11
-21.4882
 21
-20.188
  0
LINE
  8
0
 10
-21.4882
 20
-20.188
 11
-21.5
 21
-20
  0
LINE
  8
0
 10
-21.5
 20
-20
 11
-21.4882
 21
-19.812
  0
LINE
  8
0
 10
-21.4882
 20
-19.812
 11
-21.4529
 21
-19.627
  0
LINE
  8
0
 10
-21.4529
 20
-19.627
 11
-21.3947
 21
-19.4478
  0
LINE
  8
0
 10
-21.3947
 20
-19.4478
 11
-21.3145
 21
-19.2774
  0
LINE
  8
0
 10
-21.3145
 20
-19.2774
 11
-21.2135
 21
-19.1183
  0
LINE
  8
0
 10
-21.2135
 20
-19.1183
 11
-21.0934
 21
-18.9732
  0
LINE
  8
0
 10
-21.0934
 20
-18.9732
 11
-20.9561
 21
-18.8442
  0
LINE
  8
0
 10
-20.9561
 20
-18.8442
 11
-20.8037
 21
-18.7335
  0
LINE
  8
0
 10
-20.8037
 20
-18.7335
 11
-20.6387
 21
-18.6427
  0
LINE
  8
0
 10
-20.6387
 20
-18.6427
 11
-20.4635
 21
-18.5734
  0
LINE
  8
0
 10
-20.4635
 20
-18.5734
 11
-20.2811
 21
-18.5266
  0
LINE
  8
0
 10
-20.2811
 20
-18.5266
 11
-20.0942
 21
-18.5029
  0
LINE
  8
0
 10
-20.0942
 20
-18.5029
 11
-19.9058
 21
-18.5029
  0
LINE
  8
0
 10
-19.9058
 20
-18.5029
 11
-19.7189
 21
-18.5266
  0
LINE
  8
0
 10
-19.7189
 20
-18.5266
 11
-19.5365
 21
-18.5734
  0
LINE
  8
0
 10
-19.5365
 20
-18.5734
 11
-19.3613
 21
-18.6427
  0
LINE
  8
0
 10
-19.3613
 20
-18.6427
 11
-19.1963
 21
-18.7335
  0
LINE
  8
0
 10
-19.1963
 20
-18.7335
 11
-19.0439
 21
-18.8442
  0
LINE
  8
0
 10
-19.0439
 20
-18.8442
 11
-18.9065
 21
-18.9732
  0
LINE
  8
0
 10
-18.9065
 20
-18.9732
 11
-18.7865
 21
-19.1183
  0
LINE
  8
0
 10
-18.7865
 20
-19.1183
 11
-18.6855
 21
-19.2774
  0
LINE
  8
0
 10
-18.6855
 20
-19.2774
 11
-18.6053
 21
-19.4478
  0
LINE
  8
0
 10
-18.6053
 20
-19.4478
 11
-18.5471
 21
-19.627
  0
LINE
  8
0
 10
-18.5471
 20
-19.627
 11
-18.5118
 21
-19.812
  0
LINE
  8
0
 10
-18.5118
 20
-19.812
 11
-18.5
 21
-20
  0
LINE
  8
0
 10
-18.5
 20
-20
 11
-18.5118
 21
-20.188
  0
LINE
  8
0
 10
-18.5118
 20
-20.188
 11
-18.5471
 21
-20.373
  0
LINE
  8
0
 10
-18.5471
 20
-20.373
 11
-18.6053
 21
-20.5522
  0
LINE
  8
0
 10
-18.6053
 20
-20.5522
 11
-18.6855
 21
-20.7226
  0
LINE
  8
0
 10
-18.6855
 20
-20.7226
 11
-18.7865
 21
-20.8817
  0
LINE
  8
0
 10
-18.7865
 20
-20.8817
 11
-18.9065
 21
-21.0268
  0
LINE
  8
0
 10
-18.9065
 20
-21.0268
 11
-19.0439
 21
-21.1558
  0
LINE
  8
0
 10
-19.0439
 20
-21.1558
 11
-19.1963
 21
-21.2665
  0
LINE
  8
0
 10
-19.1963
 20
-21.2665
 11
-19.3613
 21
-21.3572
  0
LINE
  8
0
 10
-19.3613
 20
-21.3572
 11
-19.5365
 21
-21.4266
  0
LINE
  8
0
 10
-19.5365
 20
-21.4266
 11
-19.7189
 21
-21.4734
  0
LINE
  8
0
 10
-19.7189
 20
-21.4734
 11
-19.9058
 21
-21.497
  0
LINE
  8
0
 10
-19.9058
 20
-21.497
 11
-20.0942
 21
-21.497
  0
LINE
  8
0
 10
19.9058
 20
-21.497
 11
19.7189
 21
-21.4734
  0
LINE
  8
0
 10
19.7189
 20
-21.4734
 11
19.5365
 21
-21.4266
  0
LINE
  8
0
 10
19.5365
 20
-21.4266
 11
19.3613
 21
-21.3572
  0
LINE
  8
0
 10
19.3613
 20
-21.3572
 11
19.1963
 21
-21.2665
  0
LINE
  8
0
 10
19.1963
 20
-21.2665
 11
19.0439
 21
-21.1558
  0
LINE
  8
0
 10
19.0439
 20
-21.1558
 11
18.9065
 21
-21.0268
  0
LINE
  8
0
 10
18.9065
 20
-21.0268
 11
18.7865
 21
-20.8817
  0
LINE
  8
0
 10
18.7865
 20
-20.8817
 11
18.6855
 21
-20.7226
  0
LINE
  8
0
 10
18.6855
 20
-20.7226
 11
18.6053
 21
-20.5522
  0
LINE
  8
0
 10
18.6053
 20
-20.5522
 11
18.5471
 21
-20.373
  0
LINE
  8
0
 10
18.5471
 20
-20.373
 11
18.5118
 21
-20.188
  0
LINE
  8
0
 10
18.5118
 20
-20.188
 11
18.5
 21
-20
  0
LINE
  8
0
 10
18.5
 20
-20
 11
18.5118
 21
-19.812
  0
LINE
  8
0
 10
18.5118
 20
-19.812
 11
18.5471
 21
-19.627
  0
LINE
  8
0
 10
18.5471
 20
-19.627
 11
18.6053
 21
-19.4478
  0
LINE
  8
0
 10
18.6053
 20
-19.4478
 11
18.6855
 21
-19.2774
  0
LINE
  8
0
 10
18.6855
 20
-19.2774
 11
18.7865
 21
-19.1183
  0
LINE
  8
0
 10
18.7865
 20
-19.1183
 11
18.9065
 21
-18.9732
  0
LINE
  8
0
 10
18.9065
 20
-18.9732
 11
19.0439
 21
-18.8442
  0
LINE
  8
0
 10
19.0439
 20
-18.8442
 11
19.1963
 21
-18.7335
  0
LINE
  8
0
 10
19.1963
 20
-18.7335
 11
19.3613
 21
-18.6427
  0
LINE
  8
0
 10
19.3613
 20
-18.6427
 11
19.5365
 21
-18.5734
  0
LINE
  8
0
 10
19.5365
 20
-18.5734
 11
19.7189
 21
-18.5266
  0
LINE
  8
0
 10
19.7189
 20
-18.5266
 11
19.9058
 21
-18.5029
  0
LINE
  8
0
 10
19.9058
 20
-18.5029
 11
20.0942
 21
-18.5029
  0
LINE
  8
0
 10
20.0942
 20
-18.5029
 11
20.2811
 21
-18.5266
  0
LINE
  8
0
 10
20.2811
 20
-18.5266
 11
20.4635
 21
-18.5734
  0
LINE
  8
0
 10
20.4635
 20
-18.5734
 11
20.6387
 21
-18.6427
  0
LINE
  8
0
 10
20.6387
 20
-18.6427
 11
20.8037
 21
-18.7335
  0
LINE
  8
0
 10
20.8037
 20
-18.7335
 11
20.9561
 21
-18.8442
  0
LINE
  8
0
 10
20.9561
 20
-18.8442
 11
21.0934
 21
-18.9732
  0
LINE
  8
0
 10
21.0934
 20
-18.9732
 11
21.2135
 21
-19.1183
  0
LINE
  8
0
 10
21.2135
 20
-19.1183
 11
21.3145
 21
-19.2774
  0
LINE
  8
0
 10
21.3145
 20
-19.2774
 11
21.3947
 21
-19.4478
  0
LINE
  8
0
 10
21.3947
 20
-19.4478
 11
21.4529
 21
-19.627
  0
LINE
  8
0
 10
21.4529
 20
-19.627
 11
21.4882
 21
-19.812
  0
LINE
  8
0
 10
21.4882
 20
-19.812
 11
21.5
 21
-20
  0
LINE
  8
0
 10
21.5
 20
-20
 11
21.4882
 21
-20.188
  0
LINE
  8
0
 10
21.4882
 20
-20.188
 11
21.4529
 21
-20.373
  0
LINE
  8
0
 10
21.4529
 20
-20.373
 11
21.3947
 21
-20.5522
  0
LINE
  8
0
 10
21.3947
 20
-20.5522
 11
21.3145
 21
-20.7226
  0
LINE
  8
0
 10
21.3145
 20
-20.7226
 11
21.2135
 21
-20.8817
  0
LINE
  8
0
 10
21.2135
 20
-20.8817
 11
21.0934
 21
-21.0268
  0
LINE
  8
0
 10
21.0934
 20
-21.0268
 11
20.9561
 21
-21.1558
  0
LINE
  8
0
 10
20.9561
 20
-21.1558
 11
20.8037
 21
-21.2665
  0
LINE
  8
0
 10
20.8037
 20
-21.2665
 11
20.6387
 21
-21.3572
  0
LINE
  8
0
 10
20.6387
 20
-21.3572
 11
20.4635
 21
-21.4266
  0
LINE
  8
0
 10
20.4635
 20
-21.4266
 11
20.2811
 21
-21.4734
  0
LINE
  8
0
 10
20.2811
 20
-21.4734
 11
20.0942
 21
-21.497
  0
LINE
  8
0
 10
20.0942
 20
-21.497
 11
19.9058
 21
-21.497
  0
LINE
  8
0
 10
-65.0942
 20
-33.497
 11
-65.2811
 21
-33.4734
  0
LINE
  8
0
 10
-65.2811
 20
-33.4734
 11
-65.4635
 21
-33.4266
  0
LINE
  8
0
 10
-65.4635
 20
-33.4266
 11
-65.6387
 21
-33.3572
  0
LINE
  8
0
 10
-65.6387
 20
-33.3572
 11
-65.8037
 21
-33.2665
  0
LINE
  8
0
 10
-65.8037
 20
-33.2665
 11
-65.9561
 21
-33.1558
  0
LINE
  8
0
 10
-65.9561
 20
-33.1558
 11
-66.0934
 21
-33.0268
  0
LINE
  8
0
 10
-66.0934
 20
-33.0268
 11
-66.2135
 21
-32.8817
  0
LINE
  8
0
 10
-66.2135
 20
-32.8817
 11
-66.3145
 21
-32.7226
  0
LINE
  8
0
 10
-66.3145
 20
-32.7226
 11
-66.3947
 21
-32.5522
  0
LINE
  8
0
 10
-66.3947
 20
-32.5522
 11
-66.4529
 21
-32.373
  0
LINE
  8
0
 10
-66.4529
 20
-32.373
 11
-66.4882
 21
-32.188
  0
LINE
  8
0
 10
-66.4882
 20
-32.188
 11
-66.5
 21
-32
  0
LINE
  8
0
 10
-66.5
 20
-32
 11
-66.4882
 21
-31.812
  0
LINE
  8
0
 10
-66.4882
 20
-31.812
 11
-66.4529
 21
-31.627
  0
LINE
  8
0
 10
-66.4529
 20
-31.627
 11
-66.3947
 21
-31.4478
  0
LINE
  8
0
 10
-66.3947
 20
-31.4478
 11
-66.3145
 21
-31.2774
  0
LINE
  8
0
 10
-66.3145
 20
-31.2774
 11
-66.2135
 21
-31.1183
  0
LINE
  8
0
 10
-66.2135
 20
-31.1183
 11
-66.0934
 21
-30.9732
  0
LINE
  8
0
 10
-66.0934
 20
-30.9732
 11
-65.9561
 21
-30.8442
  0
LINE
  8
0
 10
-65.9561
 20
-30.8442
 11
-65.8037
 21
-30.7335
  0
LINE
  8
0
 10
-65.8037
 20
-30.7335
 11
-65.6387
 21
-30.6427
  0
LINE
  8
0
 10
-65.6387
 20
-30.6427
 11
-65.4635
 21
-30.5734
  0
LINE
  8
0
 10
-65.4635
 20
-30.5734
 11
-65.2811
 21
-30.5266
  0
LINE
  8
0
 10
-65.2811
 20
-30.5266
 11
-65.0942
 21
-30.5029
  0
LINE
  8
0
 10
-65.0942
 20
-30.5029
 11
-64.9058
 21
-30.5029
  0
LINE
  8
0
 10
-64.9058
 20
-30.5029
 11
-64.7189
 21
-30.5266
  0
LINE
  8
0
 10
-64.7189
 20
-30.5266
 11
-64.5365
 21
-30.5734
  0
LINE
  8
0
 10
-64.5365
 20
-30.5734
 11
-64.3613
 21
-30.6427
  0
LINE
  8
0
 10
-64.3613
 20
-30.6427
 11
-64.1963
 21
-30.7335
  0
LINE
  8
0
 10
-64.1963
 20
-30.7335
 11
-64.0439
 21
-30.8442
  0
LINE
  8
0
 10
-64.0439
 20
-30.8442
 11
-63.9065
 21
-30.9732
  0
LINE
  8
0
 10
-63.9065
 20
-30.9732
 11
-63.7865
 21
-31.1183
  0
LINE
  8
0
 10
-63.7865
 20
-31.1183
 11
-63.6855
 21
-31.2774
  0
LINE
  8
0
 10
-63.6855
 20
-31.2774
 11
-63.6053
 21
-31.4478
  0
LINE
  8
0
 10
-63.6053
 20
-31.4478
 11
-63.5471
 21
-31.627
  0
LINE
  8
0
 10
-63.5471
 20
-31.627
 11
-63.5118
 21
-31.812
  0
LINE
  8
0
 10
-63.5118
 20
-31.812
 11
-63.5
 21
-32
  0
LINE
  8
0
 10
-63.5
 20
-32
 11
-63.5118
 21
-32.188
  0
LINE
  8
0
 10
-63.5118
 20
-32.188
 11
-63.5471
 21
-32.373
  0
LINE
  8
0
 10
-63.5471
 20
-32.373
 11
-63.6053
 21
-32.5522
  0
LINE
  8
0
 10
-63.6053
 20
-32.5522
 11
-63.6855
 21
-32.7226
  0
LINE
  8
0
 10
-63.6855
 20
-32.7226
 11
-63.7865
 21
-32.8817
  0
LINE
  8
0
 10
-63.7865
 20
-32.8817
 11
-63.9065
 21
-33.0268
  0
LINE
  8
0
 10
-63.9065
 20
-33.0268
 11
-64.0439
 21
-33.1558
  0
LINE
  8
0
 10
-64.0439
 20
-33.1558
 11
-64.1963
 21
-33.2665
  0
LINE
  8
0
 10
-64.1963
 20
-33.2665
 11
-64.3613
 21
-33.3572
  0
LINE
  8
0
 10
-64.3613
 20
-33.3572
 11
-64.5365
 21
-33.4266
  0
LINE
  8
0
 10
-64.5365
 20
-33.4266
 11
-64.7189
 21
-33.4734
  0
LINE
  8
0
 10
-64.7189
 20
-33.4734
 11
-64.9058
 21
-33.497
  0
LINE
  8
0
 10
-64.9058
 20
-33.497
 11
-65.0942
 21
-33.497
  0
LINE
  8
0
 10
64.9058
 20
-33.497
 11
64.7189
 21
-33.4734
  0
LINE
  8
0
 10
64.7189
 20
-33.4734
 11
64.5365
 21
-33.4266
  0
LINE
  8
0
 10
64.5365
 20
-33.4266
 11
64.3613
 21
-33.3572
  0
LINE
  8
0
 10
64.3613
 20
-33.3572
 11
64.1963
 21
-33.2665
  0
LINE
  8
0
 10
64.1963
 20
-33.2665
 11
64.0439
 21
-33.1558
  0
LINE
  8
0
 10
64.0439
 20
-33.1558
 11
63.9065
 21
-33.0268
  0
LINE
  8
0
 10
63.9065
 20
-33.0268
 11
63.7865
 21
-32.8817
  0
LINE
  8
0
 10
63.7865
 20
-32.8817
 11
63.6855
 21
-32.7226
  0
LINE
  8
0
 10
63.6855
 20
-32.7226
 11
63.6053
 21
-32.5522
  0
LINE
  8
0
 10
63.6053
 20
-32.5522
 11
63.5471
 21
-32.373
  0
LINE
  8
0
 10
63.5471
 20
-32.373
 11
63.5118
 21
-32.188
  0
LINE
  8
0
 10
63.5118
 20
-32.188
 11
63.5
 21
-32
  0
LINE
  8
0
 10
63.5
 20
-32
 11
63.5118
 21
-31.812
  0
LINE
  8
0
 10
63.5118
 20
-31.812
 11
63.5471
 21
-31.627
  0
LINE
  8
0
 10
63.5471
 20
-31.627
 11
63.6053
 21
-31.4478
  0
LINE
  8
0
 10
63.6053
 20
-31.4478
 11
63.6855
 21
-31.2774
  0
LINE
  8
0
 10
63.6855
 20
-31.2774
 11
63.7865
 21
-31.1183
  0
LINE
  8
0
 10
63.7865
 20
-31.1183
 11
63.9065
 21
-30.9732
  0
LINE
  8
0
 10
63.9065
 20
-30.9732
 11
64.0439
 21
-30.8442
  0
LINE
  8
0
 10
64.0439
 20
-30.8442
 11
64.1963
 21
-30.7335
  0
LINE
  8
0
 10
64.1963
 20
-30.7335
 11
64.3613
 21
-30.6427
  0
LINE
  8
0
 10
64.3613
 20
-30.6427
 11
64.5365
 21
-30.5734
  0
LINE
  8
0
 10
64.5365
 20
-30.5734
 11
64.7189
 21
-30.5266
  0
LINE
  8
0
 10
64.7189
 20
-30.5266
 11
64.9058
 21
-30.5029
  0
LINE
  8
0
 10
64.9058
 20
-30.5029
 11
65.0942
 21
-30.5029
  0
LINE
  8
0
 10
65.0942
 20
-30.5029
 11
65.2811
 21
-30.5266
  0
LINE
  8
0
 10
65.2811
 20
-30.5266
 11
65.4635
 21
-30.5734
  0
LINE
  8
0
 10
65.4635
 20
-30.5734
 11
65.6387
 21
-30.6427
  0
LINE
  8
0
 10
65.6387
 20
-30.6427
 11
65.8037
 21
-30.7335
  0
LINE
  8
0
 10
65.8037
 20
-30.7335
 11
65.9561
 21
-30.8442
  0
LINE
  8
0
 10
65.9561
 20
-30.8442
 11
66.0934
 21
-30.9732
  0
LINE
  8
0
 10
66.0934
 20
-30.9732
 11
66.2135
 21
-31.1183
  0
LINE
  8
0
 10
66.2135
 20
-31.1183
 11
66.3145
 21
-31.2774
  0
LINE
  8
0
 10
66.3145
 20
-31.2774
 11
66.3947
 21
-31.4478
  0
LINE
  8
0
 10
66.3947
 20
-31.4478
 11
66.4529
 21
-31.627
  0
LINE
  8
0
 10
66.4529
 20
-31.627
 11
66.4882
 21
-31.812
  0
LINE
  8
0
 10
66.4882
 20
-31.812
 11
66.5
 21
-32
  0
LINE
  8
0
 10
66.5
 20
-32
 11
66.4882
 21
-32.188
  0
LINE
  8
0
 10
66.4882
 20
-32.188
 11
66.4529
 21
-32.373
  0
LINE
  8
0
 10
66.4529
 20
-32.373
 11
66.3947
 21
-32.5522
  0
LINE
  8
0
 10
66.3947
 20
-32.5522
 11
66.3145
 21
-32.7226
  0
LINE
  8
0
 10
66.3145
 20
-32.7226
 11
66.2135
 21
-32.8817
  0
LINE
  8
0
 10
66.2135
 20
-32.8817
 11
66.0934
 21
-33.0268
  0
LINE
  8
0
 10
66.0934
 20
-33.0268
 11
65.9561
 21
-33.1558
  0
LINE
  8
0
 10
65.9561
 20
-33.1558
 11
65.8037
 21
-33.2665
  0
LINE
  8
0
 10
65.8037
 20
-33.2665
 11
65.6387
 21
-33.3572
  0
LINE
  8
0
 10
65.6387
 20
-33.3572
 11
65.4635
 21
-33.4266
  0
LINE
  8
0
 10
65.4635
 20
-33.4266
 11
65.2811
 21
-33.4734
  0
LINE
  8
0
 10
65.2811
 20
-33.4734
 11
65.0942
 21
-33.497
  0
LINE
  8
0
 10
65.0942
 20
-33.497
 11
64.9058
 21
-33.497
  0
ENDSEC
  0
SECTION
  2
OBJECTS
  0
DICTIONARY
  0
ENDSEC
  0
EOF
