  0
SECTION
  2
BLOCKS
  0
ENDSEC
  0
SECTION
  2
ENTITIES
  0
LINE
  8
0
 10
62.5
 20
50
 11
-62.5
 21
50
  0
LINE
  8
0
 10
-62.5
 20
50
 11
-62.5
 21
-50
  0
LINE
  8
0
 10
-62.5
 20
-50
 11
62.5
 21
-50
  0
LINE
  8
0
 10
62.5
 20
-50
 11
62.5
 21
50
  0
LINE
  8
0
 10
-57.113
 20
42.2035
 11
-57.3373
 21
42.2319
  0
LINE
  8
0
 10
-57.3373
 20
42.2319
 11
-57.5562
 21
42.2881
  0
LINE
  8
0
 10
-57.5562
 20
42.2881
 11
-57.7664
 21
42.3713
  0
LINE
  8
0
 10
-57.7664
 20
42.3713
 11
-57.9645
 21
42.4802
  0
LINE
  8
0
 10
-57.9645
 20
42.4802
 11
-58.1474
 21
42.6131
  0
LINE
  8
0
 10
-58.1474
 20
42.6131
 11
-58.3121
 21
42.7678
  0
LINE
  8
0
 10
-58.3121
 20
42.7678
 11
-58.4562
 21
42.942
  0
LINE
  8
0
 10
-58.4562
 20
42.942
 11
-58.5773
 21
43.1328
  0
LINE
  8
0
 10
-58.5773
 20
43.1328
 11
-58.6736
 21
43.3374
  0
LINE
  8
0
 10
-58.6736
 20
43.3374
 11
-58.7434
 21
43.5524
  0
LINE
  8
0
 10
-58.7434
 20
43.5524
 11
-58.7858
 21
43.7744
  0
LINE
  8
0
 10
-58.7858
 20
43.7744
 11
-58.8
 21
44
  0
LINE
  8
0
 10
-58.8
 20
44
 11
-58.7858
 21
44.2256
  0
LINE
  8
0
 10
-58.7858
 20
44.2256
 11
-58.7434
 21
44.4476
  0
LINE
  8
0
 10
-58.7434
 20
44.4476
 11
-58.6736
 21
44.6626
  0
LINE
  8
0
 10
-58.6736
 20
44.6626
 11
-58.5773
 21
44.8671
  0
LINE
  8
0
 10
-58.5773
 20
44.8671
 11
-58.4562
 21
45.058
  0
LINE
  8
0
 10
-58.4562
 20
45.058
 11
-58.3121
 21
45.2322
  0
LINE
  8
0
 10
-58.3121
 20
45.2322
 11
-58.1474
 21
45.3869
  0
LINE
  8
0
 10
-58.1474
 20
45.3869
 11
-57.9645
 21
45.5198
  0
LINE
  8
0
 10
-57.9645
 20
45.5198
 11
-57.7664
 21
45.6287
  0
LINE
  8
0
 10
-57.7664
 20
45.6287
 11
-57.5562
 21
45.7119
  0
LINE
  8
0
 10
-57.5562
 20
45.7119
 11
-57.3373
 21
45.7681
  0
LINE
  8
0
 10
-57.3373
 20
45.7681
 11
-57.113
 21
45.7964
  0
LINE
  8
0
 10
-57.113
 20
45.7964
 11
-56.887
 21
45.7964
  0
LINE
  8
0
 10
-56.887
 20
45.7964
 11
-56.6627
 21
45.7681
  0
LINE
  8
0
 10
-56.6627
 20
45.7681
 11
-56.4438
 21
45.7119
  0
LINE
  8
0
 10
-56.4438
 20
45.7119
 11
-56.2336
 21
45.6287
  0
LINE
  8
0
 10
-56.2336
 20
45.6287
 11
-56.0355
 21
45.5198
  0
LINE
  8
0
 10
-56.0355
 20
45.5198
 11
-55.8526
 21
45.3869
  0
LINE
  8
0
 10
-55.8526
 20
45.3869
 11
-55.6879
 21
45.2322
  0
LINE
  8
0
 10
-55.6879
 20
45.2322
 11
-55.5438
 21
45.058
  0
LINE
  8
0
 10
-55.5438
 20
45.058
 11
-55.4226
 21
44.8671
  0
LINE
  8
0
 10
-55.4226
 20
44.8671
 11
-55.3264
 21
44.6626
  0
LINE
  8
0
 10
-55.3264
 20
44.6626
 11
-55.2565
 21
44.4476
  0
LINE
  8
0
 10
-55.2565
 20
44.4476
 11
-55.2142
 21
44.2256
  0
LINE
  8
0
 10
-55.2142
 20
44.2256
 11
-55.2
 21
44
  0
LINE
  8
0
 10
-55.2
 20
44
 11
-55.2142
 21
43.7744
  0
LINE
  8
0
 10
-55.2142
 20
43.7744
 11
-55.2565
 21
43.5524
  0
LINE
  8
0
 10
-55.2565
 20
43.5524
 11
-55.3264
 21
43.3374
  0
LINE
  8
0
 10
-55.3264
 20
43.3374
 11
-55.4226
 21
43.1328
  0
LINE
  8
0
 10
-55.4226
 20
43.1328
 11
-55.5438
 21
42.942
  0
LINE
  8
0
 10
-55.5438
 20
42.942
 11
-55.6879
 21
42.7678
  0
LINE
  8
0
 10
-55.6879
 20
42.7678
 11
-55.8526
 21
42.6131
  0
LINE
  8
0
 10
-55.8526
 20
42.6131
 11
-56.0355
 21
42.4802
  0
LINE
  8
0
 10
-56.0355
 20
42.4802
 11
-56.2336
 21
42.3713
  0
LINE
  8
0
 10
-56.2336
 20
42.3713
 11
-56.4438
 21
42.2881
  0
LINE
  8
0
 10
-56.4438
 20
42.2881
 11
-56.6627
 21
42.2319
  0
LINE
  8
0
 10
-56.6627
 20
42.2319
 11
-56.887
 21
42.2035
  0
LINE
  8
0
 10
-56.887
 20
42.2035
 11
-57.113
 21
42.2035
  0
LINE
  8
0
 10
56.887
 20
42.2035
 11
56.6627
 21
42.2319
  0
LINE
  8
0
 10
56.6627
 20
42.2319
 11
56.4438
 21
42.2881
  0
LINE
  8
0
 10
56.4438
 20
42.2881
 11
56.2336
 21
42.3713
  0
LINE
  8
0
 10
56.2336
 20
42.3713
 11
56.0355
 21
42.4802
  0
LINE
  8
0
 10
56.0355
 20
42.4802
 11
55.8526
 21
42.6131
  0
LINE
  8
0
 10
55.8526
 20
42.6131
 11
55.6879
 21
42.7678
  0
LINE
  8
0
 10
55.6879
 20
42.7678
 11
55.5438
 21
42.942
  0
LINE
  8
0
 10
55.5438
 20
42.942
 11
55.4226
 21
43.1328
  0
LINE
  8
0
 10
55.4226
 20
43.1328
 11
55.3264
 21
43.3374
  0
LINE
  8
0
 10
55.3264
 20
43.3374
 11
55.2565
 21
43.5524
  0
LINE
  8
0
 10
55.2565
 20
43.5524
 11
55.2142
 21
43.7744
  0
LINE
  8
0
 10
55.2142
 20
43.7744
 11
55.2
 21
44
  0
LINE
  8
0
 10
55.2
 20
44
 11
55.2142
 21
44.2256
  0
LINE
  8
0
 10
55.2142
 20
44.2256
 11
55.2565
 21
44.4476
  0
LINE
  8
0
 10
55.2565
 20
44.4476
 11
55.3264
 21
44.6626
  0
LINE
  8
0
 10
55.3264
 20
44.6626
 11
55.4226
 21
44.8671
  0
LINE
  8
0
 10
55.4226
 20
44.8671
 11
55.5438
 21
45.058
  0
LINE
  8
0
 10
55.5438
 20
45.058
 11
55.6879
 21
45.2322
  0
LINE
  8
0
 10
55.6879
 20
45.2322
 11
55.8526
 21
45.3869
  0
LINE
  8
0
 10
55.8526
 20
45.3869
 11
56.0355
 21
45.5198
  0
LINE
  8
0
 10
56.0355
 20
45.5198
 11
56.2336
 21
45.6287
  0
LINE
  8
0
 10
56.2336
 20
45.6287
 11
56.4438
 21
45.7119
  0
LINE
  8
0
 10
56.4438
 20
45.7119
 11
56.6627
 21
45.7681
  0
LINE
  8
0
 10
56.6627
 20
45.7681
 11
56.887
 21
45.7964
  0
LINE
  8
0
 10
56.887
 20
45.7964
 11
57.113
 21
45.7964
  0
LINE
  8
0
 10
57.113
 20
45.7964
 11
57.3373
 21
45.7681
  0
LINE
  8
0
 10
57.3373
 20
45.7681
 11
57.5562
 21
45.7119
  0
LINE
  8
0
 10
57.5562
 20
45.7119
 11
57.7664
 21
45.6287
  0
LINE
  8
0
 10
57.7664
 20
45.6287
 11
57.9645
 21
45.5198
  0
LINE
  8
0
 10
57.9645
 20
45.5198
 11
58.1474
 21
45.3869
  0
LINE
  8
0
 10
58.1474
 20
45.3869
 11
58.3121
 21
45.2322
  0
LINE
  8
0
 10
58.3121
 20
45.2322
 11
58.4562
 21
45.058
  0
LINE
  8
0
 10
58.4562
 20
45.058
 11
58.5773
 21
44.8671
  0
LINE
  8
0
 10
58.5773
 20
44.8671
 11
58.6736
 21
44.6626
  0
LINE
  8
0
 10
58.6736
 20
44.6626
 11
58.7434
 21
44.4476
  0
LINE
  8
0
 10
58.7434
 20
44.4476
 11
58.7858
 21
44.2256
  0
LINE
  8
0
 10
58.7858
 20
44.2256
 11
58.8
 21
44
  0
LINE
  8
0
 10
58.8
 20
44
 11
58.7858
 21
43.7744
  0
LINE
  8
0
 10
58.7858
 20
43.7744
 11
58.7434
 21
43.5524
  0
LINE
  8
0
 10
58.7434
 20
43.5524
 11
58.6736
 21
43.3374
  0
LINE
  8
0
 10
58.6736
 20
43.3374
 11
58.5773
 21
43.1328
  0
LINE
  8
0
 10
58.5773
 20
43.1328
 11
58.4562
 21
42.942
  0
LINE
  8
0
 10
58.4562
 20
42.942
 11
58.3121
 21
42.7678
  0
LINE
  8
0
 10
58.3121
 20
42.7678
 11
58.1474
 21
42.6131
  0
LINE
  8
0
 10
58.1474
 20
42.6131
 11
57.9645
 21
42.4802
  0
LINE
  8
0
 10
57.9645
 20
42.4802
 11
57.7664
 21
42.3713
  0
LINE
  8
0
 10
57.7664
 20
42.3713
 11
57.5562
 21
42.2881
  0
LINE
  8
0
 10
57.5562
 20
42.2881
 11
57.3373
 21
42.2319
  0
LINE
  8
0
 10
57.3373
 20
42.2319
 11
57.113
 21
42.2035
  0
LINE
  8
0
 10
57.113
 20
42.2035
 11
56.887
 21
42.2035
  0
LINE
  8
0
 10
-0.113022
 20
42.2035
 11
-0.33728
 21
42.2319
  0
LINE
  8
0
 10
-0.33728
 20
42.2319
 11
-0.556229
 21
42.2881
  0
LINE
  8
0
 10
-0.556229
 20
42.2881
 11
-0.766388
 21
42.3713
  0
LINE
  8
0
 10
-0.766388
 20
42.3713
 11
-0.964478
 21
42.4802
  0
LINE
  8
0
 10
-0.964478
 20
42.4802
 11
-1.14735
 21
42.6131
  0
LINE
  8
0
 10
-1.14735
 20
42.6131
 11
-1.31213
 21
42.7678
  0
LINE
  8
0
 10
-1.31213
 20
42.7678
 11
-1.45622
 21
42.942
  0
LINE
  8
0
 10
-1.45622
 20
42.942
 11
-1.57735
 21
43.1328
  0
LINE
  8
0
 10
-1.57735
 20
43.1328
 11
-1.67358
 21
43.3374
  0
LINE
  8
0
 10
-1.67358
 20
43.3374
 11
-1.74344
 21
43.5524
  0
LINE
  8
0
 10
-1.74344
 20
43.5524
 11
-1.7858
 21
43.7744
  0
LINE
  8
0
 10
-1.7858
 20
43.7744
 11
-1.79999
 21
44
  0
LINE
  8
0
 10
-1.79999
 20
44
 11
-1.7858
 21
44.2256
  0
LINE
  8
0
 10
-1.7858
 20
44.2256
 11
-1.74344
 21
44.4476
  0
LINE
  8
0
 10
-1.74344
 20
44.4476
 11
-1.67358
 21
44.6626
  0
LINE
  8
0
 10
-1.67358
 20
44.6626
 11
-1.57735
 21
44.8671
  0
LINE
  8
0
 10
-1.57735
 20
44.8671
 11
-1.45622
 21
45.058
  0
LINE
  8
0
 10
-1.45622
 20
45.058
 11
-1.31213
 21
45.2322
  0
LINE
  8
0
 10
-1.31213
 20
45.2322
 11
-1.14735
 21
45.3869
  0
LINE
  8
0
 10
-1.14735
 20
45.3869
 11
-0.964478
 21
45.5198
  0
LINE
  8
0
 10
-0.964478
 20
45.5198
 11
-0.766388
 21
45.6287
  0
LINE
  8
0
 10
-0.766388
 20
45.6287
 11
-0.556229
 21
45.7119
  0
LINE
  8
0
 10
-0.556229
 20
45.7119
 11
-0.33728
 21
45.7681
  0
LINE
  8
0
 10
-0.33728
 20
45.7681
 11
-0.113022
 21
45.7964
  0
LINE
  8
0
 10
-0.113022
 20
45.7964
 11
0.113022
 21
45.7964
  0
LINE
  8
0
 10
0.113022
 20
45.7964
 11
0.33728
 21
45.7681
  0
LINE
  8
0
 10
0.33728
 20
45.7681
 11
0.556229
 21
45.7119
  0
LINE
  8
0
 10
0.556229
 20
45.7119
 11
0.766388
 21
45.6287
  0
LINE
  8
0
 10
0.766388
 20
45.6287
 11
0.964478
 21
45.5198
  0
LINE
  8
0
 10
0.964478
 20
45.5198
 11
1.14735
 21
45.3869
  0
LINE
  8
0
 10
1.14735
 20
45.3869
 11
1.31213
 21
45.2322
  0
LINE
  8
0
 10
1.31213
 20
45.2322
 11
1.45622
 21
45.058
  0
LINE
  8
0
 10
1.45622
 20
45.058
 11
1.57735
 21
44.8671
  0
LINE
  8
0
 10
1.57735
 20
44.8671
 11
1.67358
 21
44.6626
  0
LINE
  8
0
 10
1.67358
 20
44.6626
 11
1.74344
 21
44.4476
  0
LINE
  8
0
 10
1.74344
 20
44.4476
 11
1.7858
 21
44.2256
  0
LINE
  8
0
 10
1.7858
 20
44.2256
 11
1.79999
 21
44
  0
LINE
  8
0
 10
1.79999
 20
44
 11
1.7858
 21
43.7744
  0
LINE
  8
0
 10
1.7858
 20
43.7744
 11
1.74344
 21
43.5524
  0
LINE
  8
0
 10
1.74344
 20
43.5524
 11
1.67358
 21
43.3374
  0
LINE
  8
0
 10
1.67358
 20
43.3374
 11
1.57735
 21
43.1328
  0
LINE
  8
0
 10
1.57735
 20
43.1328
 11
1.45622
 21
42.942
  0
LINE
  8
0
 10
1.45622
 20
42.942
 11
1.31213
 21
42.7678
  0
LINE
  8
0
 10
1.31213
 20
42.7678
 11
1.14735
 21
42.6131
  0
LINE
  8
0
 10
1.14735
 20
42.6131
 11
0.964478
 21
42.4802
  0
LINE
  8
0
 10
0.964478
 20
42.4802
 11
0.766388
 21
42.3713
  0
LINE
  8
0
 10
0.766388
 20
42.3713
 11
0.556229
 21
42.2881
  0
LINE
  8
0
 10
0.556229
 20
42.2881
 11
0.33728
 21
42.2319
  0
LINE
  8
0
 10
0.33728
 20
42.2319
 11
0.113022
 21
42.2035
  0
LINE
  8
0
 10
0.113022
 20
42.2035
 11
-0.113022
 21
42.2035
  0
LINE
  8
0
 10
-35.9014
 20
-35.3014
 11
-36.5271
 21
-35.2522
  0
LINE
  8
0
 10
-36.5271
 20
-35.2522
 11
-37.0174
 21
-35.1426
  0
LINE
  8
0
 10
-37.0174
 20
-35.1426
 11
-37.49
 21
-34.9724
  0
LINE
  8
0
 10
-37.49
 20
-34.9724
 11
-37.9376
 21
-34.7444
  0
LINE
  8
0
 10
-37.9376
 20
-34.7444
 11
-38.353
 21
-34.462
  0
LINE
  8
0
 10
-38.353
 20
-34.462
 11
-38.7298
 21
-34.1298
  0
LINE
  8
0
 10
-38.7298
 20
-34.1298
 11
-43.7298
 21
-29.1298
  0
LINE
  8
0
 10
-43.7298
 20
-29.1298
 11
-44.1375
 21
-28.6525
  0
LINE
  8
0
 10
-44.1375
 20
-28.6525
 11
-44.4066
 21
-28.2284
  0
LINE
  8
0
 10
-44.4066
 20
-28.2284
 11
-44.6205
 21
-27.7739
  0
LINE
  8
0
 10
-44.6205
 20
-27.7739
 11
-44.7757
 21
-27.2962
  0
LINE
  8
0
 10
-44.7757
 20
-27.2962
 11
-44.8699
 21
-26.8027
  0
LINE
  8
0
 10
-44.8699
 20
-26.8027
 11
-44.9014
 21
-26.3014
  0
LINE
  8
0
 10
-44.9014
 20
-26.3014
 11
-44.9014
 21
26.3014
  0
LINE
  8
0
 10
-44.9014
 20
26.3014
 11
-44.8522
 21
26.9271
  0
LINE
  8
0
 10
-44.8522
 20
26.9271
 11
-44.7426
 21
27.4174
  0
LINE
  8
0
 10
-44.7426
 20
27.4174
 11
-44.5724
 21
27.89
  0
LINE
  8
0
 10
-44.5724
 20
27.89
 11
-44.3444
 21
28.3376
  0
LINE
  8
0
 10
-44.3444
 20
28.3376
 11
-44.062
 21
28.753
  0
LINE
  8
0
 10
-44.062
 20
28.753
 11
-43.7298
 21
29.1298
  0
LINE
  8
0
 10
-43.7298
 20
29.1298
 11
-38.7298
 21
34.1298
  0
LINE
  8
0
 10
-38.7298
 20
34.1298
 11
-38.2525
 21
34.5375
  0
LINE
  8
0
 10
-38.2525
 20
34.5375
 11
-37.8284
 21
34.8066
  0
LINE
  8
0
 10
-37.8284
 20
34.8066
 11
-37.3739
 21
35.0205
  0
LINE
  8
0
 10
-37.3739
 20
35.0205
 11
-36.8962
 21
35.1757
  0
LINE
  8
0
 10
-36.8962
 20
35.1757
 11
-36.4027
 21
35.2699
  0
LINE
  8
0
 10
-36.4027
 20
35.2699
 11
-35.9014
 21
35.3014
  0
LINE
  8
0
 10
-35.9014
 20
35.3014
 11
35.9014
 21
35.3014
  0
LINE
  8
0
 10
35.9014
 20
35.3014
 11
36.5271
 21
35.2522
  0
LINE
  8
0
 10
36.5271
 20
35.2522
 11
37.0174
 21
35.1426
  0
LINE
  8
0
 10
37.0174
 20
35.1426
 11
37.49
 21
34.9724
  0
LINE
  8
0
 10
37.49
 20
34.9724
 11
37.9376
 21
34.7444
  0
LINE
  8
0
 10
37.9376
 20
34.7444
 11
38.353
 21
34.462
  0
LINE
  8
0
 10
38.353
 20
34.462
 11
38.7298
 21
34.1298
  0
LINE
  8
0
 10
38.7298
 20
34.1298
 11
43.7298
 21
29.1298
  0
LINE
  8
0
 10
43.7298
 20
29.1298
 11
44.1375
 21
28.6525
  0
LINE
  8
0
 10
44.1375
 20
28.6525
 11
44.4066
 21
28.2284
  0
LINE
  8
0
 10
44.4066
 20
28.2284
 11
44.6205
 21
27.7739
  0
LINE
  8
0
 10
44.6205
 20
27.7739
 11
44.7757
 21
27.2962
  0
LINE
  8
0
 10
44.7757
 20
27.2962
 11
44.8699
 21
26.8027
  0
LINE
  8
0
 10
44.8699
 20
26.8027
 11
44.9014
 21
26.3014
  0
LINE
  8
0
 10
44.9014
 20
26.3014
 11
44.9014
 21
-26.3014
  0
LINE
  8
0
 10
44.9014
 20
-26.3014
 11
44.8522
 21
-26.9271
  0
LINE
  8
0
 10
44.8522
 20
-26.9271
 11
44.7426
 21
-27.4174
  0
LINE
  8
0
 10
44.7426
 20
-27.4174
 11
44.5724
 21
-27.89
  0
LINE
  8
0
 10
44.5724
 20
-27.89
 11
44.3444
 21
-28.3376
  0
LINE
  8
0
 10
44.3444
 20
-28.3376
 11
44.062
 21
-28.753
  0
LINE
  8
0
 10
44.062
 20
-28.753
 11
43.7298
 21
-29.1298
  0
LINE
  8
0
 10
43.7298
 20
-29.1298
 11
38.7298
 21
-34.1298
  0
LINE
  8
0
 10
38.7298
 20
-34.1298
 11
38.2525
 21
-34.5375
  0
LINE
  8
0
 10
38.2525
 20
-34.5375
 11
37.8284
 21
-34.8066
  0
LINE
  8
0
 10
37.8284
 20
-34.8066
 11
37.3739
 21
-35.0205
  0
LINE
  8
0
 10
37.3739
 20
-35.0205
 11
36.8962
 21
-35.1757
  0
LINE
  8
0
 10
36.8962
 20
-35.1757
 11
36.4027
 21
-35.2699
  0
LINE
  8
0
 10
36.4027
 20
-35.2699
 11
35.9014
 21
-35.3014
  0
LINE
  8
0
 10
35.9014
 20
-35.3014
 11
-35.9014
 21
-35.3014
  0
LINE
  8
0
 10
56.1996
 20
21.7059
 11
55.5121
 21
21.953
  0
LINE
  8
0
 10
55.5121
 20
21.953
 11
54.9523
 21
22.4189
  0
LINE
  8
0
 10
54.9523
 20
22.4189
 11
54.5918
 21
23.037
  0
LINE
  8
0
 10
54.5918
 20
23.037
 11
54.4642
 21
23.75
  0
LINE
  8
0
 10
54.4642
 20
23.75
 11
54.5918
 21
24.463
  0
LINE
  8
0
 10
54.5918
 20
24.463
 11
54.9523
 21
25.0811
  0
LINE
  8
0
 10
54.9523
 20
25.0811
 11
55.5121
 21
25.547
  0
LINE
  8
0
 10
55.5121
 20
25.547
 11
56.1996
 21
25.7941
  0
LINE
  8
0
 10
56.1996
 20
25.7941
 11
56.9204
 21
25.7941
  0
LINE
  8
0
 10
56.9204
 20
25.7941
 11
57.6079
 21
25.547
  0
LINE
  8
0
 10
57.6079
 20
25.547
 11
58.1677
 21
25.0811
  0
LINE
  8
0
 10
58.1677
 20
25.0811
 11
58.5282
 21
24.463
  0
LINE
  8
0
 10
58.5282
 20
24.463
 11
58.6557
 21
23.75
  0
LINE
  8
0
 10
58.6557
 20
23.75
 11
58.5282
 21
23.037
  0
LINE
  8
0
 10
58.5282
 20
23.037
 11
58.1677
 21
22.4189
  0
LINE
  8
0
 10
58.1677
 20
22.4189
 11
57.6079
 21
21.953
  0
LINE
  8
0
 10
57.6079
 20
21.953
 11
56.9204
 21
21.7059
  0
LINE
  8
0
 10
56.9204
 20
21.7059
 11
56.1996
 21
21.7059
  0
LINE
  8
0
 10
-56.9204
 20
21.7059
 11
-57.6079
 21
21.953
  0
LINE
  8
0
 10
-57.6079
 20
21.953
 11
-58.1677
 21
22.4189
  0
LINE
  8
0
 10
-58.1677
 20
22.4189
 11
-58.5282
 21
23.037
  0
LINE
  8
0
 10
-58.5282
 20
23.037
 11
-58.6557
 21
23.75
  0
LINE
  8
0
 10
-58.6557
 20
23.75
 11
-58.5282
 21
24.463
  0
LINE
  8
0
 10
-58.5282
 20
24.463
 11
-58.1677
 21
25.0811
  0
LINE
  8
0
 10
-58.1677
 20
25.0811
 11
-57.6079
 21
25.547
  0
LINE
  8
0
 10
-57.6079
 20
25.547
 11
-56.9204
 21
25.7941
  0
LINE
  8
0
 10
-56.9204
 20
25.7941
 11
-56.1996
 21
25.7941
  0
LINE
  8
0
 10
-56.1996
 20
25.7941
 11
-55.5121
 21
25.547
  0
LINE
  8
0
 10
-55.5121
 20
25.547
 11
-54.9523
 21
25.0811
  0
LINE
  8
0
 10
-54.9523
 20
25.0811
 11
-54.5918
 21
24.463
  0
LINE
  8
0
 10
-54.5918
 20
24.463
 11
-54.4642
 21
23.75
  0
LINE
  8
0
 10
-54.4642
 20
23.75
 11
-54.5918
 21
23.037
  0
LINE
  8
0
 10
-54.5918
 20
23.037
 11
-54.9523
 21
22.4189
  0
LINE
  8
0
 10
-54.9523
 20
22.4189
 11
-55.5121
 21
21.953
  0
LINE
  8
0
 10
-55.5121
 20
21.953
 11
-56.1996
 21
21.7059
  0
LINE
  8
0
 10
-56.1996
 20
21.7059
 11
-56.9204
 21
21.7059
  0
LINE
  8
0
 10
-57.113
 20
-1.79645
 11
-57.3373
 21
-1.76811
  0
LINE
  8
0
 10
-57.3373
 20
-1.76811
 11
-57.5562
 21
-1.7119
  0
LINE
  8
0
 10
-57.5562
 20
-1.7119
 11
-57.7664
 21
-1.62868
  0
LINE
  8
0
 10
-57.7664
 20
-1.62868
 11
-57.9645
 21
-1.51978
  0
LINE
  8
0
 10
-57.9645
 20
-1.51978
 11
-58.1474
 21
-1.38692
  0
LINE
  8
0
 10
-58.1474
 20
-1.38692
 11
-58.3121
 21
-1.23218
  0
LINE
  8
0
 10
-58.3121
 20
-1.23218
 11
-58.4562
 21
-1.058
  0
LINE
  8
0
 10
-58.4562
 20
-1.058
 11
-58.5773
 21
-0.867142
  0
LINE
  8
0
 10
-58.5773
 20
-0.867142
 11
-58.6736
 21
-0.662613
  0
LINE
  8
0
 10
-58.6736
 20
-0.662613
 11
-58.7434
 21
-0.447632
  0
LINE
  8
0
 10
-58.7434
 20
-0.447632
 11
-58.7858
 21
-0.225586
  0
LINE
  8
0
 10
-58.7858
 20
-0.225586
 11
-58.8
 21
0
  0
LINE
  8
0
 10
-58.8
 20
0
 11
-58.7858
 21
0.225586
  0
LINE
  8
0
 10
-58.7858
 20
0.225586
 11
-58.7434
 21
0.447632
  0
LINE
  8
0
 10
-58.7434
 20
0.447632
 11
-58.6736
 21
0.662613
  0
LINE
  8
0
 10
-58.6736
 20
0.662613
 11
-58.5773
 21
0.867142
  0
LINE
  8
0
 10
-58.5773
 20
0.867142
 11
-58.4562
 21
1.058
  0
LINE
  8
0
 10
-58.4562
 20
1.058
 11
-58.3121
 21
1.23218
  0
LINE
  8
0
 10
-58.3121
 20
1.23218
 11
-58.1474
 21
1.38692
  0
LINE
  8
0
 10
-58.1474
 20
1.38692
 11
-57.9645
 21
1.51978
  0
LINE
  8
0
 10
-57.9645
 20
1.51978
 11
-57.7664
 21
1.62868
  0
LINE
  8
0
 10
-57.7664
 20
1.62868
 11
-57.5562
 21
1.7119
  0
LINE
  8
0
 10
-57.5562
 20
1.7119
 11
-57.3373
 21
1.76811
  0
LINE
  8
0
 10
-57.3373
 20
1.76811
 11
-57.113
 21
1.79645
  0
LINE
  8
0
 10
-57.113
 20
1.79645
 11
-56.887
 21
1.79645
  0
LINE
  8
0
 10
-56.887
 20
1.79645
 11
-56.6627
 21
1.76811
  0
LINE
  8
0
 10
-56.6627
 20
1.76811
 11
-56.4438
 21
1.7119
  0
LINE
  8
0
 10
-56.4438
 20
1.7119
 11
-56.2336
 21
1.62868
  0
LINE
  8
0
 10
-56.2336
 20
1.62868
 11
-56.0355
 21
1.51978
  0
LINE
  8
0
 10
-56.0355
 20
1.51978
 11
-55.8526
 21
1.38692
  0
LINE
  8
0
 10
-55.8526
 20
1.38692
 11
-55.6879
 21
1.23218
  0
LINE
  8
0
 10
-55.6879
 20
1.23218
 11
-55.5438
 21
1.058
  0
LINE
  8
0
 10
-55.5438
 20
1.058
 11
-55.4226
 21
0.867142
  0
LINE
  8
0
 10
-55.4226
 20
0.867142
 11
-55.3264
 21
0.662613
  0
LINE
  8
0
 10
-55.3264
 20
0.662613
 11
-55.2565
 21
0.447632
  0
LINE
  8
0
 10
-55.2565
 20
0.447632
 11
-55.2142
 21
0.225586
  0
LINE
  8
0
 10
-55.2142
 20
0.225586
 11
-55.2
 21
0
  0
LINE
  8
0
 10
-55.2
 20
0
 11
-55.2142
 21
-0.225586
  0
LINE
  8
0
 10
-55.2142
 20
-0.225586
 11
-55.2565
 21
-0.447632
  0
LINE
  8
0
 10
-55.2565
 20
-0.447632
 11
-55.3264
 21
-0.662613
  0
LINE
  8
0
 10
-55.3264
 20
-0.662613
 11
-55.4226
 21
-0.867142
  0
LINE
  8
0
 10
-55.4226
 20
-0.867142
 11
-55.5438
 21
-1.058
  0
LINE
  8
0
 10
-55.5438
 20
-1.058
 11
-55.6879
 21
-1.23218
  0
LINE
  8
0
 10
-55.6879
 20
-1.23218
 11
-55.8526
 21
-1.38692
  0
LINE
  8
0
 10
-55.8526
 20
-1.38692
 11
-56.0355
 21
-1.51978
  0
LINE
  8
0
 10
-56.0355
 20
-1.51978
 11
-56.2336
 21
-1.62868
  0
LINE
  8
0
 10
-56.2336
 20
-1.62868
 11
-56.4438
 21
-1.7119
  0
LINE
  8
0
 10
-56.4438
 20
-1.7119
 11
-56.6627
 21
-1.76811
  0
LINE
  8
0
 10
-56.6627
 20
-1.76811
 11
-56.887
 21
-1.79645
  0
LINE
  8
0
 10
-56.887
 20
-1.79645
 11
-57.113
 21
-1.79645
  0
LINE
  8
0
 10
56.887
 20
-1.79645
 11
56.6627
 21
-1.76811
  0
LINE
  8
0
 10
56.6627
 20
-1.76811
 11
56.4438
 21
-1.7119
  0
LINE
  8
0
 10
56.4438
 20
-1.7119
 11
56.2336
 21
-1.62868
  0
LINE
  8
0
 10
56.2336
 20
-1.62868
 11
56.0355
 21
-1.51978
  0
LINE
  8
0
 10
56.0355
 20
-1.51978
 11
55.8526
 21
-1.38692
  0
LINE
  8
0
 10
55.8526
 20
-1.38692
 11
55.6879
 21
-1.23218
  0
LINE
  8
0
 10
55.6879
 20
-1.23218
 11
55.5438
 21
-1.058
  0
LINE
  8
0
 10
55.5438
 20
-1.058
 11
55.4226
 21
-0.867142
  0
LINE
  8
0
 10
55.4226
 20
-0.867142
 11
55.3264
 21
-0.662613
  0
LINE
  8
0
 10
55.3264
 20
-0.662613
 11
55.2565
 21
-0.447632
  0
LINE
  8
0
 10
55.2565
 20
-0.447632
 11
55.2142
 21
-0.225586
  0
LINE
  8
0
 10
55.2142
 20
-0.225586
 11
55.2
 21
0
  0
LINE
  8
0
 10
55.2
 20
0
 11
55.2142
 21
0.225586
  0
LINE
  8
0
 10
55.2142
 20
0.225586
 11
55.2565
 21
0.447632
  0
LINE
  8
0
 10
55.2565
 20
0.447632
 11
55.3264
 21
0.662613
  0
LINE
  8
0
 10
55.3264
 20
0.662613
 11
55.4226
 21
0.867142
  0
LINE
  8
0
 10
55.4226
 20
0.867142
 11
55.5438
 21
1.058
  0
LINE
  8
0
 10
55.5438
 20
1.058
 11
55.6879
 21
1.23218
  0
LINE
  8
0
 10
55.6879
 20
1.23218
 11
55.8526
 21
1.38692
  0
LINE
  8
0
 10
55.8526
 20
1.38692
 11
56.0355
 21
1.51978
  0
LINE
  8
0
 10
56.0355
 20
1.51978
 11
56.2336
 21
1.62868
  0
LINE
  8
0
 10
56.2336
 20
1.62868
 11
56.4438
 21
1.7119
  0
LINE
  8
0
 10
56.4438
 20
1.7119
 11
56.6627
 21
1.76811
  0
LINE
  8
0
 10
56.6627
 20
1.76811
 11
56.887
 21
1.79645
  0
LINE
  8
0
 10
56.887
 20
1.79645
 11
57.113
 21
1.79645
  0
LINE
  8
0
 10
57.113
 20
1.79645
 11
57.3373
 21
1.76811
  0
LINE
  8
0
 10
57.3373
 20
1.76811
 11
57.5562
 21
1.7119
  0
LINE
  8
0
 10
57.5562
 20
1.7119
 11
57.7664
 21
1.62868
  0
LINE
  8
0
 10
57.7664
 20
1.62868
 11
57.9645
 21
1.51978
  0
LINE
  8
0
 10
57.9645
 20
1.51978
 11
58.1474
 21
1.38692
  0
LINE
  8
0
 10
58.1474
 20
1.38692
 11
58.3121
 21
1.23218
  0
LINE
  8
0
 10
58.3121
 20
1.23218
 11
58.4562
 21
1.058
  0
LINE
  8
0
 10
58.4562
 20
1.058
 11
58.5773
 21
0.867142
  0
LINE
  8
0
 10
58.5773
 20
0.867142
 11
58.6736
 21
0.662613
  0
LINE
  8
0
 10
58.6736
 20
0.662613
 11
58.7434
 21
0.447632
  0
LINE
  8
0
 10
58.7434
 20
0.447632
 11
58.7858
 21
0.225586
  0
LINE
  8
0
 10
58.7858
 20
0.225586
 11
58.8
 21
0
  0
LINE
  8
0
 10
58.8
 20
0
 11
58.7858
 21
-0.225586
  0
LINE
  8
0
 10
58.7858
 20
-0.225586
 11
58.7434
 21
-0.447632
  0
LINE
  8
0
 10
58.7434
 20
-0.447632
 11
58.6736
 21
-0.662613
  0
LINE
  8
0
 10
58.6736
 20
-0.662613
 11
58.5773
 21
-0.867142
  0
LINE
  8
0
 10
58.5773
 20
-0.867142
 11
58.4562
 21
-1.058
  0
LINE
  8
0
 10
58.4562
 20
-1.058
 11
58.3121
 21
-1.23218
  0
LINE
  8
0
 10
58.3121
 20
-1.23218
 11
58.1474
 21
-1.38692
  0
LINE
  8
0
 10
58.1474
 20
-1.38692
 11
57.9645
 21
-1.51978
  0
LINE
  8
0
 10
57.9645
 20
-1.51978
 11
57.7664
 21
-1.62868
  0
LINE
  8
0
 10
57.7664
 20
-1.62868
 11
57.5562
 21
-1.7119
  0
LINE
  8
0
 10
57.5562
 20
-1.7119
 11
57.3373
 21
-1.76811
  0
LINE
  8
0
 10
57.3373
 20
-1.76811
 11
57.113
 21
-1.79645
  0
LINE
  8
0
 10
57.113
 20
-1.79645
 11
56.887
 21
-1.79645
  0
LINE
  8
0
 10
56.1996
 20
-25.7941
 11
55.5121
 21
-25.547
  0
LINE
  8
0
 10
55.5121
 20
-25.547
 11
54.9523
 21
-25.0811
  0
LINE
  8
0
 10
54.9523
 20
-25.0811
 11
54.5918
 21
-24.463
  0
LINE
  8
0
 10
54.5918
 20
-24.463
 11
54.4642
 21
-23.75
  0
LINE
  8
0
 10
54.4642
 20
-23.75
 11
54.5918
 21
-23.037
  0
LINE
  8
0
 10
54.5918
 20
-23.037
 11
54.9523
 21
-22.4189
  0
LINE
  8
0
 10
54.9523
 20
-22.4189
 11
55.5121
 21
-21.953
  0
LINE
  8
0
 10
55.5121
 20
-21.953
 11
56.1996
 21
-21.7059
  0
LINE
  8
0
 10
56.1996
 20
-21.7059
 11
56.9204
 21
-21.7059
  0
LINE
  8
0
 10
56.9204
 20
-21.7059
 11
57.6079
 21
-21.953
  0
LINE
  8
0
 10
57.6079
 20
-21.953
 11
58.1677
 21
-22.4189
  0
LINE
  8
0
 10
58.1677
 20
-22.4189
 11
58.5282
 21
-23.037
  0
LINE
  8
0
 10
58.5282
 20
-23.037
 11
58.6557
 21
-23.75
  0
LINE
  8
0
 10
58.6557
 20
-23.75
 11
58.5282
 21
-24.463
  0
LINE
  8
0
 10
58.5282
 20
-24.463
 11
58.1677
 21
-25.0811
  0
LINE
  8
0
 10
58.1677
 20
-25.0811
 11
57.6079
 21
-25.547
  0
LINE
  8
0
 10
57.6079
 20
-25.547
 11
56.9204
 21
-25.7941
  0
LINE
  8
0
 10
56.9204
 20
-25.7941
 11
56.1996
 21
-25.7941
  0
LINE
  8
0
 10
-56.9204
 20
-25.7941
 11
-57.6079
 21
-25.547
  0
LINE
  8
0
 10
-57.6079
 20
-25.547
 11
-58.1677
 21
-25.0811
  0
LINE
  8
0
 10
-58.1677
 20
-25.0811
 11
-58.5282
 21
-24.463
  0
LINE
  8
0
 10
-58.5282
 20
-24.463
 11
-58.6557
 21
-23.75
  0
LINE
  8
0
 10
-58.6557
 20
-23.75
 11
-58.5282
 21
-23.037
  0
LINE
  8
0
 10
-58.5282
 20
-23.037
 11
-58.1677
 21
-22.4189
  0
LINE
  8
0
 10
-58.1677
 20
-22.4189
 11
-57.6079
 21
-21.953
  0
LINE
  8
0
 10
-57.6079
 20
-21.953
 11
-56.9204
 21
-21.7059
  0
LINE
  8
0
 10
-56.9204
 20
-21.7059
 11
-56.1996
 21
-21.7059
  0
LINE
  8
0
 10
-56.1996
 20
-21.7059
 11
-55.5121
 21
-21.953
  0
LINE
  8
0
 10
-55.5121
 20
-21.953
 11
-54.9523
 21
-22.4189
  0
LINE
  8
0
 10
-54.9523
 20
-22.4189
 11
-54.5918
 21
-23.037
  0
LINE
  8
0
 10
-54.5918
 20
-23.037
 11
-54.4642
 21
-23.75
  0
LINE
  8
0
 10
-54.4642
 20
-23.75
 11
-54.5918
 21
-24.463
  0
LINE
  8
0
 10
-54.5918
 20
-24.463
 11
-54.9523
 21
-25.0811
  0
LINE
  8
0
 10
-54.9523
 20
-25.0811
 11
-55.5121
 21
-25.547
  0
LINE
  8
0
 10
-55.5121
 20
-25.547
 11
-56.1996
 21
-25.7941
  0
LINE
  8
0
 10
-56.1996
 20
-25.7941
 11
-56.9204
 21
-25.7941
  0
LINE
  8
0
 10
-57.113
 20
-45.7964
 11
-57.3373
 21
-45.7681
  0
LINE
  8
0
 10
-57.3373
 20
-45.7681
 11
-57.5562
 21
-45.7119
  0
LINE
  8
0
 10
-57.5562
 20
-45.7119
 11
-57.7664
 21
-45.6287
  0
LINE
  8
0
 10
-57.7664
 20
-45.6287
 11
-57.9645
 21
-45.5198
  0
LINE
  8
0
 10
-57.9645
 20
-45.5198
 11
-58.1474
 21
-45.3869
  0
LINE
  8
0
 10
-58.1474
 20
-45.3869
 11
-58.3121
 21
-45.2322
  0
LINE
  8
0
 10
-58.3121
 20
-45.2322
 11
-58.4562
 21
-45.058
  0
LINE
  8
0
 10
-58.4562
 20
-45.058
 11
-58.5773
 21
-44.8671
  0
LINE
  8
0
 10
-58.5773
 20
-44.8671
 11
-58.6736
 21
-44.6626
  0
LINE
  8
0
 10
-58.6736
 20
-44.6626
 11
-58.7434
 21
-44.4476
  0
LINE
  8
0
 10
-58.7434
 20
-44.4476
 11
-58.7858
 21
-44.2256
  0
LINE
  8
0
 10
-58.7858
 20
-44.2256
 11
-58.8
 21
-44
  0
LINE
  8
0
 10
-58.8
 20
-44
 11
-58.7858
 21
-43.7744
  0
LINE
  8
0
 10
-58.7858
 20
-43.7744
 11
-58.7434
 21
-43.5524
  0
LINE
  8
0
 10
-58.7434
 20
-43.5524
 11
-58.6736
 21
-43.3374
  0
LINE
  8
0
 10
-58.6736
 20
-43.3374
 11
-58.5773
 21
-43.1328
  0
LINE
  8
0
 10
-58.5773
 20
-43.1328
 11
-58.4562
 21
-42.942
  0
LINE
  8
0
 10
-58.4562
 20
-42.942
 11
-58.3121
 21
-42.7678
  0
LINE
  8
0
 10
-58.3121
 20
-42.7678
 11
-58.1474
 21
-42.6131
  0
LINE
  8
0
 10
-58.1474
 20
-42.6131
 11
-57.9645
 21
-42.4802
  0
LINE
  8
0
 10
-57.9645
 20
-42.4802
 11
-57.7664
 21
-42.3713
  0
LINE
  8
0
 10
-57.7664
 20
-42.3713
 11
-57.5562
 21
-42.2881
  0
LINE
  8
0
 10
-57.5562
 20
-42.2881
 11
-57.3373
 21
-42.2319
  0
LINE
  8
0
 10
-57.3373
 20
-42.2319
 11
-57.113
 21
-42.2035
  0
LINE
  8
0
 10
-57.113
 20
-42.2035
 11
-56.887
 21
-42.2035
  0
LINE
  8
0
 10
-56.887
 20
-42.2035
 11
-56.6627
 21
-42.2319
  0
LINE
  8
0
 10
-56.6627
 20
-42.2319
 11
-56.4438
 21
-42.2881
  0
LINE
  8
0
 10
-56.4438
 20
-42.2881
 11
-56.2336
 21
-42.3713
  0
LINE
  8
0
 10
-56.2336
 20
-42.3713
 11
-56.0355
 21
-42.4802
  0
LINE
  8
0
 10
-56.0355
 20
-42.4802
 11
-55.8526
 21
-42.6131
  0
LINE
  8
0
 10
-55.8526
 20
-42.6131
 11
-55.6879
 21
-42.7678
  0
LINE
  8
0
 10
-55.6879
 20
-42.7678
 11
-55.5438
 21
-42.942
  0
LINE
  8
0
 10
-55.5438
 20
-42.942
 11
-55.4226
 21
-43.1328
  0
LINE
  8
0
 10
-55.4226
 20
-43.1328
 11
-55.3264
 21
-43.3374
  0
LINE
  8
0
 10
-55.3264
 20
-43.3374
 11
-55.2565
 21
-43.5524
  0
LINE
  8
0
 10
-55.2565
 20
-43.5524
 11
-55.2142
 21
-43.7744
  0
LINE
  8
0
 10
-55.2142
 20
-43.7744
 11
-55.2
 21
-44
  0
LINE
  8
0
 10
-55.2
 20
-44
 11
-55.2142
 21
-44.2256
  0
LINE
  8
0
 10
-55.2142
 20
-44.2256
 11
-55.2565
 21
-44.4476
  0
LINE
  8
0
 10
-55.2565
 20
-44.4476
 11
-55.3264
 21
-44.6626
  0
LINE
  8
0
 10
-55.3264
 20
-44.6626
 11
-55.4226
 21
-44.8671
  0
LINE
  8
0
 10
-55.4226
 20
-44.8671
 11
-55.5438
 21
-45.058
  0
LINE
  8
0
 10
-55.5438
 20
-45.058
 11
-55.6879
 21
-45.2322
  0
LINE
  8
0
 10
-55.6879
 20
-45.2322
 11
-55.8526
 21
-45.3869
  0
LINE
  8
0
 10
-55.8526
 20
-45.3869
 11
-56.0355
 21
-45.5198
  0
LINE
  8
0
 10
-56.0355
 20
-45.5198
 11
-56.2336
 21
-45.6287
  0
LINE
  8
0
 10
-56.2336
 20
-45.6287
 11
-56.4438
 21
-45.7119
  0
LINE
  8
0
 10
-56.4438
 20
-45.7119
 11
-56.6627
 21
-45.7681
  0
LINE
  8
0
 10
-56.6627
 20
-45.7681
 11
-56.887
 21
-45.7964
  0
LINE
  8
0
 10
-56.887
 20
-45.7964
 11
-57.113
 21
-45.7964
  0
LINE
  8
0
 10
56.887
 20
-45.7964
 11
56.6627
 21
-45.7681
  0
LINE
  8
0
 10
56.6627
 20
-45.7681
 11
56.4438
 21
-45.7119
  0
LINE
  8
0
 10
56.4438
 20
-45.7119
 11
56.2336
 21
-45.6287
  0
LINE
  8
0
 10
56.2336
 20
-45.6287
 11
56.0355
 21
-45.5198
  0
LINE
  8
0
 10
56.0355
 20
-45.5198
 11
55.8526
 21
-45.3869
  0
LINE
  8
0
 10
55.8526
 20
-45.3869
 11
55.6879
 21
-45.2322
  0
LINE
  8
0
 10
55.6879
 20
-45.2322
 11
55.5438
 21
-45.058
  0
LINE
  8
0
 10
55.5438
 20
-45.058
 11
55.4226
 21
-44.8671
  0
LINE
  8
0
 10
55.4226
 20
-44.8671
 11
55.3264
 21
-44.6626
  0
LINE
  8
0
 10
55.3264
 20
-44.6626
 11
55.2565
 21
-44.4476
  0
LINE
  8
0
 10
55.2565
 20
-44.4476
 11
55.2142
 21
-44.2256
  0
LINE
  8
0
 10
55.2142
 20
-44.2256
 11
55.2
 21
-44
  0
LINE
  8
0
 10
55.2
 20
-44
 11
55.2142
 21
-43.7744
  0
LINE
  8
0
 10
55.2142
 20
-43.7744
 11
55.2565
 21
-43.5524
  0
LINE
  8
0
 10
55.2565
 20
-43.5524
 11
55.3264
 21
-43.3374
  0
LINE
  8
0
 10
55.3264
 20
-43.3374
 11
55.4226
 21
-43.1328
  0
LINE
  8
0
 10
55.4226
 20
-43.1328
 11
55.5438
 21
-42.942
  0
LINE
  8
0
 10
55.5438
 20
-42.942
 11
55.6879
 21
-42.7678
  0
LINE
  8
0
 10
55.6879
 20
-42.7678
 11
55.8526
 21
-42.6131
  0
LINE
  8
0
 10
55.8526
 20
-42.6131
 11
56.0355
 21
-42.4802
  0
LINE
  8
0
 10
56.0355
 20
-42.4802
 11
56.2336
 21
-42.3713
  0
LINE
  8
0
 10
56.2336
 20
-42.3713
 11
56.4438
 21
-42.2881
  0
LINE
  8
0
 10
56.4438
 20
-42.2881
 11
56.6627
 21
-42.2319
  0
LINE
  8
0
 10
56.6627
 20
-42.2319
 11
56.887
 21
-42.2035
  0
LINE
  8
0
 10
56.887
 20
-42.2035
 11
57.113
 21
-42.2035
  0
LINE
  8
0
 10
57.113
 20
-42.2035
 11
57.3373
 21
-42.2319
  0
LINE
  8
0
 10
57.3373
 20
-42.2319
 11
57.5562
 21
-42.2881
  0
LINE
  8
0
 10
57.5562
 20
-42.2881
 11
57.7664
 21
-42.3713
  0
LINE
  8
0
 10
57.7664
 20
-42.3713
 11
57.9645
 21
-42.4802
  0
LINE
  8
0
 10
57.9645
 20
-42.4802
 11
58.1474
 21
-42.6131
  0
LINE
  8
0
 10
58.1474
 20
-42.6131
 11
58.3121
 21
-42.7678
  0
LINE
  8
0
 10
58.3121
 20
-42.7678
 11
58.4562
 21
-42.942
  0
LINE
  8
0
 10
58.4562
 20
-42.942
 11
58.5773
 21
-43.1328
  0
LINE
  8
0
 10
58.5773
 20
-43.1328
 11
58.6736
 21
-43.3374
  0
LINE
  8
0
 10
58.6736
 20
-43.3374
 11
58.7434
 21
-43.5524
  0
LINE
  8
0
 10
58.7434
 20
-43.5524
 11
58.7858
 21
-43.7744
  0
LINE
  8
0
 10
58.7858
 20
-43.7744
 11
58.8
 21
-44
  0
LINE
  8
0
 10
58.8
 20
-44
 11
58.7858
 21
-44.2256
  0
LINE
  8
0
 10
58.7858
 20
-44.2256
 11
58.7434
 21
-44.4476
  0
LINE
  8
0
 10
58.7434
 20
-44.4476
 11
58.6736
 21
-44.6626
  0
LINE
  8
0
 10
58.6736
 20
-44.6626
 11
58.5773
 21
-44.8671
  0
LINE
  8
0
 10
58.5773
 20
-44.8671
 11
58.4562
 21
-45.058
  0
LINE
  8
0
 10
58.4562
 20
-45.058
 11
58.3121
 21
-45.2322
  0
LINE
  8
0
 10
58.3121
 20
-45.2322
 11
58.1474
 21
-45.3869
  0
LINE
  8
0
 10
58.1474
 20
-45.3869
 11
57.9645
 21
-45.5198
  0
LINE
  8
0
 10
57.9645
 20
-45.5198
 11
57.7664
 21
-45.6287
  0
LINE
  8
0
 10
57.7664
 20
-45.6287
 11
57.5562
 21
-45.7119
  0
LINE
  8
0
 10
57.5562
 20
-45.7119
 11
57.3373
 21
-45.7681
  0
LINE
  8
0
 10
57.3373
 20
-45.7681
 11
57.113
 21
-45.7964
  0
LINE
  8
0
 10
57.113
 20
-45.7964
 11
56.887
 21
-45.7964
  0
LINE
  8
0
 10
-0.113022
 20
-45.7964
 11
-0.33728
 21
-45.7681
  0
LINE
  8
0
 10
-0.33728
 20
-45.7681
 11
-0.556229
 21
-45.7119
  0
LINE
  8
0
 10
-0.556229
 20
-45.7119
 11
-0.766388
 21
-45.6287
  0
LINE
  8
0
 10
-0.766388
 20
-45.6287
 11
-0.964478
 21
-45.5198
  0
LINE
  8
0
 10
-0.964478
 20
-45.5198
 11
-1.14735
 21
-45.3869
  0
LINE
  8
0
 10
-1.14735
 20
-45.3869
 11
-1.31213
 21
-45.2322
  0
LINE
  8
0
 10
-1.31213
 20
-45.2322
 11
-1.45622
 21
-45.058
  0
LINE
  8
0
 10
-1.45622
 20
-45.058
 11
-1.57735
 21
-44.8671
  0
LINE
  8
0
 10
-1.57735
 20
-44.8671
 11
-1.67358
 21
-44.6626
  0
LINE
  8
0
 10
-1.67358
 20
-44.6626
 11
-1.74344
 21
-44.4476
  0
LINE
  8
0
 10
-1.74344
 20
-44.4476
 11
-1.7858
 21
-44.2256
  0
LINE
  8
0
 10
-1.7858
 20
-44.2256
 11
-1.79999
 21
-44
  0
LINE
  8
0
 10
-1.79999
 20
-44
 11
-1.7858
 21
-43.7744
  0
LINE
  8
0
 10
-1.7858
 20
-43.7744
 11
-1.74344
 21
-43.5524
  0
LINE
  8
0
 10
-1.74344
 20
-43.5524
 11
-1.67358
 21
-43.3374
  0
LINE
  8
0
 10
-1.67358
 20
-43.3374
 11
-1.57735
 21
-43.1328
  0
LINE
  8
0
 10
-1.57735
 20
-43.1328
 11
-1.45622
 21
-42.942
  0
LINE
  8
0
 10
-1.45622
 20
-42.942
 11
-1.31213
 21
-42.7678
  0
LINE
  8
0
 10
-1.31213
 20
-42.7678
 11
-1.14735
 21
-42.6131
  0
LINE
  8
0
 10
-1.14735
 20
-42.6131
 11
-0.964478
 21
-42.4802
  0
LINE
  8
0
 10
-0.964478
 20
-42.4802
 11
-0.766388
 21
-42.3713
  0
LINE
  8
0
 10
-0.766388
 20
-42.3713
 11
-0.556229
 21
-42.2881
  0
LINE
  8
0
 10
-0.556229
 20
-42.2881
 11
-0.33728
 21
-42.2319
  0
LINE
  8
0
 10
-0.33728
 20
-42.2319
 11
-0.113022
 21
-42.2035
  0
LINE
  8
0
 10
-0.113022
 20
-42.2035
 11
0.113022
 21
-42.2035
  0
LINE
  8
0
 10
0.113022
 20
-42.2035
 11
0.33728
 21
-42.2319
  0
LINE
  8
0
 10
0.33728
 20
-42.2319
 11
0.556229
 21
-42.2881
  0
LINE
  8
0
 10
0.556229
 20
-42.2881
 11
0.766388
 21
-42.3713
  0
LINE
  8
0
 10
0.766388
 20
-42.3713
 11
0.964478
 21
-42.4802
  0
LINE
  8
0
 10
0.964478
 20
-42.4802
 11
1.14735
 21
-42.6131
  0
LINE
  8
0
 10
1.14735
 20
-42.6131
 11
1.31213
 21
-42.7678
  0
LINE
  8
0
 10
1.31213
 20
-42.7678
 11
1.45622
 21
-42.942
  0
LINE
  8
0
 10
1.45622
 20
-42.942
 11
1.57735
 21
-43.1328
  0
LINE
  8
0
 10
1.57735
 20
-43.1328
 11
1.67358
 21
-43.3374
  0
LINE
  8
0
 10
1.67358
 20
-43.3374
 11
1.74344
 21
-43.5524
  0
LINE
  8
0
 10
1.74344
 20
-43.5524
 11
1.7858
 21
-43.7744
  0
LINE
  8
0
 10
1.7858
 20
-43.7744
 11
1.79999
 21
-44
  0
LINE
  8
0
 10
1.79999
 20
-44
 11
1.7858
 21
-44.2256
  0
LINE
  8
0
 10
1.7858
 20
-44.2256
 11
1.74344
 21
-44.4476
  0
LINE
  8
0
 10
1.74344
 20
-44.4476
 11
1.67358
 21
-44.6626
  0
LINE
  8
0
 10
1.67358
 20
-44.6626
 11
1.57735
 21
-44.8671
  0
LINE
  8
0
 10
1.57735
 20
-44.8671
 11
1.45622
 21
-45.058
  0
LINE
  8
0
 10
1.45622
 20
-45.058
 11
1.31213
 21
-45.2322
  0
LINE
  8
0
 10
1.31213
 20
-45.2322
 11
1.14735
 21
-45.3869
  0
LINE
  8
0
 10
1.14735
 20
-45.3869
 11
0.964478
 21
-45.5198
  0
LINE
  8
0
 10
0.964478
 20
-45.5198
 11
0.766388
 21
-45.6287
  0
LINE
  8
0
 10
0.766388
 20
-45.6287
 11
0.556229
 21
-45.7119
  0
LINE
  8
0
 10
0.556229
 20
-45.7119
 11
0.33728
 21
-45.7681
  0
LINE
  8
0
 10
0.33728
 20
-45.7681
 11
0.113022
 21
-45.7964
  0
LINE
  8
0
 10
0.113022
 20
-45.7964
 11
-0.113022
 21
-45.7964
  0
ENDSEC
  0
SECTION
  2
OBJECTS
  0
DICTIONARY
  0
ENDSEC
  0
EOF
