  0
SECTION
  2
BLOCKS
  0
ENDSEC
  0
SECTION
  2
ENTITIES
  0
LINE
  8
0
 10
-70
 20
-50
 11
518
 21
-50
  0
LINE
  8
0
 10
518
 20
-50
 11
518
 21
234
  0
LINE
  8
0
 10
518
 20
234
 11
-70
 21
234
  0
LINE
  8
0
 10
-70
 20
234
 11
-70
 21
-50
  0
LINE
  8
0
 10
501.906
 20
226.503
 11
501.719
 21
226.527
  0
LINE
  8
0
 10
501.719
 20
226.527
 11
501.536
 21
226.573
  0
LINE
  8
0
 10
501.536
 20
226.573
 11
501.361
 21
226.643
  0
LINE
  8
0
 10
501.361
 20
226.643
 11
501.196
 21
226.734
  0
LINE
  8
0
 10
501.196
 20
226.734
 11
501.044
 21
226.844
  0
LINE
  8
0
 10
501.044
 20
226.844
 11
500.907
 21
226.973
  0
LINE
  8
0
 10
500.907
 20
226.973
 11
500.786
 21
227.118
  0
LINE
  8
0
 10
500.786
 20
227.118
 11
500.686
 21
227.277
  0
LINE
  8
0
 10
500.686
 20
227.277
 11
500.605
 21
227.448
  0
LINE
  8
0
 10
500.605
 20
227.448
 11
500.547
 21
227.627
  0
LINE
  8
0
 10
500.547
 20
227.627
 11
500.512
 21
227.812
  0
LINE
  8
0
 10
500.512
 20
227.812
 11
500.5
 21
228
  0
LINE
  8
0
 10
500.5
 20
228
 11
500.512
 21
228.188
  0
LINE
  8
0
 10
500.512
 20
228.188
 11
500.547
 21
228.373
  0
LINE
  8
0
 10
500.547
 20
228.373
 11
500.605
 21
228.552
  0
LINE
  8
0
 10
500.605
 20
228.552
 11
500.686
 21
228.723
  0
LINE
  8
0
 10
500.686
 20
228.723
 11
500.786
 21
228.882
  0
LINE
  8
0
 10
500.786
 20
228.882
 11
500.907
 21
229.027
  0
LINE
  8
0
 10
500.907
 20
229.027
 11
501.044
 21
229.156
  0
LINE
  8
0
 10
501.044
 20
229.156
 11
501.196
 21
229.266
  0
LINE
  8
0
 10
501.196
 20
229.266
 11
501.361
 21
229.357
  0
LINE
  8
0
 10
501.361
 20
229.357
 11
501.536
 21
229.427
  0
LINE
  8
0
 10
501.536
 20
229.427
 11
501.719
 21
229.473
  0
LINE
  8
0
 10
501.719
 20
229.473
 11
501.906
 21
229.497
  0
LINE
  8
0
 10
501.906
 20
229.497
 11
502.094
 21
229.497
  0
LINE
  8
0
 10
502.094
 20
229.497
 11
502.281
 21
229.473
  0
LINE
  8
0
 10
502.281
 20
229.473
 11
502.464
 21
229.427
  0
LINE
  8
0
 10
502.464
 20
229.427
 11
502.639
 21
229.357
  0
LINE
  8
0
 10
502.639
 20
229.357
 11
502.804
 21
229.266
  0
LINE
  8
0
 10
502.804
 20
229.266
 11
502.956
 21
229.156
  0
LINE
  8
0
 10
502.956
 20
229.156
 11
503.093
 21
229.027
  0
LINE
  8
0
 10
503.093
 20
229.027
 11
503.214
 21
228.882
  0
LINE
  8
0
 10
503.214
 20
228.882
 11
503.314
 21
228.723
  0
LINE
  8
0
 10
503.314
 20
228.723
 11
503.395
 21
228.552
  0
LINE
  8
0
 10
503.395
 20
228.552
 11
503.453
 21
228.373
  0
LINE
  8
0
 10
503.453
 20
228.373
 11
503.488
 21
228.188
  0
LINE
  8
0
 10
503.488
 20
228.188
 11
503.5
 21
228
  0
LINE
  8
0
 10
503.5
 20
228
 11
503.488
 21
227.812
  0
LINE
  8
0
 10
503.488
 20
227.812
 11
503.453
 21
227.627
  0
LINE
  8
0
 10
503.453
 20
227.627
 11
503.395
 21
227.448
  0
LINE
  8
0
 10
503.395
 20
227.448
 11
503.314
 21
227.277
  0
LINE
  8
0
 10
503.314
 20
227.277
 11
503.214
 21
227.118
  0
LINE
  8
0
 10
503.214
 20
227.118
 11
503.093
 21
226.973
  0
LINE
  8
0
 10
503.093
 20
226.973
 11
502.956
 21
226.844
  0
LINE
  8
0
 10
502.956
 20
226.844
 11
502.804
 21
226.734
  0
LINE
  8
0
 10
502.804
 20
226.734
 11
502.639
 21
226.643
  0
LINE
  8
0
 10
502.639
 20
226.643
 11
502.464
 21
226.573
  0
LINE
  8
0
 10
502.464
 20
226.573
 11
502.281
 21
226.527
  0
LINE
  8
0
 10
502.281
 20
226.527
 11
502.094
 21
226.503
  0
LINE
  8
0
 10
502.094
 20
226.503
 11
501.906
 21
226.503
  0
LINE
  8
0
 10
-54.0942
 20
226.503
 11
-54.2811
 21
226.527
  0
LINE
  8
0
 10
-54.2811
 20
226.527
 11
-54.4635
 21
226.573
  0
LINE
  8
0
 10
-54.4635
 20
226.573
 11
-54.6387
 21
226.643
  0
LINE
  8
0
 10
-54.6387
 20
226.643
 11
-54.8037
 21
226.734
  0
LINE
  8
0
 10
-54.8037
 20
226.734
 11
-54.9561
 21
226.844
  0
LINE
  8
0
 10
-54.9561
 20
226.844
 11
-55.0934
 21
226.973
  0
LINE
  8
0
 10
-55.0934
 20
226.973
 11
-55.2135
 21
227.118
  0
LINE
  8
0
 10
-55.2135
 20
227.118
 11
-55.3145
 21
227.277
  0
LINE
  8
0
 10
-55.3145
 20
227.277
 11
-55.3947
 21
227.448
  0
LINE
  8
0
 10
-55.3947
 20
227.448
 11
-55.4529
 21
227.627
  0
LINE
  8
0
 10
-55.4529
 20
227.627
 11
-55.4882
 21
227.812
  0
LINE
  8
0
 10
-55.4882
 20
227.812
 11
-55.5
 21
228
  0
LINE
  8
0
 10
-55.5
 20
228
 11
-55.4882
 21
228.188
  0
LINE
  8
0
 10
-55.4882
 20
228.188
 11
-55.4529
 21
228.373
  0
LINE
  8
0
 10
-55.4529
 20
228.373
 11
-55.3947
 21
228.552
  0
LINE
  8
0
 10
-55.3947
 20
228.552
 11
-55.3145
 21
228.723
  0
LINE
  8
0
 10
-55.3145
 20
228.723
 11
-55.2135
 21
228.882
  0
LINE
  8
0
 10
-55.2135
 20
228.882
 11
-55.0934
 21
229.027
  0
LINE
  8
0
 10
-55.0934
 20
229.027
 11
-54.9561
 21
229.156
  0
LINE
  8
0
 10
-54.9561
 20
229.156
 11
-54.8037
 21
229.266
  0
LINE
  8
0
 10
-54.8037
 20
229.266
 11
-54.6387
 21
229.357
  0
LINE
  8
0
 10
-54.6387
 20
229.357
 11
-54.4635
 21
229.427
  0
LINE
  8
0
 10
-54.4635
 20
229.427
 11
-54.2811
 21
229.473
  0
LINE
  8
0
 10
-54.2811
 20
229.473
 11
-54.0942
 21
229.497
  0
LINE
  8
0
 10
-54.0942
 20
229.497
 11
-53.9058
 21
229.497
  0
LINE
  8
0
 10
-53.9058
 20
229.497
 11
-53.7189
 21
229.473
  0
LINE
  8
0
 10
-53.7189
 20
229.473
 11
-53.5365
 21
229.427
  0
LINE
  8
0
 10
-53.5365
 20
229.427
 11
-53.3613
 21
229.357
  0
LINE
  8
0
 10
-53.3613
 20
229.357
 11
-53.1963
 21
229.266
  0
LINE
  8
0
 10
-53.1963
 20
229.266
 11
-53.0439
 21
229.156
  0
LINE
  8
0
 10
-53.0439
 20
229.156
 11
-52.9065
 21
229.027
  0
LINE
  8
0
 10
-52.9065
 20
229.027
 11
-52.7865
 21
228.882
  0
LINE
  8
0
 10
-52.7865
 20
228.882
 11
-52.6855
 21
228.723
  0
LINE
  8
0
 10
-52.6855
 20
228.723
 11
-52.6053
 21
228.552
  0
LINE
  8
0
 10
-52.6053
 20
228.552
 11
-52.5471
 21
228.373
  0
LINE
  8
0
 10
-52.5471
 20
228.373
 11
-52.5118
 21
228.188
  0
LINE
  8
0
 10
-52.5118
 20
228.188
 11
-52.5
 21
228
  0
LINE
  8
0
 10
-52.5
 20
228
 11
-52.5118
 21
227.812
  0
LINE
  8
0
 10
-52.5118
 20
227.812
 11
-52.5471
 21
227.627
  0
LINE
  8
0
 10
-52.5471
 20
227.627
 11
-52.6053
 21
227.448
  0
LINE
  8
0
 10
-52.6053
 20
227.448
 11
-52.6855
 21
227.277
  0
LINE
  8
0
 10
-52.6855
 20
227.277
 11
-52.7865
 21
227.118
  0
LINE
  8
0
 10
-52.7865
 20
227.118
 11
-52.9065
 21
226.973
  0
LINE
  8
0
 10
-52.9065
 20
226.973
 11
-53.0439
 21
226.844
  0
LINE
  8
0
 10
-53.0439
 20
226.844
 11
-53.1963
 21
226.734
  0
LINE
  8
0
 10
-53.1963
 20
226.734
 11
-53.3613
 21
226.643
  0
LINE
  8
0
 10
-53.3613
 20
226.643
 11
-53.5365
 21
226.573
  0
LINE
  8
0
 10
-53.5365
 20
226.573
 11
-53.7189
 21
226.527
  0
LINE
  8
0
 10
-53.7189
 20
226.527
 11
-53.9058
 21
226.503
  0
LINE
  8
0
 10
-53.9058
 20
226.503
 11
-54.0942
 21
226.503
  0
LINE
  8
0
 10
126.906
 20
197.503
 11
126.719
 21
197.527
  0
LINE
  8
0
 10
126.719
 20
197.527
 11
126.536
 21
197.573
  0
LINE
  8
0
 10
126.536
 20
197.573
 11
126.361
 21
197.643
  0
LINE
  8
0
 10
126.361
 20
197.643
 11
126.196
 21
197.734
  0
LINE
  8
0
 10
126.196
 20
197.734
 11
126.044
 21
197.844
  0
LINE
  8
0
 10
126.044
 20
197.844
 11
125.907
 21
197.973
  0
LINE
  8
0
 10
125.907
 20
197.973
 11
125.786
 21
198.118
  0
LINE
  8
0
 10
125.786
 20
198.118
 11
125.686
 21
198.277
  0
LINE
  8
0
 10
125.686
 20
198.277
 11
125.605
 21
198.448
  0
LINE
  8
0
 10
125.605
 20
198.448
 11
125.547
 21
198.627
  0
LINE
  8
0
 10
125.547
 20
198.627
 11
125.512
 21
198.812
  0
LINE
  8
0
 10
125.512
 20
198.812
 11
125.5
 21
199
  0
LINE
  8
0
 10
125.5
 20
199
 11
125.512
 21
199.188
  0
LINE
  8
0
 10
125.512
 20
199.188
 11
125.547
 21
199.373
  0
LINE
  8
0
 10
125.547
 20
199.373
 11
125.605
 21
199.552
  0
LINE
  8
0
 10
125.605
 20
199.552
 11
125.686
 21
199.723
  0
LINE
  8
0
 10
125.686
 20
199.723
 11
125.786
 21
199.882
  0
LINE
  8
0
 10
125.786
 20
199.882
 11
125.907
 21
200.027
  0
LINE
  8
0
 10
125.907
 20
200.027
 11
126.044
 21
200.156
  0
LINE
  8
0
 10
126.044
 20
200.156
 11
126.196
 21
200.266
  0
LINE
  8
0
 10
126.196
 20
200.266
 11
126.361
 21
200.357
  0
LINE
  8
0
 10
126.361
 20
200.357
 11
126.536
 21
200.427
  0
LINE
  8
0
 10
126.536
 20
200.427
 11
126.719
 21
200.473
  0
LINE
  8
0
 10
126.719
 20
200.473
 11
126.906
 21
200.497
  0
LINE
  8
0
 10
126.906
 20
200.497
 11
127.094
 21
200.497
  0
LINE
  8
0
 10
127.094
 20
200.497
 11
127.281
 21
200.473
  0
LINE
  8
0
 10
127.281
 20
200.473
 11
127.464
 21
200.427
  0
LINE
  8
0
 10
127.464
 20
200.427
 11
127.639
 21
200.357
  0
LINE
  8
0
 10
127.639
 20
200.357
 11
127.804
 21
200.266
  0
LINE
  8
0
 10
127.804
 20
200.266
 11
127.956
 21
200.156
  0
LINE
  8
0
 10
127.956
 20
200.156
 11
128.093
 21
200.027
  0
LINE
  8
0
 10
128.093
 20
200.027
 11
128.214
 21
199.882
  0
LINE
  8
0
 10
128.214
 20
199.882
 11
128.314
 21
199.723
  0
LINE
  8
0
 10
128.314
 20
199.723
 11
128.395
 21
199.552
  0
LINE
  8
0
 10
128.395
 20
199.552
 11
128.453
 21
199.373
  0
LINE
  8
0
 10
128.453
 20
199.373
 11
128.488
 21
199.188
  0
LINE
  8
0
 10
128.488
 20
199.188
 11
128.5
 21
199
  0
LINE
  8
0
 10
128.5
 20
199
 11
128.488
 21
198.812
  0
LINE
  8
0
 10
128.488
 20
198.812
 11
128.453
 21
198.627
  0
LINE
  8
0
 10
128.453
 20
198.627
 11
128.395
 21
198.448
  0
LINE
  8
0
 10
128.395
 20
198.448
 11
128.314
 21
198.277
  0
LINE
  8
0
 10
128.314
 20
198.277
 11
128.214
 21
198.118
  0
LINE
  8
0
 10
128.214
 20
198.118
 11
128.093
 21
197.973
  0
LINE
  8
0
 10
128.093
 20
197.973
 11
127.956
 21
197.844
  0
LINE
  8
0
 10
127.956
 20
197.844
 11
127.804
 21
197.734
  0
LINE
  8
0
 10
127.804
 20
197.734
 11
127.639
 21
197.643
  0
LINE
  8
0
 10
127.639
 20
197.643
 11
127.464
 21
197.573
  0
LINE
  8
0
 10
127.464
 20
197.573
 11
127.281
 21
197.527
  0
LINE
  8
0
 10
127.281
 20
197.527
 11
127.094
 21
197.503
  0
LINE
  8
0
 10
127.094
 20
197.503
 11
126.906
 21
197.503
  0
LINE
  8
0
 10
350.906
 20
197.503
 11
350.719
 21
197.527
  0
LINE
  8
0
 10
350.719
 20
197.527
 11
350.536
 21
197.573
  0
LINE
  8
0
 10
350.536
 20
197.573
 11
350.361
 21
197.643
  0
LINE
  8
0
 10
350.361
 20
197.643
 11
350.196
 21
197.734
  0
LINE
  8
0
 10
350.196
 20
197.734
 11
350.044
 21
197.844
  0
LINE
  8
0
 10
350.044
 20
197.844
 11
349.907
 21
197.973
  0
LINE
  8
0
 10
349.907
 20
197.973
 11
349.786
 21
198.118
  0
LINE
  8
0
 10
349.786
 20
198.118
 11
349.686
 21
198.277
  0
LINE
  8
0
 10
349.686
 20
198.277
 11
349.605
 21
198.448
  0
LINE
  8
0
 10
349.605
 20
198.448
 11
349.547
 21
198.627
  0
LINE
  8
0
 10
349.547
 20
198.627
 11
349.512
 21
198.812
  0
LINE
  8
0
 10
349.512
 20
198.812
 11
349.5
 21
199
  0
LINE
  8
0
 10
349.5
 20
199
 11
349.512
 21
199.188
  0
LINE
  8
0
 10
349.512
 20
199.188
 11
349.547
 21
199.373
  0
LINE
  8
0
 10
349.547
 20
199.373
 11
349.605
 21
199.552
  0
LINE
  8
0
 10
349.605
 20
199.552
 11
349.686
 21
199.723
  0
LINE
  8
0
 10
349.686
 20
199.723
 11
349.786
 21
199.882
  0
LINE
  8
0
 10
349.786
 20
199.882
 11
349.907
 21
200.027
  0
LINE
  8
0
 10
349.907
 20
200.027
 11
350.044
 21
200.156
  0
LINE
  8
0
 10
350.044
 20
200.156
 11
350.196
 21
200.266
  0
LINE
  8
0
 10
350.196
 20
200.266
 11
350.361
 21
200.357
  0
LINE
  8
0
 10
350.361
 20
200.357
 11
350.536
 21
200.427
  0
LINE
  8
0
 10
350.536
 20
200.427
 11
350.719
 21
200.473
  0
LINE
  8
0
 10
350.719
 20
200.473
 11
350.906
 21
200.497
  0
LINE
  8
0
 10
350.906
 20
200.497
 11
351.094
 21
200.497
  0
LINE
  8
0
 10
351.094
 20
200.497
 11
351.281
 21
200.473
  0
LINE
  8
0
 10
351.281
 20
200.473
 11
351.464
 21
200.427
  0
LINE
  8
0
 10
351.464
 20
200.427
 11
351.639
 21
200.357
  0
LINE
  8
0
 10
351.639
 20
200.357
 11
351.804
 21
200.266
  0
LINE
  8
0
 10
351.804
 20
200.266
 11
351.956
 21
200.156
  0
LINE
  8
0
 10
351.956
 20
200.156
 11
352.093
 21
200.027
  0
LINE
  8
0
 10
352.093
 20
200.027
 11
352.214
 21
199.882
  0
LINE
  8
0
 10
352.214
 20
199.882
 11
352.314
 21
199.723
  0
LINE
  8
0
 10
352.314
 20
199.723
 11
352.395
 21
199.552
  0
LINE
  8
0
 10
352.395
 20
199.552
 11
352.453
 21
199.373
  0
LINE
  8
0
 10
352.453
 20
199.373
 11
352.488
 21
199.188
  0
LINE
  8
0
 10
352.488
 20
199.188
 11
352.5
 21
199
  0
LINE
  8
0
 10
352.5
 20
199
 11
352.488
 21
198.812
  0
LINE
  8
0
 10
352.488
 20
198.812
 11
352.453
 21
198.627
  0
LINE
  8
0
 10
352.453
 20
198.627
 11
352.395
 21
198.448
  0
LINE
  8
0
 10
352.395
 20
198.448
 11
352.314
 21
198.277
  0
LINE
  8
0
 10
352.314
 20
198.277
 11
352.214
 21
198.118
  0
LINE
  8
0
 10
352.214
 20
198.118
 11
352.093
 21
197.973
  0
LINE
  8
0
 10
352.093
 20
197.973
 11
351.956
 21
197.844
  0
LINE
  8
0
 10
351.956
 20
197.844
 11
351.804
 21
197.734
  0
LINE
  8
0
 10
351.804
 20
197.734
 11
351.639
 21
197.643
  0
LINE
  8
0
 10
351.639
 20
197.643
 11
351.464
 21
197.573
  0
LINE
  8
0
 10
351.464
 20
197.573
 11
351.281
 21
197.527
  0
LINE
  8
0
 10
351.281
 20
197.527
 11
351.094
 21
197.503
  0
LINE
  8
0
 10
351.094
 20
197.503
 11
350.906
 21
197.503
  0
LINE
  8
0
 10
462.906
 20
197.503
 11
462.719
 21
197.527
  0
LINE
  8
0
 10
462.719
 20
197.527
 11
462.536
 21
197.573
  0
LINE
  8
0
 10
462.536
 20
197.573
 11
462.361
 21
197.643
  0
LINE
  8
0
 10
462.361
 20
197.643
 11
462.196
 21
197.734
  0
LINE
  8
0
 10
462.196
 20
197.734
 11
462.044
 21
197.844
  0
LINE
  8
0
 10
462.044
 20
197.844
 11
461.907
 21
197.973
  0
LINE
  8
0
 10
461.907
 20
197.973
 11
461.786
 21
198.118
  0
LINE
  8
0
 10
461.786
 20
198.118
 11
461.686
 21
198.277
  0
LINE
  8
0
 10
461.686
 20
198.277
 11
461.605
 21
198.448
  0
LINE
  8
0
 10
461.605
 20
198.448
 11
461.547
 21
198.627
  0
LINE
  8
0
 10
461.547
 20
198.627
 11
461.512
 21
198.812
  0
LINE
  8
0
 10
461.512
 20
198.812
 11
461.5
 21
199
  0
LINE
  8
0
 10
461.5
 20
199
 11
461.512
 21
199.188
  0
LINE
  8
0
 10
461.512
 20
199.188
 11
461.547
 21
199.373
  0
LINE
  8
0
 10
461.547
 20
199.373
 11
461.605
 21
199.552
  0
LINE
  8
0
 10
461.605
 20
199.552
 11
461.686
 21
199.723
  0
LINE
  8
0
 10
461.686
 20
199.723
 11
461.786
 21
199.882
  0
LINE
  8
0
 10
461.786
 20
199.882
 11
461.907
 21
200.027
  0
LINE
  8
0
 10
461.907
 20
200.027
 11
462.044
 21
200.156
  0
LINE
  8
0
 10
462.044
 20
200.156
 11
462.196
 21
200.266
  0
LINE
  8
0
 10
462.196
 20
200.266
 11
462.361
 21
200.357
  0
LINE
  8
0
 10
462.361
 20
200.357
 11
462.536
 21
200.427
  0
LINE
  8
0
 10
462.536
 20
200.427
 11
462.719
 21
200.473
  0
LINE
  8
0
 10
462.719
 20
200.473
 11
462.906
 21
200.497
  0
LINE
  8
0
 10
462.906
 20
200.497
 11
463.094
 21
200.497
  0
LINE
  8
0
 10
463.094
 20
200.497
 11
463.281
 21
200.473
  0
LINE
  8
0
 10
463.281
 20
200.473
 11
463.464
 21
200.427
  0
LINE
  8
0
 10
463.464
 20
200.427
 11
463.639
 21
200.357
  0
LINE
  8
0
 10
463.639
 20
200.357
 11
463.804
 21
200.266
  0
LINE
  8
0
 10
463.804
 20
200.266
 11
463.956
 21
200.156
  0
LINE
  8
0
 10
463.956
 20
200.156
 11
464.093
 21
200.027
  0
LINE
  8
0
 10
464.093
 20
200.027
 11
464.214
 21
199.882
  0
LINE
  8
0
 10
464.214
 20
199.882
 11
464.314
 21
199.723
  0
LINE
  8
0
 10
464.314
 20
199.723
 11
464.395
 21
199.552
  0
LINE
  8
0
 10
464.395
 20
199.552
 11
464.453
 21
199.373
  0
LINE
  8
0
 10
464.453
 20
199.373
 11
464.488
 21
199.188
  0
LINE
  8
0
 10
464.488
 20
199.188
 11
464.5
 21
199
  0
LINE
  8
0
 10
464.5
 20
199
 11
464.488
 21
198.812
  0
LINE
  8
0
 10
464.488
 20
198.812
 11
464.453
 21
198.627
  0
LINE
  8
0
 10
464.453
 20
198.627
 11
464.395
 21
198.448
  0
LINE
  8
0
 10
464.395
 20
198.448
 11
464.314
 21
198.277
  0
LINE
  8
0
 10
464.314
 20
198.277
 11
464.214
 21
198.118
  0
LINE
  8
0
 10
464.214
 20
198.118
 11
464.093
 21
197.973
  0
LINE
  8
0
 10
464.093
 20
197.973
 11
463.956
 21
197.844
  0
LINE
  8
0
 10
463.956
 20
197.844
 11
463.804
 21
197.734
  0
LINE
  8
0
 10
463.804
 20
197.734
 11
463.639
 21
197.643
  0
LINE
  8
0
 10
463.639
 20
197.643
 11
463.464
 21
197.573
  0
LINE
  8
0
 10
463.464
 20
197.573
 11
463.281
 21
197.527
  0
LINE
  8
0
 10
463.281
 20
197.527
 11
463.094
 21
197.503
  0
LINE
  8
0
 10
463.094
 20
197.503
 11
462.906
 21
197.503
  0
LINE
  8
0
 10
14.9058
 20
197.503
 11
14.7189
 21
197.527
  0
LINE
  8
0
 10
14.7189
 20
197.527
 11
14.5365
 21
197.573
  0
LINE
  8
0
 10
14.5365
 20
197.573
 11
14.3613
 21
197.643
  0
LINE
  8
0
 10
14.3613
 20
197.643
 11
14.1963
 21
197.734
  0
LINE
  8
0
 10
14.1963
 20
197.734
 11
14.0439
 21
197.844
  0
LINE
  8
0
 10
14.0439
 20
197.844
 11
13.9065
 21
197.973
  0
LINE
  8
0
 10
13.9065
 20
197.973
 11
13.7865
 21
198.118
  0
LINE
  8
0
 10
13.7865
 20
198.118
 11
13.6855
 21
198.277
  0
LINE
  8
0
 10
13.6855
 20
198.277
 11
13.6053
 21
198.448
  0
LINE
  8
0
 10
13.6053
 20
198.448
 11
13.5471
 21
198.627
  0
LINE
  8
0
 10
13.5471
 20
198.627
 11
13.5118
 21
198.812
  0
LINE
  8
0
 10
13.5118
 20
198.812
 11
13.5
 21
199
  0
LINE
  8
0
 10
13.5
 20
199
 11
13.5118
 21
199.188
  0
LINE
  8
0
 10
13.5118
 20
199.188
 11
13.5471
 21
199.373
  0
LINE
  8
0
 10
13.5471
 20
199.373
 11
13.6053
 21
199.552
  0
LINE
  8
0
 10
13.6053
 20
199.552
 11
13.6855
 21
199.723
  0
LINE
  8
0
 10
13.6855
 20
199.723
 11
13.7865
 21
199.882
  0
LINE
  8
0
 10
13.7865
 20
199.882
 11
13.9065
 21
200.027
  0
LINE
  8
0
 10
13.9065
 20
200.027
 11
14.0439
 21
200.156
  0
LINE
  8
0
 10
14.0439
 20
200.156
 11
14.1963
 21
200.266
  0
LINE
  8
0
 10
14.1963
 20
200.266
 11
14.3613
 21
200.357
  0
LINE
  8
0
 10
14.3613
 20
200.357
 11
14.5365
 21
200.427
  0
LINE
  8
0
 10
14.5365
 20
200.427
 11
14.7189
 21
200.473
  0
LINE
  8
0
 10
14.7189
 20
200.473
 11
14.9058
 21
200.497
  0
LINE
  8
0
 10
14.9058
 20
200.497
 11
15.0942
 21
200.497
  0
LINE
  8
0
 10
15.0942
 20
200.497
 11
15.2811
 21
200.473
  0
LINE
  8
0
 10
15.2811
 20
200.473
 11
15.4635
 21
200.427
  0
LINE
  8
0
 10
15.4635
 20
200.427
 11
15.6387
 21
200.357
  0
LINE
  8
0
 10
15.6387
 20
200.357
 11
15.8037
 21
200.266
  0
LINE
  8
0
 10
15.8037
 20
200.266
 11
15.9561
 21
200.156
  0
LINE
  8
0
 10
15.9561
 20
200.156
 11
16.0934
 21
200.027
  0
LINE
  8
0
 10
16.0934
 20
200.027
 11
16.2135
 21
199.882
  0
LINE
  8
0
 10
16.2135
 20
199.882
 11
16.3145
 21
199.723
  0
LINE
  8
0
 10
16.3145
 20
199.723
 11
16.3947
 21
199.552
  0
LINE
  8
0
 10
16.3947
 20
199.552
 11
16.4529
 21
199.373
  0
LINE
  8
0
 10
16.4529
 20
199.373
 11
16.4882
 21
199.188
  0
LINE
  8
0
 10
16.4882
 20
199.188
 11
16.5
 21
199
  0
LINE
  8
0
 10
16.5
 20
199
 11
16.4882
 21
198.812
  0
LINE
  8
0
 10
16.4882
 20
198.812
 11
16.4529
 21
198.627
  0
LINE
  8
0
 10
16.4529
 20
198.627
 11
16.3947
 21
198.448
  0
LINE
  8
0
 10
16.3947
 20
198.448
 11
16.3145
 21
198.277
  0
LINE
  8
0
 10
16.3145
 20
198.277
 11
16.2135
 21
198.118
  0
LINE
  8
0
 10
16.2135
 20
198.118
 11
16.0934
 21
197.973
  0
LINE
  8
0
 10
16.0934
 20
197.973
 11
15.9561
 21
197.844
  0
LINE
  8
0
 10
15.9561
 20
197.844
 11
15.8037
 21
197.734
  0
LINE
  8
0
 10
15.8037
 20
197.734
 11
15.6387
 21
197.643
  0
LINE
  8
0
 10
15.6387
 20
197.643
 11
15.4635
 21
197.573
  0
LINE
  8
0
 10
15.4635
 20
197.573
 11
15.2811
 21
197.527
  0
LINE
  8
0
 10
15.2811
 20
197.527
 11
15.0942
 21
197.503
  0
LINE
  8
0
 10
15.0942
 20
197.503
 11
14.9058
 21
197.503
  0
LINE
  8
0
 10
238.906
 20
197.503
 11
238.719
 21
197.527
  0
LINE
  8
0
 10
238.719
 20
197.527
 11
238.536
 21
197.573
  0
LINE
  8
0
 10
238.536
 20
197.573
 11
238.361
 21
197.643
  0
LINE
  8
0
 10
238.361
 20
197.643
 11
238.196
 21
197.734
  0
LINE
  8
0
 10
238.196
 20
197.734
 11
238.044
 21
197.844
  0
LINE
  8
0
 10
238.044
 20
197.844
 11
237.907
 21
197.973
  0
LINE
  8
0
 10
237.907
 20
197.973
 11
237.786
 21
198.118
  0
LINE
  8
0
 10
237.786
 20
198.118
 11
237.686
 21
198.277
  0
LINE
  8
0
 10
237.686
 20
198.277
 11
237.605
 21
198.448
  0
LINE
  8
0
 10
237.605
 20
198.448
 11
237.547
 21
198.627
  0
LINE
  8
0
 10
237.547
 20
198.627
 11
237.512
 21
198.812
  0
LINE
  8
0
 10
237.512
 20
198.812
 11
237.5
 21
199
  0
LINE
  8
0
 10
237.5
 20
199
 11
237.512
 21
199.188
  0
LINE
  8
0
 10
237.512
 20
199.188
 11
237.547
 21
199.373
  0
LINE
  8
0
 10
237.547
 20
199.373
 11
237.605
 21
199.552
  0
LINE
  8
0
 10
237.605
 20
199.552
 11
237.686
 21
199.723
  0
LINE
  8
0
 10
237.686
 20
199.723
 11
237.786
 21
199.882
  0
LINE
  8
0
 10
237.786
 20
199.882
 11
237.907
 21
200.027
  0
LINE
  8
0
 10
237.907
 20
200.027
 11
238.044
 21
200.156
  0
LINE
  8
0
 10
238.044
 20
200.156
 11
238.196
 21
200.266
  0
LINE
  8
0
 10
238.196
 20
200.266
 11
238.361
 21
200.357
  0
LINE
  8
0
 10
238.361
 20
200.357
 11
238.536
 21
200.427
  0
LINE
  8
0
 10
238.536
 20
200.427
 11
238.719
 21
200.473
  0
LINE
  8
0
 10
238.719
 20
200.473
 11
238.906
 21
200.497
  0
LINE
  8
0
 10
238.906
 20
200.497
 11
239.094
 21
200.497
  0
LINE
  8
0
 10
239.094
 20
200.497
 11
239.281
 21
200.473
  0
LINE
  8
0
 10
239.281
 20
200.473
 11
239.464
 21
200.427
  0
LINE
  8
0
 10
239.464
 20
200.427
 11
239.639
 21
200.357
  0
LINE
  8
0
 10
239.639
 20
200.357
 11
239.804
 21
200.266
  0
LINE
  8
0
 10
239.804
 20
200.266
 11
239.956
 21
200.156
  0
LINE
  8
0
 10
239.956
 20
200.156
 11
240.093
 21
200.027
  0
LINE
  8
0
 10
240.093
 20
200.027
 11
240.214
 21
199.882
  0
LINE
  8
0
 10
240.214
 20
199.882
 11
240.314
 21
199.723
  0
LINE
  8
0
 10
240.314
 20
199.723
 11
240.395
 21
199.552
  0
LINE
  8
0
 10
240.395
 20
199.552
 11
240.453
 21
199.373
  0
LINE
  8
0
 10
240.453
 20
199.373
 11
240.488
 21
199.188
  0
LINE
  8
0
 10
240.488
 20
199.188
 11
240.5
 21
199
  0
LINE
  8
0
 10
240.5
 20
199
 11
240.488
 21
198.812
  0
LINE
  8
0
 10
240.488
 20
198.812
 11
240.453
 21
198.627
  0
LINE
  8
0
 10
240.453
 20
198.627
 11
240.395
 21
198.448
  0
LINE
  8
0
 10
240.395
 20
198.448
 11
240.314
 21
198.277
  0
LINE
  8
0
 10
240.314
 20
198.277
 11
240.214
 21
198.118
  0
LINE
  8
0
 10
240.214
 20
198.118
 11
240.093
 21
197.973
  0
LINE
  8
0
 10
240.093
 20
197.973
 11
239.956
 21
197.844
  0
LINE
  8
0
 10
239.956
 20
197.844
 11
239.804
 21
197.734
  0
LINE
  8
0
 10
239.804
 20
197.734
 11
239.639
 21
197.643
  0
LINE
  8
0
 10
239.639
 20
197.643
 11
239.464
 21
197.573
  0
LINE
  8
0
 10
239.464
 20
197.573
 11
239.281
 21
197.527
  0
LINE
  8
0
 10
239.281
 20
197.527
 11
239.094
 21
197.503
  0
LINE
  8
0
 10
239.094
 20
197.503
 11
238.906
 21
197.503
  0
LINE
  8
0
 10
96.9058
 20
167.503
 11
96.7189
 21
167.527
  0
LINE
  8
0
 10
96.7189
 20
167.527
 11
96.5365
 21
167.573
  0
LINE
  8
0
 10
96.5365
 20
167.573
 11
96.3613
 21
167.643
  0
LINE
  8
0
 10
96.3613
 20
167.643
 11
96.1963
 21
167.734
  0
LINE
  8
0
 10
96.1963
 20
167.734
 11
96.0439
 21
167.844
  0
LINE
  8
0
 10
96.0439
 20
167.844
 11
95.9066
 21
167.973
  0
LINE
  8
0
 10
95.9066
 20
167.973
 11
95.7865
 21
168.118
  0
LINE
  8
0
 10
95.7865
 20
168.118
 11
95.6855
 21
168.277
  0
LINE
  8
0
 10
95.6855
 20
168.277
 11
95.6053
 21
168.448
  0
LINE
  8
0
 10
95.6053
 20
168.448
 11
95.5471
 21
168.627
  0
LINE
  8
0
 10
95.5471
 20
168.627
 11
95.5118
 21
168.812
  0
LINE
  8
0
 10
95.5118
 20
168.812
 11
95.5
 21
169
  0
LINE
  8
0
 10
95.5
 20
169
 11
95.5118
 21
169.188
  0
LINE
  8
0
 10
95.5118
 20
169.188
 11
95.5471
 21
169.373
  0
LINE
  8
0
 10
95.5471
 20
169.373
 11
95.6053
 21
169.552
  0
LINE
  8
0
 10
95.6053
 20
169.552
 11
95.6855
 21
169.723
  0
LINE
  8
0
 10
95.6855
 20
169.723
 11
95.7865
 21
169.882
  0
LINE
  8
0
 10
95.7865
 20
169.882
 11
95.9066
 21
170.027
  0
LINE
  8
0
 10
95.9066
 20
170.027
 11
96.0439
 21
170.156
  0
LINE
  8
0
 10
96.0439
 20
170.156
 11
96.1963
 21
170.266
  0
LINE
  8
0
 10
96.1963
 20
170.266
 11
96.3613
 21
170.357
  0
LINE
  8
0
 10
96.3613
 20
170.357
 11
96.5365
 21
170.427
  0
LINE
  8
0
 10
96.5365
 20
170.427
 11
96.7189
 21
170.473
  0
LINE
  8
0
 10
96.7189
 20
170.473
 11
96.9058
 21
170.497
  0
LINE
  8
0
 10
96.9058
 20
170.497
 11
97.0942
 21
170.497
  0
LINE
  8
0
 10
97.0942
 20
170.497
 11
97.2811
 21
170.473
  0
LINE
  8
0
 10
97.2811
 20
170.473
 11
97.4635
 21
170.427
  0
LINE
  8
0
 10
97.4635
 20
170.427
 11
97.6387
 21
170.357
  0
LINE
  8
0
 10
97.6387
 20
170.357
 11
97.8037
 21
170.266
  0
LINE
  8
0
 10
97.8037
 20
170.266
 11
97.9561
 21
170.156
  0
LINE
  8
0
 10
97.9561
 20
170.156
 11
98.0935
 21
170.027
  0
LINE
  8
0
 10
98.0935
 20
170.027
 11
98.2135
 21
169.882
  0
LINE
  8
0
 10
98.2135
 20
169.882
 11
98.3145
 21
169.723
  0
LINE
  8
0
 10
98.3145
 20
169.723
 11
98.3947
 21
169.552
  0
LINE
  8
0
 10
98.3947
 20
169.552
 11
98.4529
 21
169.373
  0
LINE
  8
0
 10
98.4529
 20
169.373
 11
98.4882
 21
169.188
  0
LINE
  8
0
 10
98.4882
 20
169.188
 11
98.5
 21
169
  0
LINE
  8
0
 10
98.5
 20
169
 11
98.4882
 21
168.812
  0
LINE
  8
0
 10
98.4882
 20
168.812
 11
98.4529
 21
168.627
  0
LINE
  8
0
 10
98.4529
 20
168.627
 11
98.3947
 21
168.448
  0
LINE
  8
0
 10
98.3947
 20
168.448
 11
98.3145
 21
168.277
  0
LINE
  8
0
 10
98.3145
 20
168.277
 11
98.2135
 21
168.118
  0
LINE
  8
0
 10
98.2135
 20
168.118
 11
98.0935
 21
167.973
  0
LINE
  8
0
 10
98.0935
 20
167.973
 11
97.9561
 21
167.844
  0
LINE
  8
0
 10
97.9561
 20
167.844
 11
97.8037
 21
167.734
  0
LINE
  8
0
 10
97.8037
 20
167.734
 11
97.6387
 21
167.643
  0
LINE
  8
0
 10
97.6387
 20
167.643
 11
97.4635
 21
167.573
  0
LINE
  8
0
 10
97.4635
 20
167.573
 11
97.2811
 21
167.527
  0
LINE
  8
0
 10
97.2811
 20
167.527
 11
97.0942
 21
167.503
  0
LINE
  8
0
 10
97.0942
 20
167.503
 11
96.9058
 21
167.503
  0
LINE
  8
0
 10
320.906
 20
167.503
 11
320.719
 21
167.527
  0
LINE
  8
0
 10
320.719
 20
167.527
 11
320.536
 21
167.573
  0
LINE
  8
0
 10
320.536
 20
167.573
 11
320.361
 21
167.643
  0
LINE
  8
0
 10
320.361
 20
167.643
 11
320.196
 21
167.734
  0
LINE
  8
0
 10
320.196
 20
167.734
 11
320.044
 21
167.844
  0
LINE
  8
0
 10
320.044
 20
167.844
 11
319.907
 21
167.973
  0
LINE
  8
0
 10
319.907
 20
167.973
 11
319.786
 21
168.118
  0
LINE
  8
0
 10
319.786
 20
168.118
 11
319.686
 21
168.277
  0
LINE
  8
0
 10
319.686
 20
168.277
 11
319.605
 21
168.448
  0
LINE
  8
0
 10
319.605
 20
168.448
 11
319.547
 21
168.627
  0
LINE
  8
0
 10
319.547
 20
168.627
 11
319.512
 21
168.812
  0
LINE
  8
0
 10
319.512
 20
168.812
 11
319.5
 21
169
  0
LINE
  8
0
 10
319.5
 20
169
 11
319.512
 21
169.188
  0
LINE
  8
0
 10
319.512
 20
169.188
 11
319.547
 21
169.373
  0
LINE
  8
0
 10
319.547
 20
169.373
 11
319.605
 21
169.552
  0
LINE
  8
0
 10
319.605
 20
169.552
 11
319.686
 21
169.723
  0
LINE
  8
0
 10
319.686
 20
169.723
 11
319.786
 21
169.882
  0
LINE
  8
0
 10
319.786
 20
169.882
 11
319.907
 21
170.027
  0
LINE
  8
0
 10
319.907
 20
170.027
 11
320.044
 21
170.156
  0
LINE
  8
0
 10
320.044
 20
170.156
 11
320.196
 21
170.266
  0
LINE
  8
0
 10
320.196
 20
170.266
 11
320.361
 21
170.357
  0
LINE
  8
0
 10
320.361
 20
170.357
 11
320.536
 21
170.427
  0
LINE
  8
0
 10
320.536
 20
170.427
 11
320.719
 21
170.473
  0
LINE
  8
0
 10
320.719
 20
170.473
 11
320.906
 21
170.497
  0
LINE
  8
0
 10
320.906
 20
170.497
 11
321.094
 21
170.497
  0
LINE
  8
0
 10
321.094
 20
170.497
 11
321.281
 21
170.473
  0
LINE
  8
0
 10
321.281
 20
170.473
 11
321.464
 21
170.427
  0
LINE
  8
0
 10
321.464
 20
170.427
 11
321.639
 21
170.357
  0
LINE
  8
0
 10
321.639
 20
170.357
 11
321.804
 21
170.266
  0
LINE
  8
0
 10
321.804
 20
170.266
 11
321.956
 21
170.156
  0
LINE
  8
0
 10
321.956
 20
170.156
 11
322.093
 21
170.027
  0
LINE
  8
0
 10
322.093
 20
170.027
 11
322.214
 21
169.882
  0
LINE
  8
0
 10
322.214
 20
169.882
 11
322.314
 21
169.723
  0
LINE
  8
0
 10
322.314
 20
169.723
 11
322.395
 21
169.552
  0
LINE
  8
0
 10
322.395
 20
169.552
 11
322.453
 21
169.373
  0
LINE
  8
0
 10
322.453
 20
169.373
 11
322.488
 21
169.188
  0
LINE
  8
0
 10
322.488
 20
169.188
 11
322.5
 21
169
  0
LINE
  8
0
 10
322.5
 20
169
 11
322.488
 21
168.812
  0
LINE
  8
0
 10
322.488
 20
168.812
 11
322.453
 21
168.627
  0
LINE
  8
0
 10
322.453
 20
168.627
 11
322.395
 21
168.448
  0
LINE
  8
0
 10
322.395
 20
168.448
 11
322.314
 21
168.277
  0
LINE
  8
0
 10
322.314
 20
168.277
 11
322.214
 21
168.118
  0
LINE
  8
0
 10
322.214
 20
168.118
 11
322.093
 21
167.973
  0
LINE
  8
0
 10
322.093
 20
167.973
 11
321.956
 21
167.844
  0
LINE
  8
0
 10
321.956
 20
167.844
 11
321.804
 21
167.734
  0
LINE
  8
0
 10
321.804
 20
167.734
 11
321.639
 21
167.643
  0
LINE
  8
0
 10
321.639
 20
167.643
 11
321.464
 21
167.573
  0
LINE
  8
0
 10
321.464
 20
167.573
 11
321.281
 21
167.527
  0
LINE
  8
0
 10
321.281
 20
167.527
 11
321.094
 21
167.503
  0
LINE
  8
0
 10
321.094
 20
167.503
 11
320.906
 21
167.503
  0
LINE
  8
0
 10
432.906
 20
167.503
 11
432.719
 21
167.527
  0
LINE
  8
0
 10
432.719
 20
167.527
 11
432.536
 21
167.573
  0
LINE
  8
0
 10
432.536
 20
167.573
 11
432.361
 21
167.643
  0
LINE
  8
0
 10
432.361
 20
167.643
 11
432.196
 21
167.734
  0
LINE
  8
0
 10
432.196
 20
167.734
 11
432.044
 21
167.844
  0
LINE
  8
0
 10
432.044
 20
167.844
 11
431.907
 21
167.973
  0
LINE
  8
0
 10
431.907
 20
167.973
 11
431.786
 21
168.118
  0
LINE
  8
0
 10
431.786
 20
168.118
 11
431.686
 21
168.277
  0
LINE
  8
0
 10
431.686
 20
168.277
 11
431.605
 21
168.448
  0
LINE
  8
0
 10
431.605
 20
168.448
 11
431.547
 21
168.627
  0
LINE
  8
0
 10
431.547
 20
168.627
 11
431.512
 21
168.812
  0
LINE
  8
0
 10
431.512
 20
168.812
 11
431.5
 21
169
  0
LINE
  8
0
 10
431.5
 20
169
 11
431.512
 21
169.188
  0
LINE
  8
0
 10
431.512
 20
169.188
 11
431.547
 21
169.373
  0
LINE
  8
0
 10
431.547
 20
169.373
 11
431.605
 21
169.552
  0
LINE
  8
0
 10
431.605
 20
169.552
 11
431.686
 21
169.723
  0
LINE
  8
0
 10
431.686
 20
169.723
 11
431.786
 21
169.882
  0
LINE
  8
0
 10
431.786
 20
169.882
 11
431.907
 21
170.027
  0
LINE
  8
0
 10
431.907
 20
170.027
 11
432.044
 21
170.156
  0
LINE
  8
0
 10
432.044
 20
170.156
 11
432.196
 21
170.266
  0
LINE
  8
0
 10
432.196
 20
170.266
 11
432.361
 21
170.357
  0
LINE
  8
0
 10
432.361
 20
170.357
 11
432.536
 21
170.427
  0
LINE
  8
0
 10
432.536
 20
170.427
 11
432.719
 21
170.473
  0
LINE
  8
0
 10
432.719
 20
170.473
 11
432.906
 21
170.497
  0
LINE
  8
0
 10
432.906
 20
170.497
 11
433.094
 21
170.497
  0
LINE
  8
0
 10
433.094
 20
170.497
 11
433.281
 21
170.473
  0
LINE
  8
0
 10
433.281
 20
170.473
 11
433.464
 21
170.427
  0
LINE
  8
0
 10
433.464
 20
170.427
 11
433.639
 21
170.357
  0
LINE
  8
0
 10
433.639
 20
170.357
 11
433.804
 21
170.266
  0
LINE
  8
0
 10
433.804
 20
170.266
 11
433.956
 21
170.156
  0
LINE
  8
0
 10
433.956
 20
170.156
 11
434.093
 21
170.027
  0
LINE
  8
0
 10
434.093
 20
170.027
 11
434.214
 21
169.882
  0
LINE
  8
0
 10
434.214
 20
169.882
 11
434.314
 21
169.723
  0
LINE
  8
0
 10
434.314
 20
169.723
 11
434.395
 21
169.552
  0
LINE
  8
0
 10
434.395
 20
169.552
 11
434.453
 21
169.373
  0
LINE
  8
0
 10
434.453
 20
169.373
 11
434.488
 21
169.188
  0
LINE
  8
0
 10
434.488
 20
169.188
 11
434.5
 21
169
  0
LINE
  8
0
 10
434.5
 20
169
 11
434.488
 21
168.812
  0
LINE
  8
0
 10
434.488
 20
168.812
 11
434.453
 21
168.627
  0
LINE
  8
0
 10
434.453
 20
168.627
 11
434.395
 21
168.448
  0
LINE
  8
0
 10
434.395
 20
168.448
 11
434.314
 21
168.277
  0
LINE
  8
0
 10
434.314
 20
168.277
 11
434.214
 21
168.118
  0
LINE
  8
0
 10
434.214
 20
168.118
 11
434.093
 21
167.973
  0
LINE
  8
0
 10
434.093
 20
167.973
 11
433.956
 21
167.844
  0
LINE
  8
0
 10
433.956
 20
167.844
 11
433.804
 21
167.734
  0
LINE
  8
0
 10
433.804
 20
167.734
 11
433.639
 21
167.643
  0
LINE
  8
0
 10
433.639
 20
167.643
 11
433.464
 21
167.573
  0
LINE
  8
0
 10
433.464
 20
167.573
 11
433.281
 21
167.527
  0
LINE
  8
0
 10
433.281
 20
167.527
 11
433.094
 21
167.503
  0
LINE
  8
0
 10
433.094
 20
167.503
 11
432.906
 21
167.503
  0
LINE
  8
0
 10
-15.0942
 20
167.503
 11
-15.2811
 21
167.527
  0
LINE
  8
0
 10
-15.2811
 20
167.527
 11
-15.4635
 21
167.573
  0
LINE
  8
0
 10
-15.4635
 20
167.573
 11
-15.6387
 21
167.643
  0
LINE
  8
0
 10
-15.6387
 20
167.643
 11
-15.8037
 21
167.734
  0
LINE
  8
0
 10
-15.8037
 20
167.734
 11
-15.9561
 21
167.844
  0
LINE
  8
0
 10
-15.9561
 20
167.844
 11
-16.0934
 21
167.973
  0
LINE
  8
0
 10
-16.0934
 20
167.973
 11
-16.2135
 21
168.118
  0
LINE
  8
0
 10
-16.2135
 20
168.118
 11
-16.3145
 21
168.277
  0
LINE
  8
0
 10
-16.3145
 20
168.277
 11
-16.3947
 21
168.448
  0
LINE
  8
0
 10
-16.3947
 20
168.448
 11
-16.4529
 21
168.627
  0
LINE
  8
0
 10
-16.4529
 20
168.627
 11
-16.4882
 21
168.812
  0
LINE
  8
0
 10
-16.4882
 20
168.812
 11
-16.5
 21
169
  0
LINE
  8
0
 10
-16.5
 20
169
 11
-16.4882
 21
169.188
  0
LINE
  8
0
 10
-16.4882
 20
169.188
 11
-16.4529
 21
169.373
  0
LINE
  8
0
 10
-16.4529
 20
169.373
 11
-16.3947
 21
169.552
  0
LINE
  8
0
 10
-16.3947
 20
169.552
 11
-16.3145
 21
169.723
  0
LINE
  8
0
 10
-16.3145
 20
169.723
 11
-16.2135
 21
169.882
  0
LINE
  8
0
 10
-16.2135
 20
169.882
 11
-16.0934
 21
170.027
  0
LINE
  8
0
 10
-16.0934
 20
170.027
 11
-15.9561
 21
170.156
  0
LINE
  8
0
 10
-15.9561
 20
170.156
 11
-15.8037
 21
170.266
  0
LINE
  8
0
 10
-15.8037
 20
170.266
 11
-15.6387
 21
170.357
  0
LINE
  8
0
 10
-15.6387
 20
170.357
 11
-15.4635
 21
170.427
  0
LINE
  8
0
 10
-15.4635
 20
170.427
 11
-15.2811
 21
170.473
  0
LINE
  8
0
 10
-15.2811
 20
170.473
 11
-15.0942
 21
170.497
  0
LINE
  8
0
 10
-15.0942
 20
170.497
 11
-14.9058
 21
170.497
  0
LINE
  8
0
 10
-14.9058
 20
170.497
 11
-14.7189
 21
170.473
  0
LINE
  8
0
 10
-14.7189
 20
170.473
 11
-14.5365
 21
170.427
  0
LINE
  8
0
 10
-14.5365
 20
170.427
 11
-14.3613
 21
170.357
  0
LINE
  8
0
 10
-14.3613
 20
170.357
 11
-14.1963
 21
170.266
  0
LINE
  8
0
 10
-14.1963
 20
170.266
 11
-14.0439
 21
170.156
  0
LINE
  8
0
 10
-14.0439
 20
170.156
 11
-13.9065
 21
170.027
  0
LINE
  8
0
 10
-13.9065
 20
170.027
 11
-13.7865
 21
169.882
  0
LINE
  8
0
 10
-13.7865
 20
169.882
 11
-13.6855
 21
169.723
  0
LINE
  8
0
 10
-13.6855
 20
169.723
 11
-13.6053
 21
169.552
  0
LINE
  8
0
 10
-13.6053
 20
169.552
 11
-13.5471
 21
169.373
  0
LINE
  8
0
 10
-13.5471
 20
169.373
 11
-13.5118
 21
169.188
  0
LINE
  8
0
 10
-13.5118
 20
169.188
 11
-13.5
 21
169
  0
LINE
  8
0
 10
-13.5
 20
169
 11
-13.5118
 21
168.812
  0
LINE
  8
0
 10
-13.5118
 20
168.812
 11
-13.5471
 21
168.627
  0
LINE
  8
0
 10
-13.5471
 20
168.627
 11
-13.6053
 21
168.448
  0
LINE
  8
0
 10
-13.6053
 20
168.448
 11
-13.6855
 21
168.277
  0
LINE
  8
0
 10
-13.6855
 20
168.277
 11
-13.7865
 21
168.118
  0
LINE
  8
0
 10
-13.7865
 20
168.118
 11
-13.9065
 21
167.973
  0
LINE
  8
0
 10
-13.9065
 20
167.973
 11
-14.0439
 21
167.844
  0
LINE
  8
0
 10
-14.0439
 20
167.844
 11
-14.1963
 21
167.734
  0
LINE
  8
0
 10
-14.1963
 20
167.734
 11
-14.3613
 21
167.643
  0
LINE
  8
0
 10
-14.3613
 20
167.643
 11
-14.5365
 21
167.573
  0
LINE
  8
0
 10
-14.5365
 20
167.573
 11
-14.7189
 21
167.527
  0
LINE
  8
0
 10
-14.7189
 20
167.527
 11
-14.9058
 21
167.503
  0
LINE
  8
0
 10
-14.9058
 20
167.503
 11
-15.0942
 21
167.503
  0
LINE
  8
0
 10
208.906
 20
167.503
 11
208.719
 21
167.527
  0
LINE
  8
0
 10
208.719
 20
167.527
 11
208.536
 21
167.573
  0
LINE
  8
0
 10
208.536
 20
167.573
 11
208.361
 21
167.643
  0
LINE
  8
0
 10
208.361
 20
167.643
 11
208.196
 21
167.734
  0
LINE
  8
0
 10
208.196
 20
167.734
 11
208.044
 21
167.844
  0
LINE
  8
0
 10
208.044
 20
167.844
 11
207.907
 21
167.973
  0
LINE
  8
0
 10
207.907
 20
167.973
 11
207.786
 21
168.118
  0
LINE
  8
0
 10
207.786
 20
168.118
 11
207.686
 21
168.277
  0
LINE
  8
0
 10
207.686
 20
168.277
 11
207.605
 21
168.448
  0
LINE
  8
0
 10
207.605
 20
168.448
 11
207.547
 21
168.627
  0
LINE
  8
0
 10
207.547
 20
168.627
 11
207.512
 21
168.812
  0
LINE
  8
0
 10
207.512
 20
168.812
 11
207.5
 21
169
  0
LINE
  8
0
 10
207.5
 20
169
 11
207.512
 21
169.188
  0
LINE
  8
0
 10
207.512
 20
169.188
 11
207.547
 21
169.373
  0
LINE
  8
0
 10
207.547
 20
169.373
 11
207.605
 21
169.552
  0
LINE
  8
0
 10
207.605
 20
169.552
 11
207.686
 21
169.723
  0
LINE
  8
0
 10
207.686
 20
169.723
 11
207.786
 21
169.882
  0
LINE
  8
0
 10
207.786
 20
169.882
 11
207.907
 21
170.027
  0
LINE
  8
0
 10
207.907
 20
170.027
 11
208.044
 21
170.156
  0
LINE
  8
0
 10
208.044
 20
170.156
 11
208.196
 21
170.266
  0
LINE
  8
0
 10
208.196
 20
170.266
 11
208.361
 21
170.357
  0
LINE
  8
0
 10
208.361
 20
170.357
 11
208.536
 21
170.427
  0
LINE
  8
0
 10
208.536
 20
170.427
 11
208.719
 21
170.473
  0
LINE
  8
0
 10
208.719
 20
170.473
 11
208.906
 21
170.497
  0
LINE
  8
0
 10
208.906
 20
170.497
 11
209.094
 21
170.497
  0
LINE
  8
0
 10
209.094
 20
170.497
 11
209.281
 21
170.473
  0
LINE
  8
0
 10
209.281
 20
170.473
 11
209.464
 21
170.427
  0
LINE
  8
0
 10
209.464
 20
170.427
 11
209.639
 21
170.357
  0
LINE
  8
0
 10
209.639
 20
170.357
 11
209.804
 21
170.266
  0
LINE
  8
0
 10
209.804
 20
170.266
 11
209.956
 21
170.156
  0
LINE
  8
0
 10
209.956
 20
170.156
 11
210.093
 21
170.027
  0
LINE
  8
0
 10
210.093
 20
170.027
 11
210.214
 21
169.882
  0
LINE
  8
0
 10
210.214
 20
169.882
 11
210.314
 21
169.723
  0
LINE
  8
0
 10
210.314
 20
169.723
 11
210.395
 21
169.552
  0
LINE
  8
0
 10
210.395
 20
169.552
 11
210.453
 21
169.373
  0
LINE
  8
0
 10
210.453
 20
169.373
 11
210.488
 21
169.188
  0
LINE
  8
0
 10
210.488
 20
169.188
 11
210.5
 21
169
  0
LINE
  8
0
 10
210.5
 20
169
 11
210.488
 21
168.812
  0
LINE
  8
0
 10
210.488
 20
168.812
 11
210.453
 21
168.627
  0
LINE
  8
0
 10
210.453
 20
168.627
 11
210.395
 21
168.448
  0
LINE
  8
0
 10
210.395
 20
168.448
 11
210.314
 21
168.277
  0
LINE
  8
0
 10
210.314
 20
168.277
 11
210.214
 21
168.118
  0
LINE
  8
0
 10
210.214
 20
168.118
 11
210.093
 21
167.973
  0
LINE
  8
0
 10
210.093
 20
167.973
 11
209.956
 21
167.844
  0
LINE
  8
0
 10
209.956
 20
167.844
 11
209.804
 21
167.734
  0
LINE
  8
0
 10
209.804
 20
167.734
 11
209.639
 21
167.643
  0
LINE
  8
0
 10
209.639
 20
167.643
 11
209.464
 21
167.573
  0
LINE
  8
0
 10
209.464
 20
167.573
 11
209.281
 21
167.527
  0
LINE
  8
0
 10
209.281
 20
167.527
 11
209.094
 21
167.503
  0
LINE
  8
0
 10
209.094
 20
167.503
 11
208.906
 21
167.503
  0
LINE
  8
0
 10
350.906
 20
105.503
 11
350.719
 21
105.527
  0
LINE
  8
0
 10
350.719
 20
105.527
 11
350.536
 21
105.573
  0
LINE
  8
0
 10
350.536
 20
105.573
 11
350.361
 21
105.643
  0
LINE
  8
0
 10
350.361
 20
105.643
 11
350.196
 21
105.734
  0
LINE
  8
0
 10
350.196
 20
105.734
 11
350.044
 21
105.844
  0
LINE
  8
0
 10
350.044
 20
105.844
 11
349.907
 21
105.973
  0
LINE
  8
0
 10
349.907
 20
105.973
 11
349.786
 21
106.118
  0
LINE
  8
0
 10
349.786
 20
106.118
 11
349.686
 21
106.277
  0
LINE
  8
0
 10
349.686
 20
106.277
 11
349.605
 21
106.448
  0
LINE
  8
0
 10
349.605
 20
106.448
 11
349.547
 21
106.627
  0
LINE
  8
0
 10
349.547
 20
106.627
 11
349.512
 21
106.812
  0
LINE
  8
0
 10
349.512
 20
106.812
 11
349.5
 21
107
  0
LINE
  8
0
 10
349.5
 20
107
 11
349.512
 21
107.188
  0
LINE
  8
0
 10
349.512
 20
107.188
 11
349.547
 21
107.373
  0
LINE
  8
0
 10
349.547
 20
107.373
 11
349.605
 21
107.552
  0
LINE
  8
0
 10
349.605
 20
107.552
 11
349.686
 21
107.723
  0
LINE
  8
0
 10
349.686
 20
107.723
 11
349.786
 21
107.882
  0
LINE
  8
0
 10
349.786
 20
107.882
 11
349.907
 21
108.027
  0
LINE
  8
0
 10
349.907
 20
108.027
 11
350.044
 21
108.156
  0
LINE
  8
0
 10
350.044
 20
108.156
 11
350.196
 21
108.266
  0
LINE
  8
0
 10
350.196
 20
108.266
 11
350.361
 21
108.357
  0
LINE
  8
0
 10
350.361
 20
108.357
 11
350.536
 21
108.427
  0
LINE
  8
0
 10
350.536
 20
108.427
 11
350.719
 21
108.473
  0
LINE
  8
0
 10
350.719
 20
108.473
 11
350.906
 21
108.497
  0
LINE
  8
0
 10
350.906
 20
108.497
 11
351.094
 21
108.497
  0
LINE
  8
0
 10
351.094
 20
108.497
 11
351.281
 21
108.473
  0
LINE
  8
0
 10
351.281
 20
108.473
 11
351.464
 21
108.427
  0
LINE
  8
0
 10
351.464
 20
108.427
 11
351.639
 21
108.357
  0
LINE
  8
0
 10
351.639
 20
108.357
 11
351.804
 21
108.266
  0
LINE
  8
0
 10
351.804
 20
108.266
 11
351.956
 21
108.156
  0
LINE
  8
0
 10
351.956
 20
108.156
 11
352.093
 21
108.027
  0
LINE
  8
0
 10
352.093
 20
108.027
 11
352.214
 21
107.882
  0
LINE
  8
0
 10
352.214
 20
107.882
 11
352.314
 21
107.723
  0
LINE
  8
0
 10
352.314
 20
107.723
 11
352.395
 21
107.552
  0
LINE
  8
0
 10
352.395
 20
107.552
 11
352.453
 21
107.373
  0
LINE
  8
0
 10
352.453
 20
107.373
 11
352.488
 21
107.188
  0
LINE
  8
0
 10
352.488
 20
107.188
 11
352.5
 21
107
  0
LINE
  8
0
 10
352.5
 20
107
 11
352.488
 21
106.812
  0
LINE
  8
0
 10
352.488
 20
106.812
 11
352.453
 21
106.627
  0
LINE
  8
0
 10
352.453
 20
106.627
 11
352.395
 21
106.448
  0
LINE
  8
0
 10
352.395
 20
106.448
 11
352.314
 21
106.277
  0
LINE
  8
0
 10
352.314
 20
106.277
 11
352.214
 21
106.118
  0
LINE
  8
0
 10
352.214
 20
106.118
 11
352.093
 21
105.973
  0
LINE
  8
0
 10
352.093
 20
105.973
 11
351.956
 21
105.844
  0
LINE
  8
0
 10
351.956
 20
105.844
 11
351.804
 21
105.734
  0
LINE
  8
0
 10
351.804
 20
105.734
 11
351.639
 21
105.643
  0
LINE
  8
0
 10
351.639
 20
105.643
 11
351.464
 21
105.573
  0
LINE
  8
0
 10
351.464
 20
105.573
 11
351.281
 21
105.527
  0
LINE
  8
0
 10
351.281
 20
105.527
 11
351.094
 21
105.503
  0
LINE
  8
0
 10
351.094
 20
105.503
 11
350.906
 21
105.503
  0
LINE
  8
0
 10
462.906
 20
105.503
 11
462.719
 21
105.527
  0
LINE
  8
0
 10
462.719
 20
105.527
 11
462.536
 21
105.573
  0
LINE
  8
0
 10
462.536
 20
105.573
 11
462.361
 21
105.643
  0
LINE
  8
0
 10
462.361
 20
105.643
 11
462.196
 21
105.734
  0
LINE
  8
0
 10
462.196
 20
105.734
 11
462.044
 21
105.844
  0
LINE
  8
0
 10
462.044
 20
105.844
 11
461.907
 21
105.973
  0
LINE
  8
0
 10
461.907
 20
105.973
 11
461.786
 21
106.118
  0
LINE
  8
0
 10
461.786
 20
106.118
 11
461.686
 21
106.277
  0
LINE
  8
0
 10
461.686
 20
106.277
 11
461.605
 21
106.448
  0
LINE
  8
0
 10
461.605
 20
106.448
 11
461.547
 21
106.627
  0
LINE
  8
0
 10
461.547
 20
106.627
 11
461.512
 21
106.812
  0
LINE
  8
0
 10
461.512
 20
106.812
 11
461.5
 21
107
  0
LINE
  8
0
 10
461.5
 20
107
 11
461.512
 21
107.188
  0
LINE
  8
0
 10
461.512
 20
107.188
 11
461.547
 21
107.373
  0
LINE
  8
0
 10
461.547
 20
107.373
 11
461.605
 21
107.552
  0
LINE
  8
0
 10
461.605
 20
107.552
 11
461.686
 21
107.723
  0
LINE
  8
0
 10
461.686
 20
107.723
 11
461.786
 21
107.882
  0
LINE
  8
0
 10
461.786
 20
107.882
 11
461.907
 21
108.027
  0
LINE
  8
0
 10
461.907
 20
108.027
 11
462.044
 21
108.156
  0
LINE
  8
0
 10
462.044
 20
108.156
 11
462.196
 21
108.266
  0
LINE
  8
0
 10
462.196
 20
108.266
 11
462.361
 21
108.357
  0
LINE
  8
0
 10
462.361
 20
108.357
 11
462.536
 21
108.427
  0
LINE
  8
0
 10
462.536
 20
108.427
 11
462.719
 21
108.473
  0
LINE
  8
0
 10
462.719
 20
108.473
 11
462.906
 21
108.497
  0
LINE
  8
0
 10
462.906
 20
108.497
 11
463.094
 21
108.497
  0
LINE
  8
0
 10
463.094
 20
108.497
 11
463.281
 21
108.473
  0
LINE
  8
0
 10
463.281
 20
108.473
 11
463.464
 21
108.427
  0
LINE
  8
0
 10
463.464
 20
108.427
 11
463.639
 21
108.357
  0
LINE
  8
0
 10
463.639
 20
108.357
 11
463.804
 21
108.266
  0
LINE
  8
0
 10
463.804
 20
108.266
 11
463.956
 21
108.156
  0
LINE
  8
0
 10
463.956
 20
108.156
 11
464.093
 21
108.027
  0
LINE
  8
0
 10
464.093
 20
108.027
 11
464.214
 21
107.882
  0
LINE
  8
0
 10
464.214
 20
107.882
 11
464.314
 21
107.723
  0
LINE
  8
0
 10
464.314
 20
107.723
 11
464.395
 21
107.552
  0
LINE
  8
0
 10
464.395
 20
107.552
 11
464.453
 21
107.373
  0
LINE
  8
0
 10
464.453
 20
107.373
 11
464.488
 21
107.188
  0
LINE
  8
0
 10
464.488
 20
107.188
 11
464.5
 21
107
  0
LINE
  8
0
 10
464.5
 20
107
 11
464.488
 21
106.812
  0
LINE
  8
0
 10
464.488
 20
106.812
 11
464.453
 21
106.627
  0
LINE
  8
0
 10
464.453
 20
106.627
 11
464.395
 21
106.448
  0
LINE
  8
0
 10
464.395
 20
106.448
 11
464.314
 21
106.277
  0
LINE
  8
0
 10
464.314
 20
106.277
 11
464.214
 21
106.118
  0
LINE
  8
0
 10
464.214
 20
106.118
 11
464.093
 21
105.973
  0
LINE
  8
0
 10
464.093
 20
105.973
 11
463.956
 21
105.844
  0
LINE
  8
0
 10
463.956
 20
105.844
 11
463.804
 21
105.734
  0
LINE
  8
0
 10
463.804
 20
105.734
 11
463.639
 21
105.643
  0
LINE
  8
0
 10
463.639
 20
105.643
 11
463.464
 21
105.573
  0
LINE
  8
0
 10
463.464
 20
105.573
 11
463.281
 21
105.527
  0
LINE
  8
0
 10
463.281
 20
105.527
 11
463.094
 21
105.503
  0
LINE
  8
0
 10
463.094
 20
105.503
 11
462.906
 21
105.503
  0
LINE
  8
0
 10
238.906
 20
105.503
 11
238.719
 21
105.527
  0
LINE
  8
0
 10
238.719
 20
105.527
 11
238.536
 21
105.573
  0
LINE
  8
0
 10
238.536
 20
105.573
 11
238.361
 21
105.643
  0
LINE
  8
0
 10
238.361
 20
105.643
 11
238.196
 21
105.734
  0
LINE
  8
0
 10
238.196
 20
105.734
 11
238.044
 21
105.844
  0
LINE
  8
0
 10
238.044
 20
105.844
 11
237.907
 21
105.973
  0
LINE
  8
0
 10
237.907
 20
105.973
 11
237.786
 21
106.118
  0
LINE
  8
0
 10
237.786
 20
106.118
 11
237.686
 21
106.277
  0
LINE
  8
0
 10
237.686
 20
106.277
 11
237.605
 21
106.448
  0
LINE
  8
0
 10
237.605
 20
106.448
 11
237.547
 21
106.627
  0
LINE
  8
0
 10
237.547
 20
106.627
 11
237.512
 21
106.812
  0
LINE
  8
0
 10
237.512
 20
106.812
 11
237.5
 21
107
  0
LINE
  8
0
 10
237.5
 20
107
 11
237.512
 21
107.188
  0
LINE
  8
0
 10
237.512
 20
107.188
 11
237.547
 21
107.373
  0
LINE
  8
0
 10
237.547
 20
107.373
 11
237.605
 21
107.552
  0
LINE
  8
0
 10
237.605
 20
107.552
 11
237.686
 21
107.723
  0
LINE
  8
0
 10
237.686
 20
107.723
 11
237.786
 21
107.882
  0
LINE
  8
0
 10
237.786
 20
107.882
 11
237.907
 21
108.027
  0
LINE
  8
0
 10
237.907
 20
108.027
 11
238.044
 21
108.156
  0
LINE
  8
0
 10
238.044
 20
108.156
 11
238.196
 21
108.266
  0
LINE
  8
0
 10
238.196
 20
108.266
 11
238.361
 21
108.357
  0
LINE
  8
0
 10
238.361
 20
108.357
 11
238.536
 21
108.427
  0
LINE
  8
0
 10
238.536
 20
108.427
 11
238.719
 21
108.473
  0
LINE
  8
0
 10
238.719
 20
108.473
 11
238.906
 21
108.497
  0
LINE
  8
0
 10
238.906
 20
108.497
 11
239.094
 21
108.497
  0
LINE
  8
0
 10
239.094
 20
108.497
 11
239.281
 21
108.473
  0
LINE
  8
0
 10
239.281
 20
108.473
 11
239.464
 21
108.427
  0
LINE
  8
0
 10
239.464
 20
108.427
 11
239.639
 21
108.357
  0
LINE
  8
0
 10
239.639
 20
108.357
 11
239.804
 21
108.266
  0
LINE
  8
0
 10
239.804
 20
108.266
 11
239.956
 21
108.156
  0
LINE
  8
0
 10
239.956
 20
108.156
 11
240.093
 21
108.027
  0
LINE
  8
0
 10
240.093
 20
108.027
 11
240.214
 21
107.882
  0
LINE
  8
0
 10
240.214
 20
107.882
 11
240.314
 21
107.723
  0
LINE
  8
0
 10
240.314
 20
107.723
 11
240.395
 21
107.552
  0
LINE
  8
0
 10
240.395
 20
107.552
 11
240.453
 21
107.373
  0
LINE
  8
0
 10
240.453
 20
107.373
 11
240.488
 21
107.188
  0
LINE
  8
0
 10
240.488
 20
107.188
 11
240.5
 21
107
  0
LINE
  8
0
 10
240.5
 20
107
 11
240.488
 21
106.812
  0
LINE
  8
0
 10
240.488
 20
106.812
 11
240.453
 21
106.627
  0
LINE
  8
0
 10
240.453
 20
106.627
 11
240.395
 21
106.448
  0
LINE
  8
0
 10
240.395
 20
106.448
 11
240.314
 21
106.277
  0
LINE
  8
0
 10
240.314
 20
106.277
 11
240.214
 21
106.118
  0
LINE
  8
0
 10
240.214
 20
106.118
 11
240.093
 21
105.973
  0
LINE
  8
0
 10
240.093
 20
105.973
 11
239.956
 21
105.844
  0
LINE
  8
0
 10
239.956
 20
105.844
 11
239.804
 21
105.734
  0
LINE
  8
0
 10
239.804
 20
105.734
 11
239.639
 21
105.643
  0
LINE
  8
0
 10
239.639
 20
105.643
 11
239.464
 21
105.573
  0
LINE
  8
0
 10
239.464
 20
105.573
 11
239.281
 21
105.527
  0
LINE
  8
0
 10
239.281
 20
105.527
 11
239.094
 21
105.503
  0
LINE
  8
0
 10
239.094
 20
105.503
 11
238.906
 21
105.503
  0
LINE
  8
0
 10
14.9058
 20
105.503
 11
14.7189
 21
105.527
  0
LINE
  8
0
 10
14.7189
 20
105.527
 11
14.5365
 21
105.573
  0
LINE
  8
0
 10
14.5365
 20
105.573
 11
14.3613
 21
105.643
  0
LINE
  8
0
 10
14.3613
 20
105.643
 11
14.1963
 21
105.734
  0
LINE
  8
0
 10
14.1963
 20
105.734
 11
14.0439
 21
105.844
  0
LINE
  8
0
 10
14.0439
 20
105.844
 11
13.9065
 21
105.973
  0
LINE
  8
0
 10
13.9065
 20
105.973
 11
13.7865
 21
106.118
  0
LINE
  8
0
 10
13.7865
 20
106.118
 11
13.6855
 21
106.277
  0
LINE
  8
0
 10
13.6855
 20
106.277
 11
13.6053
 21
106.448
  0
LINE
  8
0
 10
13.6053
 20
106.448
 11
13.5471
 21
106.627
  0
LINE
  8
0
 10
13.5471
 20
106.627
 11
13.5118
 21
106.812
  0
LINE
  8
0
 10
13.5118
 20
106.812
 11
13.5
 21
107
  0
LINE
  8
0
 10
13.5
 20
107
 11
13.5118
 21
107.188
  0
LINE
  8
0
 10
13.5118
 20
107.188
 11
13.5471
 21
107.373
  0
LINE
  8
0
 10
13.5471
 20
107.373
 11
13.6053
 21
107.552
  0
LINE
  8
0
 10
13.6053
 20
107.552
 11
13.6855
 21
107.723
  0
LINE
  8
0
 10
13.6855
 20
107.723
 11
13.7865
 21
107.882
  0
LINE
  8
0
 10
13.7865
 20
107.882
 11
13.9065
 21
108.027
  0
LINE
  8
0
 10
13.9065
 20
108.027
 11
14.0439
 21
108.156
  0
LINE
  8
0
 10
14.0439
 20
108.156
 11
14.1963
 21
108.266
  0
LINE
  8
0
 10
14.1963
 20
108.266
 11
14.3613
 21
108.357
  0
LINE
  8
0
 10
14.3613
 20
108.357
 11
14.5365
 21
108.427
  0
LINE
  8
0
 10
14.5365
 20
108.427
 11
14.7189
 21
108.473
  0
LINE
  8
0
 10
14.7189
 20
108.473
 11
14.9058
 21
108.497
  0
LINE
  8
0
 10
14.9058
 20
108.497
 11
15.0942
 21
108.497
  0
LINE
  8
0
 10
15.0942
 20
108.497
 11
15.2811
 21
108.473
  0
LINE
  8
0
 10
15.2811
 20
108.473
 11
15.4635
 21
108.427
  0
LINE
  8
0
 10
15.4635
 20
108.427
 11
15.6387
 21
108.357
  0
LINE
  8
0
 10
15.6387
 20
108.357
 11
15.8037
 21
108.266
  0
LINE
  8
0
 10
15.8037
 20
108.266
 11
15.9561
 21
108.156
  0
LINE
  8
0
 10
15.9561
 20
108.156
 11
16.0934
 21
108.027
  0
LINE
  8
0
 10
16.0934
 20
108.027
 11
16.2135
 21
107.882
  0
LINE
  8
0
 10
16.2135
 20
107.882
 11
16.3145
 21
107.723
  0
LINE
  8
0
 10
16.3145
 20
107.723
 11
16.3947
 21
107.552
  0
LINE
  8
0
 10
16.3947
 20
107.552
 11
16.4529
 21
107.373
  0
LINE
  8
0
 10
16.4529
 20
107.373
 11
16.4882
 21
107.188
  0
LINE
  8
0
 10
16.4882
 20
107.188
 11
16.5
 21
107
  0
LINE
  8
0
 10
16.5
 20
107
 11
16.4882
 21
106.812
  0
LINE
  8
0
 10
16.4882
 20
106.812
 11
16.4529
 21
106.627
  0
LINE
  8
0
 10
16.4529
 20
106.627
 11
16.3947
 21
106.448
  0
LINE
  8
0
 10
16.3947
 20
106.448
 11
16.3145
 21
106.277
  0
LINE
  8
0
 10
16.3145
 20
106.277
 11
16.2135
 21
106.118
  0
LINE
  8
0
 10
16.2135
 20
106.118
 11
16.0934
 21
105.973
  0
LINE
  8
0
 10
16.0934
 20
105.973
 11
15.9561
 21
105.844
  0
LINE
  8
0
 10
15.9561
 20
105.844
 11
15.8037
 21
105.734
  0
LINE
  8
0
 10
15.8037
 20
105.734
 11
15.6387
 21
105.643
  0
LINE
  8
0
 10
15.6387
 20
105.643
 11
15.4635
 21
105.573
  0
LINE
  8
0
 10
15.4635
 20
105.573
 11
15.2811
 21
105.527
  0
LINE
  8
0
 10
15.2811
 20
105.527
 11
15.0942
 21
105.503
  0
LINE
  8
0
 10
15.0942
 20
105.503
 11
14.9058
 21
105.503
  0
LINE
  8
0
 10
126.906
 20
105.503
 11
126.719
 21
105.527
  0
LINE
  8
0
 10
126.719
 20
105.527
 11
126.536
 21
105.573
  0
LINE
  8
0
 10
126.536
 20
105.573
 11
126.361
 21
105.643
  0
LINE
  8
0
 10
126.361
 20
105.643
 11
126.196
 21
105.734
  0
LINE
  8
0
 10
126.196
 20
105.734
 11
126.044
 21
105.844
  0
LINE
  8
0
 10
126.044
 20
105.844
 11
125.907
 21
105.973
  0
LINE
  8
0
 10
125.907
 20
105.973
 11
125.786
 21
106.118
  0
LINE
  8
0
 10
125.786
 20
106.118
 11
125.686
 21
106.277
  0
LINE
  8
0
 10
125.686
 20
106.277
 11
125.605
 21
106.448
  0
LINE
  8
0
 10
125.605
 20
106.448
 11
125.547
 21
106.627
  0
LINE
  8
0
 10
125.547
 20
106.627
 11
125.512
 21
106.812
  0
LINE
  8
0
 10
125.512
 20
106.812
 11
125.5
 21
107
  0
LINE
  8
0
 10
125.5
 20
107
 11
125.512
 21
107.188
  0
LINE
  8
0
 10
125.512
 20
107.188
 11
125.547
 21
107.373
  0
LINE
  8
0
 10
125.547
 20
107.373
 11
125.605
 21
107.552
  0
LINE
  8
0
 10
125.605
 20
107.552
 11
125.686
 21
107.723
  0
LINE
  8
0
 10
125.686
 20
107.723
 11
125.786
 21
107.882
  0
LINE
  8
0
 10
125.786
 20
107.882
 11
125.907
 21
108.027
  0
LINE
  8
0
 10
125.907
 20
108.027
 11
126.044
 21
108.156
  0
LINE
  8
0
 10
126.044
 20
108.156
 11
126.196
 21
108.266
  0
LINE
  8
0
 10
126.196
 20
108.266
 11
126.361
 21
108.357
  0
LINE
  8
0
 10
126.361
 20
108.357
 11
126.536
 21
108.427
  0
LINE
  8
0
 10
126.536
 20
108.427
 11
126.719
 21
108.473
  0
LINE
  8
0
 10
126.719
 20
108.473
 11
126.906
 21
108.497
  0
LINE
  8
0
 10
126.906
 20
108.497
 11
127.094
 21
108.497
  0
LINE
  8
0
 10
127.094
 20
108.497
 11
127.281
 21
108.473
  0
LINE
  8
0
 10
127.281
 20
108.473
 11
127.464
 21
108.427
  0
LINE
  8
0
 10
127.464
 20
108.427
 11
127.639
 21
108.357
  0
LINE
  8
0
 10
127.639
 20
108.357
 11
127.804
 21
108.266
  0
LINE
  8
0
 10
127.804
 20
108.266
 11
127.956
 21
108.156
  0
LINE
  8
0
 10
127.956
 20
108.156
 11
128.093
 21
108.027
  0
LINE
  8
0
 10
128.093
 20
108.027
 11
128.214
 21
107.882
  0
LINE
  8
0
 10
128.214
 20
107.882
 11
128.314
 21
107.723
  0
LINE
  8
0
 10
128.314
 20
107.723
 11
128.395
 21
107.552
  0
LINE
  8
0
 10
128.395
 20
107.552
 11
128.453
 21
107.373
  0
LINE
  8
0
 10
128.453
 20
107.373
 11
128.488
 21
107.188
  0
LINE
  8
0
 10
128.488
 20
107.188
 11
128.5
 21
107
  0
LINE
  8
0
 10
128.5
 20
107
 11
128.488
 21
106.812
  0
LINE
  8
0
 10
128.488
 20
106.812
 11
128.453
 21
106.627
  0
LINE
  8
0
 10
128.453
 20
106.627
 11
128.395
 21
106.448
  0
LINE
  8
0
 10
128.395
 20
106.448
 11
128.314
 21
106.277
  0
LINE
  8
0
 10
128.314
 20
106.277
 11
128.214
 21
106.118
  0
LINE
  8
0
 10
128.214
 20
106.118
 11
128.093
 21
105.973
  0
LINE
  8
0
 10
128.093
 20
105.973
 11
127.956
 21
105.844
  0
LINE
  8
0
 10
127.956
 20
105.844
 11
127.804
 21
105.734
  0
LINE
  8
0
 10
127.804
 20
105.734
 11
127.639
 21
105.643
  0
LINE
  8
0
 10
127.639
 20
105.643
 11
127.464
 21
105.573
  0
LINE
  8
0
 10
127.464
 20
105.573
 11
127.281
 21
105.527
  0
LINE
  8
0
 10
127.281
 20
105.527
 11
127.094
 21
105.503
  0
LINE
  8
0
 10
127.094
 20
105.503
 11
126.906
 21
105.503
  0
LINE
  8
0
 10
432.906
 20
75.503
 11
432.719
 21
75.5266
  0
LINE
  8
0
 10
432.719
 20
75.5266
 11
432.536
 21
75.5734
  0
LINE
  8
0
 10
432.536
 20
75.5734
 11
432.361
 21
75.6428
  0
LINE
  8
0
 10
432.361
 20
75.6428
 11
432.196
 21
75.7335
  0
LINE
  8
0
 10
432.196
 20
75.7335
 11
432.044
 21
75.8442
  0
LINE
  8
0
 10
432.044
 20
75.8442
 11
431.907
 21
75.9732
  0
LINE
  8
0
 10
431.907
 20
75.9732
 11
431.786
 21
76.1183
  0
LINE
  8
0
 10
431.786
 20
76.1183
 11
431.686
 21
76.2774
  0
LINE
  8
0
 10
431.686
 20
76.2774
 11
431.605
 21
76.4478
  0
LINE
  8
0
 10
431.605
 20
76.4478
 11
431.547
 21
76.627
  0
LINE
  8
0
 10
431.547
 20
76.627
 11
431.512
 21
76.812
  0
LINE
  8
0
 10
431.512
 20
76.812
 11
431.5
 21
77
  0
LINE
  8
0
 10
431.5
 20
77
 11
431.512
 21
77.188
  0
LINE
  8
0
 10
431.512
 20
77.188
 11
431.547
 21
77.373
  0
LINE
  8
0
 10
431.547
 20
77.373
 11
431.605
 21
77.5522
  0
LINE
  8
0
 10
431.605
 20
77.5522
 11
431.686
 21
77.7226
  0
LINE
  8
0
 10
431.686
 20
77.7226
 11
431.786
 21
77.8817
  0
LINE
  8
0
 10
431.786
 20
77.8817
 11
431.907
 21
78.0268
  0
LINE
  8
0
 10
431.907
 20
78.0268
 11
432.044
 21
78.1558
  0
LINE
  8
0
 10
432.044
 20
78.1558
 11
432.196
 21
78.2665
  0
LINE
  8
0
 10
432.196
 20
78.2665
 11
432.361
 21
78.3573
  0
LINE
  8
0
 10
432.361
 20
78.3573
 11
432.536
 21
78.4266
  0
LINE
  8
0
 10
432.536
 20
78.4266
 11
432.719
 21
78.4734
  0
LINE
  8
0
 10
432.719
 20
78.4734
 11
432.906
 21
78.4971
  0
LINE
  8
0
 10
432.906
 20
78.4971
 11
433.094
 21
78.4971
  0
LINE
  8
0
 10
433.094
 20
78.4971
 11
433.281
 21
78.4734
  0
LINE
  8
0
 10
433.281
 20
78.4734
 11
433.464
 21
78.4266
  0
LINE
  8
0
 10
433.464
 20
78.4266
 11
433.639
 21
78.3573
  0
LINE
  8
0
 10
433.639
 20
78.3573
 11
433.804
 21
78.2665
  0
LINE
  8
0
 10
433.804
 20
78.2665
 11
433.956
 21
78.1558
  0
LINE
  8
0
 10
433.956
 20
78.1558
 11
434.093
 21
78.0268
  0
LINE
  8
0
 10
434.093
 20
78.0268
 11
434.214
 21
77.8817
  0
LINE
  8
0
 10
434.214
 20
77.8817
 11
434.314
 21
77.7226
  0
LINE
  8
0
 10
434.314
 20
77.7226
 11
434.395
 21
77.5522
  0
LINE
  8
0
 10
434.395
 20
77.5522
 11
434.453
 21
77.373
  0
LINE
  8
0
 10
434.453
 20
77.373
 11
434.488
 21
77.188
  0
LINE
  8
0
 10
434.488
 20
77.188
 11
434.5
 21
77
  0
LINE
  8
0
 10
434.5
 20
77
 11
434.488
 21
76.812
  0
LINE
  8
0
 10
434.488
 20
76.812
 11
434.453
 21
76.627
  0
LINE
  8
0
 10
434.453
 20
76.627
 11
434.395
 21
76.4478
  0
LINE
  8
0
 10
434.395
 20
76.4478
 11
434.314
 21
76.2774
  0
LINE
  8
0
 10
434.314
 20
76.2774
 11
434.214
 21
76.1183
  0
LINE
  8
0
 10
434.214
 20
76.1183
 11
434.093
 21
75.9732
  0
LINE
  8
0
 10
434.093
 20
75.9732
 11
433.956
 21
75.8442
  0
LINE
  8
0
 10
433.956
 20
75.8442
 11
433.804
 21
75.7335
  0
LINE
  8
0
 10
433.804
 20
75.7335
 11
433.639
 21
75.6428
  0
LINE
  8
0
 10
433.639
 20
75.6428
 11
433.464
 21
75.5734
  0
LINE
  8
0
 10
433.464
 20
75.5734
 11
433.281
 21
75.5266
  0
LINE
  8
0
 10
433.281
 20
75.5266
 11
433.094
 21
75.503
  0
LINE
  8
0
 10
433.094
 20
75.503
 11
432.906
 21
75.503
  0
LINE
  8
0
 10
-15.0942
 20
75.503
 11
-15.2811
 21
75.5266
  0
LINE
  8
0
 10
-15.2811
 20
75.5266
 11
-15.4635
 21
75.5734
  0
LINE
  8
0
 10
-15.4635
 20
75.5734
 11
-15.6387
 21
75.6428
  0
LINE
  8
0
 10
-15.6387
 20
75.6428
 11
-15.8037
 21
75.7335
  0
LINE
  8
0
 10
-15.8037
 20
75.7335
 11
-15.9561
 21
75.8442
  0
LINE
  8
0
 10
-15.9561
 20
75.8442
 11
-16.0934
 21
75.9732
  0
LINE
  8
0
 10
-16.0934
 20
75.9732
 11
-16.2135
 21
76.1183
  0
LINE
  8
0
 10
-16.2135
 20
76.1183
 11
-16.3145
 21
76.2774
  0
LINE
  8
0
 10
-16.3145
 20
76.2774
 11
-16.3947
 21
76.4478
  0
LINE
  8
0
 10
-16.3947
 20
76.4478
 11
-16.4529
 21
76.627
  0
LINE
  8
0
 10
-16.4529
 20
76.627
 11
-16.4882
 21
76.812
  0
LINE
  8
0
 10
-16.4882
 20
76.812
 11
-16.5
 21
77
  0
LINE
  8
0
 10
-16.5
 20
77
 11
-16.4882
 21
77.188
  0
LINE
  8
0
 10
-16.4882
 20
77.188
 11
-16.4529
 21
77.373
  0
LINE
  8
0
 10
-16.4529
 20
77.373
 11
-16.3947
 21
77.5522
  0
LINE
  8
0
 10
-16.3947
 20
77.5522
 11
-16.3145
 21
77.7226
  0
LINE
  8
0
 10
-16.3145
 20
77.7226
 11
-16.2135
 21
77.8817
  0
LINE
  8
0
 10
-16.2135
 20
77.8817
 11
-16.0934
 21
78.0268
  0
LINE
  8
0
 10
-16.0934
 20
78.0268
 11
-15.9561
 21
78.1558
  0
LINE
  8
0
 10
-15.9561
 20
78.1558
 11
-15.8037
 21
78.2665
  0
LINE
  8
0
 10
-15.8037
 20
78.2665
 11
-15.6387
 21
78.3573
  0
LINE
  8
0
 10
-15.6387
 20
78.3573
 11
-15.4635
 21
78.4266
  0
LINE
  8
0
 10
-15.4635
 20
78.4266
 11
-15.2811
 21
78.4734
  0
LINE
  8
0
 10
-15.2811
 20
78.4734
 11
-15.0942
 21
78.4971
  0
LINE
  8
0
 10
-15.0942
 20
78.4971
 11
-14.9058
 21
78.4971
  0
LINE
  8
0
 10
-14.9058
 20
78.4971
 11
-14.7189
 21
78.4734
  0
LINE
  8
0
 10
-14.7189
 20
78.4734
 11
-14.5365
 21
78.4266
  0
LINE
  8
0
 10
-14.5365
 20
78.4266
 11
-14.3613
 21
78.3573
  0
LINE
  8
0
 10
-14.3613
 20
78.3573
 11
-14.1963
 21
78.2665
  0
LINE
  8
0
 10
-14.1963
 20
78.2665
 11
-14.0439
 21
78.1558
  0
LINE
  8
0
 10
-14.0439
 20
78.1558
 11
-13.9065
 21
78.0268
  0
LINE
  8
0
 10
-13.9065
 20
78.0268
 11
-13.7865
 21
77.8817
  0
LINE
  8
0
 10
-13.7865
 20
77.8817
 11
-13.6855
 21
77.7226
  0
LINE
  8
0
 10
-13.6855
 20
77.7226
 11
-13.6053
 21
77.5522
  0
LINE
  8
0
 10
-13.6053
 20
77.5522
 11
-13.5471
 21
77.373
  0
LINE
  8
0
 10
-13.5471
 20
77.373
 11
-13.5118
 21
77.188
  0
LINE
  8
0
 10
-13.5118
 20
77.188
 11
-13.5
 21
77
  0
LINE
  8
0
 10
-13.5
 20
77
 11
-13.5118
 21
76.812
  0
LINE
  8
0
 10
-13.5118
 20
76.812
 11
-13.5471
 21
76.627
  0
LINE
  8
0
 10
-13.5471
 20
76.627
 11
-13.6053
 21
76.4478
  0
LINE
  8
0
 10
-13.6053
 20
76.4478
 11
-13.6855
 21
76.2774
  0
LINE
  8
0
 10
-13.6855
 20
76.2774
 11
-13.7865
 21
76.1183
  0
LINE
  8
0
 10
-13.7865
 20
76.1183
 11
-13.9065
 21
75.9732
  0
LINE
  8
0
 10
-13.9065
 20
75.9732
 11
-14.0439
 21
75.8442
  0
LINE
  8
0
 10
-14.0439
 20
75.8442
 11
-14.1963
 21
75.7335
  0
LINE
  8
0
 10
-14.1963
 20
75.7335
 11
-14.3613
 21
75.6428
  0
LINE
  8
0
 10
-14.3613
 20
75.6428
 11
-14.5365
 21
75.5734
  0
LINE
  8
0
 10
-14.5365
 20
75.5734
 11
-14.7189
 21
75.5266
  0
LINE
  8
0
 10
-14.7189
 20
75.5266
 11
-14.9058
 21
75.503
  0
LINE
  8
0
 10
-14.9058
 20
75.503
 11
-15.0942
 21
75.503
  0
LINE
  8
0
 10
96.9058
 20
75.503
 11
96.7189
 21
75.5266
  0
LINE
  8
0
 10
96.7189
 20
75.5266
 11
96.5365
 21
75.5734
  0
LINE
  8
0
 10
96.5365
 20
75.5734
 11
96.3613
 21
75.6428
  0
LINE
  8
0
 10
96.3613
 20
75.6428
 11
96.1963
 21
75.7335
  0
LINE
  8
0
 10
96.1963
 20
75.7335
 11
96.0439
 21
75.8442
  0
LINE
  8
0
 10
96.0439
 20
75.8442
 11
95.9066
 21
75.9732
  0
LINE
  8
0
 10
95.9066
 20
75.9732
 11
95.7865
 21
76.1183
  0
LINE
  8
0
 10
95.7865
 20
76.1183
 11
95.6855
 21
76.2774
  0
LINE
  8
0
 10
95.6855
 20
76.2774
 11
95.6053
 21
76.4478
  0
LINE
  8
0
 10
95.6053
 20
76.4478
 11
95.5471
 21
76.627
  0
LINE
  8
0
 10
95.5471
 20
76.627
 11
95.5118
 21
76.812
  0
LINE
  8
0
 10
95.5118
 20
76.812
 11
95.5
 21
77
  0
LINE
  8
0
 10
95.5
 20
77
 11
95.5118
 21
77.188
  0
LINE
  8
0
 10
95.5118
 20
77.188
 11
95.5471
 21
77.373
  0
LINE
  8
0
 10
95.5471
 20
77.373
 11
95.6053
 21
77.5522
  0
LINE
  8
0
 10
95.6053
 20
77.5522
 11
95.6855
 21
77.7226
  0
LINE
  8
0
 10
95.6855
 20
77.7226
 11
95.7865
 21
77.8817
  0
LINE
  8
0
 10
95.7865
 20
77.8817
 11
95.9066
 21
78.0268
  0
LINE
  8
0
 10
95.9066
 20
78.0268
 11
96.0439
 21
78.1558
  0
LINE
  8
0
 10
96.0439
 20
78.1558
 11
96.1963
 21
78.2665
  0
LINE
  8
0
 10
96.1963
 20
78.2665
 11
96.3613
 21
78.3573
  0
LINE
  8
0
 10
96.3613
 20
78.3573
 11
96.5365
 21
78.4266
  0
LINE
  8
0
 10
96.5365
 20
78.4266
 11
96.7189
 21
78.4734
  0
LINE
  8
0
 10
96.7189
 20
78.4734
 11
96.9058
 21
78.4971
  0
LINE
  8
0
 10
96.9058
 20
78.4971
 11
97.0942
 21
78.4971
  0
LINE
  8
0
 10
97.0942
 20
78.4971
 11
97.2811
 21
78.4734
  0
LINE
  8
0
 10
97.2811
 20
78.4734
 11
97.4635
 21
78.4266
  0
LINE
  8
0
 10
97.4635
 20
78.4266
 11
97.6387
 21
78.3573
  0
LINE
  8
0
 10
97.6387
 20
78.3573
 11
97.8037
 21
78.2665
  0
LINE
  8
0
 10
97.8037
 20
78.2665
 11
97.9561
 21
78.1558
  0
LINE
  8
0
 10
97.9561
 20
78.1558
 11
98.0935
 21
78.0268
  0
LINE
  8
0
 10
98.0935
 20
78.0268
 11
98.2135
 21
77.8817
  0
LINE
  8
0
 10
98.2135
 20
77.8817
 11
98.3145
 21
77.7226
  0
LINE
  8
0
 10
98.3145
 20
77.7226
 11
98.3947
 21
77.5522
  0
LINE
  8
0
 10
98.3947
 20
77.5522
 11
98.4529
 21
77.373
  0
LINE
  8
0
 10
98.4529
 20
77.373
 11
98.4882
 21
77.188
  0
LINE
  8
0
 10
98.4882
 20
77.188
 11
98.5
 21
77
  0
LINE
  8
0
 10
98.5
 20
77
 11
98.4882
 21
76.812
  0
LINE
  8
0
 10
98.4882
 20
76.812
 11
98.4529
 21
76.627
  0
LINE
  8
0
 10
98.4529
 20
76.627
 11
98.3947
 21
76.4478
  0
LINE
  8
0
 10
98.3947
 20
76.4478
 11
98.3145
 21
76.2774
  0
LINE
  8
0
 10
98.3145
 20
76.2774
 11
98.2135
 21
76.1183
  0
LINE
  8
0
 10
98.2135
 20
76.1183
 11
98.0935
 21
75.9732
  0
LINE
  8
0
 10
98.0935
 20
75.9732
 11
97.9561
 21
75.8442
  0
LINE
  8
0
 10
97.9561
 20
75.8442
 11
97.8037
 21
75.7335
  0
LINE
  8
0
 10
97.8037
 20
75.7335
 11
97.6387
 21
75.6428
  0
LINE
  8
0
 10
97.6387
 20
75.6428
 11
97.4635
 21
75.5734
  0
LINE
  8
0
 10
97.4635
 20
75.5734
 11
97.2811
 21
75.5266
  0
LINE
  8
0
 10
97.2811
 20
75.5266
 11
97.0942
 21
75.503
  0
LINE
  8
0
 10
97.0942
 20
75.503
 11
96.9058
 21
75.503
  0
LINE
  8
0
 10
320.906
 20
75.503
 11
320.719
 21
75.5266
  0
LINE
  8
0
 10
320.719
 20
75.5266
 11
320.536
 21
75.5734
  0
LINE
  8
0
 10
320.536
 20
75.5734
 11
320.361
 21
75.6428
  0
LINE
  8
0
 10
320.361
 20
75.6428
 11
320.196
 21
75.7335
  0
LINE
  8
0
 10
320.196
 20
75.7335
 11
320.044
 21
75.8442
  0
LINE
  8
0
 10
320.044
 20
75.8442
 11
319.907
 21
75.9732
  0
LINE
  8
0
 10
319.907
 20
75.9732
 11
319.786
 21
76.1183
  0
LINE
  8
0
 10
319.786
 20
76.1183
 11
319.686
 21
76.2774
  0
LINE
  8
0
 10
319.686
 20
76.2774
 11
319.605
 21
76.4478
  0
LINE
  8
0
 10
319.605
 20
76.4478
 11
319.547
 21
76.627
  0
LINE
  8
0
 10
319.547
 20
76.627
 11
319.512
 21
76.812
  0
LINE
  8
0
 10
319.512
 20
76.812
 11
319.5
 21
77
  0
LINE
  8
0
 10
319.5
 20
77
 11
319.512
 21
77.188
  0
LINE
  8
0
 10
319.512
 20
77.188
 11
319.547
 21
77.373
  0
LINE
  8
0
 10
319.547
 20
77.373
 11
319.605
 21
77.5522
  0
LINE
  8
0
 10
319.605
 20
77.5522
 11
319.686
 21
77.7226
  0
LINE
  8
0
 10
319.686
 20
77.7226
 11
319.786
 21
77.8817
  0
LINE
  8
0
 10
319.786
 20
77.8817
 11
319.907
 21
78.0268
  0
LINE
  8
0
 10
319.907
 20
78.0268
 11
320.044
 21
78.1558
  0
LINE
  8
0
 10
320.044
 20
78.1558
 11
320.196
 21
78.2665
  0
LINE
  8
0
 10
320.196
 20
78.2665
 11
320.361
 21
78.3573
  0
LINE
  8
0
 10
320.361
 20
78.3573
 11
320.536
 21
78.4266
  0
LINE
  8
0
 10
320.536
 20
78.4266
 11
320.719
 21
78.4734
  0
LINE
  8
0
 10
320.719
 20
78.4734
 11
320.906
 21
78.4971
  0
LINE
  8
0
 10
320.906
 20
78.4971
 11
321.094
 21
78.4971
  0
LINE
  8
0
 10
321.094
 20
78.4971
 11
321.281
 21
78.4734
  0
LINE
  8
0
 10
321.281
 20
78.4734
 11
321.464
 21
78.4266
  0
LINE
  8
0
 10
321.464
 20
78.4266
 11
321.639
 21
78.3573
  0
LINE
  8
0
 10
321.639
 20
78.3573
 11
321.804
 21
78.2665
  0
LINE
  8
0
 10
321.804
 20
78.2665
 11
321.956
 21
78.1558
  0
LINE
  8
0
 10
321.956
 20
78.1558
 11
322.093
 21
78.0268
  0
LINE
  8
0
 10
322.093
 20
78.0268
 11
322.214
 21
77.8817
  0
LINE
  8
0
 10
322.214
 20
77.8817
 11
322.314
 21
77.7226
  0
LINE
  8
0
 10
322.314
 20
77.7226
 11
322.395
 21
77.5522
  0
LINE
  8
0
 10
322.395
 20
77.5522
 11
322.453
 21
77.373
  0
LINE
  8
0
 10
322.453
 20
77.373
 11
322.488
 21
77.188
  0
LINE
  8
0
 10
322.488
 20
77.188
 11
322.5
 21
77
  0
LINE
  8
0
 10
322.5
 20
77
 11
322.488
 21
76.812
  0
LINE
  8
0
 10
322.488
 20
76.812
 11
322.453
 21
76.627
  0
LINE
  8
0
 10
322.453
 20
76.627
 11
322.395
 21
76.4478
  0
LINE
  8
0
 10
322.395
 20
76.4478
 11
322.314
 21
76.2774
  0
LINE
  8
0
 10
322.314
 20
76.2774
 11
322.214
 21
76.1183
  0
LINE
  8
0
 10
322.214
 20
76.1183
 11
322.093
 21
75.9732
  0
LINE
  8
0
 10
322.093
 20
75.9732
 11
321.956
 21
75.8442
  0
LINE
  8
0
 10
321.956
 20
75.8442
 11
321.804
 21
75.7335
  0
LINE
  8
0
 10
321.804
 20
75.7335
 11
321.639
 21
75.6428
  0
LINE
  8
0
 10
321.639
 20
75.6428
 11
321.464
 21
75.5734
  0
LINE
  8
0
 10
321.464
 20
75.5734
 11
321.281
 21
75.5266
  0
LINE
  8
0
 10
321.281
 20
75.5266
 11
321.094
 21
75.503
  0
LINE
  8
0
 10
321.094
 20
75.503
 11
320.906
 21
75.503
  0
LINE
  8
0
 10
208.906
 20
75.503
 11
208.719
 21
75.5266
  0
LINE
  8
0
 10
208.719
 20
75.5266
 11
208.536
 21
75.5734
  0
LINE
  8
0
 10
208.536
 20
75.5734
 11
208.361
 21
75.6428
  0
LINE
  8
0
 10
208.361
 20
75.6428
 11
208.196
 21
75.7335
  0
LINE
  8
0
 10
208.196
 20
75.7335
 11
208.044
 21
75.8442
  0
LINE
  8
0
 10
208.044
 20
75.8442
 11
207.907
 21
75.9732
  0
LINE
  8
0
 10
207.907
 20
75.9732
 11
207.786
 21
76.1183
  0
LINE
  8
0
 10
207.786
 20
76.1183
 11
207.686
 21
76.2774
  0
LINE
  8
0
 10
207.686
 20
76.2774
 11
207.605
 21
76.4478
  0
LINE
  8
0
 10
207.605
 20
76.4478
 11
207.547
 21
76.627
  0
LINE
  8
0
 10
207.547
 20
76.627
 11
207.512
 21
76.812
  0
LINE
  8
0
 10
207.512
 20
76.812
 11
207.5
 21
77
  0
LINE
  8
0
 10
207.5
 20
77
 11
207.512
 21
77.188
  0
LINE
  8
0
 10
207.512
 20
77.188
 11
207.547
 21
77.373
  0
LINE
  8
0
 10
207.547
 20
77.373
 11
207.605
 21
77.5522
  0
LINE
  8
0
 10
207.605
 20
77.5522
 11
207.686
 21
77.7226
  0
LINE
  8
0
 10
207.686
 20
77.7226
 11
207.786
 21
77.8817
  0
LINE
  8
0
 10
207.786
 20
77.8817
 11
207.907
 21
78.0268
  0
LINE
  8
0
 10
207.907
 20
78.0268
 11
208.044
 21
78.1558
  0
LINE
  8
0
 10
208.044
 20
78.1558
 11
208.196
 21
78.2665
  0
LINE
  8
0
 10
208.196
 20
78.2665
 11
208.361
 21
78.3573
  0
LINE
  8
0
 10
208.361
 20
78.3573
 11
208.536
 21
78.4266
  0
LINE
  8
0
 10
208.536
 20
78.4266
 11
208.719
 21
78.4734
  0
LINE
  8
0
 10
208.719
 20
78.4734
 11
208.906
 21
78.4971
  0
LINE
  8
0
 10
208.906
 20
78.4971
 11
209.094
 21
78.4971
  0
LINE
  8
0
 10
209.094
 20
78.4971
 11
209.281
 21
78.4734
  0
LINE
  8
0
 10
209.281
 20
78.4734
 11
209.464
 21
78.4266
  0
LINE
  8
0
 10
209.464
 20
78.4266
 11
209.639
 21
78.3573
  0
LINE
  8
0
 10
209.639
 20
78.3573
 11
209.804
 21
78.2665
  0
LINE
  8
0
 10
209.804
 20
78.2665
 11
209.956
 21
78.1558
  0
LINE
  8
0
 10
209.956
 20
78.1558
 11
210.093
 21
78.0268
  0
LINE
  8
0
 10
210.093
 20
78.0268
 11
210.214
 21
77.8817
  0
LINE
  8
0
 10
210.214
 20
77.8817
 11
210.314
 21
77.7226
  0
LINE
  8
0
 10
210.314
 20
77.7226
 11
210.395
 21
77.5522
  0
LINE
  8
0
 10
210.395
 20
77.5522
 11
210.453
 21
77.373
  0
LINE
  8
0
 10
210.453
 20
77.373
 11
210.488
 21
77.188
  0
LINE
  8
0
 10
210.488
 20
77.188
 11
210.5
 21
77
  0
LINE
  8
0
 10
210.5
 20
77
 11
210.488
 21
76.812
  0
LINE
  8
0
 10
210.488
 20
76.812
 11
210.453
 21
76.627
  0
LINE
  8
0
 10
210.453
 20
76.627
 11
210.395
 21
76.4478
  0
LINE
  8
0
 10
210.395
 20
76.4478
 11
210.314
 21
76.2774
  0
LINE
  8
0
 10
210.314
 20
76.2774
 11
210.214
 21
76.1183
  0
LINE
  8
0
 10
210.214
 20
76.1183
 11
210.093
 21
75.9732
  0
LINE
  8
0
 10
210.093
 20
75.9732
 11
209.956
 21
75.8442
  0
LINE
  8
0
 10
209.956
 20
75.8442
 11
209.804
 21
75.7335
  0
LINE
  8
0
 10
209.804
 20
75.7335
 11
209.639
 21
75.6428
  0
LINE
  8
0
 10
209.639
 20
75.6428
 11
209.464
 21
75.5734
  0
LINE
  8
0
 10
209.464
 20
75.5734
 11
209.281
 21
75.5266
  0
LINE
  8
0
 10
209.281
 20
75.5266
 11
209.094
 21
75.503
  0
LINE
  8
0
 10
209.094
 20
75.503
 11
208.906
 21
75.503
  0
LINE
  8
0
 10
238.906
 20
13.5029
 11
238.719
 21
13.5266
  0
LINE
  8
0
 10
238.719
 20
13.5266
 11
238.536
 21
13.5734
  0
LINE
  8
0
 10
238.536
 20
13.5734
 11
238.361
 21
13.6427
  0
LINE
  8
0
 10
238.361
 20
13.6427
 11
238.196
 21
13.7335
  0
LINE
  8
0
 10
238.196
 20
13.7335
 11
238.044
 21
13.8442
  0
LINE
  8
0
 10
238.044
 20
13.8442
 11
237.907
 21
13.9732
  0
LINE
  8
0
 10
237.907
 20
13.9732
 11
237.786
 21
14.1183
  0
LINE
  8
0
 10
237.786
 20
14.1183
 11
237.686
 21
14.2774
  0
LINE
  8
0
 10
237.686
 20
14.2774
 11
237.605
 21
14.4478
  0
LINE
  8
0
 10
237.605
 20
14.4478
 11
237.547
 21
14.627
  0
LINE
  8
0
 10
237.547
 20
14.627
 11
237.512
 21
14.812
  0
LINE
  8
0
 10
237.512
 20
14.812
 11
237.5
 21
15
  0
LINE
  8
0
 10
237.5
 20
15
 11
237.512
 21
15.188
  0
LINE
  8
0
 10
237.512
 20
15.188
 11
237.547
 21
15.373
  0
LINE
  8
0
 10
237.547
 20
15.373
 11
237.605
 21
15.5522
  0
LINE
  8
0
 10
237.605
 20
15.5522
 11
237.686
 21
15.7226
  0
LINE
  8
0
 10
237.686
 20
15.7226
 11
237.786
 21
15.8817
  0
LINE
  8
0
 10
237.786
 20
15.8817
 11
237.907
 21
16.0268
  0
LINE
  8
0
 10
237.907
 20
16.0268
 11
238.044
 21
16.1558
  0
LINE
  8
0
 10
238.044
 20
16.1558
 11
238.196
 21
16.2665
  0
LINE
  8
0
 10
238.196
 20
16.2665
 11
238.361
 21
16.3572
  0
LINE
  8
0
 10
238.361
 20
16.3572
 11
238.536
 21
16.4266
  0
LINE
  8
0
 10
238.536
 20
16.4266
 11
238.719
 21
16.4734
  0
LINE
  8
0
 10
238.719
 20
16.4734
 11
238.906
 21
16.497
  0
LINE
  8
0
 10
238.906
 20
16.497
 11
239.094
 21
16.497
  0
LINE
  8
0
 10
239.094
 20
16.497
 11
239.281
 21
16.4734
  0
LINE
  8
0
 10
239.281
 20
16.4734
 11
239.464
 21
16.4266
  0
LINE
  8
0
 10
239.464
 20
16.4266
 11
239.639
 21
16.3572
  0
LINE
  8
0
 10
239.639
 20
16.3572
 11
239.804
 21
16.2665
  0
LINE
  8
0
 10
239.804
 20
16.2665
 11
239.956
 21
16.1558
  0
LINE
  8
0
 10
239.956
 20
16.1558
 11
240.093
 21
16.0268
  0
LINE
  8
0
 10
240.093
 20
16.0268
 11
240.214
 21
15.8817
  0
LINE
  8
0
 10
240.214
 20
15.8817
 11
240.314
 21
15.7226
  0
LINE
  8
0
 10
240.314
 20
15.7226
 11
240.395
 21
15.5522
  0
LINE
  8
0
 10
240.395
 20
15.5522
 11
240.453
 21
15.373
  0
LINE
  8
0
 10
240.453
 20
15.373
 11
240.488
 21
15.188
  0
LINE
  8
0
 10
240.488
 20
15.188
 11
240.5
 21
15
  0
LINE
  8
0
 10
240.5
 20
15
 11
240.488
 21
14.812
  0
LINE
  8
0
 10
240.488
 20
14.812
 11
240.453
 21
14.627
  0
LINE
  8
0
 10
240.453
 20
14.627
 11
240.395
 21
14.4478
  0
LINE
  8
0
 10
240.395
 20
14.4478
 11
240.314
 21
14.2774
  0
LINE
  8
0
 10
240.314
 20
14.2774
 11
240.214
 21
14.1183
  0
LINE
  8
0
 10
240.214
 20
14.1183
 11
240.093
 21
13.9732
  0
LINE
  8
0
 10
240.093
 20
13.9732
 11
239.956
 21
13.8442
  0
LINE
  8
0
 10
239.956
 20
13.8442
 11
239.804
 21
13.7335
  0
LINE
  8
0
 10
239.804
 20
13.7335
 11
239.639
 21
13.6427
  0
LINE
  8
0
 10
239.639
 20
13.6427
 11
239.464
 21
13.5734
  0
LINE
  8
0
 10
239.464
 20
13.5734
 11
239.281
 21
13.5266
  0
LINE
  8
0
 10
239.281
 20
13.5266
 11
239.094
 21
13.5029
  0
LINE
  8
0
 10
239.094
 20
13.5029
 11
238.906
 21
13.5029
  0
LINE
  8
0
 10
462.906
 20
13.5029
 11
462.719
 21
13.5266
  0
LINE
  8
0
 10
462.719
 20
13.5266
 11
462.536
 21
13.5734
  0
LINE
  8
0
 10
462.536
 20
13.5734
 11
462.361
 21
13.6427
  0
LINE
  8
0
 10
462.361
 20
13.6427
 11
462.196
 21
13.7335
  0
LINE
  8
0
 10
462.196
 20
13.7335
 11
462.044
 21
13.8442
  0
LINE
  8
0
 10
462.044
 20
13.8442
 11
461.907
 21
13.9732
  0
LINE
  8
0
 10
461.907
 20
13.9732
 11
461.786
 21
14.1183
  0
LINE
  8
0
 10
461.786
 20
14.1183
 11
461.686
 21
14.2774
  0
LINE
  8
0
 10
461.686
 20
14.2774
 11
461.605
 21
14.4478
  0
LINE
  8
0
 10
461.605
 20
14.4478
 11
461.547
 21
14.627
  0
LINE
  8
0
 10
461.547
 20
14.627
 11
461.512
 21
14.812
  0
LINE
  8
0
 10
461.512
 20
14.812
 11
461.5
 21
15
  0
LINE
  8
0
 10
461.5
 20
15
 11
461.512
 21
15.188
  0
LINE
  8
0
 10
461.512
 20
15.188
 11
461.547
 21
15.373
  0
LINE
  8
0
 10
461.547
 20
15.373
 11
461.605
 21
15.5522
  0
LINE
  8
0
 10
461.605
 20
15.5522
 11
461.686
 21
15.7226
  0
LINE
  8
0
 10
461.686
 20
15.7226
 11
461.786
 21
15.8817
  0
LINE
  8
0
 10
461.786
 20
15.8817
 11
461.907
 21
16.0268
  0
LINE
  8
0
 10
461.907
 20
16.0268
 11
462.044
 21
16.1558
  0
LINE
  8
0
 10
462.044
 20
16.1558
 11
462.196
 21
16.2665
  0
LINE
  8
0
 10
462.196
 20
16.2665
 11
462.361
 21
16.3572
  0
LINE
  8
0
 10
462.361
 20
16.3572
 11
462.536
 21
16.4266
  0
LINE
  8
0
 10
462.536
 20
16.4266
 11
462.719
 21
16.4734
  0
LINE
  8
0
 10
462.719
 20
16.4734
 11
462.906
 21
16.497
  0
LINE
  8
0
 10
462.906
 20
16.497
 11
463.094
 21
16.497
  0
LINE
  8
0
 10
463.094
 20
16.497
 11
463.281
 21
16.4734
  0
LINE
  8
0
 10
463.281
 20
16.4734
 11
463.464
 21
16.4266
  0
LINE
  8
0
 10
463.464
 20
16.4266
 11
463.639
 21
16.3572
  0
LINE
  8
0
 10
463.639
 20
16.3572
 11
463.804
 21
16.2665
  0
LINE
  8
0
 10
463.804
 20
16.2665
 11
463.956
 21
16.1558
  0
LINE
  8
0
 10
463.956
 20
16.1558
 11
464.093
 21
16.0268
  0
LINE
  8
0
 10
464.093
 20
16.0268
 11
464.214
 21
15.8817
  0
LINE
  8
0
 10
464.214
 20
15.8817
 11
464.314
 21
15.7226
  0
LINE
  8
0
 10
464.314
 20
15.7226
 11
464.395
 21
15.5522
  0
LINE
  8
0
 10
464.395
 20
15.5522
 11
464.453
 21
15.373
  0
LINE
  8
0
 10
464.453
 20
15.373
 11
464.488
 21
15.188
  0
LINE
  8
0
 10
464.488
 20
15.188
 11
464.5
 21
15
  0
LINE
  8
0
 10
464.5
 20
15
 11
464.488
 21
14.812
  0
LINE
  8
0
 10
464.488
 20
14.812
 11
464.453
 21
14.627
  0
LINE
  8
0
 10
464.453
 20
14.627
 11
464.395
 21
14.4478
  0
LINE
  8
0
 10
464.395
 20
14.4478
 11
464.314
 21
14.2774
  0
LINE
  8
0
 10
464.314
 20
14.2774
 11
464.214
 21
14.1183
  0
LINE
  8
0
 10
464.214
 20
14.1183
 11
464.093
 21
13.9732
  0
LINE
  8
0
 10
464.093
 20
13.9732
 11
463.956
 21
13.8442
  0
LINE
  8
0
 10
463.956
 20
13.8442
 11
463.804
 21
13.7335
  0
LINE
  8
0
 10
463.804
 20
13.7335
 11
463.639
 21
13.6427
  0
LINE
  8
0
 10
463.639
 20
13.6427
 11
463.464
 21
13.5734
  0
LINE
  8
0
 10
463.464
 20
13.5734
 11
463.281
 21
13.5266
  0
LINE
  8
0
 10
463.281
 20
13.5266
 11
463.094
 21
13.5029
  0
LINE
  8
0
 10
463.094
 20
13.5029
 11
462.906
 21
13.5029
  0
LINE
  8
0
 10
14.9058
 20
13.5029
 11
14.7189
 21
13.5266
  0
LINE
  8
0
 10
14.7189
 20
13.5266
 11
14.5365
 21
13.5734
  0
LINE
  8
0
 10
14.5365
 20
13.5734
 11
14.3613
 21
13.6427
  0
LINE
  8
0
 10
14.3613
 20
13.6427
 11
14.1963
 21
13.7335
  0
LINE
  8
0
 10
14.1963
 20
13.7335
 11
14.0439
 21
13.8442
  0
LINE
  8
0
 10
14.0439
 20
13.8442
 11
13.9065
 21
13.9732
  0
LINE
  8
0
 10
13.9065
 20
13.9732
 11
13.7865
 21
14.1183
  0
LINE
  8
0
 10
13.7865
 20
14.1183
 11
13.6855
 21
14.2774
  0
LINE
  8
0
 10
13.6855
 20
14.2774
 11
13.6053
 21
14.4478
  0
LINE
  8
0
 10
13.6053
 20
14.4478
 11
13.5471
 21
14.627
  0
LINE
  8
0
 10
13.5471
 20
14.627
 11
13.5118
 21
14.812
  0
LINE
  8
0
 10
13.5118
 20
14.812
 11
13.5
 21
15
  0
LINE
  8
0
 10
13.5
 20
15
 11
13.5118
 21
15.188
  0
LINE
  8
0
 10
13.5118
 20
15.188
 11
13.5471
 21
15.373
  0
LINE
  8
0
 10
13.5471
 20
15.373
 11
13.6053
 21
15.5522
  0
LINE
  8
0
 10
13.6053
 20
15.5522
 11
13.6855
 21
15.7226
  0
LINE
  8
0
 10
13.6855
 20
15.7226
 11
13.7865
 21
15.8817
  0
LINE
  8
0
 10
13.7865
 20
15.8817
 11
13.9065
 21
16.0268
  0
LINE
  8
0
 10
13.9065
 20
16.0268
 11
14.0439
 21
16.1558
  0
LINE
  8
0
 10
14.0439
 20
16.1558
 11
14.1963
 21
16.2665
  0
LINE
  8
0
 10
14.1963
 20
16.2665
 11
14.3613
 21
16.3572
  0
LINE
  8
0
 10
14.3613
 20
16.3572
 11
14.5365
 21
16.4266
  0
LINE
  8
0
 10
14.5365
 20
16.4266
 11
14.7189
 21
16.4734
  0
LINE
  8
0
 10
14.7189
 20
16.4734
 11
14.9058
 21
16.497
  0
LINE
  8
0
 10
14.9058
 20
16.497
 11
15.0942
 21
16.497
  0
LINE
  8
0
 10
15.0942
 20
16.497
 11
15.2811
 21
16.4734
  0
LINE
  8
0
 10
15.2811
 20
16.4734
 11
15.4635
 21
16.4266
  0
LINE
  8
0
 10
15.4635
 20
16.4266
 11
15.6387
 21
16.3572
  0
LINE
  8
0
 10
15.6387
 20
16.3572
 11
15.8037
 21
16.2665
  0
LINE
  8
0
 10
15.8037
 20
16.2665
 11
15.9561
 21
16.1558
  0
LINE
  8
0
 10
15.9561
 20
16.1558
 11
16.0934
 21
16.0268
  0
LINE
  8
0
 10
16.0934
 20
16.0268
 11
16.2135
 21
15.8817
  0
LINE
  8
0
 10
16.2135
 20
15.8817
 11
16.3145
 21
15.7226
  0
LINE
  8
0
 10
16.3145
 20
15.7226
 11
16.3947
 21
15.5522
  0
LINE
  8
0
 10
16.3947
 20
15.5522
 11
16.4529
 21
15.373
  0
LINE
  8
0
 10
16.4529
 20
15.373
 11
16.4882
 21
15.188
  0
LINE
  8
0
 10
16.4882
 20
15.188
 11
16.5
 21
15
  0
LINE
  8
0
 10
16.5
 20
15
 11
16.4882
 21
14.812
  0
LINE
  8
0
 10
16.4882
 20
14.812
 11
16.4529
 21
14.627
  0
LINE
  8
0
 10
16.4529
 20
14.627
 11
16.3947
 21
14.4478
  0
LINE
  8
0
 10
16.3947
 20
14.4478
 11
16.3145
 21
14.2774
  0
LINE
  8
0
 10
16.3145
 20
14.2774
 11
16.2135
 21
14.1183
  0
LINE
  8
0
 10
16.2135
 20
14.1183
 11
16.0934
 21
13.9732
  0
LINE
  8
0
 10
16.0934
 20
13.9732
 11
15.9561
 21
13.8442
  0
LINE
  8
0
 10
15.9561
 20
13.8442
 11
15.8037
 21
13.7335
  0
LINE
  8
0
 10
15.8037
 20
13.7335
 11
15.6387
 21
13.6427
  0
LINE
  8
0
 10
15.6387
 20
13.6427
 11
15.4635
 21
13.5734
  0
LINE
  8
0
 10
15.4635
 20
13.5734
 11
15.2811
 21
13.5266
  0
LINE
  8
0
 10
15.2811
 20
13.5266
 11
15.0942
 21
13.5029
  0
LINE
  8
0
 10
15.0942
 20
13.5029
 11
14.9058
 21
13.5029
  0
LINE
  8
0
 10
126.906
 20
13.5029
 11
126.719
 21
13.5266
  0
LINE
  8
0
 10
126.719
 20
13.5266
 11
126.536
 21
13.5734
  0
LINE
  8
0
 10
126.536
 20
13.5734
 11
126.361
 21
13.6427
  0
LINE
  8
0
 10
126.361
 20
13.6427
 11
126.196
 21
13.7335
  0
LINE
  8
0
 10
126.196
 20
13.7335
 11
126.044
 21
13.8442
  0
LINE
  8
0
 10
126.044
 20
13.8442
 11
125.907
 21
13.9732
  0
LINE
  8
0
 10
125.907
 20
13.9732
 11
125.786
 21
14.1183
  0
LINE
  8
0
 10
125.786
 20
14.1183
 11
125.686
 21
14.2774
  0
LINE
  8
0
 10
125.686
 20
14.2774
 11
125.605
 21
14.4478
  0
LINE
  8
0
 10
125.605
 20
14.4478
 11
125.547
 21
14.627
  0
LINE
  8
0
 10
125.547
 20
14.627
 11
125.512
 21
14.812
  0
LINE
  8
0
 10
125.512
 20
14.812
 11
125.5
 21
15
  0
LINE
  8
0
 10
125.5
 20
15
 11
125.512
 21
15.188
  0
LINE
  8
0
 10
125.512
 20
15.188
 11
125.547
 21
15.373
  0
LINE
  8
0
 10
125.547
 20
15.373
 11
125.605
 21
15.5522
  0
LINE
  8
0
 10
125.605
 20
15.5522
 11
125.686
 21
15.7226
  0
LINE
  8
0
 10
125.686
 20
15.7226
 11
125.786
 21
15.8817
  0
LINE
  8
0
 10
125.786
 20
15.8817
 11
125.907
 21
16.0268
  0
LINE
  8
0
 10
125.907
 20
16.0268
 11
126.044
 21
16.1558
  0
LINE
  8
0
 10
126.044
 20
16.1558
 11
126.196
 21
16.2665
  0
LINE
  8
0
 10
126.196
 20
16.2665
 11
126.361
 21
16.3572
  0
LINE
  8
0
 10
126.361
 20
16.3572
 11
126.536
 21
16.4266
  0
LINE
  8
0
 10
126.536
 20
16.4266
 11
126.719
 21
16.4734
  0
LINE
  8
0
 10
126.719
 20
16.4734
 11
126.906
 21
16.497
  0
LINE
  8
0
 10
126.906
 20
16.497
 11
127.094
 21
16.497
  0
LINE
  8
0
 10
127.094
 20
16.497
 11
127.281
 21
16.4734
  0
LINE
  8
0
 10
127.281
 20
16.4734
 11
127.464
 21
16.4266
  0
LINE
  8
0
 10
127.464
 20
16.4266
 11
127.639
 21
16.3572
  0
LINE
  8
0
 10
127.639
 20
16.3572
 11
127.804
 21
16.2665
  0
LINE
  8
0
 10
127.804
 20
16.2665
 11
127.956
 21
16.1558
  0
LINE
  8
0
 10
127.956
 20
16.1558
 11
128.093
 21
16.0268
  0
LINE
  8
0
 10
128.093
 20
16.0268
 11
128.214
 21
15.8817
  0
LINE
  8
0
 10
128.214
 20
15.8817
 11
128.314
 21
15.7226
  0
LINE
  8
0
 10
128.314
 20
15.7226
 11
128.395
 21
15.5522
  0
LINE
  8
0
 10
128.395
 20
15.5522
 11
128.453
 21
15.373
  0
LINE
  8
0
 10
128.453
 20
15.373
 11
128.488
 21
15.188
  0
LINE
  8
0
 10
128.488
 20
15.188
 11
128.5
 21
15
  0
LINE
  8
0
 10
128.5
 20
15
 11
128.488
 21
14.812
  0
LINE
  8
0
 10
128.488
 20
14.812
 11
128.453
 21
14.627
  0
LINE
  8
0
 10
128.453
 20
14.627
 11
128.395
 21
14.4478
  0
LINE
  8
0
 10
128.395
 20
14.4478
 11
128.314
 21
14.2774
  0
LINE
  8
0
 10
128.314
 20
14.2774
 11
128.214
 21
14.1183
  0
LINE
  8
0
 10
128.214
 20
14.1183
 11
128.093
 21
13.9732
  0
LINE
  8
0
 10
128.093
 20
13.9732
 11
127.956
 21
13.8442
  0
LINE
  8
0
 10
127.956
 20
13.8442
 11
127.804
 21
13.7335
  0
LINE
  8
0
 10
127.804
 20
13.7335
 11
127.639
 21
13.6427
  0
LINE
  8
0
 10
127.639
 20
13.6427
 11
127.464
 21
13.5734
  0
LINE
  8
0
 10
127.464
 20
13.5734
 11
127.281
 21
13.5266
  0
LINE
  8
0
 10
127.281
 20
13.5266
 11
127.094
 21
13.5029
  0
LINE
  8
0
 10
127.094
 20
13.5029
 11
126.906
 21
13.5029
  0
LINE
  8
0
 10
350.906
 20
13.5029
 11
350.719
 21
13.5266
  0
LINE
  8
0
 10
350.719
 20
13.5266
 11
350.536
 21
13.5734
  0
LINE
  8
0
 10
350.536
 20
13.5734
 11
350.361
 21
13.6427
  0
LINE
  8
0
 10
350.361
 20
13.6427
 11
350.196
 21
13.7335
  0
LINE
  8
0
 10
350.196
 20
13.7335
 11
350.044
 21
13.8442
  0
LINE
  8
0
 10
350.044
 20
13.8442
 11
349.907
 21
13.9732
  0
LINE
  8
0
 10
349.907
 20
13.9732
 11
349.786
 21
14.1183
  0
LINE
  8
0
 10
349.786
 20
14.1183
 11
349.686
 21
14.2774
  0
LINE
  8
0
 10
349.686
 20
14.2774
 11
349.605
 21
14.4478
  0
LINE
  8
0
 10
349.605
 20
14.4478
 11
349.547
 21
14.627
  0
LINE
  8
0
 10
349.547
 20
14.627
 11
349.512
 21
14.812
  0
LINE
  8
0
 10
349.512
 20
14.812
 11
349.5
 21
15
  0
LINE
  8
0
 10
349.5
 20
15
 11
349.512
 21
15.188
  0
LINE
  8
0
 10
349.512
 20
15.188
 11
349.547
 21
15.373
  0
LINE
  8
0
 10
349.547
 20
15.373
 11
349.605
 21
15.5522
  0
LINE
  8
0
 10
349.605
 20
15.5522
 11
349.686
 21
15.7226
  0
LINE
  8
0
 10
349.686
 20
15.7226
 11
349.786
 21
15.8817
  0
LINE
  8
0
 10
349.786
 20
15.8817
 11
349.907
 21
16.0268
  0
LINE
  8
0
 10
349.907
 20
16.0268
 11
350.044
 21
16.1558
  0
LINE
  8
0
 10
350.044
 20
16.1558
 11
350.196
 21
16.2665
  0
LINE
  8
0
 10
350.196
 20
16.2665
 11
350.361
 21
16.3572
  0
LINE
  8
0
 10
350.361
 20
16.3572
 11
350.536
 21
16.4266
  0
LINE
  8
0
 10
350.536
 20
16.4266
 11
350.719
 21
16.4734
  0
LINE
  8
0
 10
350.719
 20
16.4734
 11
350.906
 21
16.497
  0
LINE
  8
0
 10
350.906
 20
16.497
 11
351.094
 21
16.497
  0
LINE
  8
0
 10
351.094
 20
16.497
 11
351.281
 21
16.4734
  0
LINE
  8
0
 10
351.281
 20
16.4734
 11
351.464
 21
16.4266
  0
LINE
  8
0
 10
351.464
 20
16.4266
 11
351.639
 21
16.3572
  0
LINE
  8
0
 10
351.639
 20
16.3572
 11
351.804
 21
16.2665
  0
LINE
  8
0
 10
351.804
 20
16.2665
 11
351.956
 21
16.1558
  0
LINE
  8
0
 10
351.956
 20
16.1558
 11
352.093
 21
16.0268
  0
LINE
  8
0
 10
352.093
 20
16.0268
 11
352.214
 21
15.8817
  0
LINE
  8
0
 10
352.214
 20
15.8817
 11
352.314
 21
15.7226
  0
LINE
  8
0
 10
352.314
 20
15.7226
 11
352.395
 21
15.5522
  0
LINE
  8
0
 10
352.395
 20
15.5522
 11
352.453
 21
15.373
  0
LINE
  8
0
 10
352.453
 20
15.373
 11
352.488
 21
15.188
  0
LINE
  8
0
 10
352.488
 20
15.188
 11
352.5
 21
15
  0
LINE
  8
0
 10
352.5
 20
15
 11
352.488
 21
14.812
  0
LINE
  8
0
 10
352.488
 20
14.812
 11
352.453
 21
14.627
  0
LINE
  8
0
 10
352.453
 20
14.627
 11
352.395
 21
14.4478
  0
LINE
  8
0
 10
352.395
 20
14.4478
 11
352.314
 21
14.2774
  0
LINE
  8
0
 10
352.314
 20
14.2774
 11
352.214
 21
14.1183
  0
LINE
  8
0
 10
352.214
 20
14.1183
 11
352.093
 21
13.9732
  0
LINE
  8
0
 10
352.093
 20
13.9732
 11
351.956
 21
13.8442
  0
LINE
  8
0
 10
351.956
 20
13.8442
 11
351.804
 21
13.7335
  0
LINE
  8
0
 10
351.804
 20
13.7335
 11
351.639
 21
13.6427
  0
LINE
  8
0
 10
351.639
 20
13.6427
 11
351.464
 21
13.5734
  0
LINE
  8
0
 10
351.464
 20
13.5734
 11
351.281
 21
13.5266
  0
LINE
  8
0
 10
351.281
 20
13.5266
 11
351.094
 21
13.5029
  0
LINE
  8
0
 10
351.094
 20
13.5029
 11
350.906
 21
13.5029
  0
LINE
  8
0
 10
320.906
 20
-16.497
 11
320.719
 21
-16.4734
  0
LINE
  8
0
 10
320.719
 20
-16.4734
 11
320.536
 21
-16.4266
  0
LINE
  8
0
 10
320.536
 20
-16.4266
 11
320.361
 21
-16.3572
  0
LINE
  8
0
 10
320.361
 20
-16.3572
 11
320.196
 21
-16.2665
  0
LINE
  8
0
 10
320.196
 20
-16.2665
 11
320.044
 21
-16.1558
  0
LINE
  8
0
 10
320.044
 20
-16.1558
 11
319.907
 21
-16.0268
  0
LINE
  8
0
 10
319.907
 20
-16.0268
 11
319.786
 21
-15.8817
  0
LINE
  8
0
 10
319.786
 20
-15.8817
 11
319.686
 21
-15.7226
  0
LINE
  8
0
 10
319.686
 20
-15.7226
 11
319.605
 21
-15.5522
  0
LINE
  8
0
 10
319.605
 20
-15.5522
 11
319.547
 21
-15.373
  0
LINE
  8
0
 10
319.547
 20
-15.373
 11
319.512
 21
-15.188
  0
LINE
  8
0
 10
319.512
 20
-15.188
 11
319.5
 21
-15
  0
LINE
  8
0
 10
319.5
 20
-15
 11
319.512
 21
-14.812
  0
LINE
  8
0
 10
319.512
 20
-14.812
 11
319.547
 21
-14.627
  0
LINE
  8
0
 10
319.547
 20
-14.627
 11
319.605
 21
-14.4478
  0
LINE
  8
0
 10
319.605
 20
-14.4478
 11
319.686
 21
-14.2774
  0
LINE
  8
0
 10
319.686
 20
-14.2774
 11
319.786
 21
-14.1183
  0
LINE
  8
0
 10
319.786
 20
-14.1183
 11
319.907
 21
-13.9732
  0
LINE
  8
0
 10
319.907
 20
-13.9732
 11
320.044
 21
-13.8442
  0
LINE
  8
0
 10
320.044
 20
-13.8442
 11
320.196
 21
-13.7335
  0
LINE
  8
0
 10
320.196
 20
-13.7335
 11
320.361
 21
-13.6427
  0
LINE
  8
0
 10
320.361
 20
-13.6427
 11
320.536
 21
-13.5734
  0
LINE
  8
0
 10
320.536
 20
-13.5734
 11
320.719
 21
-13.5266
  0
LINE
  8
0
 10
320.719
 20
-13.5266
 11
320.906
 21
-13.5029
  0
LINE
  8
0
 10
320.906
 20
-13.5029
 11
321.094
 21
-13.5029
  0
LINE
  8
0
 10
321.094
 20
-13.5029
 11
321.281
 21
-13.5266
  0
LINE
  8
0
 10
321.281
 20
-13.5266
 11
321.464
 21
-13.5734
  0
LINE
  8
0
 10
321.464
 20
-13.5734
 11
321.639
 21
-13.6427
  0
LINE
  8
0
 10
321.639
 20
-13.6427
 11
321.804
 21
-13.7335
  0
LINE
  8
0
 10
321.804
 20
-13.7335
 11
321.956
 21
-13.8442
  0
LINE
  8
0
 10
321.956
 20
-13.8442
 11
322.093
 21
-13.9732
  0
LINE
  8
0
 10
322.093
 20
-13.9732
 11
322.214
 21
-14.1183
  0
LINE
  8
0
 10
322.214
 20
-14.1183
 11
322.314
 21
-14.2774
  0
LINE
  8
0
 10
322.314
 20
-14.2774
 11
322.395
 21
-14.4478
  0
LINE
  8
0
 10
322.395
 20
-14.4478
 11
322.453
 21
-14.627
  0
LINE
  8
0
 10
322.453
 20
-14.627
 11
322.488
 21
-14.812
  0
LINE
  8
0
 10
322.488
 20
-14.812
 11
322.5
 21
-15
  0
LINE
  8
0
 10
322.5
 20
-15
 11
322.488
 21
-15.188
  0
LINE
  8
0
 10
322.488
 20
-15.188
 11
322.453
 21
-15.373
  0
LINE
  8
0
 10
322.453
 20
-15.373
 11
322.395
 21
-15.5522
  0
LINE
  8
0
 10
322.395
 20
-15.5522
 11
322.314
 21
-15.7226
  0
LINE
  8
0
 10
322.314
 20
-15.7226
 11
322.214
 21
-15.8817
  0
LINE
  8
0
 10
322.214
 20
-15.8817
 11
322.093
 21
-16.0268
  0
LINE
  8
0
 10
322.093
 20
-16.0268
 11
321.956
 21
-16.1558
  0
LINE
  8
0
 10
321.956
 20
-16.1558
 11
321.804
 21
-16.2665
  0
LINE
  8
0
 10
321.804
 20
-16.2665
 11
321.639
 21
-16.3572
  0
LINE
  8
0
 10
321.639
 20
-16.3572
 11
321.464
 21
-16.4266
  0
LINE
  8
0
 10
321.464
 20
-16.4266
 11
321.281
 21
-16.4734
  0
LINE
  8
0
 10
321.281
 20
-16.4734
 11
321.094
 21
-16.497
  0
LINE
  8
0
 10
321.094
 20
-16.497
 11
320.906
 21
-16.497
  0
LINE
  8
0
 10
432.906
 20
-16.497
 11
432.719
 21
-16.4734
  0
LINE
  8
0
 10
432.719
 20
-16.4734
 11
432.536
 21
-16.4266
  0
LINE
  8
0
 10
432.536
 20
-16.4266
 11
432.361
 21
-16.3572
  0
LINE
  8
0
 10
432.361
 20
-16.3572
 11
432.196
 21
-16.2665
  0
LINE
  8
0
 10
432.196
 20
-16.2665
 11
432.044
 21
-16.1558
  0
LINE
  8
0
 10
432.044
 20
-16.1558
 11
431.907
 21
-16.0268
  0
LINE
  8
0
 10
431.907
 20
-16.0268
 11
431.786
 21
-15.8817
  0
LINE
  8
0
 10
431.786
 20
-15.8817
 11
431.686
 21
-15.7226
  0
LINE
  8
0
 10
431.686
 20
-15.7226
 11
431.605
 21
-15.5522
  0
LINE
  8
0
 10
431.605
 20
-15.5522
 11
431.547
 21
-15.373
  0
LINE
  8
0
 10
431.547
 20
-15.373
 11
431.512
 21
-15.188
  0
LINE
  8
0
 10
431.512
 20
-15.188
 11
431.5
 21
-15
  0
LINE
  8
0
 10
431.5
 20
-15
 11
431.512
 21
-14.812
  0
LINE
  8
0
 10
431.512
 20
-14.812
 11
431.547
 21
-14.627
  0
LINE
  8
0
 10
431.547
 20
-14.627
 11
431.605
 21
-14.4478
  0
LINE
  8
0
 10
431.605
 20
-14.4478
 11
431.686
 21
-14.2774
  0
LINE
  8
0
 10
431.686
 20
-14.2774
 11
431.786
 21
-14.1183
  0
LINE
  8
0
 10
431.786
 20
-14.1183
 11
431.907
 21
-13.9732
  0
LINE
  8
0
 10
431.907
 20
-13.9732
 11
432.044
 21
-13.8442
  0
LINE
  8
0
 10
432.044
 20
-13.8442
 11
432.196
 21
-13.7335
  0
LINE
  8
0
 10
432.196
 20
-13.7335
 11
432.361
 21
-13.6427
  0
LINE
  8
0
 10
432.361
 20
-13.6427
 11
432.536
 21
-13.5734
  0
LINE
  8
0
 10
432.536
 20
-13.5734
 11
432.719
 21
-13.5266
  0
LINE
  8
0
 10
432.719
 20
-13.5266
 11
432.906
 21
-13.5029
  0
LINE
  8
0
 10
432.906
 20
-13.5029
 11
433.094
 21
-13.5029
  0
LINE
  8
0
 10
433.094
 20
-13.5029
 11
433.281
 21
-13.5266
  0
LINE
  8
0
 10
433.281
 20
-13.5266
 11
433.464
 21
-13.5734
  0
LINE
  8
0
 10
433.464
 20
-13.5734
 11
433.639
 21
-13.6427
  0
LINE
  8
0
 10
433.639
 20
-13.6427
 11
433.804
 21
-13.7335
  0
LINE
  8
0
 10
433.804
 20
-13.7335
 11
433.956
 21
-13.8442
  0
LINE
  8
0
 10
433.956
 20
-13.8442
 11
434.093
 21
-13.9732
  0
LINE
  8
0
 10
434.093
 20
-13.9732
 11
434.214
 21
-14.1183
  0
LINE
  8
0
 10
434.214
 20
-14.1183
 11
434.314
 21
-14.2774
  0
LINE
  8
0
 10
434.314
 20
-14.2774
 11
434.395
 21
-14.4478
  0
LINE
  8
0
 10
434.395
 20
-14.4478
 11
434.453
 21
-14.627
  0
LINE
  8
0
 10
434.453
 20
-14.627
 11
434.488
 21
-14.812
  0
LINE
  8
0
 10
434.488
 20
-14.812
 11
434.5
 21
-15
  0
LINE
  8
0
 10
434.5
 20
-15
 11
434.488
 21
-15.188
  0
LINE
  8
0
 10
434.488
 20
-15.188
 11
434.453
 21
-15.373
  0
LINE
  8
0
 10
434.453
 20
-15.373
 11
434.395
 21
-15.5522
  0
LINE
  8
0
 10
434.395
 20
-15.5522
 11
434.314
 21
-15.7226
  0
LINE
  8
0
 10
434.314
 20
-15.7226
 11
434.214
 21
-15.8817
  0
LINE
  8
0
 10
434.214
 20
-15.8817
 11
434.093
 21
-16.0268
  0
LINE
  8
0
 10
434.093
 20
-16.0268
 11
433.956
 21
-16.1558
  0
LINE
  8
0
 10
433.956
 20
-16.1558
 11
433.804
 21
-16.2665
  0
LINE
  8
0
 10
433.804
 20
-16.2665
 11
433.639
 21
-16.3572
  0
LINE
  8
0
 10
433.639
 20
-16.3572
 11
433.464
 21
-16.4266
  0
LINE
  8
0
 10
433.464
 20
-16.4266
 11
433.281
 21
-16.4734
  0
LINE
  8
0
 10
433.281
 20
-16.4734
 11
433.094
 21
-16.497
  0
LINE
  8
0
 10
433.094
 20
-16.497
 11
432.906
 21
-16.497
  0
LINE
  8
0
 10
-15.0942
 20
-16.497
 11
-15.2811
 21
-16.4734
  0
LINE
  8
0
 10
-15.2811
 20
-16.4734
 11
-15.4635
 21
-16.4266
  0
LINE
  8
0
 10
-15.4635
 20
-16.4266
 11
-15.6387
 21
-16.3572
  0
LINE
  8
0
 10
-15.6387
 20
-16.3572
 11
-15.8037
 21
-16.2665
  0
LINE
  8
0
 10
-15.8037
 20
-16.2665
 11
-15.9561
 21
-16.1558
  0
LINE
  8
0
 10
-15.9561
 20
-16.1558
 11
-16.0934
 21
-16.0268
  0
LINE
  8
0
 10
-16.0934
 20
-16.0268
 11
-16.2135
 21
-15.8817
  0
LINE
  8
0
 10
-16.2135
 20
-15.8817
 11
-16.3145
 21
-15.7226
  0
LINE
  8
0
 10
-16.3145
 20
-15.7226
 11
-16.3947
 21
-15.5522
  0
LINE
  8
0
 10
-16.3947
 20
-15.5522
 11
-16.4529
 21
-15.373
  0
LINE
  8
0
 10
-16.4529
 20
-15.373
 11
-16.4882
 21
-15.188
  0
LINE
  8
0
 10
-16.4882
 20
-15.188
 11
-16.5
 21
-15
  0
LINE
  8
0
 10
-16.5
 20
-15
 11
-16.4882
 21
-14.812
  0
LINE
  8
0
 10
-16.4882
 20
-14.812
 11
-16.4529
 21
-14.627
  0
LINE
  8
0
 10
-16.4529
 20
-14.627
 11
-16.3947
 21
-14.4478
  0
LINE
  8
0
 10
-16.3947
 20
-14.4478
 11
-16.3145
 21
-14.2774
  0
LINE
  8
0
 10
-16.3145
 20
-14.2774
 11
-16.2135
 21
-14.1183
  0
LINE
  8
0
 10
-16.2135
 20
-14.1183
 11
-16.0934
 21
-13.9732
  0
LINE
  8
0
 10
-16.0934
 20
-13.9732
 11
-15.9561
 21
-13.8442
  0
LINE
  8
0
 10
-15.9561
 20
-13.8442
 11
-15.8037
 21
-13.7335
  0
LINE
  8
0
 10
-15.8037
 20
-13.7335
 11
-15.6387
 21
-13.6427
  0
LINE
  8
0
 10
-15.6387
 20
-13.6427
 11
-15.4635
 21
-13.5734
  0
LINE
  8
0
 10
-15.4635
 20
-13.5734
 11
-15.2811
 21
-13.5266
  0
LINE
  8
0
 10
-15.2811
 20
-13.5266
 11
-15.0942
 21
-13.5029
  0
LINE
  8
0
 10
-15.0942
 20
-13.5029
 11
-14.9058
 21
-13.5029
  0
LINE
  8
0
 10
-14.9058
 20
-13.5029
 11
-14.7189
 21
-13.5266
  0
LINE
  8
0
 10
-14.7189
 20
-13.5266
 11
-14.5365
 21
-13.5734
  0
LINE
  8
0
 10
-14.5365
 20
-13.5734
 11
-14.3613
 21
-13.6427
  0
LINE
  8
0
 10
-14.3613
 20
-13.6427
 11
-14.1963
 21
-13.7335
  0
LINE
  8
0
 10
-14.1963
 20
-13.7335
 11
-14.0439
 21
-13.8442
  0
LINE
  8
0
 10
-14.0439
 20
-13.8442
 11
-13.9065
 21
-13.9732
  0
LINE
  8
0
 10
-13.9065
 20
-13.9732
 11
-13.7865
 21
-14.1183
  0
LINE
  8
0
 10
-13.7865
 20
-14.1183
 11
-13.6855
 21
-14.2774
  0
LINE
  8
0
 10
-13.6855
 20
-14.2774
 11
-13.6053
 21
-14.4478
  0
LINE
  8
0
 10
-13.6053
 20
-14.4478
 11
-13.5471
 21
-14.627
  0
LINE
  8
0
 10
-13.5471
 20
-14.627
 11
-13.5118
 21
-14.812
  0
LINE
  8
0
 10
-13.5118
 20
-14.812
 11
-13.5
 21
-15
  0
LINE
  8
0
 10
-13.5
 20
-15
 11
-13.5118
 21
-15.188
  0
LINE
  8
0
 10
-13.5118
 20
-15.188
 11
-13.5471
 21
-15.373
  0
LINE
  8
0
 10
-13.5471
 20
-15.373
 11
-13.6053
 21
-15.5522
  0
LINE
  8
0
 10
-13.6053
 20
-15.5522
 11
-13.6855
 21
-15.7226
  0
LINE
  8
0
 10
-13.6855
 20
-15.7226
 11
-13.7865
 21
-15.8817
  0
LINE
  8
0
 10
-13.7865
 20
-15.8817
 11
-13.9065
 21
-16.0268
  0
LINE
  8
0
 10
-13.9065
 20
-16.0268
 11
-14.0439
 21
-16.1558
  0
LINE
  8
0
 10
-14.0439
 20
-16.1558
 11
-14.1963
 21
-16.2665
  0
LINE
  8
0
 10
-14.1963
 20
-16.2665
 11
-14.3613
 21
-16.3572
  0
LINE
  8
0
 10
-14.3613
 20
-16.3572
 11
-14.5365
 21
-16.4266
  0
LINE
  8
0
 10
-14.5365
 20
-16.4266
 11
-14.7189
 21
-16.4734
  0
LINE
  8
0
 10
-14.7189
 20
-16.4734
 11
-14.9058
 21
-16.497
  0
LINE
  8
0
 10
-14.9058
 20
-16.497
 11
-15.0942
 21
-16.497
  0
LINE
  8
0
 10
96.9058
 20
-16.497
 11
96.7189
 21
-16.4734
  0
LINE
  8
0
 10
96.7189
 20
-16.4734
 11
96.5365
 21
-16.4266
  0
LINE
  8
0
 10
96.5365
 20
-16.4266
 11
96.3613
 21
-16.3572
  0
LINE
  8
0
 10
96.3613
 20
-16.3572
 11
96.1963
 21
-16.2665
  0
LINE
  8
0
 10
96.1963
 20
-16.2665
 11
96.0439
 21
-16.1558
  0
LINE
  8
0
 10
96.0439
 20
-16.1558
 11
95.9066
 21
-16.0268
  0
LINE
  8
0
 10
95.9066
 20
-16.0268
 11
95.7865
 21
-15.8817
  0
LINE
  8
0
 10
95.7865
 20
-15.8817
 11
95.6855
 21
-15.7226
  0
LINE
  8
0
 10
95.6855
 20
-15.7226
 11
95.6053
 21
-15.5522
  0
LINE
  8
0
 10
95.6053
 20
-15.5522
 11
95.5471
 21
-15.373
  0
LINE
  8
0
 10
95.5471
 20
-15.373
 11
95.5118
 21
-15.188
  0
LINE
  8
0
 10
95.5118
 20
-15.188
 11
95.5
 21
-15
  0
LINE
  8
0
 10
95.5
 20
-15
 11
95.5118
 21
-14.812
  0
LINE
  8
0
 10
95.5118
 20
-14.812
 11
95.5471
 21
-14.627
  0
LINE
  8
0
 10
95.5471
 20
-14.627
 11
95.6053
 21
-14.4478
  0
LINE
  8
0
 10
95.6053
 20
-14.4478
 11
95.6855
 21
-14.2774
  0
LINE
  8
0
 10
95.6855
 20
-14.2774
 11
95.7865
 21
-14.1183
  0
LINE
  8
0
 10
95.7865
 20
-14.1183
 11
95.9066
 21
-13.9732
  0
LINE
  8
0
 10
95.9066
 20
-13.9732
 11
96.0439
 21
-13.8442
  0
LINE
  8
0
 10
96.0439
 20
-13.8442
 11
96.1963
 21
-13.7335
  0
LINE
  8
0
 10
96.1963
 20
-13.7335
 11
96.3613
 21
-13.6427
  0
LINE
  8
0
 10
96.3613
 20
-13.6427
 11
96.5365
 21
-13.5734
  0
LINE
  8
0
 10
96.5365
 20
-13.5734
 11
96.7189
 21
-13.5266
  0
LINE
  8
0
 10
96.7189
 20
-13.5266
 11
96.9058
 21
-13.5029
  0
LINE
  8
0
 10
96.9058
 20
-13.5029
 11
97.0942
 21
-13.5029
  0
LINE
  8
0
 10
97.0942
 20
-13.5029
 11
97.2811
 21
-13.5266
  0
LINE
  8
0
 10
97.2811
 20
-13.5266
 11
97.4635
 21
-13.5734
  0
LINE
  8
0
 10
97.4635
 20
-13.5734
 11
97.6387
 21
-13.6427
  0
LINE
  8
0
 10
97.6387
 20
-13.6427
 11
97.8037
 21
-13.7335
  0
LINE
  8
0
 10
97.8037
 20
-13.7335
 11
97.9561
 21
-13.8442
  0
LINE
  8
0
 10
97.9561
 20
-13.8442
 11
98.0935
 21
-13.9732
  0
LINE
  8
0
 10
98.0935
 20
-13.9732
 11
98.2135
 21
-14.1183
  0
LINE
  8
0
 10
98.2135
 20
-14.1183
 11
98.3145
 21
-14.2774
  0
LINE
  8
0
 10
98.3145
 20
-14.2774
 11
98.3947
 21
-14.4478
  0
LINE
  8
0
 10
98.3947
 20
-14.4478
 11
98.4529
 21
-14.627
  0
LINE
  8
0
 10
98.4529
 20
-14.627
 11
98.4882
 21
-14.812
  0
LINE
  8
0
 10
98.4882
 20
-14.812
 11
98.5
 21
-15
  0
LINE
  8
0
 10
98.5
 20
-15
 11
98.4882
 21
-15.188
  0
LINE
  8
0
 10
98.4882
 20
-15.188
 11
98.4529
 21
-15.373
  0
LINE
  8
0
 10
98.4529
 20
-15.373
 11
98.3947
 21
-15.5522
  0
LINE
  8
0
 10
98.3947
 20
-15.5522
 11
98.3145
 21
-15.7226
  0
LINE
  8
0
 10
98.3145
 20
-15.7226
 11
98.2135
 21
-15.8817
  0
LINE
  8
0
 10
98.2135
 20
-15.8817
 11
98.0935
 21
-16.0268
  0
LINE
  8
0
 10
98.0935
 20
-16.0268
 11
97.9561
 21
-16.1558
  0
LINE
  8
0
 10
97.9561
 20
-16.1558
 11
97.8037
 21
-16.2665
  0
LINE
  8
0
 10
97.8037
 20
-16.2665
 11
97.6387
 21
-16.3572
  0
LINE
  8
0
 10
97.6387
 20
-16.3572
 11
97.4635
 21
-16.4266
  0
LINE
  8
0
 10
97.4635
 20
-16.4266
 11
97.2811
 21
-16.4734
  0
LINE
  8
0
 10
97.2811
 20
-16.4734
 11
97.0942
 21
-16.497
  0
LINE
  8
0
 10
97.0942
 20
-16.497
 11
96.9058
 21
-16.497
  0
LINE
  8
0
 10
208.906
 20
-16.497
 11
208.719
 21
-16.4734
  0
LINE
  8
0
 10
208.719
 20
-16.4734
 11
208.536
 21
-16.4266
  0
LINE
  8
0
 10
208.536
 20
-16.4266
 11
208.361
 21
-16.3572
  0
LINE
  8
0
 10
208.361
 20
-16.3572
 11
208.196
 21
-16.2665
  0
LINE
  8
0
 10
208.196
 20
-16.2665
 11
208.044
 21
-16.1558
  0
LINE
  8
0
 10
208.044
 20
-16.1558
 11
207.907
 21
-16.0268
  0
LINE
  8
0
 10
207.907
 20
-16.0268
 11
207.786
 21
-15.8817
  0
LINE
  8
0
 10
207.786
 20
-15.8817
 11
207.686
 21
-15.7226
  0
LINE
  8
0
 10
207.686
 20
-15.7226
 11
207.605
 21
-15.5522
  0
LINE
  8
0
 10
207.605
 20
-15.5522
 11
207.547
 21
-15.373
  0
LINE
  8
0
 10
207.547
 20
-15.373
 11
207.512
 21
-15.188
  0
LINE
  8
0
 10
207.512
 20
-15.188
 11
207.5
 21
-15
  0
LINE
  8
0
 10
207.5
 20
-15
 11
207.512
 21
-14.812
  0
LINE
  8
0
 10
207.512
 20
-14.812
 11
207.547
 21
-14.627
  0
LINE
  8
0
 10
207.547
 20
-14.627
 11
207.605
 21
-14.4478
  0
LINE
  8
0
 10
207.605
 20
-14.4478
 11
207.686
 21
-14.2774
  0
LINE
  8
0
 10
207.686
 20
-14.2774
 11
207.786
 21
-14.1183
  0
LINE
  8
0
 10
207.786
 20
-14.1183
 11
207.907
 21
-13.9732
  0
LINE
  8
0
 10
207.907
 20
-13.9732
 11
208.044
 21
-13.8442
  0
LINE
  8
0
 10
208.044
 20
-13.8442
 11
208.196
 21
-13.7335
  0
LINE
  8
0
 10
208.196
 20
-13.7335
 11
208.361
 21
-13.6427
  0
LINE
  8
0
 10
208.361
 20
-13.6427
 11
208.536
 21
-13.5734
  0
LINE
  8
0
 10
208.536
 20
-13.5734
 11
208.719
 21
-13.5266
  0
LINE
  8
0
 10
208.719
 20
-13.5266
 11
208.906
 21
-13.5029
  0
LINE
  8
0
 10
208.906
 20
-13.5029
 11
209.094
 21
-13.5029
  0
LINE
  8
0
 10
209.094
 20
-13.5029
 11
209.281
 21
-13.5266
  0
LINE
  8
0
 10
209.281
 20
-13.5266
 11
209.464
 21
-13.5734
  0
LINE
  8
0
 10
209.464
 20
-13.5734
 11
209.639
 21
-13.6427
  0
LINE
  8
0
 10
209.639
 20
-13.6427
 11
209.804
 21
-13.7335
  0
LINE
  8
0
 10
209.804
 20
-13.7335
 11
209.956
 21
-13.8442
  0
LINE
  8
0
 10
209.956
 20
-13.8442
 11
210.093
 21
-13.9732
  0
LINE
  8
0
 10
210.093
 20
-13.9732
 11
210.214
 21
-14.1183
  0
LINE
  8
0
 10
210.214
 20
-14.1183
 11
210.314
 21
-14.2774
  0
LINE
  8
0
 10
210.314
 20
-14.2774
 11
210.395
 21
-14.4478
  0
LINE
  8
0
 10
210.395
 20
-14.4478
 11
210.453
 21
-14.627
  0
LINE
  8
0
 10
210.453
 20
-14.627
 11
210.488
 21
-14.812
  0
LINE
  8
0
 10
210.488
 20
-14.812
 11
210.5
 21
-15
  0
LINE
  8
0
 10
210.5
 20
-15
 11
210.488
 21
-15.188
  0
LINE
  8
0
 10
210.488
 20
-15.188
 11
210.453
 21
-15.373
  0
LINE
  8
0
 10
210.453
 20
-15.373
 11
210.395
 21
-15.5522
  0
LINE
  8
0
 10
210.395
 20
-15.5522
 11
210.314
 21
-15.7226
  0
LINE
  8
0
 10
210.314
 20
-15.7226
 11
210.214
 21
-15.8817
  0
LINE
  8
0
 10
210.214
 20
-15.8817
 11
210.093
 21
-16.0268
  0
LINE
  8
0
 10
210.093
 20
-16.0268
 11
209.956
 21
-16.1558
  0
LINE
  8
0
 10
209.956
 20
-16.1558
 11
209.804
 21
-16.2665
  0
LINE
  8
0
 10
209.804
 20
-16.2665
 11
209.639
 21
-16.3572
  0
LINE
  8
0
 10
209.639
 20
-16.3572
 11
209.464
 21
-16.4266
  0
LINE
  8
0
 10
209.464
 20
-16.4266
 11
209.281
 21
-16.4734
  0
LINE
  8
0
 10
209.281
 20
-16.4734
 11
209.094
 21
-16.497
  0
LINE
  8
0
 10
209.094
 20
-16.497
 11
208.906
 21
-16.497
  0
LINE
  8
0
 10
-54.0942
 20
-45.497
 11
-54.2811
 21
-45.4734
  0
LINE
  8
0
 10
-54.2811
 20
-45.4734
 11
-54.4635
 21
-45.4266
  0
LINE
  8
0
 10
-54.4635
 20
-45.4266
 11
-54.6387
 21
-45.3572
  0
LINE
  8
0
 10
-54.6387
 20
-45.3572
 11
-54.8037
 21
-45.2665
  0
LINE
  8
0
 10
-54.8037
 20
-45.2665
 11
-54.9561
 21
-45.1558
  0
LINE
  8
0
 10
-54.9561
 20
-45.1558
 11
-55.0934
 21
-45.0268
  0
LINE
  8
0
 10
-55.0934
 20
-45.0268
 11
-55.2135
 21
-44.8817
  0
LINE
  8
0
 10
-55.2135
 20
-44.8817
 11
-55.3145
 21
-44.7226
  0
LINE
  8
0
 10
-55.3145
 20
-44.7226
 11
-55.3947
 21
-44.5522
  0
LINE
  8
0
 10
-55.3947
 20
-44.5522
 11
-55.4529
 21
-44.373
  0
LINE
  8
0
 10
-55.4529
 20
-44.373
 11
-55.4882
 21
-44.188
  0
LINE
  8
0
 10
-55.4882
 20
-44.188
 11
-55.5
 21
-44
  0
LINE
  8
0
 10
-55.5
 20
-44
 11
-55.4882
 21
-43.812
  0
LINE
  8
0
 10
-55.4882
 20
-43.812
 11
-55.4529
 21
-43.627
  0
LINE
  8
0
 10
-55.4529
 20
-43.627
 11
-55.3947
 21
-43.4478
  0
LINE
  8
0
 10
-55.3947
 20
-43.4478
 11
-55.3145
 21
-43.2774
  0
LINE
  8
0
 10
-55.3145
 20
-43.2774
 11
-55.2135
 21
-43.1183
  0
LINE
  8
0
 10
-55.2135
 20
-43.1183
 11
-55.0934
 21
-42.9732
  0
LINE
  8
0
 10
-55.0934
 20
-42.9732
 11
-54.9561
 21
-42.8442
  0
LINE
  8
0
 10
-54.9561
 20
-42.8442
 11
-54.8037
 21
-42.7335
  0
LINE
  8
0
 10
-54.8037
 20
-42.7335
 11
-54.6387
 21
-42.6427
  0
LINE
  8
0
 10
-54.6387
 20
-42.6427
 11
-54.4635
 21
-42.5734
  0
LINE
  8
0
 10
-54.4635
 20
-42.5734
 11
-54.2811
 21
-42.5266
  0
LINE
  8
0
 10
-54.2811
 20
-42.5266
 11
-54.0942
 21
-42.5029
  0
LINE
  8
0
 10
-54.0942
 20
-42.5029
 11
-53.9058
 21
-42.5029
  0
LINE
  8
0
 10
-53.9058
 20
-42.5029
 11
-53.7189
 21
-42.5266
  0
LINE
  8
0
 10
-53.7189
 20
-42.5266
 11
-53.5365
 21
-42.5734
  0
LINE
  8
0
 10
-53.5365
 20
-42.5734
 11
-53.3613
 21
-42.6427
  0
LINE
  8
0
 10
-53.3613
 20
-42.6427
 11
-53.1963
 21
-42.7335
  0
LINE
  8
0
 10
-53.1963
 20
-42.7335
 11
-53.0439
 21
-42.8442
  0
LINE
  8
0
 10
-53.0439
 20
-42.8442
 11
-52.9065
 21
-42.9732
  0
LINE
  8
0
 10
-52.9065
 20
-42.9732
 11
-52.7865
 21
-43.1183
  0
LINE
  8
0
 10
-52.7865
 20
-43.1183
 11
-52.6855
 21
-43.2774
  0
LINE
  8
0
 10
-52.6855
 20
-43.2774
 11
-52.6053
 21
-43.4478
  0
LINE
  8
0
 10
-52.6053
 20
-43.4478
 11
-52.5471
 21
-43.627
  0
LINE
  8
0
 10
-52.5471
 20
-43.627
 11
-52.5118
 21
-43.812
  0
LINE
  8
0
 10
-52.5118
 20
-43.812
 11
-52.5
 21
-44
  0
LINE
  8
0
 10
-52.5
 20
-44
 11
-52.5118
 21
-44.188
  0
LINE
  8
0
 10
-52.5118
 20
-44.188
 11
-52.5471
 21
-44.373
  0
LINE
  8
0
 10
-52.5471
 20
-44.373
 11
-52.6053
 21
-44.5522
  0
LINE
  8
0
 10
-52.6053
 20
-44.5522
 11
-52.6855
 21
-44.7226
  0
LINE
  8
0
 10
-52.6855
 20
-44.7226
 11
-52.7865
 21
-44.8817
  0
LINE
  8
0
 10
-52.7865
 20
-44.8817
 11
-52.9065
 21
-45.0268
  0
LINE
  8
0
 10
-52.9065
 20
-45.0268
 11
-53.0439
 21
-45.1558
  0
LINE
  8
0
 10
-53.0439
 20
-45.1558
 11
-53.1963
 21
-45.2665
  0
LINE
  8
0
 10
-53.1963
 20
-45.2665
 11
-53.3613
 21
-45.3572
  0
LINE
  8
0
 10
-53.3613
 20
-45.3572
 11
-53.5365
 21
-45.4266
  0
LINE
  8
0
 10
-53.5365
 20
-45.4266
 11
-53.7189
 21
-45.4734
  0
LINE
  8
0
 10
-53.7189
 20
-45.4734
 11
-53.9058
 21
-45.497
  0
LINE
  8
0
 10
-53.9058
 20
-45.497
 11
-54.0942
 21
-45.497
  0
LINE
  8
0
 10
501.906
 20
-45.497
 11
501.719
 21
-45.4734
  0
LINE
  8
0
 10
501.719
 20
-45.4734
 11
501.536
 21
-45.4266
  0
LINE
  8
0
 10
501.536
 20
-45.4266
 11
501.361
 21
-45.3572
  0
LINE
  8
0
 10
501.361
 20
-45.3572
 11
501.196
 21
-45.2665
  0
LINE
  8
0
 10
501.196
 20
-45.2665
 11
501.044
 21
-45.1558
  0
LINE
  8
0
 10
501.044
 20
-45.1558
 11
500.907
 21
-45.0268
  0
LINE
  8
0
 10
500.907
 20
-45.0268
 11
500.786
 21
-44.8817
  0
LINE
  8
0
 10
500.786
 20
-44.8817
 11
500.686
 21
-44.7226
  0
LINE
  8
0
 10
500.686
 20
-44.7226
 11
500.605
 21
-44.5522
  0
LINE
  8
0
 10
500.605
 20
-44.5522
 11
500.547
 21
-44.373
  0
LINE
  8
0
 10
500.547
 20
-44.373
 11
500.512
 21
-44.188
  0
LINE
  8
0
 10
500.512
 20
-44.188
 11
500.5
 21
-44
  0
LINE
  8
0
 10
500.5
 20
-44
 11
500.512
 21
-43.812
  0
LINE
  8
0
 10
500.512
 20
-43.812
 11
500.547
 21
-43.627
  0
LINE
  8
0
 10
500.547
 20
-43.627
 11
500.605
 21
-43.4478
  0
LINE
  8
0
 10
500.605
 20
-43.4478
 11
500.686
 21
-43.2774
  0
LINE
  8
0
 10
500.686
 20
-43.2774
 11
500.786
 21
-43.1183
  0
LINE
  8
0
 10
500.786
 20
-43.1183
 11
500.907
 21
-42.9732
  0
LINE
  8
0
 10
500.907
 20
-42.9732
 11
501.044
 21
-42.8442
  0
LINE
  8
0
 10
501.044
 20
-42.8442
 11
501.196
 21
-42.7335
  0
LINE
  8
0
 10
501.196
 20
-42.7335
 11
501.361
 21
-42.6427
  0
LINE
  8
0
 10
501.361
 20
-42.6427
 11
501.536
 21
-42.5734
  0
LINE
  8
0
 10
501.536
 20
-42.5734
 11
501.719
 21
-42.5266
  0
LINE
  8
0
 10
501.719
 20
-42.5266
 11
501.906
 21
-42.5029
  0
LINE
  8
0
 10
501.906
 20
-42.5029
 11
502.094
 21
-42.5029
  0
LINE
  8
0
 10
502.094
 20
-42.5029
 11
502.281
 21
-42.5266
  0
LINE
  8
0
 10
502.281
 20
-42.5266
 11
502.464
 21
-42.5734
  0
LINE
  8
0
 10
502.464
 20
-42.5734
 11
502.639
 21
-42.6427
  0
LINE
  8
0
 10
502.639
 20
-42.6427
 11
502.804
 21
-42.7335
  0
LINE
  8
0
 10
502.804
 20
-42.7335
 11
502.956
 21
-42.8442
  0
LINE
  8
0
 10
502.956
 20
-42.8442
 11
503.093
 21
-42.9732
  0
LINE
  8
0
 10
503.093
 20
-42.9732
 11
503.214
 21
-43.1183
  0
LINE
  8
0
 10
503.214
 20
-43.1183
 11
503.314
 21
-43.2774
  0
LINE
  8
0
 10
503.314
 20
-43.2774
 11
503.395
 21
-43.4478
  0
LINE
  8
0
 10
503.395
 20
-43.4478
 11
503.453
 21
-43.627
  0
LINE
  8
0
 10
503.453
 20
-43.627
 11
503.488
 21
-43.812
  0
LINE
  8
0
 10
503.488
 20
-43.812
 11
503.5
 21
-44
  0
LINE
  8
0
 10
503.5
 20
-44
 11
503.488
 21
-44.188
  0
LINE
  8
0
 10
503.488
 20
-44.188
 11
503.453
 21
-44.373
  0
LINE
  8
0
 10
503.453
 20
-44.373
 11
503.395
 21
-44.5522
  0
LINE
  8
0
 10
503.395
 20
-44.5522
 11
503.314
 21
-44.7226
  0
LINE
  8
0
 10
503.314
 20
-44.7226
 11
503.214
 21
-44.8817
  0
LINE
  8
0
 10
503.214
 20
-44.8817
 11
503.093
 21
-45.0268
  0
LINE
  8
0
 10
503.093
 20
-45.0268
 11
502.956
 21
-45.1558
  0
LINE
  8
0
 10
502.956
 20
-45.1558
 11
502.804
 21
-45.2665
  0
LINE
  8
0
 10
502.804
 20
-45.2665
 11
502.639
 21
-45.3572
  0
LINE
  8
0
 10
502.639
 20
-45.3572
 11
502.464
 21
-45.4266
  0
LINE
  8
0
 10
502.464
 20
-45.4266
 11
502.281
 21
-45.4734
  0
LINE
  8
0
 10
502.281
 20
-45.4734
 11
502.094
 21
-45.497
  0
LINE
  8
0
 10
502.094
 20
-45.497
 11
501.906
 21
-45.497
  0
ENDSEC
  0
SECTION
  2
OBJECTS
  0
DICTIONARY
  0
ENDSEC
  0
EOF
