  0
SECTION
  2
BLOCKS
  0
ENDSEC
  0
SECTION
  2
ENTITIES
  0
LINE
  8
0
 10
62.5
 20
50
 11
-62.5
 21
50
  0
LINE
  8
0
 10
-62.5
 20
50
 11
-62.5
 21
-50
  0
LINE
  8
0
 10
-62.5
 20
-50
 11
62.5
 21
-50
  0
LINE
  8
0
 10
62.5
 20
-50
 11
62.5
 21
50
  0
LINE
  8
0
 10
-57.0942
 20
42.5029
 11
-57.2811
 21
42.5266
  0
LINE
  8
0
 10
-57.2811
 20
42.5266
 11
-57.4635
 21
42.5734
  0
LINE
  8
0
 10
-57.4635
 20
42.5734
 11
-57.6387
 21
42.6427
  0
LINE
  8
0
 10
-57.6387
 20
42.6427
 11
-57.8037
 21
42.7335
  0
LINE
  8
0
 10
-57.8037
 20
42.7335
 11
-57.9561
 21
42.8442
  0
LINE
  8
0
 10
-57.9561
 20
42.8442
 11
-58.0934
 21
42.9732
  0
LINE
  8
0
 10
-58.0934
 20
42.9732
 11
-58.2135
 21
43.1183
  0
LINE
  8
0
 10
-58.2135
 20
43.1183
 11
-58.3145
 21
43.2774
  0
LINE
  8
0
 10
-58.3145
 20
43.2774
 11
-58.3947
 21
43.4478
  0
LINE
  8
0
 10
-58.3947
 20
43.4478
 11
-58.4529
 21
43.627
  0
LINE
  8
0
 10
-58.4529
 20
43.627
 11
-58.4882
 21
43.812
  0
LINE
  8
0
 10
-58.4882
 20
43.812
 11
-58.5
 21
44
  0
LINE
  8
0
 10
-58.5
 20
44
 11
-58.4882
 21
44.188
  0
LINE
  8
0
 10
-58.4882
 20
44.188
 11
-58.4529
 21
44.373
  0
LINE
  8
0
 10
-58.4529
 20
44.373
 11
-58.3947
 21
44.5522
  0
LINE
  8
0
 10
-58.3947
 20
44.5522
 11
-58.3145
 21
44.7226
  0
LINE
  8
0
 10
-58.3145
 20
44.7226
 11
-58.2135
 21
44.8817
  0
LINE
  8
0
 10
-58.2135
 20
44.8817
 11
-58.0934
 21
45.0268
  0
LINE
  8
0
 10
-58.0934
 20
45.0268
 11
-57.9561
 21
45.1558
  0
LINE
  8
0
 10
-57.9561
 20
45.1558
 11
-57.8037
 21
45.2665
  0
LINE
  8
0
 10
-57.8037
 20
45.2665
 11
-57.6387
 21
45.3572
  0
LINE
  8
0
 10
-57.6387
 20
45.3572
 11
-57.4635
 21
45.4266
  0
LINE
  8
0
 10
-57.4635
 20
45.4266
 11
-57.2811
 21
45.4734
  0
LINE
  8
0
 10
-57.2811
 20
45.4734
 11
-57.0942
 21
45.497
  0
LINE
  8
0
 10
-57.0942
 20
45.497
 11
-56.9058
 21
45.497
  0
LINE
  8
0
 10
-56.9058
 20
45.497
 11
-56.7189
 21
45.4734
  0
LINE
  8
0
 10
-56.7189
 20
45.4734
 11
-56.5365
 21
45.4266
  0
LINE
  8
0
 10
-56.5365
 20
45.4266
 11
-56.3613
 21
45.3572
  0
LINE
  8
0
 10
-56.3613
 20
45.3572
 11
-56.1963
 21
45.2665
  0
LINE
  8
0
 10
-56.1963
 20
45.2665
 11
-56.0439
 21
45.1558
  0
LINE
  8
0
 10
-56.0439
 20
45.1558
 11
-55.9065
 21
45.0268
  0
LINE
  8
0
 10
-55.9065
 20
45.0268
 11
-55.7865
 21
44.8817
  0
LINE
  8
0
 10
-55.7865
 20
44.8817
 11
-55.6855
 21
44.7226
  0
LINE
  8
0
 10
-55.6855
 20
44.7226
 11
-55.6053
 21
44.5522
  0
LINE
  8
0
 10
-55.6053
 20
44.5522
 11
-55.5471
 21
44.373
  0
LINE
  8
0
 10
-55.5471
 20
44.373
 11
-55.5118
 21
44.188
  0
LINE
  8
0
 10
-55.5118
 20
44.188
 11
-55.5
 21
44
  0
LINE
  8
0
 10
-55.5
 20
44
 11
-55.5118
 21
43.812
  0
LINE
  8
0
 10
-55.5118
 20
43.812
 11
-55.5471
 21
43.627
  0
LINE
  8
0
 10
-55.5471
 20
43.627
 11
-55.6053
 21
43.4478
  0
LINE
  8
0
 10
-55.6053
 20
43.4478
 11
-55.6855
 21
43.2774
  0
LINE
  8
0
 10
-55.6855
 20
43.2774
 11
-55.7865
 21
43.1183
  0
LINE
  8
0
 10
-55.7865
 20
43.1183
 11
-55.9065
 21
42.9732
  0
LINE
  8
0
 10
-55.9065
 20
42.9732
 11
-56.0439
 21
42.8442
  0
LINE
  8
0
 10
-56.0439
 20
42.8442
 11
-56.1963
 21
42.7335
  0
LINE
  8
0
 10
-56.1963
 20
42.7335
 11
-56.3613
 21
42.6427
  0
LINE
  8
0
 10
-56.3613
 20
42.6427
 11
-56.5365
 21
42.5734
  0
LINE
  8
0
 10
-56.5365
 20
42.5734
 11
-56.7189
 21
42.5266
  0
LINE
  8
0
 10
-56.7189
 20
42.5266
 11
-56.9058
 21
42.5029
  0
LINE
  8
0
 10
-56.9058
 20
42.5029
 11
-57.0942
 21
42.5029
  0
LINE
  8
0
 10
56.9058
 20
42.5029
 11
56.7189
 21
42.5266
  0
LINE
  8
0
 10
56.7189
 20
42.5266
 11
56.5365
 21
42.5734
  0
LINE
  8
0
 10
56.5365
 20
42.5734
 11
56.3613
 21
42.6427
  0
LINE
  8
0
 10
56.3613
 20
42.6427
 11
56.1963
 21
42.7335
  0
LINE
  8
0
 10
56.1963
 20
42.7335
 11
56.0439
 21
42.8442
  0
LINE
  8
0
 10
56.0439
 20
42.8442
 11
55.9065
 21
42.9732
  0
LINE
  8
0
 10
55.9065
 20
42.9732
 11
55.7865
 21
43.1183
  0
LINE
  8
0
 10
55.7865
 20
43.1183
 11
55.6855
 21
43.2774
  0
LINE
  8
0
 10
55.6855
 20
43.2774
 11
55.6053
 21
43.4478
  0
LINE
  8
0
 10
55.6053
 20
43.4478
 11
55.5471
 21
43.627
  0
LINE
  8
0
 10
55.5471
 20
43.627
 11
55.5118
 21
43.812
  0
LINE
  8
0
 10
55.5118
 20
43.812
 11
55.5
 21
44
  0
LINE
  8
0
 10
55.5
 20
44
 11
55.5118
 21
44.188
  0
LINE
  8
0
 10
55.5118
 20
44.188
 11
55.5471
 21
44.373
  0
LINE
  8
0
 10
55.5471
 20
44.373
 11
55.6053
 21
44.5522
  0
LINE
  8
0
 10
55.6053
 20
44.5522
 11
55.6855
 21
44.7226
  0
LINE
  8
0
 10
55.6855
 20
44.7226
 11
55.7865
 21
44.8817
  0
LINE
  8
0
 10
55.7865
 20
44.8817
 11
55.9065
 21
45.0268
  0
LINE
  8
0
 10
55.9065
 20
45.0268
 11
56.0439
 21
45.1558
  0
LINE
  8
0
 10
56.0439
 20
45.1558
 11
56.1963
 21
45.2665
  0
LINE
  8
0
 10
56.1963
 20
45.2665
 11
56.3613
 21
45.3572
  0
LINE
  8
0
 10
56.3613
 20
45.3572
 11
56.5365
 21
45.4266
  0
LINE
  8
0
 10
56.5365
 20
45.4266
 11
56.7189
 21
45.4734
  0
LINE
  8
0
 10
56.7189
 20
45.4734
 11
56.9058
 21
45.497
  0
LINE
  8
0
 10
56.9058
 20
45.497
 11
57.0942
 21
45.497
  0
LINE
  8
0
 10
57.0942
 20
45.497
 11
57.2811
 21
45.4734
  0
LINE
  8
0
 10
57.2811
 20
45.4734
 11
57.4635
 21
45.4266
  0
LINE
  8
0
 10
57.4635
 20
45.4266
 11
57.6387
 21
45.3572
  0
LINE
  8
0
 10
57.6387
 20
45.3572
 11
57.8037
 21
45.2665
  0
LINE
  8
0
 10
57.8037
 20
45.2665
 11
57.9561
 21
45.1558
  0
LINE
  8
0
 10
57.9561
 20
45.1558
 11
58.0934
 21
45.0268
  0
LINE
  8
0
 10
58.0934
 20
45.0268
 11
58.2135
 21
44.8817
  0
LINE
  8
0
 10
58.2135
 20
44.8817
 11
58.3145
 21
44.7226
  0
LINE
  8
0
 10
58.3145
 20
44.7226
 11
58.3947
 21
44.5522
  0
LINE
  8
0
 10
58.3947
 20
44.5522
 11
58.4529
 21
44.373
  0
LINE
  8
0
 10
58.4529
 20
44.373
 11
58.4882
 21
44.188
  0
LINE
  8
0
 10
58.4882
 20
44.188
 11
58.5
 21
44
  0
LINE
  8
0
 10
58.5
 20
44
 11
58.4882
 21
43.812
  0
LINE
  8
0
 10
58.4882
 20
43.812
 11
58.4529
 21
43.627
  0
LINE
  8
0
 10
58.4529
 20
43.627
 11
58.3947
 21
43.4478
  0
LINE
  8
0
 10
58.3947
 20
43.4478
 11
58.3145
 21
43.2774
  0
LINE
  8
0
 10
58.3145
 20
43.2774
 11
58.2135
 21
43.1183
  0
LINE
  8
0
 10
58.2135
 20
43.1183
 11
58.0934
 21
42.9732
  0
LINE
  8
0
 10
58.0934
 20
42.9732
 11
57.9561
 21
42.8442
  0
LINE
  8
0
 10
57.9561
 20
42.8442
 11
57.8037
 21
42.7335
  0
LINE
  8
0
 10
57.8037
 20
42.7335
 11
57.6387
 21
42.6427
  0
LINE
  8
0
 10
57.6387
 20
42.6427
 11
57.4635
 21
42.5734
  0
LINE
  8
0
 10
57.4635
 20
42.5734
 11
57.2811
 21
42.5266
  0
LINE
  8
0
 10
57.2811
 20
42.5266
 11
57.0942
 21
42.5029
  0
LINE
  8
0
 10
57.0942
 20
42.5029
 11
56.9058
 21
42.5029
  0
LINE
  8
0
 10
-0.0941772
 20
42.5029
 11
-0.281067
 21
42.5266
  0
LINE
  8
0
 10
-0.281067
 20
42.5266
 11
-0.463516
 21
42.5734
  0
LINE
  8
0
 10
-0.463516
 20
42.5734
 11
-0.638657
 21
42.6427
  0
LINE
  8
0
 10
-0.638657
 20
42.6427
 11
-0.803726
 21
42.7335
  0
LINE
  8
0
 10
-0.803726
 20
42.7335
 11
-0.956131
 21
42.8442
  0
LINE
  8
0
 10
-0.956131
 20
42.8442
 11
-1.09344
 21
42.9732
  0
LINE
  8
0
 10
-1.09344
 20
42.9732
 11
-1.21352
 21
43.1183
  0
LINE
  8
0
 10
-1.21352
 20
43.1183
 11
-1.31445
 21
43.2774
  0
LINE
  8
0
 10
-1.31445
 20
43.2774
 11
-1.39465
 21
43.4478
  0
LINE
  8
0
 10
-1.39465
 20
43.4478
 11
-1.45287
 21
43.627
  0
LINE
  8
0
 10
-1.45287
 20
43.627
 11
-1.48816
 21
43.812
  0
LINE
  8
0
 10
-1.48816
 20
43.812
 11
-1.5
 21
44
  0
LINE
  8
0
 10
-1.5
 20
44
 11
-1.48816
 21
44.188
  0
LINE
  8
0
 10
-1.48816
 20
44.188
 11
-1.45287
 21
44.373
  0
LINE
  8
0
 10
-1.45287
 20
44.373
 11
-1.39465
 21
44.5522
  0
LINE
  8
0
 10
-1.39465
 20
44.5522
 11
-1.31445
 21
44.7226
  0
LINE
  8
0
 10
-1.31445
 20
44.7226
 11
-1.21352
 21
44.8817
  0
LINE
  8
0
 10
-1.21352
 20
44.8817
 11
-1.09344
 21
45.0268
  0
LINE
  8
0
 10
-1.09344
 20
45.0268
 11
-0.956131
 21
45.1558
  0
LINE
  8
0
 10
-0.956131
 20
45.1558
 11
-0.803726
 21
45.2665
  0
LINE
  8
0
 10
-0.803726
 20
45.2665
 11
-0.638657
 21
45.3572
  0
LINE
  8
0
 10
-0.638657
 20
45.3572
 11
-0.463516
 21
45.4266
  0
LINE
  8
0
 10
-0.463516
 20
45.4266
 11
-0.281067
 21
45.4734
  0
LINE
  8
0
 10
-0.281067
 20
45.4734
 11
-0.0941772
 21
45.497
  0
LINE
  8
0
 10
-0.0941772
 20
45.497
 11
0.0941772
 21
45.497
  0
LINE
  8
0
 10
0.0941772
 20
45.497
 11
0.281067
 21
45.4734
  0
LINE
  8
0
 10
0.281067
 20
45.4734
 11
0.463516
 21
45.4266
  0
LINE
  8
0
 10
0.463516
 20
45.4266
 11
0.638657
 21
45.3572
  0
LINE
  8
0
 10
0.638657
 20
45.3572
 11
0.803726
 21
45.2665
  0
LINE
  8
0
 10
0.803726
 20
45.2665
 11
0.956131
 21
45.1558
  0
LINE
  8
0
 10
0.956131
 20
45.1558
 11
1.09344
 21
45.0268
  0
LINE
  8
0
 10
1.09344
 20
45.0268
 11
1.21352
 21
44.8817
  0
LINE
  8
0
 10
1.21352
 20
44.8817
 11
1.31445
 21
44.7226
  0
LINE
  8
0
 10
1.31445
 20
44.7226
 11
1.39465
 21
44.5522
  0
LINE
  8
0
 10
1.39465
 20
44.5522
 11
1.45287
 21
44.373
  0
LINE
  8
0
 10
1.45287
 20
44.373
 11
1.48816
 21
44.188
  0
LINE
  8
0
 10
1.48816
 20
44.188
 11
1.5
 21
44
  0
LINE
  8
0
 10
1.5
 20
44
 11
1.48816
 21
43.812
  0
LINE
  8
0
 10
1.48816
 20
43.812
 11
1.45287
 21
43.627
  0
LINE
  8
0
 10
1.45287
 20
43.627
 11
1.39465
 21
43.4478
  0
LINE
  8
0
 10
1.39465
 20
43.4478
 11
1.31445
 21
43.2774
  0
LINE
  8
0
 10
1.31445
 20
43.2774
 11
1.21352
 21
43.1183
  0
LINE
  8
0
 10
1.21352
 20
43.1183
 11
1.09344
 21
42.9732
  0
LINE
  8
0
 10
1.09344
 20
42.9732
 11
0.956131
 21
42.8442
  0
LINE
  8
0
 10
0.956131
 20
42.8442
 11
0.803726
 21
42.7335
  0
LINE
  8
0
 10
0.803726
 20
42.7335
 11
0.638657
 21
42.6427
  0
LINE
  8
0
 10
0.638657
 20
42.6427
 11
0.463516
 21
42.5734
  0
LINE
  8
0
 10
0.463516
 20
42.5734
 11
0.281067
 21
42.5266
  0
LINE
  8
0
 10
0.281067
 20
42.5266
 11
0.0941772
 21
42.5029
  0
LINE
  8
0
 10
0.0941772
 20
42.5029
 11
-0.0941772
 21
42.5029
  0
LINE
  8
0
 10
-35.9014
 20
-38.5014
 11
-37.0277
 21
-38.4128
  0
LINE
  8
0
 10
-37.0277
 20
-38.4128
 11
-37.9101
 21
-38.2155
  0
LINE
  8
0
 10
-37.9101
 20
-38.2155
 11
-38.7609
 21
-37.9092
  0
LINE
  8
0
 10
-38.7609
 20
-37.9092
 11
-39.5665
 21
-37.4987
  0
LINE
  8
0
 10
-39.5665
 20
-37.4987
 11
-40.3143
 21
-36.9905
  0
LINE
  8
0
 10
-40.3143
 20
-36.9905
 11
-40.9926
 21
-36.3926
  0
LINE
  8
0
 10
-40.9926
 20
-36.3926
 11
-45.9926
 21
-31.3926
  0
LINE
  8
0
 10
-45.9926
 20
-31.3926
 11
-46.7263
 21
-30.5335
  0
LINE
  8
0
 10
-46.7263
 20
-30.5335
 11
-47.2108
 21
-29.77
  0
LINE
  8
0
 10
-47.2108
 20
-29.77
 11
-47.5958
 21
-28.9519
  0
LINE
  8
0
 10
-47.5958
 20
-28.9519
 11
-47.8752
 21
-28.092
  0
LINE
  8
0
 10
-47.8752
 20
-28.092
 11
-48.0446
 21
-27.2038
  0
LINE
  8
0
 10
-48.0446
 20
-27.2038
 11
-48.1014
 21
-26.3014
  0
LINE
  8
0
 10
-48.1014
 20
-26.3014
 11
-48.1014
 21
26.3014
  0
LINE
  8
0
 10
-48.1014
 20
26.3014
 11
-48.0128
 21
27.4277
  0
LINE
  8
0
 10
-48.0128
 20
27.4277
 11
-47.8155
 21
28.3102
  0
LINE
  8
0
 10
-47.8155
 20
28.3102
 11
-47.5092
 21
29.1609
  0
LINE
  8
0
 10
-47.5092
 20
29.1609
 11
-47.0987
 21
29.9665
  0
LINE
  8
0
 10
-47.0987
 20
29.9665
 11
-46.5905
 21
30.7143
  0
LINE
  8
0
 10
-46.5905
 20
30.7143
 11
-45.9926
 21
31.3926
  0
LINE
  8
0
 10
-45.9926
 20
31.3926
 11
-40.9926
 21
36.3926
  0
LINE
  8
0
 10
-40.9926
 20
36.3926
 11
-40.1335
 21
37.1263
  0
LINE
  8
0
 10
-40.1335
 20
37.1263
 11
-39.37
 21
37.6108
  0
LINE
  8
0
 10
-39.37
 20
37.6108
 11
-38.5519
 21
37.9958
  0
LINE
  8
0
 10
-38.5519
 20
37.9958
 11
-37.692
 21
38.2752
  0
LINE
  8
0
 10
-37.692
 20
38.2752
 11
-36.8038
 21
38.4446
  0
LINE
  8
0
 10
-36.8038
 20
38.4446
 11
-35.9014
 21
38.5014
  0
LINE
  8
0
 10
-35.9014
 20
38.5014
 11
35.9014
 21
38.5014
  0
LINE
  8
0
 10
35.9014
 20
38.5014
 11
37.0277
 21
38.4128
  0
LINE
  8
0
 10
37.0277
 20
38.4128
 11
37.9101
 21
38.2155
  0
LINE
  8
0
 10
37.9101
 20
38.2155
 11
38.7609
 21
37.9092
  0
LINE
  8
0
 10
38.7609
 20
37.9092
 11
39.5665
 21
37.4987
  0
LINE
  8
0
 10
39.5665
 20
37.4987
 11
40.3143
 21
36.9905
  0
LINE
  8
0
 10
40.3143
 20
36.9905
 11
40.9926
 21
36.3926
  0
LINE
  8
0
 10
40.9926
 20
36.3926
 11
45.9926
 21
31.3926
  0
LINE
  8
0
 10
45.9926
 20
31.3926
 11
46.7263
 21
30.5335
  0
LINE
  8
0
 10
46.7263
 20
30.5335
 11
47.2108
 21
29.77
  0
LINE
  8
0
 10
47.2108
 20
29.77
 11
47.5958
 21
28.9519
  0
LINE
  8
0
 10
47.5958
 20
28.9519
 11
47.8752
 21
28.092
  0
LINE
  8
0
 10
47.8752
 20
28.092
 11
48.0446
 21
27.2038
  0
LINE
  8
0
 10
48.0446
 20
27.2038
 11
48.1014
 21
26.3014
  0
LINE
  8
0
 10
48.1014
 20
26.3014
 11
48.1014
 21
-26.3014
  0
LINE
  8
0
 10
48.1014
 20
-26.3014
 11
48.0128
 21
-27.4277
  0
LINE
  8
0
 10
48.0128
 20
-27.4277
 11
47.8155
 21
-28.3102
  0
LINE
  8
0
 10
47.8155
 20
-28.3102
 11
47.5092
 21
-29.1609
  0
LINE
  8
0
 10
47.5092
 20
-29.1609
 11
47.0987
 21
-29.9665
  0
LINE
  8
0
 10
47.0987
 20
-29.9665
 11
46.5905
 21
-30.7143
  0
LINE
  8
0
 10
46.5905
 20
-30.7143
 11
45.9926
 21
-31.3926
  0
LINE
  8
0
 10
45.9926
 20
-31.3926
 11
40.9926
 21
-36.3926
  0
LINE
  8
0
 10
40.9926
 20
-36.3926
 11
40.1335
 21
-37.1263
  0
LINE
  8
0
 10
40.1335
 20
-37.1263
 11
39.37
 21
-37.6108
  0
LINE
  8
0
 10
39.37
 20
-37.6108
 11
38.5519
 21
-37.9958
  0
LINE
  8
0
 10
38.5519
 20
-37.9958
 11
37.692
 21
-38.2752
  0
LINE
  8
0
 10
37.692
 20
-38.2752
 11
36.8038
 21
-38.4446
  0
LINE
  8
0
 10
36.8038
 20
-38.4446
 11
35.9014
 21
-38.5014
  0
LINE
  8
0
 10
35.9014
 20
-38.5014
 11
-35.9014
 21
-38.5014
  0
LINE
  8
0
 10
55.6431
 20
21.7059
 11
54.9625
 21
21.953
  0
LINE
  8
0
 10
54.9625
 20
21.953
 11
54.4082
 21
22.4189
  0
LINE
  8
0
 10
54.4082
 20
22.4189
 11
54.0513
 21
23.037
  0
LINE
  8
0
 10
54.0513
 20
23.037
 11
53.925
 21
23.75
  0
LINE
  8
0
 10
53.925
 20
23.75
 11
54.0513
 21
24.463
  0
LINE
  8
0
 10
54.0513
 20
24.463
 11
54.4082
 21
25.0811
  0
LINE
  8
0
 10
54.4082
 20
25.0811
 11
54.9625
 21
25.547
  0
LINE
  8
0
 10
54.9625
 20
25.547
 11
55.6431
 21
25.7941
  0
LINE
  8
0
 10
55.6431
 20
25.7941
 11
56.3569
 21
25.7941
  0
LINE
  8
0
 10
56.3569
 20
25.7941
 11
57.0375
 21
25.547
  0
LINE
  8
0
 10
57.0375
 20
25.547
 11
57.5918
 21
25.0811
  0
LINE
  8
0
 10
57.5918
 20
25.0811
 11
57.9487
 21
24.463
  0
LINE
  8
0
 10
57.9487
 20
24.463
 11
58.075
 21
23.75
  0
LINE
  8
0
 10
58.075
 20
23.75
 11
57.9487
 21
23.037
  0
LINE
  8
0
 10
57.9487
 20
23.037
 11
57.5918
 21
22.4189
  0
LINE
  8
0
 10
57.5918
 20
22.4189
 11
57.0375
 21
21.953
  0
LINE
  8
0
 10
57.0375
 20
21.953
 11
56.3569
 21
21.7059
  0
LINE
  8
0
 10
56.3569
 20
21.7059
 11
55.6431
 21
21.7059
  0
LINE
  8
0
 10
-56.3569
 20
21.7059
 11
-57.0375
 21
21.953
  0
LINE
  8
0
 10
-57.0375
 20
21.953
 11
-57.5918
 21
22.4189
  0
LINE
  8
0
 10
-57.5918
 20
22.4189
 11
-57.9487
 21
23.037
  0
LINE
  8
0
 10
-57.9487
 20
23.037
 11
-58.075
 21
23.75
  0
LINE
  8
0
 10
-58.075
 20
23.75
 11
-57.9487
 21
24.463
  0
LINE
  8
0
 10
-57.9487
 20
24.463
 11
-57.5918
 21
25.0811
  0
LINE
  8
0
 10
-57.5918
 20
25.0811
 11
-57.0375
 21
25.547
  0
LINE
  8
0
 10
-57.0375
 20
25.547
 11
-56.3569
 21
25.7941
  0
LINE
  8
0
 10
-56.3569
 20
25.7941
 11
-55.6431
 21
25.7941
  0
LINE
  8
0
 10
-55.6431
 20
25.7941
 11
-54.9625
 21
25.547
  0
LINE
  8
0
 10
-54.9625
 20
25.547
 11
-54.4082
 21
25.0811
  0
LINE
  8
0
 10
-54.4082
 20
25.0811
 11
-54.0513
 21
24.463
  0
LINE
  8
0
 10
-54.0513
 20
24.463
 11
-53.925
 21
23.75
  0
LINE
  8
0
 10
-53.925
 20
23.75
 11
-54.0513
 21
23.037
  0
LINE
  8
0
 10
-54.0513
 20
23.037
 11
-54.4082
 21
22.4189
  0
LINE
  8
0
 10
-54.4082
 20
22.4189
 11
-54.9625
 21
21.953
  0
LINE
  8
0
 10
-54.9625
 20
21.953
 11
-55.6431
 21
21.7059
  0
LINE
  8
0
 10
-55.6431
 20
21.7059
 11
-56.3569
 21
21.7059
  0
LINE
  8
0
 10
-57.0942
 20
-1.49704
 11
-57.2811
 21
-1.47342
  0
LINE
  8
0
 10
-57.2811
 20
-1.47342
 11
-57.4635
 21
-1.42657
  0
LINE
  8
0
 10
-57.4635
 20
-1.42657
 11
-57.6387
 21
-1.35724
  0
LINE
  8
0
 10
-57.6387
 20
-1.35724
 11
-57.8037
 21
-1.26648
  0
LINE
  8
0
 10
-57.8037
 20
-1.26648
 11
-57.9561
 21
-1.15576
  0
LINE
  8
0
 10
-57.9561
 20
-1.15576
 11
-58.0934
 21
-1.02681
  0
LINE
  8
0
 10
-58.0934
 20
-1.02681
 11
-58.2135
 21
-0.881668
  0
LINE
  8
0
 10
-58.2135
 20
-0.881668
 11
-58.3145
 21
-0.722626
  0
LINE
  8
0
 10
-58.3145
 20
-0.722626
 11
-58.3947
 21
-0.552185
  0
LINE
  8
0
 10
-58.3947
 20
-0.552185
 11
-58.4529
 21
-0.373032
  0
LINE
  8
0
 10
-58.4529
 20
-0.373032
 11
-58.4882
 21
-0.187988
  0
LINE
  8
0
 10
-58.4882
 20
-0.187988
 11
-58.5
 21
0
  0
LINE
  8
0
 10
-58.5
 20
0
 11
-58.4882
 21
0.187988
  0
LINE
  8
0
 10
-58.4882
 20
0.187988
 11
-58.4529
 21
0.373032
  0
LINE
  8
0
 10
-58.4529
 20
0.373032
 11
-58.3947
 21
0.552185
  0
LINE
  8
0
 10
-58.3947
 20
0.552185
 11
-58.3145
 21
0.722626
  0
LINE
  8
0
 10
-58.3145
 20
0.722626
 11
-58.2135
 21
0.881668
  0
LINE
  8
0
 10
-58.2135
 20
0.881668
 11
-58.0934
 21
1.02681
  0
LINE
  8
0
 10
-58.0934
 20
1.02681
 11
-57.9561
 21
1.15576
  0
LINE
  8
0
 10
-57.9561
 20
1.15576
 11
-57.8037
 21
1.26648
  0
LINE
  8
0
 10
-57.8037
 20
1.26648
 11
-57.6387
 21
1.35724
  0
LINE
  8
0
 10
-57.6387
 20
1.35724
 11
-57.4635
 21
1.42657
  0
LINE
  8
0
 10
-57.4635
 20
1.42657
 11
-57.2811
 21
1.47342
  0
LINE
  8
0
 10
-57.2811
 20
1.47342
 11
-57.0942
 21
1.49704
  0
LINE
  8
0
 10
-57.0942
 20
1.49704
 11
-56.9058
 21
1.49704
  0
LINE
  8
0
 10
-56.9058
 20
1.49704
 11
-56.7189
 21
1.47342
  0
LINE
  8
0
 10
-56.7189
 20
1.47342
 11
-56.5365
 21
1.42657
  0
LINE
  8
0
 10
-56.5365
 20
1.42657
 11
-56.3613
 21
1.35724
  0
LINE
  8
0
 10
-56.3613
 20
1.35724
 11
-56.1963
 21
1.26648
  0
LINE
  8
0
 10
-56.1963
 20
1.26648
 11
-56.0439
 21
1.15576
  0
LINE
  8
0
 10
-56.0439
 20
1.15576
 11
-55.9065
 21
1.02681
  0
LINE
  8
0
 10
-55.9065
 20
1.02681
 11
-55.7865
 21
0.881668
  0
LINE
  8
0
 10
-55.7865
 20
0.881668
 11
-55.6855
 21
0.722626
  0
LINE
  8
0
 10
-55.6855
 20
0.722626
 11
-55.6053
 21
0.552185
  0
LINE
  8
0
 10
-55.6053
 20
0.552185
 11
-55.5471
 21
0.373032
  0
LINE
  8
0
 10
-55.5471
 20
0.373032
 11
-55.5118
 21
0.187988
  0
LINE
  8
0
 10
-55.5118
 20
0.187988
 11
-55.5
 21
0
  0
LINE
  8
0
 10
-55.5
 20
0
 11
-55.5118
 21
-0.187988
  0
LINE
  8
0
 10
-55.5118
 20
-0.187988
 11
-55.5471
 21
-0.373032
  0
LINE
  8
0
 10
-55.5471
 20
-0.373032
 11
-55.6053
 21
-0.552185
  0
LINE
  8
0
 10
-55.6053
 20
-0.552185
 11
-55.6855
 21
-0.722626
  0
LINE
  8
0
 10
-55.6855
 20
-0.722626
 11
-55.7865
 21
-0.881668
  0
LINE
  8
0
 10
-55.7865
 20
-0.881668
 11
-55.9065
 21
-1.02681
  0
LINE
  8
0
 10
-55.9065
 20
-1.02681
 11
-56.0439
 21
-1.15576
  0
LINE
  8
0
 10
-56.0439
 20
-1.15576
 11
-56.1963
 21
-1.26648
  0
LINE
  8
0
 10
-56.1963
 20
-1.26648
 11
-56.3613
 21
-1.35724
  0
LINE
  8
0
 10
-56.3613
 20
-1.35724
 11
-56.5365
 21
-1.42657
  0
LINE
  8
0
 10
-56.5365
 20
-1.42657
 11
-56.7189
 21
-1.47342
  0
LINE
  8
0
 10
-56.7189
 20
-1.47342
 11
-56.9058
 21
-1.49704
  0
LINE
  8
0
 10
-56.9058
 20
-1.49704
 11
-57.0942
 21
-1.49704
  0
LINE
  8
0
 10
56.9058
 20
-1.49704
 11
56.7189
 21
-1.47342
  0
LINE
  8
0
 10
56.7189
 20
-1.47342
 11
56.5365
 21
-1.42657
  0
LINE
  8
0
 10
56.5365
 20
-1.42657
 11
56.3613
 21
-1.35724
  0
LINE
  8
0
 10
56.3613
 20
-1.35724
 11
56.1963
 21
-1.26648
  0
LINE
  8
0
 10
56.1963
 20
-1.26648
 11
56.0439
 21
-1.15576
  0
LINE
  8
0
 10
56.0439
 20
-1.15576
 11
55.9065
 21
-1.02681
  0
LINE
  8
0
 10
55.9065
 20
-1.02681
 11
55.7865
 21
-0.881668
  0
LINE
  8
0
 10
55.7865
 20
-0.881668
 11
55.6855
 21
-0.722626
  0
LINE
  8
0
 10
55.6855
 20
-0.722626
 11
55.6053
 21
-0.552185
  0
LINE
  8
0
 10
55.6053
 20
-0.552185
 11
55.5471
 21
-0.373032
  0
LINE
  8
0
 10
55.5471
 20
-0.373032
 11
55.5118
 21
-0.187988
  0
LINE
  8
0
 10
55.5118
 20
-0.187988
 11
55.5
 21
0
  0
LINE
  8
0
 10
55.5
 20
0
 11
55.5118
 21
0.187988
  0
LINE
  8
0
 10
55.5118
 20
0.187988
 11
55.5471
 21
0.373032
  0
LINE
  8
0
 10
55.5471
 20
0.373032
 11
55.6053
 21
0.552185
  0
LINE
  8
0
 10
55.6053
 20
0.552185
 11
55.6855
 21
0.722626
  0
LINE
  8
0
 10
55.6855
 20
0.722626
 11
55.7865
 21
0.881668
  0
LINE
  8
0
 10
55.7865
 20
0.881668
 11
55.9065
 21
1.02681
  0
LINE
  8
0
 10
55.9065
 20
1.02681
 11
56.0439
 21
1.15576
  0
LINE
  8
0
 10
56.0439
 20
1.15576
 11
56.1963
 21
1.26648
  0
LINE
  8
0
 10
56.1963
 20
1.26648
 11
56.3613
 21
1.35724
  0
LINE
  8
0
 10
56.3613
 20
1.35724
 11
56.5365
 21
1.42657
  0
LINE
  8
0
 10
56.5365
 20
1.42657
 11
56.7189
 21
1.47342
  0
LINE
  8
0
 10
56.7189
 20
1.47342
 11
56.9058
 21
1.49704
  0
LINE
  8
0
 10
56.9058
 20
1.49704
 11
57.0942
 21
1.49704
  0
LINE
  8
0
 10
57.0942
 20
1.49704
 11
57.2811
 21
1.47342
  0
LINE
  8
0
 10
57.2811
 20
1.47342
 11
57.4635
 21
1.42657
  0
LINE
  8
0
 10
57.4635
 20
1.42657
 11
57.6387
 21
1.35724
  0
LINE
  8
0
 10
57.6387
 20
1.35724
 11
57.8037
 21
1.26648
  0
LINE
  8
0
 10
57.8037
 20
1.26648
 11
57.9561
 21
1.15576
  0
LINE
  8
0
 10
57.9561
 20
1.15576
 11
58.0934
 21
1.02681
  0
LINE
  8
0
 10
58.0934
 20
1.02681
 11
58.2135
 21
0.881668
  0
LINE
  8
0
 10
58.2135
 20
0.881668
 11
58.3145
 21
0.722626
  0
LINE
  8
0
 10
58.3145
 20
0.722626
 11
58.3947
 21
0.552185
  0
LINE
  8
0
 10
58.3947
 20
0.552185
 11
58.4529
 21
0.373032
  0
LINE
  8
0
 10
58.4529
 20
0.373032
 11
58.4882
 21
0.187988
  0
LINE
  8
0
 10
58.4882
 20
0.187988
 11
58.5
 21
0
  0
LINE
  8
0
 10
58.5
 20
0
 11
58.4882
 21
-0.187988
  0
LINE
  8
0
 10
58.4882
 20
-0.187988
 11
58.4529
 21
-0.373032
  0
LINE
  8
0
 10
58.4529
 20
-0.373032
 11
58.3947
 21
-0.552185
  0
LINE
  8
0
 10
58.3947
 20
-0.552185
 11
58.3145
 21
-0.722626
  0
LINE
  8
0
 10
58.3145
 20
-0.722626
 11
58.2135
 21
-0.881668
  0
LINE
  8
0
 10
58.2135
 20
-0.881668
 11
58.0934
 21
-1.02681
  0
LINE
  8
0
 10
58.0934
 20
-1.02681
 11
57.9561
 21
-1.15576
  0
LINE
  8
0
 10
57.9561
 20
-1.15576
 11
57.8037
 21
-1.26648
  0
LINE
  8
0
 10
57.8037
 20
-1.26648
 11
57.6387
 21
-1.35724
  0
LINE
  8
0
 10
57.6387
 20
-1.35724
 11
57.4635
 21
-1.42657
  0
LINE
  8
0
 10
57.4635
 20
-1.42657
 11
57.2811
 21
-1.47342
  0
LINE
  8
0
 10
57.2811
 20
-1.47342
 11
57.0942
 21
-1.49704
  0
LINE
  8
0
 10
57.0942
 20
-1.49704
 11
56.9058
 21
-1.49704
  0
LINE
  8
0
 10
55.6431
 20
-25.7941
 11
54.9625
 21
-25.547
  0
LINE
  8
0
 10
54.9625
 20
-25.547
 11
54.4082
 21
-25.0811
  0
LINE
  8
0
 10
54.4082
 20
-25.0811
 11
54.0513
 21
-24.463
  0
LINE
  8
0
 10
54.0513
 20
-24.463
 11
53.925
 21
-23.75
  0
LINE
  8
0
 10
53.925
 20
-23.75
 11
54.0513
 21
-23.037
  0
LINE
  8
0
 10
54.0513
 20
-23.037
 11
54.4082
 21
-22.4189
  0
LINE
  8
0
 10
54.4082
 20
-22.4189
 11
54.9625
 21
-21.953
  0
LINE
  8
0
 10
54.9625
 20
-21.953
 11
55.6431
 21
-21.7059
  0
LINE
  8
0
 10
55.6431
 20
-21.7059
 11
56.3569
 21
-21.7059
  0
LINE
  8
0
 10
56.3569
 20
-21.7059
 11
57.0375
 21
-21.953
  0
LINE
  8
0
 10
57.0375
 20
-21.953
 11
57.5918
 21
-22.4189
  0
LINE
  8
0
 10
57.5918
 20
-22.4189
 11
57.9487
 21
-23.037
  0
LINE
  8
0
 10
57.9487
 20
-23.037
 11
58.075
 21
-23.75
  0
LINE
  8
0
 10
58.075
 20
-23.75
 11
57.9487
 21
-24.463
  0
LINE
  8
0
 10
57.9487
 20
-24.463
 11
57.5918
 21
-25.0811
  0
LINE
  8
0
 10
57.5918
 20
-25.0811
 11
57.0375
 21
-25.547
  0
LINE
  8
0
 10
57.0375
 20
-25.547
 11
56.3569
 21
-25.7941
  0
LINE
  8
0
 10
56.3569
 20
-25.7941
 11
55.6431
 21
-25.7941
  0
LINE
  8
0
 10
-56.3569
 20
-25.7941
 11
-57.0375
 21
-25.547
  0
LINE
  8
0
 10
-57.0375
 20
-25.547
 11
-57.5918
 21
-25.0811
  0
LINE
  8
0
 10
-57.5918
 20
-25.0811
 11
-57.9487
 21
-24.463
  0
LINE
  8
0
 10
-57.9487
 20
-24.463
 11
-58.075
 21
-23.75
  0
LINE
  8
0
 10
-58.075
 20
-23.75
 11
-57.9487
 21
-23.037
  0
LINE
  8
0
 10
-57.9487
 20
-23.037
 11
-57.5918
 21
-22.4189
  0
LINE
  8
0
 10
-57.5918
 20
-22.4189
 11
-57.0375
 21
-21.953
  0
LINE
  8
0
 10
-57.0375
 20
-21.953
 11
-56.3569
 21
-21.7059
  0
LINE
  8
0
 10
-56.3569
 20
-21.7059
 11
-55.6431
 21
-21.7059
  0
LINE
  8
0
 10
-55.6431
 20
-21.7059
 11
-54.9625
 21
-21.953
  0
LINE
  8
0
 10
-54.9625
 20
-21.953
 11
-54.4082
 21
-22.4189
  0
LINE
  8
0
 10
-54.4082
 20
-22.4189
 11
-54.0513
 21
-23.037
  0
LINE
  8
0
 10
-54.0513
 20
-23.037
 11
-53.925
 21
-23.75
  0
LINE
  8
0
 10
-53.925
 20
-23.75
 11
-54.0513
 21
-24.463
  0
LINE
  8
0
 10
-54.0513
 20
-24.463
 11
-54.4082
 21
-25.0811
  0
LINE
  8
0
 10
-54.4082
 20
-25.0811
 11
-54.9625
 21
-25.547
  0
LINE
  8
0
 10
-54.9625
 20
-25.547
 11
-55.6431
 21
-25.7941
  0
LINE
  8
0
 10
-55.6431
 20
-25.7941
 11
-56.3569
 21
-25.7941
  0
LINE
  8
0
 10
-57.0942
 20
-45.497
 11
-57.2811
 21
-45.4734
  0
LINE
  8
0
 10
-57.2811
 20
-45.4734
 11
-57.4635
 21
-45.4266
  0
LINE
  8
0
 10
-57.4635
 20
-45.4266
 11
-57.6387
 21
-45.3572
  0
LINE
  8
0
 10
-57.6387
 20
-45.3572
 11
-57.8037
 21
-45.2665
  0
LINE
  8
0
 10
-57.8037
 20
-45.2665
 11
-57.9561
 21
-45.1558
  0
LINE
  8
0
 10
-57.9561
 20
-45.1558
 11
-58.0934
 21
-45.0268
  0
LINE
  8
0
 10
-58.0934
 20
-45.0268
 11
-58.2135
 21
-44.8817
  0
LINE
  8
0
 10
-58.2135
 20
-44.8817
 11
-58.3145
 21
-44.7226
  0
LINE
  8
0
 10
-58.3145
 20
-44.7226
 11
-58.3947
 21
-44.5522
  0
LINE
  8
0
 10
-58.3947
 20
-44.5522
 11
-58.4529
 21
-44.373
  0
LINE
  8
0
 10
-58.4529
 20
-44.373
 11
-58.4882
 21
-44.188
  0
LINE
  8
0
 10
-58.4882
 20
-44.188
 11
-58.5
 21
-44
  0
LINE
  8
0
 10
-58.5
 20
-44
 11
-58.4882
 21
-43.812
  0
LINE
  8
0
 10
-58.4882
 20
-43.812
 11
-58.4529
 21
-43.627
  0
LINE
  8
0
 10
-58.4529
 20
-43.627
 11
-58.3947
 21
-43.4478
  0
LINE
  8
0
 10
-58.3947
 20
-43.4478
 11
-58.3145
 21
-43.2774
  0
LINE
  8
0
 10
-58.3145
 20
-43.2774
 11
-58.2135
 21
-43.1183
  0
LINE
  8
0
 10
-58.2135
 20
-43.1183
 11
-58.0934
 21
-42.9732
  0
LINE
  8
0
 10
-58.0934
 20
-42.9732
 11
-57.9561
 21
-42.8442
  0
LINE
  8
0
 10
-57.9561
 20
-42.8442
 11
-57.8037
 21
-42.7335
  0
LINE
  8
0
 10
-57.8037
 20
-42.7335
 11
-57.6387
 21
-42.6427
  0
LINE
  8
0
 10
-57.6387
 20
-42.6427
 11
-57.4635
 21
-42.5734
  0
LINE
  8
0
 10
-57.4635
 20
-42.5734
 11
-57.2811
 21
-42.5266
  0
LINE
  8
0
 10
-57.2811
 20
-42.5266
 11
-57.0942
 21
-42.5029
  0
LINE
  8
0
 10
-57.0942
 20
-42.5029
 11
-56.9058
 21
-42.5029
  0
LINE
  8
0
 10
-56.9058
 20
-42.5029
 11
-56.7189
 21
-42.5266
  0
LINE
  8
0
 10
-56.7189
 20
-42.5266
 11
-56.5365
 21
-42.5734
  0
LINE
  8
0
 10
-56.5365
 20
-42.5734
 11
-56.3613
 21
-42.6427
  0
LINE
  8
0
 10
-56.3613
 20
-42.6427
 11
-56.1963
 21
-42.7335
  0
LINE
  8
0
 10
-56.1963
 20
-42.7335
 11
-56.0439
 21
-42.8442
  0
LINE
  8
0
 10
-56.0439
 20
-42.8442
 11
-55.9065
 21
-42.9732
  0
LINE
  8
0
 10
-55.9065
 20
-42.9732
 11
-55.7865
 21
-43.1183
  0
LINE
  8
0
 10
-55.7865
 20
-43.1183
 11
-55.6855
 21
-43.2774
  0
LINE
  8
0
 10
-55.6855
 20
-43.2774
 11
-55.6053
 21
-43.4478
  0
LINE
  8
0
 10
-55.6053
 20
-43.4478
 11
-55.5471
 21
-43.627
  0
LINE
  8
0
 10
-55.5471
 20
-43.627
 11
-55.5118
 21
-43.812
  0
LINE
  8
0
 10
-55.5118
 20
-43.812
 11
-55.5
 21
-44
  0
LINE
  8
0
 10
-55.5
 20
-44
 11
-55.5118
 21
-44.188
  0
LINE
  8
0
 10
-55.5118
 20
-44.188
 11
-55.5471
 21
-44.373
  0
LINE
  8
0
 10
-55.5471
 20
-44.373
 11
-55.6053
 21
-44.5522
  0
LINE
  8
0
 10
-55.6053
 20
-44.5522
 11
-55.6855
 21
-44.7226
  0
LINE
  8
0
 10
-55.6855
 20
-44.7226
 11
-55.7865
 21
-44.8817
  0
LINE
  8
0
 10
-55.7865
 20
-44.8817
 11
-55.9065
 21
-45.0268
  0
LINE
  8
0
 10
-55.9065
 20
-45.0268
 11
-56.0439
 21
-45.1558
  0
LINE
  8
0
 10
-56.0439
 20
-45.1558
 11
-56.1963
 21
-45.2665
  0
LINE
  8
0
 10
-56.1963
 20
-45.2665
 11
-56.3613
 21
-45.3572
  0
LINE
  8
0
 10
-56.3613
 20
-45.3572
 11
-56.5365
 21
-45.4266
  0
LINE
  8
0
 10
-56.5365
 20
-45.4266
 11
-56.7189
 21
-45.4734
  0
LINE
  8
0
 10
-56.7189
 20
-45.4734
 11
-56.9058
 21
-45.497
  0
LINE
  8
0
 10
-56.9058
 20
-45.497
 11
-57.0942
 21
-45.497
  0
LINE
  8
0
 10
56.9058
 20
-45.497
 11
56.7189
 21
-45.4734
  0
LINE
  8
0
 10
56.7189
 20
-45.4734
 11
56.5365
 21
-45.4266
  0
LINE
  8
0
 10
56.5365
 20
-45.4266
 11
56.3613
 21
-45.3572
  0
LINE
  8
0
 10
56.3613
 20
-45.3572
 11
56.1963
 21
-45.2665
  0
LINE
  8
0
 10
56.1963
 20
-45.2665
 11
56.0439
 21
-45.1558
  0
LINE
  8
0
 10
56.0439
 20
-45.1558
 11
55.9065
 21
-45.0268
  0
LINE
  8
0
 10
55.9065
 20
-45.0268
 11
55.7865
 21
-44.8817
  0
LINE
  8
0
 10
55.7865
 20
-44.8817
 11
55.6855
 21
-44.7226
  0
LINE
  8
0
 10
55.6855
 20
-44.7226
 11
55.6053
 21
-44.5522
  0
LINE
  8
0
 10
55.6053
 20
-44.5522
 11
55.5471
 21
-44.373
  0
LINE
  8
0
 10
55.5471
 20
-44.373
 11
55.5118
 21
-44.188
  0
LINE
  8
0
 10
55.5118
 20
-44.188
 11
55.5
 21
-44
  0
LINE
  8
0
 10
55.5
 20
-44
 11
55.5118
 21
-43.812
  0
LINE
  8
0
 10
55.5118
 20
-43.812
 11
55.5471
 21
-43.627
  0
LINE
  8
0
 10
55.5471
 20
-43.627
 11
55.6053
 21
-43.4478
  0
LINE
  8
0
 10
55.6053
 20
-43.4478
 11
55.6855
 21
-43.2774
  0
LINE
  8
0
 10
55.6855
 20
-43.2774
 11
55.7865
 21
-43.1183
  0
LINE
  8
0
 10
55.7865
 20
-43.1183
 11
55.9065
 21
-42.9732
  0
LINE
  8
0
 10
55.9065
 20
-42.9732
 11
56.0439
 21
-42.8442
  0
LINE
  8
0
 10
56.0439
 20
-42.8442
 11
56.1963
 21
-42.7335
  0
LINE
  8
0
 10
56.1963
 20
-42.7335
 11
56.3613
 21
-42.6427
  0
LINE
  8
0
 10
56.3613
 20
-42.6427
 11
56.5365
 21
-42.5734
  0
LINE
  8
0
 10
56.5365
 20
-42.5734
 11
56.7189
 21
-42.5266
  0
LINE
  8
0
 10
56.7189
 20
-42.5266
 11
56.9058
 21
-42.5029
  0
LINE
  8
0
 10
56.9058
 20
-42.5029
 11
57.0942
 21
-42.5029
  0
LINE
  8
0
 10
57.0942
 20
-42.5029
 11
57.2811
 21
-42.5266
  0
LINE
  8
0
 10
57.2811
 20
-42.5266
 11
57.4635
 21
-42.5734
  0
LINE
  8
0
 10
57.4635
 20
-42.5734
 11
57.6387
 21
-42.6427
  0
LINE
  8
0
 10
57.6387
 20
-42.6427
 11
57.8037
 21
-42.7335
  0
LINE
  8
0
 10
57.8037
 20
-42.7335
 11
57.9561
 21
-42.8442
  0
LINE
  8
0
 10
57.9561
 20
-42.8442
 11
58.0934
 21
-42.9732
  0
LINE
  8
0
 10
58.0934
 20
-42.9732
 11
58.2135
 21
-43.1183
  0
LINE
  8
0
 10
58.2135
 20
-43.1183
 11
58.3145
 21
-43.2774
  0
LINE
  8
0
 10
58.3145
 20
-43.2774
 11
58.3947
 21
-43.4478
  0
LINE
  8
0
 10
58.3947
 20
-43.4478
 11
58.4529
 21
-43.627
  0
LINE
  8
0
 10
58.4529
 20
-43.627
 11
58.4882
 21
-43.812
  0
LINE
  8
0
 10
58.4882
 20
-43.812
 11
58.5
 21
-44
  0
LINE
  8
0
 10
58.5
 20
-44
 11
58.4882
 21
-44.188
  0
LINE
  8
0
 10
58.4882
 20
-44.188
 11
58.4529
 21
-44.373
  0
LINE
  8
0
 10
58.4529
 20
-44.373
 11
58.3947
 21
-44.5522
  0
LINE
  8
0
 10
58.3947
 20
-44.5522
 11
58.3145
 21
-44.7226
  0
LINE
  8
0
 10
58.3145
 20
-44.7226
 11
58.2135
 21
-44.8817
  0
LINE
  8
0
 10
58.2135
 20
-44.8817
 11
58.0934
 21
-45.0268
  0
LINE
  8
0
 10
58.0934
 20
-45.0268
 11
57.9561
 21
-45.1558
  0
LINE
  8
0
 10
57.9561
 20
-45.1558
 11
57.8037
 21
-45.2665
  0
LINE
  8
0
 10
57.8037
 20
-45.2665
 11
57.6387
 21
-45.3572
  0
LINE
  8
0
 10
57.6387
 20
-45.3572
 11
57.4635
 21
-45.4266
  0
LINE
  8
0
 10
57.4635
 20
-45.4266
 11
57.2811
 21
-45.4734
  0
LINE
  8
0
 10
57.2811
 20
-45.4734
 11
57.0942
 21
-45.497
  0
LINE
  8
0
 10
57.0942
 20
-45.497
 11
56.9058
 21
-45.497
  0
LINE
  8
0
 10
-0.0941772
 20
-45.497
 11
-0.281067
 21
-45.4734
  0
LINE
  8
0
 10
-0.281067
 20
-45.4734
 11
-0.463516
 21
-45.4266
  0
LINE
  8
0
 10
-0.463516
 20
-45.4266
 11
-0.638657
 21
-45.3572
  0
LINE
  8
0
 10
-0.638657
 20
-45.3572
 11
-0.803726
 21
-45.2665
  0
LINE
  8
0
 10
-0.803726
 20
-45.2665
 11
-0.956131
 21
-45.1558
  0
LINE
  8
0
 10
-0.956131
 20
-45.1558
 11
-1.09344
 21
-45.0268
  0
LINE
  8
0
 10
-1.09344
 20
-45.0268
 11
-1.21352
 21
-44.8817
  0
LINE
  8
0
 10
-1.21352
 20
-44.8817
 11
-1.31445
 21
-44.7226
  0
LINE
  8
0
 10
-1.31445
 20
-44.7226
 11
-1.39465
 21
-44.5522
  0
LINE
  8
0
 10
-1.39465
 20
-44.5522
 11
-1.45287
 21
-44.373
  0
LINE
  8
0
 10
-1.45287
 20
-44.373
 11
-1.48816
 21
-44.188
  0
LINE
  8
0
 10
-1.48816
 20
-44.188
 11
-1.5
 21
-44
  0
LINE
  8
0
 10
-1.5
 20
-44
 11
-1.48816
 21
-43.812
  0
LINE
  8
0
 10
-1.48816
 20
-43.812
 11
-1.45287
 21
-43.627
  0
LINE
  8
0
 10
-1.45287
 20
-43.627
 11
-1.39465
 21
-43.4478
  0
LINE
  8
0
 10
-1.39465
 20
-43.4478
 11
-1.31445
 21
-43.2774
  0
LINE
  8
0
 10
-1.31445
 20
-43.2774
 11
-1.21352
 21
-43.1183
  0
LINE
  8
0
 10
-1.21352
 20
-43.1183
 11
-1.09344
 21
-42.9732
  0
LINE
  8
0
 10
-1.09344
 20
-42.9732
 11
-0.956131
 21
-42.8442
  0
LINE
  8
0
 10
-0.956131
 20
-42.8442
 11
-0.803726
 21
-42.7335
  0
LINE
  8
0
 10
-0.803726
 20
-42.7335
 11
-0.638657
 21
-42.6427
  0
LINE
  8
0
 10
-0.638657
 20
-42.6427
 11
-0.463516
 21
-42.5734
  0
LINE
  8
0
 10
-0.463516
 20
-42.5734
 11
-0.281067
 21
-42.5266
  0
LINE
  8
0
 10
-0.281067
 20
-42.5266
 11
-0.0941772
 21
-42.5029
  0
LINE
  8
0
 10
-0.0941772
 20
-42.5029
 11
0.0941772
 21
-42.5029
  0
LINE
  8
0
 10
0.0941772
 20
-42.5029
 11
0.281067
 21
-42.5266
  0
LINE
  8
0
 10
0.281067
 20
-42.5266
 11
0.463516
 21
-42.5734
  0
LINE
  8
0
 10
0.463516
 20
-42.5734
 11
0.638657
 21
-42.6427
  0
LINE
  8
0
 10
0.638657
 20
-42.6427
 11
0.803726
 21
-42.7335
  0
LINE
  8
0
 10
0.803726
 20
-42.7335
 11
0.956131
 21
-42.8442
  0
LINE
  8
0
 10
0.956131
 20
-42.8442
 11
1.09344
 21
-42.9732
  0
LINE
  8
0
 10
1.09344
 20
-42.9732
 11
1.21352
 21
-43.1183
  0
LINE
  8
0
 10
1.21352
 20
-43.1183
 11
1.31445
 21
-43.2774
  0
LINE
  8
0
 10
1.31445
 20
-43.2774
 11
1.39465
 21
-43.4478
  0
LINE
  8
0
 10
1.39465
 20
-43.4478
 11
1.45287
 21
-43.627
  0
LINE
  8
0
 10
1.45287
 20
-43.627
 11
1.48816
 21
-43.812
  0
LINE
  8
0
 10
1.48816
 20
-43.812
 11
1.5
 21
-44
  0
LINE
  8
0
 10
1.5
 20
-44
 11
1.48816
 21
-44.188
  0
LINE
  8
0
 10
1.48816
 20
-44.188
 11
1.45287
 21
-44.373
  0
LINE
  8
0
 10
1.45287
 20
-44.373
 11
1.39465
 21
-44.5522
  0
LINE
  8
0
 10
1.39465
 20
-44.5522
 11
1.31445
 21
-44.7226
  0
LINE
  8
0
 10
1.31445
 20
-44.7226
 11
1.21352
 21
-44.8817
  0
LINE
  8
0
 10
1.21352
 20
-44.8817
 11
1.09344
 21
-45.0268
  0
LINE
  8
0
 10
1.09344
 20
-45.0268
 11
0.956131
 21
-45.1558
  0
LINE
  8
0
 10
0.956131
 20
-45.1558
 11
0.803726
 21
-45.2665
  0
LINE
  8
0
 10
0.803726
 20
-45.2665
 11
0.638657
 21
-45.3572
  0
LINE
  8
0
 10
0.638657
 20
-45.3572
 11
0.463516
 21
-45.4266
  0
LINE
  8
0
 10
0.463516
 20
-45.4266
 11
0.281067
 21
-45.4734
  0
LINE
  8
0
 10
0.281067
 20
-45.4734
 11
0.0941772
 21
-45.497
  0
LINE
  8
0
 10
0.0941772
 20
-45.497
 11
-0.0941772
 21
-45.497
  0
ENDSEC
  0
SECTION
  2
OBJECTS
  0
DICTIONARY
  0
ENDSEC
  0
EOF
