  0
SECTION
  2
BLOCKS
  0
ENDSEC
  0
SECTION
  2
ENTITIES
  0
LINE
  8
0
 10
62.5
 20
54
 11
-62.5
 21
54
  0
LINE
  8
0
 10
-62.5
 20
54
 11
-62.5
 21
-54
  0
LINE
  8
0
 10
-62.5
 20
-54
 11
62.5
 21
-54
  0
LINE
  8
0
 10
62.5
 20
-54
 11
62.5
 21
54
  0
LINE
  8
0
 10
-57.113
 20
44.2035
 11
-57.2256
 21
44.2142
  0
LINE
  8
0
 10
-57.2256
 20
44.2142
 11
-57.3373
 21
44.2319
  0
LINE
  8
0
 10
-57.3373
 20
44.2319
 11
-57.4476
 21
44.2565
  0
LINE
  8
0
 10
-57.4476
 20
44.2565
 11
-57.5562
 21
44.2881
  0
LINE
  8
0
 10
-57.5562
 20
44.2881
 11
-57.6626
 21
44.3264
  0
LINE
  8
0
 10
-57.6626
 20
44.3264
 11
-57.7664
 21
44.3713
  0
LINE
  8
0
 10
-57.7664
 20
44.3713
 11
-57.8671
 21
44.4226
  0
LINE
  8
0
 10
-57.8671
 20
44.4226
 11
-57.9645
 21
44.4802
  0
LINE
  8
0
 10
-57.9645
 20
44.4802
 11
-58.058
 21
44.5438
  0
LINE
  8
0
 10
-58.058
 20
44.5438
 11
-58.1474
 21
44.6131
  0
LINE
  8
0
 10
-58.1474
 20
44.6131
 11
-58.2322
 21
44.6879
  0
LINE
  8
0
 10
-58.2322
 20
44.6879
 11
-58.3121
 21
44.7678
  0
LINE
  8
0
 10
-58.3121
 20
44.7678
 11
-58.3869
 21
44.8526
  0
LINE
  8
0
 10
-58.3869
 20
44.8526
 11
-58.4562
 21
44.942
  0
LINE
  8
0
 10
-58.4562
 20
44.942
 11
-58.5198
 21
45.0355
  0
LINE
  8
0
 10
-58.5198
 20
45.0355
 11
-58.5773
 21
45.1328
  0
LINE
  8
0
 10
-58.5773
 20
45.1328
 11
-58.6287
 21
45.2336
  0
LINE
  8
0
 10
-58.6287
 20
45.2336
 11
-58.6736
 21
45.3374
  0
LINE
  8
0
 10
-58.6736
 20
45.3374
 11
-58.7119
 21
45.4438
  0
LINE
  8
0
 10
-58.7119
 20
45.4438
 11
-58.7434
 21
45.5524
  0
LINE
  8
0
 10
-58.7434
 20
45.5524
 11
-58.7681
 21
45.6627
  0
LINE
  8
0
 10
-58.7681
 20
45.6627
 11
-58.7858
 21
45.7744
  0
LINE
  8
0
 10
-58.7858
 20
45.7744
 11
-58.7964
 21
45.887
  0
LINE
  8
0
 10
-58.7964
 20
45.887
 11
-58.8
 21
46
  0
LINE
  8
0
 10
-58.8
 20
46
 11
-58.7964
 21
46.113
  0
LINE
  8
0
 10
-58.7964
 20
46.113
 11
-58.7858
 21
46.2256
  0
LINE
  8
0
 10
-58.7858
 20
46.2256
 11
-58.7681
 21
46.3373
  0
LINE
  8
0
 10
-58.7681
 20
46.3373
 11
-58.7434
 21
46.4476
  0
LINE
  8
0
 10
-58.7434
 20
46.4476
 11
-58.7119
 21
46.5562
  0
LINE
  8
0
 10
-58.7119
 20
46.5562
 11
-58.6736
 21
46.6626
  0
LINE
  8
0
 10
-58.6736
 20
46.6626
 11
-58.6287
 21
46.7664
  0
LINE
  8
0
 10
-58.6287
 20
46.7664
 11
-58.5773
 21
46.8671
  0
LINE
  8
0
 10
-58.5773
 20
46.8671
 11
-58.5198
 21
46.9645
  0
LINE
  8
0
 10
-58.5198
 20
46.9645
 11
-58.4562
 21
47.058
  0
LINE
  8
0
 10
-58.4562
 20
47.058
 11
-58.3869
 21
47.1474
  0
LINE
  8
0
 10
-58.3869
 20
47.1474
 11
-58.3121
 21
47.2322
  0
LINE
  8
0
 10
-58.3121
 20
47.2322
 11
-58.2322
 21
47.3121
  0
LINE
  8
0
 10
-58.2322
 20
47.3121
 11
-58.1474
 21
47.3869
  0
LINE
  8
0
 10
-58.1474
 20
47.3869
 11
-58.058
 21
47.4562
  0
LINE
  8
0
 10
-58.058
 20
47.4562
 11
-57.9645
 21
47.5198
  0
LINE
  8
0
 10
-57.9645
 20
47.5198
 11
-57.8671
 21
47.5773
  0
LINE
  8
0
 10
-57.8671
 20
47.5773
 11
-57.7664
 21
47.6287
  0
LINE
  8
0
 10
-57.7664
 20
47.6287
 11
-57.6626
 21
47.6736
  0
LINE
  8
0
 10
-57.6626
 20
47.6736
 11
-57.5562
 21
47.7119
  0
LINE
  8
0
 10
-57.5562
 20
47.7119
 11
-57.4476
 21
47.7434
  0
LINE
  8
0
 10
-57.4476
 20
47.7434
 11
-57.3373
 21
47.7681
  0
LINE
  8
0
 10
-57.3373
 20
47.7681
 11
-57.2256
 21
47.7858
  0
LINE
  8
0
 10
-57.2256
 20
47.7858
 11
-57.113
 21
47.7964
  0
LINE
  8
0
 10
-57.113
 20
47.7964
 11
-57
 21
47.8
  0
LINE
  8
0
 10
-57
 20
47.8
 11
-56.887
 21
47.7964
  0
LINE
  8
0
 10
-56.887
 20
47.7964
 11
-56.7744
 21
47.7858
  0
LINE
  8
0
 10
-56.7744
 20
47.7858
 11
-56.6627
 21
47.7681
  0
LINE
  8
0
 10
-56.6627
 20
47.7681
 11
-56.5524
 21
47.7434
  0
LINE
  8
0
 10
-56.5524
 20
47.7434
 11
-56.4438
 21
47.7119
  0
LINE
  8
0
 10
-56.4438
 20
47.7119
 11
-56.3374
 21
47.6736
  0
LINE
  8
0
 10
-56.3374
 20
47.6736
 11
-56.2336
 21
47.6287
  0
LINE
  8
0
 10
-56.2336
 20
47.6287
 11
-56.1328
 21
47.5773
  0
LINE
  8
0
 10
-56.1328
 20
47.5773
 11
-56.0355
 21
47.5198
  0
LINE
  8
0
 10
-56.0355
 20
47.5198
 11
-55.942
 21
47.4562
  0
LINE
  8
0
 10
-55.942
 20
47.4562
 11
-55.8526
 21
47.3869
  0
LINE
  8
0
 10
-55.8526
 20
47.3869
 11
-55.7678
 21
47.3121
  0
LINE
  8
0
 10
-55.7678
 20
47.3121
 11
-55.6879
 21
47.2322
  0
LINE
  8
0
 10
-55.6879
 20
47.2322
 11
-55.6131
 21
47.1474
  0
LINE
  8
0
 10
-55.6131
 20
47.1474
 11
-55.5438
 21
47.058
  0
LINE
  8
0
 10
-55.5438
 20
47.058
 11
-55.4802
 21
46.9645
  0
LINE
  8
0
 10
-55.4802
 20
46.9645
 11
-55.4226
 21
46.8671
  0
LINE
  8
0
 10
-55.4226
 20
46.8671
 11
-55.3713
 21
46.7664
  0
LINE
  8
0
 10
-55.3713
 20
46.7664
 11
-55.3264
 21
46.6626
  0
LINE
  8
0
 10
-55.3264
 20
46.6626
 11
-55.2881
 21
46.5562
  0
LINE
  8
0
 10
-55.2881
 20
46.5562
 11
-55.2565
 21
46.4476
  0
LINE
  8
0
 10
-55.2565
 20
46.4476
 11
-55.2319
 21
46.3373
  0
LINE
  8
0
 10
-55.2319
 20
46.3373
 11
-55.2142
 21
46.2256
  0
LINE
  8
0
 10
-55.2142
 20
46.2256
 11
-55.2035
 21
46.113
  0
LINE
  8
0
 10
-55.2035
 20
46.113
 11
-55.2
 21
46
  0
LINE
  8
0
 10
-55.2
 20
46
 11
-55.2035
 21
45.887
  0
LINE
  8
0
 10
-55.2035
 20
45.887
 11
-55.2142
 21
45.7744
  0
LINE
  8
0
 10
-55.2142
 20
45.7744
 11
-55.2319
 21
45.6627
  0
LINE
  8
0
 10
-55.2319
 20
45.6627
 11
-55.2565
 21
45.5524
  0
LINE
  8
0
 10
-55.2565
 20
45.5524
 11
-55.2881
 21
45.4438
  0
LINE
  8
0
 10
-55.2881
 20
45.4438
 11
-55.3264
 21
45.3374
  0
LINE
  8
0
 10
-55.3264
 20
45.3374
 11
-55.3713
 21
45.2336
  0
LINE
  8
0
 10
-55.3713
 20
45.2336
 11
-55.4226
 21
45.1328
  0
LINE
  8
0
 10
-55.4226
 20
45.1328
 11
-55.4802
 21
45.0355
  0
LINE
  8
0
 10
-55.4802
 20
45.0355
 11
-55.5438
 21
44.942
  0
LINE
  8
0
 10
-55.5438
 20
44.942
 11
-55.6131
 21
44.8526
  0
LINE
  8
0
 10
-55.6131
 20
44.8526
 11
-55.6879
 21
44.7678
  0
LINE
  8
0
 10
-55.6879
 20
44.7678
 11
-55.7678
 21
44.6879
  0
LINE
  8
0
 10
-55.7678
 20
44.6879
 11
-55.8526
 21
44.6131
  0
LINE
  8
0
 10
-55.8526
 20
44.6131
 11
-55.942
 21
44.5438
  0
LINE
  8
0
 10
-55.942
 20
44.5438
 11
-56.0355
 21
44.4802
  0
LINE
  8
0
 10
-56.0355
 20
44.4802
 11
-56.1328
 21
44.4226
  0
LINE
  8
0
 10
-56.1328
 20
44.4226
 11
-56.2336
 21
44.3713
  0
LINE
  8
0
 10
-56.2336
 20
44.3713
 11
-56.3374
 21
44.3264
  0
LINE
  8
0
 10
-56.3374
 20
44.3264
 11
-56.4438
 21
44.2881
  0
LINE
  8
0
 10
-56.4438
 20
44.2881
 11
-56.5524
 21
44.2565
  0
LINE
  8
0
 10
-56.5524
 20
44.2565
 11
-56.6627
 21
44.2319
  0
LINE
  8
0
 10
-56.6627
 20
44.2319
 11
-56.7744
 21
44.2142
  0
LINE
  8
0
 10
-56.7744
 20
44.2142
 11
-56.887
 21
44.2035
  0
LINE
  8
0
 10
-56.887
 20
44.2035
 11
-57
 21
44.2
  0
LINE
  8
0
 10
-57
 20
44.2
 11
-57.113
 21
44.2035
  0
LINE
  8
0
 10
-28.613
 20
44.2035
 11
-28.7256
 21
44.2142
  0
LINE
  8
0
 10
-28.7256
 20
44.2142
 11
-28.8373
 21
44.2319
  0
LINE
  8
0
 10
-28.8373
 20
44.2319
 11
-28.9476
 21
44.2565
  0
LINE
  8
0
 10
-28.9476
 20
44.2565
 11
-29.0562
 21
44.2881
  0
LINE
  8
0
 10
-29.0562
 20
44.2881
 11
-29.1626
 21
44.3264
  0
LINE
  8
0
 10
-29.1626
 20
44.3264
 11
-29.2664
 21
44.3713
  0
LINE
  8
0
 10
-29.2664
 20
44.3713
 11
-29.3671
 21
44.4226
  0
LINE
  8
0
 10
-29.3671
 20
44.4226
 11
-29.4645
 21
44.4802
  0
LINE
  8
0
 10
-29.4645
 20
44.4802
 11
-29.558
 21
44.5438
  0
LINE
  8
0
 10
-29.558
 20
44.5438
 11
-29.6474
 21
44.6131
  0
LINE
  8
0
 10
-29.6474
 20
44.6131
 11
-29.7322
 21
44.6879
  0
LINE
  8
0
 10
-29.7322
 20
44.6879
 11
-29.8121
 21
44.7678
  0
LINE
  8
0
 10
-29.8121
 20
44.7678
 11
-29.8869
 21
44.8526
  0
LINE
  8
0
 10
-29.8869
 20
44.8526
 11
-29.9562
 21
44.942
  0
LINE
  8
0
 10
-29.9562
 20
44.942
 11
-30.0198
 21
45.0355
  0
LINE
  8
0
 10
-30.0198
 20
45.0355
 11
-30.0773
 21
45.1328
  0
LINE
  8
0
 10
-30.0773
 20
45.1328
 11
-30.1287
 21
45.2336
  0
LINE
  8
0
 10
-30.1287
 20
45.2336
 11
-30.1736
 21
45.3374
  0
LINE
  8
0
 10
-30.1736
 20
45.3374
 11
-30.2119
 21
45.4438
  0
LINE
  8
0
 10
-30.2119
 20
45.4438
 11
-30.2434
 21
45.5524
  0
LINE
  8
0
 10
-30.2434
 20
45.5524
 11
-30.2681
 21
45.6627
  0
LINE
  8
0
 10
-30.2681
 20
45.6627
 11
-30.2858
 21
45.7744
  0
LINE
  8
0
 10
-30.2858
 20
45.7744
 11
-30.2964
 21
45.887
  0
LINE
  8
0
 10
-30.2964
 20
45.887
 11
-30.3
 21
46
  0
LINE
  8
0
 10
-30.3
 20
46
 11
-30.2964
 21
46.113
  0
LINE
  8
0
 10
-30.2964
 20
46.113
 11
-30.2858
 21
46.2256
  0
LINE
  8
0
 10
-30.2858
 20
46.2256
 11
-30.2681
 21
46.3373
  0
LINE
  8
0
 10
-30.2681
 20
46.3373
 11
-30.2434
 21
46.4476
  0
LINE
  8
0
 10
-30.2434
 20
46.4476
 11
-30.2119
 21
46.5562
  0
LINE
  8
0
 10
-30.2119
 20
46.5562
 11
-30.1736
 21
46.6626
  0
LINE
  8
0
 10
-30.1736
 20
46.6626
 11
-30.1287
 21
46.7664
  0
LINE
  8
0
 10
-30.1287
 20
46.7664
 11
-30.0773
 21
46.8671
  0
LINE
  8
0
 10
-30.0773
 20
46.8671
 11
-30.0198
 21
46.9645
  0
LINE
  8
0
 10
-30.0198
 20
46.9645
 11
-29.9562
 21
47.058
  0
LINE
  8
0
 10
-29.9562
 20
47.058
 11
-29.8869
 21
47.1474
  0
LINE
  8
0
 10
-29.8869
 20
47.1474
 11
-29.8121
 21
47.2322
  0
LINE
  8
0
 10
-29.8121
 20
47.2322
 11
-29.7322
 21
47.3121
  0
LINE
  8
0
 10
-29.7322
 20
47.3121
 11
-29.6474
 21
47.3869
  0
LINE
  8
0
 10
-29.6474
 20
47.3869
 11
-29.558
 21
47.4562
  0
LINE
  8
0
 10
-29.558
 20
47.4562
 11
-29.4645
 21
47.5198
  0
LINE
  8
0
 10
-29.4645
 20
47.5198
 11
-29.3671
 21
47.5773
  0
LINE
  8
0
 10
-29.3671
 20
47.5773
 11
-29.2664
 21
47.6287
  0
LINE
  8
0
 10
-29.2664
 20
47.6287
 11
-29.1626
 21
47.6736
  0
LINE
  8
0
 10
-29.1626
 20
47.6736
 11
-29.0562
 21
47.7119
  0
LINE
  8
0
 10
-29.0562
 20
47.7119
 11
-28.9476
 21
47.7434
  0
LINE
  8
0
 10
-28.9476
 20
47.7434
 11
-28.8373
 21
47.7681
  0
LINE
  8
0
 10
-28.8373
 20
47.7681
 11
-28.7256
 21
47.7858
  0
LINE
  8
0
 10
-28.7256
 20
47.7858
 11
-28.613
 21
47.7964
  0
LINE
  8
0
 10
-28.613
 20
47.7964
 11
-28.5
 21
47.8
  0
LINE
  8
0
 10
-28.5
 20
47.8
 11
-28.387
 21
47.7964
  0
LINE
  8
0
 10
-28.387
 20
47.7964
 11
-28.2744
 21
47.7858
  0
LINE
  8
0
 10
-28.2744
 20
47.7858
 11
-28.1627
 21
47.7681
  0
LINE
  8
0
 10
-28.1627
 20
47.7681
 11
-28.0524
 21
47.7434
  0
LINE
  8
0
 10
-28.0524
 20
47.7434
 11
-27.9438
 21
47.7119
  0
LINE
  8
0
 10
-27.9438
 20
47.7119
 11
-27.8374
 21
47.6736
  0
LINE
  8
0
 10
-27.8374
 20
47.6736
 11
-27.7336
 21
47.6287
  0
LINE
  8
0
 10
-27.7336
 20
47.6287
 11
-27.6328
 21
47.5773
  0
LINE
  8
0
 10
-27.6328
 20
47.5773
 11
-27.5355
 21
47.5198
  0
LINE
  8
0
 10
-27.5355
 20
47.5198
 11
-27.442
 21
47.4562
  0
LINE
  8
0
 10
-27.442
 20
47.4562
 11
-27.3526
 21
47.3869
  0
LINE
  8
0
 10
-27.3526
 20
47.3869
 11
-27.2678
 21
47.3121
  0
LINE
  8
0
 10
-27.2678
 20
47.3121
 11
-27.1879
 21
47.2322
  0
LINE
  8
0
 10
-27.1879
 20
47.2322
 11
-27.1131
 21
47.1474
  0
LINE
  8
0
 10
-27.1131
 20
47.1474
 11
-27.0438
 21
47.058
  0
LINE
  8
0
 10
-27.0438
 20
47.058
 11
-26.9802
 21
46.9645
  0
LINE
  8
0
 10
-26.9802
 20
46.9645
 11
-26.9226
 21
46.8671
  0
LINE
  8
0
 10
-26.9226
 20
46.8671
 11
-26.8713
 21
46.7664
  0
LINE
  8
0
 10
-26.8713
 20
46.7664
 11
-26.8264
 21
46.6626
  0
LINE
  8
0
 10
-26.8264
 20
46.6626
 11
-26.7881
 21
46.5562
  0
LINE
  8
0
 10
-26.7881
 20
46.5562
 11
-26.7565
 21
46.4476
  0
LINE
  8
0
 10
-26.7565
 20
46.4476
 11
-26.7319
 21
46.3373
  0
LINE
  8
0
 10
-26.7319
 20
46.3373
 11
-26.7142
 21
46.2256
  0
LINE
  8
0
 10
-26.7142
 20
46.2256
 11
-26.7035
 21
46.113
  0
LINE
  8
0
 10
-26.7035
 20
46.113
 11
-26.7
 21
46
  0
LINE
  8
0
 10
-26.7
 20
46
 11
-26.7035
 21
45.887
  0
LINE
  8
0
 10
-26.7035
 20
45.887
 11
-26.7142
 21
45.7744
  0
LINE
  8
0
 10
-26.7142
 20
45.7744
 11
-26.7319
 21
45.6627
  0
LINE
  8
0
 10
-26.7319
 20
45.6627
 11
-26.7565
 21
45.5524
  0
LINE
  8
0
 10
-26.7565
 20
45.5524
 11
-26.7881
 21
45.4438
  0
LINE
  8
0
 10
-26.7881
 20
45.4438
 11
-26.8264
 21
45.3374
  0
LINE
  8
0
 10
-26.8264
 20
45.3374
 11
-26.8713
 21
45.2336
  0
LINE
  8
0
 10
-26.8713
 20
45.2336
 11
-26.9226
 21
45.1328
  0
LINE
  8
0
 10
-26.9226
 20
45.1328
 11
-26.9802
 21
45.0355
  0
LINE
  8
0
 10
-26.9802
 20
45.0355
 11
-27.0438
 21
44.942
  0
LINE
  8
0
 10
-27.0438
 20
44.942
 11
-27.1131
 21
44.8526
  0
LINE
  8
0
 10
-27.1131
 20
44.8526
 11
-27.1879
 21
44.7678
  0
LINE
  8
0
 10
-27.1879
 20
44.7678
 11
-27.2678
 21
44.6879
  0
LINE
  8
0
 10
-27.2678
 20
44.6879
 11
-27.3526
 21
44.6131
  0
LINE
  8
0
 10
-27.3526
 20
44.6131
 11
-27.442
 21
44.5438
  0
LINE
  8
0
 10
-27.442
 20
44.5438
 11
-27.5355
 21
44.4802
  0
LINE
  8
0
 10
-27.5355
 20
44.4802
 11
-27.6328
 21
44.4226
  0
LINE
  8
0
 10
-27.6328
 20
44.4226
 11
-27.7336
 21
44.3713
  0
LINE
  8
0
 10
-27.7336
 20
44.3713
 11
-27.8374
 21
44.3264
  0
LINE
  8
0
 10
-27.8374
 20
44.3264
 11
-27.9438
 21
44.2881
  0
LINE
  8
0
 10
-27.9438
 20
44.2881
 11
-28.0524
 21
44.2565
  0
LINE
  8
0
 10
-28.0524
 20
44.2565
 11
-28.1627
 21
44.2319
  0
LINE
  8
0
 10
-28.1627
 20
44.2319
 11
-28.2744
 21
44.2142
  0
LINE
  8
0
 10
-28.2744
 20
44.2142
 11
-28.387
 21
44.2035
  0
LINE
  8
0
 10
-28.387
 20
44.2035
 11
-28.5
 21
44.2
  0
LINE
  8
0
 10
-28.5
 20
44.2
 11
-28.613
 21
44.2035
  0
LINE
  8
0
 10
56.887
 20
44.2035
 11
56.7744
 21
44.2142
  0
LINE
  8
0
 10
56.7744
 20
44.2142
 11
56.6627
 21
44.2319
  0
LINE
  8
0
 10
56.6627
 20
44.2319
 11
56.5524
 21
44.2565
  0
LINE
  8
0
 10
56.5524
 20
44.2565
 11
56.4438
 21
44.2881
  0
LINE
  8
0
 10
56.4438
 20
44.2881
 11
56.3374
 21
44.3264
  0
LINE
  8
0
 10
56.3374
 20
44.3264
 11
56.2336
 21
44.3713
  0
LINE
  8
0
 10
56.2336
 20
44.3713
 11
56.1328
 21
44.4226
  0
LINE
  8
0
 10
56.1328
 20
44.4226
 11
56.0355
 21
44.4802
  0
LINE
  8
0
 10
56.0355
 20
44.4802
 11
55.942
 21
44.5438
  0
LINE
  8
0
 10
55.942
 20
44.5438
 11
55.8526
 21
44.6131
  0
LINE
  8
0
 10
55.8526
 20
44.6131
 11
55.7678
 21
44.6879
  0
LINE
  8
0
 10
55.7678
 20
44.6879
 11
55.6879
 21
44.7678
  0
LINE
  8
0
 10
55.6879
 20
44.7678
 11
55.6131
 21
44.8526
  0
LINE
  8
0
 10
55.6131
 20
44.8526
 11
55.5438
 21
44.942
  0
LINE
  8
0
 10
55.5438
 20
44.942
 11
55.4802
 21
45.0355
  0
LINE
  8
0
 10
55.4802
 20
45.0355
 11
55.4226
 21
45.1328
  0
LINE
  8
0
 10
55.4226
 20
45.1328
 11
55.3713
 21
45.2336
  0
LINE
  8
0
 10
55.3713
 20
45.2336
 11
55.3264
 21
45.3374
  0
LINE
  8
0
 10
55.3264
 20
45.3374
 11
55.2881
 21
45.4438
  0
LINE
  8
0
 10
55.2881
 20
45.4438
 11
55.2565
 21
45.5524
  0
LINE
  8
0
 10
55.2565
 20
45.5524
 11
55.2319
 21
45.6627
  0
LINE
  8
0
 10
55.2319
 20
45.6627
 11
55.2142
 21
45.7744
  0
LINE
  8
0
 10
55.2142
 20
45.7744
 11
55.2035
 21
45.887
  0
LINE
  8
0
 10
55.2035
 20
45.887
 11
55.2
 21
46
  0
LINE
  8
0
 10
55.2
 20
46
 11
55.2035
 21
46.113
  0
LINE
  8
0
 10
55.2035
 20
46.113
 11
55.2142
 21
46.2256
  0
LINE
  8
0
 10
55.2142
 20
46.2256
 11
55.2319
 21
46.3373
  0
LINE
  8
0
 10
55.2319
 20
46.3373
 11
55.2565
 21
46.4476
  0
LINE
  8
0
 10
55.2565
 20
46.4476
 11
55.2881
 21
46.5562
  0
LINE
  8
0
 10
55.2881
 20
46.5562
 11
55.3264
 21
46.6626
  0
LINE
  8
0
 10
55.3264
 20
46.6626
 11
55.3713
 21
46.7664
  0
LINE
  8
0
 10
55.3713
 20
46.7664
 11
55.4226
 21
46.8671
  0
LINE
  8
0
 10
55.4226
 20
46.8671
 11
55.4802
 21
46.9645
  0
LINE
  8
0
 10
55.4802
 20
46.9645
 11
55.5438
 21
47.058
  0
LINE
  8
0
 10
55.5438
 20
47.058
 11
55.6131
 21
47.1474
  0
LINE
  8
0
 10
55.6131
 20
47.1474
 11
55.6879
 21
47.2322
  0
LINE
  8
0
 10
55.6879
 20
47.2322
 11
55.7678
 21
47.3121
  0
LINE
  8
0
 10
55.7678
 20
47.3121
 11
55.8526
 21
47.3869
  0
LINE
  8
0
 10
55.8526
 20
47.3869
 11
55.942
 21
47.4562
  0
LINE
  8
0
 10
55.942
 20
47.4562
 11
56.0355
 21
47.5198
  0
LINE
  8
0
 10
56.0355
 20
47.5198
 11
56.1328
 21
47.5773
  0
LINE
  8
0
 10
56.1328
 20
47.5773
 11
56.2336
 21
47.6287
  0
LINE
  8
0
 10
56.2336
 20
47.6287
 11
56.3374
 21
47.6736
  0
LINE
  8
0
 10
56.3374
 20
47.6736
 11
56.4438
 21
47.7119
  0
LINE
  8
0
 10
56.4438
 20
47.7119
 11
56.5524
 21
47.7434
  0
LINE
  8
0
 10
56.5524
 20
47.7434
 11
56.6627
 21
47.7681
  0
LINE
  8
0
 10
56.6627
 20
47.7681
 11
56.7744
 21
47.7858
  0
LINE
  8
0
 10
56.7744
 20
47.7858
 11
56.887
 21
47.7964
  0
LINE
  8
0
 10
56.887
 20
47.7964
 11
57
 21
47.8
  0
LINE
  8
0
 10
57
 20
47.8
 11
57.113
 21
47.7964
  0
LINE
  8
0
 10
57.113
 20
47.7964
 11
57.2256
 21
47.7858
  0
LINE
  8
0
 10
57.2256
 20
47.7858
 11
57.3373
 21
47.7681
  0
LINE
  8
0
 10
57.3373
 20
47.7681
 11
57.4476
 21
47.7434
  0
LINE
  8
0
 10
57.4476
 20
47.7434
 11
57.5562
 21
47.7119
  0
LINE
  8
0
 10
57.5562
 20
47.7119
 11
57.6626
 21
47.6736
  0
LINE
  8
0
 10
57.6626
 20
47.6736
 11
57.7664
 21
47.6287
  0
LINE
  8
0
 10
57.7664
 20
47.6287
 11
57.8671
 21
47.5773
  0
LINE
  8
0
 10
57.8671
 20
47.5773
 11
57.9645
 21
47.5198
  0
LINE
  8
0
 10
57.9645
 20
47.5198
 11
58.058
 21
47.4562
  0
LINE
  8
0
 10
58.058
 20
47.4562
 11
58.1474
 21
47.3869
  0
LINE
  8
0
 10
58.1474
 20
47.3869
 11
58.2322
 21
47.3121
  0
LINE
  8
0
 10
58.2322
 20
47.3121
 11
58.3121
 21
47.2322
  0
LINE
  8
0
 10
58.3121
 20
47.2322
 11
58.3869
 21
47.1474
  0
LINE
  8
0
 10
58.3869
 20
47.1474
 11
58.4562
 21
47.058
  0
LINE
  8
0
 10
58.4562
 20
47.058
 11
58.5198
 21
46.9645
  0
LINE
  8
0
 10
58.5198
 20
46.9645
 11
58.5773
 21
46.8671
  0
LINE
  8
0
 10
58.5773
 20
46.8671
 11
58.6287
 21
46.7664
  0
LINE
  8
0
 10
58.6287
 20
46.7664
 11
58.6736
 21
46.6626
  0
LINE
  8
0
 10
58.6736
 20
46.6626
 11
58.7119
 21
46.5562
  0
LINE
  8
0
 10
58.7119
 20
46.5562
 11
58.7434
 21
46.4476
  0
LINE
  8
0
 10
58.7434
 20
46.4476
 11
58.7681
 21
46.3373
  0
LINE
  8
0
 10
58.7681
 20
46.3373
 11
58.7858
 21
46.2256
  0
LINE
  8
0
 10
58.7858
 20
46.2256
 11
58.7964
 21
46.113
  0
LINE
  8
0
 10
58.7964
 20
46.113
 11
58.8
 21
46
  0
LINE
  8
0
 10
58.8
 20
46
 11
58.7964
 21
45.887
  0
LINE
  8
0
 10
58.7964
 20
45.887
 11
58.7858
 21
45.7744
  0
LINE
  8
0
 10
58.7858
 20
45.7744
 11
58.7681
 21
45.6627
  0
LINE
  8
0
 10
58.7681
 20
45.6627
 11
58.7434
 21
45.5524
  0
LINE
  8
0
 10
58.7434
 20
45.5524
 11
58.7119
 21
45.4438
  0
LINE
  8
0
 10
58.7119
 20
45.4438
 11
58.6736
 21
45.3374
  0
LINE
  8
0
 10
58.6736
 20
45.3374
 11
58.6287
 21
45.2336
  0
LINE
  8
0
 10
58.6287
 20
45.2336
 11
58.5773
 21
45.1328
  0
LINE
  8
0
 10
58.5773
 20
45.1328
 11
58.5198
 21
45.0355
  0
LINE
  8
0
 10
58.5198
 20
45.0355
 11
58.4562
 21
44.942
  0
LINE
  8
0
 10
58.4562
 20
44.942
 11
58.3869
 21
44.8526
  0
LINE
  8
0
 10
58.3869
 20
44.8526
 11
58.3121
 21
44.7678
  0
LINE
  8
0
 10
58.3121
 20
44.7678
 11
58.2322
 21
44.6879
  0
LINE
  8
0
 10
58.2322
 20
44.6879
 11
58.1474
 21
44.6131
  0
LINE
  8
0
 10
58.1474
 20
44.6131
 11
58.058
 21
44.5438
  0
LINE
  8
0
 10
58.058
 20
44.5438
 11
57.9645
 21
44.4802
  0
LINE
  8
0
 10
57.9645
 20
44.4802
 11
57.8671
 21
44.4226
  0
LINE
  8
0
 10
57.8671
 20
44.4226
 11
57.7664
 21
44.3713
  0
LINE
  8
0
 10
57.7664
 20
44.3713
 11
57.6626
 21
44.3264
  0
LINE
  8
0
 10
57.6626
 20
44.3264
 11
57.5562
 21
44.2881
  0
LINE
  8
0
 10
57.5562
 20
44.2881
 11
57.4476
 21
44.2565
  0
LINE
  8
0
 10
57.4476
 20
44.2565
 11
57.3373
 21
44.2319
  0
LINE
  8
0
 10
57.3373
 20
44.2319
 11
57.2256
 21
44.2142
  0
LINE
  8
0
 10
57.2256
 20
44.2142
 11
57.113
 21
44.2035
  0
LINE
  8
0
 10
57.113
 20
44.2035
 11
57
 21
44.2
  0
LINE
  8
0
 10
57
 20
44.2
 11
56.887
 21
44.2035
  0
LINE
  8
0
 10
28.387
 20
44.2035
 11
28.2744
 21
44.2142
  0
LINE
  8
0
 10
28.2744
 20
44.2142
 11
28.1627
 21
44.2319
  0
LINE
  8
0
 10
28.1627
 20
44.2319
 11
28.0524
 21
44.2565
  0
LINE
  8
0
 10
28.0524
 20
44.2565
 11
27.9438
 21
44.2881
  0
LINE
  8
0
 10
27.9438
 20
44.2881
 11
27.8374
 21
44.3264
  0
LINE
  8
0
 10
27.8374
 20
44.3264
 11
27.7336
 21
44.3713
  0
LINE
  8
0
 10
27.7336
 20
44.3713
 11
27.6328
 21
44.4226
  0
LINE
  8
0
 10
27.6328
 20
44.4226
 11
27.5355
 21
44.4802
  0
LINE
  8
0
 10
27.5355
 20
44.4802
 11
27.442
 21
44.5438
  0
LINE
  8
0
 10
27.442
 20
44.5438
 11
27.3526
 21
44.6131
  0
LINE
  8
0
 10
27.3526
 20
44.6131
 11
27.2678
 21
44.6879
  0
LINE
  8
0
 10
27.2678
 20
44.6879
 11
27.1879
 21
44.7678
  0
LINE
  8
0
 10
27.1879
 20
44.7678
 11
27.1131
 21
44.8526
  0
LINE
  8
0
 10
27.1131
 20
44.8526
 11
27.0438
 21
44.942
  0
LINE
  8
0
 10
27.0438
 20
44.942
 11
26.9802
 21
45.0355
  0
LINE
  8
0
 10
26.9802
 20
45.0355
 11
26.9226
 21
45.1328
  0
LINE
  8
0
 10
26.9226
 20
45.1328
 11
26.8713
 21
45.2336
  0
LINE
  8
0
 10
26.8713
 20
45.2336
 11
26.8264
 21
45.3374
  0
LINE
  8
0
 10
26.8264
 20
45.3374
 11
26.7881
 21
45.4438
  0
LINE
  8
0
 10
26.7881
 20
45.4438
 11
26.7565
 21
45.5524
  0
LINE
  8
0
 10
26.7565
 20
45.5524
 11
26.7319
 21
45.6627
  0
LINE
  8
0
 10
26.7319
 20
45.6627
 11
26.7142
 21
45.7744
  0
LINE
  8
0
 10
26.7142
 20
45.7744
 11
26.7035
 21
45.887
  0
LINE
  8
0
 10
26.7035
 20
45.887
 11
26.7
 21
46
  0
LINE
  8
0
 10
26.7
 20
46
 11
26.7035
 21
46.113
  0
LINE
  8
0
 10
26.7035
 20
46.113
 11
26.7142
 21
46.2256
  0
LINE
  8
0
 10
26.7142
 20
46.2256
 11
26.7319
 21
46.3373
  0
LINE
  8
0
 10
26.7319
 20
46.3373
 11
26.7565
 21
46.4476
  0
LINE
  8
0
 10
26.7565
 20
46.4476
 11
26.7881
 21
46.5562
  0
LINE
  8
0
 10
26.7881
 20
46.5562
 11
26.8264
 21
46.6626
  0
LINE
  8
0
 10
26.8264
 20
46.6626
 11
26.8713
 21
46.7664
  0
LINE
  8
0
 10
26.8713
 20
46.7664
 11
26.9226
 21
46.8671
  0
LINE
  8
0
 10
26.9226
 20
46.8671
 11
26.9802
 21
46.9645
  0
LINE
  8
0
 10
26.9802
 20
46.9645
 11
27.0438
 21
47.058
  0
LINE
  8
0
 10
27.0438
 20
47.058
 11
27.1131
 21
47.1474
  0
LINE
  8
0
 10
27.1131
 20
47.1474
 11
27.1879
 21
47.2322
  0
LINE
  8
0
 10
27.1879
 20
47.2322
 11
27.2678
 21
47.3121
  0
LINE
  8
0
 10
27.2678
 20
47.3121
 11
27.3526
 21
47.3869
  0
LINE
  8
0
 10
27.3526
 20
47.3869
 11
27.442
 21
47.4562
  0
LINE
  8
0
 10
27.442
 20
47.4562
 11
27.5355
 21
47.5198
  0
LINE
  8
0
 10
27.5355
 20
47.5198
 11
27.6328
 21
47.5773
  0
LINE
  8
0
 10
27.6328
 20
47.5773
 11
27.7336
 21
47.6287
  0
LINE
  8
0
 10
27.7336
 20
47.6287
 11
27.8374
 21
47.6736
  0
LINE
  8
0
 10
27.8374
 20
47.6736
 11
27.9438
 21
47.7119
  0
LINE
  8
0
 10
27.9438
 20
47.7119
 11
28.0524
 21
47.7434
  0
LINE
  8
0
 10
28.0524
 20
47.7434
 11
28.1627
 21
47.7681
  0
LINE
  8
0
 10
28.1627
 20
47.7681
 11
28.2744
 21
47.7858
  0
LINE
  8
0
 10
28.2744
 20
47.7858
 11
28.387
 21
47.7964
  0
LINE
  8
0
 10
28.387
 20
47.7964
 11
28.5
 21
47.8
  0
LINE
  8
0
 10
28.5
 20
47.8
 11
28.613
 21
47.7964
  0
LINE
  8
0
 10
28.613
 20
47.7964
 11
28.7256
 21
47.7858
  0
LINE
  8
0
 10
28.7256
 20
47.7858
 11
28.8373
 21
47.7681
  0
LINE
  8
0
 10
28.8373
 20
47.7681
 11
28.9476
 21
47.7434
  0
LINE
  8
0
 10
28.9476
 20
47.7434
 11
29.0562
 21
47.7119
  0
LINE
  8
0
 10
29.0562
 20
47.7119
 11
29.1626
 21
47.6736
  0
LINE
  8
0
 10
29.1626
 20
47.6736
 11
29.2664
 21
47.6287
  0
LINE
  8
0
 10
29.2664
 20
47.6287
 11
29.3671
 21
47.5773
  0
LINE
  8
0
 10
29.3671
 20
47.5773
 11
29.4645
 21
47.5198
  0
LINE
  8
0
 10
29.4645
 20
47.5198
 11
29.558
 21
47.4562
  0
LINE
  8
0
 10
29.558
 20
47.4562
 11
29.6474
 21
47.3869
  0
LINE
  8
0
 10
29.6474
 20
47.3869
 11
29.7322
 21
47.3121
  0
LINE
  8
0
 10
29.7322
 20
47.3121
 11
29.8121
 21
47.2322
  0
LINE
  8
0
 10
29.8121
 20
47.2322
 11
29.8869
 21
47.1474
  0
LINE
  8
0
 10
29.8869
 20
47.1474
 11
29.9562
 21
47.058
  0
LINE
  8
0
 10
29.9562
 20
47.058
 11
30.0198
 21
46.9645
  0
LINE
  8
0
 10
30.0198
 20
46.9645
 11
30.0773
 21
46.8671
  0
LINE
  8
0
 10
30.0773
 20
46.8671
 11
30.1287
 21
46.7664
  0
LINE
  8
0
 10
30.1287
 20
46.7664
 11
30.1736
 21
46.6626
  0
LINE
  8
0
 10
30.1736
 20
46.6626
 11
30.2119
 21
46.5562
  0
LINE
  8
0
 10
30.2119
 20
46.5562
 11
30.2434
 21
46.4476
  0
LINE
  8
0
 10
30.2434
 20
46.4476
 11
30.2681
 21
46.3373
  0
LINE
  8
0
 10
30.2681
 20
46.3373
 11
30.2858
 21
46.2256
  0
LINE
  8
0
 10
30.2858
 20
46.2256
 11
30.2964
 21
46.113
  0
LINE
  8
0
 10
30.2964
 20
46.113
 11
30.3
 21
46
  0
LINE
  8
0
 10
30.3
 20
46
 11
30.2964
 21
45.887
  0
LINE
  8
0
 10
30.2964
 20
45.887
 11
30.2858
 21
45.7744
  0
LINE
  8
0
 10
30.2858
 20
45.7744
 11
30.2681
 21
45.6627
  0
LINE
  8
0
 10
30.2681
 20
45.6627
 11
30.2434
 21
45.5524
  0
LINE
  8
0
 10
30.2434
 20
45.5524
 11
30.2119
 21
45.4438
  0
LINE
  8
0
 10
30.2119
 20
45.4438
 11
30.1736
 21
45.3374
  0
LINE
  8
0
 10
30.1736
 20
45.3374
 11
30.1287
 21
45.2336
  0
LINE
  8
0
 10
30.1287
 20
45.2336
 11
30.0773
 21
45.1328
  0
LINE
  8
0
 10
30.0773
 20
45.1328
 11
30.0198
 21
45.0355
  0
LINE
  8
0
 10
30.0198
 20
45.0355
 11
29.9562
 21
44.942
  0
LINE
  8
0
 10
29.9562
 20
44.942
 11
29.8869
 21
44.8526
  0
LINE
  8
0
 10
29.8869
 20
44.8526
 11
29.8121
 21
44.7678
  0
LINE
  8
0
 10
29.8121
 20
44.7678
 11
29.7322
 21
44.6879
  0
LINE
  8
0
 10
29.7322
 20
44.6879
 11
29.6474
 21
44.6131
  0
LINE
  8
0
 10
29.6474
 20
44.6131
 11
29.558
 21
44.5438
  0
LINE
  8
0
 10
29.558
 20
44.5438
 11
29.4645
 21
44.4802
  0
LINE
  8
0
 10
29.4645
 20
44.4802
 11
29.3671
 21
44.4226
  0
LINE
  8
0
 10
29.3671
 20
44.4226
 11
29.2664
 21
44.3713
  0
LINE
  8
0
 10
29.2664
 20
44.3713
 11
29.1626
 21
44.3264
  0
LINE
  8
0
 10
29.1626
 20
44.3264
 11
29.0562
 21
44.2881
  0
LINE
  8
0
 10
29.0562
 20
44.2881
 11
28.9476
 21
44.2565
  0
LINE
  8
0
 10
28.9476
 20
44.2565
 11
28.8373
 21
44.2319
  0
LINE
  8
0
 10
28.8373
 20
44.2319
 11
28.7256
 21
44.2142
  0
LINE
  8
0
 10
28.7256
 20
44.2142
 11
28.613
 21
44.2035
  0
LINE
  8
0
 10
28.613
 20
44.2035
 11
28.5
 21
44.2
  0
LINE
  8
0
 10
28.5
 20
44.2
 11
28.387
 21
44.2035
  0
LINE
  8
0
 10
-0.113022
 20
44.2035
 11
-0.225586
 21
44.2142
  0
LINE
  8
0
 10
-0.225586
 20
44.2142
 11
-0.33728
 21
44.2319
  0
LINE
  8
0
 10
-0.33728
 20
44.2319
 11
-0.447632
 21
44.2565
  0
LINE
  8
0
 10
-0.447632
 20
44.2565
 11
-0.556229
 21
44.2881
  0
LINE
  8
0
 10
-0.556229
 20
44.2881
 11
-0.662613
 21
44.3264
  0
LINE
  8
0
 10
-0.662613
 20
44.3264
 11
-0.766388
 21
44.3713
  0
LINE
  8
0
 10
-0.766388
 20
44.3713
 11
-0.867142
 21
44.4226
  0
LINE
  8
0
 10
-0.867142
 20
44.4226
 11
-0.964478
 21
44.4802
  0
LINE
  8
0
 10
-0.964478
 20
44.4802
 11
-1.058
 21
44.5438
  0
LINE
  8
0
 10
-1.058
 20
44.5438
 11
-1.14735
 21
44.6131
  0
LINE
  8
0
 10
-1.14735
 20
44.6131
 11
-1.23218
 21
44.6879
  0
LINE
  8
0
 10
-1.23218
 20
44.6879
 11
-1.31213
 21
44.7678
  0
LINE
  8
0
 10
-1.31213
 20
44.7678
 11
-1.38692
 21
44.8526
  0
LINE
  8
0
 10
-1.38692
 20
44.8526
 11
-1.45622
 21
44.942
  0
LINE
  8
0
 10
-1.45622
 20
44.942
 11
-1.51978
 21
45.0355
  0
LINE
  8
0
 10
-1.51978
 20
45.0355
 11
-1.57735
 21
45.1328
  0
LINE
  8
0
 10
-1.57735
 20
45.1328
 11
-1.62868
 21
45.2336
  0
LINE
  8
0
 10
-1.62868
 20
45.2336
 11
-1.67358
 21
45.3374
  0
LINE
  8
0
 10
-1.67358
 20
45.3374
 11
-1.7119
 21
45.4438
  0
LINE
  8
0
 10
-1.7119
 20
45.4438
 11
-1.74344
 21
45.5524
  0
LINE
  8
0
 10
-1.74344
 20
45.5524
 11
-1.76811
 21
45.6627
  0
LINE
  8
0
 10
-1.76811
 20
45.6627
 11
-1.7858
 21
45.7744
  0
LINE
  8
0
 10
-1.7858
 20
45.7744
 11
-1.79645
 21
45.887
  0
LINE
  8
0
 10
-1.79645
 20
45.887
 11
-1.79999
 21
46
  0
LINE
  8
0
 10
-1.79999
 20
46
 11
-1.79645
 21
46.113
  0
LINE
  8
0
 10
-1.79645
 20
46.113
 11
-1.7858
 21
46.2256
  0
LINE
  8
0
 10
-1.7858
 20
46.2256
 11
-1.76811
 21
46.3373
  0
LINE
  8
0
 10
-1.76811
 20
46.3373
 11
-1.74344
 21
46.4476
  0
LINE
  8
0
 10
-1.74344
 20
46.4476
 11
-1.7119
 21
46.5562
  0
LINE
  8
0
 10
-1.7119
 20
46.5562
 11
-1.67358
 21
46.6626
  0
LINE
  8
0
 10
-1.67358
 20
46.6626
 11
-1.62868
 21
46.7664
  0
LINE
  8
0
 10
-1.62868
 20
46.7664
 11
-1.57735
 21
46.8671
  0
LINE
  8
0
 10
-1.57735
 20
46.8671
 11
-1.51978
 21
46.9645
  0
LINE
  8
0
 10
-1.51978
 20
46.9645
 11
-1.45622
 21
47.058
  0
LINE
  8
0
 10
-1.45622
 20
47.058
 11
-1.38692
 21
47.1474
  0
LINE
  8
0
 10
-1.38692
 20
47.1474
 11
-1.31213
 21
47.2322
  0
LINE
  8
0
 10
-1.31213
 20
47.2322
 11
-1.23218
 21
47.3121
  0
LINE
  8
0
 10
-1.23218
 20
47.3121
 11
-1.14735
 21
47.3869
  0
LINE
  8
0
 10
-1.14735
 20
47.3869
 11
-1.058
 21
47.4562
  0
LINE
  8
0
 10
-1.058
 20
47.4562
 11
-0.964478
 21
47.5198
  0
LINE
  8
0
 10
-0.964478
 20
47.5198
 11
-0.867142
 21
47.5773
  0
LINE
  8
0
 10
-0.867142
 20
47.5773
 11
-0.766388
 21
47.6287
  0
LINE
  8
0
 10
-0.766388
 20
47.6287
 11
-0.662613
 21
47.6736
  0
LINE
  8
0
 10
-0.662613
 20
47.6736
 11
-0.556229
 21
47.7119
  0
LINE
  8
0
 10
-0.556229
 20
47.7119
 11
-0.447632
 21
47.7434
  0
LINE
  8
0
 10
-0.447632
 20
47.7434
 11
-0.33728
 21
47.7681
  0
LINE
  8
0
 10
-0.33728
 20
47.7681
 11
-0.225586
 21
47.7858
  0
LINE
  8
0
 10
-0.225586
 20
47.7858
 11
-0.113022
 21
47.7964
  0
LINE
  8
0
 10
-0.113022
 20
47.7964
 11
0
 21
47.8
  0
LINE
  8
0
 10
0
 20
47.8
 11
0.113022
 21
47.7964
  0
LINE
  8
0
 10
0.113022
 20
47.7964
 11
0.225586
 21
47.7858
  0
LINE
  8
0
 10
0.225586
 20
47.7858
 11
0.33728
 21
47.7681
  0
LINE
  8
0
 10
0.33728
 20
47.7681
 11
0.447632
 21
47.7434
  0
LINE
  8
0
 10
0.447632
 20
47.7434
 11
0.556229
 21
47.7119
  0
LINE
  8
0
 10
0.556229
 20
47.7119
 11
0.662613
 21
47.6736
  0
LINE
  8
0
 10
0.662613
 20
47.6736
 11
0.766388
 21
47.6287
  0
LINE
  8
0
 10
0.766388
 20
47.6287
 11
0.867142
 21
47.5773
  0
LINE
  8
0
 10
0.867142
 20
47.5773
 11
0.964478
 21
47.5198
  0
LINE
  8
0
 10
0.964478
 20
47.5198
 11
1.058
 21
47.4562
  0
LINE
  8
0
 10
1.058
 20
47.4562
 11
1.14735
 21
47.3869
  0
LINE
  8
0
 10
1.14735
 20
47.3869
 11
1.23218
 21
47.3121
  0
LINE
  8
0
 10
1.23218
 20
47.3121
 11
1.31213
 21
47.2322
  0
LINE
  8
0
 10
1.31213
 20
47.2322
 11
1.38692
 21
47.1474
  0
LINE
  8
0
 10
1.38692
 20
47.1474
 11
1.45622
 21
47.058
  0
LINE
  8
0
 10
1.45622
 20
47.058
 11
1.51978
 21
46.9645
  0
LINE
  8
0
 10
1.51978
 20
46.9645
 11
1.57735
 21
46.8671
  0
LINE
  8
0
 10
1.57735
 20
46.8671
 11
1.62868
 21
46.7664
  0
LINE
  8
0
 10
1.62868
 20
46.7664
 11
1.67358
 21
46.6626
  0
LINE
  8
0
 10
1.67358
 20
46.6626
 11
1.7119
 21
46.5562
  0
LINE
  8
0
 10
1.7119
 20
46.5562
 11
1.74344
 21
46.4476
  0
LINE
  8
0
 10
1.74344
 20
46.4476
 11
1.76811
 21
46.3373
  0
LINE
  8
0
 10
1.76811
 20
46.3373
 11
1.7858
 21
46.2256
  0
LINE
  8
0
 10
1.7858
 20
46.2256
 11
1.79645
 21
46.113
  0
LINE
  8
0
 10
1.79645
 20
46.113
 11
1.79999
 21
46
  0
LINE
  8
0
 10
1.79999
 20
46
 11
1.79645
 21
45.887
  0
LINE
  8
0
 10
1.79645
 20
45.887
 11
1.7858
 21
45.7744
  0
LINE
  8
0
 10
1.7858
 20
45.7744
 11
1.76811
 21
45.6627
  0
LINE
  8
0
 10
1.76811
 20
45.6627
 11
1.74344
 21
45.5524
  0
LINE
  8
0
 10
1.74344
 20
45.5524
 11
1.7119
 21
45.4438
  0
LINE
  8
0
 10
1.7119
 20
45.4438
 11
1.67358
 21
45.3374
  0
LINE
  8
0
 10
1.67358
 20
45.3374
 11
1.62868
 21
45.2336
  0
LINE
  8
0
 10
1.62868
 20
45.2336
 11
1.57735
 21
45.1328
  0
LINE
  8
0
 10
1.57735
 20
45.1328
 11
1.51978
 21
45.0355
  0
LINE
  8
0
 10
1.51978
 20
45.0355
 11
1.45622
 21
44.942
  0
LINE
  8
0
 10
1.45622
 20
44.942
 11
1.38692
 21
44.8526
  0
LINE
  8
0
 10
1.38692
 20
44.8526
 11
1.31213
 21
44.7678
  0
LINE
  8
0
 10
1.31213
 20
44.7678
 11
1.23218
 21
44.6879
  0
LINE
  8
0
 10
1.23218
 20
44.6879
 11
1.14735
 21
44.6131
  0
LINE
  8
0
 10
1.14735
 20
44.6131
 11
1.058
 21
44.5438
  0
LINE
  8
0
 10
1.058
 20
44.5438
 11
0.964478
 21
44.4802
  0
LINE
  8
0
 10
0.964478
 20
44.4802
 11
0.867142
 21
44.4226
  0
LINE
  8
0
 10
0.867142
 20
44.4226
 11
0.766388
 21
44.3713
  0
LINE
  8
0
 10
0.766388
 20
44.3713
 11
0.662613
 21
44.3264
  0
LINE
  8
0
 10
0.662613
 20
44.3264
 11
0.556229
 21
44.2881
  0
LINE
  8
0
 10
0.556229
 20
44.2881
 11
0.447632
 21
44.2565
  0
LINE
  8
0
 10
0.447632
 20
44.2565
 11
0.33728
 21
44.2319
  0
LINE
  8
0
 10
0.33728
 20
44.2319
 11
0.225586
 21
44.2142
  0
LINE
  8
0
 10
0.225586
 20
44.2142
 11
0.113022
 21
44.2035
  0
LINE
  8
0
 10
0.113022
 20
44.2035
 11
0
 21
44.2
  0
LINE
  8
0
 10
0
 20
44.2
 11
-0.113022
 21
44.2035
  0
LINE
  8
0
 10
56.3773
 20
21.0054
 11
56.2053
 21
21.0217
  0
LINE
  8
0
 10
56.2053
 20
21.0217
 11
56.0347
 21
21.0487
  0
LINE
  8
0
 10
56.0347
 20
21.0487
 11
55.8661
 21
21.0864
  0
LINE
  8
0
 10
55.8661
 20
21.0864
 11
55.7002
 21
21.1346
  0
LINE
  8
0
 10
55.7002
 20
21.1346
 11
55.5376
 21
21.1931
  0
LINE
  8
0
 10
55.5376
 20
21.1931
 11
55.3791
 21
21.2617
  0
LINE
  8
0
 10
55.3791
 20
21.2617
 11
55.2252
 21
21.3401
  0
LINE
  8
0
 10
55.2252
 20
21.3401
 11
55.0765
 21
21.4281
  0
LINE
  8
0
 10
55.0765
 20
21.4281
 11
54.9336
 21
21.5252
  0
LINE
  8
0
 10
54.9336
 20
21.5252
 11
54.7971
 21
21.6311
  0
LINE
  8
0
 10
54.7971
 20
21.6311
 11
54.6675
 21
21.7453
  0
LINE
  8
0
 10
54.6675
 20
21.7453
 11
54.5453
 21
21.8675
  0
LINE
  8
0
 10
54.5453
 20
21.8675
 11
54.4311
 21
21.9971
  0
LINE
  8
0
 10
54.4311
 20
21.9971
 11
54.3252
 21
22.1336
  0
LINE
  8
0
 10
54.3252
 20
22.1336
 11
54.2281
 21
22.2765
  0
LINE
  8
0
 10
54.2281
 20
22.2765
 11
54.1402
 21
22.4252
  0
LINE
  8
0
 10
54.1402
 20
22.4252
 11
54.0617
 21
22.5791
  0
LINE
  8
0
 10
54.0617
 20
22.5791
 11
53.9931
 21
22.7377
  0
LINE
  8
0
 10
53.9931
 20
22.7377
 11
53.9346
 21
22.9002
  0
LINE
  8
0
 10
53.9346
 20
22.9002
 11
53.8864
 21
23.0661
  0
LINE
  8
0
 10
53.8864
 20
23.0661
 11
53.8487
 21
23.2347
  0
LINE
  8
0
 10
53.8487
 20
23.2347
 11
53.8217
 21
23.4053
  0
LINE
  8
0
 10
53.8217
 20
23.4053
 11
53.8054
 21
23.5773
  0
LINE
  8
0
 10
53.8054
 20
23.5773
 11
53.8
 21
23.75
  0
LINE
  8
0
 10
53.8
 20
23.75
 11
53.8054
 21
23.9227
  0
LINE
  8
0
 10
53.8054
 20
23.9227
 11
53.8217
 21
24.0947
  0
LINE
  8
0
 10
53.8217
 20
24.0947
 11
53.8487
 21
24.2653
  0
LINE
  8
0
 10
53.8487
 20
24.2653
 11
53.8864
 21
24.4339
  0
LINE
  8
0
 10
53.8864
 20
24.4339
 11
53.9346
 21
24.5998
  0
LINE
  8
0
 10
53.9346
 20
24.5998
 11
53.9931
 21
24.7623
  0
LINE
  8
0
 10
53.9931
 20
24.7623
 11
54.0617
 21
24.9209
  0
LINE
  8
0
 10
54.0617
 20
24.9209
 11
54.1402
 21
25.0748
  0
LINE
  8
0
 10
54.1402
 20
25.0748
 11
54.2281
 21
25.2235
  0
LINE
  8
0
 10
54.2281
 20
25.2235
 11
54.3252
 21
25.3664
  0
LINE
  8
0
 10
54.3252
 20
25.3664
 11
54.4311
 21
25.5029
  0
LINE
  8
0
 10
54.4311
 20
25.5029
 11
54.5453
 21
25.6325
  0
LINE
  8
0
 10
54.5453
 20
25.6325
 11
54.6675
 21
25.7547
  0
LINE
  8
0
 10
54.6675
 20
25.7547
 11
54.7971
 21
25.8689
  0
LINE
  8
0
 10
54.7971
 20
25.8689
 11
54.9336
 21
25.9748
  0
LINE
  8
0
 10
54.9336
 20
25.9748
 11
55.0765
 21
26.0719
  0
LINE
  8
0
 10
55.0765
 20
26.0719
 11
55.2252
 21
26.1598
  0
LINE
  8
0
 10
55.2252
 20
26.1598
 11
55.3791
 21
26.2383
  0
LINE
  8
0
 10
55.3791
 20
26.2383
 11
55.5376
 21
26.3069
  0
LINE
  8
0
 10
55.5376
 20
26.3069
 11
55.7002
 21
26.3654
  0
LINE
  8
0
 10
55.7002
 20
26.3654
 11
55.8661
 21
26.4136
  0
LINE
  8
0
 10
55.8661
 20
26.4136
 11
56.0347
 21
26.4513
  0
LINE
  8
0
 10
56.0347
 20
26.4513
 11
56.2053
 21
26.4783
  0
LINE
  8
0
 10
56.2053
 20
26.4783
 11
56.3773
 21
26.4946
  0
LINE
  8
0
 10
56.3773
 20
26.4946
 11
56.55
 21
26.5
  0
LINE
  8
0
 10
56.55
 20
26.5
 11
56.7227
 21
26.4946
  0
LINE
  8
0
 10
56.7227
 20
26.4946
 11
56.8947
 21
26.4783
  0
LINE
  8
0
 10
56.8947
 20
26.4783
 11
57.0653
 21
26.4513
  0
LINE
  8
0
 10
57.0653
 20
26.4513
 11
57.2339
 21
26.4136
  0
LINE
  8
0
 10
57.2339
 20
26.4136
 11
57.3998
 21
26.3654
  0
LINE
  8
0
 10
57.3998
 20
26.3654
 11
57.5623
 21
26.3069
  0
LINE
  8
0
 10
57.5623
 20
26.3069
 11
57.7209
 21
26.2383
  0
LINE
  8
0
 10
57.7209
 20
26.2383
 11
57.8748
 21
26.1598
  0
LINE
  8
0
 10
57.8748
 20
26.1598
 11
58.0235
 21
26.0719
  0
LINE
  8
0
 10
58.0235
 20
26.0719
 11
58.1664
 21
25.9748
  0
LINE
  8
0
 10
58.1664
 20
25.9748
 11
58.3029
 21
25.8689
  0
LINE
  8
0
 10
58.3029
 20
25.8689
 11
58.4325
 21
25.7547
  0
LINE
  8
0
 10
58.4325
 20
25.7547
 11
58.5547
 21
25.6325
  0
LINE
  8
0
 10
58.5547
 20
25.6325
 11
58.6689
 21
25.5029
  0
LINE
  8
0
 10
58.6689
 20
25.5029
 11
58.7748
 21
25.3664
  0
LINE
  8
0
 10
58.7748
 20
25.3664
 11
58.8719
 21
25.2235
  0
LINE
  8
0
 10
58.8719
 20
25.2235
 11
58.9598
 21
25.0748
  0
LINE
  8
0
 10
58.9598
 20
25.0748
 11
59.0383
 21
24.9209
  0
LINE
  8
0
 10
59.0383
 20
24.9209
 11
59.1069
 21
24.7623
  0
LINE
  8
0
 10
59.1069
 20
24.7623
 11
59.1654
 21
24.5998
  0
LINE
  8
0
 10
59.1654
 20
24.5998
 11
59.2136
 21
24.4339
  0
LINE
  8
0
 10
59.2136
 20
24.4339
 11
59.2513
 21
24.2653
  0
LINE
  8
0
 10
59.2513
 20
24.2653
 11
59.2783
 21
24.0947
  0
LINE
  8
0
 10
59.2783
 20
24.0947
 11
59.2946
 21
23.9227
  0
LINE
  8
0
 10
59.2946
 20
23.9227
 11
59.3
 21
23.75
  0
LINE
  8
0
 10
59.3
 20
23.75
 11
59.2946
 21
23.5773
  0
LINE
  8
0
 10
59.2946
 20
23.5773
 11
59.2783
 21
23.4053
  0
LINE
  8
0
 10
59.2783
 20
23.4053
 11
59.2513
 21
23.2347
  0
LINE
  8
0
 10
59.2513
 20
23.2347
 11
59.2136
 21
23.0661
  0
LINE
  8
0
 10
59.2136
 20
23.0661
 11
59.1654
 21
22.9002
  0
LINE
  8
0
 10
59.1654
 20
22.9002
 11
59.1069
 21
22.7377
  0
LINE
  8
0
 10
59.1069
 20
22.7377
 11
59.0383
 21
22.5791
  0
LINE
  8
0
 10
59.0383
 20
22.5791
 11
58.9598
 21
22.4252
  0
LINE
  8
0
 10
58.9598
 20
22.4252
 11
58.8719
 21
22.2765
  0
LINE
  8
0
 10
58.8719
 20
22.2765
 11
58.7748
 21
22.1336
  0
LINE
  8
0
 10
58.7748
 20
22.1336
 11
58.6689
 21
21.9971
  0
LINE
  8
0
 10
58.6689
 20
21.9971
 11
58.5547
 21
21.8675
  0
LINE
  8
0
 10
58.5547
 20
21.8675
 11
58.4325
 21
21.7453
  0
LINE
  8
0
 10
58.4325
 20
21.7453
 11
58.3029
 21
21.6311
  0
LINE
  8
0
 10
58.3029
 20
21.6311
 11
58.1664
 21
21.5252
  0
LINE
  8
0
 10
58.1664
 20
21.5252
 11
58.0235
 21
21.4281
  0
LINE
  8
0
 10
58.0235
 20
21.4281
 11
57.8748
 21
21.3401
  0
LINE
  8
0
 10
57.8748
 20
21.3401
 11
57.7209
 21
21.2617
  0
LINE
  8
0
 10
57.7209
 20
21.2617
 11
57.5623
 21
21.1931
  0
LINE
  8
0
 10
57.5623
 20
21.1931
 11
57.3998
 21
21.1346
  0
LINE
  8
0
 10
57.3998
 20
21.1346
 11
57.2339
 21
21.0864
  0
LINE
  8
0
 10
57.2339
 20
21.0864
 11
57.0653
 21
21.0487
  0
LINE
  8
0
 10
57.0653
 20
21.0487
 11
56.8947
 21
21.0217
  0
LINE
  8
0
 10
56.8947
 20
21.0217
 11
56.7227
 21
21.0054
  0
LINE
  8
0
 10
56.7227
 20
21.0054
 11
56.55
 21
21
  0
LINE
  8
0
 10
56.55
 20
21
 11
56.3773
 21
21.0054
  0
LINE
  8
0
 10
-56.7227
 20
21.0054
 11
-56.8947
 21
21.0217
  0
LINE
  8
0
 10
-56.8947
 20
21.0217
 11
-57.0653
 21
21.0487
  0
LINE
  8
0
 10
-57.0653
 20
21.0487
 11
-57.2339
 21
21.0864
  0
LINE
  8
0
 10
-57.2339
 20
21.0864
 11
-57.3998
 21
21.1346
  0
LINE
  8
0
 10
-57.3998
 20
21.1346
 11
-57.5623
 21
21.1931
  0
LINE
  8
0
 10
-57.5623
 20
21.1931
 11
-57.7209
 21
21.2617
  0
LINE
  8
0
 10
-57.7209
 20
21.2617
 11
-57.8748
 21
21.3401
  0
LINE
  8
0
 10
-57.8748
 20
21.3401
 11
-58.0235
 21
21.4281
  0
LINE
  8
0
 10
-58.0235
 20
21.4281
 11
-58.1664
 21
21.5252
  0
LINE
  8
0
 10
-58.1664
 20
21.5252
 11
-58.3029
 21
21.6311
  0
LINE
  8
0
 10
-58.3029
 20
21.6311
 11
-58.4325
 21
21.7453
  0
LINE
  8
0
 10
-58.4325
 20
21.7453
 11
-58.5547
 21
21.8675
  0
LINE
  8
0
 10
-58.5547
 20
21.8675
 11
-58.6689
 21
21.9971
  0
LINE
  8
0
 10
-58.6689
 20
21.9971
 11
-58.7748
 21
22.1336
  0
LINE
  8
0
 10
-58.7748
 20
22.1336
 11
-58.8719
 21
22.2765
  0
LINE
  8
0
 10
-58.8719
 20
22.2765
 11
-58.9598
 21
22.4252
  0
LINE
  8
0
 10
-58.9598
 20
22.4252
 11
-59.0383
 21
22.5791
  0
LINE
  8
0
 10
-59.0383
 20
22.5791
 11
-59.1069
 21
22.7377
  0
LINE
  8
0
 10
-59.1069
 20
22.7377
 11
-59.1654
 21
22.9002
  0
LINE
  8
0
 10
-59.1654
 20
22.9002
 11
-59.2136
 21
23.0661
  0
LINE
  8
0
 10
-59.2136
 20
23.0661
 11
-59.2513
 21
23.2347
  0
LINE
  8
0
 10
-59.2513
 20
23.2347
 11
-59.2783
 21
23.4053
  0
LINE
  8
0
 10
-59.2783
 20
23.4053
 11
-59.2946
 21
23.5773
  0
LINE
  8
0
 10
-59.2946
 20
23.5773
 11
-59.3
 21
23.75
  0
LINE
  8
0
 10
-59.3
 20
23.75
 11
-59.2946
 21
23.9227
  0
LINE
  8
0
 10
-59.2946
 20
23.9227
 11
-59.2783
 21
24.0947
  0
LINE
  8
0
 10
-59.2783
 20
24.0947
 11
-59.2513
 21
24.2653
  0
LINE
  8
0
 10
-59.2513
 20
24.2653
 11
-59.2136
 21
24.4339
  0
LINE
  8
0
 10
-59.2136
 20
24.4339
 11
-59.1654
 21
24.5998
  0
LINE
  8
0
 10
-59.1654
 20
24.5998
 11
-59.1069
 21
24.7623
  0
LINE
  8
0
 10
-59.1069
 20
24.7623
 11
-59.0383
 21
24.9209
  0
LINE
  8
0
 10
-59.0383
 20
24.9209
 11
-58.9598
 21
25.0748
  0
LINE
  8
0
 10
-58.9598
 20
25.0748
 11
-58.8719
 21
25.2235
  0
LINE
  8
0
 10
-58.8719
 20
25.2235
 11
-58.7748
 21
25.3664
  0
LINE
  8
0
 10
-58.7748
 20
25.3664
 11
-58.6689
 21
25.5029
  0
LINE
  8
0
 10
-58.6689
 20
25.5029
 11
-58.5547
 21
25.6325
  0
LINE
  8
0
 10
-58.5547
 20
25.6325
 11
-58.4325
 21
25.7547
  0
LINE
  8
0
 10
-58.4325
 20
25.7547
 11
-58.3029
 21
25.8689
  0
LINE
  8
0
 10
-58.3029
 20
25.8689
 11
-58.1664
 21
25.9748
  0
LINE
  8
0
 10
-58.1664
 20
25.9748
 11
-58.0235
 21
26.0719
  0
LINE
  8
0
 10
-58.0235
 20
26.0719
 11
-57.8748
 21
26.1598
  0
LINE
  8
0
 10
-57.8748
 20
26.1598
 11
-57.7209
 21
26.2383
  0
LINE
  8
0
 10
-57.7209
 20
26.2383
 11
-57.5623
 21
26.3069
  0
LINE
  8
0
 10
-57.5623
 20
26.3069
 11
-57.3998
 21
26.3654
  0
LINE
  8
0
 10
-57.3998
 20
26.3654
 11
-57.2339
 21
26.4136
  0
LINE
  8
0
 10
-57.2339
 20
26.4136
 11
-57.0653
 21
26.4513
  0
LINE
  8
0
 10
-57.0653
 20
26.4513
 11
-56.8947
 21
26.4783
  0
LINE
  8
0
 10
-56.8947
 20
26.4783
 11
-56.7227
 21
26.4946
  0
LINE
  8
0
 10
-56.7227
 20
26.4946
 11
-56.55
 21
26.5
  0
LINE
  8
0
 10
-56.55
 20
26.5
 11
-56.3773
 21
26.4946
  0
LINE
  8
0
 10
-56.3773
 20
26.4946
 11
-56.2053
 21
26.4783
  0
LINE
  8
0
 10
-56.2053
 20
26.4783
 11
-56.0347
 21
26.4513
  0
LINE
  8
0
 10
-56.0347
 20
26.4513
 11
-55.8661
 21
26.4136
  0
LINE
  8
0
 10
-55.8661
 20
26.4136
 11
-55.7002
 21
26.3654
  0
LINE
  8
0
 10
-55.7002
 20
26.3654
 11
-55.5376
 21
26.3069
  0
LINE
  8
0
 10
-55.5376
 20
26.3069
 11
-55.3791
 21
26.2383
  0
LINE
  8
0
 10
-55.3791
 20
26.2383
 11
-55.2252
 21
26.1598
  0
LINE
  8
0
 10
-55.2252
 20
26.1598
 11
-55.0765
 21
26.0719
  0
LINE
  8
0
 10
-55.0765
 20
26.0719
 11
-54.9336
 21
25.9748
  0
LINE
  8
0
 10
-54.9336
 20
25.9748
 11
-54.7971
 21
25.8689
  0
LINE
  8
0
 10
-54.7971
 20
25.8689
 11
-54.6675
 21
25.7547
  0
LINE
  8
0
 10
-54.6675
 20
25.7547
 11
-54.5453
 21
25.6325
  0
LINE
  8
0
 10
-54.5453
 20
25.6325
 11
-54.4311
 21
25.5029
  0
LINE
  8
0
 10
-54.4311
 20
25.5029
 11
-54.3252
 21
25.3664
  0
LINE
  8
0
 10
-54.3252
 20
25.3664
 11
-54.2281
 21
25.2235
  0
LINE
  8
0
 10
-54.2281
 20
25.2235
 11
-54.1402
 21
25.0748
  0
LINE
  8
0
 10
-54.1402
 20
25.0748
 11
-54.0617
 21
24.9209
  0
LINE
  8
0
 10
-54.0617
 20
24.9209
 11
-53.9931
 21
24.7623
  0
LINE
  8
0
 10
-53.9931
 20
24.7623
 11
-53.9346
 21
24.5998
  0
LINE
  8
0
 10
-53.9346
 20
24.5998
 11
-53.8864
 21
24.4339
  0
LINE
  8
0
 10
-53.8864
 20
24.4339
 11
-53.8487
 21
24.2653
  0
LINE
  8
0
 10
-53.8487
 20
24.2653
 11
-53.8217
 21
24.0947
  0
LINE
  8
0
 10
-53.8217
 20
24.0947
 11
-53.8054
 21
23.9227
  0
LINE
  8
0
 10
-53.8054
 20
23.9227
 11
-53.8
 21
23.75
  0
LINE
  8
0
 10
-53.8
 20
23.75
 11
-53.8054
 21
23.5773
  0
LINE
  8
0
 10
-53.8054
 20
23.5773
 11
-53.8217
 21
23.4053
  0
LINE
  8
0
 10
-53.8217
 20
23.4053
 11
-53.8487
 21
23.2347
  0
LINE
  8
0
 10
-53.8487
 20
23.2347
 11
-53.8864
 21
23.0661
  0
LINE
  8
0
 10
-53.8864
 20
23.0661
 11
-53.9346
 21
22.9002
  0
LINE
  8
0
 10
-53.9346
 20
22.9002
 11
-53.9931
 21
22.7377
  0
LINE
  8
0
 10
-53.9931
 20
22.7377
 11
-54.0617
 21
22.5791
  0
LINE
  8
0
 10
-54.0617
 20
22.5791
 11
-54.1402
 21
22.4252
  0
LINE
  8
0
 10
-54.1402
 20
22.4252
 11
-54.2281
 21
22.2765
  0
LINE
  8
0
 10
-54.2281
 20
22.2765
 11
-54.3252
 21
22.1336
  0
LINE
  8
0
 10
-54.3252
 20
22.1336
 11
-54.4311
 21
21.9971
  0
LINE
  8
0
 10
-54.4311
 20
21.9971
 11
-54.5453
 21
21.8675
  0
LINE
  8
0
 10
-54.5453
 20
21.8675
 11
-54.6675
 21
21.7453
  0
LINE
  8
0
 10
-54.6675
 20
21.7453
 11
-54.7971
 21
21.6311
  0
LINE
  8
0
 10
-54.7971
 20
21.6311
 11
-54.9336
 21
21.5252
  0
LINE
  8
0
 10
-54.9336
 20
21.5252
 11
-55.0765
 21
21.4281
  0
LINE
  8
0
 10
-55.0765
 20
21.4281
 11
-55.2252
 21
21.3401
  0
LINE
  8
0
 10
-55.2252
 20
21.3401
 11
-55.3791
 21
21.2617
  0
LINE
  8
0
 10
-55.3791
 20
21.2617
 11
-55.5376
 21
21.1931
  0
LINE
  8
0
 10
-55.5376
 20
21.1931
 11
-55.7002
 21
21.1346
  0
LINE
  8
0
 10
-55.7002
 20
21.1346
 11
-55.8661
 21
21.0864
  0
LINE
  8
0
 10
-55.8661
 20
21.0864
 11
-56.0347
 21
21.0487
  0
LINE
  8
0
 10
-56.0347
 20
21.0487
 11
-56.2053
 21
21.0217
  0
LINE
  8
0
 10
-56.2053
 20
21.0217
 11
-56.3773
 21
21.0054
  0
LINE
  8
0
 10
-56.3773
 20
21.0054
 11
-56.55
 21
21
  0
LINE
  8
0
 10
-56.55
 20
21
 11
-56.7227
 21
21.0054
  0
LINE
  8
0
 10
-57.113
 20
15.2035
 11
-57.2256
 21
15.2142
  0
LINE
  8
0
 10
-57.2256
 20
15.2142
 11
-57.3373
 21
15.2319
  0
LINE
  8
0
 10
-57.3373
 20
15.2319
 11
-57.4476
 21
15.2565
  0
LINE
  8
0
 10
-57.4476
 20
15.2565
 11
-57.5562
 21
15.2881
  0
LINE
  8
0
 10
-57.5562
 20
15.2881
 11
-57.6626
 21
15.3264
  0
LINE
  8
0
 10
-57.6626
 20
15.3264
 11
-57.7664
 21
15.3713
  0
LINE
  8
0
 10
-57.7664
 20
15.3713
 11
-57.8671
 21
15.4226
  0
LINE
  8
0
 10
-57.8671
 20
15.4226
 11
-57.9645
 21
15.4802
  0
LINE
  8
0
 10
-57.9645
 20
15.4802
 11
-58.058
 21
15.5438
  0
LINE
  8
0
 10
-58.058
 20
15.5438
 11
-58.1474
 21
15.6131
  0
LINE
  8
0
 10
-58.1474
 20
15.6131
 11
-58.2322
 21
15.6879
  0
LINE
  8
0
 10
-58.2322
 20
15.6879
 11
-58.3121
 21
15.7678
  0
LINE
  8
0
 10
-58.3121
 20
15.7678
 11
-58.3869
 21
15.8526
  0
LINE
  8
0
 10
-58.3869
 20
15.8526
 11
-58.4562
 21
15.942
  0
LINE
  8
0
 10
-58.4562
 20
15.942
 11
-58.5198
 21
16.0355
  0
LINE
  8
0
 10
-58.5198
 20
16.0355
 11
-58.5773
 21
16.1328
  0
LINE
  8
0
 10
-58.5773
 20
16.1328
 11
-58.6287
 21
16.2336
  0
LINE
  8
0
 10
-58.6287
 20
16.2336
 11
-58.6736
 21
16.3374
  0
LINE
  8
0
 10
-58.6736
 20
16.3374
 11
-58.7119
 21
16.4438
  0
LINE
  8
0
 10
-58.7119
 20
16.4438
 11
-58.7434
 21
16.5524
  0
LINE
  8
0
 10
-58.7434
 20
16.5524
 11
-58.7681
 21
16.6627
  0
LINE
  8
0
 10
-58.7681
 20
16.6627
 11
-58.7858
 21
16.7744
  0
LINE
  8
0
 10
-58.7858
 20
16.7744
 11
-58.7964
 21
16.887
  0
LINE
  8
0
 10
-58.7964
 20
16.887
 11
-58.8
 21
17
  0
LINE
  8
0
 10
-58.8
 20
17
 11
-58.7964
 21
17.113
  0
LINE
  8
0
 10
-58.7964
 20
17.113
 11
-58.7858
 21
17.2256
  0
LINE
  8
0
 10
-58.7858
 20
17.2256
 11
-58.7681
 21
17.3373
  0
LINE
  8
0
 10
-58.7681
 20
17.3373
 11
-58.7434
 21
17.4476
  0
LINE
  8
0
 10
-58.7434
 20
17.4476
 11
-58.7119
 21
17.5562
  0
LINE
  8
0
 10
-58.7119
 20
17.5562
 11
-58.6736
 21
17.6626
  0
LINE
  8
0
 10
-58.6736
 20
17.6626
 11
-58.6287
 21
17.7664
  0
LINE
  8
0
 10
-58.6287
 20
17.7664
 11
-58.5773
 21
17.8671
  0
LINE
  8
0
 10
-58.5773
 20
17.8671
 11
-58.5198
 21
17.9645
  0
LINE
  8
0
 10
-58.5198
 20
17.9645
 11
-58.4562
 21
18.058
  0
LINE
  8
0
 10
-58.4562
 20
18.058
 11
-58.3869
 21
18.1474
  0
LINE
  8
0
 10
-58.3869
 20
18.1474
 11
-58.3121
 21
18.2322
  0
LINE
  8
0
 10
-58.3121
 20
18.2322
 11
-58.2322
 21
18.3121
  0
LINE
  8
0
 10
-58.2322
 20
18.3121
 11
-58.1474
 21
18.3869
  0
LINE
  8
0
 10
-58.1474
 20
18.3869
 11
-58.058
 21
18.4562
  0
LINE
  8
0
 10
-58.058
 20
18.4562
 11
-57.9645
 21
18.5198
  0
LINE
  8
0
 10
-57.9645
 20
18.5198
 11
-57.8671
 21
18.5773
  0
LINE
  8
0
 10
-57.8671
 20
18.5773
 11
-57.7664
 21
18.6287
  0
LINE
  8
0
 10
-57.7664
 20
18.6287
 11
-57.6626
 21
18.6736
  0
LINE
  8
0
 10
-57.6626
 20
18.6736
 11
-57.5562
 21
18.7119
  0
LINE
  8
0
 10
-57.5562
 20
18.7119
 11
-57.4476
 21
18.7434
  0
LINE
  8
0
 10
-57.4476
 20
18.7434
 11
-57.3373
 21
18.7681
  0
LINE
  8
0
 10
-57.3373
 20
18.7681
 11
-57.2256
 21
18.7858
  0
LINE
  8
0
 10
-57.2256
 20
18.7858
 11
-57.113
 21
18.7964
  0
LINE
  8
0
 10
-57.113
 20
18.7964
 11
-57
 21
18.8
  0
LINE
  8
0
 10
-57
 20
18.8
 11
-56.887
 21
18.7964
  0
LINE
  8
0
 10
-56.887
 20
18.7964
 11
-56.7744
 21
18.7858
  0
LINE
  8
0
 10
-56.7744
 20
18.7858
 11
-56.6627
 21
18.7681
  0
LINE
  8
0
 10
-56.6627
 20
18.7681
 11
-56.5524
 21
18.7434
  0
LINE
  8
0
 10
-56.5524
 20
18.7434
 11
-56.4438
 21
18.7119
  0
LINE
  8
0
 10
-56.4438
 20
18.7119
 11
-56.3374
 21
18.6736
  0
LINE
  8
0
 10
-56.3374
 20
18.6736
 11
-56.2336
 21
18.6287
  0
LINE
  8
0
 10
-56.2336
 20
18.6287
 11
-56.1328
 21
18.5773
  0
LINE
  8
0
 10
-56.1328
 20
18.5773
 11
-56.0355
 21
18.5198
  0
LINE
  8
0
 10
-56.0355
 20
18.5198
 11
-55.942
 21
18.4562
  0
LINE
  8
0
 10
-55.942
 20
18.4562
 11
-55.8526
 21
18.3869
  0
LINE
  8
0
 10
-55.8526
 20
18.3869
 11
-55.7678
 21
18.3121
  0
LINE
  8
0
 10
-55.7678
 20
18.3121
 11
-55.6879
 21
18.2322
  0
LINE
  8
0
 10
-55.6879
 20
18.2322
 11
-55.6131
 21
18.1474
  0
LINE
  8
0
 10
-55.6131
 20
18.1474
 11
-55.5438
 21
18.058
  0
LINE
  8
0
 10
-55.5438
 20
18.058
 11
-55.4802
 21
17.9645
  0
LINE
  8
0
 10
-55.4802
 20
17.9645
 11
-55.4226
 21
17.8671
  0
LINE
  8
0
 10
-55.4226
 20
17.8671
 11
-55.3713
 21
17.7664
  0
LINE
  8
0
 10
-55.3713
 20
17.7664
 11
-55.3264
 21
17.6626
  0
LINE
  8
0
 10
-55.3264
 20
17.6626
 11
-55.2881
 21
17.5562
  0
LINE
  8
0
 10
-55.2881
 20
17.5562
 11
-55.2565
 21
17.4476
  0
LINE
  8
0
 10
-55.2565
 20
17.4476
 11
-55.2319
 21
17.3373
  0
LINE
  8
0
 10
-55.2319
 20
17.3373
 11
-55.2142
 21
17.2256
  0
LINE
  8
0
 10
-55.2142
 20
17.2256
 11
-55.2035
 21
17.113
  0
LINE
  8
0
 10
-55.2035
 20
17.113
 11
-55.2
 21
17
  0
LINE
  8
0
 10
-55.2
 20
17
 11
-55.2035
 21
16.887
  0
LINE
  8
0
 10
-55.2035
 20
16.887
 11
-55.2142
 21
16.7744
  0
LINE
  8
0
 10
-55.2142
 20
16.7744
 11
-55.2319
 21
16.6627
  0
LINE
  8
0
 10
-55.2319
 20
16.6627
 11
-55.2565
 21
16.5524
  0
LINE
  8
0
 10
-55.2565
 20
16.5524
 11
-55.2881
 21
16.4438
  0
LINE
  8
0
 10
-55.2881
 20
16.4438
 11
-55.3264
 21
16.3374
  0
LINE
  8
0
 10
-55.3264
 20
16.3374
 11
-55.3713
 21
16.2336
  0
LINE
  8
0
 10
-55.3713
 20
16.2336
 11
-55.4226
 21
16.1328
  0
LINE
  8
0
 10
-55.4226
 20
16.1328
 11
-55.4802
 21
16.0355
  0
LINE
  8
0
 10
-55.4802
 20
16.0355
 11
-55.5438
 21
15.942
  0
LINE
  8
0
 10
-55.5438
 20
15.942
 11
-55.6131
 21
15.8526
  0
LINE
  8
0
 10
-55.6131
 20
15.8526
 11
-55.6879
 21
15.7678
  0
LINE
  8
0
 10
-55.6879
 20
15.7678
 11
-55.7678
 21
15.6879
  0
LINE
  8
0
 10
-55.7678
 20
15.6879
 11
-55.8526
 21
15.6131
  0
LINE
  8
0
 10
-55.8526
 20
15.6131
 11
-55.942
 21
15.5438
  0
LINE
  8
0
 10
-55.942
 20
15.5438
 11
-56.0355
 21
15.4802
  0
LINE
  8
0
 10
-56.0355
 20
15.4802
 11
-56.1328
 21
15.4226
  0
LINE
  8
0
 10
-56.1328
 20
15.4226
 11
-56.2336
 21
15.3713
  0
LINE
  8
0
 10
-56.2336
 20
15.3713
 11
-56.3374
 21
15.3264
  0
LINE
  8
0
 10
-56.3374
 20
15.3264
 11
-56.4438
 21
15.2881
  0
LINE
  8
0
 10
-56.4438
 20
15.2881
 11
-56.5524
 21
15.2565
  0
LINE
  8
0
 10
-56.5524
 20
15.2565
 11
-56.6627
 21
15.2319
  0
LINE
  8
0
 10
-56.6627
 20
15.2319
 11
-56.7744
 21
15.2142
  0
LINE
  8
0
 10
-56.7744
 20
15.2142
 11
-56.887
 21
15.2035
  0
LINE
  8
0
 10
-56.887
 20
15.2035
 11
-57
 21
15.2
  0
LINE
  8
0
 10
-57
 20
15.2
 11
-57.113
 21
15.2035
  0
LINE
  8
0
 10
56.887
 20
15.2035
 11
56.7744
 21
15.2142
  0
LINE
  8
0
 10
56.7744
 20
15.2142
 11
56.6627
 21
15.2319
  0
LINE
  8
0
 10
56.6627
 20
15.2319
 11
56.5524
 21
15.2565
  0
LINE
  8
0
 10
56.5524
 20
15.2565
 11
56.4438
 21
15.2881
  0
LINE
  8
0
 10
56.4438
 20
15.2881
 11
56.3374
 21
15.3264
  0
LINE
  8
0
 10
56.3374
 20
15.3264
 11
56.2336
 21
15.3713
  0
LINE
  8
0
 10
56.2336
 20
15.3713
 11
56.1328
 21
15.4226
  0
LINE
  8
0
 10
56.1328
 20
15.4226
 11
56.0355
 21
15.4802
  0
LINE
  8
0
 10
56.0355
 20
15.4802
 11
55.942
 21
15.5438
  0
LINE
  8
0
 10
55.942
 20
15.5438
 11
55.8526
 21
15.6131
  0
LINE
  8
0
 10
55.8526
 20
15.6131
 11
55.7678
 21
15.6879
  0
LINE
  8
0
 10
55.7678
 20
15.6879
 11
55.6879
 21
15.7678
  0
LINE
  8
0
 10
55.6879
 20
15.7678
 11
55.6131
 21
15.8526
  0
LINE
  8
0
 10
55.6131
 20
15.8526
 11
55.5438
 21
15.942
  0
LINE
  8
0
 10
55.5438
 20
15.942
 11
55.4802
 21
16.0355
  0
LINE
  8
0
 10
55.4802
 20
16.0355
 11
55.4226
 21
16.1328
  0
LINE
  8
0
 10
55.4226
 20
16.1328
 11
55.3713
 21
16.2336
  0
LINE
  8
0
 10
55.3713
 20
16.2336
 11
55.3264
 21
16.3374
  0
LINE
  8
0
 10
55.3264
 20
16.3374
 11
55.2881
 21
16.4438
  0
LINE
  8
0
 10
55.2881
 20
16.4438
 11
55.2565
 21
16.5524
  0
LINE
  8
0
 10
55.2565
 20
16.5524
 11
55.2319
 21
16.6627
  0
LINE
  8
0
 10
55.2319
 20
16.6627
 11
55.2142
 21
16.7744
  0
LINE
  8
0
 10
55.2142
 20
16.7744
 11
55.2035
 21
16.887
  0
LINE
  8
0
 10
55.2035
 20
16.887
 11
55.2
 21
17
  0
LINE
  8
0
 10
55.2
 20
17
 11
55.2035
 21
17.113
  0
LINE
  8
0
 10
55.2035
 20
17.113
 11
55.2142
 21
17.2256
  0
LINE
  8
0
 10
55.2142
 20
17.2256
 11
55.2319
 21
17.3373
  0
LINE
  8
0
 10
55.2319
 20
17.3373
 11
55.2565
 21
17.4476
  0
LINE
  8
0
 10
55.2565
 20
17.4476
 11
55.2881
 21
17.5562
  0
LINE
  8
0
 10
55.2881
 20
17.5562
 11
55.3264
 21
17.6626
  0
LINE
  8
0
 10
55.3264
 20
17.6626
 11
55.3713
 21
17.7664
  0
LINE
  8
0
 10
55.3713
 20
17.7664
 11
55.4226
 21
17.8671
  0
LINE
  8
0
 10
55.4226
 20
17.8671
 11
55.4802
 21
17.9645
  0
LINE
  8
0
 10
55.4802
 20
17.9645
 11
55.5438
 21
18.058
  0
LINE
  8
0
 10
55.5438
 20
18.058
 11
55.6131
 21
18.1474
  0
LINE
  8
0
 10
55.6131
 20
18.1474
 11
55.6879
 21
18.2322
  0
LINE
  8
0
 10
55.6879
 20
18.2322
 11
55.7678
 21
18.3121
  0
LINE
  8
0
 10
55.7678
 20
18.3121
 11
55.8526
 21
18.3869
  0
LINE
  8
0
 10
55.8526
 20
18.3869
 11
55.942
 21
18.4562
  0
LINE
  8
0
 10
55.942
 20
18.4562
 11
56.0355
 21
18.5198
  0
LINE
  8
0
 10
56.0355
 20
18.5198
 11
56.1328
 21
18.5773
  0
LINE
  8
0
 10
56.1328
 20
18.5773
 11
56.2336
 21
18.6287
  0
LINE
  8
0
 10
56.2336
 20
18.6287
 11
56.3374
 21
18.6736
  0
LINE
  8
0
 10
56.3374
 20
18.6736
 11
56.4438
 21
18.7119
  0
LINE
  8
0
 10
56.4438
 20
18.7119
 11
56.5524
 21
18.7434
  0
LINE
  8
0
 10
56.5524
 20
18.7434
 11
56.6627
 21
18.7681
  0
LINE
  8
0
 10
56.6627
 20
18.7681
 11
56.7744
 21
18.7858
  0
LINE
  8
0
 10
56.7744
 20
18.7858
 11
56.887
 21
18.7964
  0
LINE
  8
0
 10
56.887
 20
18.7964
 11
57
 21
18.8
  0
LINE
  8
0
 10
57
 20
18.8
 11
57.113
 21
18.7964
  0
LINE
  8
0
 10
57.113
 20
18.7964
 11
57.2256
 21
18.7858
  0
LINE
  8
0
 10
57.2256
 20
18.7858
 11
57.3373
 21
18.7681
  0
LINE
  8
0
 10
57.3373
 20
18.7681
 11
57.4476
 21
18.7434
  0
LINE
  8
0
 10
57.4476
 20
18.7434
 11
57.5562
 21
18.7119
  0
LINE
  8
0
 10
57.5562
 20
18.7119
 11
57.6626
 21
18.6736
  0
LINE
  8
0
 10
57.6626
 20
18.6736
 11
57.7664
 21
18.6287
  0
LINE
  8
0
 10
57.7664
 20
18.6287
 11
57.8671
 21
18.5773
  0
LINE
  8
0
 10
57.8671
 20
18.5773
 11
57.9645
 21
18.5198
  0
LINE
  8
0
 10
57.9645
 20
18.5198
 11
58.058
 21
18.4562
  0
LINE
  8
0
 10
58.058
 20
18.4562
 11
58.1474
 21
18.3869
  0
LINE
  8
0
 10
58.1474
 20
18.3869
 11
58.2322
 21
18.3121
  0
LINE
  8
0
 10
58.2322
 20
18.3121
 11
58.3121
 21
18.2322
  0
LINE
  8
0
 10
58.3121
 20
18.2322
 11
58.3869
 21
18.1474
  0
LINE
  8
0
 10
58.3869
 20
18.1474
 11
58.4562
 21
18.058
  0
LINE
  8
0
 10
58.4562
 20
18.058
 11
58.5198
 21
17.9645
  0
LINE
  8
0
 10
58.5198
 20
17.9645
 11
58.5773
 21
17.8671
  0
LINE
  8
0
 10
58.5773
 20
17.8671
 11
58.6287
 21
17.7664
  0
LINE
  8
0
 10
58.6287
 20
17.7664
 11
58.6736
 21
17.6626
  0
LINE
  8
0
 10
58.6736
 20
17.6626
 11
58.7119
 21
17.5562
  0
LINE
  8
0
 10
58.7119
 20
17.5562
 11
58.7434
 21
17.4476
  0
LINE
  8
0
 10
58.7434
 20
17.4476
 11
58.7681
 21
17.3373
  0
LINE
  8
0
 10
58.7681
 20
17.3373
 11
58.7858
 21
17.2256
  0
LINE
  8
0
 10
58.7858
 20
17.2256
 11
58.7964
 21
17.113
  0
LINE
  8
0
 10
58.7964
 20
17.113
 11
58.8
 21
17
  0
LINE
  8
0
 10
58.8
 20
17
 11
58.7964
 21
16.887
  0
LINE
  8
0
 10
58.7964
 20
16.887
 11
58.7858
 21
16.7744
  0
LINE
  8
0
 10
58.7858
 20
16.7744
 11
58.7681
 21
16.6627
  0
LINE
  8
0
 10
58.7681
 20
16.6627
 11
58.7434
 21
16.5524
  0
LINE
  8
0
 10
58.7434
 20
16.5524
 11
58.7119
 21
16.4438
  0
LINE
  8
0
 10
58.7119
 20
16.4438
 11
58.6736
 21
16.3374
  0
LINE
  8
0
 10
58.6736
 20
16.3374
 11
58.6287
 21
16.2336
  0
LINE
  8
0
 10
58.6287
 20
16.2336
 11
58.5773
 21
16.1328
  0
LINE
  8
0
 10
58.5773
 20
16.1328
 11
58.5198
 21
16.0355
  0
LINE
  8
0
 10
58.5198
 20
16.0355
 11
58.4562
 21
15.942
  0
LINE
  8
0
 10
58.4562
 20
15.942
 11
58.3869
 21
15.8526
  0
LINE
  8
0
 10
58.3869
 20
15.8526
 11
58.3121
 21
15.7678
  0
LINE
  8
0
 10
58.3121
 20
15.7678
 11
58.2322
 21
15.6879
  0
LINE
  8
0
 10
58.2322
 20
15.6879
 11
58.1474
 21
15.6131
  0
LINE
  8
0
 10
58.1474
 20
15.6131
 11
58.058
 21
15.5438
  0
LINE
  8
0
 10
58.058
 20
15.5438
 11
57.9645
 21
15.4802
  0
LINE
  8
0
 10
57.9645
 20
15.4802
 11
57.8671
 21
15.4226
  0
LINE
  8
0
 10
57.8671
 20
15.4226
 11
57.7664
 21
15.3713
  0
LINE
  8
0
 10
57.7664
 20
15.3713
 11
57.6626
 21
15.3264
  0
LINE
  8
0
 10
57.6626
 20
15.3264
 11
57.5562
 21
15.2881
  0
LINE
  8
0
 10
57.5562
 20
15.2881
 11
57.4476
 21
15.2565
  0
LINE
  8
0
 10
57.4476
 20
15.2565
 11
57.3373
 21
15.2319
  0
LINE
  8
0
 10
57.3373
 20
15.2319
 11
57.2256
 21
15.2142
  0
LINE
  8
0
 10
57.2256
 20
15.2142
 11
57.113
 21
15.2035
  0
LINE
  8
0
 10
57.113
 20
15.2035
 11
57
 21
15.2
  0
LINE
  8
0
 10
57
 20
15.2
 11
56.887
 21
15.2035
  0
LINE
  8
0
 10
56.887
 20
-18.7964
 11
56.7744
 21
-18.7858
  0
LINE
  8
0
 10
56.7744
 20
-18.7858
 11
56.6627
 21
-18.7681
  0
LINE
  8
0
 10
56.6627
 20
-18.7681
 11
56.5524
 21
-18.7434
  0
LINE
  8
0
 10
56.5524
 20
-18.7434
 11
56.4438
 21
-18.7119
  0
LINE
  8
0
 10
56.4438
 20
-18.7119
 11
56.3374
 21
-18.6736
  0
LINE
  8
0
 10
56.3374
 20
-18.6736
 11
56.2336
 21
-18.6287
  0
LINE
  8
0
 10
56.2336
 20
-18.6287
 11
56.1328
 21
-18.5773
  0
LINE
  8
0
 10
56.1328
 20
-18.5773
 11
56.0355
 21
-18.5198
  0
LINE
  8
0
 10
56.0355
 20
-18.5198
 11
55.942
 21
-18.4562
  0
LINE
  8
0
 10
55.942
 20
-18.4562
 11
55.8526
 21
-18.3869
  0
LINE
  8
0
 10
55.8526
 20
-18.3869
 11
55.7678
 21
-18.3121
  0
LINE
  8
0
 10
55.7678
 20
-18.3121
 11
55.6879
 21
-18.2322
  0
LINE
  8
0
 10
55.6879
 20
-18.2322
 11
55.6131
 21
-18.1474
  0
LINE
  8
0
 10
55.6131
 20
-18.1474
 11
55.5438
 21
-18.058
  0
LINE
  8
0
 10
55.5438
 20
-18.058
 11
55.4802
 21
-17.9645
  0
LINE
  8
0
 10
55.4802
 20
-17.9645
 11
55.4226
 21
-17.8671
  0
LINE
  8
0
 10
55.4226
 20
-17.8671
 11
55.3713
 21
-17.7664
  0
LINE
  8
0
 10
55.3713
 20
-17.7664
 11
55.3264
 21
-17.6626
  0
LINE
  8
0
 10
55.3264
 20
-17.6626
 11
55.2881
 21
-17.5562
  0
LINE
  8
0
 10
55.2881
 20
-17.5562
 11
55.2565
 21
-17.4476
  0
LINE
  8
0
 10
55.2565
 20
-17.4476
 11
55.2319
 21
-17.3373
  0
LINE
  8
0
 10
55.2319
 20
-17.3373
 11
55.2142
 21
-17.2256
  0
LINE
  8
0
 10
55.2142
 20
-17.2256
 11
55.2035
 21
-17.113
  0
LINE
  8
0
 10
55.2035
 20
-17.113
 11
55.2
 21
-17
  0
LINE
  8
0
 10
55.2
 20
-17
 11
55.2035
 21
-16.887
  0
LINE
  8
0
 10
55.2035
 20
-16.887
 11
55.2142
 21
-16.7744
  0
LINE
  8
0
 10
55.2142
 20
-16.7744
 11
55.2319
 21
-16.6627
  0
LINE
  8
0
 10
55.2319
 20
-16.6627
 11
55.2565
 21
-16.5524
  0
LINE
  8
0
 10
55.2565
 20
-16.5524
 11
55.2881
 21
-16.4438
  0
LINE
  8
0
 10
55.2881
 20
-16.4438
 11
55.3264
 21
-16.3374
  0
LINE
  8
0
 10
55.3264
 20
-16.3374
 11
55.3713
 21
-16.2336
  0
LINE
  8
0
 10
55.3713
 20
-16.2336
 11
55.4226
 21
-16.1328
  0
LINE
  8
0
 10
55.4226
 20
-16.1328
 11
55.4802
 21
-16.0355
  0
LINE
  8
0
 10
55.4802
 20
-16.0355
 11
55.5438
 21
-15.942
  0
LINE
  8
0
 10
55.5438
 20
-15.942
 11
55.6131
 21
-15.8526
  0
LINE
  8
0
 10
55.6131
 20
-15.8526
 11
55.6879
 21
-15.7678
  0
LINE
  8
0
 10
55.6879
 20
-15.7678
 11
55.7678
 21
-15.6879
  0
LINE
  8
0
 10
55.7678
 20
-15.6879
 11
55.8526
 21
-15.6131
  0
LINE
  8
0
 10
55.8526
 20
-15.6131
 11
55.942
 21
-15.5438
  0
LINE
  8
0
 10
55.942
 20
-15.5438
 11
56.0355
 21
-15.4802
  0
LINE
  8
0
 10
56.0355
 20
-15.4802
 11
56.1328
 21
-15.4226
  0
LINE
  8
0
 10
56.1328
 20
-15.4226
 11
56.2336
 21
-15.3713
  0
LINE
  8
0
 10
56.2336
 20
-15.3713
 11
56.3374
 21
-15.3264
  0
LINE
  8
0
 10
56.3374
 20
-15.3264
 11
56.4438
 21
-15.2881
  0
LINE
  8
0
 10
56.4438
 20
-15.2881
 11
56.5524
 21
-15.2565
  0
LINE
  8
0
 10
56.5524
 20
-15.2565
 11
56.6627
 21
-15.2319
  0
LINE
  8
0
 10
56.6627
 20
-15.2319
 11
56.7744
 21
-15.2142
  0
LINE
  8
0
 10
56.7744
 20
-15.2142
 11
56.887
 21
-15.2035
  0
LINE
  8
0
 10
56.887
 20
-15.2035
 11
57
 21
-15.2
  0
LINE
  8
0
 10
57
 20
-15.2
 11
57.113
 21
-15.2035
  0
LINE
  8
0
 10
57.113
 20
-15.2035
 11
57.2256
 21
-15.2142
  0
LINE
  8
0
 10
57.2256
 20
-15.2142
 11
57.3373
 21
-15.2319
  0
LINE
  8
0
 10
57.3373
 20
-15.2319
 11
57.4476
 21
-15.2565
  0
LINE
  8
0
 10
57.4476
 20
-15.2565
 11
57.5562
 21
-15.2881
  0
LINE
  8
0
 10
57.5562
 20
-15.2881
 11
57.6626
 21
-15.3264
  0
LINE
  8
0
 10
57.6626
 20
-15.3264
 11
57.7664
 21
-15.3713
  0
LINE
  8
0
 10
57.7664
 20
-15.3713
 11
57.8671
 21
-15.4226
  0
LINE
  8
0
 10
57.8671
 20
-15.4226
 11
57.9645
 21
-15.4802
  0
LINE
  8
0
 10
57.9645
 20
-15.4802
 11
58.058
 21
-15.5438
  0
LINE
  8
0
 10
58.058
 20
-15.5438
 11
58.1474
 21
-15.6131
  0
LINE
  8
0
 10
58.1474
 20
-15.6131
 11
58.2322
 21
-15.6879
  0
LINE
  8
0
 10
58.2322
 20
-15.6879
 11
58.3121
 21
-15.7678
  0
LINE
  8
0
 10
58.3121
 20
-15.7678
 11
58.3869
 21
-15.8526
  0
LINE
  8
0
 10
58.3869
 20
-15.8526
 11
58.4562
 21
-15.942
  0
LINE
  8
0
 10
58.4562
 20
-15.942
 11
58.5198
 21
-16.0355
  0
LINE
  8
0
 10
58.5198
 20
-16.0355
 11
58.5773
 21
-16.1328
  0
LINE
  8
0
 10
58.5773
 20
-16.1328
 11
58.6287
 21
-16.2336
  0
LINE
  8
0
 10
58.6287
 20
-16.2336
 11
58.6736
 21
-16.3374
  0
LINE
  8
0
 10
58.6736
 20
-16.3374
 11
58.7119
 21
-16.4438
  0
LINE
  8
0
 10
58.7119
 20
-16.4438
 11
58.7434
 21
-16.5524
  0
LINE
  8
0
 10
58.7434
 20
-16.5524
 11
58.7681
 21
-16.6627
  0
LINE
  8
0
 10
58.7681
 20
-16.6627
 11
58.7858
 21
-16.7744
  0
LINE
  8
0
 10
58.7858
 20
-16.7744
 11
58.7964
 21
-16.887
  0
LINE
  8
0
 10
58.7964
 20
-16.887
 11
58.8
 21
-17
  0
LINE
  8
0
 10
58.8
 20
-17
 11
58.7964
 21
-17.113
  0
LINE
  8
0
 10
58.7964
 20
-17.113
 11
58.7858
 21
-17.2256
  0
LINE
  8
0
 10
58.7858
 20
-17.2256
 11
58.7681
 21
-17.3373
  0
LINE
  8
0
 10
58.7681
 20
-17.3373
 11
58.7434
 21
-17.4476
  0
LINE
  8
0
 10
58.7434
 20
-17.4476
 11
58.7119
 21
-17.5562
  0
LINE
  8
0
 10
58.7119
 20
-17.5562
 11
58.6736
 21
-17.6626
  0
LINE
  8
0
 10
58.6736
 20
-17.6626
 11
58.6287
 21
-17.7664
  0
LINE
  8
0
 10
58.6287
 20
-17.7664
 11
58.5773
 21
-17.8671
  0
LINE
  8
0
 10
58.5773
 20
-17.8671
 11
58.5198
 21
-17.9645
  0
LINE
  8
0
 10
58.5198
 20
-17.9645
 11
58.4562
 21
-18.058
  0
LINE
  8
0
 10
58.4562
 20
-18.058
 11
58.3869
 21
-18.1474
  0
LINE
  8
0
 10
58.3869
 20
-18.1474
 11
58.3121
 21
-18.2322
  0
LINE
  8
0
 10
58.3121
 20
-18.2322
 11
58.2322
 21
-18.3121
  0
LINE
  8
0
 10
58.2322
 20
-18.3121
 11
58.1474
 21
-18.3869
  0
LINE
  8
0
 10
58.1474
 20
-18.3869
 11
58.058
 21
-18.4562
  0
LINE
  8
0
 10
58.058
 20
-18.4562
 11
57.9645
 21
-18.5198
  0
LINE
  8
0
 10
57.9645
 20
-18.5198
 11
57.8671
 21
-18.5773
  0
LINE
  8
0
 10
57.8671
 20
-18.5773
 11
57.7664
 21
-18.6287
  0
LINE
  8
0
 10
57.7664
 20
-18.6287
 11
57.6626
 21
-18.6736
  0
LINE
  8
0
 10
57.6626
 20
-18.6736
 11
57.5562
 21
-18.7119
  0
LINE
  8
0
 10
57.5562
 20
-18.7119
 11
57.4476
 21
-18.7434
  0
LINE
  8
0
 10
57.4476
 20
-18.7434
 11
57.3373
 21
-18.7681
  0
LINE
  8
0
 10
57.3373
 20
-18.7681
 11
57.2256
 21
-18.7858
  0
LINE
  8
0
 10
57.2256
 20
-18.7858
 11
57.113
 21
-18.7964
  0
LINE
  8
0
 10
57.113
 20
-18.7964
 11
57
 21
-18.8
  0
LINE
  8
0
 10
57
 20
-18.8
 11
56.887
 21
-18.7964
  0
LINE
  8
0
 10
-57.113
 20
-18.7964
 11
-57.2256
 21
-18.7858
  0
LINE
  8
0
 10
-57.2256
 20
-18.7858
 11
-57.3373
 21
-18.7681
  0
LINE
  8
0
 10
-57.3373
 20
-18.7681
 11
-57.4476
 21
-18.7434
  0
LINE
  8
0
 10
-57.4476
 20
-18.7434
 11
-57.5562
 21
-18.7119
  0
LINE
  8
0
 10
-57.5562
 20
-18.7119
 11
-57.6626
 21
-18.6736
  0
LINE
  8
0
 10
-57.6626
 20
-18.6736
 11
-57.7664
 21
-18.6287
  0
LINE
  8
0
 10
-57.7664
 20
-18.6287
 11
-57.8671
 21
-18.5773
  0
LINE
  8
0
 10
-57.8671
 20
-18.5773
 11
-57.9645
 21
-18.5198
  0
LINE
  8
0
 10
-57.9645
 20
-18.5198
 11
-58.058
 21
-18.4562
  0
LINE
  8
0
 10
-58.058
 20
-18.4562
 11
-58.1474
 21
-18.3869
  0
LINE
  8
0
 10
-58.1474
 20
-18.3869
 11
-58.2322
 21
-18.3121
  0
LINE
  8
0
 10
-58.2322
 20
-18.3121
 11
-58.3121
 21
-18.2322
  0
LINE
  8
0
 10
-58.3121
 20
-18.2322
 11
-58.3869
 21
-18.1474
  0
LINE
  8
0
 10
-58.3869
 20
-18.1474
 11
-58.4562
 21
-18.058
  0
LINE
  8
0
 10
-58.4562
 20
-18.058
 11
-58.5198
 21
-17.9645
  0
LINE
  8
0
 10
-58.5198
 20
-17.9645
 11
-58.5773
 21
-17.8671
  0
LINE
  8
0
 10
-58.5773
 20
-17.8671
 11
-58.6287
 21
-17.7664
  0
LINE
  8
0
 10
-58.6287
 20
-17.7664
 11
-58.6736
 21
-17.6626
  0
LINE
  8
0
 10
-58.6736
 20
-17.6626
 11
-58.7119
 21
-17.5562
  0
LINE
  8
0
 10
-58.7119
 20
-17.5562
 11
-58.7434
 21
-17.4476
  0
LINE
  8
0
 10
-58.7434
 20
-17.4476
 11
-58.7681
 21
-17.3373
  0
LINE
  8
0
 10
-58.7681
 20
-17.3373
 11
-58.7858
 21
-17.2256
  0
LINE
  8
0
 10
-58.7858
 20
-17.2256
 11
-58.7964
 21
-17.113
  0
LINE
  8
0
 10
-58.7964
 20
-17.113
 11
-58.8
 21
-17
  0
LINE
  8
0
 10
-58.8
 20
-17
 11
-58.7964
 21
-16.887
  0
LINE
  8
0
 10
-58.7964
 20
-16.887
 11
-58.7858
 21
-16.7744
  0
LINE
  8
0
 10
-58.7858
 20
-16.7744
 11
-58.7681
 21
-16.6627
  0
LINE
  8
0
 10
-58.7681
 20
-16.6627
 11
-58.7434
 21
-16.5524
  0
LINE
  8
0
 10
-58.7434
 20
-16.5524
 11
-58.7119
 21
-16.4438
  0
LINE
  8
0
 10
-58.7119
 20
-16.4438
 11
-58.6736
 21
-16.3374
  0
LINE
  8
0
 10
-58.6736
 20
-16.3374
 11
-58.6287
 21
-16.2336
  0
LINE
  8
0
 10
-58.6287
 20
-16.2336
 11
-58.5773
 21
-16.1328
  0
LINE
  8
0
 10
-58.5773
 20
-16.1328
 11
-58.5198
 21
-16.0355
  0
LINE
  8
0
 10
-58.5198
 20
-16.0355
 11
-58.4562
 21
-15.942
  0
LINE
  8
0
 10
-58.4562
 20
-15.942
 11
-58.3869
 21
-15.8526
  0
LINE
  8
0
 10
-58.3869
 20
-15.8526
 11
-58.3121
 21
-15.7678
  0
LINE
  8
0
 10
-58.3121
 20
-15.7678
 11
-58.2322
 21
-15.6879
  0
LINE
  8
0
 10
-58.2322
 20
-15.6879
 11
-58.1474
 21
-15.6131
  0
LINE
  8
0
 10
-58.1474
 20
-15.6131
 11
-58.058
 21
-15.5438
  0
LINE
  8
0
 10
-58.058
 20
-15.5438
 11
-57.9645
 21
-15.4802
  0
LINE
  8
0
 10
-57.9645
 20
-15.4802
 11
-57.8671
 21
-15.4226
  0
LINE
  8
0
 10
-57.8671
 20
-15.4226
 11
-57.7664
 21
-15.3713
  0
LINE
  8
0
 10
-57.7664
 20
-15.3713
 11
-57.6626
 21
-15.3264
  0
LINE
  8
0
 10
-57.6626
 20
-15.3264
 11
-57.5562
 21
-15.2881
  0
LINE
  8
0
 10
-57.5562
 20
-15.2881
 11
-57.4476
 21
-15.2565
  0
LINE
  8
0
 10
-57.4476
 20
-15.2565
 11
-57.3373
 21
-15.2319
  0
LINE
  8
0
 10
-57.3373
 20
-15.2319
 11
-57.2256
 21
-15.2142
  0
LINE
  8
0
 10
-57.2256
 20
-15.2142
 11
-57.113
 21
-15.2035
  0
LINE
  8
0
 10
-57.113
 20
-15.2035
 11
-57
 21
-15.2
  0
LINE
  8
0
 10
-57
 20
-15.2
 11
-56.887
 21
-15.2035
  0
LINE
  8
0
 10
-56.887
 20
-15.2035
 11
-56.7744
 21
-15.2142
  0
LINE
  8
0
 10
-56.7744
 20
-15.2142
 11
-56.6627
 21
-15.2319
  0
LINE
  8
0
 10
-56.6627
 20
-15.2319
 11
-56.5524
 21
-15.2565
  0
LINE
  8
0
 10
-56.5524
 20
-15.2565
 11
-56.4438
 21
-15.2881
  0
LINE
  8
0
 10
-56.4438
 20
-15.2881
 11
-56.3374
 21
-15.3264
  0
LINE
  8
0
 10
-56.3374
 20
-15.3264
 11
-56.2336
 21
-15.3713
  0
LINE
  8
0
 10
-56.2336
 20
-15.3713
 11
-56.1328
 21
-15.4226
  0
LINE
  8
0
 10
-56.1328
 20
-15.4226
 11
-56.0355
 21
-15.4802
  0
LINE
  8
0
 10
-56.0355
 20
-15.4802
 11
-55.942
 21
-15.5438
  0
LINE
  8
0
 10
-55.942
 20
-15.5438
 11
-55.8526
 21
-15.6131
  0
LINE
  8
0
 10
-55.8526
 20
-15.6131
 11
-55.7678
 21
-15.6879
  0
LINE
  8
0
 10
-55.7678
 20
-15.6879
 11
-55.6879
 21
-15.7678
  0
LINE
  8
0
 10
-55.6879
 20
-15.7678
 11
-55.6131
 21
-15.8526
  0
LINE
  8
0
 10
-55.6131
 20
-15.8526
 11
-55.5438
 21
-15.942
  0
LINE
  8
0
 10
-55.5438
 20
-15.942
 11
-55.4802
 21
-16.0355
  0
LINE
  8
0
 10
-55.4802
 20
-16.0355
 11
-55.4226
 21
-16.1328
  0
LINE
  8
0
 10
-55.4226
 20
-16.1328
 11
-55.3713
 21
-16.2336
  0
LINE
  8
0
 10
-55.3713
 20
-16.2336
 11
-55.3264
 21
-16.3374
  0
LINE
  8
0
 10
-55.3264
 20
-16.3374
 11
-55.2881
 21
-16.4438
  0
LINE
  8
0
 10
-55.2881
 20
-16.4438
 11
-55.2565
 21
-16.5524
  0
LINE
  8
0
 10
-55.2565
 20
-16.5524
 11
-55.2319
 21
-16.6627
  0
LINE
  8
0
 10
-55.2319
 20
-16.6627
 11
-55.2142
 21
-16.7744
  0
LINE
  8
0
 10
-55.2142
 20
-16.7744
 11
-55.2035
 21
-16.887
  0
LINE
  8
0
 10
-55.2035
 20
-16.887
 11
-55.2
 21
-17
  0
LINE
  8
0
 10
-55.2
 20
-17
 11
-55.2035
 21
-17.113
  0
LINE
  8
0
 10
-55.2035
 20
-17.113
 11
-55.2142
 21
-17.2256
  0
LINE
  8
0
 10
-55.2142
 20
-17.2256
 11
-55.2319
 21
-17.3373
  0
LINE
  8
0
 10
-55.2319
 20
-17.3373
 11
-55.2565
 21
-17.4476
  0
LINE
  8
0
 10
-55.2565
 20
-17.4476
 11
-55.2881
 21
-17.5562
  0
LINE
  8
0
 10
-55.2881
 20
-17.5562
 11
-55.3264
 21
-17.6626
  0
LINE
  8
0
 10
-55.3264
 20
-17.6626
 11
-55.3713
 21
-17.7664
  0
LINE
  8
0
 10
-55.3713
 20
-17.7664
 11
-55.4226
 21
-17.8671
  0
LINE
  8
0
 10
-55.4226
 20
-17.8671
 11
-55.4802
 21
-17.9645
  0
LINE
  8
0
 10
-55.4802
 20
-17.9645
 11
-55.5438
 21
-18.058
  0
LINE
  8
0
 10
-55.5438
 20
-18.058
 11
-55.6131
 21
-18.1474
  0
LINE
  8
0
 10
-55.6131
 20
-18.1474
 11
-55.6879
 21
-18.2322
  0
LINE
  8
0
 10
-55.6879
 20
-18.2322
 11
-55.7678
 21
-18.3121
  0
LINE
  8
0
 10
-55.7678
 20
-18.3121
 11
-55.8526
 21
-18.3869
  0
LINE
  8
0
 10
-55.8526
 20
-18.3869
 11
-55.942
 21
-18.4562
  0
LINE
  8
0
 10
-55.942
 20
-18.4562
 11
-56.0355
 21
-18.5198
  0
LINE
  8
0
 10
-56.0355
 20
-18.5198
 11
-56.1328
 21
-18.5773
  0
LINE
  8
0
 10
-56.1328
 20
-18.5773
 11
-56.2336
 21
-18.6287
  0
LINE
  8
0
 10
-56.2336
 20
-18.6287
 11
-56.3374
 21
-18.6736
  0
LINE
  8
0
 10
-56.3374
 20
-18.6736
 11
-56.4438
 21
-18.7119
  0
LINE
  8
0
 10
-56.4438
 20
-18.7119
 11
-56.5524
 21
-18.7434
  0
LINE
  8
0
 10
-56.5524
 20
-18.7434
 11
-56.6627
 21
-18.7681
  0
LINE
  8
0
 10
-56.6627
 20
-18.7681
 11
-56.7744
 21
-18.7858
  0
LINE
  8
0
 10
-56.7744
 20
-18.7858
 11
-56.887
 21
-18.7964
  0
LINE
  8
0
 10
-56.887
 20
-18.7964
 11
-57
 21
-18.8
  0
LINE
  8
0
 10
-57
 20
-18.8
 11
-57.113
 21
-18.7964
  0
LINE
  8
0
 10
-56.7227
 20
-26.4946
 11
-56.8947
 21
-26.4783
  0
LINE
  8
0
 10
-56.8947
 20
-26.4783
 11
-57.0653
 21
-26.4513
  0
LINE
  8
0
 10
-57.0653
 20
-26.4513
 11
-57.2339
 21
-26.4136
  0
LINE
  8
0
 10
-57.2339
 20
-26.4136
 11
-57.3998
 21
-26.3654
  0
LINE
  8
0
 10
-57.3998
 20
-26.3654
 11
-57.5623
 21
-26.3069
  0
LINE
  8
0
 10
-57.5623
 20
-26.3069
 11
-57.7209
 21
-26.2383
  0
LINE
  8
0
 10
-57.7209
 20
-26.2383
 11
-57.8748
 21
-26.1598
  0
LINE
  8
0
 10
-57.8748
 20
-26.1598
 11
-58.0235
 21
-26.0719
  0
LINE
  8
0
 10
-58.0235
 20
-26.0719
 11
-58.1664
 21
-25.9748
  0
LINE
  8
0
 10
-58.1664
 20
-25.9748
 11
-58.3029
 21
-25.8689
  0
LINE
  8
0
 10
-58.3029
 20
-25.8689
 11
-58.4325
 21
-25.7547
  0
LINE
  8
0
 10
-58.4325
 20
-25.7547
 11
-58.5547
 21
-25.6325
  0
LINE
  8
0
 10
-58.5547
 20
-25.6325
 11
-58.6689
 21
-25.5029
  0
LINE
  8
0
 10
-58.6689
 20
-25.5029
 11
-58.7748
 21
-25.3664
  0
LINE
  8
0
 10
-58.7748
 20
-25.3664
 11
-58.8719
 21
-25.2235
  0
LINE
  8
0
 10
-58.8719
 20
-25.2235
 11
-58.9598
 21
-25.0748
  0
LINE
  8
0
 10
-58.9598
 20
-25.0748
 11
-59.0383
 21
-24.9209
  0
LINE
  8
0
 10
-59.0383
 20
-24.9209
 11
-59.1069
 21
-24.7623
  0
LINE
  8
0
 10
-59.1069
 20
-24.7623
 11
-59.1654
 21
-24.5998
  0
LINE
  8
0
 10
-59.1654
 20
-24.5998
 11
-59.2136
 21
-24.4339
  0
LINE
  8
0
 10
-59.2136
 20
-24.4339
 11
-59.2513
 21
-24.2653
  0
LINE
  8
0
 10
-59.2513
 20
-24.2653
 11
-59.2783
 21
-24.0947
  0
LINE
  8
0
 10
-59.2783
 20
-24.0947
 11
-59.2946
 21
-23.9227
  0
LINE
  8
0
 10
-59.2946
 20
-23.9227
 11
-59.3
 21
-23.75
  0
LINE
  8
0
 10
-59.3
 20
-23.75
 11
-59.2946
 21
-23.5773
  0
LINE
  8
0
 10
-59.2946
 20
-23.5773
 11
-59.2783
 21
-23.4053
  0
LINE
  8
0
 10
-59.2783
 20
-23.4053
 11
-59.2513
 21
-23.2347
  0
LINE
  8
0
 10
-59.2513
 20
-23.2347
 11
-59.2136
 21
-23.0661
  0
LINE
  8
0
 10
-59.2136
 20
-23.0661
 11
-59.1654
 21
-22.9002
  0
LINE
  8
0
 10
-59.1654
 20
-22.9002
 11
-59.1069
 21
-22.7377
  0
LINE
  8
0
 10
-59.1069
 20
-22.7377
 11
-59.0383
 21
-22.5791
  0
LINE
  8
0
 10
-59.0383
 20
-22.5791
 11
-58.9598
 21
-22.4252
  0
LINE
  8
0
 10
-58.9598
 20
-22.4252
 11
-58.8719
 21
-22.2765
  0
LINE
  8
0
 10
-58.8719
 20
-22.2765
 11
-58.7748
 21
-22.1336
  0
LINE
  8
0
 10
-58.7748
 20
-22.1336
 11
-58.6689
 21
-21.9971
  0
LINE
  8
0
 10
-58.6689
 20
-21.9971
 11
-58.5547
 21
-21.8675
  0
LINE
  8
0
 10
-58.5547
 20
-21.8675
 11
-58.4325
 21
-21.7453
  0
LINE
  8
0
 10
-58.4325
 20
-21.7453
 11
-58.3029
 21
-21.6311
  0
LINE
  8
0
 10
-58.3029
 20
-21.6311
 11
-58.1664
 21
-21.5252
  0
LINE
  8
0
 10
-58.1664
 20
-21.5252
 11
-58.0235
 21
-21.4281
  0
LINE
  8
0
 10
-58.0235
 20
-21.4281
 11
-57.8748
 21
-21.3401
  0
LINE
  8
0
 10
-57.8748
 20
-21.3401
 11
-57.7209
 21
-21.2617
  0
LINE
  8
0
 10
-57.7209
 20
-21.2617
 11
-57.5623
 21
-21.1931
  0
LINE
  8
0
 10
-57.5623
 20
-21.1931
 11
-57.3998
 21
-21.1346
  0
LINE
  8
0
 10
-57.3998
 20
-21.1346
 11
-57.2339
 21
-21.0864
  0
LINE
  8
0
 10
-57.2339
 20
-21.0864
 11
-57.0653
 21
-21.0487
  0
LINE
  8
0
 10
-57.0653
 20
-21.0487
 11
-56.8947
 21
-21.0217
  0
LINE
  8
0
 10
-56.8947
 20
-21.0217
 11
-56.7227
 21
-21.0054
  0
LINE
  8
0
 10
-56.7227
 20
-21.0054
 11
-56.55
 21
-21
  0
LINE
  8
0
 10
-56.55
 20
-21
 11
-56.3773
 21
-21.0054
  0
LINE
  8
0
 10
-56.3773
 20
-21.0054
 11
-56.2053
 21
-21.0217
  0
LINE
  8
0
 10
-56.2053
 20
-21.0217
 11
-56.0347
 21
-21.0487
  0
LINE
  8
0
 10
-56.0347
 20
-21.0487
 11
-55.8661
 21
-21.0864
  0
LINE
  8
0
 10
-55.8661
 20
-21.0864
 11
-55.7002
 21
-21.1346
  0
LINE
  8
0
 10
-55.7002
 20
-21.1346
 11
-55.5376
 21
-21.1931
  0
LINE
  8
0
 10
-55.5376
 20
-21.1931
 11
-55.3791
 21
-21.2617
  0
LINE
  8
0
 10
-55.3791
 20
-21.2617
 11
-55.2252
 21
-21.3401
  0
LINE
  8
0
 10
-55.2252
 20
-21.3401
 11
-55.0765
 21
-21.4281
  0
LINE
  8
0
 10
-55.0765
 20
-21.4281
 11
-54.9336
 21
-21.5252
  0
LINE
  8
0
 10
-54.9336
 20
-21.5252
 11
-54.7971
 21
-21.6311
  0
LINE
  8
0
 10
-54.7971
 20
-21.6311
 11
-54.6675
 21
-21.7453
  0
LINE
  8
0
 10
-54.6675
 20
-21.7453
 11
-54.5453
 21
-21.8675
  0
LINE
  8
0
 10
-54.5453
 20
-21.8675
 11
-54.4311
 21
-21.9971
  0
LINE
  8
0
 10
-54.4311
 20
-21.9971
 11
-54.3252
 21
-22.1336
  0
LINE
  8
0
 10
-54.3252
 20
-22.1336
 11
-54.2281
 21
-22.2765
  0
LINE
  8
0
 10
-54.2281
 20
-22.2765
 11
-54.1402
 21
-22.4252
  0
LINE
  8
0
 10
-54.1402
 20
-22.4252
 11
-54.0617
 21
-22.5791
  0
LINE
  8
0
 10
-54.0617
 20
-22.5791
 11
-53.9931
 21
-22.7377
  0
LINE
  8
0
 10
-53.9931
 20
-22.7377
 11
-53.9346
 21
-22.9002
  0
LINE
  8
0
 10
-53.9346
 20
-22.9002
 11
-53.8864
 21
-23.0661
  0
LINE
  8
0
 10
-53.8864
 20
-23.0661
 11
-53.8487
 21
-23.2347
  0
LINE
  8
0
 10
-53.8487
 20
-23.2347
 11
-53.8217
 21
-23.4053
  0
LINE
  8
0
 10
-53.8217
 20
-23.4053
 11
-53.8054
 21
-23.5773
  0
LINE
  8
0
 10
-53.8054
 20
-23.5773
 11
-53.8
 21
-23.75
  0
LINE
  8
0
 10
-53.8
 20
-23.75
 11
-53.8054
 21
-23.9227
  0
LINE
  8
0
 10
-53.8054
 20
-23.9227
 11
-53.8217
 21
-24.0947
  0
LINE
  8
0
 10
-53.8217
 20
-24.0947
 11
-53.8487
 21
-24.2653
  0
LINE
  8
0
 10
-53.8487
 20
-24.2653
 11
-53.8864
 21
-24.4339
  0
LINE
  8
0
 10
-53.8864
 20
-24.4339
 11
-53.9346
 21
-24.5998
  0
LINE
  8
0
 10
-53.9346
 20
-24.5998
 11
-53.9931
 21
-24.7623
  0
LINE
  8
0
 10
-53.9931
 20
-24.7623
 11
-54.0617
 21
-24.9209
  0
LINE
  8
0
 10
-54.0617
 20
-24.9209
 11
-54.1402
 21
-25.0748
  0
LINE
  8
0
 10
-54.1402
 20
-25.0748
 11
-54.2281
 21
-25.2235
  0
LINE
  8
0
 10
-54.2281
 20
-25.2235
 11
-54.3252
 21
-25.3664
  0
LINE
  8
0
 10
-54.3252
 20
-25.3664
 11
-54.4311
 21
-25.5029
  0
LINE
  8
0
 10
-54.4311
 20
-25.5029
 11
-54.5453
 21
-25.6325
  0
LINE
  8
0
 10
-54.5453
 20
-25.6325
 11
-54.6675
 21
-25.7547
  0
LINE
  8
0
 10
-54.6675
 20
-25.7547
 11
-54.7971
 21
-25.8689
  0
LINE
  8
0
 10
-54.7971
 20
-25.8689
 11
-54.9336
 21
-25.9748
  0
LINE
  8
0
 10
-54.9336
 20
-25.9748
 11
-55.0765
 21
-26.0719
  0
LINE
  8
0
 10
-55.0765
 20
-26.0719
 11
-55.2252
 21
-26.1598
  0
LINE
  8
0
 10
-55.2252
 20
-26.1598
 11
-55.3791
 21
-26.2383
  0
LINE
  8
0
 10
-55.3791
 20
-26.2383
 11
-55.5376
 21
-26.3069
  0
LINE
  8
0
 10
-55.5376
 20
-26.3069
 11
-55.7002
 21
-26.3654
  0
LINE
  8
0
 10
-55.7002
 20
-26.3654
 11
-55.8661
 21
-26.4136
  0
LINE
  8
0
 10
-55.8661
 20
-26.4136
 11
-56.0347
 21
-26.4513
  0
LINE
  8
0
 10
-56.0347
 20
-26.4513
 11
-56.2053
 21
-26.4783
  0
LINE
  8
0
 10
-56.2053
 20
-26.4783
 11
-56.3773
 21
-26.4946
  0
LINE
  8
0
 10
-56.3773
 20
-26.4946
 11
-56.55
 21
-26.5
  0
LINE
  8
0
 10
-56.55
 20
-26.5
 11
-56.7227
 21
-26.4946
  0
LINE
  8
0
 10
56.3773
 20
-26.4946
 11
56.2053
 21
-26.4783
  0
LINE
  8
0
 10
56.2053
 20
-26.4783
 11
56.0347
 21
-26.4513
  0
LINE
  8
0
 10
56.0347
 20
-26.4513
 11
55.8661
 21
-26.4136
  0
LINE
  8
0
 10
55.8661
 20
-26.4136
 11
55.7002
 21
-26.3654
  0
LINE
  8
0
 10
55.7002
 20
-26.3654
 11
55.5376
 21
-26.3069
  0
LINE
  8
0
 10
55.5376
 20
-26.3069
 11
55.3791
 21
-26.2383
  0
LINE
  8
0
 10
55.3791
 20
-26.2383
 11
55.2252
 21
-26.1598
  0
LINE
  8
0
 10
55.2252
 20
-26.1598
 11
55.0765
 21
-26.0719
  0
LINE
  8
0
 10
55.0765
 20
-26.0719
 11
54.9336
 21
-25.9748
  0
LINE
  8
0
 10
54.9336
 20
-25.9748
 11
54.7971
 21
-25.8689
  0
LINE
  8
0
 10
54.7971
 20
-25.8689
 11
54.6675
 21
-25.7547
  0
LINE
  8
0
 10
54.6675
 20
-25.7547
 11
54.5453
 21
-25.6325
  0
LINE
  8
0
 10
54.5453
 20
-25.6325
 11
54.4311
 21
-25.5029
  0
LINE
  8
0
 10
54.4311
 20
-25.5029
 11
54.3252
 21
-25.3664
  0
LINE
  8
0
 10
54.3252
 20
-25.3664
 11
54.2281
 21
-25.2235
  0
LINE
  8
0
 10
54.2281
 20
-25.2235
 11
54.1402
 21
-25.0748
  0
LINE
  8
0
 10
54.1402
 20
-25.0748
 11
54.0617
 21
-24.9209
  0
LINE
  8
0
 10
54.0617
 20
-24.9209
 11
53.9931
 21
-24.7623
  0
LINE
  8
0
 10
53.9931
 20
-24.7623
 11
53.9346
 21
-24.5998
  0
LINE
  8
0
 10
53.9346
 20
-24.5998
 11
53.8864
 21
-24.4339
  0
LINE
  8
0
 10
53.8864
 20
-24.4339
 11
53.8487
 21
-24.2653
  0
LINE
  8
0
 10
53.8487
 20
-24.2653
 11
53.8217
 21
-24.0947
  0
LINE
  8
0
 10
53.8217
 20
-24.0947
 11
53.8054
 21
-23.9227
  0
LINE
  8
0
 10
53.8054
 20
-23.9227
 11
53.8
 21
-23.75
  0
LINE
  8
0
 10
53.8
 20
-23.75
 11
53.8054
 21
-23.5773
  0
LINE
  8
0
 10
53.8054
 20
-23.5773
 11
53.8217
 21
-23.4053
  0
LINE
  8
0
 10
53.8217
 20
-23.4053
 11
53.8487
 21
-23.2347
  0
LINE
  8
0
 10
53.8487
 20
-23.2347
 11
53.8864
 21
-23.0661
  0
LINE
  8
0
 10
53.8864
 20
-23.0661
 11
53.9346
 21
-22.9002
  0
LINE
  8
0
 10
53.9346
 20
-22.9002
 11
53.9931
 21
-22.7377
  0
LINE
  8
0
 10
53.9931
 20
-22.7377
 11
54.0617
 21
-22.5791
  0
LINE
  8
0
 10
54.0617
 20
-22.5791
 11
54.1402
 21
-22.4252
  0
LINE
  8
0
 10
54.1402
 20
-22.4252
 11
54.2281
 21
-22.2765
  0
LINE
  8
0
 10
54.2281
 20
-22.2765
 11
54.3252
 21
-22.1336
  0
LINE
  8
0
 10
54.3252
 20
-22.1336
 11
54.4311
 21
-21.9971
  0
LINE
  8
0
 10
54.4311
 20
-21.9971
 11
54.5453
 21
-21.8675
  0
LINE
  8
0
 10
54.5453
 20
-21.8675
 11
54.6675
 21
-21.7453
  0
LINE
  8
0
 10
54.6675
 20
-21.7453
 11
54.7971
 21
-21.6311
  0
LINE
  8
0
 10
54.7971
 20
-21.6311
 11
54.9336
 21
-21.5252
  0
LINE
  8
0
 10
54.9336
 20
-21.5252
 11
55.0765
 21
-21.4281
  0
LINE
  8
0
 10
55.0765
 20
-21.4281
 11
55.2252
 21
-21.3401
  0
LINE
  8
0
 10
55.2252
 20
-21.3401
 11
55.3791
 21
-21.2617
  0
LINE
  8
0
 10
55.3791
 20
-21.2617
 11
55.5376
 21
-21.1931
  0
LINE
  8
0
 10
55.5376
 20
-21.1931
 11
55.7002
 21
-21.1346
  0
LINE
  8
0
 10
55.7002
 20
-21.1346
 11
55.8661
 21
-21.0864
  0
LINE
  8
0
 10
55.8661
 20
-21.0864
 11
56.0347
 21
-21.0487
  0
LINE
  8
0
 10
56.0347
 20
-21.0487
 11
56.2053
 21
-21.0217
  0
LINE
  8
0
 10
56.2053
 20
-21.0217
 11
56.3773
 21
-21.0054
  0
LINE
  8
0
 10
56.3773
 20
-21.0054
 11
56.55
 21
-21
  0
LINE
  8
0
 10
56.55
 20
-21
 11
56.7227
 21
-21.0054
  0
LINE
  8
0
 10
56.7227
 20
-21.0054
 11
56.8947
 21
-21.0217
  0
LINE
  8
0
 10
56.8947
 20
-21.0217
 11
57.0653
 21
-21.0487
  0
LINE
  8
0
 10
57.0653
 20
-21.0487
 11
57.2339
 21
-21.0864
  0
LINE
  8
0
 10
57.2339
 20
-21.0864
 11
57.3998
 21
-21.1346
  0
LINE
  8
0
 10
57.3998
 20
-21.1346
 11
57.5623
 21
-21.1931
  0
LINE
  8
0
 10
57.5623
 20
-21.1931
 11
57.7209
 21
-21.2617
  0
LINE
  8
0
 10
57.7209
 20
-21.2617
 11
57.8748
 21
-21.3401
  0
LINE
  8
0
 10
57.8748
 20
-21.3401
 11
58.0235
 21
-21.4281
  0
LINE
  8
0
 10
58.0235
 20
-21.4281
 11
58.1664
 21
-21.5252
  0
LINE
  8
0
 10
58.1664
 20
-21.5252
 11
58.3029
 21
-21.6311
  0
LINE
  8
0
 10
58.3029
 20
-21.6311
 11
58.4325
 21
-21.7453
  0
LINE
  8
0
 10
58.4325
 20
-21.7453
 11
58.5547
 21
-21.8675
  0
LINE
  8
0
 10
58.5547
 20
-21.8675
 11
58.6689
 21
-21.9971
  0
LINE
  8
0
 10
58.6689
 20
-21.9971
 11
58.7748
 21
-22.1336
  0
LINE
  8
0
 10
58.7748
 20
-22.1336
 11
58.8719
 21
-22.2765
  0
LINE
  8
0
 10
58.8719
 20
-22.2765
 11
58.9598
 21
-22.4252
  0
LINE
  8
0
 10
58.9598
 20
-22.4252
 11
59.0383
 21
-22.5791
  0
LINE
  8
0
 10
59.0383
 20
-22.5791
 11
59.1069
 21
-22.7377
  0
LINE
  8
0
 10
59.1069
 20
-22.7377
 11
59.1654
 21
-22.9002
  0
LINE
  8
0
 10
59.1654
 20
-22.9002
 11
59.2136
 21
-23.0661
  0
LINE
  8
0
 10
59.2136
 20
-23.0661
 11
59.2513
 21
-23.2347
  0
LINE
  8
0
 10
59.2513
 20
-23.2347
 11
59.2783
 21
-23.4053
  0
LINE
  8
0
 10
59.2783
 20
-23.4053
 11
59.2946
 21
-23.5773
  0
LINE
  8
0
 10
59.2946
 20
-23.5773
 11
59.3
 21
-23.75
  0
LINE
  8
0
 10
59.3
 20
-23.75
 11
59.2946
 21
-23.9227
  0
LINE
  8
0
 10
59.2946
 20
-23.9227
 11
59.2783
 21
-24.0947
  0
LINE
  8
0
 10
59.2783
 20
-24.0947
 11
59.2513
 21
-24.2653
  0
LINE
  8
0
 10
59.2513
 20
-24.2653
 11
59.2136
 21
-24.4339
  0
LINE
  8
0
 10
59.2136
 20
-24.4339
 11
59.1654
 21
-24.5998
  0
LINE
  8
0
 10
59.1654
 20
-24.5998
 11
59.1069
 21
-24.7623
  0
LINE
  8
0
 10
59.1069
 20
-24.7623
 11
59.0383
 21
-24.9209
  0
LINE
  8
0
 10
59.0383
 20
-24.9209
 11
58.9598
 21
-25.0748
  0
LINE
  8
0
 10
58.9598
 20
-25.0748
 11
58.8719
 21
-25.2235
  0
LINE
  8
0
 10
58.8719
 20
-25.2235
 11
58.7748
 21
-25.3664
  0
LINE
  8
0
 10
58.7748
 20
-25.3664
 11
58.6689
 21
-25.5029
  0
LINE
  8
0
 10
58.6689
 20
-25.5029
 11
58.5547
 21
-25.6325
  0
LINE
  8
0
 10
58.5547
 20
-25.6325
 11
58.4325
 21
-25.7547
  0
LINE
  8
0
 10
58.4325
 20
-25.7547
 11
58.3029
 21
-25.8689
  0
LINE
  8
0
 10
58.3029
 20
-25.8689
 11
58.1664
 21
-25.9748
  0
LINE
  8
0
 10
58.1664
 20
-25.9748
 11
58.0235
 21
-26.0719
  0
LINE
  8
0
 10
58.0235
 20
-26.0719
 11
57.8748
 21
-26.1598
  0
LINE
  8
0
 10
57.8748
 20
-26.1598
 11
57.7209
 21
-26.2383
  0
LINE
  8
0
 10
57.7209
 20
-26.2383
 11
57.5623
 21
-26.3069
  0
LINE
  8
0
 10
57.5623
 20
-26.3069
 11
57.3998
 21
-26.3654
  0
LINE
  8
0
 10
57.3998
 20
-26.3654
 11
57.2339
 21
-26.4136
  0
LINE
  8
0
 10
57.2339
 20
-26.4136
 11
57.0653
 21
-26.4513
  0
LINE
  8
0
 10
57.0653
 20
-26.4513
 11
56.8947
 21
-26.4783
  0
LINE
  8
0
 10
56.8947
 20
-26.4783
 11
56.7227
 21
-26.4946
  0
LINE
  8
0
 10
56.7227
 20
-26.4946
 11
56.55
 21
-26.5
  0
LINE
  8
0
 10
56.55
 20
-26.5
 11
56.3773
 21
-26.4946
  0
LINE
  8
0
 10
-28.613
 20
-47.7964
 11
-28.7256
 21
-47.7858
  0
LINE
  8
0
 10
-28.7256
 20
-47.7858
 11
-28.8373
 21
-47.7681
  0
LINE
  8
0
 10
-28.8373
 20
-47.7681
 11
-28.9476
 21
-47.7434
  0
LINE
  8
0
 10
-28.9476
 20
-47.7434
 11
-29.0562
 21
-47.7119
  0
LINE
  8
0
 10
-29.0562
 20
-47.7119
 11
-29.1626
 21
-47.6736
  0
LINE
  8
0
 10
-29.1626
 20
-47.6736
 11
-29.2664
 21
-47.6287
  0
LINE
  8
0
 10
-29.2664
 20
-47.6287
 11
-29.3671
 21
-47.5773
  0
LINE
  8
0
 10
-29.3671
 20
-47.5773
 11
-29.4645
 21
-47.5198
  0
LINE
  8
0
 10
-29.4645
 20
-47.5198
 11
-29.558
 21
-47.4562
  0
LINE
  8
0
 10
-29.558
 20
-47.4562
 11
-29.6474
 21
-47.3869
  0
LINE
  8
0
 10
-29.6474
 20
-47.3869
 11
-29.7322
 21
-47.3121
  0
LINE
  8
0
 10
-29.7322
 20
-47.3121
 11
-29.8121
 21
-47.2322
  0
LINE
  8
0
 10
-29.8121
 20
-47.2322
 11
-29.8869
 21
-47.1474
  0
LINE
  8
0
 10
-29.8869
 20
-47.1474
 11
-29.9562
 21
-47.058
  0
LINE
  8
0
 10
-29.9562
 20
-47.058
 11
-30.0198
 21
-46.9645
  0
LINE
  8
0
 10
-30.0198
 20
-46.9645
 11
-30.0773
 21
-46.8671
  0
LINE
  8
0
 10
-30.0773
 20
-46.8671
 11
-30.1287
 21
-46.7664
  0
LINE
  8
0
 10
-30.1287
 20
-46.7664
 11
-30.1736
 21
-46.6626
  0
LINE
  8
0
 10
-30.1736
 20
-46.6626
 11
-30.2119
 21
-46.5562
  0
LINE
  8
0
 10
-30.2119
 20
-46.5562
 11
-30.2434
 21
-46.4476
  0
LINE
  8
0
 10
-30.2434
 20
-46.4476
 11
-30.2681
 21
-46.3373
  0
LINE
  8
0
 10
-30.2681
 20
-46.3373
 11
-30.2858
 21
-46.2256
  0
LINE
  8
0
 10
-30.2858
 20
-46.2256
 11
-30.2964
 21
-46.113
  0
LINE
  8
0
 10
-30.2964
 20
-46.113
 11
-30.3
 21
-46
  0
LINE
  8
0
 10
-30.3
 20
-46
 11
-30.2964
 21
-45.887
  0
LINE
  8
0
 10
-30.2964
 20
-45.887
 11
-30.2858
 21
-45.7744
  0
LINE
  8
0
 10
-30.2858
 20
-45.7744
 11
-30.2681
 21
-45.6627
  0
LINE
  8
0
 10
-30.2681
 20
-45.6627
 11
-30.2434
 21
-45.5524
  0
LINE
  8
0
 10
-30.2434
 20
-45.5524
 11
-30.2119
 21
-45.4438
  0
LINE
  8
0
 10
-30.2119
 20
-45.4438
 11
-30.1736
 21
-45.3374
  0
LINE
  8
0
 10
-30.1736
 20
-45.3374
 11
-30.1287
 21
-45.2336
  0
LINE
  8
0
 10
-30.1287
 20
-45.2336
 11
-30.0773
 21
-45.1328
  0
LINE
  8
0
 10
-30.0773
 20
-45.1328
 11
-30.0198
 21
-45.0355
  0
LINE
  8
0
 10
-30.0198
 20
-45.0355
 11
-29.9562
 21
-44.942
  0
LINE
  8
0
 10
-29.9562
 20
-44.942
 11
-29.8869
 21
-44.8526
  0
LINE
  8
0
 10
-29.8869
 20
-44.8526
 11
-29.8121
 21
-44.7678
  0
LINE
  8
0
 10
-29.8121
 20
-44.7678
 11
-29.7322
 21
-44.6879
  0
LINE
  8
0
 10
-29.7322
 20
-44.6879
 11
-29.6474
 21
-44.6131
  0
LINE
  8
0
 10
-29.6474
 20
-44.6131
 11
-29.558
 21
-44.5438
  0
LINE
  8
0
 10
-29.558
 20
-44.5438
 11
-29.4645
 21
-44.4802
  0
LINE
  8
0
 10
-29.4645
 20
-44.4802
 11
-29.3671
 21
-44.4226
  0
LINE
  8
0
 10
-29.3671
 20
-44.4226
 11
-29.2664
 21
-44.3713
  0
LINE
  8
0
 10
-29.2664
 20
-44.3713
 11
-29.1626
 21
-44.3264
  0
LINE
  8
0
 10
-29.1626
 20
-44.3264
 11
-29.0562
 21
-44.2881
  0
LINE
  8
0
 10
-29.0562
 20
-44.2881
 11
-28.9476
 21
-44.2565
  0
LINE
  8
0
 10
-28.9476
 20
-44.2565
 11
-28.8373
 21
-44.2319
  0
LINE
  8
0
 10
-28.8373
 20
-44.2319
 11
-28.7256
 21
-44.2142
  0
LINE
  8
0
 10
-28.7256
 20
-44.2142
 11
-28.613
 21
-44.2035
  0
LINE
  8
0
 10
-28.613
 20
-44.2035
 11
-28.5
 21
-44.2
  0
LINE
  8
0
 10
-28.5
 20
-44.2
 11
-28.387
 21
-44.2035
  0
LINE
  8
0
 10
-28.387
 20
-44.2035
 11
-28.2744
 21
-44.2142
  0
LINE
  8
0
 10
-28.2744
 20
-44.2142
 11
-28.1627
 21
-44.2319
  0
LINE
  8
0
 10
-28.1627
 20
-44.2319
 11
-28.0524
 21
-44.2565
  0
LINE
  8
0
 10
-28.0524
 20
-44.2565
 11
-27.9438
 21
-44.2881
  0
LINE
  8
0
 10
-27.9438
 20
-44.2881
 11
-27.8374
 21
-44.3264
  0
LINE
  8
0
 10
-27.8374
 20
-44.3264
 11
-27.7336
 21
-44.3713
  0
LINE
  8
0
 10
-27.7336
 20
-44.3713
 11
-27.6328
 21
-44.4226
  0
LINE
  8
0
 10
-27.6328
 20
-44.4226
 11
-27.5355
 21
-44.4802
  0
LINE
  8
0
 10
-27.5355
 20
-44.4802
 11
-27.442
 21
-44.5438
  0
LINE
  8
0
 10
-27.442
 20
-44.5438
 11
-27.3526
 21
-44.6131
  0
LINE
  8
0
 10
-27.3526
 20
-44.6131
 11
-27.2678
 21
-44.6879
  0
LINE
  8
0
 10
-27.2678
 20
-44.6879
 11
-27.1879
 21
-44.7678
  0
LINE
  8
0
 10
-27.1879
 20
-44.7678
 11
-27.1131
 21
-44.8526
  0
LINE
  8
0
 10
-27.1131
 20
-44.8526
 11
-27.0438
 21
-44.942
  0
LINE
  8
0
 10
-27.0438
 20
-44.942
 11
-26.9802
 21
-45.0355
  0
LINE
  8
0
 10
-26.9802
 20
-45.0355
 11
-26.9226
 21
-45.1328
  0
LINE
  8
0
 10
-26.9226
 20
-45.1328
 11
-26.8713
 21
-45.2336
  0
LINE
  8
0
 10
-26.8713
 20
-45.2336
 11
-26.8264
 21
-45.3374
  0
LINE
  8
0
 10
-26.8264
 20
-45.3374
 11
-26.7881
 21
-45.4438
  0
LINE
  8
0
 10
-26.7881
 20
-45.4438
 11
-26.7565
 21
-45.5524
  0
LINE
  8
0
 10
-26.7565
 20
-45.5524
 11
-26.7319
 21
-45.6627
  0
LINE
  8
0
 10
-26.7319
 20
-45.6627
 11
-26.7142
 21
-45.7744
  0
LINE
  8
0
 10
-26.7142
 20
-45.7744
 11
-26.7035
 21
-45.887
  0
LINE
  8
0
 10
-26.7035
 20
-45.887
 11
-26.7
 21
-46
  0
LINE
  8
0
 10
-26.7
 20
-46
 11
-26.7035
 21
-46.113
  0
LINE
  8
0
 10
-26.7035
 20
-46.113
 11
-26.7142
 21
-46.2256
  0
LINE
  8
0
 10
-26.7142
 20
-46.2256
 11
-26.7319
 21
-46.3373
  0
LINE
  8
0
 10
-26.7319
 20
-46.3373
 11
-26.7565
 21
-46.4476
  0
LINE
  8
0
 10
-26.7565
 20
-46.4476
 11
-26.7881
 21
-46.5562
  0
LINE
  8
0
 10
-26.7881
 20
-46.5562
 11
-26.8264
 21
-46.6626
  0
LINE
  8
0
 10
-26.8264
 20
-46.6626
 11
-26.8713
 21
-46.7664
  0
LINE
  8
0
 10
-26.8713
 20
-46.7664
 11
-26.9226
 21
-46.8671
  0
LINE
  8
0
 10
-26.9226
 20
-46.8671
 11
-26.9802
 21
-46.9645
  0
LINE
  8
0
 10
-26.9802
 20
-46.9645
 11
-27.0438
 21
-47.058
  0
LINE
  8
0
 10
-27.0438
 20
-47.058
 11
-27.1131
 21
-47.1474
  0
LINE
  8
0
 10
-27.1131
 20
-47.1474
 11
-27.1879
 21
-47.2322
  0
LINE
  8
0
 10
-27.1879
 20
-47.2322
 11
-27.2678
 21
-47.3121
  0
LINE
  8
0
 10
-27.2678
 20
-47.3121
 11
-27.3526
 21
-47.3869
  0
LINE
  8
0
 10
-27.3526
 20
-47.3869
 11
-27.442
 21
-47.4562
  0
LINE
  8
0
 10
-27.442
 20
-47.4562
 11
-27.5355
 21
-47.5198
  0
LINE
  8
0
 10
-27.5355
 20
-47.5198
 11
-27.6328
 21
-47.5773
  0
LINE
  8
0
 10
-27.6328
 20
-47.5773
 11
-27.7336
 21
-47.6287
  0
LINE
  8
0
 10
-27.7336
 20
-47.6287
 11
-27.8374
 21
-47.6736
  0
LINE
  8
0
 10
-27.8374
 20
-47.6736
 11
-27.9438
 21
-47.7119
  0
LINE
  8
0
 10
-27.9438
 20
-47.7119
 11
-28.0524
 21
-47.7434
  0
LINE
  8
0
 10
-28.0524
 20
-47.7434
 11
-28.1627
 21
-47.7681
  0
LINE
  8
0
 10
-28.1627
 20
-47.7681
 11
-28.2744
 21
-47.7858
  0
LINE
  8
0
 10
-28.2744
 20
-47.7858
 11
-28.387
 21
-47.7964
  0
LINE
  8
0
 10
-28.387
 20
-47.7964
 11
-28.5
 21
-47.8
  0
LINE
  8
0
 10
-28.5
 20
-47.8
 11
-28.613
 21
-47.7964
  0
LINE
  8
0
 10
56.887
 20
-47.7964
 11
56.7744
 21
-47.7858
  0
LINE
  8
0
 10
56.7744
 20
-47.7858
 11
56.6627
 21
-47.7681
  0
LINE
  8
0
 10
56.6627
 20
-47.7681
 11
56.5524
 21
-47.7434
  0
LINE
  8
0
 10
56.5524
 20
-47.7434
 11
56.4438
 21
-47.7119
  0
LINE
  8
0
 10
56.4438
 20
-47.7119
 11
56.3374
 21
-47.6736
  0
LINE
  8
0
 10
56.3374
 20
-47.6736
 11
56.2336
 21
-47.6287
  0
LINE
  8
0
 10
56.2336
 20
-47.6287
 11
56.1328
 21
-47.5773
  0
LINE
  8
0
 10
56.1328
 20
-47.5773
 11
56.0355
 21
-47.5198
  0
LINE
  8
0
 10
56.0355
 20
-47.5198
 11
55.942
 21
-47.4562
  0
LINE
  8
0
 10
55.942
 20
-47.4562
 11
55.8526
 21
-47.3869
  0
LINE
  8
0
 10
55.8526
 20
-47.3869
 11
55.7678
 21
-47.3121
  0
LINE
  8
0
 10
55.7678
 20
-47.3121
 11
55.6879
 21
-47.2322
  0
LINE
  8
0
 10
55.6879
 20
-47.2322
 11
55.6131
 21
-47.1474
  0
LINE
  8
0
 10
55.6131
 20
-47.1474
 11
55.5438
 21
-47.058
  0
LINE
  8
0
 10
55.5438
 20
-47.058
 11
55.4802
 21
-46.9645
  0
LINE
  8
0
 10
55.4802
 20
-46.9645
 11
55.4226
 21
-46.8671
  0
LINE
  8
0
 10
55.4226
 20
-46.8671
 11
55.3713
 21
-46.7664
  0
LINE
  8
0
 10
55.3713
 20
-46.7664
 11
55.3264
 21
-46.6626
  0
LINE
  8
0
 10
55.3264
 20
-46.6626
 11
55.2881
 21
-46.5562
  0
LINE
  8
0
 10
55.2881
 20
-46.5562
 11
55.2565
 21
-46.4476
  0
LINE
  8
0
 10
55.2565
 20
-46.4476
 11
55.2319
 21
-46.3373
  0
LINE
  8
0
 10
55.2319
 20
-46.3373
 11
55.2142
 21
-46.2256
  0
LINE
  8
0
 10
55.2142
 20
-46.2256
 11
55.2035
 21
-46.113
  0
LINE
  8
0
 10
55.2035
 20
-46.113
 11
55.2
 21
-46
  0
LINE
  8
0
 10
55.2
 20
-46
 11
55.2035
 21
-45.887
  0
LINE
  8
0
 10
55.2035
 20
-45.887
 11
55.2142
 21
-45.7744
  0
LINE
  8
0
 10
55.2142
 20
-45.7744
 11
55.2319
 21
-45.6627
  0
LINE
  8
0
 10
55.2319
 20
-45.6627
 11
55.2565
 21
-45.5524
  0
LINE
  8
0
 10
55.2565
 20
-45.5524
 11
55.2881
 21
-45.4438
  0
LINE
  8
0
 10
55.2881
 20
-45.4438
 11
55.3264
 21
-45.3374
  0
LINE
  8
0
 10
55.3264
 20
-45.3374
 11
55.3713
 21
-45.2336
  0
LINE
  8
0
 10
55.3713
 20
-45.2336
 11
55.4226
 21
-45.1328
  0
LINE
  8
0
 10
55.4226
 20
-45.1328
 11
55.4802
 21
-45.0355
  0
LINE
  8
0
 10
55.4802
 20
-45.0355
 11
55.5438
 21
-44.942
  0
LINE
  8
0
 10
55.5438
 20
-44.942
 11
55.6131
 21
-44.8526
  0
LINE
  8
0
 10
55.6131
 20
-44.8526
 11
55.6879
 21
-44.7678
  0
LINE
  8
0
 10
55.6879
 20
-44.7678
 11
55.7678
 21
-44.6879
  0
LINE
  8
0
 10
55.7678
 20
-44.6879
 11
55.8526
 21
-44.6131
  0
LINE
  8
0
 10
55.8526
 20
-44.6131
 11
55.942
 21
-44.5438
  0
LINE
  8
0
 10
55.942
 20
-44.5438
 11
56.0355
 21
-44.4802
  0
LINE
  8
0
 10
56.0355
 20
-44.4802
 11
56.1328
 21
-44.4226
  0
LINE
  8
0
 10
56.1328
 20
-44.4226
 11
56.2336
 21
-44.3713
  0
LINE
  8
0
 10
56.2336
 20
-44.3713
 11
56.3374
 21
-44.3264
  0
LINE
  8
0
 10
56.3374
 20
-44.3264
 11
56.4438
 21
-44.2881
  0
LINE
  8
0
 10
56.4438
 20
-44.2881
 11
56.5524
 21
-44.2565
  0
LINE
  8
0
 10
56.5524
 20
-44.2565
 11
56.6627
 21
-44.2319
  0
LINE
  8
0
 10
56.6627
 20
-44.2319
 11
56.7744
 21
-44.2142
  0
LINE
  8
0
 10
56.7744
 20
-44.2142
 11
56.887
 21
-44.2035
  0
LINE
  8
0
 10
56.887
 20
-44.2035
 11
57
 21
-44.2
  0
LINE
  8
0
 10
57
 20
-44.2
 11
57.113
 21
-44.2035
  0
LINE
  8
0
 10
57.113
 20
-44.2035
 11
57.2256
 21
-44.2142
  0
LINE
  8
0
 10
57.2256
 20
-44.2142
 11
57.3373
 21
-44.2319
  0
LINE
  8
0
 10
57.3373
 20
-44.2319
 11
57.4476
 21
-44.2565
  0
LINE
  8
0
 10
57.4476
 20
-44.2565
 11
57.5562
 21
-44.2881
  0
LINE
  8
0
 10
57.5562
 20
-44.2881
 11
57.6626
 21
-44.3264
  0
LINE
  8
0
 10
57.6626
 20
-44.3264
 11
57.7664
 21
-44.3713
  0
LINE
  8
0
 10
57.7664
 20
-44.3713
 11
57.8671
 21
-44.4226
  0
LINE
  8
0
 10
57.8671
 20
-44.4226
 11
57.9645
 21
-44.4802
  0
LINE
  8
0
 10
57.9645
 20
-44.4802
 11
58.058
 21
-44.5438
  0
LINE
  8
0
 10
58.058
 20
-44.5438
 11
58.1474
 21
-44.6131
  0
LINE
  8
0
 10
58.1474
 20
-44.6131
 11
58.2322
 21
-44.6879
  0
LINE
  8
0
 10
58.2322
 20
-44.6879
 11
58.3121
 21
-44.7678
  0
LINE
  8
0
 10
58.3121
 20
-44.7678
 11
58.3869
 21
-44.8526
  0
LINE
  8
0
 10
58.3869
 20
-44.8526
 11
58.4562
 21
-44.942
  0
LINE
  8
0
 10
58.4562
 20
-44.942
 11
58.5198
 21
-45.0355
  0
LINE
  8
0
 10
58.5198
 20
-45.0355
 11
58.5773
 21
-45.1328
  0
LINE
  8
0
 10
58.5773
 20
-45.1328
 11
58.6287
 21
-45.2336
  0
LINE
  8
0
 10
58.6287
 20
-45.2336
 11
58.6736
 21
-45.3374
  0
LINE
  8
0
 10
58.6736
 20
-45.3374
 11
58.7119
 21
-45.4438
  0
LINE
  8
0
 10
58.7119
 20
-45.4438
 11
58.7434
 21
-45.5524
  0
LINE
  8
0
 10
58.7434
 20
-45.5524
 11
58.7681
 21
-45.6627
  0
LINE
  8
0
 10
58.7681
 20
-45.6627
 11
58.7858
 21
-45.7744
  0
LINE
  8
0
 10
58.7858
 20
-45.7744
 11
58.7964
 21
-45.887
  0
LINE
  8
0
 10
58.7964
 20
-45.887
 11
58.8
 21
-46
  0
LINE
  8
0
 10
58.8
 20
-46
 11
58.7964
 21
-46.113
  0
LINE
  8
0
 10
58.7964
 20
-46.113
 11
58.7858
 21
-46.2256
  0
LINE
  8
0
 10
58.7858
 20
-46.2256
 11
58.7681
 21
-46.3373
  0
LINE
  8
0
 10
58.7681
 20
-46.3373
 11
58.7434
 21
-46.4476
  0
LINE
  8
0
 10
58.7434
 20
-46.4476
 11
58.7119
 21
-46.5562
  0
LINE
  8
0
 10
58.7119
 20
-46.5562
 11
58.6736
 21
-46.6626
  0
LINE
  8
0
 10
58.6736
 20
-46.6626
 11
58.6287
 21
-46.7664
  0
LINE
  8
0
 10
58.6287
 20
-46.7664
 11
58.5773
 21
-46.8671
  0
LINE
  8
0
 10
58.5773
 20
-46.8671
 11
58.5198
 21
-46.9645
  0
LINE
  8
0
 10
58.5198
 20
-46.9645
 11
58.4562
 21
-47.058
  0
LINE
  8
0
 10
58.4562
 20
-47.058
 11
58.3869
 21
-47.1474
  0
LINE
  8
0
 10
58.3869
 20
-47.1474
 11
58.3121
 21
-47.2322
  0
LINE
  8
0
 10
58.3121
 20
-47.2322
 11
58.2322
 21
-47.3121
  0
LINE
  8
0
 10
58.2322
 20
-47.3121
 11
58.1474
 21
-47.3869
  0
LINE
  8
0
 10
58.1474
 20
-47.3869
 11
58.058
 21
-47.4562
  0
LINE
  8
0
 10
58.058
 20
-47.4562
 11
57.9645
 21
-47.5198
  0
LINE
  8
0
 10
57.9645
 20
-47.5198
 11
57.8671
 21
-47.5773
  0
LINE
  8
0
 10
57.8671
 20
-47.5773
 11
57.7664
 21
-47.6287
  0
LINE
  8
0
 10
57.7664
 20
-47.6287
 11
57.6626
 21
-47.6736
  0
LINE
  8
0
 10
57.6626
 20
-47.6736
 11
57.5562
 21
-47.7119
  0
LINE
  8
0
 10
57.5562
 20
-47.7119
 11
57.4476
 21
-47.7434
  0
LINE
  8
0
 10
57.4476
 20
-47.7434
 11
57.3373
 21
-47.7681
  0
LINE
  8
0
 10
57.3373
 20
-47.7681
 11
57.2256
 21
-47.7858
  0
LINE
  8
0
 10
57.2256
 20
-47.7858
 11
57.113
 21
-47.7964
  0
LINE
  8
0
 10
57.113
 20
-47.7964
 11
57
 21
-47.8
  0
LINE
  8
0
 10
57
 20
-47.8
 11
56.887
 21
-47.7964
  0
LINE
  8
0
 10
28.387
 20
-47.7964
 11
28.2744
 21
-47.7858
  0
LINE
  8
0
 10
28.2744
 20
-47.7858
 11
28.1627
 21
-47.7681
  0
LINE
  8
0
 10
28.1627
 20
-47.7681
 11
28.0524
 21
-47.7434
  0
LINE
  8
0
 10
28.0524
 20
-47.7434
 11
27.9438
 21
-47.7119
  0
LINE
  8
0
 10
27.9438
 20
-47.7119
 11
27.8374
 21
-47.6736
  0
LINE
  8
0
 10
27.8374
 20
-47.6736
 11
27.7336
 21
-47.6287
  0
LINE
  8
0
 10
27.7336
 20
-47.6287
 11
27.6328
 21
-47.5773
  0
LINE
  8
0
 10
27.6328
 20
-47.5773
 11
27.5355
 21
-47.5198
  0
LINE
  8
0
 10
27.5355
 20
-47.5198
 11
27.442
 21
-47.4562
  0
LINE
  8
0
 10
27.442
 20
-47.4562
 11
27.3526
 21
-47.3869
  0
LINE
  8
0
 10
27.3526
 20
-47.3869
 11
27.2678
 21
-47.3121
  0
LINE
  8
0
 10
27.2678
 20
-47.3121
 11
27.1879
 21
-47.2322
  0
LINE
  8
0
 10
27.1879
 20
-47.2322
 11
27.1131
 21
-47.1474
  0
LINE
  8
0
 10
27.1131
 20
-47.1474
 11
27.0438
 21
-47.058
  0
LINE
  8
0
 10
27.0438
 20
-47.058
 11
26.9802
 21
-46.9645
  0
LINE
  8
0
 10
26.9802
 20
-46.9645
 11
26.9226
 21
-46.8671
  0
LINE
  8
0
 10
26.9226
 20
-46.8671
 11
26.8713
 21
-46.7664
  0
LINE
  8
0
 10
26.8713
 20
-46.7664
 11
26.8264
 21
-46.6626
  0
LINE
  8
0
 10
26.8264
 20
-46.6626
 11
26.7881
 21
-46.5562
  0
LINE
  8
0
 10
26.7881
 20
-46.5562
 11
26.7565
 21
-46.4476
  0
LINE
  8
0
 10
26.7565
 20
-46.4476
 11
26.7319
 21
-46.3373
  0
LINE
  8
0
 10
26.7319
 20
-46.3373
 11
26.7142
 21
-46.2256
  0
LINE
  8
0
 10
26.7142
 20
-46.2256
 11
26.7035
 21
-46.113
  0
LINE
  8
0
 10
26.7035
 20
-46.113
 11
26.7
 21
-46
  0
LINE
  8
0
 10
26.7
 20
-46
 11
26.7035
 21
-45.887
  0
LINE
  8
0
 10
26.7035
 20
-45.887
 11
26.7142
 21
-45.7744
  0
LINE
  8
0
 10
26.7142
 20
-45.7744
 11
26.7319
 21
-45.6627
  0
LINE
  8
0
 10
26.7319
 20
-45.6627
 11
26.7565
 21
-45.5524
  0
LINE
  8
0
 10
26.7565
 20
-45.5524
 11
26.7881
 21
-45.4438
  0
LINE
  8
0
 10
26.7881
 20
-45.4438
 11
26.8264
 21
-45.3374
  0
LINE
  8
0
 10
26.8264
 20
-45.3374
 11
26.8713
 21
-45.2336
  0
LINE
  8
0
 10
26.8713
 20
-45.2336
 11
26.9226
 21
-45.1328
  0
LINE
  8
0
 10
26.9226
 20
-45.1328
 11
26.9802
 21
-45.0355
  0
LINE
  8
0
 10
26.9802
 20
-45.0355
 11
27.0438
 21
-44.942
  0
LINE
  8
0
 10
27.0438
 20
-44.942
 11
27.1131
 21
-44.8526
  0
LINE
  8
0
 10
27.1131
 20
-44.8526
 11
27.1879
 21
-44.7678
  0
LINE
  8
0
 10
27.1879
 20
-44.7678
 11
27.2678
 21
-44.6879
  0
LINE
  8
0
 10
27.2678
 20
-44.6879
 11
27.3526
 21
-44.6131
  0
LINE
  8
0
 10
27.3526
 20
-44.6131
 11
27.442
 21
-44.5438
  0
LINE
  8
0
 10
27.442
 20
-44.5438
 11
27.5355
 21
-44.4802
  0
LINE
  8
0
 10
27.5355
 20
-44.4802
 11
27.6328
 21
-44.4226
  0
LINE
  8
0
 10
27.6328
 20
-44.4226
 11
27.7336
 21
-44.3713
  0
LINE
  8
0
 10
27.7336
 20
-44.3713
 11
27.8374
 21
-44.3264
  0
LINE
  8
0
 10
27.8374
 20
-44.3264
 11
27.9438
 21
-44.2881
  0
LINE
  8
0
 10
27.9438
 20
-44.2881
 11
28.0524
 21
-44.2565
  0
LINE
  8
0
 10
28.0524
 20
-44.2565
 11
28.1627
 21
-44.2319
  0
LINE
  8
0
 10
28.1627
 20
-44.2319
 11
28.2744
 21
-44.2142
  0
LINE
  8
0
 10
28.2744
 20
-44.2142
 11
28.387
 21
-44.2035
  0
LINE
  8
0
 10
28.387
 20
-44.2035
 11
28.5
 21
-44.2
  0
LINE
  8
0
 10
28.5
 20
-44.2
 11
28.613
 21
-44.2035
  0
LINE
  8
0
 10
28.613
 20
-44.2035
 11
28.7256
 21
-44.2142
  0
LINE
  8
0
 10
28.7256
 20
-44.2142
 11
28.8373
 21
-44.2319
  0
LINE
  8
0
 10
28.8373
 20
-44.2319
 11
28.9476
 21
-44.2565
  0
LINE
  8
0
 10
28.9476
 20
-44.2565
 11
29.0562
 21
-44.2881
  0
LINE
  8
0
 10
29.0562
 20
-44.2881
 11
29.1626
 21
-44.3264
  0
LINE
  8
0
 10
29.1626
 20
-44.3264
 11
29.2664
 21
-44.3713
  0
LINE
  8
0
 10
29.2664
 20
-44.3713
 11
29.3671
 21
-44.4226
  0
LINE
  8
0
 10
29.3671
 20
-44.4226
 11
29.4645
 21
-44.4802
  0
LINE
  8
0
 10
29.4645
 20
-44.4802
 11
29.558
 21
-44.5438
  0
LINE
  8
0
 10
29.558
 20
-44.5438
 11
29.6474
 21
-44.6131
  0
LINE
  8
0
 10
29.6474
 20
-44.6131
 11
29.7322
 21
-44.6879
  0
LINE
  8
0
 10
29.7322
 20
-44.6879
 11
29.8121
 21
-44.7678
  0
LINE
  8
0
 10
29.8121
 20
-44.7678
 11
29.8869
 21
-44.8526
  0
LINE
  8
0
 10
29.8869
 20
-44.8526
 11
29.9562
 21
-44.942
  0
LINE
  8
0
 10
29.9562
 20
-44.942
 11
30.0198
 21
-45.0355
  0
LINE
  8
0
 10
30.0198
 20
-45.0355
 11
30.0773
 21
-45.1328
  0
LINE
  8
0
 10
30.0773
 20
-45.1328
 11
30.1287
 21
-45.2336
  0
LINE
  8
0
 10
30.1287
 20
-45.2336
 11
30.1736
 21
-45.3374
  0
LINE
  8
0
 10
30.1736
 20
-45.3374
 11
30.2119
 21
-45.4438
  0
LINE
  8
0
 10
30.2119
 20
-45.4438
 11
30.2434
 21
-45.5524
  0
LINE
  8
0
 10
30.2434
 20
-45.5524
 11
30.2681
 21
-45.6627
  0
LINE
  8
0
 10
30.2681
 20
-45.6627
 11
30.2858
 21
-45.7744
  0
LINE
  8
0
 10
30.2858
 20
-45.7744
 11
30.2964
 21
-45.887
  0
LINE
  8
0
 10
30.2964
 20
-45.887
 11
30.3
 21
-46
  0
LINE
  8
0
 10
30.3
 20
-46
 11
30.2964
 21
-46.113
  0
LINE
  8
0
 10
30.2964
 20
-46.113
 11
30.2858
 21
-46.2256
  0
LINE
  8
0
 10
30.2858
 20
-46.2256
 11
30.2681
 21
-46.3373
  0
LINE
  8
0
 10
30.2681
 20
-46.3373
 11
30.2434
 21
-46.4476
  0
LINE
  8
0
 10
30.2434
 20
-46.4476
 11
30.2119
 21
-46.5562
  0
LINE
  8
0
 10
30.2119
 20
-46.5562
 11
30.1736
 21
-46.6626
  0
LINE
  8
0
 10
30.1736
 20
-46.6626
 11
30.1287
 21
-46.7664
  0
LINE
  8
0
 10
30.1287
 20
-46.7664
 11
30.0773
 21
-46.8671
  0
LINE
  8
0
 10
30.0773
 20
-46.8671
 11
30.0198
 21
-46.9645
  0
LINE
  8
0
 10
30.0198
 20
-46.9645
 11
29.9562
 21
-47.058
  0
LINE
  8
0
 10
29.9562
 20
-47.058
 11
29.8869
 21
-47.1474
  0
LINE
  8
0
 10
29.8869
 20
-47.1474
 11
29.8121
 21
-47.2322
  0
LINE
  8
0
 10
29.8121
 20
-47.2322
 11
29.7322
 21
-47.3121
  0
LINE
  8
0
 10
29.7322
 20
-47.3121
 11
29.6474
 21
-47.3869
  0
LINE
  8
0
 10
29.6474
 20
-47.3869
 11
29.558
 21
-47.4562
  0
LINE
  8
0
 10
29.558
 20
-47.4562
 11
29.4645
 21
-47.5198
  0
LINE
  8
0
 10
29.4645
 20
-47.5198
 11
29.3671
 21
-47.5773
  0
LINE
  8
0
 10
29.3671
 20
-47.5773
 11
29.2664
 21
-47.6287
  0
LINE
  8
0
 10
29.2664
 20
-47.6287
 11
29.1626
 21
-47.6736
  0
LINE
  8
0
 10
29.1626
 20
-47.6736
 11
29.0562
 21
-47.7119
  0
LINE
  8
0
 10
29.0562
 20
-47.7119
 11
28.9476
 21
-47.7434
  0
LINE
  8
0
 10
28.9476
 20
-47.7434
 11
28.8373
 21
-47.7681
  0
LINE
  8
0
 10
28.8373
 20
-47.7681
 11
28.7256
 21
-47.7858
  0
LINE
  8
0
 10
28.7256
 20
-47.7858
 11
28.613
 21
-47.7964
  0
LINE
  8
0
 10
28.613
 20
-47.7964
 11
28.5
 21
-47.8
  0
LINE
  8
0
 10
28.5
 20
-47.8
 11
28.387
 21
-47.7964
  0
LINE
  8
0
 10
-0.113022
 20
-47.7964
 11
-0.225586
 21
-47.7858
  0
LINE
  8
0
 10
-0.225586
 20
-47.7858
 11
-0.33728
 21
-47.7681
  0
LINE
  8
0
 10
-0.33728
 20
-47.7681
 11
-0.447632
 21
-47.7434
  0
LINE
  8
0
 10
-0.447632
 20
-47.7434
 11
-0.556229
 21
-47.7119
  0
LINE
  8
0
 10
-0.556229
 20
-47.7119
 11
-0.662613
 21
-47.6736
  0
LINE
  8
0
 10
-0.662613
 20
-47.6736
 11
-0.766388
 21
-47.6287
  0
LINE
  8
0
 10
-0.766388
 20
-47.6287
 11
-0.867142
 21
-47.5773
  0
LINE
  8
0
 10
-0.867142
 20
-47.5773
 11
-0.964478
 21
-47.5198
  0
LINE
  8
0
 10
-0.964478
 20
-47.5198
 11
-1.058
 21
-47.4562
  0
LINE
  8
0
 10
-1.058
 20
-47.4562
 11
-1.14735
 21
-47.3869
  0
LINE
  8
0
 10
-1.14735
 20
-47.3869
 11
-1.23218
 21
-47.3121
  0
LINE
  8
0
 10
-1.23218
 20
-47.3121
 11
-1.31213
 21
-47.2322
  0
LINE
  8
0
 10
-1.31213
 20
-47.2322
 11
-1.38692
 21
-47.1474
  0
LINE
  8
0
 10
-1.38692
 20
-47.1474
 11
-1.45622
 21
-47.058
  0
LINE
  8
0
 10
-1.45622
 20
-47.058
 11
-1.51978
 21
-46.9645
  0
LINE
  8
0
 10
-1.51978
 20
-46.9645
 11
-1.57735
 21
-46.8671
  0
LINE
  8
0
 10
-1.57735
 20
-46.8671
 11
-1.62868
 21
-46.7664
  0
LINE
  8
0
 10
-1.62868
 20
-46.7664
 11
-1.67358
 21
-46.6626
  0
LINE
  8
0
 10
-1.67358
 20
-46.6626
 11
-1.7119
 21
-46.5562
  0
LINE
  8
0
 10
-1.7119
 20
-46.5562
 11
-1.74344
 21
-46.4476
  0
LINE
  8
0
 10
-1.74344
 20
-46.4476
 11
-1.76811
 21
-46.3373
  0
LINE
  8
0
 10
-1.76811
 20
-46.3373
 11
-1.7858
 21
-46.2256
  0
LINE
  8
0
 10
-1.7858
 20
-46.2256
 11
-1.79645
 21
-46.113
  0
LINE
  8
0
 10
-1.79645
 20
-46.113
 11
-1.79999
 21
-46
  0
LINE
  8
0
 10
-1.79999
 20
-46
 11
-1.79645
 21
-45.887
  0
LINE
  8
0
 10
-1.79645
 20
-45.887
 11
-1.7858
 21
-45.7744
  0
LINE
  8
0
 10
-1.7858
 20
-45.7744
 11
-1.76811
 21
-45.6627
  0
LINE
  8
0
 10
-1.76811
 20
-45.6627
 11
-1.74344
 21
-45.5524
  0
LINE
  8
0
 10
-1.74344
 20
-45.5524
 11
-1.7119
 21
-45.4438
  0
LINE
  8
0
 10
-1.7119
 20
-45.4438
 11
-1.67358
 21
-45.3374
  0
LINE
  8
0
 10
-1.67358
 20
-45.3374
 11
-1.62868
 21
-45.2336
  0
LINE
  8
0
 10
-1.62868
 20
-45.2336
 11
-1.57735
 21
-45.1328
  0
LINE
  8
0
 10
-1.57735
 20
-45.1328
 11
-1.51978
 21
-45.0355
  0
LINE
  8
0
 10
-1.51978
 20
-45.0355
 11
-1.45622
 21
-44.942
  0
LINE
  8
0
 10
-1.45622
 20
-44.942
 11
-1.38692
 21
-44.8526
  0
LINE
  8
0
 10
-1.38692
 20
-44.8526
 11
-1.31213
 21
-44.7678
  0
LINE
  8
0
 10
-1.31213
 20
-44.7678
 11
-1.23218
 21
-44.6879
  0
LINE
  8
0
 10
-1.23218
 20
-44.6879
 11
-1.14735
 21
-44.6131
  0
LINE
  8
0
 10
-1.14735
 20
-44.6131
 11
-1.058
 21
-44.5438
  0
LINE
  8
0
 10
-1.058
 20
-44.5438
 11
-0.964478
 21
-44.4802
  0
LINE
  8
0
 10
-0.964478
 20
-44.4802
 11
-0.867142
 21
-44.4226
  0
LINE
  8
0
 10
-0.867142
 20
-44.4226
 11
-0.766388
 21
-44.3713
  0
LINE
  8
0
 10
-0.766388
 20
-44.3713
 11
-0.662613
 21
-44.3264
  0
LINE
  8
0
 10
-0.662613
 20
-44.3264
 11
-0.556229
 21
-44.2881
  0
LINE
  8
0
 10
-0.556229
 20
-44.2881
 11
-0.447632
 21
-44.2565
  0
LINE
  8
0
 10
-0.447632
 20
-44.2565
 11
-0.33728
 21
-44.2319
  0
LINE
  8
0
 10
-0.33728
 20
-44.2319
 11
-0.225586
 21
-44.2142
  0
LINE
  8
0
 10
-0.225586
 20
-44.2142
 11
-0.113022
 21
-44.2035
  0
LINE
  8
0
 10
-0.113022
 20
-44.2035
 11
0
 21
-44.2
  0
LINE
  8
0
 10
0
 20
-44.2
 11
0.113022
 21
-44.2035
  0
LINE
  8
0
 10
0.113022
 20
-44.2035
 11
0.225586
 21
-44.2142
  0
LINE
  8
0
 10
0.225586
 20
-44.2142
 11
0.33728
 21
-44.2319
  0
LINE
  8
0
 10
0.33728
 20
-44.2319
 11
0.447632
 21
-44.2565
  0
LINE
  8
0
 10
0.447632
 20
-44.2565
 11
0.556229
 21
-44.2881
  0
LINE
  8
0
 10
0.556229
 20
-44.2881
 11
0.662613
 21
-44.3264
  0
LINE
  8
0
 10
0.662613
 20
-44.3264
 11
0.766388
 21
-44.3713
  0
LINE
  8
0
 10
0.766388
 20
-44.3713
 11
0.867142
 21
-44.4226
  0
LINE
  8
0
 10
0.867142
 20
-44.4226
 11
0.964478
 21
-44.4802
  0
LINE
  8
0
 10
0.964478
 20
-44.4802
 11
1.058
 21
-44.5438
  0
LINE
  8
0
 10
1.058
 20
-44.5438
 11
1.14735
 21
-44.6131
  0
LINE
  8
0
 10
1.14735
 20
-44.6131
 11
1.23218
 21
-44.6879
  0
LINE
  8
0
 10
1.23218
 20
-44.6879
 11
1.31213
 21
-44.7678
  0
LINE
  8
0
 10
1.31213
 20
-44.7678
 11
1.38692
 21
-44.8526
  0
LINE
  8
0
 10
1.38692
 20
-44.8526
 11
1.45622
 21
-44.942
  0
LINE
  8
0
 10
1.45622
 20
-44.942
 11
1.51978
 21
-45.0355
  0
LINE
  8
0
 10
1.51978
 20
-45.0355
 11
1.57735
 21
-45.1328
  0
LINE
  8
0
 10
1.57735
 20
-45.1328
 11
1.62868
 21
-45.2336
  0
LINE
  8
0
 10
1.62868
 20
-45.2336
 11
1.67358
 21
-45.3374
  0
LINE
  8
0
 10
1.67358
 20
-45.3374
 11
1.7119
 21
-45.4438
  0
LINE
  8
0
 10
1.7119
 20
-45.4438
 11
1.74344
 21
-45.5524
  0
LINE
  8
0
 10
1.74344
 20
-45.5524
 11
1.76811
 21
-45.6627
  0
LINE
  8
0
 10
1.76811
 20
-45.6627
 11
1.7858
 21
-45.7744
  0
LINE
  8
0
 10
1.7858
 20
-45.7744
 11
1.79645
 21
-45.887
  0
LINE
  8
0
 10
1.79645
 20
-45.887
 11
1.79999
 21
-46
  0
LINE
  8
0
 10
1.79999
 20
-46
 11
1.79645
 21
-46.113
  0
LINE
  8
0
 10
1.79645
 20
-46.113
 11
1.7858
 21
-46.2256
  0
LINE
  8
0
 10
1.7858
 20
-46.2256
 11
1.76811
 21
-46.3373
  0
LINE
  8
0
 10
1.76811
 20
-46.3373
 11
1.74344
 21
-46.4476
  0
LINE
  8
0
 10
1.74344
 20
-46.4476
 11
1.7119
 21
-46.5562
  0
LINE
  8
0
 10
1.7119
 20
-46.5562
 11
1.67358
 21
-46.6626
  0
LINE
  8
0
 10
1.67358
 20
-46.6626
 11
1.62868
 21
-46.7664
  0
LINE
  8
0
 10
1.62868
 20
-46.7664
 11
1.57735
 21
-46.8671
  0
LINE
  8
0
 10
1.57735
 20
-46.8671
 11
1.51978
 21
-46.9645
  0
LINE
  8
0
 10
1.51978
 20
-46.9645
 11
1.45622
 21
-47.058
  0
LINE
  8
0
 10
1.45622
 20
-47.058
 11
1.38692
 21
-47.1474
  0
LINE
  8
0
 10
1.38692
 20
-47.1474
 11
1.31213
 21
-47.2322
  0
LINE
  8
0
 10
1.31213
 20
-47.2322
 11
1.23218
 21
-47.3121
  0
LINE
  8
0
 10
1.23218
 20
-47.3121
 11
1.14735
 21
-47.3869
  0
LINE
  8
0
 10
1.14735
 20
-47.3869
 11
1.058
 21
-47.4562
  0
LINE
  8
0
 10
1.058
 20
-47.4562
 11
0.964478
 21
-47.5198
  0
LINE
  8
0
 10
0.964478
 20
-47.5198
 11
0.867142
 21
-47.5773
  0
LINE
  8
0
 10
0.867142
 20
-47.5773
 11
0.766388
 21
-47.6287
  0
LINE
  8
0
 10
0.766388
 20
-47.6287
 11
0.662613
 21
-47.6736
  0
LINE
  8
0
 10
0.662613
 20
-47.6736
 11
0.556229
 21
-47.7119
  0
LINE
  8
0
 10
0.556229
 20
-47.7119
 11
0.447632
 21
-47.7434
  0
LINE
  8
0
 10
0.447632
 20
-47.7434
 11
0.33728
 21
-47.7681
  0
LINE
  8
0
 10
0.33728
 20
-47.7681
 11
0.225586
 21
-47.7858
  0
LINE
  8
0
 10
0.225586
 20
-47.7858
 11
0.113022
 21
-47.7964
  0
LINE
  8
0
 10
0.113022
 20
-47.7964
 11
0
 21
-47.8
  0
LINE
  8
0
 10
0
 20
-47.8
 11
-0.113022
 21
-47.7964
  0
LINE
  8
0
 10
-57.113
 20
-47.7964
 11
-57.2256
 21
-47.7858
  0
LINE
  8
0
 10
-57.2256
 20
-47.7858
 11
-57.3373
 21
-47.7681
  0
LINE
  8
0
 10
-57.3373
 20
-47.7681
 11
-57.4476
 21
-47.7434
  0
LINE
  8
0
 10
-57.4476
 20
-47.7434
 11
-57.5562
 21
-47.7119
  0
LINE
  8
0
 10
-57.5562
 20
-47.7119
 11
-57.6626
 21
-47.6736
  0
LINE
  8
0
 10
-57.6626
 20
-47.6736
 11
-57.7664
 21
-47.6287
  0
LINE
  8
0
 10
-57.7664
 20
-47.6287
 11
-57.8671
 21
-47.5773
  0
LINE
  8
0
 10
-57.8671
 20
-47.5773
 11
-57.9645
 21
-47.5198
  0
LINE
  8
0
 10
-57.9645
 20
-47.5198
 11
-58.058
 21
-47.4562
  0
LINE
  8
0
 10
-58.058
 20
-47.4562
 11
-58.1474
 21
-47.3869
  0
LINE
  8
0
 10
-58.1474
 20
-47.3869
 11
-58.2322
 21
-47.3121
  0
LINE
  8
0
 10
-58.2322
 20
-47.3121
 11
-58.3121
 21
-47.2322
  0
LINE
  8
0
 10
-58.3121
 20
-47.2322
 11
-58.3869
 21
-47.1474
  0
LINE
  8
0
 10
-58.3869
 20
-47.1474
 11
-58.4562
 21
-47.058
  0
LINE
  8
0
 10
-58.4562
 20
-47.058
 11
-58.5198
 21
-46.9645
  0
LINE
  8
0
 10
-58.5198
 20
-46.9645
 11
-58.5773
 21
-46.8671
  0
LINE
  8
0
 10
-58.5773
 20
-46.8671
 11
-58.6287
 21
-46.7664
  0
LINE
  8
0
 10
-58.6287
 20
-46.7664
 11
-58.6736
 21
-46.6626
  0
LINE
  8
0
 10
-58.6736
 20
-46.6626
 11
-58.7119
 21
-46.5562
  0
LINE
  8
0
 10
-58.7119
 20
-46.5562
 11
-58.7434
 21
-46.4476
  0
LINE
  8
0
 10
-58.7434
 20
-46.4476
 11
-58.7681
 21
-46.3373
  0
LINE
  8
0
 10
-58.7681
 20
-46.3373
 11
-58.7858
 21
-46.2256
  0
LINE
  8
0
 10
-58.7858
 20
-46.2256
 11
-58.7964
 21
-46.113
  0
LINE
  8
0
 10
-58.7964
 20
-46.113
 11
-58.8
 21
-46
  0
LINE
  8
0
 10
-58.8
 20
-46
 11
-58.7964
 21
-45.887
  0
LINE
  8
0
 10
-58.7964
 20
-45.887
 11
-58.7858
 21
-45.7744
  0
LINE
  8
0
 10
-58.7858
 20
-45.7744
 11
-58.7681
 21
-45.6627
  0
LINE
  8
0
 10
-58.7681
 20
-45.6627
 11
-58.7434
 21
-45.5524
  0
LINE
  8
0
 10
-58.7434
 20
-45.5524
 11
-58.7119
 21
-45.4438
  0
LINE
  8
0
 10
-58.7119
 20
-45.4438
 11
-58.6736
 21
-45.3374
  0
LINE
  8
0
 10
-58.6736
 20
-45.3374
 11
-58.6287
 21
-45.2336
  0
LINE
  8
0
 10
-58.6287
 20
-45.2336
 11
-58.5773
 21
-45.1328
  0
LINE
  8
0
 10
-58.5773
 20
-45.1328
 11
-58.5198
 21
-45.0355
  0
LINE
  8
0
 10
-58.5198
 20
-45.0355
 11
-58.4562
 21
-44.942
  0
LINE
  8
0
 10
-58.4562
 20
-44.942
 11
-58.3869
 21
-44.8526
  0
LINE
  8
0
 10
-58.3869
 20
-44.8526
 11
-58.3121
 21
-44.7678
  0
LINE
  8
0
 10
-58.3121
 20
-44.7678
 11
-58.2322
 21
-44.6879
  0
LINE
  8
0
 10
-58.2322
 20
-44.6879
 11
-58.1474
 21
-44.6131
  0
LINE
  8
0
 10
-58.1474
 20
-44.6131
 11
-58.058
 21
-44.5438
  0
LINE
  8
0
 10
-58.058
 20
-44.5438
 11
-57.9645
 21
-44.4802
  0
LINE
  8
0
 10
-57.9645
 20
-44.4802
 11
-57.8671
 21
-44.4226
  0
LINE
  8
0
 10
-57.8671
 20
-44.4226
 11
-57.7664
 21
-44.3713
  0
LINE
  8
0
 10
-57.7664
 20
-44.3713
 11
-57.6626
 21
-44.3264
  0
LINE
  8
0
 10
-57.6626
 20
-44.3264
 11
-57.5562
 21
-44.2881
  0
LINE
  8
0
 10
-57.5562
 20
-44.2881
 11
-57.4476
 21
-44.2565
  0
LINE
  8
0
 10
-57.4476
 20
-44.2565
 11
-57.3373
 21
-44.2319
  0
LINE
  8
0
 10
-57.3373
 20
-44.2319
 11
-57.2256
 21
-44.2142
  0
LINE
  8
0
 10
-57.2256
 20
-44.2142
 11
-57.113
 21
-44.2035
  0
LINE
  8
0
 10
-57.113
 20
-44.2035
 11
-57
 21
-44.2
  0
LINE
  8
0
 10
-57
 20
-44.2
 11
-56.887
 21
-44.2035
  0
LINE
  8
0
 10
-56.887
 20
-44.2035
 11
-56.7744
 21
-44.2142
  0
LINE
  8
0
 10
-56.7744
 20
-44.2142
 11
-56.6627
 21
-44.2319
  0
LINE
  8
0
 10
-56.6627
 20
-44.2319
 11
-56.5524
 21
-44.2565
  0
LINE
  8
0
 10
-56.5524
 20
-44.2565
 11
-56.4438
 21
-44.2881
  0
LINE
  8
0
 10
-56.4438
 20
-44.2881
 11
-56.3374
 21
-44.3264
  0
LINE
  8
0
 10
-56.3374
 20
-44.3264
 11
-56.2336
 21
-44.3713
  0
LINE
  8
0
 10
-56.2336
 20
-44.3713
 11
-56.1328
 21
-44.4226
  0
LINE
  8
0
 10
-56.1328
 20
-44.4226
 11
-56.0355
 21
-44.4802
  0
LINE
  8
0
 10
-56.0355
 20
-44.4802
 11
-55.942
 21
-44.5438
  0
LINE
  8
0
 10
-55.942
 20
-44.5438
 11
-55.8526
 21
-44.6131
  0
LINE
  8
0
 10
-55.8526
 20
-44.6131
 11
-55.7678
 21
-44.6879
  0
LINE
  8
0
 10
-55.7678
 20
-44.6879
 11
-55.6879
 21
-44.7678
  0
LINE
  8
0
 10
-55.6879
 20
-44.7678
 11
-55.6131
 21
-44.8526
  0
LINE
  8
0
 10
-55.6131
 20
-44.8526
 11
-55.5438
 21
-44.942
  0
LINE
  8
0
 10
-55.5438
 20
-44.942
 11
-55.4802
 21
-45.0355
  0
LINE
  8
0
 10
-55.4802
 20
-45.0355
 11
-55.4226
 21
-45.1328
  0
LINE
  8
0
 10
-55.4226
 20
-45.1328
 11
-55.3713
 21
-45.2336
  0
LINE
  8
0
 10
-55.3713
 20
-45.2336
 11
-55.3264
 21
-45.3374
  0
LINE
  8
0
 10
-55.3264
 20
-45.3374
 11
-55.2881
 21
-45.4438
  0
LINE
  8
0
 10
-55.2881
 20
-45.4438
 11
-55.2565
 21
-45.5524
  0
LINE
  8
0
 10
-55.2565
 20
-45.5524
 11
-55.2319
 21
-45.6627
  0
LINE
  8
0
 10
-55.2319
 20
-45.6627
 11
-55.2142
 21
-45.7744
  0
LINE
  8
0
 10
-55.2142
 20
-45.7744
 11
-55.2035
 21
-45.887
  0
LINE
  8
0
 10
-55.2035
 20
-45.887
 11
-55.2
 21
-46
  0
LINE
  8
0
 10
-55.2
 20
-46
 11
-55.2035
 21
-46.113
  0
LINE
  8
0
 10
-55.2035
 20
-46.113
 11
-55.2142
 21
-46.2256
  0
LINE
  8
0
 10
-55.2142
 20
-46.2256
 11
-55.2319
 21
-46.3373
  0
LINE
  8
0
 10
-55.2319
 20
-46.3373
 11
-55.2565
 21
-46.4476
  0
LINE
  8
0
 10
-55.2565
 20
-46.4476
 11
-55.2881
 21
-46.5562
  0
LINE
  8
0
 10
-55.2881
 20
-46.5562
 11
-55.3264
 21
-46.6626
  0
LINE
  8
0
 10
-55.3264
 20
-46.6626
 11
-55.3713
 21
-46.7664
  0
LINE
  8
0
 10
-55.3713
 20
-46.7664
 11
-55.4226
 21
-46.8671
  0
LINE
  8
0
 10
-55.4226
 20
-46.8671
 11
-55.4802
 21
-46.9645
  0
LINE
  8
0
 10
-55.4802
 20
-46.9645
 11
-55.5438
 21
-47.058
  0
LINE
  8
0
 10
-55.5438
 20
-47.058
 11
-55.6131
 21
-47.1474
  0
LINE
  8
0
 10
-55.6131
 20
-47.1474
 11
-55.6879
 21
-47.2322
  0
LINE
  8
0
 10
-55.6879
 20
-47.2322
 11
-55.7678
 21
-47.3121
  0
LINE
  8
0
 10
-55.7678
 20
-47.3121
 11
-55.8526
 21
-47.3869
  0
LINE
  8
0
 10
-55.8526
 20
-47.3869
 11
-55.942
 21
-47.4562
  0
LINE
  8
0
 10
-55.942
 20
-47.4562
 11
-56.0355
 21
-47.5198
  0
LINE
  8
0
 10
-56.0355
 20
-47.5198
 11
-56.1328
 21
-47.5773
  0
LINE
  8
0
 10
-56.1328
 20
-47.5773
 11
-56.2336
 21
-47.6287
  0
LINE
  8
0
 10
-56.2336
 20
-47.6287
 11
-56.3374
 21
-47.6736
  0
LINE
  8
0
 10
-56.3374
 20
-47.6736
 11
-56.4438
 21
-47.7119
  0
LINE
  8
0
 10
-56.4438
 20
-47.7119
 11
-56.5524
 21
-47.7434
  0
LINE
  8
0
 10
-56.5524
 20
-47.7434
 11
-56.6627
 21
-47.7681
  0
LINE
  8
0
 10
-56.6627
 20
-47.7681
 11
-56.7744
 21
-47.7858
  0
LINE
  8
0
 10
-56.7744
 20
-47.7858
 11
-56.887
 21
-47.7964
  0
LINE
  8
0
 10
-56.887
 20
-47.7964
 11
-57
 21
-47.8
  0
LINE
  8
0
 10
-57
 20
-47.8
 11
-57.113
 21
-47.7964
  0
ENDSEC
  0
SECTION
  2
OBJECTS
  0
DICTIONARY
  0
ENDSEC
  0
EOF
