  0
SECTION
  2
BLOCKS
  0
ENDSEC
  0
SECTION
  2
ENTITIES
  0
LINE
  8
0
 10
62.5
 20
54
 11
-62.5
 21
54
  0
LINE
  8
0
 10
-62.5
 20
54
 11
-62.5
 21
-54
  0
LINE
  8
0
 10
-62.5
 20
-54
 11
62.5
 21
-54
  0
LINE
  8
0
 10
62.5
 20
-54
 11
62.5
 21
54
  0
LINE
  8
0
 10
-57.5562
 20
46.2881
 11
-58.058
 21
46.5438
  0
LINE
  8
0
 10
-58.058
 20
46.5438
 11
-58.4562
 21
46.942
  0
LINE
  8
0
 10
-58.4562
 20
46.942
 11
-58.7119
 21
47.4438
  0
LINE
  8
0
 10
-58.7119
 20
47.4438
 11
-58.8
 21
48
  0
LINE
  8
0
 10
-58.8
 20
48
 11
-58.7119
 21
48.5562
  0
LINE
  8
0
 10
-58.7119
 20
48.5562
 11
-58.4562
 21
49.058
  0
LINE
  8
0
 10
-58.4562
 20
49.058
 11
-58.058
 21
49.4562
  0
LINE
  8
0
 10
-58.058
 20
49.4562
 11
-57.5562
 21
49.7119
  0
LINE
  8
0
 10
-57.5562
 20
49.7119
 11
-57
 21
49.8
  0
LINE
  8
0
 10
-57
 20
49.8
 11
-56.4438
 21
49.7119
  0
LINE
  8
0
 10
-56.4438
 20
49.7119
 11
-55.942
 21
49.4562
  0
LINE
  8
0
 10
-55.942
 20
49.4562
 11
-55.5438
 21
49.058
  0
LINE
  8
0
 10
-55.5438
 20
49.058
 11
-55.2881
 21
48.5562
  0
LINE
  8
0
 10
-55.2881
 20
48.5562
 11
-55.2
 21
48
  0
LINE
  8
0
 10
-55.2
 20
48
 11
-55.2881
 21
47.4438
  0
LINE
  8
0
 10
-55.2881
 20
47.4438
 11
-55.5438
 21
46.942
  0
LINE
  8
0
 10
-55.5438
 20
46.942
 11
-55.942
 21
46.5438
  0
LINE
  8
0
 10
-55.942
 20
46.5438
 11
-56.4438
 21
46.2881
  0
LINE
  8
0
 10
-56.4438
 20
46.2881
 11
-57
 21
46.2
  0
LINE
  8
0
 10
-57
 20
46.2
 11
-57.5562
 21
46.2881
  0
LINE
  8
0
 10
56.4438
 20
46.2881
 11
55.942
 21
46.5438
  0
LINE
  8
0
 10
55.942
 20
46.5438
 11
55.5438
 21
46.942
  0
LINE
  8
0
 10
55.5438
 20
46.942
 11
55.2881
 21
47.4438
  0
LINE
  8
0
 10
55.2881
 20
47.4438
 11
55.2
 21
48
  0
LINE
  8
0
 10
55.2
 20
48
 11
55.2881
 21
48.5562
  0
LINE
  8
0
 10
55.2881
 20
48.5562
 11
55.5438
 21
49.058
  0
LINE
  8
0
 10
55.5438
 20
49.058
 11
55.942
 21
49.4562
  0
LINE
  8
0
 10
55.942
 20
49.4562
 11
56.4438
 21
49.7119
  0
LINE
  8
0
 10
56.4438
 20
49.7119
 11
57
 21
49.8
  0
LINE
  8
0
 10
57
 20
49.8
 11
57.5562
 21
49.7119
  0
LINE
  8
0
 10
57.5562
 20
49.7119
 11
58.058
 21
49.4562
  0
LINE
  8
0
 10
58.058
 20
49.4562
 11
58.4562
 21
49.058
  0
LINE
  8
0
 10
58.4562
 20
49.058
 11
58.7119
 21
48.5562
  0
LINE
  8
0
 10
58.7119
 20
48.5562
 11
58.8
 21
48
  0
LINE
  8
0
 10
58.8
 20
48
 11
58.7119
 21
47.4438
  0
LINE
  8
0
 10
58.7119
 20
47.4438
 11
58.4562
 21
46.942
  0
LINE
  8
0
 10
58.4562
 20
46.942
 11
58.058
 21
46.5438
  0
LINE
  8
0
 10
58.058
 20
46.5438
 11
57.5562
 21
46.2881
  0
LINE
  8
0
 10
57.5562
 20
46.2881
 11
57
 21
46.2
  0
LINE
  8
0
 10
57
 20
46.2
 11
56.4438
 21
46.2881
  0
LINE
  8
0
 10
-0.556229
 20
46.2881
 11
-1.058
 21
46.5438
  0
LINE
  8
0
 10
-1.058
 20
46.5438
 11
-1.45622
 21
46.942
  0
LINE
  8
0
 10
-1.45622
 20
46.942
 11
-1.7119
 21
47.4438
  0
LINE
  8
0
 10
-1.7119
 20
47.4438
 11
-1.79999
 21
48
  0
LINE
  8
0
 10
-1.79999
 20
48
 11
-1.7119
 21
48.5562
  0
LINE
  8
0
 10
-1.7119
 20
48.5562
 11
-1.45622
 21
49.058
  0
LINE
  8
0
 10
-1.45622
 20
49.058
 11
-1.058
 21
49.4562
  0
LINE
  8
0
 10
-1.058
 20
49.4562
 11
-0.556229
 21
49.7119
  0
LINE
  8
0
 10
-0.556229
 20
49.7119
 11
0
 21
49.8
  0
LINE
  8
0
 10
0
 20
49.8
 11
0.556229
 21
49.7119
  0
LINE
  8
0
 10
0.556229
 20
49.7119
 11
1.058
 21
49.4562
  0
LINE
  8
0
 10
1.058
 20
49.4562
 11
1.45622
 21
49.058
  0
LINE
  8
0
 10
1.45622
 20
49.058
 11
1.7119
 21
48.5562
  0
LINE
  8
0
 10
1.7119
 20
48.5562
 11
1.79999
 21
48
  0
LINE
  8
0
 10
1.79999
 20
48
 11
1.7119
 21
47.4438
  0
LINE
  8
0
 10
1.7119
 20
47.4438
 11
1.45622
 21
46.942
  0
LINE
  8
0
 10
1.45622
 20
46.942
 11
1.058
 21
46.5438
  0
LINE
  8
0
 10
1.058
 20
46.5438
 11
0.556229
 21
46.2881
  0
LINE
  8
0
 10
0.556229
 20
46.2881
 11
0
 21
46.2
  0
LINE
  8
0
 10
0
 20
46.2
 11
-0.556229
 21
46.2881
  0
LINE
  8
0
 10
-57.3998
 20
21.1346
 11
-58.1664
 21
21.5252
  0
LINE
  8
0
 10
-58.1664
 20
21.5252
 11
-58.7748
 21
22.1336
  0
LINE
  8
0
 10
-58.7748
 20
22.1336
 11
-59.1654
 21
22.9002
  0
LINE
  8
0
 10
-59.1654
 20
22.9002
 11
-59.3
 21
23.75
  0
LINE
  8
0
 10
-59.3
 20
23.75
 11
-59.1654
 21
24.5998
  0
LINE
  8
0
 10
-59.1654
 20
24.5998
 11
-58.7748
 21
25.3664
  0
LINE
  8
0
 10
-58.7748
 20
25.3664
 11
-58.1664
 21
25.9748
  0
LINE
  8
0
 10
-58.1664
 20
25.9748
 11
-57.3998
 21
26.3654
  0
LINE
  8
0
 10
-57.3998
 20
26.3654
 11
-56.55
 21
26.5
  0
LINE
  8
0
 10
-56.55
 20
26.5
 11
-55.7002
 21
26.3654
  0
LINE
  8
0
 10
-55.7002
 20
26.3654
 11
-54.9336
 21
25.9748
  0
LINE
  8
0
 10
-54.9336
 20
25.9748
 11
-54.3252
 21
25.3664
  0
LINE
  8
0
 10
-54.3252
 20
25.3664
 11
-53.9346
 21
24.5998
  0
LINE
  8
0
 10
-53.9346
 20
24.5998
 11
-53.8
 21
23.75
  0
LINE
  8
0
 10
-53.8
 20
23.75
 11
-53.9346
 21
22.9002
  0
LINE
  8
0
 10
-53.9346
 20
22.9002
 11
-54.3252
 21
22.1336
  0
LINE
  8
0
 10
-54.3252
 20
22.1336
 11
-54.9336
 21
21.5252
  0
LINE
  8
0
 10
-54.9336
 20
21.5252
 11
-55.7002
 21
21.1346
  0
LINE
  8
0
 10
-55.7002
 20
21.1346
 11
-56.55
 21
21
  0
LINE
  8
0
 10
-56.55
 20
21
 11
-57.3998
 21
21.1346
  0
LINE
  8
0
 10
55.7002
 20
21.1346
 11
54.9336
 21
21.5252
  0
LINE
  8
0
 10
54.9336
 20
21.5252
 11
54.3252
 21
22.1336
  0
LINE
  8
0
 10
54.3252
 20
22.1336
 11
53.9346
 21
22.9002
  0
LINE
  8
0
 10
53.9346
 20
22.9002
 11
53.8
 21
23.75
  0
LINE
  8
0
 10
53.8
 20
23.75
 11
53.9346
 21
24.5998
  0
LINE
  8
0
 10
53.9346
 20
24.5998
 11
54.3252
 21
25.3664
  0
LINE
  8
0
 10
54.3252
 20
25.3664
 11
54.9336
 21
25.9748
  0
LINE
  8
0
 10
54.9336
 20
25.9748
 11
55.7002
 21
26.3654
  0
LINE
  8
0
 10
55.7002
 20
26.3654
 11
56.55
 21
26.5
  0
LINE
  8
0
 10
56.55
 20
26.5
 11
57.3998
 21
26.3654
  0
LINE
  8
0
 10
57.3998
 20
26.3654
 11
58.1664
 21
25.9748
  0
LINE
  8
0
 10
58.1664
 20
25.9748
 11
58.7748
 21
25.3664
  0
LINE
  8
0
 10
58.7748
 20
25.3664
 11
59.1654
 21
24.5998
  0
LINE
  8
0
 10
59.1654
 20
24.5998
 11
59.3
 21
23.75
  0
LINE
  8
0
 10
59.3
 20
23.75
 11
59.1654
 21
22.9002
  0
LINE
  8
0
 10
59.1654
 20
22.9002
 11
58.7748
 21
22.1336
  0
LINE
  8
0
 10
58.7748
 20
22.1336
 11
58.1664
 21
21.5252
  0
LINE
  8
0
 10
58.1664
 20
21.5252
 11
57.3998
 21
21.1346
  0
LINE
  8
0
 10
57.3998
 20
21.1346
 11
56.55
 21
21
  0
LINE
  8
0
 10
56.55
 20
21
 11
55.7002
 21
21.1346
  0
LINE
  8
0
 10
-57.5562
 20
-1.7119
 11
-58.058
 21
-1.45622
  0
LINE
  8
0
 10
-58.058
 20
-1.45622
 11
-58.4562
 21
-1.058
  0
LINE
  8
0
 10
-58.4562
 20
-1.058
 11
-58.7119
 21
-0.556229
  0
LINE
  8
0
 10
-58.7119
 20
-0.556229
 11
-58.8
 21
0
  0
LINE
  8
0
 10
-58.8
 20
0
 11
-58.7119
 21
0.556229
  0
LINE
  8
0
 10
-58.7119
 20
0.556229
 11
-58.4562
 21
1.058
  0
LINE
  8
0
 10
-58.4562
 20
1.058
 11
-58.058
 21
1.45622
  0
LINE
  8
0
 10
-58.058
 20
1.45622
 11
-57.5562
 21
1.7119
  0
LINE
  8
0
 10
-57.5562
 20
1.7119
 11
-57
 21
1.79999
  0
LINE
  8
0
 10
-57
 20
1.79999
 11
-56.4438
 21
1.7119
  0
LINE
  8
0
 10
-56.4438
 20
1.7119
 11
-55.942
 21
1.45622
  0
LINE
  8
0
 10
-55.942
 20
1.45622
 11
-55.5438
 21
1.058
  0
LINE
  8
0
 10
-55.5438
 20
1.058
 11
-55.2881
 21
0.556229
  0
LINE
  8
0
 10
-55.2881
 20
0.556229
 11
-55.2
 21
0
  0
LINE
  8
0
 10
-55.2
 20
0
 11
-55.2881
 21
-0.556229
  0
LINE
  8
0
 10
-55.2881
 20
-0.556229
 11
-55.5438
 21
-1.058
  0
LINE
  8
0
 10
-55.5438
 20
-1.058
 11
-55.942
 21
-1.45622
  0
LINE
  8
0
 10
-55.942
 20
-1.45622
 11
-56.4438
 21
-1.7119
  0
LINE
  8
0
 10
-56.4438
 20
-1.7119
 11
-57
 21
-1.79999
  0
LINE
  8
0
 10
-57
 20
-1.79999
 11
-57.5562
 21
-1.7119
  0
LINE
  8
0
 10
56.4438
 20
-1.7119
 11
55.942
 21
-1.45622
  0
LINE
  8
0
 10
55.942
 20
-1.45622
 11
55.5438
 21
-1.058
  0
LINE
  8
0
 10
55.5438
 20
-1.058
 11
55.2881
 21
-0.556229
  0
LINE
  8
0
 10
55.2881
 20
-0.556229
 11
55.2
 21
0
  0
LINE
  8
0
 10
55.2
 20
0
 11
55.2881
 21
0.556229
  0
LINE
  8
0
 10
55.2881
 20
0.556229
 11
55.5438
 21
1.058
  0
LINE
  8
0
 10
55.5438
 20
1.058
 11
55.942
 21
1.45622
  0
LINE
  8
0
 10
55.942
 20
1.45622
 11
56.4438
 21
1.7119
  0
LINE
  8
0
 10
56.4438
 20
1.7119
 11
57
 21
1.79999
  0
LINE
  8
0
 10
57
 20
1.79999
 11
57.5562
 21
1.7119
  0
LINE
  8
0
 10
57.5562
 20
1.7119
 11
58.058
 21
1.45622
  0
LINE
  8
0
 10
58.058
 20
1.45622
 11
58.4562
 21
1.058
  0
LINE
  8
0
 10
58.4562
 20
1.058
 11
58.7119
 21
0.556229
  0
LINE
  8
0
 10
58.7119
 20
0.556229
 11
58.8
 21
0
  0
LINE
  8
0
 10
58.8
 20
0
 11
58.7119
 21
-0.556229
  0
LINE
  8
0
 10
58.7119
 20
-0.556229
 11
58.4562
 21
-1.058
  0
LINE
  8
0
 10
58.4562
 20
-1.058
 11
58.058
 21
-1.45622
  0
LINE
  8
0
 10
58.058
 20
-1.45622
 11
57.5562
 21
-1.7119
  0
LINE
  8
0
 10
57.5562
 20
-1.7119
 11
57
 21
-1.79999
  0
LINE
  8
0
 10
57
 20
-1.79999
 11
56.4438
 21
-1.7119
  0
LINE
  8
0
 10
-57.3998
 20
-26.3654
 11
-58.1664
 21
-25.9748
  0
LINE
  8
0
 10
-58.1664
 20
-25.9748
 11
-58.7748
 21
-25.3664
  0
LINE
  8
0
 10
-58.7748
 20
-25.3664
 11
-59.1654
 21
-24.5998
  0
LINE
  8
0
 10
-59.1654
 20
-24.5998
 11
-59.3
 21
-23.75
  0
LINE
  8
0
 10
-59.3
 20
-23.75
 11
-59.1654
 21
-22.9002
  0
LINE
  8
0
 10
-59.1654
 20
-22.9002
 11
-58.7748
 21
-22.1336
  0
LINE
  8
0
 10
-58.7748
 20
-22.1336
 11
-58.1664
 21
-21.5252
  0
LINE
  8
0
 10
-58.1664
 20
-21.5252
 11
-57.3998
 21
-21.1346
  0
LINE
  8
0
 10
-57.3998
 20
-21.1346
 11
-56.55
 21
-21
  0
LINE
  8
0
 10
-56.55
 20
-21
 11
-55.7002
 21
-21.1346
  0
LINE
  8
0
 10
-55.7002
 20
-21.1346
 11
-54.9336
 21
-21.5252
  0
LINE
  8
0
 10
-54.9336
 20
-21.5252
 11
-54.3252
 21
-22.1336
  0
LINE
  8
0
 10
-54.3252
 20
-22.1336
 11
-53.9346
 21
-22.9002
  0
LINE
  8
0
 10
-53.9346
 20
-22.9002
 11
-53.8
 21
-23.75
  0
LINE
  8
0
 10
-53.8
 20
-23.75
 11
-53.9346
 21
-24.5998
  0
LINE
  8
0
 10
-53.9346
 20
-24.5998
 11
-54.3252
 21
-25.3664
  0
LINE
  8
0
 10
-54.3252
 20
-25.3664
 11
-54.9336
 21
-25.9748
  0
LINE
  8
0
 10
-54.9336
 20
-25.9748
 11
-55.7002
 21
-26.3654
  0
LINE
  8
0
 10
-55.7002
 20
-26.3654
 11
-56.55
 21
-26.5
  0
LINE
  8
0
 10
-56.55
 20
-26.5
 11
-57.3998
 21
-26.3654
  0
LINE
  8
0
 10
55.7002
 20
-26.3654
 11
54.9336
 21
-25.9748
  0
LINE
  8
0
 10
54.9336
 20
-25.9748
 11
54.3252
 21
-25.3664
  0
LINE
  8
0
 10
54.3252
 20
-25.3664
 11
53.9346
 21
-24.5998
  0
LINE
  8
0
 10
53.9346
 20
-24.5998
 11
53.8
 21
-23.75
  0
LINE
  8
0
 10
53.8
 20
-23.75
 11
53.9346
 21
-22.9002
  0
LINE
  8
0
 10
53.9346
 20
-22.9002
 11
54.3252
 21
-22.1336
  0
LINE
  8
0
 10
54.3252
 20
-22.1336
 11
54.9336
 21
-21.5252
  0
LINE
  8
0
 10
54.9336
 20
-21.5252
 11
55.7002
 21
-21.1346
  0
LINE
  8
0
 10
55.7002
 20
-21.1346
 11
56.55
 21
-21
  0
LINE
  8
0
 10
56.55
 20
-21
 11
57.3998
 21
-21.1346
  0
LINE
  8
0
 10
57.3998
 20
-21.1346
 11
58.1664
 21
-21.5252
  0
LINE
  8
0
 10
58.1664
 20
-21.5252
 11
58.7748
 21
-22.1336
  0
LINE
  8
0
 10
58.7748
 20
-22.1336
 11
59.1654
 21
-22.9002
  0
LINE
  8
0
 10
59.1654
 20
-22.9002
 11
59.3
 21
-23.75
  0
LINE
  8
0
 10
59.3
 20
-23.75
 11
59.1654
 21
-24.5998
  0
LINE
  8
0
 10
59.1654
 20
-24.5998
 11
58.7748
 21
-25.3664
  0
LINE
  8
0
 10
58.7748
 20
-25.3664
 11
58.1664
 21
-25.9748
  0
LINE
  8
0
 10
58.1664
 20
-25.9748
 11
57.3998
 21
-26.3654
  0
LINE
  8
0
 10
57.3998
 20
-26.3654
 11
56.55
 21
-26.5
  0
LINE
  8
0
 10
56.55
 20
-26.5
 11
55.7002
 21
-26.3654
  0
LINE
  8
0
 10
-57.5562
 20
-49.7119
 11
-58.058
 21
-49.4562
  0
LINE
  8
0
 10
-58.058
 20
-49.4562
 11
-58.4562
 21
-49.058
  0
LINE
  8
0
 10
-58.4562
 20
-49.058
 11
-58.7119
 21
-48.5562
  0
LINE
  8
0
 10
-58.7119
 20
-48.5562
 11
-58.8
 21
-48
  0
LINE
  8
0
 10
-58.8
 20
-48
 11
-58.7119
 21
-47.4438
  0
LINE
  8
0
 10
-58.7119
 20
-47.4438
 11
-58.4562
 21
-46.942
  0
LINE
  8
0
 10
-58.4562
 20
-46.942
 11
-58.058
 21
-46.5438
  0
LINE
  8
0
 10
-58.058
 20
-46.5438
 11
-57.5562
 21
-46.2881
  0
LINE
  8
0
 10
-57.5562
 20
-46.2881
 11
-57
 21
-46.2
  0
LINE
  8
0
 10
-57
 20
-46.2
 11
-56.4438
 21
-46.2881
  0
LINE
  8
0
 10
-56.4438
 20
-46.2881
 11
-55.942
 21
-46.5438
  0
LINE
  8
0
 10
-55.942
 20
-46.5438
 11
-55.5438
 21
-46.942
  0
LINE
  8
0
 10
-55.5438
 20
-46.942
 11
-55.2881
 21
-47.4438
  0
LINE
  8
0
 10
-55.2881
 20
-47.4438
 11
-55.2
 21
-48
  0
LINE
  8
0
 10
-55.2
 20
-48
 11
-55.2881
 21
-48.5562
  0
LINE
  8
0
 10
-55.2881
 20
-48.5562
 11
-55.5438
 21
-49.058
  0
LINE
  8
0
 10
-55.5438
 20
-49.058
 11
-55.942
 21
-49.4562
  0
LINE
  8
0
 10
-55.942
 20
-49.4562
 11
-56.4438
 21
-49.7119
  0
LINE
  8
0
 10
-56.4438
 20
-49.7119
 11
-57
 21
-49.8
  0
LINE
  8
0
 10
-57
 20
-49.8
 11
-57.5562
 21
-49.7119
  0
LINE
  8
0
 10
56.4438
 20
-49.7119
 11
55.942
 21
-49.4562
  0
LINE
  8
0
 10
55.942
 20
-49.4562
 11
55.5438
 21
-49.058
  0
LINE
  8
0
 10
55.5438
 20
-49.058
 11
55.2881
 21
-48.5562
  0
LINE
  8
0
 10
55.2881
 20
-48.5562
 11
55.2
 21
-48
  0
LINE
  8
0
 10
55.2
 20
-48
 11
55.2881
 21
-47.4438
  0
LINE
  8
0
 10
55.2881
 20
-47.4438
 11
55.5438
 21
-46.942
  0
LINE
  8
0
 10
55.5438
 20
-46.942
 11
55.942
 21
-46.5438
  0
LINE
  8
0
 10
55.942
 20
-46.5438
 11
56.4438
 21
-46.2881
  0
LINE
  8
0
 10
56.4438
 20
-46.2881
 11
57
 21
-46.2
  0
LINE
  8
0
 10
57
 20
-46.2
 11
57.5562
 21
-46.2881
  0
LINE
  8
0
 10
57.5562
 20
-46.2881
 11
58.058
 21
-46.5438
  0
LINE
  8
0
 10
58.058
 20
-46.5438
 11
58.4562
 21
-46.942
  0
LINE
  8
0
 10
58.4562
 20
-46.942
 11
58.7119
 21
-47.4438
  0
LINE
  8
0
 10
58.7119
 20
-47.4438
 11
58.8
 21
-48
  0
LINE
  8
0
 10
58.8
 20
-48
 11
58.7119
 21
-48.5562
  0
LINE
  8
0
 10
58.7119
 20
-48.5562
 11
58.4562
 21
-49.058
  0
LINE
  8
0
 10
58.4562
 20
-49.058
 11
58.058
 21
-49.4562
  0
LINE
  8
0
 10
58.058
 20
-49.4562
 11
57.5562
 21
-49.7119
  0
LINE
  8
0
 10
57.5562
 20
-49.7119
 11
57
 21
-49.8
  0
LINE
  8
0
 10
57
 20
-49.8
 11
56.4438
 21
-49.7119
  0
LINE
  8
0
 10
-0.556229
 20
-49.7119
 11
-1.058
 21
-49.4562
  0
LINE
  8
0
 10
-1.058
 20
-49.4562
 11
-1.45622
 21
-49.058
  0
LINE
  8
0
 10
-1.45622
 20
-49.058
 11
-1.7119
 21
-48.5562
  0
LINE
  8
0
 10
-1.7119
 20
-48.5562
 11
-1.79999
 21
-48
  0
LINE
  8
0
 10
-1.79999
 20
-48
 11
-1.7119
 21
-47.4438
  0
LINE
  8
0
 10
-1.7119
 20
-47.4438
 11
-1.45622
 21
-46.942
  0
LINE
  8
0
 10
-1.45622
 20
-46.942
 11
-1.058
 21
-46.5438
  0
LINE
  8
0
 10
-1.058
 20
-46.5438
 11
-0.556229
 21
-46.2881
  0
LINE
  8
0
 10
-0.556229
 20
-46.2881
 11
0
 21
-46.2
  0
LINE
  8
0
 10
0
 20
-46.2
 11
0.556229
 21
-46.2881
  0
LINE
  8
0
 10
0.556229
 20
-46.2881
 11
1.058
 21
-46.5438
  0
LINE
  8
0
 10
1.058
 20
-46.5438
 11
1.45622
 21
-46.942
  0
LINE
  8
0
 10
1.45622
 20
-46.942
 11
1.7119
 21
-47.4438
  0
LINE
  8
0
 10
1.7119
 20
-47.4438
 11
1.79999
 21
-48
  0
LINE
  8
0
 10
1.79999
 20
-48
 11
1.7119
 21
-48.5562
  0
LINE
  8
0
 10
1.7119
 20
-48.5562
 11
1.45622
 21
-49.058
  0
LINE
  8
0
 10
1.45622
 20
-49.058
 11
1.058
 21
-49.4562
  0
LINE
  8
0
 10
1.058
 20
-49.4562
 11
0.556229
 21
-49.7119
  0
LINE
  8
0
 10
0.556229
 20
-49.7119
 11
0
 21
-49.8
  0
LINE
  8
0
 10
0
 20
-49.8
 11
-0.556229
 21
-49.7119
  0
ENDSEC
  0
SECTION
  2
OBJECTS
  0
DICTIONARY
  0
ENDSEC
  0
EOF
