  0
SECTION
  2
HEADER
  9
$ACADVER
  1
AC1014
  9
$HANDSEED
  5
FFFF
  9
$MEASUREMENT
 70
     1
  0
ENDSEC
  0
SECTION
  2
TABLES
  0
TABLE
  2
VPORT
  5
8
330
0
100
AcDbSymbolTable
 70
     4
  0
VPORT
  5
2E
330
8
100
AcDbSymbolTableRecord
100
AcDbViewportTableRecord
  2
*ACTIVE
 70
     0
 10
0.0
 20
0.0
 11
1.0
 21
1.0
 12
210.0
 22
148.5
 13
0.0
 23
0.0
 14
10.0
 24
10.0
 15
10.0
 25
10.0
 16
0.0
 26
0.0
 36
1.0
 17
0.0
 27
0.0
 37
0.0
 40
341.0
 41
1.24
 42
50.0
 43
0.0
 44
0.0
 50
0.0
 51
0.0
 71
     0
 72
   100
 73
     1
 74
     3
 75
     0
 76
     0
 77
     0
 78
     0
  0
ENDTAB
  0
TABLE
  2
LTYPE
  5
5
330
0
100
AcDbSymbolTable
 70
     1
  0
LTYPE
  5
14
330
5
100
AcDbSymbolTableRecord
100
AcDbLinetypeTableRecord
  2
BYBLOCK
 70
     0
  3

 72
    65
 73
     0
 40
0.0
  0
LTYPE
  5
15
330
5
100
AcDbSymbolTableRecord
100
AcDbLinetypeTableRecord
  2
BYLAYER
 70
     0
  3

 72
    65
 73
     0
 40
0.0
  0
LTYPE
  5
16
330
5
100
AcDbSymbolTableRecord
100
AcDbLinetypeTableRecord
  2
CONTINUOUS
 70
     0
  3
Solid line
 72
    65
 73
     0
 40
0.0
  0
ENDTAB
  0
TABLE
  2
LAYER
  5
2
100
AcDbSymbolTable
 70
2
  0
LAYER
  5
50
100
AcDbSymbolTableRecord
100
AcDbLayerTableRecord
  2
0
 70
0
  6
CONTINUOUS
  0
LAYER
  5
51
100
AcDbSymbolTableRecord
100
AcDbLayerTableRecord
  2
Layer_1
 70
0
  6
CONTINUOUS
  0
ENDTAB
  0
TABLE
  2
STYLE
  5
3
330
0
100
AcDbSymbolTable
 70
     1
  0
STYLE
  5
11
330
3
100
AcDbSymbolTableRecord
100
AcDbTextStyleTableRecord
  2
STANDARD
 70
     0
 40
0.0
 41
1.0
 50
0.0
 71
     0
 42
2.5
  3
txt
  4

  0
ENDTAB
  0
TABLE
  2
VIEW
  5
6
330
0
100
AcDbSymbolTable
 70
     0
  0
ENDTAB
  0
TABLE
  2
UCS
  5
7
330
0
100
AcDbSymbolTable
 70
     0
  0
ENDTAB
  0
TABLE
  2
APPID
  5
9
330
0
100
AcDbSymbolTable
 70
     2
  0
APPID
  5
12
330
9
100
AcDbSymbolTableRecord
100
AcDbRegAppTableRecord
  2
ACAD
 70
     0
  0
ENDTAB
  0
TABLE
  2
DIMSTYLE
  5
A
330
0
100
AcDbSymbolTable
 70
     1
  0
DIMSTYLE
105
27
330
A
100
AcDbSymbolTableRecord
100
AcDbDimStyleTableRecord
  2
ISO-25
 70
     0
  3

  4

  5

  6

  7

 40
1.0
 41
2.5
 42
0.625
 43
3.75
 44
1.25
 45
0.0
 46
0.0
 47
0.0
 48
0.0
140
2.5
141
2.5
142
0.0
143
0.03937007874016
144
1.0
145
0.0
146
1.0
147
0.625
 71
     0
 72
     0
 73
     0
 74
     0
 75
     0
 76
     0
 77
     1
 78
     8
170
     0
171
     3
172
     1
173
     0
174
     0
175
     0
176
     0
177
     0
178
     0
270
     2
271
     2
272
     2
273
     2
274
     3
340
11
275
     0
280
     0
281
     0
282
     0
283
     0
284
     8
285
     0
286
     0
287
     3
288
     0
  0
ENDTAB
  0
TABLE
  2
BLOCK_RECORD
  5
1
330
0
100
AcDbSymbolTable
 70
     1
  0
BLOCK_RECORD
  5
1F
330
1
100
AcDbSymbolTableRecord
100
AcDbBlockTableRecord
  2
*MODEL_SPACE
  0
BLOCK_RECORD
  5
1B
330
1
100
AcDbSymbolTableRecord
100
AcDbBlockTableRecord
  2
*PAPER_SPACE
  0
ENDTAB
  0
ENDSEC
  0
SECTION
  2
BLOCKS
  0
BLOCK
  5
20
330
1F
100
AcDbEntity
  8
0
100
AcDbBlockBegin
  2
*MODEL_SPACE
 70
     0
 10
0.0
 20
0.0
 30
0.0
  3
*MODEL_SPACE
  1

  0
ENDBLK
  5
21
330
1F
100
AcDbEntity
  8
0
100
AcDbBlockEnd
  0
BLOCK
  5
1C
330
1B
100
AcDbEntity
 67
     1
  8
0
100
AcDbBlockBegin
  2
*PAPER_SPACE
  1

  0
ENDBLK
  5
1D
330
1B
100
AcDbEntity
 67
     1
  8
0
100
AcDbBlockEnd
  0
ENDSEC
  0
SECTION
  2
ENTITIES
  0
LINE
  5
100
100
AcDbEntity
  8
Layer_1
 62
7
100
AcDbLine
 10
125.141109
 20
108.141115
 30
0.0
 11
0.141111
 21
108.141115
 31
0.0
  0
LINE
  5
101
100
AcDbEntity
  8
Layer_1
 62
7
100
AcDbLine
 10
0.141111
 20
108.141115
 30
0.0
 11
0.141111
 21
0.141111
 31
0.0
  0
LINE
  5
102
100
AcDbEntity
  8
Layer_1
 62
7
100
AcDbLine
 10
0.141111
 20
0.141111
 30
0.0
 11
125.141109
 21
0.141111
 31
0.0
  0
LINE
  5
103
100
AcDbEntity
  8
Layer_1
 62
7
100
AcDbLine
 10
125.141109
 20
0.141111
 30
0.0
 11
125.141109
 21
108.141115
 31
0.0
  0
SPLINE
  5
104
100
AcDbEntity
  8
Layer_1
 62
7
100
AcDbSpline
 70
0
 71
3
 72
10
 73
6
 74
4
 40
0.000000
 40
0.000000
 40
0.000000
 40
0.000000
 40
0.736944
 40
1.473712
 40
2.210652
 40
2.210652
 40
2.210652
 40
2.210652
 10
3.841109
 20
102.141116
 30
0.0
 10
3.871542
 20
102.387359
 30
0.0
 10
3.932401
 20
102.879788
 30
0.0
 10
4.383502
 20
103.513592
 30
0.0
 10
4.828830
 20
103.732384
 30
0.0
 10
5.051521
 20
103.841793
 30
0.0
 11
3.841109
 21
102.141116
 31
0.0
 11
3.992389
 21
102.862365
 31
0.0
 11
4.419610
 21
103.462623
 31
0.0
 11
5.051521
 21
103.841793
 31
0.0
  0
SPLINE
  5
105
100
AcDbEntity
  8
Layer_1
 62
7
100
AcDbSpline
 70
0
 71
3
 72
10
 73
6
 74
4
 40
0.000000
 40
0.000000
 40
0.000000
 40
0.000000
 40
0.736907
 40
1.473646
 40
2.210560
 40
2.210560
 40
2.210560
 40
2.210560
 10
5.051521
 20
103.841793
 30
0.0
 10
5.294132
 20
103.893715
 30
0.0
 10
5.779300
 20
103.997549
 30
0.0
 10
6.525882
 20
103.778962
 30
0.0
 10
6.878448
 20
103.429867
 30
0.0
 10
7.054751
 20
103.255298
 30
0.0
 11
5.051521
 21
103.841793
 31
0.0
 11
5.782489
 21
103.935158
 31
0.0
 11
6.489547
 21
103.728147
 31
0.0
 11
7.054751
 21
103.255298
 31
0.0
  0
SPLINE
  5
106
100
AcDbEntity
  8
Layer_1
 62
7
100
AcDbSpline
 70
0
 71
3
 72
10
 73
6
 74
4
 40
0.000000
 40
0.000000
 40
0.000000
 40
0.000000
 40
0.736901
 40
1.473642
 40
2.210542
 40
2.210542
 40
2.210542
 40
2.210542
 10
7.054751
 20
103.255298
 30
0.0
 10
7.183296
 20
103.043093
 30
0.0
 10
7.440357
 20
102.618729
 30
0.0
 10
7.478466
 20
101.841736
 30
0.0
 10
7.264105
 20
101.394277
 30
0.0
 10
7.156913
 20
101.170523
 30
0.0
 11
7.054751
 21
103.255298
 31
0.0
 11
7.382458
 21
102.595275
 31
0.0
 11
7.418535
 21
101.859417
 31
0.0
 11
7.156913
 21
101.170523
 31
0.0
  0
SPLINE
  5
107
100
AcDbEntity
  8
Layer_1
 62
7
100
AcDbSpline
 70
0
 71
3
 72
10
 73
6
 74
4
 40
0.000000
 40
0.000000
 40
0.000000
 40
0.000000
 40
0.736874
 40
1.473606
 40
2.210479
 40
2.210479
 40
2.210479
 40
2.210479
 10
7.156913
 20
101.170523
 30
0.0
 10
6.998539
 20
100.979558
 30
0.0
 10
6.681822
 20
100.597665
 30
0.0
 10
5.960230
 20
100.307079
 30
0.0
 10
5.467248
 20
100.363009
 30
0.0
 10
5.220733
 20
100.390977
 30
0.0
 11
7.156913
 21
101.170523
 31
0.0
 11
6.640701
 21
100.644681
 31
0.0
 11
5.957292
 21
100.369497
 31
0.0
 11
5.220733
 21
100.390977
 31
0.0
  0
LINE
  5
108
100
AcDbEntity
  8
Layer_1
 62
7
100
AcDbLine
 10
3.841109
 20
102.141116
 30
0.0
 11
3.841109
 21
102.141116
 31
0.0
  0
SPLINE
  5
109
100
AcDbEntity
  8
Layer_1
 62
7
100
AcDbSpline
 70
0
 71
3
 72
13
 73
9
 74
7
 40
0.000000
 40
0.000000
 40
0.000000
 40
0.000000
 40
0.736869
 40
1.473616
 40
2.210488
 40
2.269322
 40
2.328156
 40
2.386991
 40
2.386991
 40
2.386991
 40
2.386991
 10
5.220733
 20
100.390977
 30
0.0
 10
4.987260
 20
100.477946
 30
0.0
 10
4.520353
 20
100.651869
 30
0.0
 10
4.026789
 20
101.239835
 30
0.0
 10
3.867960
 20
101.739604
 30
0.0
 10
3.844727
 20
102.023506
 30
0.0
 10
3.841679
 20
102.082279
 30
0.0
 10
3.841299
 20
102.121504
 30
0.0
 10
3.841109
 20
102.141116
 30
0.0
 11
5.220733
 21
100.390977
 31
0.0
 11
4.554788
 21
100.706403
 31
0.0
 11
4.070885
 21
101.261951
 31
0.0
 11
3.849858
 21
101.964893
 31
0.0
 11
3.845019
 21
102.023528
 31
0.0
 11
3.842092
 21
102.082290
 31
0.0
 11
3.841109
 21
102.141116
 31
0.0
  0
SPLINE
  5
10a
100
AcDbEntity
  8
Layer_1
 62
7
100
AcDbSpline
 70
0
 71
3
 72
10
 73
6
 74
4
 40
0.000000
 40
0.000000
 40
0.000000
 40
0.000000
 40
0.736944
 40
1.473712
 40
2.210652
 40
2.210652
 40
2.210652
 40
2.210652
 10
32.341109
 20
102.141116
 30
0.0
 10
32.371542
 20
102.387359
 30
0.0
 10
32.432401
 20
102.879788
 30
0.0
 10
32.883501
 20
103.513592
 30
0.0
 10
33.328830
 20
103.732384
 30
0.0
 10
33.551520
 20
103.841793
 30
0.0
 11
32.341109
 21
102.141116
 31
0.0
 11
32.492388
 21
102.862365
 31
0.0
 11
32.919609
 21
103.462623
 31
0.0
 11
33.551520
 21
103.841793
 31
0.0
  0
SPLINE
  5
10b
100
AcDbEntity
  8
Layer_1
 62
7
100
AcDbSpline
 70
0
 71
3
 72
10
 73
6
 74
4
 40
0.000000
 40
0.000000
 40
0.000000
 40
0.000000
 40
0.736907
 40
1.473646
 40
2.210560
 40
2.210560
 40
2.210560
 40
2.210560
 10
33.551520
 20
103.841793
 30
0.0
 10
33.794132
 20
103.893715
 30
0.0
 10
34.279299
 20
103.997549
 30
0.0
 10
35.025882
 20
103.778962
 30
0.0
 10
35.378447
 20
103.429867
 30
0.0
 10
35.554751
 20
103.255298
 30
0.0
 11
33.551520
 21
103.841793
 31
0.0
 11
34.282488
 21
103.935158
 31
0.0
 11
34.989547
 21
103.728147
 31
0.0
 11
35.554751
 21
103.255298
 31
0.0
  0
SPLINE
  5
10c
100
AcDbEntity
  8
Layer_1
 62
7
100
AcDbSpline
 70
0
 71
3
 72
10
 73
6
 74
4
 40
0.000000
 40
0.000000
 40
0.000000
 40
0.000000
 40
0.736901
 40
1.473642
 40
2.210542
 40
2.210542
 40
2.210542
 40
2.210542
 10
35.554751
 20
103.255298
 30
0.0
 10
35.683295
 20
103.043093
 30
0.0
 10
35.940357
 20
102.618729
 30
0.0
 10
35.978465
 20
101.841736
 30
0.0
 10
35.764104
 20
101.394277
 30
0.0
 10
35.656912
 20
101.170523
 30
0.0
 11
35.554751
 21
103.255298
 31
0.0
 11
35.882458
 21
102.595275
 31
0.0
 11
35.918534
 21
101.859417
 31
0.0
 11
35.656912
 21
101.170523
 31
0.0
  0
SPLINE
  5
10d
100
AcDbEntity
  8
Layer_1
 62
7
100
AcDbSpline
 70
0
 71
3
 72
10
 73
6
 74
4
 40
0.000000
 40
0.000000
 40
0.000000
 40
0.000000
 40
0.736874
 40
1.473605
 40
2.210476
 40
2.210476
 40
2.210476
 40
2.210476
 10
35.656912
 20
101.170523
 30
0.0
 10
35.498539
 20
100.979558
 30
0.0
 10
35.181822
 20
100.597666
 30
0.0
 10
34.460231
 20
100.307079
 30
0.0
 10
33.967249
 20
100.363009
 30
0.0
 10
33.720735
 20
100.390977
 30
0.0
 11
35.656912
 21
101.170523
 31
0.0
 11
35.140701
 21
100.644681
 31
0.0
 11
34.457293
 21
100.369497
 31
0.0
 11
33.720735
 21
100.390977
 31
0.0
  0
LINE
  5
10e
100
AcDbEntity
  8
Layer_1
 62
7
100
AcDbLine
 10
32.341109
 20
102.141116
 30
0.0
 11
32.341109
 21
102.141116
 31
0.0
  0
SPLINE
  5
10f
100
AcDbEntity
  8
Layer_1
 62
7
100
AcDbSpline
 70
0
 71
3
 72
13
 73
9
 74
7
 40
0.000000
 40
0.000000
 40
0.000000
 40
0.000000
 40
0.736872
 40
1.473619
 40
2.210491
 40
2.269325
 40
2.328160
 40
2.386994
 40
2.386994
 40
2.386994
 40
2.386994
 10
33.720735
 20
100.390977
 30
0.0
 10
33.487261
 20
100.477945
 30
0.0
 10
33.020352
 20
100.651867
 30
0.0
 10
32.526788
 20
101.239834
 30
0.0
 10
32.367960
 20
101.739604
 30
0.0
 10
32.344726
 20
102.023506
 30
0.0
 10
32.341678
 20
102.082279
 30
0.0
 10
32.341299
 20
102.121504
 30
0.0
 10
32.341109
 20
102.141116
 30
0.0
 11
33.720735
 21
100.390977
 31
0.0
 11
33.054787
 21
100.706402
 31
0.0
 11
32.570884
 21
101.261951
 31
0.0
 11
32.349858
 21
101.964893
 31
0.0
 11
32.345018
 21
102.023528
 31
0.0
 11
32.342091
 21
102.082290
 31
0.0
 11
32.341109
 21
102.141116
 31
0.0
  0
SPLINE
  5
110
100
AcDbEntity
  8
Layer_1
 62
7
100
AcDbSpline
 70
0
 71
3
 72
10
 73
6
 74
4
 40
0.000000
 40
0.000000
 40
0.000000
 40
0.000000
 40
0.694089
 40
1.387944
 40
2.082171
 40
2.082171
 40
2.082171
 40
2.082171
 10
118.583109
 20
103.597315
 30
0.0
 10
118.786757
 20
103.711354
 30
0.0
 10
119.193986
 20
103.939395
 30
0.0
 10
119.921379
 20
103.971978
 30
0.0
 10
120.347750
 20
103.782203
 30
0.0
 10
120.560993
 20
103.687290
 30
0.0
 11
118.583109
 21
103.597315
 31
0.0
 11
119.213471
 21
103.887836
 31
0.0
 11
119.906621
 21
103.919127
 31
0.0
 11
120.560993
 21
103.687290
 31
0.0
  0
SPLINE
  5
111
100
AcDbEntity
  8
Layer_1
 62
7
100
AcDbSpline
 70
0
 71
3
 72
10
 73
6
 74
4
 40
0.000000
 40
0.000000
 40
0.000000
 40
0.000000
 40
0.690027
 40
1.379780
 40
2.069559
 40
2.069559
 40
2.069559
 40
2.069559
 10
120.560993
 20
103.687290
 30
0.0
 10
120.745071
 20
103.546183
 30
0.0
 10
121.113156
 20
103.264024
 30
0.0
 10
121.432347
 20
102.614611
 30
0.0
 10
121.427243
 20
102.150648
 30
0.0
 10
121.424692
 20
101.918663
 30
0.0
 11
120.560993
 21
103.687290
 31
0.0
 11
121.074394
 21
103.226252
 31
0.0
 11
121.377877
 21
102.606851
 31
0.0
 11
121.424692
 21
101.918663
 31
0.0
  0
SPLINE
  5
112
100
AcDbEntity
  8
Layer_1
 62
7
100
AcDbSpline
 70
0
 71
3
 72
10
 73
6
 74
4
 40
0.000000
 40
0.000000
 40
0.000000
 40
0.000000
 40
0.735841
 40
1.472094
 40
2.207955
 40
2.207955
 40
2.207955
 40
2.207955
 10
121.424692
 20
101.918663
 30
0.0
 10
121.364483
 20
101.678338
 30
0.0
 10
121.244033
 20
101.197553
 30
0.0
 10
120.718572
 20
100.624756
 30
0.0
 10
120.249738
 20
100.463813
 30
0.0
 10
120.015384
 20
100.383362
 30
0.0
 11
121.424692
 21
101.918663
 31
0.0
 11
121.186627
 21
101.222396
 31
0.0
 11
120.688840
 21
100.679924
 31
0.0
 11
120.015384
 21
100.383362
 31
0.0
  0
SPLINE
  5
113
100
AcDbEntity
  8
Layer_1
 62
7
100
AcDbSpline
 70
0
 71
3
 72
10
 73
6
 74
4
 40
0.000000
 40
0.000000
 40
0.000000
 40
0.000000
 40
0.747353
 40
1.495171
 40
2.242571
 40
2.242571
 40
2.242571
 40
2.242571
 10
120.015384
 20
100.383362
 30
0.0
 10
119.764605
 20
100.361500
 30
0.0
 10
119.262892
 20
100.317762
 30
0.0
 10
118.540305
 20
100.639194
 30
0.0
 10
118.236791
 20
101.041092
 30
0.0
 10
118.085077
 20
101.241984
 30
0.0
 11
120.015384
 21
100.383362
 31
0.0
 11
119.268032
 21
100.382246
 31
0.0
 11
118.584762
 21
100.686176
 31
0.0
 11
118.085077
 21
101.241984
 31
0.0
  0
SPLINE
  5
114
100
AcDbEntity
  8
Layer_1
 62
7
100
AcDbSpline
 70
0
 71
3
 72
10
 73
6
 74
4
 40
0.000000
 40
0.000000
 40
0.000000
 40
0.000000
 40
0.734900
 40
1.470123
 40
2.205183
 40
2.205183
 40
2.205183
 40
2.205183
 10
118.085077
 20
101.241984
 30
0.0
 10
117.987906
 20
101.469579
 30
0.0
 10
117.793522
 20
101.924870
 30
0.0
 10
117.866830
 20
102.697585
 30
0.0
 10
118.141970
 20
103.109035
 30
0.0
 10
118.279525
 20
103.314737
 30
0.0
 11
118.085077
 21
101.241984
 31
0.0
 11
117.854352
 21
101.939726
 31
0.0
 11
117.923414
 21
102.671699
 31
0.0
 11
118.279525
 21
103.314737
 31
0.0
  0
LINE
  5
115
100
AcDbEntity
  8
Layer_1
 62
7
100
AcDbLine
 10
118.583109
 20
103.597315
 30
0.0
 11
118.583109
 21
103.597315
 31
0.0
  0
SPLINE
  5
116
100
AcDbEntity
  8
Layer_1
 62
7
100
AcDbSpline
 70
0
 71
3
 72
10
 73
6
 74
4
 40
0.000000
 40
0.000000
 40
0.000000
 40
0.000000
 40
0.138563
 40
0.277113
 40
0.415651
 40
0.415651
 40
0.415651
 40
0.415651
 10
118.279525
 20
103.314737
 30
0.0
 10
118.310268
 20
103.349218
 30
0.0
 10
118.371750
 20
103.418175
 30
0.0
 10
118.472643
 20
103.513576
 30
0.0
 10
118.546288
 20
103.569402
 30
0.0
 10
118.583109
 20
103.597315
 30
0.0
 11
118.279525
 21
103.314737
 31
0.0
 11
118.373199
 21
103.416840
 31
0.0
 11
118.474242
 21
103.511635
 31
0.0
 11
118.583109
 21
103.597315
 31
0.0
  0
SPLINE
  5
117
100
AcDbEntity
  8
Layer_1
 62
7
100
AcDbSpline
 70
0
 71
3
 72
10
 73
6
 74
4
 40
0.000000
 40
0.000000
 40
0.000000
 40
0.000000
 40
0.736943
 40
1.473707
 40
2.210647
 40
2.210647
 40
2.210647
 40
2.210647
 10
90.083109
 20
103.597315
 30
0.0
 10
90.300203
 20
103.717450
 30
0.0
 10
90.734337
 20
103.957692
 30
0.0
 10
91.512255
 20
103.965313
 30
0.0
 10
91.951006
 20
103.733612
 30
0.0
 10
92.170408
 20
103.617748
 30
0.0
 11
90.083109
 21
103.597315
 31
0.0
 11
90.755509
 21
103.898917
 31
0.0
 11
91.492238
 21
103.906131
 31
0.0
 11
92.170408
 21
103.617748
 31
0.0
  0
SPLINE
  5
118
100
AcDbEntity
  8
Layer_1
 62
7
100
AcDbSpline
 70
0
 71
3
 72
10
 73
6
 74
4
 40
0.000000
 40
0.000000
 40
0.000000
 40
0.000000
 40
0.736910
 40
1.473650
 40
2.210555
 40
2.210555
 40
2.210555
 40
2.210555
 10
92.170408
 20
103.617748
 30
0.0
 10
92.355013
 20
103.451987
 30
0.0
 10
92.724179
 20
103.120503
 30
0.0
 10
92.986240
 20
102.388053
 30
0.0
 10
92.911051
 20
101.897627
 30
0.0
 10
92.873452
 20
101.652386
 30
0.0
 11
92.170408
 21
103.617748
 31
0.0
 11
92.675594
 21
103.081256
 31
0.0
 11
92.923762
 21
102.387572
 31
0.0
 11
92.873452
 21
101.652386
 31
0.0
  0
SPLINE
  5
119
100
AcDbEntity
  8
Layer_1
 62
7
100
AcDbSpline
 70
0
 71
3
 72
10
 73
6
 74
4
 40
0.000000
 40
0.000000
 40
0.000000
 40
0.000000
 40
0.736908
 40
1.473662
 40
2.210569
 40
2.210569
 40
2.210569
 40
2.210569
 10
92.873452
 20
101.652386
 30
0.0
 10
92.777315
 20
101.423665
 30
0.0
 10
92.585061
 20
100.966272
 30
0.0
 10
91.978868
 20
100.478731
 30
0.0
 10
91.490869
 20
100.389104
 30
0.0
 10
91.246844
 20
100.344286
 30
0.0
 11
92.873452
 21
101.652386
 31
0.0
 11
92.532064
 21
100.999325
 31
0.0
 11
91.957943
 21
100.537599
 31
0.0
 11
91.246844
 21
100.344286
 31
0.0
  0
SPLINE
  5
11a
100
AcDbEntity
  8
Layer_1
 62
7
100
AcDbSpline
 70
0
 71
3
 72
10
 73
6
 74
4
 40
0.000000
 40
0.000000
 40
0.000000
 40
0.000000
 40
0.736880
 40
1.473623
 40
2.210507
 40
2.210507
 40
2.210507
 40
2.210507
 10
91.246844
 20
100.344286
 30
0.0
 10
90.999257
 20
100.360171
 30
0.0
 10
90.504129
 20
100.391938
 30
0.0
 10
89.844933
 20
100.804984
 30
0.0
 10
89.600401
 20
101.236686
 30
0.0
 10
89.478124
 20
101.452559
 30
0.0
 11
91.246844
 21
100.344286
 31
0.0
 11
90.518005
 21
100.452849
 31
0.0
 11
89.893696
 21
100.844037
 31
0.0
 11
89.478124
 21
101.452559
 31
0.0
  0
LINE
  5
11b
100
AcDbEntity
  8
Layer_1
 62
7
100
AcDbLine
 10
90.083109
 20
103.597329
 30
0.0
 11
90.083109
 21
103.597315
 31
0.0
  0
SPLINE
  5
11c
100
AcDbEntity
  8
Layer_1
 62
7
100
AcDbSpline
 70
0
 71
3
 72
13
 73
9
 74
7
 40
0.000000
 40
0.000000
 40
0.000000
 40
0.000000
 40
0.736854
 40
1.473580
 40
2.210438
 40
2.269273
 40
2.328109
 40
2.386944
 40
2.386944
 40
2.386944
 40
2.386944
 10
89.478124
 20
101.452559
 30
0.0
 10
89.411238
 20
101.692553
 30
0.0
 10
89.277477
 20
102.172501
 30
0.0
 10
89.463076
 20
102.917394
 30
0.0
 10
89.774083
 20
103.339583
 30
0.0
 10
89.990083
 20
103.525275
 30
0.0
 10
90.035844
 20
103.562284
 30
0.0
 10
90.067354
 20
103.585647
 30
0.0
 10
90.083109
 20
103.597329
 30
0.0
 11
89.478124
 21
101.452559
 31
0.0
 11
89.341849
 21
102.176702
 31
0.0
 11
89.506891
 21
102.894703
 31
0.0
 11
89.945684
 21
103.486667
 31
0.0
 11
89.990274
 21
103.525051
 31
0.0
 11
90.036095
 21
103.561957
 31
0.0
 11
90.083109
 21
103.597329
 31
0.0
  0
SPLINE
  5
11d
100
AcDbEntity
  8
Layer_1
 62
7
100
AcDbSpline
 70
0
 71
3
 72
10
 73
6
 74
4
 40
0.000000
 40
0.000000
 40
0.000000
 40
0.000000
 40
0.736944
 40
1.473712
 40
2.210651
 40
2.210651
 40
2.210651
 40
2.210651
 10
61.583110
 20
103.597315
 30
0.0
 10
61.800203
 20
103.717452
 30
0.0
 10
62.234337
 20
103.957697
 30
0.0
 10
63.012257
 20
103.965320
 30
0.0
 10
63.451008
 20
103.733614
 30
0.0
 10
63.670409
 20
103.617748
 30
0.0
 11
61.583110
 21
103.597315
 31
0.0
 11
62.255509
 21
103.898921
 31
0.0
 11
62.992241
 21
103.906136
 31
0.0
 11
63.670409
 21
103.617748
 31
0.0
  0
SPLINE
  5
11e
100
AcDbEntity
  8
Layer_1
 62
7
100
AcDbSpline
 70
0
 71
3
 72
10
 73
6
 74
4
 40
0.000000
 40
0.000000
 40
0.000000
 40
0.000000
 40
0.736910
 40
1.473649
 40
2.210556
 40
2.210556
 40
2.210556
 40
2.210556
 10
63.670409
 20
103.617748
 30
0.0
 10
63.855018
 20
103.451990
 30
0.0
 10
64.224194
 20
103.120514
 30
0.0
 10
64.486228
 20
102.388053
 30
0.0
 10
64.411045
 20
101.897627
 30
0.0
 10
64.373450
 20
101.652386
 30
0.0
 11
63.670409
 21
103.617748
 31
0.0
 11
64.175602
 21
103.081263
 31
0.0
 11
64.423756
 21
102.387574
 31
0.0
 11
64.373450
 21
101.652386
 31
0.0
  0
SPLINE
  5
11f
100
AcDbEntity
  8
Layer_1
 62
7
100
AcDbSpline
 70
0
 71
3
 72
10
 73
6
 74
4
 40
0.000000
 40
0.000000
 40
0.000000
 40
0.000000
 40
0.736906
 40
1.473661
 40
2.210567
 40
2.210567
 40
2.210567
 40
2.210567
 10
64.373450
 20
101.652386
 30
0.0
 10
64.277317
 20
101.423664
 30
0.0
 10
64.085071
 20
100.966267
 30
0.0
 10
63.478874
 20
100.478727
 30
0.0
 10
62.990875
 20
100.389103
 30
0.0
 10
62.746850
 20
100.344286
 30
0.0
 11
64.373450
 21
101.652386
 31
0.0
 11
64.032073
 21
100.999323
 31
0.0
 11
63.457950
 21
100.537596
 31
0.0
 11
62.746850
 21
100.344286
 31
0.0
  0
SPLINE
  5
120
100
AcDbEntity
  8
Layer_1
 62
7
100
AcDbSpline
 70
0
 71
3
 72
10
 73
6
 74
4
 40
0.000000
 40
0.000000
 40
0.000000
 40
0.000000
 40
0.736885
 40
1.473635
 40
2.210523
 40
2.210523
 40
2.210523
 40
2.210523
 10
62.746850
 20
100.344286
 30
0.0
 10
62.499262
 20
100.360169
 30
0.0
 10
62.004130
 20
100.391933
 30
0.0
 10
61.344924
 20
100.804977
 30
0.0
 10
61.100393
 20
101.236685
 30
0.0
 10
60.978116
 20
101.452559
 30
0.0
 11
62.746850
 21
100.344286
 31
0.0
 11
62.018006
 21
100.452844
 31
0.0
 11
61.393688
 21
100.844032
 31
0.0
 11
60.978116
 21
101.452559
 31
0.0
  0
LINE
  5
121
100
AcDbEntity
  8
Layer_1
 62
7
100
AcDbLine
 10
61.583110
 20
103.597329
 30
0.0
 11
61.583110
 21
103.597315
 31
0.0
  0
SPLINE
  5
122
100
AcDbEntity
  8
Layer_1
 62
7
100
AcDbSpline
 70
0
 71
3
 72
13
 73
9
 74
7
 40
0.000000
 40
0.000000
 40
0.000000
 40
0.000000
 40
0.736853
 40
1.473581
 40
2.210435
 40
2.269272
 40
2.328109
 40
2.386945
 40
2.386945
 40
2.386945
 40
2.386945
 10
60.978116
 20
101.452559
 30
0.0
 10
60.911237
 20
101.692554
 30
0.0
 10
60.777492
 20
102.172503
 30
0.0
 10
60.963061
 20
102.917400
 30
0.0
 10
61.274075
 20
103.339588
 30
0.0
 10
61.490080
 20
103.525275
 30
0.0
 10
61.535842
 20
103.562285
 30
0.0
 10
61.567354
 20
103.585647
 30
0.0
 10
61.583110
 20
103.597329
 30
0.0
 11
60.978116
 21
101.452559
 31
0.0
 11
60.841855
 21
102.176703
 31
0.0
 11
61.006884
 21
102.894710
 31
0.0
 11
61.445679
 21
103.486667
 31
0.0
 11
61.490271
 21
103.525051
 31
0.0
 11
61.536093
 21
103.561957
 31
0.0
 11
61.583110
 21
103.597329
 31
0.0
  0
SPLINE
  5
123
100
AcDbEntity
  8
Layer_1
 62
7
100
AcDbSpline
 70
0
 71
3
 72
10
 73
6
 74
4
 40
0.000000
 40
0.000000
 40
0.000000
 40
0.000000
 40
1.125890
 40
2.251513
 40
3.377403
 40
3.377403
 40
3.377403
 40
3.377403
 10
121.415909
 20
76.274715
 30
0.0
 10
121.157177
 20
75.997676
 30
0.0
 10
120.639774
 20
75.443664
 30
0.0
 10
119.513053
 20
75.065328
 30
0.0
 10
118.766148
 20
75.194835
 30
0.0
 10
118.392651
 20
75.259596
 30
0.0
 11
121.415909
 21
76.274715
 31
0.0
 11
120.581270
 21
75.519065
 31
0.0
 11
119.514195
 21
75.160766
 31
0.0
 11
118.392651
 21
75.259596
 31
0.0
  0
SPLINE
  5
124
100
AcDbEntity
  8
Layer_1
 62
7
100
AcDbSpline
 70
0
 71
3
 72
10
 73
6
 74
4
 40
0.000000
 40
0.000000
 40
0.000000
 40
0.000000
 40
1.125854
 40
2.251452
 40
3.377306
 40
3.377306
 40
3.377306
 40
3.377306
 10
118.392651
 20
75.259596
 30
0.0
 10
118.046155
 20
75.413296
 30
0.0
 10
117.353241
 20
75.720662
 30
0.0
 10
116.626709
 20
76.661252
 30
0.0
 10
116.504413
 20
77.409352
 30
0.0
 10
116.443258
 20
77.783444
 30
0.0
 11
118.392651
 21
75.259596
 31
0.0
 11
117.405318
 21
75.800633
 31
0.0
 11
116.717253
 21
76.691440
 31
0.0
 11
116.443258
 21
77.783444
 31
0.0
  0
SPLINE
  5
125
100
AcDbEntity
  8
Layer_1
 62
7
100
AcDbSpline
 70
0
 71
3
 72
10
 73
6
 74
4
 40
0.000000
 40
0.000000
 40
0.000000
 40
0.000000
 40
1.125825
 40
2.251413
 40
3.377239
 40
3.377239
 40
3.377239
 40
3.377239
 10
116.443258
 20
77.783444
 30
0.0
 10
116.474954
 20
78.161163
 30
0.0
 10
116.538339
 20
78.916520
 30
0.0
 10
117.188990
 20
79.911095
 30
0.0
 10
117.855749
 20
80.271687
 30
0.0
 10
118.189163
 20
80.452002
 30
0.0
 11
116.443258
 21
77.783444
 31
0.0
 11
116.630957
 21
78.893512
 31
0.0
 11
117.247184
 21
79.835432
 31
0.0
 11
118.189163
 21
80.452002
 31
0.0
  0
SPLINE
  5
126
100
AcDbEntity
  8
Layer_1
 62
7
100
AcDbSpline
 70
0
 71
3
 72
10
 73
6
 74
4
 40
0.000000
 40
0.000000
 40
0.000000
 40
0.000000
 40
1.125797
 40
2.251381
 40
3.377182
 40
3.377182
 40
3.377182
 40
3.377182
 10
118.189163
 20
80.452002
 30
0.0
 10
118.556407
 20
80.545819
 30
0.0
 10
119.290824
 20
80.733435
 30
0.0
 10
120.443666
 20
80.444539
 30
0.0
 10
121.002774
 20
79.932701
 30
0.0
 10
121.282356
 20
79.676758
 30
0.0
 11
118.189163
 21
80.452002
 31
0.0
 11
119.299425
 21
80.638383
 31
0.0
 11
120.391245
 21
80.364762
 31
0.0
 11
121.282356
 21
79.676758
 31
0.0
  0
SPLINE
  5
127
100
AcDbEntity
  8
Layer_1
 62
7
100
AcDbSpline
 70
0
 71
3
 72
10
 73
6
 74
4
 40
0.000000
 40
0.000000
 40
0.000000
 40
0.000000
 40
1.125768
 40
2.251342
 40
3.377113
 40
3.377113
 40
3.377113
 40
3.377113
 10
121.282356
 20
79.676758
 30
0.0
 10
121.491324
 20
79.360538
 30
0.0
 10
121.909225
 20
78.728154
 30
0.0
 10
122.013991
 20
77.544307
 30
0.0
 10
121.713571
 20
76.848384
 30
0.0
 10
121.563347
 20
76.500392
 30
0.0
 11
121.282356
 21
79.676758
 31
0.0
 11
121.822231
 21
78.688887
 31
0.0
 11
121.921435
 21
77.567693
 31
0.0
 11
121.563347
 21
76.500392
 31
0.0
  0
LINE
  5
128
100
AcDbEntity
  8
Layer_1
 62
7
100
AcDbLine
 10
121.415909
 20
76.274715
 30
0.0
 11
121.415909
 21
76.274715
 31
0.0
  0
SPLINE
  5
129
100
AcDbEntity
  8
Layer_1
 62
7
100
AcDbSpline
 70
0
 71
3
 72
10
 73
6
 74
4
 40
0.000000
 40
0.000000
 40
0.000000
 40
0.000000
 40
0.089889
 40
0.179778
 40
0.269667
 40
0.269667
 40
0.269667
 40
0.269667
 10
121.563347
 20
76.500392
 30
0.0
 10
121.547958
 20
76.474681
 30
0.0
 10
121.517179
 20
76.423259
 30
0.0
 10
121.468015
 20
76.347968
 30
0.0
 10
121.433278
 20
76.299133
 30
0.0
 10
121.415909
 20
76.274715
 30
0.0
 11
121.563347
 21
76.500392
 31
0.0
 11
121.516680
 21
76.423565
 31
0.0
 11
121.467525
 21
76.348307
 31
0.0
 11
121.415909
 21
76.274715
 31
0.0
  0
SPLINE
  5
12a
100
AcDbEntity
  8
Layer_1
 62
7
100
AcDbSpline
 70
0
 71
3
 72
10
 73
6
 74
4
 40
0.000000
 40
0.000000
 40
0.000000
 40
0.000000
 40
1.125890
 40
2.251513
 40
3.377403
 40
3.377403
 40
3.377403
 40
3.377403
 10
8.315909
 20
76.274715
 30
0.0
 10
8.057177
 20
75.997676
 30
0.0
 10
7.539774
 20
75.443664
 30
0.0
 10
6.413054
 20
75.065328
 30
0.0
 10
5.666149
 20
75.194835
 30
0.0
 10
5.292652
 20
75.259596
 30
0.0
 11
8.315909
 21
76.274715
 31
0.0
 11
7.481270
 21
75.519065
 31
0.0
 11
6.414196
 21
75.160766
 31
0.0
 11
5.292652
 21
75.259596
 31
0.0
  0
SPLINE
  5
12b
100
AcDbEntity
  8
Layer_1
 62
7
100
AcDbSpline
 70
0
 71
3
 72
10
 73
6
 74
4
 40
0.000000
 40
0.000000
 40
0.000000
 40
0.000000
 40
1.125854
 40
2.251452
 40
3.377306
 40
3.377306
 40
3.377306
 40
3.377306
 10
5.292652
 20
75.259596
 30
0.0
 10
4.946155
 20
75.413296
 30
0.0
 10
4.253241
 20
75.720662
 30
0.0
 10
3.526709
 20
76.661252
 30
0.0
 10
3.404413
 20
77.409352
 30
0.0
 10
3.343258
 20
77.783444
 30
0.0
 11
5.292652
 21
75.259596
 31
0.0
 11
4.305319
 21
75.800633
 31
0.0
 11
3.617254
 21
76.691440
 31
0.0
 11
3.343258
 21
77.783444
 31
0.0
  0
SPLINE
  5
12c
100
AcDbEntity
  8
Layer_1
 62
7
100
AcDbSpline
 70
0
 71
3
 72
10
 73
6
 74
4
 40
0.000000
 40
0.000000
 40
0.000000
 40
0.000000
 40
1.125825
 40
2.251413
 40
3.377239
 40
3.377239
 40
3.377239
 40
3.377239
 10
3.343258
 20
77.783444
 30
0.0
 10
3.374954
 20
78.161163
 30
0.0
 10
3.438340
 20
78.916520
 30
0.0
 10
4.088991
 20
79.911095
 30
0.0
 10
4.755749
 20
80.271687
 30
0.0
 10
5.089164
 20
80.452002
 30
0.0
 11
3.343258
 21
77.783444
 31
0.0
 11
3.530958
 21
78.893512
 31
0.0
 11
4.147184
 21
79.835432
 31
0.0
 11
5.089164
 21
80.452002
 31
0.0
  0
SPLINE
  5
12d
100
AcDbEntity
  8
Layer_1
 62
7
100
AcDbSpline
 70
0
 71
3
 72
10
 73
6
 74
4
 40
0.000000
 40
0.000000
 40
0.000000
 40
0.000000
 40
1.125797
 40
2.251381
 40
3.377182
 40
3.377182
 40
3.377182
 40
3.377182
 10
5.089164
 20
80.452002
 30
0.0
 10
5.456407
 20
80.545819
 30
0.0
 10
6.190825
 20
80.733435
 30
0.0
 10
7.343667
 20
80.444539
 30
0.0
 10
7.902775
 20
79.932701
 30
0.0
 10
8.182356
 20
79.676758
 30
0.0
 11
5.089164
 21
80.452002
 31
0.0
 11
6.199426
 21
80.638383
 31
0.0
 11
7.291245
 21
80.364762
 31
0.0
 11
8.182356
 21
79.676758
 31
0.0
  0
SPLINE
  5
12e
100
AcDbEntity
  8
Layer_1
 62
7
100
AcDbSpline
 70
0
 71
3
 72
10
 73
6
 74
4
 40
0.000000
 40
0.000000
 40
0.000000
 40
0.000000
 40
1.125768
 40
2.251342
 40
3.377113
 40
3.377113
 40
3.377113
 40
3.377113
 10
8.182356
 20
79.676758
 30
0.0
 10
8.391324
 20
79.360538
 30
0.0
 10
8.809225
 20
78.728154
 30
0.0
 10
8.913991
 20
77.544307
 30
0.0
 10
8.613571
 20
76.848384
 30
0.0
 10
8.463348
 20
76.500392
 30
0.0
 11
8.182356
 21
79.676758
 31
0.0
 11
8.722231
 21
78.688887
 31
0.0
 11
8.821436
 21
77.567693
 31
0.0
 11
8.463348
 21
76.500392
 31
0.0
  0
LINE
  5
12f
100
AcDbEntity
  8
Layer_1
 62
7
100
AcDbLine
 10
8.315909
 20
76.274715
 30
0.0
 11
8.315909
 21
76.274715
 31
0.0
  0
SPLINE
  5
130
100
AcDbEntity
  8
Layer_1
 62
7
100
AcDbSpline
 70
0
 71
3
 72
10
 73
6
 74
4
 40
0.000000
 40
0.000000
 40
0.000000
 40
0.000000
 40
0.089889
 40
0.179778
 40
0.269667
 40
0.269667
 40
0.269667
 40
0.269667
 10
8.463348
 20
76.500392
 30
0.0
 10
8.447958
 20
76.474681
 30
0.0
 10
8.417180
 20
76.423259
 30
0.0
 10
8.368016
 20
76.347968
 30
0.0
 10
8.333278
 20
76.299133
 30
0.0
 10
8.315909
 20
76.274715
 30
0.0
 11
8.463348
 21
76.500392
 31
0.0
 11
8.416680
 21
76.423565
 31
0.0
 11
8.367525
 21
76.348307
 31
0.0
 11
8.315909
 21
76.274715
 31
0.0
  0
SPLINE
  5
131
100
AcDbEntity
  8
Layer_1
 62
7
100
AcDbSpline
 70
0
 71
3
 72
10
 73
6
 74
4
 40
0.000000
 40
0.000000
 40
0.000000
 40
0.000000
 40
0.736941
 40
1.473707
 40
2.210644
 40
2.210644
 40
2.210644
 40
2.210644
 10
7.097310
 20
55.199111
 30
0.0
 10
7.217448
 20
54.982019
 30
0.0
 10
7.457695
 20
54.547888
 30
0.0
 10
7.465318
 20
53.769969
 30
0.0
 10
7.233610
 20
53.331220
 30
0.0
 10
7.117743
 20
53.111820
 30
0.0
 11
7.097310
 21
55.199111
 31
0.0
 11
7.398919
 21
54.526716
 31
0.0
 11
7.406134
 21
53.789985
 31
0.0
 11
7.117743
 21
53.111820
 31
0.0
  0
SPLINE
  5
132
100
AcDbEntity
  8
Layer_1
 62
7
100
AcDbSpline
 70
0
 71
3
 72
10
 73
6
 74
4
 40
0.000000
 40
0.000000
 40
0.000000
 40
0.000000
 40
0.736910
 40
1.473647
 40
2.210556
 40
2.210556
 40
2.210556
 40
2.210556
 10
7.117743
 20
53.111820
 30
0.0
 10
6.951986
 20
52.927211
 30
0.0
 10
6.620510
 20
52.558035
 30
0.0
 10
5.888049
 20
52.296003
 30
0.0
 10
5.397623
 20
52.371181
 30
0.0
 10
5.152382
 20
52.408774
 30
0.0
 11
7.117743
 21
53.111820
 31
0.0
 11
6.581258
 21
52.606627
 31
0.0
 11
5.887571
 21
52.358473
 31
0.0
 11
5.152382
 21
52.408774
 31
0.0
  0
SPLINE
  5
133
100
AcDbEntity
  8
Layer_1
 62
7
100
AcDbSpline
 70
0
 71
3
 72
10
 73
6
 74
4
 40
0.000000
 40
0.000000
 40
0.000000
 40
0.000000
 40
0.736905
 40
1.473661
 40
2.210564
 40
2.210564
 40
2.210564
 40
2.210564
 10
5.152382
 20
52.408774
 30
0.0
 10
4.923661
 20
52.504909
 30
0.0
 10
4.466267
 20
52.697160
 30
0.0
 10
3.978724
 20
53.303351
 30
0.0
 10
3.889099
 20
53.791349
 30
0.0
 10
3.844282
 20
54.035373
 30
0.0
 11
5.152382
 21
52.408774
 31
0.0
 11
4.499321
 21
52.750156
 31
0.0
 11
4.037592
 21
53.324278
 31
0.0
 11
3.844282
 21
54.035373
 31
0.0
  0
SPLINE
  5
134
100
AcDbEntity
  8
Layer_1
 62
7
100
AcDbSpline
 70
0
 71
3
 72
10
 73
6
 74
4
 40
0.000000
 40
0.000000
 40
0.000000
 40
0.000000
 40
0.736885
 40
1.473635
 40
2.210526
 40
2.210526
 40
2.210526
 40
2.210526
 10
3.844282
 20
54.035373
 30
0.0
 10
3.860164
 20
54.282962
 30
0.0
 10
3.891925
 20
54.778096
 30
0.0
 10
4.304979
 20
55.437294
 30
0.0
 10
4.736682
 20
55.681832
 30
0.0
 10
4.952554
 20
55.804113
 30
0.0
 11
3.844282
 21
54.035373
 31
0.0
 11
3.952839
 21
54.764218
 31
0.0
 11
4.344031
 21
55.388533
 31
0.0
 11
4.952554
 21
55.804113
 31
0.0
  0
LINE
  5
135
100
AcDbEntity
  8
Layer_1
 62
7
100
AcDbLine
 10
7.097324
 20
55.199111
 30
0.0
 11
7.097310
 21
55.199111
 31
0.0
  0
SPLINE
  5
136
100
AcDbEntity
  8
Layer_1
 62
7
100
AcDbSpline
 70
0
 71
3
 72
13
 73
9
 74
7
 40
0.000000
 40
0.000000
 40
0.000000
 40
0.000000
 40
0.736855
 40
1.473582
 40
2.210438
 40
2.269274
 40
2.328110
 40
2.386946
 40
2.386946
 40
2.386946
 40
2.386946
 10
4.952554
 20
55.804113
 30
0.0
 10
5.192550
 20
55.870989
 30
0.0
 10
5.672500
 20
56.004729
 30
0.0
 10
6.417401
 20
55.819166
 30
0.0
 10
6.839580
 20
55.508140
 30
0.0
 10
7.025271
 20
55.292139
 30
0.0
 10
7.062280
 20
55.246377
 30
0.0
 10
7.085643
 20
55.214866
 30
0.0
 10
7.097324
 20
55.199111
 30
0.0
 11
4.952554
 21
55.804113
 31
0.0
 11
5.676702
 21
55.940368
 31
0.0
 11
6.394708
 21
55.775339
 31
0.0
 11
6.986662
 21
55.336539
 31
0.0
 11
7.025046
 21
55.291948
 31
0.0
 11
7.061952
 21
55.246126
 31
0.0
 11
7.097324
 21
55.199111
 31
0.0
  0
SPLINE
  5
137
100
AcDbEntity
  8
Layer_1
 62
7
100
AcDbSpline
 70
0
 71
3
 72
10
 73
6
 74
4
 40
0.000000
 40
0.000000
 40
0.000000
 40
0.000000
 40
0.736933
 40
1.473693
 40
2.210632
 40
2.210632
 40
2.210632
 40
2.210632
 10
119.641109
 20
52.341131
 30
0.0
 10
119.394866
 20
52.371551
 30
0.0
 10
118.902438
 20
52.432384
 30
0.0
 10
118.268648
 20
52.883495
 30
0.0
 10
118.049845
 20
53.328812
 30
0.0
 10
117.940430
 20
53.551497
 30
0.0
 11
119.641109
 21
52.341131
 31
0.0
 11
118.919864
 21
52.492379
 31
0.0
 11
118.319614
 21
52.919596
 31
0.0
 11
117.940430
 21
53.551497
 31
0.0
  0
SPLINE
  5
138
100
AcDbEntity
  8
Layer_1
 62
7
100
AcDbSpline
 70
0
 71
3
 72
10
 73
6
 74
4
 40
0.000000
 40
0.000000
 40
0.000000
 40
0.000000
 40
0.736919
 40
1.473667
 40
2.210593
 40
2.210593
 40
2.210593
 40
2.210593
 10
117.940430
 20
53.551497
 30
0.0
 10
117.888506
 20
53.794113
 30
0.0
 10
117.784672
 20
54.279287
 30
0.0
 10
118.003261
 20
55.025879
 30
0.0
 10
118.352355
 20
55.378455
 30
0.0
 10
118.526924
 20
55.554764
 30
0.0
 11
117.940430
 21
53.551497
 31
0.0
 11
117.847063
 21
54.282477
 31
0.0
 11
118.054074
 21
54.989544
 31
0.0
 11
118.526924
 21
55.554764
 31
0.0
  0
SPLINE
  5
139
100
AcDbEntity
  8
Layer_1
 62
7
100
AcDbSpline
 70
0
 71
3
 72
10
 73
6
 74
4
 40
0.000000
 40
0.000000
 40
0.000000
 40
0.000000
 40
0.736896
 40
1.473639
 40
2.210535
 40
2.210535
 40
2.210535
 40
2.210535
 10
118.526924
 20
55.554764
 30
0.0
 10
118.739130
 20
55.683305
 30
0.0
 10
119.163496
 20
55.940360
 30
0.0
 10
119.940484
 20
55.978461
 30
0.0
 10
120.387948
 20
55.764112
 30
0.0
 10
120.611702
 20
55.656926
 30
0.0
 11
118.526924
 21
55.554764
 31
0.0
 11
119.186947
 21
55.882461
 31
0.0
 11
119.922806
 21
55.918534
 31
0.0
 11
120.611702
 21
55.656926
 31
0.0
  0
SPLINE
  5
13a
100
AcDbEntity
  8
Layer_1
 62
7
100
AcDbSpline
 70
0
 71
3
 72
10
 73
6
 74
4
 40
0.000000
 40
0.000000
 40
0.000000
 40
0.000000
 40
0.736886
 40
1.473626
 40
2.210509
 40
2.210509
 40
2.210509
 40
2.210509
 10
120.611702
 20
55.656926
 30
0.0
 10
120.802668
 20
55.498548
 30
0.0
 10
121.184562
 20
55.181823
 30
0.0
 10
121.475155
 20
54.460222
 30
0.0
 10
121.419221
 20
53.967233
 30
0.0
 10
121.391251
 20
53.720715
 30
0.0
 11
120.611702
 21
55.656926
 31
0.0
 11
121.137548
 21
55.140702
 31
0.0
 11
121.412734
 21
54.457285
 31
0.0
 11
121.391251
 21
53.720715
 31
0.0
  0
LINE
  5
13b
100
AcDbEntity
  8
Layer_1
 62
7
100
AcDbLine
 10
119.641109
 20
52.341128
 30
0.0
 11
119.641109
 21
52.341131
 31
0.0
  0
SPLINE
  5
13c
100
AcDbEntity
  8
Layer_1
 62
7
100
AcDbSpline
 70
0
 71
3
 72
13
 73
9
 74
7
 40
0.000000
 40
0.000000
 40
0.000000
 40
0.000000
 40
0.736864
 40
1.473605
 40
2.210467
 40
2.269301
 40
2.328136
 40
2.386970
 40
2.386970
 40
2.386970
 40
2.386970
 10
121.391251
 20
53.720715
 30
0.0
 10
121.304278
 20
53.487247
 30
0.0
 10
121.130345
 20
53.020349
 30
0.0
 10
120.542391
 20
52.526779
 30
0.0
 10
120.042618
 20
52.367979
 30
0.0
 10
119.758719
 20
52.344745
 30
0.0
 10
119.699946
 20
52.341697
 30
0.0
 10
119.660721
 20
52.341318
 30
0.0
 10
119.641109
 20
52.341128
 30
0.0
 11
121.391251
 21
53.720715
 31
0.0
 11
121.075815
 21
53.054781
 31
0.0
 11
120.520270
 21
52.570882
 31
0.0
 11
119.817332
 21
52.349877
 31
0.0
 11
119.758697
 21
52.345037
 31
0.0
 11
119.699935
 21
52.342111
 31
0.0
 11
119.641109
 21
52.341128
 31
0.0
  0
SPLINE
  5
13d
100
AcDbEntity
  8
Layer_1
 62
7
100
AcDbSpline
 70
0
 71
3
 72
10
 73
6
 74
4
 40
0.000000
 40
0.000000
 40
0.000000
 40
0.000000
 40
1.125895
 40
2.251523
 40
3.377418
 40
3.377418
 40
3.377418
 40
3.377418
 10
121.806510
 20
31.240927
 30
0.0
 10
121.878561
 20
30.868768
 30
0.0
 10
122.022646
 20
30.124536
 30
0.0
 10
121.666456
 20
28.990615
 30
0.0
 10
121.122659
 20
28.462477
 30
0.0
 10
120.850728
 20
28.198377
 30
0.0
 11
121.806510
 21
31.240927
 31
0.0
 11
121.927257
 21
30.121526
 31
0.0
 11
121.589916
 21
29.047636
 31
0.0
 11
120.850728
 21
28.198377
 31
0.0
  0
SPLINE
  5
13e
100
AcDbEntity
  8
Layer_1
 62
7
100
AcDbSpline
 70
0
 71
3
 72
10
 73
6
 74
4
 40
0.000000
 40
0.000000
 40
0.000000
 40
0.000000
 40
1.125848
 40
2.251441
 40
3.377291
 40
3.377291
 40
3.377291
 40
3.377291
 10
120.850728
 20
28.198377
 30
0.0
 10
120.522716
 20
28.008402
 30
0.0
 10
119.866768
 20
27.628496
 30
0.0
 10
118.678777
 20
27.593582
 30
0.0
 10
118.001668
 20
27.934359
 30
0.0
 10
117.663076
 20
28.104767
 30
0.0
 11
120.850728
 21
28.198377
 31
0.0
 11
119.832682
 21
27.717631
 31
0.0
 11
118.707575
 21
27.684577
 31
0.0
 11
117.663076
 21
28.104767
 31
0.0
  0
SPLINE
  5
13f
100
AcDbEntity
  8
Layer_1
 62
7
100
AcDbSpline
 70
0
 71
3
 72
10
 73
6
 74
4
 40
0.000000
 40
0.000000
 40
0.000000
 40
0.000000
 40
1.125833
 40
2.251430
 40
3.377266
 40
3.377266
 40
3.377266
 40
3.377266
 10
117.663076
 20
28.104767
 30
0.0
 10
117.376120
 20
28.352426
 30
0.0
 10
116.802269
 20
28.847692
 30
0.0
 10
116.380092
 20
29.958691
 30
0.0
 10
116.480280
 20
30.710066
 30
0.0
 10
116.530380
 20
31.085793
 30
0.0
 11
117.663076
 21
28.104767
 31
0.0
 11
116.875327
 21
28.909100
 31
0.0
 11
116.475509
 21
29.961295
 31
0.0
 11
116.530380
 21
31.085793
 31
0.0
  0
SPLINE
  5
140
100
AcDbEntity
  8
Layer_1
 62
7
100
AcDbSpline
 70
0
 71
3
 72
10
 73
6
 74
4
 40
0.000000
 40
0.000000
 40
0.000000
 40
0.000000
 40
1.125790
 40
2.251365
 40
3.377160
 40
3.377160
 40
3.377160
 40
3.377160
 10
116.530380
 20
31.085793
 30
0.0
 10
116.670341
 20
31.438041
 30
0.0
 10
116.950237
 20
32.142469
 30
0.0
 10
117.861583
 20
32.905315
 30
0.0
 10
118.604300
 20
33.056789
 30
0.0
 10
118.975694
 20
33.132533
 30
0.0
 11
116.530380
 21
31.085793
 31
0.0
 11
117.032191
 21
32.093557
 31
0.0
 11
117.895310
 21
32.816014
 31
0.0
 11
118.975694
 21
33.132533
 31
0.0
  0
SPLINE
  5
141
100
AcDbEntity
  8
Layer_1
 62
7
100
AcDbSpline
 70
0
 71
3
 72
10
 73
6
 74
4
 40
0.000000
 40
0.000000
 40
0.000000
 40
0.000000
 40
1.125767
 40
2.251341
 40
3.377109
 40
3.377109
 40
3.377109
 40
3.377109
 10
118.975694
 20
33.132533
 30
0.0
 10
119.354349
 20
33.115725
 30
0.0
 10
120.111594
 20
33.082110
 30
0.0
 10
121.130932
 20
32.471031
 30
0.0
 10
121.517366
 20
31.818935
 30
0.0
 10
121.710600
 20
31.492859
 30
0.0
 11
118.975694
 21
33.132533
 31
0.0
 11
120.092229
 21
32.988651
 31
0.0
 11
121.057609
 21
32.409896
 31
0.0
 11
121.710600
 21
31.492859
 31
0.0
  0
LINE
  5
142
100
AcDbEntity
  8
Layer_1
 62
7
100
AcDbLine
 10
121.806510
 20
31.240927
 30
0.0
 11
121.806510
 21
31.240927
 31
0.0
  0
SPLINE
  5
143
100
AcDbEntity
  8
Layer_1
 62
7
100
AcDbSpline
 70
0
 71
3
 72
10
 73
6
 74
4
 40
0.000000
 40
0.000000
 40
0.000000
 40
0.000000
 40
0.089890
 40
0.179779
 40
0.269668
 40
0.269668
 40
0.269668
 40
0.269668
 10
121.710600
 20
31.492859
 30
0.0
 10
121.722354
 20
31.465296
 30
0.0
 10
121.745863
 20
31.410169
 30
0.0
 10
121.777875
 20
31.326139
 30
0.0
 10
121.796965
 20
31.269331
 30
0.0
 10
121.806510
 20
31.240927
 30
0.0
 11
121.710600
 21
31.492859
 31
0.0
 11
121.745321
 21
31.409946
 31
0.0
 11
121.777313
 21
31.325942
 31
0.0
 11
121.806510
 21
31.240927
 31
0.0
  0
SPLINE
  5
144
100
AcDbEntity
  8
Layer_1
 62
7
100
AcDbSpline
 70
0
 71
3
 72
10
 73
6
 74
4
 40
0.000000
 40
0.000000
 40
0.000000
 40
0.000000
 40
1.125889
 40
2.251510
 40
3.377398
 40
3.377398
 40
3.377398
 40
3.377398
 10
3.866312
 20
28.774700
 30
0.0
 10
3.682787
 20
29.106380
 30
0.0
 10
3.315781
 20
29.769660
 30
0.0
 10
3.304145
 20
30.958143
 30
0.0
 10
3.658113
 20
31.628474
 30
0.0
 10
3.835118
 20
31.963679
 30
0.0
 11
3.866312
 21
28.774700
 31
0.0
 11
3.405571
 21
29.802000
 31
0.0
 11
3.394556
 21
30.927567
 31
0.0
 11
3.835118
 21
31.963679
 31
0.0
  0
SPLINE
  5
145
100
AcDbEntity
  8
Layer_1
 62
7
100
AcDbSpline
 70
0
 71
3
 72
10
 73
6
 74
4
 40
0.000000
 40
0.000000
 40
0.000000
 40
0.000000
 40
1.125856
 40
2.251455
 40
3.377311
 40
3.377311
 40
3.377311
 40
3.377311
 10
3.835118
 20
31.963679
 30
0.0
 10
4.088371
 20
32.245720
 30
0.0
 10
4.594819
 20
32.809737
 30
0.0
 10
5.713888
 20
33.210046
 30
0.0
 10
6.463165
 20
33.095178
 30
0.0
 10
6.837847
 20
33.037738
 30
0.0
 11
3.835118
 21
31.963679
 31
0.0
 11
4.654783
 21
32.735496
 31
0.0
 11
5.714617
 21
33.114604
 31
0.0
 11
6.837847
 21
33.037738
 31
0.0
  0
SPLINE
  5
146
100
AcDbEntity
  8
Layer_1
 62
7
100
AcDbSpline
 70
0
 71
3
 72
10
 73
6
 74
4
 40
0.000000
 40
0.000000
 40
0.000000
 40
0.000000
 40
1.125820
 40
2.251401
 40
3.377223
 40
3.377223
 40
3.377223
 40
3.377223
 10
6.837847
 20
33.037738
 30
0.0
 10
7.187284
 20
32.890876
 30
0.0
 10
7.886085
 20
32.597183
 30
0.0
 10
8.630917
 20
31.671042
 30
0.0
 10
8.767824
 20
30.925492
 30
0.0
 10
8.836285
 20
30.552678
 30
0.0
 11
6.837847
 21
33.037738
 31
0.0
 11
7.835582
 21
32.516206
 31
0.0
 11
8.540975
 21
31.639079
 31
0.0
 11
8.836285
 21
30.552678
 31
0.0
  0
SPLINE
  5
147
100
AcDbEntity
  8
Layer_1
 62
7
100
AcDbSpline
 70
0
 71
3
 72
10
 73
6
 74
4
 40
0.000000
 40
0.000000
 40
0.000000
 40
0.000000
 40
1.125803
 40
2.251388
 40
3.377194
 40
3.377194
 40
3.377194
 40
3.377194
 10
8.836285
 20
30.552678
 30
0.0
 10
8.812026
 20
30.174416
 30
0.0
 10
8.763512
 20
29.417964
 30
0.0
 10
8.132511
 20
28.410813
 30
0.0
 10
7.472946
 20
28.037237
 30
0.0
 10
7.143132
 20
27.850431
 30
0.0
 11
8.836285
 21
30.552678
 31
0.0
 11
8.670454
 21
29.439155
 31
0.0
 11
8.072836
 21
28.485323
 31
0.0
 11
7.143132
 21
27.850431
 31
0.0
  0
SPLINE
  5
148
100
AcDbEntity
  8
Layer_1
 62
7
100
AcDbSpline
 70
0
 71
3
 72
10
 73
6
 74
4
 40
0.000000
 40
0.000000
 40
0.000000
 40
0.000000
 40
1.125769
 40
2.251345
 40
3.377116
 40
3.377116
 40
3.377116
 40
3.377116
 10
7.143132
 20
27.850431
 30
0.0
 10
6.777814
 20
27.749410
 30
0.0
 10
6.047241
 20
27.547385
 30
0.0
 10
4.888960
 20
27.813568
 30
0.0
 10
4.319927
 20
28.314332
 30
0.0
 10
4.035385
 20
28.564735
 30
0.0
 11
7.143132
 21
27.850431
 31
0.0
 11
6.036779
 21
27.642253
 31
0.0
 11
4.939801
 21
27.894367
 31
0.0
 11
4.035385
 21
28.564735
 31
0.0
  0
LINE
  5
149
100
AcDbEntity
  8
Layer_1
 62
7
100
AcDbLine
 10
3.866312
 20
28.774700
 30
0.0
 11
3.866312
 21
28.774700
 31
0.0
  0
SPLINE
  5
14a
100
AcDbEntity
  8
Layer_1
 62
7
100
AcDbSpline
 70
0
 71
3
 72
10
 73
6
 74
4
 40
0.000000
 40
0.000000
 40
0.000000
 40
0.000000
 40
0.089891
 40
0.179782
 40
0.269673
 40
0.269673
 40
0.269673
 40
0.269673
 10
4.035385
 20
28.564735
 30
0.0
 10
4.015688
 20
28.587317
 30
0.0
 10
3.976294
 20
28.632481
 30
0.0
 10
3.919879
 20
28.702507
 30
0.0
 10
3.884167
 20
28.750636
 30
0.0
 10
3.866312
 20
28.774700
 30
0.0
 11
4.035385
 21
28.564735
 31
0.0
 11
3.976740
 21
28.632861
 31
0.0
 11
3.920353
 21
28.702868
 31
0.0
 11
3.866312
 21
28.774700
 31
0.0
  0
SPLINE
  5
14b
100
AcDbEntity
  8
Layer_1
 62
7
100
AcDbSpline
 70
0
 71
3
 72
10
 73
6
 74
4
 40
0.000000
 40
0.000000
 40
0.000000
 40
0.000000
 40
0.736948
 40
1.473726
 40
2.210671
 40
2.210671
 40
2.210671
 40
2.210671
 10
62.641110
 20
4.341114
 30
0.0
 10
62.394866
 20
4.371546
 30
0.0
 10
61.902434
 20
4.432405
 30
0.0
 10
61.268611
 20
4.883495
 30
0.0
 10
61.049830
 20
5.328837
 30
0.0
 10
60.940428
 20
5.551534
 30
0.0
 11
62.641110
 21
4.341114
 31
0.0
 11
61.919856
 21
4.492390
 31
0.0
 11
61.319585
 21
4.919609
 31
0.0
 11
60.940428
 21
5.551534
 31
0.0
  0
SPLINE
  5
14c
100
AcDbEntity
  8
Layer_1
 62
7
100
AcDbSpline
 70
0
 71
3
 72
10
 73
6
 74
4
 40
0.000000
 40
0.000000
 40
0.000000
 40
0.000000
 40
0.736903
 40
1.473639
 40
2.210544
 40
2.210544
 40
2.210544
 40
2.210544
 10
60.940428
 20
5.551534
 30
0.0
 10
60.888513
 20
5.794144
 30
0.0
 10
60.784695
 20
6.279309
 30
0.0
 10
61.003247
 20
7.025896
 30
0.0
 10
61.352351
 20
7.378452
 30
0.0
 10
61.526922
 20
7.554750
 30
0.0
 11
60.940428
 21
5.551534
 31
0.0
 11
60.847076
 21
6.282500
 31
0.0
 11
61.054071
 21
6.989560
 31
0.0
 11
61.526922
 21
7.554750
 31
0.0
  0
SPLINE
  5
14d
100
AcDbEntity
  8
Layer_1
 62
7
100
AcDbSpline
 70
0
 71
3
 72
10
 73
6
 74
4
 40
0.000000
 40
0.000000
 40
0.000000
 40
0.000000
 40
0.736906
 40
1.473652
 40
2.210556
 40
2.210556
 40
2.210556
 40
2.210556
 10
61.526922
 20
7.554750
 30
0.0
 10
61.739129
 20
7.683296
 30
0.0
 10
62.163495
 20
7.940359
 30
0.0
 10
62.940494
 20
7.978468
 30
0.0
 10
63.387955
 20
7.764103
 30
0.0
 10
63.611709
 20
7.656909
 30
0.0
 11
61.526922
 21
7.554750
 31
0.0
 11
62.186950
 21
7.882460
 31
0.0
 11
62.922812
 21
7.918536
 31
0.0
 11
63.611709
 21
7.656909
 31
0.0
  0
SPLINE
  5
14e
100
AcDbEntity
  8
Layer_1
 62
7
100
AcDbSpline
 70
0
 71
3
 72
10
 73
6
 74
4
 40
0.000000
 40
0.000000
 40
0.000000
 40
0.000000
 40
0.736867
 40
1.473592
 40
2.210459
 40
2.210459
 40
2.210459
 40
2.210459
 10
63.611709
 20
7.656909
 30
0.0
 10
63.802677
 20
7.498541
 30
0.0
 10
64.184577
 20
7.181836
 30
0.0
 10
64.475132
 20
6.460238
 30
0.0
 10
64.419210
 20
5.967261
 30
0.0
 10
64.391246
 20
5.720749
 30
0.0
 11
63.611709
 21
7.656909
 31
0.0
 11
64.137554
 21
7.140712
 31
0.0
 11
64.412721
 21
6.457303
 31
0.0
 11
64.391246
 21
5.720749
 31
0.0
  0
LINE
  5
14f
100
AcDbEntity
  8
Layer_1
 62
7
100
AcDbLine
 10
62.641110
 20
4.341117
 30
0.0
 11
62.641110
 21
4.341114
 31
0.0
  0
SPLINE
  5
150
100
AcDbEntity
  8
Layer_1
 62
7
100
AcDbSpline
 70
0
 71
3
 72
13
 73
9
 74
7
 40
0.000000
 40
0.000000
 40
0.000000
 40
0.000000
 40
0.736871
 40
1.473620
 40
2.210494
 40
2.269331
 40
2.328168
 40
2.387006
 40
2.387006
 40
2.387006
 40
2.387006
 10
64.391246
 20
5.720749
 30
0.0
 10
64.304287
 20
5.487273
 30
0.0
 10
64.130381
 20
5.020359
 30
0.0
 10
63.542400
 20
4.526772
 30
0.0
 10
63.042624
 20
4.368038
 30
0.0
 10
62.758727
 20
4.344717
 30
0.0
 10
62.699950
 20
4.341681
 30
0.0
 10
62.660723
 20
4.341305
 30
0.0
 10
62.641110
 20
4.341117
 30
0.0
 11
64.391246
 21
5.720749
 31
0.0
 11
64.075840
 21
5.054792
 31
0.0
 11
63.520284
 21
4.570895
 31
0.0
 11
62.817341
 21
4.349866
 31
0.0
 11
62.758704
 21
4.345014
 31
0.0
 11
62.699939
 21
4.342093
 31
0.0
 11
62.641110
 21
4.341117
 31
0.0
  0
SPLINE
  5
151
100
AcDbEntity
  8
Layer_1
 62
7
100
AcDbSpline
 70
0
 71
3
 72
10
 73
6
 74
4
 40
0.000000
 40
0.000000
 40
0.000000
 40
0.000000
 40
0.736948
 40
1.473715
 40
2.210667
 40
2.210667
 40
2.210667
 40
2.210667
 10
89.684911
 20
5.083104
 30
0.0
 10
89.564777
 20
5.300200
 30
0.0
 10
89.324538
 20
5.734339
 30
0.0
 10
89.316922
 20
6.512264
 30
0.0
 10
89.548635
 20
6.951016
 30
0.0
 10
89.664506
 20
7.170420
 30
0.0
 11
89.684911
 21
5.083104
 31
0.0
 11
89.383313
 21
5.755511
 31
0.0
 11
89.376105
 21
6.492243
 31
0.0
 11
89.664506
 21
7.170420
 31
0.0
  0
SPLINE
  5
152
100
AcDbEntity
  8
Layer_1
 62
7
100
AcDbSpline
 70
0
 71
3
 72
10
 73
6
 74
4
 40
0.000000
 40
0.000000
 40
0.000000
 40
0.000000
 40
0.736905
 40
1.473644
 40
2.210545
 40
2.210545
 40
2.210545
 40
2.210545
 10
89.664506
 20
7.170420
 30
0.0
 10
89.830269
 20
7.355020
 30
0.0
 10
90.161758
 20
7.724179
 30
0.0
 10
90.894204
 20
7.986239
 30
0.0
 10
91.384628
 20
7.911045
 30
0.0
 10
91.629868
 20
7.873444
 30
0.0
 11
89.664506
 21
7.170420
 31
0.0
 11
90.201002
 21
7.675595
 31
0.0
 11
90.894686
 21
7.923760
 31
0.0
 11
91.629868
 21
7.873444
 31
0.0
  0
SPLINE
  5
153
100
AcDbEntity
  8
Layer_1
 62
7
100
AcDbSpline
 70
0
 71
3
 72
10
 73
6
 74
4
 40
0.000000
 40
0.000000
 40
0.000000
 40
0.000000
 40
0.736904
 40
1.473649
 40
2.210551
 40
2.210551
 40
2.210551
 40
2.210551
 10
91.629868
 20
7.873444
 30
0.0
 10
91.858588
 20
7.777310
 30
0.0
 10
92.315980
 20
7.585064
 30
0.0
 10
92.803519
 20
6.978876
 30
0.0
 10
92.893147
 20
6.490882
 30
0.0
 10
92.937965
 20
6.246859
 30
0.0
 11
91.629868
 21
7.873444
 31
0.0
 11
92.282928
 21
7.532065
 31
0.0
 11
92.744650
 21
6.957952
 31
0.0
 11
92.937965
 21
6.246859
 31
0.0
  0
SPLINE
  5
154
100
AcDbEntity
  8
Layer_1
 62
7
100
AcDbSpline
 70
0
 71
3
 72
10
 73
6
 74
4
 40
0.000000
 40
0.000000
 40
0.000000
 40
0.000000
 40
0.736883
 40
1.473627
 40
2.210514
 40
2.210514
 40
2.210514
 40
2.210514
 10
92.937965
 20
6.246859
 30
0.0
 10
92.922081
 20
5.999271
 30
0.0
 10
92.890316
 20
5.504142
 30
0.0
 10
92.477278
 20
4.844937
 30
0.0
 10
92.045570
 20
4.600410
 30
0.0
 10
91.829695
 20
4.478136
 30
0.0
 11
92.937965
 21
6.246859
 31
0.0
 11
92.829405
 21
5.518016
 31
0.0
 11
92.438223
 21
4.893702
 31
0.0
 11
91.829695
 21
4.478136
 31
0.0
  0
LINE
  5
155
100
AcDbEntity
  8
Layer_1
 62
7
100
AcDbLine
 10
89.684925
 20
5.083104
 30
0.0
 11
89.684911
 21
5.083104
 31
0.0
  0
SPLINE
  5
156
100
AcDbEntity
  8
Layer_1
 62
7
100
AcDbSpline
 70
0
 71
3
 72
13
 73
9
 74
7
 40
0.000000
 40
0.000000
 40
0.000000
 40
0.000000
 40
0.736852
 40
1.473578
 40
2.210436
 40
2.269271
 40
2.328105
 40
2.386938
 40
2.386938
 40
2.386938
 40
2.386938
 10
91.829695
 20
4.478136
 30
0.0
 10
91.589701
 20
4.411247
 30
0.0
 10
91.109755
 20
4.277481
 30
0.0
 10
90.364865
 20
4.463086
 30
0.0
 10
89.942669
 20
4.774081
 30
0.0
 10
89.756976
 20
4.990080
 30
0.0
 10
89.719967
 20
5.035839
 30
0.0
 10
89.696606
 20
5.067349
 30
0.0
 10
89.684925
 20
5.083104
 30
0.0
 11
91.829695
 21
4.478136
 31
0.0
 11
91.105555
 21
4.341855
 31
0.0
 11
90.387554
 21
4.506897
 31
0.0
 11
89.795584
 21
4.945682
 31
0.0
 11
89.757200
 21
4.990271
 31
0.0
 11
89.720295
 21
5.036090
 31
0.0
 11
89.684925
 21
5.083104
 31
0.0
  0
SPLINE
  5
157
100
AcDbEntity
  8
Layer_1
 62
7
100
AcDbSpline
 70
0
 71
3
 72
10
 73
6
 74
4
 40
0.000000
 40
0.000000
 40
0.000000
 40
0.000000
 40
0.736948
 40
1.473715
 40
2.210660
 40
2.210660
 40
2.210660
 40
2.210660
 10
121.097311
 20
7.199122
 30
0.0
 10
121.217445
 20
6.982026
 30
0.0
 10
121.457684
 20
6.547888
 30
0.0
 10
121.465306
 20
5.769967
 30
0.0
 10
121.233607
 20
5.331211
 30
0.0
 10
121.117744
 20
5.111806
 30
0.0
 11
121.097311
 21
7.199122
 31
0.0
 11
121.398910
 21
6.526715
 31
0.0
 11
121.406125
 21
5.789984
 31
0.0
 11
121.117744
 21
5.111806
 31
0.0
  0
SPLINE
  5
158
100
AcDbEntity
  8
Layer_1
 62
7
100
AcDbSpline
 70
0
 71
3
 72
10
 73
6
 74
4
 40
0.000000
 40
0.000000
 40
0.000000
 40
0.000000
 40
0.736905
 40
1.473644
 40
2.210545
 40
2.210545
 40
2.210545
 40
2.210545
 10
121.117744
 20
5.111806
 30
0.0
 10
120.951980
 20
4.927207
 30
0.0
 10
120.620491
 20
4.558049
 30
0.0
 10
119.888046
 20
4.295986
 30
0.0
 10
119.397621
 20
4.371181
 30
0.0
 10
119.152382
 20
4.408782
 30
0.0
 11
121.117744
 21
5.111806
 31
0.0
 11
120.581247
 21
4.606632
 31
0.0
 11
119.887563
 21
4.358466
 31
0.0
 11
119.152382
 21
4.408782
 31
0.0
  0
SPLINE
  5
159
100
AcDbEntity
  8
Layer_1
 62
7
100
AcDbSpline
 70
0
 71
3
 72
10
 73
6
 74
4
 40
0.000000
 40
0.000000
 40
0.000000
 40
0.000000
 40
0.736912
 40
1.473665
 40
2.210576
 40
2.210576
 40
2.210576
 40
2.210576
 10
119.152382
 20
4.408782
 30
0.0
 10
118.923659
 20
4.504917
 30
0.0
 10
118.466262
 20
4.697166
 30
0.0
 10
117.978722
 20
5.303366
 30
0.0
 10
117.889099
 20
5.791366
 30
0.0
 10
117.844282
 20
6.035393
 30
0.0
 11
119.152382
 21
4.408782
 31
0.0
 11
118.499316
 21
4.750166
 31
0.0
 11
118.037592
 21
5.324289
 31
0.0
 11
117.844282
 21
6.035393
 31
0.0
  0
SPLINE
  5
15a
100
AcDbEntity
  8
Layer_1
 62
7
100
AcDbSpline
 70
0
 71
3
 72
10
 73
6
 74
4
 40
0.000000
 40
0.000000
 40
0.000000
 40
0.000000
 40
0.736875
 40
1.473612
 40
2.210490
 40
2.210490
 40
2.210490
 40
2.210490
 10
117.844282
 20
6.035393
 30
0.0
 10
117.860169
 20
6.282978
 30
0.0
 10
117.891940
 20
6.778101
 30
0.0
 10
118.304978
 20
7.437296
 30
0.0
 10
118.736682
 20
7.681818
 30
0.0
 10
118.952555
 20
7.804091
 30
0.0
 11
117.844282
 21
6.035393
 31
0.0
 11
117.952849
 21
6.764226
 31
0.0
 11
118.344033
 21
7.388531
 31
0.0
 11
118.952555
 21
7.804091
 31
0.0
  0
LINE
  5
15b
100
AcDbEntity
  8
Layer_1
 62
7
100
AcDbLine
 10
121.097325
 20
7.199122
 30
0.0
 11
121.097311
 21
7.199122
 31
0.0
  0
SPLINE
  5
15c
100
AcDbEntity
  8
Layer_1
 62
7
100
AcDbSpline
 70
0
 71
3
 72
13
 73
9
 74
7
 40
0.000000
 40
0.000000
 40
0.000000
 40
0.000000
 40
0.736851
 40
1.473577
 40
2.210435
 40
2.269269
 40
2.328103
 40
2.386937
 40
2.386937
 40
2.386937
 40
2.386937
 10
118.952555
 20
7.804091
 30
0.0
 10
119.192548
 20
7.870979
 30
0.0
 10
119.672494
 20
8.004745
 30
0.0
 10
120.417385
 20
7.819140
 30
0.0
 10
120.839577
 20
7.508142
 30
0.0
 10
121.025275
 20
7.292148
 30
0.0
 10
121.062283
 20
7.246388
 30
0.0
 10
121.085644
 20
7.214877
 30
0.0
 10
121.097325
 20
7.199122
 30
0.0
 11
118.952555
 21
7.804091
 31
0.0
 11
119.676694
 21
7.940371
 31
0.0
 11
120.394695
 21
7.775328
 31
0.0
 11
120.986666
 21
7.336544
 31
0.0
 11
121.025050
 21
7.291957
 31
0.0
 11
121.061955
 21
7.246137
 31
0.0
 11
121.097325
 21
7.199122
 31
0.0
  0
SPLINE
  5
15d
100
AcDbEntity
  8
Layer_1
 62
7
100
AcDbSpline
 70
0
 71
3
 72
10
 73
6
 74
4
 40
0.000000
 40
0.000000
 40
0.000000
 40
0.000000
 40
0.736948
 40
1.473715
 40
2.210660
 40
2.210660
 40
2.210660
 40
2.210660
 10
32.684909
 20
5.083104
 30
0.0
 10
32.564775
 20
5.300200
 30
0.0
 10
32.324536
 20
5.734339
 30
0.0
 10
32.316914
 20
6.512260
 30
0.0
 10
32.548613
 20
6.951015
 30
0.0
 10
32.664476
 20
7.170420
 30
0.0
 11
32.684909
 21
5.083104
 31
0.0
 11
32.383310
 21
5.755511
 31
0.0
 11
32.376095
 21
6.492243
 31
0.0
 11
32.664476
 21
7.170420
 31
0.0
  0
SPLINE
  5
15e
100
AcDbEntity
  8
Layer_1
 62
7
100
AcDbSpline
 70
0
 71
3
 72
10
 73
6
 74
4
 40
0.000000
 40
0.000000
 40
0.000000
 40
0.000000
 40
0.736905
 40
1.473644
 40
2.210545
 40
2.210545
 40
2.210545
 40
2.210545
 10
32.664476
 20
7.170420
 30
0.0
 10
32.830240
 20
7.355020
 30
0.0
 10
33.161729
 20
7.724177
 30
0.0
 10
33.894174
 20
7.986240
 30
0.0
 10
34.384599
 20
7.911045
 30
0.0
 10
34.629838
 20
7.873444
 30
0.0
 11
32.664476
 21
7.170420
 31
0.0
 11
33.200973
 21
7.675594
 31
0.0
 11
33.894657
 21
7.923760
 31
0.0
 11
34.629838
 21
7.873444
 31
0.0
  0
SPLINE
  5
15f
100
AcDbEntity
  8
Layer_1
 62
7
100
AcDbSpline
 70
0
 71
3
 72
10
 73
6
 74
4
 40
0.000000
 40
0.000000
 40
0.000000
 40
0.000000
 40
0.736903
 40
1.473649
 40
2.210551
 40
2.210551
 40
2.210551
 40
2.210551
 10
34.629838
 20
7.873444
 30
0.0
 10
34.858559
 20
7.777311
 30
0.0
 10
35.315951
 20
7.585064
 30
0.0
 10
35.803489
 20
6.978875
 30
0.0
 10
35.893116
 20
6.490882
 30
0.0
 10
35.937935
 20
6.246859
 30
0.0
 11
34.629838
 21
7.873444
 31
0.0
 11
35.282898
 21
7.532066
 31
0.0
 11
35.744620
 21
6.957952
 31
0.0
 11
35.937935
 21
6.246859
 31
0.0
  0
SPLINE
  5
160
100
AcDbEntity
  8
Layer_1
 62
7
100
AcDbSpline
 70
0
 71
3
 72
10
 73
6
 74
4
 40
0.000000
 40
0.000000
 40
0.000000
 40
0.000000
 40
0.736884
 40
1.473628
 40
2.210514
 40
2.210514
 40
2.210514
 40
2.210514
 10
35.937935
 20
6.246859
 30
0.0
 10
35.922051
 20
5.999271
 30
0.0
 10
35.890285
 20
5.504142
 30
0.0
 10
35.477249
 20
4.844935
 30
0.0
 10
35.045541
 20
4.600410
 30
0.0
 10
34.829665
 20
4.478136
 30
0.0
 11
35.937935
 21
6.246859
 31
0.0
 11
35.829375
 21
5.518016
 31
0.0
 11
35.438194
 21
4.893701
 31
0.0
 11
34.829665
 21
4.478136
 31
0.0
  0
LINE
  5
161
100
AcDbEntity
  8
Layer_1
 62
7
100
AcDbLine
 10
32.684895
 20
5.083104
 30
0.0
 11
32.684909
 21
5.083104
 31
0.0
  0
SPLINE
  5
162
100
AcDbEntity
  8
Layer_1
 62
7
100
AcDbSpline
 70
0
 71
3
 72
13
 73
9
 74
7
 40
0.000000
 40
0.000000
 40
0.000000
 40
0.000000
 40
0.736851
 40
1.473577
 40
2.210435
 40
2.269269
 40
2.328103
 40
2.386937
 40
2.386937
 40
2.386937
 40
2.386937
 10
34.829665
 20
4.478136
 30
0.0
 10
34.589672
 20
4.411247
 30
0.0
 10
34.109726
 20
4.277481
 30
0.0
 10
33.364835
 20
4.463087
 30
0.0
 10
32.942643
 20
4.774084
 30
0.0
 10
32.756945
 20
4.990079
 30
0.0
 10
32.719937
 20
5.035838
 30
0.0
 10
32.696576
 20
5.067349
 30
0.0
 10
32.684895
 20
5.083104
 30
0.0
 11
34.829665
 21
4.478136
 31
0.0
 11
34.105526
 21
4.341856
 31
0.0
 11
33.387525
 21
4.506898
 31
0.0
 11
32.795554
 21
4.945682
 31
0.0
 11
32.757170
 21
4.990270
 31
0.0
 11
32.720265
 21
5.036090
 31
0.0
 11
32.684895
 21
5.083104
 31
0.0
  0
SPLINE
  5
163
100
AcDbEntity
  8
Layer_1
 62
7
100
AcDbSpline
 70
0
 71
3
 72
10
 73
6
 74
4
 40
0.000000
 40
0.000000
 40
0.000000
 40
0.000000
 40
0.736944
 40
1.473717
 40
2.210663
 40
2.210663
 40
2.210663
 40
2.210663
 10
5.641111
 20
7.941112
 30
0.0
 10
5.887355
 20
7.910680
 30
0.0
 10
6.379784
 20
7.849821
 30
0.0
 10
7.013599
 20
7.398725
 30
0.0
 10
7.232383
 20
6.953387
 30
0.0
 10
7.341788
 20
6.730692
 30
0.0
 11
5.641111
 21
7.941112
 31
0.0
 11
6.362361
 21
7.789835
 31
0.0
 11
6.962625
 21
7.362615
 31
0.0
 11
7.341788
 21
6.730692
 31
0.0
  0
SPLINE
  5
164
100
AcDbEntity
  8
Layer_1
 62
7
100
AcDbSpline
 70
0
 71
3
 72
10
 73
6
 74
4
 40
0.000000
 40
0.000000
 40
0.000000
 40
0.000000
 40
0.736901
 40
1.473637
 40
2.210545
 40
2.210545
 40
2.210545
 40
2.210545
 10
7.341788
 20
6.730692
 30
0.0
 10
7.393710
 20
6.488083
 30
0.0
 10
7.497542
 20
6.002918
 30
0.0
 10
7.278959
 20
5.256340
 30
0.0
 10
6.929864
 20
4.903778
 30
0.0
 10
6.755297
 20
4.727476
 30
0.0
 11
7.341788
 21
6.730692
 31
0.0
 11
7.435153
 21
5.999730
 31
0.0
 11
7.228143
 21
5.292675
 31
0.0
 11
6.755297
 21
4.727476
 31
0.0
  0
SPLINE
  5
165
100
AcDbEntity
  8
Layer_1
 62
7
100
AcDbSpline
 70
0
 71
3
 72
10
 73
6
 74
4
 40
0.000000
 40
0.000000
 40
0.000000
 40
0.000000
 40
0.736902
 40
1.473642
 40
2.210544
 40
2.210544
 40
2.210544
 40
2.210544
 10
6.755297
 20
4.727476
 30
0.0
 10
6.543090
 20
4.598933
 30
0.0
 10
6.118724
 20
4.341875
 30
0.0
 10
5.341732
 20
4.303762
 30
0.0
 10
4.894273
 20
4.518124
 30
0.0
 10
4.670518
 20
4.625317
 30
0.0
 11
6.755297
 21
4.727476
 31
0.0
 11
6.095270
 21
4.399772
 31
0.0
 11
5.359414
 21
4.363694
 31
0.0
 11
4.670518
 21
4.625317
 31
0.0
  0
SPLINE
  5
166
100
AcDbEntity
  8
Layer_1
 62
7
100
AcDbSpline
 70
0
 71
3
 72
10
 73
6
 74
4
 40
0.000000
 40
0.000000
 40
0.000000
 40
0.000000
 40
0.736869
 40
1.473600
 40
2.210469
 40
2.210469
 40
2.210469
 40
2.210469
 10
4.670518
 20
4.625317
 30
0.0
 10
4.479553
 20
4.783688
 30
0.0
 10
4.097657
 20
5.100399
 30
0.0
 10
3.807079
 20
5.821992
 30
0.0
 10
3.863006
 20
6.314972
 30
0.0
 10
3.890972
 20
6.561486
 30
0.0
 11
4.670518
 21
4.625317
 31
0.0
 11
4.144676
 21
5.141520
 31
0.0
 11
3.869495
 21
5.824929
 31
0.0
 11
3.890972
 21
6.561486
 31
0.0
  0
LINE
  5
167
100
AcDbEntity
  8
Layer_1
 62
7
100
AcDbLine
 10
5.641111
 20
7.941110
 30
0.0
 11
5.641111
 21
7.941112
 31
0.0
  0
SPLINE
  5
168
100
AcDbEntity
  8
Layer_1
 62
7
100
AcDbSpline
 70
0
 71
3
 72
13
 73
9
 74
7
 40
0.000000
 40
0.000000
 40
0.000000
 40
0.000000
 40
0.736871
 40
1.473616
 40
2.210490
 40
2.269325
 40
2.328159
 40
2.386993
 40
2.386993
 40
2.386993
 40
2.386993
 10
3.890972
 20
6.561486
 30
0.0
 10
3.977939
 20
6.794959
 30
0.0
 10
4.151856
 20
7.261865
 30
0.0
 10
4.739830
 20
7.755455
 30
0.0
 10
5.239605
 20
7.914187
 30
0.0
 10
5.523500
 20
7.937510
 30
0.0
 10
5.582275
 20
7.940545
 30
0.0
 10
5.621499
 20
7.940921
 30
0.0
 10
5.641111
 20
7.941110
 30
0.0
 11
3.890972
 21
6.561486
 31
0.0
 11
4.206394
 21
7.227435
 31
0.0
 11
4.761946
 21
7.711331
 31
0.0
 11
5.464889
 21
7.932361
 31
0.0
 11
5.523523
 21
7.937213
 31
0.0
 11
5.582285
 21
7.940133
 31
0.0
 11
5.641111
 21
7.941110
 31
0.0
  0
ENDSEC
  0
SECTION
  2
OBJECTS
  0
DICTIONARY
  5
C
330
0
100
AcDbDictionary
  3
ACAD_GROUP
350
D
  3
ACAD_MLINESTYLE
350
17
  0
DICTIONARY
  5
D
330
C
100
AcDbDictionary
  0
DICTIONARY
  5
1A
330
C
100
AcDbDictionary
  0
DICTIONARY
  5
17
330
C
100
AcDbDictionary
  3
STANDARD
350
18
  0
DICTIONARY
  5
19
330
C
100
AcDbDictionary
  0
ENDSEC
  0
EOF
