<?xml version="1.0" encoding="UTF-8" standalone="no"?>
<!-- Created with Inkscape (http://www.inkscape.org/) -->

<svg
   xmlns:dc="http://purl.org/dc/elements/1.1/"
   xmlns:cc="http://creativecommons.org/ns#"
   xmlns:rdf="http://www.w3.org/1999/02/22-rdf-syntax-ns#"
   xmlns:svg="http://www.w3.org/2000/svg"
   xmlns="http://www.w3.org/2000/svg"
   xmlns:sodipodi="http://sodipodi.sourceforge.net/DTD/sodipodi-0.dtd"
   xmlns:inkscape="http://www.inkscape.org/namespaces/inkscape"
   width="744.09448819"
   height="1052.3622047"
   id="svg2"
   version="1.1"
   inkscape:version="0.48.3.1 r9886"
   sodipodi:docname="New document 1">
  <defs
     id="defs4">
    <pattern
       id="Hatch"
       x="0"
       y="0"
       patternUnits="userSpaceOnUse"
       width="8"
       height="8">
      <path
         id="path3014"
         d="M8 4 l-4,4"
         stroke-width="0.25"
         stroke="#000000"
         linecap="square" />
      <path
         id="path3016"
         d="M6 2 l-4,4"
         stroke-width="0.25"
         stroke="#000000"
         linecap="square" />
      <path
         id="path3018"
         d="M4 0 l-4,4"
         stroke-width="0.25"
         stroke="#000000"
         linecap="square" />
    </pattern>
    <marker
       orient="auto"
       id="DistanceX"
       style="overflow:visible"
       refX="0.0"
       refY="0.0">
      <path
         id="path3011"
         d="M 3,-3 L -3,3 M 0,-5 L  0,5"
         style="stroke:#000000; stroke-width:0.5" />
    </marker>
  </defs>
  <sodipodi:namedview
     id="base"
     pagecolor="#ffffff"
     bordercolor="#666666"
     borderopacity="1.0"
     inkscape:pageopacity="0.0"
     inkscape:pageshadow="2"
     inkscape:zoom="17.995795"
     inkscape:cx="171.96684"
     inkscape:cy="601.88395"
     inkscape:document-units="px"
     inkscape:current-layer="layer1"
     showgrid="false"
     inkscape:window-width="1375"
     inkscape:window-height="876"
     inkscape:window-x="65"
     inkscape:window-y="24"
     inkscape:window-maximized="1" />
  <metadata
     id="metadata7">
    <rdf:RDF>
      <cc:Work
         rdf:about="">
        <dc:format>image/svg+xml</dc:format>
        <dc:type
           rdf:resource="http://purl.org/dc/dcmitype/StillImage" />
        <dc:title></dc:title>
      </cc:Work>
    </rdf:RDF>
  </metadata>
  <g
     inkscape:label="Layer 1"
     inkscape:groupmode="layer"
     id="layer1">
    <path
       inkscape:connector-curvature="0"
       style="fill:none;stroke:#000000"
       d="m 596.45669,341.02359 -442.91338,0"
       id="path3022"
       sodipodi:nodetypes="cc" />
    <path
       inkscape:connector-curvature="0"
       style="fill:none;stroke:#000000"
       d="m 153.54331,341.02359 0,382.67718"
       id="path3024"
       sodipodi:nodetypes="cc" />
    <path
       inkscape:connector-curvature="0"
       style="fill:none;stroke:#000000"
       d="m 153.54331,723.70077 442.91338,0"
       id="path3026"
       sodipodi:nodetypes="cc" />
    <path
       inkscape:connector-curvature="0"
       style="fill:none;stroke:#000000"
       d="m 596.45669,723.70077 0,-382.67718"
       id="path3028"
       sodipodi:nodetypes="cc" />
    <path
       style="fill:none;stroke:#000000"
       d="m 176.78032,357.12367 c 2.38307,1.66406 3.30697,5.06512 2.10335,7.71023 -1.06945,2.51367 -3.87379,4.14815 -6.59048,3.79085 -2.63039,-0.28956 -4.95721,-2.36072 -5.4949,-4.96142 -0.58842,-2.58004 0.60635,-5.45678 2.88725,-6.81682 2.14139,-1.32784 5.07142,-1.24549 7.09478,0.27716 z"
       id="path3050"
       inkscape:connector-curvature="0" />
    <path
       style="fill:none;stroke:#000000"
       d="m 583.03429,360.31265 c 0.8548,2.51043 -0.08,5.48551 -2.21675,7.05619 -2.09179,1.62999 -5.20907,1.72171 -7.3929,0.21712 -2.22507,-1.44234 -3.33325,-4.35745 -2.62706,-6.91354 0.63363,-2.5748 3.02505,-4.57688 5.67134,-4.74707 2.6402,-0.24525 5.31526,1.35862 6.3429,3.80298 0.0837,0.19097 0.15803,0.38603 0.22247,0.58432 z"
       id="path3094"
       inkscape:connector-curvature="0" />
    <path
       style="fill:none;stroke:#000000"
       d="m 369.84017,366.03225 c -1.58868,-2.12343 -1.61924,-5.24183 -0.0724,-7.39593 1.48589,-2.19643 4.4221,-3.24716 6.96404,-2.4911 2.56188,0.68427 4.51657,3.11433 4.63487,5.76356 0.19321,2.64463 -1.46274,5.28747 -3.92683,6.26714 -2.43518,1.04925 -5.47496,0.35053 -7.20761,-1.65673 -0.13857,-0.15576 -0.26957,-0.31827 -0.39212,-0.48694 z"
       id="path3112"
       inkscape:connector-curvature="0" />
    <path
       style="fill:none;stroke:#000000"
       d="m 174.62598,457.95273 c -4.05124,0.0567 -7.93302,-2.70589 -9.20643,-6.55226 -1.38067,-3.80898 -0.0422,-8.38164 3.17485,-10.84458 3.14624,-2.55227 7.90518,-2.78576 11.28585,-0.55302 3.44219,2.13609 5.22211,6.55617 4.2199,10.48155 -0.89009,3.95198 -4.48323,7.08195 -8.52015,7.42094 -0.31698,0.0314 -0.63549,0.0474 -0.95402,0.0474 z"
       id="path3186"
       inkscape:connector-curvature="0" />
    <path
       style="fill:none;stroke:#000000"
       d="m 575.37402,457.95273 c -4.05124,0.0567 -7.93303,-2.70589 -9.20644,-6.55226 -1.38067,-3.80898 -0.0422,-8.38164 3.17485,-10.84458 3.14624,-2.55226 7.90518,-2.78577 11.28585,-0.55302 3.44219,2.13609 5.22211,6.55617 4.2199,10.48155 -0.89009,3.95198 -4.48323,7.08194 -8.52015,7.42094 -0.31697,0.0314 -0.63548,0.0474 -0.95401,0.0474 z"
       id="path3226"
       inkscape:connector-curvature="0" />
    <path
       style="fill:none;stroke:#000000"
       d="m 166.96571,534.33307 c -0.85483,-2.5105 0.08,-5.48559 2.21674,-7.05634 2.09179,-1.62993 5.20909,-1.72162 7.39291,-0.21712 2.22509,1.4424 3.33328,4.35752 2.62706,6.91367 -0.63371,2.5747 -3.02504,4.57689 -5.67135,4.74693 -2.64021,0.24533 -5.31518,-1.35855 -6.34289,-3.80286 -0.0836,-0.19096 -0.15804,-0.386 -0.22247,-0.58428 z"
       id="path3234"
       inkscape:connector-curvature="0" />
    <path
       style="fill:none;stroke:#000000"
       d="m 570.90272,534.33307 c -0.85483,-2.5105 0.08,-5.48558 2.21673,-7.05634 2.09179,-1.62992 5.20909,-1.72163 7.39291,-0.21712 2.2251,1.44239 3.33329,4.35752 2.62707,6.91367 -0.6337,2.5747 -3.02504,4.57689 -5.67135,4.74693 -2.64021,0.24533 -5.31518,-1.35854 -6.34288,-3.80286 -0.0837,-0.19096 -0.15804,-0.386 -0.22248,-0.58428 z"
       id="path3274"
       inkscape:connector-curvature="0" />
    <path
       style="fill:none;stroke:#000000"
       d="m 168.89858,608.63257 c 3.24421,-2.42706 8.00839,-2.47375 11.29944,-0.11052 3.35588,2.26998 4.96075,6.75613 3.80579,10.63962 -1.04514,3.91415 -4.75803,6.90025 -8.80541,7.081 -4.04033,0.29513 -8.07835,-2.23451 -9.57485,-5.99926 -1.60282,-3.72042 -0.53571,-8.3647 2.53105,-11.01177 0.23799,-0.2117 0.48629,-0.41184 0.74398,-0.59907 z"
       id="path3322"
       inkscape:connector-curvature="0" />
    <path
       style="fill:none;stroke:#000000"
       d="m 575.37402,626.25977 c -4.05121,0.0567 -7.93305,-2.7058 -9.20644,-6.55216 -1.38065,-3.80899 -0.0422,-8.38172 3.17486,-10.84464 3.14623,-2.55223 7.90517,-2.78571 11.28584,-0.55301 3.44225,2.13607 5.2221,6.55619 4.21991,10.48157 -0.89006,3.95199 -4.48326,7.08192 -8.52016,7.42088 -0.31697,0.0314 -0.63548,0.0474 -0.95401,0.0474 z"
       id="path3386"
       inkscape:connector-curvature="0" />
    <path
       style="fill:none;stroke:#000000"
       d="m 176.78032,697.28117 c 2.16699,1.52857 3.15989,4.48478 2.35434,7.01143 -0.73437,2.54817 -3.20236,4.45462 -5.85346,4.52129 -2.64799,0.14098 -5.25783,-1.56638 -6.18905,-4.04932 -1.00103,-2.4554 -0.24281,-5.48069 1.79804,-7.17368 1.99175,-1.7503 5.09863,-2.0255 7.3667,-0.6517 0.17993,0.10534 0.35475,0.21943 0.52343,0.34198 z"
       id="path3410"
       inkscape:connector-curvature="0" />
    <path
       style="fill:none;stroke:#000000"
       d="m 582.12827,706.18977 c -1.52865,2.1669 -4.48482,3.1599 -7.01148,2.35428 -2.54815,-0.73441 -4.45467,-3.20234 -4.52126,-5.85348 -0.14101,-2.64799 1.56638,-5.25774 4.0493,-6.18896 2.45541,-1.00111 5.48064,-0.24277 7.17372,1.79798 1.75033,1.99174 2.02547,5.09865 0.65171,7.36674 -0.10534,0.17993 -0.21943,0.35475 -0.34199,0.52344 z"
       id="path3460"
       inkscape:connector-curvature="0" />
    <path
       style="fill:none;stroke:#000000"
       d="m 368.93421,700.47017 c 0.7841,-2.53342 3.28905,-4.39112 5.94099,-4.40595 2.65035,-0.0889 5.2262,1.6692 6.10868,4.16998 0.95239,2.47472 0.1352,5.48444 -1.93853,7.1372 -2.02592,1.71081 -5.1375,1.92489 -7.37831,0.50687 -2.2801,-1.35337 -3.50177,-4.22316 -2.89629,-6.8047 0.0446,-0.20364 0.099,-0.40513 0.16346,-0.6034 z"
       id="path3478"
       inkscape:connector-curvature="0" />
  </g>
</svg>
