  0
SECTION
  2
HEADER
  9
$ACADVER
  1
AC1014
  9
$HANDSEED
  5
FFFF
  9
$MEASUREMENT
 70
     1
  0
ENDSEC
  0
SECTION
  2
TABLES
  0
TABLE
  2
VPORT
  5
8
330
0
100
AcDbSymbolTable
 70
     4
  0
VPORT
  5
2E
330
8
100
AcDbSymbolTableRecord
100
AcDbViewportTableRecord
  2
*ACTIVE
 70
     0
 10
0.0
 20
0.0
 11
1.0
 21
1.0
 12
210.0
 22
148.5
 13
0.0
 23
0.0
 14
10.0
 24
10.0
 15
10.0
 25
10.0
 16
0.0
 26
0.0
 36
1.0
 17
0.0
 27
0.0
 37
0.0
 40
341.0
 41
1.24
 42
50.0
 43
0.0
 44
0.0
 50
0.0
 51
0.0
 71
     0
 72
   100
 73
     1
 74
     3
 75
     0
 76
     0
 77
     0
 78
     0
  0
ENDTAB
  0
TABLE
  2
LTYPE
  5
5
330
0
100
AcDbSymbolTable
 70
     1
  0
LTYPE
  5
14
330
5
100
AcDbSymbolTableRecord
100
AcDbLinetypeTableRecord
  2
BYBLOCK
 70
     0
  3

 72
    65
 73
     0
 40
0.0
  0
LTYPE
  5
15
330
5
100
AcDbSymbolTableRecord
100
AcDbLinetypeTableRecord
  2
BYLAYER
 70
     0
  3

 72
    65
 73
     0
 40
0.0
  0
LTYPE
  5
16
330
5
100
AcDbSymbolTableRecord
100
AcDbLinetypeTableRecord
  2
CONTINUOUS
 70
     0
  3
Solid line
 72
    65
 73
     0
 40
0.0
  0
ENDTAB
  0
TABLE
  2
LAYER
  5
2
100
AcDbSymbolTable
 70
2
  0
LAYER
  5
50
100
AcDbSymbolTableRecord
100
AcDbLayerTableRecord
  2
0
 70
0
  6
CONTINUOUS
  0
LAYER
  5
51
100
AcDbSymbolTableRecord
100
AcDbLayerTableRecord
  2
Layer_1
 70
0
  6
CONTINUOUS
  0
ENDTAB
  0
TABLE
  2
STYLE
  5
3
330
0
100
AcDbSymbolTable
 70
     1
  0
STYLE
  5
11
330
3
100
AcDbSymbolTableRecord
100
AcDbTextStyleTableRecord
  2
STANDARD
 70
     0
 40
0.0
 41
1.0
 50
0.0
 71
     0
 42
2.5
  3
txt
  4

  0
ENDTAB
  0
TABLE
  2
VIEW
  5
6
330
0
100
AcDbSymbolTable
 70
     0
  0
ENDTAB
  0
TABLE
  2
UCS
  5
7
330
0
100
AcDbSymbolTable
 70
     0
  0
ENDTAB
  0
TABLE
  2
APPID
  5
9
330
0
100
AcDbSymbolTable
 70
     2
  0
APPID
  5
12
330
9
100
AcDbSymbolTableRecord
100
AcDbRegAppTableRecord
  2
ACAD
 70
     0
  0
ENDTAB
  0
TABLE
  2
DIMSTYLE
  5
A
330
0
100
AcDbSymbolTable
 70
     1
  0
DIMSTYLE
105
27
330
A
100
AcDbSymbolTableRecord
100
AcDbDimStyleTableRecord
  2
ISO-25
 70
     0
  3

  4

  5

  6

  7

 40
1.0
 41
2.5
 42
0.625
 43
3.75
 44
1.25
 45
0.0
 46
0.0
 47
0.0
 48
0.0
140
2.5
141
2.5
142
0.0
143
0.03937007874016
144
1.0
145
0.0
146
1.0
147
0.625
 71
     0
 72
     0
 73
     0
 74
     0
 75
     0
 76
     0
 77
     1
 78
     8
170
     0
171
     3
172
     1
173
     0
174
     0
175
     0
176
     0
177
     0
178
     0
270
     2
271
     2
272
     2
273
     2
274
     3
340
11
275
     0
280
     0
281
     0
282
     0
283
     0
284
     8
285
     0
286
     0
287
     3
288
     0
  0
ENDTAB
  0
TABLE
  2
BLOCK_RECORD
  5
1
330
0
100
AcDbSymbolTable
 70
     1
  0
BLOCK_RECORD
  5
1F
330
1
100
AcDbSymbolTableRecord
100
AcDbBlockTableRecord
  2
*MODEL_SPACE
  0
BLOCK_RECORD
  5
1B
330
1
100
AcDbSymbolTableRecord
100
AcDbBlockTableRecord
  2
*PAPER_SPACE
  0
ENDTAB
  0
ENDSEC
  0
SECTION
  2
BLOCKS
  0
BLOCK
  5
20
330
1F
100
AcDbEntity
  8
0
100
AcDbBlockBegin
  2
*MODEL_SPACE
 70
     0
 10
0.0
 20
0.0
 30
0.0
  3
*MODEL_SPACE
  1

  0
ENDBLK
  5
21
330
1F
100
AcDbEntity
  8
0
100
AcDbBlockEnd
  0
BLOCK
  5
1C
330
1B
100
AcDbEntity
 67
     1
  8
0
100
AcDbBlockBegin
  2
*PAPER_SPACE
  1

  0
ENDBLK
  5
1D
330
1B
100
AcDbEntity
 67
     1
  8
0
100
AcDbBlockEnd
  0
ENDSEC
  0
SECTION
  2
ENTITIES
  0
LINE
  5
100
100
AcDbEntity
  8
Layer_1
 62
7
100
AcDbLine
 10
168.333333
 20
200.755565
 30
0.0
 11
43.333334
 21
200.755565
 31
0.0
  0
LINE
  5
101
100
AcDbEntity
  8
Layer_1
 62
7
100
AcDbLine
 10
43.333334
 20
200.755565
 30
0.0
 11
43.333334
 21
92.755560
 31
0.0
  0
LINE
  5
102
100
AcDbEntity
  8
Layer_1
 62
7
100
AcDbLine
 10
43.333334
 20
92.755560
 30
0.0
 11
168.333333
 21
92.755560
 31
0.0
  0
LINE
  5
103
100
AcDbEntity
  8
Layer_1
 62
7
100
AcDbLine
 10
168.333333
 20
92.755560
 30
0.0
 11
168.333333
 21
200.755565
 31
0.0
  0
SPLINE
  5
104
100
AcDbEntity
  8
Layer_1
 62
7
100
AcDbSpline
 70
8
 71
3
 72
8
 73
4
 74
0
 40
0
 40
0
 40
0
 40
0
 40
1
 40
1
 40
1
 40
1
 10
49.891335
 20
196.211764
 30
0.0
 10
50.563890
 20
195.742130
 30
0.0
 10
50.824635
 20
194.782275
 30
0.0
 10
50.484947
 20
194.035766
 30
0.0
  0
SPLINE
  5
105
100
AcDbEntity
  8
Layer_1
 62
7
100
AcDbSpline
 70
8
 71
3
 72
8
 73
4
 74
0
 40
0
 40
0
 40
0
 40
0
 40
1
 40
1
 40
1
 40
1
 10
50.484947
 20
194.035766
 30
0.0
 10
50.183124
 20
193.326352
 30
0.0
 10
49.391677
 20
192.865066
 30
0.0
 10
48.624967
 20
192.965904
 30
0.0
  0
SPLINE
  5
106
100
AcDbEntity
  8
Layer_1
 62
7
100
AcDbSpline
 70
8
 71
3
 72
8
 73
4
 74
0
 40
0
 40
0
 40
0
 40
0
 40
1
 40
1
 40
1
 40
1
 10
48.624967
 20
192.965904
 30
0.0
 10
47.882612
 20
193.047624
 30
0.0
 10
47.225932
 20
193.632152
 30
0.0
 10
47.074184
 20
194.366127
 30
0.0
  0
SPLINE
  5
107
100
AcDbEntity
  8
Layer_1
 62
7
100
AcDbSpline
 70
8
 71
3
 72
8
 73
4
 74
0
 40
0
 40
0
 40
0
 40
0
 40
1
 40
1
 40
1
 40
1
 10
47.074184
 20
194.366127
 30
0.0
 10
46.908119
 20
195.094271
 30
0.0
 10
47.245310
 20
195.906151
 30
0.0
 10
47.889030
 20
196.289985
 30
0.0
  0
SPLINE
  5
108
100
AcDbEntity
  8
Layer_1
 62
7
100
AcDbSpline
 70
8
 71
3
 72
8
 73
4
 74
0
 40
0
 40
0
 40
0
 40
0
 40
1
 40
1
 40
1
 40
1
 10
47.889030
 20
196.289985
 30
0.0
 10
48.493378
 20
196.664731
 30
0.0
 10
49.320298
 20
196.641490
 30
0.0
 10
49.891335
 20
196.211764
 30
0.0
  0
LINE
  5
109
100
AcDbEntity
  8
Layer_1
 62
7
100
AcDbLine
 10
49.891335
 20
196.211764
 30
0.0
 11
49.891335
 21
196.211764
 31
0.0
  0
SPLINE
  5
10a
100
AcDbEntity
  8
Layer_1
 62
7
100
AcDbSpline
 70
8
 71
3
 72
8
 73
4
 74
0
 40
0
 40
0
 40
0
 40
0
 40
1
 40
1
 40
1
 40
1
 10
164.545233
 20
195.311763
 30
0.0
 10
164.786477
 20
194.603264
 30
0.0
 10
164.522655
 20
193.763630
 30
0.0
 10
163.919617
 20
193.320350
 30
0.0
  0
SPLINE
  5
10b
100
AcDbEntity
  8
Layer_1
 62
7
100
AcDbSpline
 70
8
 71
3
 72
8
 73
4
 74
0
 40
0
 40
0
 40
0
 40
0
 40
1
 40
1
 40
1
 40
1
 10
163.919617
 20
193.320350
 30
0.0
 10
163.329267
 20
192.860330
 30
0.0
 10
162.449502
 20
192.834445
 30
0.0
 10
161.833176
 20
193.259074
 30
0.0
  0
SPLINE
  5
10c
100
AcDbEntity
  8
Layer_1
 62
7
100
AcDbSpline
 70
8
 71
3
 72
8
 73
4
 74
0
 40
0
 40
0
 40
0
 40
0
 40
1
 40
1
 40
1
 40
1
 10
161.833176
 20
193.259074
 30
0.0
 10
161.205212
 20
193.666134
 30
0.0
 10
160.892459
 20
194.488843
 30
0.0
 10
161.091761
 20
195.210228
 30
0.0
  0
SPLINE
  5
10d
100
AcDbEntity
  8
Layer_1
 62
7
100
AcDbSpline
 70
8
 71
3
 72
8
 73
4
 74
0
 40
0
 40
0
 40
0
 40
0
 40
1
 40
1
 40
1
 40
1
 10
161.091761
 20
195.210228
 30
0.0
 10
161.270586
 20
195.936894
 30
0.0
 10
161.945498
 20
196.501925
 30
0.0
 10
162.692340
 20
196.549957
 30
0.0
  0
SPLINE
  5
10e
100
AcDbEntity
  8
Layer_1
 62
7
100
AcDbSpline
 70
8
 71
3
 72
8
 73
4
 74
0
 40
0
 40
0
 40
0
 40
0
 40
1
 40
1
 40
1
 40
1
 10
162.692340
 20
196.549957
 30
0.0
 10
163.437463
 20
196.619172
 30
0.0
 10
164.192424
 20
196.166524
 30
0.0
 10
164.482447
 20
195.476671
 30
0.0
  0
SPLINE
  5
10f
100
AcDbEntity
  8
Layer_1
 62
7
100
AcDbSpline
 70
8
 71
3
 72
8
 73
4
 74
0
 40
0
 40
0
 40
0
 40
0
 40
1
 40
1
 40
1
 40
1
 10
164.482447
 20
195.476671
 30
0.0
 10
164.506069
 20
195.422775
 30
0.0
 10
164.527047
 20
195.367725
 30
0.0
 10
164.545233
 20
195.311763
 30
0.0
  0
LINE
  5
110
100
AcDbEntity
  8
Layer_1
 62
7
100
AcDbLine
 10
164.545233
 20
195.311763
 30
0.0
 11
164.545233
 21
195.311763
 31
0.0
  0
SPLINE
  5
111
100
AcDbEntity
  8
Layer_1
 62
7
100
AcDbSpline
 70
8
 71
3
 72
8
 73
4
 74
0
 40
0
 40
0
 40
0
 40
0
 40
1
 40
1
 40
1
 40
1
 10
104.377115
 20
193.697565
 30
0.0
 10
103.928754
 20
194.296844
 30
0.0
 10
103.920129
 20
195.176926
 30
0.0
 10
104.356682
 20
195.784861
 30
0.0
  0
SPLINE
  5
112
100
AcDbEntity
  8
Layer_1
 62
7
100
AcDbSpline
 70
8
 71
3
 72
8
 73
4
 74
0
 40
0
 40
0
 40
0
 40
0
 40
1
 40
1
 40
1
 40
1
 10
104.356682
 20
195.784861
 30
0.0
 10
104.776033
 20
196.404742
 30
0.0
 10
105.604697
 20
196.701282
 30
0.0
 10
106.322089
 20
196.487905
 30
0.0
  0
SPLINE
  5
113
100
AcDbEntity
  8
Layer_1
 62
7
100
AcDbSpline
 70
8
 71
3
 72
8
 73
4
 74
0
 40
0
 40
0
 40
0
 40
0
 40
1
 40
1
 40
1
 40
1
 10
106.322089
 20
196.487905
 30
0.0
 10
107.045108
 20
196.294788
 30
0.0
 10
107.596765
 20
195.608971
 30
0.0
 10
107.630152
 20
194.861300
 30
0.0
  0
SPLINE
  5
114
100
AcDbEntity
  8
Layer_1
 62
7
100
AcDbSpline
 70
8
 71
3
 72
8
 73
4
 74
0
 40
0
 40
0
 40
0
 40
0
 40
1
 40
1
 40
1
 40
1
 10
107.630152
 20
194.861300
 30
0.0
 10
107.684680
 20
194.114927
 30
0.0
 10
107.217334
 20
193.369058
 30
0.0
 10
106.521913
 20
193.092574
 30
0.0
  0
SPLINE
  5
115
100
AcDbEntity
  8
Layer_1
 62
7
100
AcDbSpline
 70
8
 71
3
 72
8
 73
4
 74
0
 40
0
 40
0
 40
0
 40
0
 40
1
 40
1
 40
1
 40
1
 10
106.521913
 20
193.092574
 30
0.0
 10
105.834651
 20
192.796452
 30
0.0
 10
104.976758
 20
192.993646
 30
0.0
 10
104.487766
 20
193.560140
 30
0.0
  0
SPLINE
  5
116
100
AcDbEntity
  8
Layer_1
 62
7
100
AcDbSpline
 70
8
 71
3
 72
8
 73
4
 74
0
 40
0
 40
0
 40
0
 40
0
 40
1
 40
1
 40
1
 40
1
 10
104.487766
 20
193.560140
 30
0.0
 10
104.448658
 20
193.604099
 30
0.0
 10
104.411687
 20
193.649963
 30
0.0
 10
104.377101
 20
193.697565
 30
0.0
  0
LINE
  5
117
100
AcDbEntity
  8
Layer_1
 62
7
100
AcDbLine
 10
104.377101
 20
193.697565
 30
0.0
 11
104.377115
 21
193.697565
 31
0.0
  0
SPLINE
  5
118
100
AcDbEntity
  8
Layer_1
 62
7
100
AcDbSpline
 70
8
 71
3
 72
8
 73
4
 74
0
 40
0
 40
0
 40
0
 40
0
 40
1
 40
1
 40
1
 40
1
 10
49.283332
 20
167.755563
 30
0.0
 10
48.139982
 20
167.739561
 30
0.0
 10
47.044458
 20
168.519225
 30
0.0
 10
46.685073
 20
169.604756
 30
0.0
  0
SPLINE
  5
119
100
AcDbEntity
  8
Layer_1
 62
7
100
AcDbSpline
 70
8
 71
3
 72
8
 73
4
 74
0
 40
0
 40
0
 40
0
 40
0
 40
1
 40
1
 40
1
 40
1
 10
46.685073
 20
169.604756
 30
0.0
 10
46.295417
 20
170.679735
 30
0.0
 10
46.673163
 20
171.970241
 30
0.0
 10
47.581086
 20
172.665338
 30
0.0
  0
SPLINE
  5
11a
100
AcDbEntity
  8
Layer_1
 62
7
100
AcDbSpline
 70
8
 71
3
 72
8
 73
4
 74
0
 40
0
 40
0
 40
0
 40
0
 40
1
 40
1
 40
1
 40
1
 10
47.581086
 20
172.665338
 30
0.0
 10
48.469025
 20
173.385645
 30
0.0
 10
49.812104
 20
173.451541
 30
0.0
 10
50.766204
 20
172.821412
 30
0.0
  0
SPLINE
  5
11b
100
AcDbEntity
  8
Layer_1
 62
7
100
AcDbSpline
 70
8
 71
3
 72
8
 73
4
 74
0
 40
0
 40
0
 40
0
 40
0
 40
1
 40
1
 40
1
 40
1
 10
50.766204
 20
172.821412
 30
0.0
 10
51.737666
 20
172.218560
 30
0.0
 10
52.239999
 20
170.971115
 30
0.0
 10
51.957153
 20
169.863286
 30
0.0
  0
SPLINE
  5
11c
100
AcDbEntity
  8
Layer_1
 62
7
100
AcDbSpline
 70
8
 71
3
 72
8
 73
4
 74
0
 40
0
 40
0
 40
0
 40
0
 40
1
 40
1
 40
1
 40
1
 10
51.957153
 20
169.863286
 30
0.0
 10
51.705950
 20
168.747949
 30
0.0
 10
50.691886
 20
167.864602
 30
0.0
 10
49.552578
 20
167.768932
 30
0.0
  0
SPLINE
  5
11d
100
AcDbEntity
  8
Layer_1
 62
7
100
AcDbSpline
 70
8
 71
3
 72
8
 73
4
 74
0
 40
0
 40
0
 40
0
 40
0
 40
1
 40
1
 40
1
 40
1
 10
49.552578
 20
167.768932
 30
0.0
 10
49.463119
 20
167.760070
 30
0.0
 10
49.373228
 20
167.755554
 30
0.0
 10
49.283332
 20
167.755554
 30
0.0
  0
LINE
  5
11e
100
AcDbEntity
  8
Layer_1
 62
7
100
AcDbLine
 10
49.283332
 20
167.755554
 30
0.0
 11
49.283332
 21
167.755563
 31
0.0
  0
SPLINE
  5
11f
100
AcDbEntity
  8
Layer_1
 62
7
100
AcDbSpline
 70
8
 71
3
 72
8
 73
4
 74
0
 40
0
 40
0
 40
0
 40
0
 40
1
 40
1
 40
1
 40
1
 10
162.383335
 20
167.755563
 30
0.0
 10
161.239985
 20
167.739561
 30
0.0
 10
160.144457
 20
168.519225
 30
0.0
 10
159.785073
 20
169.604756
 30
0.0
  0
SPLINE
  5
120
100
AcDbEntity
  8
Layer_1
 62
7
100
AcDbSpline
 70
8
 71
3
 72
8
 73
4
 74
0
 40
0
 40
0
 40
0
 40
0
 40
1
 40
1
 40
1
 40
1
 10
159.785073
 20
169.604756
 30
0.0
 10
159.395417
 20
170.679735
 30
0.0
 10
159.773163
 20
171.970241
 30
0.0
 10
160.681086
 20
172.665338
 30
0.0
  0
SPLINE
  5
121
100
AcDbEntity
  8
Layer_1
 62
7
100
AcDbSpline
 70
8
 71
3
 72
8
 73
4
 74
0
 40
0
 40
0
 40
0
 40
0
 40
1
 40
1
 40
1
 40
1
 10
160.681086
 20
172.665338
 30
0.0
 10
161.569025
 20
173.385642
 30
0.0
 10
162.912103
 20
173.451544
 30
0.0
 10
163.866203
 20
172.821412
 30
0.0
  0
SPLINE
  5
122
100
AcDbEntity
  8
Layer_1
 62
7
100
AcDbSpline
 70
8
 71
3
 72
8
 73
4
 74
0
 40
0
 40
0
 40
0
 40
0
 40
1
 40
1
 40
1
 40
1
 10
163.866203
 20
172.821412
 30
0.0
 10
164.837666
 20
172.218560
 30
0.0
 10
165.339999
 20
170.971115
 30
0.0
 10
165.057153
 20
169.863286
 30
0.0
  0
SPLINE
  5
123
100
AcDbEntity
  8
Layer_1
 62
7
100
AcDbSpline
 70
8
 71
3
 72
8
 73
4
 74
0
 40
0
 40
0
 40
0
 40
0
 40
1
 40
1
 40
1
 40
1
 10
165.057153
 20
169.863286
 30
0.0
 10
164.805950
 20
168.747949
 30
0.0
 10
163.791886
 20
167.864605
 30
0.0
 10
162.652577
 20
167.768932
 30
0.0
  0
SPLINE
  5
124
100
AcDbEntity
  8
Layer_1
 62
7
100
AcDbSpline
 70
8
 71
3
 72
8
 73
4
 74
0
 40
0
 40
0
 40
0
 40
0
 40
1
 40
1
 40
1
 40
1
 10
162.652577
 20
167.768932
 30
0.0
 10
162.563121
 20
167.760070
 30
0.0
 10
162.473231
 20
167.755554
 30
0.0
 10
162.383335
 20
167.755554
 30
0.0
  0
LINE
  5
125
100
AcDbEntity
  8
Layer_1
 62
7
100
AcDbLine
 10
162.383335
 20
167.755554
 30
0.0
 11
162.383335
 21
167.755563
 31
0.0
  0
SPLINE
  5
126
100
AcDbEntity
  8
Layer_1
 62
7
100
AcDbSpline
 70
8
 71
3
 72
8
 73
4
 74
0
 40
0
 40
0
 40
0
 40
0
 40
1
 40
1
 40
1
 40
1
 10
47.121434
 20
146.199334
 30
0.0
 10
46.880182
 20
146.907852
 30
0.0
 10
47.144011
 20
147.747489
 30
0.0
 10
47.747047
 20
148.190790
 30
0.0
  0
SPLINE
  5
127
100
AcDbEntity
  8
Layer_1
 62
7
100
AcDbSpline
 70
8
 71
3
 72
8
 73
4
 74
0
 40
0
 40
0
 40
0
 40
0
 40
1
 40
1
 40
1
 40
1
 10
47.747047
 20
148.190790
 30
0.0
 10
48.337397
 20
148.650792
 30
0.0
 10
49.217168
 20
148.676669
 30
0.0
 10
49.833490
 20
148.252066
 30
0.0
  0
SPLINE
  5
128
100
AcDbEntity
  8
Layer_1
 62
7
100
AcDbSpline
 70
8
 71
3
 72
8
 73
4
 74
0
 40
0
 40
0
 40
0
 40
0
 40
1
 40
1
 40
1
 40
1
 10
49.833490
 20
148.252066
 30
0.0
 10
50.461460
 20
147.844988
 30
0.0
 10
50.774216
 20
147.022277
 30
0.0
 10
50.574905
 20
146.300874
 30
0.0
  0
SPLINE
  5
129
100
AcDbEntity
  8
Layer_1
 62
7
100
AcDbSpline
 70
8
 71
3
 72
8
 73
4
 74
0
 40
0
 40
0
 40
0
 40
0
 40
1
 40
1
 40
1
 40
1
 10
50.574905
 20
146.300874
 30
0.0
 10
50.396058
 20
145.574237
 30
0.0
 10
49.721172
 20
145.009174
 30
0.0
 10
48.974324
 20
144.961185
 30
0.0
  0
SPLINE
  5
12a
100
AcDbEntity
  8
Layer_1
 62
7
100
AcDbSpline
 70
8
 71
3
 72
8
 73
4
 74
0
 40
0
 40
0
 40
0
 40
0
 40
1
 40
1
 40
1
 40
1
 10
48.974324
 20
144.961185
 30
0.0
 10
48.229198
 20
144.891948
 30
0.0
 10
47.474262
 20
145.344598
 30
0.0
 10
47.184220
 20
146.034437
 30
0.0
  0
SPLINE
  5
12b
100
AcDbEntity
  8
Layer_1
 62
7
100
AcDbSpline
 70
8
 71
3
 72
8
 73
4
 74
0
 40
0
 40
0
 40
0
 40
0
 40
1
 40
1
 40
1
 40
1
 10
47.184220
 20
146.034437
 30
0.0
 10
47.160626
 20
146.088330
 30
0.0
 10
47.139617
 20
146.143375
 30
0.0
 10
47.121434
 20
146.199334
 30
0.0
  0
LINE
  5
12c
100
AcDbEntity
  8
Layer_1
 62
7
100
AcDbLine
 10
47.121434
 20
146.199334
 30
0.0
 11
47.121434
 21
146.199334
 31
0.0
  0
SPLINE
  5
12d
100
AcDbEntity
  8
Layer_1
 62
7
100
AcDbSpline
 70
8
 71
3
 72
8
 73
4
 74
0
 40
0
 40
0
 40
0
 40
0
 40
1
 40
1
 40
1
 40
1
 10
161.121434
 20
146.199334
 30
0.0
 10
160.880182
 20
146.907852
 30
0.0
 10
161.144012
 20
147.747486
 30
0.0
 10
161.747045
 20
148.190790
 30
0.0
  0
SPLINE
  5
12e
100
AcDbEntity
  8
Layer_1
 62
7
100
AcDbSpline
 70
8
 71
3
 72
8
 73
4
 74
0
 40
0
 40
0
 40
0
 40
0
 40
1
 40
1
 40
1
 40
1
 10
161.747045
 20
148.190790
 30
0.0
 10
162.337394
 20
148.650789
 30
0.0
 10
163.217166
 20
148.676672
 30
0.0
 10
163.833488
 20
148.252066
 30
0.0
  0
SPLINE
  5
12f
100
AcDbEntity
  8
Layer_1
 62
7
100
AcDbSpline
 70
8
 71
3
 72
8
 73
4
 74
0
 40
0
 40
0
 40
0
 40
0
 40
1
 40
1
 40
1
 40
1
 10
163.833488
 20
148.252066
 30
0.0
 10
164.461461
 20
147.844991
 30
0.0
 10
164.774217
 20
147.022277
 30
0.0
 10
164.574906
 20
146.300874
 30
0.0
  0
SPLINE
  5
130
100
AcDbEntity
  8
Layer_1
 62
7
100
AcDbSpline
 70
8
 71
3
 72
8
 73
4
 74
0
 40
0
 40
0
 40
0
 40
0
 40
1
 40
1
 40
1
 40
1
 10
164.574906
 20
146.300874
 30
0.0
 10
164.396062
 20
145.574237
 30
0.0
 10
163.721172
 20
145.009174
 30
0.0
 10
162.974325
 20
144.961185
 30
0.0
  0
SPLINE
  5
131
100
AcDbEntity
  8
Layer_1
 62
7
100
AcDbSpline
 70
8
 71
3
 72
8
 73
4
 74
0
 40
0
 40
0
 40
0
 40
0
 40
1
 40
1
 40
1
 40
1
 10
162.974325
 20
144.961185
 30
0.0
 10
162.229199
 20
144.891948
 30
0.0
 10
161.474263
 20
145.344595
 30
0.0
 10
161.184223
 20
146.034437
 30
0.0
  0
SPLINE
  5
132
100
AcDbEntity
  8
Layer_1
 62
7
100
AcDbSpline
 70
8
 71
3
 72
8
 73
4
 74
0
 40
0
 40
0
 40
0
 40
0
 40
1
 40
1
 40
1
 40
1
 10
161.184223
 20
146.034437
 30
0.0
 10
161.160601
 20
146.088330
 30
0.0
 10
161.139621
 20
146.143375
 30
0.0
 10
161.121434
 20
146.199334
 30
0.0
  0
LINE
  5
133
100
AcDbEntity
  8
Layer_1
 62
7
100
AcDbLine
 10
161.121434
 20
146.199334
 30
0.0
 11
161.121434
 21
146.199334
 31
0.0
  0
SPLINE
  5
134
100
AcDbEntity
  8
Layer_1
 62
7
100
AcDbSpline
 70
8
 71
3
 72
8
 73
4
 74
0
 40
0
 40
0
 40
0
 40
0
 40
1
 40
1
 40
1
 40
1
 10
47.666933
 20
125.230364
 30
0.0
 10
48.582521
 20
125.915334
 30
0.0
 10
49.927078
 20
125.928511
 30
0.0
 10
50.855886
 20
125.261555
 30
0.0
  0
SPLINE
  5
135
100
AcDbEntity
  8
Layer_1
 62
7
100
AcDbSpline
 70
8
 71
3
 72
8
 73
4
 74
0
 40
0
 40
0
 40
0
 40
0
 40
1
 40
1
 40
1
 40
1
 10
50.855886
 20
125.261555
 30
0.0
 10
51.802990
 20
124.620916
 30
0.0
 10
52.255920
 20
123.354825
 30
0.0
 10
51.929964
 20
122.258818
 30
0.0
  0
SPLINE
  5
136
100
AcDbEntity
  8
Layer_1
 62
7
100
AcDbSpline
 70
8
 71
3
 72
8
 73
4
 74
0
 40
0
 40
0
 40
0
 40
0
 40
1
 40
1
 40
1
 40
1
 10
51.929964
 20
122.258818
 30
0.0
 10
51.635002
 20
121.154157
 30
0.0
 10
50.587142
 20
120.311414
 30
0.0
 10
49.444882
 20
120.260402
 30
0.0
  0
SPLINE
  5
137
100
AcDbEntity
  8
Layer_1
 62
7
100
AcDbSpline
 70
8
 71
3
 72
8
 73
4
 74
0
 40
0
 40
0
 40
0
 40
0
 40
1
 40
1
 40
1
 40
1
 10
49.444882
 20
120.260402
 30
0.0
 10
48.304611
 20
120.177110
 30
0.0
 10
47.164992
 20
120.891030
 30
0.0
 10
46.742646
 20
121.953527
 30
0.0
  0
SPLINE
  5
138
100
AcDbEntity
  8
Layer_1
 62
7
100
AcDbSpline
 70
8
 71
3
 72
8
 73
4
 74
0
 40
0
 40
0
 40
0
 40
0
 40
1
 40
1
 40
1
 40
1
 10
46.742646
 20
121.953527
 30
0.0
 10
46.290295
 20
123.003512
 30
0.0
 10
46.591457
 20
124.314231
 30
0.0
 10
47.456965
 20
125.061293
 30
0.0
  0
SPLINE
  5
139
100
AcDbEntity
  8
Layer_1
 62
7
100
AcDbSpline
 70
8
 71
3
 72
8
 73
4
 74
0
 40
0
 40
0
 40
0
 40
0
 40
1
 40
1
 40
1
 40
1
 10
47.456965
 20
125.061293
 30
0.0
 10
47.524131
 20
125.121039
 30
0.0
 10
47.594207
 20
125.177523
 30
0.0
 10
47.666933
 20
125.230364
 30
0.0
  0
LINE
  5
13a
100
AcDbEntity
  8
Layer_1
 62
7
100
AcDbLine
 10
47.666933
 20
125.230364
 30
0.0
 11
47.666933
 21
125.230364
 31
0.0
  0
SPLINE
  5
13b
100
AcDbEntity
  8
Layer_1
 62
7
100
AcDbSpline
 70
8
 71
3
 72
8
 73
4
 74
0
 40
0
 40
0
 40
0
 40
0
 40
1
 40
1
 40
1
 40
1
 10
162.383335
 20
120.255576
 30
0.0
 10
161.239993
 20
120.239574
 30
0.0
 10
160.144452
 20
121.019213
 30
0.0
 10
159.785073
 20
122.104741
 30
0.0
  0
SPLINE
  5
13c
100
AcDbEntity
  8
Layer_1
 62
7
100
AcDbSpline
 70
8
 71
3
 72
8
 73
4
 74
0
 40
0
 40
0
 40
0
 40
0
 40
1
 40
1
 40
1
 40
1
 10
159.785073
 20
122.104741
 30
0.0
 10
159.395422
 20
123.179723
 30
0.0
 10
159.773163
 20
124.470249
 30
0.0
 10
160.681089
 20
125.165340
 30
0.0
  0
SPLINE
  5
13d
100
AcDbEntity
  8
Layer_1
 62
7
100
AcDbSpline
 70
8
 71
3
 72
8
 73
4
 74
0
 40
0
 40
0
 40
0
 40
0
 40
1
 40
1
 40
1
 40
1
 10
160.681089
 20
125.165340
 30
0.0
 10
161.569025
 20
125.885636
 30
0.0
 10
162.912103
 20
125.951529
 30
0.0
 10
163.866203
 20
125.321411
 30
0.0
  0
SPLINE
  5
13e
100
AcDbEntity
  8
Layer_1
 62
7
100
AcDbSpline
 70
8
 71
3
 72
8
 73
4
 74
0
 40
0
 40
0
 40
0
 40
0
 40
1
 40
1
 40
1
 40
1
 10
163.866203
 20
125.321411
 30
0.0
 10
164.837683
 20
124.718565
 30
0.0
 10
165.339996
 20
123.471109
 30
0.0
 10
165.057156
 20
122.363279
 30
0.0
  0
SPLINE
  5
13f
100
AcDbEntity
  8
Layer_1
 62
7
100
AcDbSpline
 70
8
 71
3
 72
8
 73
4
 74
0
 40
0
 40
0
 40
0
 40
0
 40
1
 40
1
 40
1
 40
1
 10
165.057156
 20
122.363279
 30
0.0
 10
164.805961
 20
121.247940
 30
0.0
 10
163.791880
 20
120.364604
 30
0.0
 10
162.652577
 20
120.268942
 30
0.0
  0
SPLINE
  5
140
100
AcDbEntity
  8
Layer_1
 62
7
100
AcDbSpline
 70
8
 71
3
 72
8
 73
4
 74
0
 40
0
 40
0
 40
0
 40
0
 40
1
 40
1
 40
1
 40
1
 10
162.652577
 20
120.268942
 30
0.0
 10
162.563121
 20
120.260080
 30
0.0
 10
162.473231
 20
120.255565
 30
0.0
 10
162.383335
 20
120.255565
 30
0.0
  0
LINE
  5
141
100
AcDbEntity
  8
Layer_1
 62
7
100
AcDbLine
 10
162.383335
 20
120.255565
 30
0.0
 11
162.383335
 21
120.255576
 31
0.0
  0
SPLINE
  5
142
100
AcDbEntity
  8
Layer_1
 62
7
100
AcDbSpline
 70
8
 71
3
 72
8
 73
4
 74
0
 40
0
 40
0
 40
0
 40
0
 40
1
 40
1
 40
1
 40
1
 10
49.891335
 20
100.211759
 30
0.0
 10
50.502907
 20
99.780362
 30
0.0
 10
50.783126
 20
98.946054
 30
0.0
 10
50.555782
 20
98.232977
 30
0.0
  0
SPLINE
  5
143
100
AcDbEntity
  8
Layer_1
 62
7
100
AcDbSpline
 70
8
 71
3
 72
8
 73
4
 74
0
 40
0
 40
0
 40
0
 40
0
 40
1
 40
1
 40
1
 40
1
 10
50.555782
 20
98.232977
 30
0.0
 10
50.348526
 20
97.513827
 30
0.0
 10
49.652005
 20
96.975785
 30
0.0
 10
48.903805
 20
96.956969
 30
0.0
  0
SPLINE
  5
144
100
AcDbEntity
  8
Layer_1
 62
7
100
AcDbSpline
 70
8
 71
3
 72
8
 73
4
 74
0
 40
0
 40
0
 40
0
 40
0
 40
1
 40
1
 40
1
 40
1
 10
48.903805
 20
96.956969
 30
0.0
 10
48.156484
 20
96.917181
 30
0.0
 10
47.419929
 20
97.399036
 30
0.0
 10
47.157118
 20
98.099777
 30
0.0
  0
SPLINE
  5
145
100
AcDbEntity
  8
Layer_1
 62
7
100
AcDbSpline
 70
8
 71
3
 72
8
 73
4
 74
0
 40
0
 40
0
 40
0
 40
0
 40
1
 40
1
 40
1
 40
1
 10
47.157118
 20
98.099777
 30
0.0
 10
46.874605
 20
98.792745
 30
0.0
 10
47.088592
 20
99.646549
 30
0.0
 10
47.664565
 20
100.124349
 30
0.0
  0
SPLINE
  5
146
100
AcDbEntity
  8
Layer_1
 62
7
100
AcDbSpline
 70
8
 71
3
 72
8
 73
4
 74
0
 40
0
 40
0
 40
0
 40
0
 40
1
 40
1
 40
1
 40
1
 10
47.664565
 20
100.124349
 30
0.0
 10
48.226681
 20
100.618322
 30
0.0
 10
49.103511
 20
100.695990
 30
0.0
 10
49.743611
 20
100.308273
 30
0.0
  0
SPLINE
  5
147
100
AcDbEntity
  8
Layer_1
 62
7
100
AcDbSpline
 70
8
 71
3
 72
8
 73
4
 74
0
 40
0
 40
0
 40
0
 40
0
 40
1
 40
1
 40
1
 40
1
 10
49.743611
 20
100.308273
 30
0.0
 10
49.794391
 20
100.278544
 30
0.0
 10
49.843730
 20
100.246345
 30
0.0
 10
49.891335
 20
100.211759
 30
0.0
  0
LINE
  5
148
100
AcDbEntity
  8
Layer_1
 62
7
100
AcDbLine
 10
49.891335
 20
100.211759
 30
0.0
 11
49.891335
 21
100.211759
 31
0.0
  0
SPLINE
  5
149
100
AcDbEntity
  8
Layer_1
 62
7
100
AcDbSpline
 70
8
 71
3
 72
8
 73
4
 74
0
 40
0
 40
0
 40
0
 40
0
 40
1
 40
1
 40
1
 40
1
 10
164.289534
 20
97.697554
 30
0.0
 10
163.858115
 20
97.086006
 30
0.0
 10
163.023818
 20
96.805760
 30
0.0
 10
162.310739
 20
97.033124
 30
0.0
  0
SPLINE
  5
14a
100
AcDbEntity
  8
Layer_1
 62
7
100
AcDbSpline
 70
8
 71
3
 72
8
 73
4
 74
0
 40
0
 40
0
 40
0
 40
0
 40
1
 40
1
 40
1
 40
1
 10
162.310739
 20
97.033124
 30
0.0
 10
161.591594
 20
97.240390
 30
0.0
 10
161.053532
 20
97.936895
 30
0.0
 10
161.034738
 20
98.685106
 30
0.0
  0
SPLINE
  5
14b
100
AcDbEntity
  8
Layer_1
 62
7
100
AcDbSpline
 70
8
 71
3
 72
8
 73
4
 74
0
 40
0
 40
0
 40
0
 40
0
 40
1
 40
1
 40
1
 40
1
 10
161.034738
 20
98.685106
 30
0.0
 10
160.994942
 20
99.432427
 30
0.0
 10
161.476806
 20
100.168957
 30
0.0
 10
162.177541
 20
100.431768
 30
0.0
  0
SPLINE
  5
14c
100
AcDbEntity
  8
Layer_1
 62
7
100
AcDbSpline
 70
8
 71
3
 72
8
 73
4
 74
0
 40
0
 40
0
 40
0
 40
0
 40
1
 40
1
 40
1
 40
1
 10
162.177541
 20
100.431768
 30
0.0
 10
162.870512
 20
100.714303
 30
0.0
 10
163.724299
 20
100.500283
 30
0.0
 10
164.202124
 20
99.924338
 30
0.0
  0
SPLINE
  5
14d
100
AcDbEntity
  8
Layer_1
 62
7
100
AcDbSpline
 70
8
 71
3
 72
8
 73
4
 74
0
 40
0
 40
0
 40
0
 40
0
 40
1
 40
1
 40
1
 40
1
 10
164.202124
 20
99.924338
 30
0.0
 10
164.696106
 20
99.362225
 30
0.0
 10
164.773757
 20
98.485386
 30
0.0
 10
164.386051
 20
97.845280
 30
0.0
  0
SPLINE
  5
14e
100
AcDbEntity
  8
Layer_1
 62
7
100
AcDbSpline
 70
8
 71
3
 72
8
 73
4
 74
0
 40
0
 40
0
 40
0
 40
0
 40
1
 40
1
 40
1
 40
1
 10
164.386051
 20
97.845280
 30
0.0
 10
164.356322
 20
97.794500
 30
0.0
 10
164.324123
 20
97.745162
 30
0.0
 10
164.289534
 20
97.697554
 30
0.0
  0
LINE
  5
14f
100
AcDbEntity
  8
Layer_1
 62
7
100
AcDbLine
 10
164.289534
 20
97.697554
 30
0.0
 11
164.289534
 21
97.697554
 31
0.0
  0
SPLINE
  5
150
100
AcDbEntity
  8
Layer_1
 62
7
100
AcDbSpline
 70
8
 71
3
 72
8
 73
4
 74
0
 40
0
 40
0
 40
0
 40
0
 40
1
 40
1
 40
1
 40
1
 10
104.121433
 20
99.311752
 30
0.0
 10
104.342723
 20
100.026739
 30
0.0
 10
105.049676
 20
100.551024
 30
0.0
 10
105.798112
 20
100.555209
 30
0.0
  0
SPLINE
  5
151
100
AcDbEntity
  8
Layer_1
 62
7
100
AcDbSpline
 70
8
 71
3
 72
8
 73
4
 74
0
 40
0
 40
0
 40
0
 40
0
 40
1
 40
1
 40
1
 40
1
 10
105.798112
 20
100.555209
 30
0.0
 10
106.546100
 20
100.580299
 30
0.0
 10
107.273062
 20
100.084124
 30
0.0
 10
107.522117
 20
99.378348
 30
0.0
  0
SPLINE
  5
152
100
AcDbEntity
  8
Layer_1
 62
7
100
AcDbSpline
 70
8
 71
3
 72
8
 73
4
 74
0
 40
0
 40
0
 40
0
 40
0
 40
1
 40
1
 40
1
 40
1
 10
107.522117
 20
99.378348
 30
0.0
 10
107.790903
 20
98.679927
 30
0.0
 10
107.560274
 20
97.830517
 30
0.0
 10
106.975021
 20
97.364072
 30
0.0
  0
SPLINE
  5
153
100
AcDbEntity
  8
Layer_1
 62
7
100
AcDbSpline
 70
8
 71
3
 72
8
 73
4
 74
0
 40
0
 40
0
 40
0
 40
0
 40
1
 40
1
 40
1
 40
1
 10
106.975021
 20
97.364072
 30
0.0
 10
106.403261
 20
96.881243
 30
0.0
 10
105.525104
 20
96.820825
 30
0.0
 10
104.892698
 20
97.221022
 30
0.0
  0
SPLINE
  5
154
100
AcDbEntity
  8
Layer_1
 62
7
100
AcDbSpline
 70
8
 71
3
 72
8
 73
4
 74
0
 40
0
 40
0
 40
0
 40
0
 40
1
 40
1
 40
1
 40
1
 10
104.892698
 20
97.221022
 30
0.0
 10
104.249203
 20
97.602973
 30
0.0
 10
103.904421
 20
98.412891
 30
0.0
 10
104.075301
 20
99.141459
 30
0.0
  0
SPLINE
  5
155
100
AcDbEntity
  8
Layer_1
 62
7
100
AcDbSpline
 70
8
 71
3
 72
8
 73
4
 74
0
 40
0
 40
0
 40
0
 40
0
 40
1
 40
1
 40
1
 40
1
 10
104.075301
 20
99.141459
 30
0.0
 10
104.087888
 20
99.198931
 30
0.0
 10
104.103241
 20
99.255796
 30
0.0
 10
104.121433
 20
99.311752
 30
0.0
  0
LINE
  5
156
100
AcDbEntity
  8
Layer_1
 62
7
100
AcDbLine
 10
104.121433
 20
99.311752
 30
0.0
 11
104.121433
 21
99.311752
 31
0.0
  0
ENDSEC
  0
SECTION
  2
OBJECTS
  0
DICTIONARY
  5
C
330
0
100
AcDbDictionary
  3
ACAD_GROUP
350
D
  3
ACAD_MLINESTYLE
350
17
  0
DICTIONARY
  5
D
330
C
100
AcDbDictionary
  0
DICTIONARY
  5
1A
330
C
100
AcDbDictionary
  0
DICTIONARY
  5
17
330
C
100
AcDbDictionary
  3
STANDARD
350
18
  0
DICTIONARY
  5
19
330
C
100
AcDbDictionary
  0
ENDSEC
  0
EOF
