  0
SECTION
  2
HEADER
  9
$ACADVER
  1
AC1027
  9
$ACADMAINTVER
 70
    55
  9
$DWGCODEPAGE
  3
ANSI_1252
  9
$LASTSAVEDBY
  1
Moritz
  9
$REQUIREDVERSIONS
160
                 0
  9
$INSBASE
 10
0.0
 20
0.0
 30
0.0
  9
$EXTMIN
 10
0.141111
 20
0.141112
 30
0.0
  9
$EXTMAX
 10
108.141115
 20
250.141109
 30
0.0
  9
$LIMMIN
 10
0.0
 20
0.0
  9
$LIMMAX
 10
12.0
 20
9.0
  9
$ORTHOMODE
 70
     0
  9
$REGENMODE
 70
     1
  9
$FILLMODE
 70
     1
  9
$QTEXTMODE
 70
     0
  9
$MIRRTEXT
 70
     0
  9
$LTSCALE
 40
1.0
  9
$ATTMODE
 70
     1
  9
$TEXTSIZE
 40
2.5
  9
$TRACEWID
 40
0.05
  9
$TEXTSTYLE
  7
STANDARD
  9
$CLAYER
  8
0
  9
$CELTYPE
  6
CONTINUOUS
  9
$CECOLOR
 62
   256
  9
$CELTSCALE
 40
1.0
  9
$DISPSILH
 70
     0
  9
$DIMSCALE
 40
1.0
  9
$DIMASZ
 40
0.18
  9
$DIMEXO
 40
0.0625
  9
$DIMDLI
 40
0.38
  9
$DIMRND
 40
0.0
  9
$DIMDLE
 40
0.0
  9
$DIMEXE
 40
0.18
  9
$DIMTP
 40
0.0
  9
$DIMTM
 40
0.0
  9
$DIMTXT
 40
0.18
  9
$DIMCEN
 40
0.09
  9
$DIMTSZ
 40
0.0
  9
$DIMTOL
 70
     0
  9
$DIMLIM
 70
     0
  9
$DIMTIH
 70
     1
  9
$DIMTOH
 70
     1
  9
$DIMSE1
 70
     0
  9
$DIMSE2
 70
     0
  9
$DIMTAD
 70
     0
  9
$DIMZIN
 70
     0
  9
$DIMBLK
  1

  9
$DIMASO
 70
     1
  9
$DIMSHO
 70
     1
  9
$DIMPOST
  1

  9
$DIMAPOST
  1

  9
$DIMALT
 70
     0
  9
$DIMALTD
 70
     2
  9
$DIMALTF
 40
25.4
  9
$DIMLFAC
 40
1.0
  9
$DIMTOFL
 70
     0
  9
$DIMTVP
 40
0.0
  9
$DIMTIX
 70
     0
  9
$DIMSOXD
 70
     0
  9
$DIMSAH
 70
     0
  9
$DIMBLK1
  1

  9
$DIMBLK2
  1

  9
$DIMSTYLE
  2
ISO-25
  9
$DIMCLRD
 70
     0
  9
$DIMCLRE
 70
     0
  9
$DIMCLRT
 70
     0
  9
$DIMTFAC
 40
1.0
  9
$DIMGAP
 40
0.09
  9
$DIMJUST
 70
     0
  9
$DIMSD1
 70
     0
  9
$DIMSD2
 70
     0
  9
$DIMTOLJ
 70
     1
  9
$DIMTZIN
 70
     0
  9
$DIMALTZ
 70
     0
  9
$DIMALTTZ
 70
     0
  9
$DIMUPT
 70
     0
  9
$DIMDEC
 70
     4
  9
$DIMTDEC
 70
     4
  9
$DIMALTU
 70
     2
  9
$DIMALTTD
 70
     2
  9
$DIMTXSTY
  7
STANDARD
  9
$DIMAUNIT
 70
     0
  9
$DIMADEC
 70
     0
  9
$DIMALTRND
 40
0.0
  9
$DIMAZIN
 70
     0
  9
$DIMDSEP
 70
    46
  9
$DIMATFIT
 70
     3
  9
$DIMFRAC
 70
     0
  9
$DIMLDRBLK
  1

  9
$DIMLUNIT
 70
     2
  9
$DIMLWD
 70
    -2
  9
$DIMLWE
 70
    -2
  9
$DIMTMOVE
 70
     0
  9
$DIMFXL
 40
1.0
  9
$DIMFXLON
 70
     0
  9
$DIMJOGANG
 40
0.7853981633974483
  9
$DIMTFILL
 70
     0
  9
$DIMTFILLCLR
 70
     0
  9
$DIMARCSYM
 70
     0
  9
$DIMLTYPE
  6

  9
$DIMLTEX1
  6

  9
$DIMLTEX2
  6

  9
$DIMTXTDIRECTION
 70
     0
  9
$LUNITS
 70
     2
  9
$LUPREC
 70
     4
  9
$SKETCHINC
 40
0.1
  9
$FILLETRAD
 40
0.0
  9
$AUNITS
 70
     0
  9
$AUPREC
 70
     0
  9
$MENU
  1
.
  9
$ELEVATION
 40
0.0
  9
$PELEVATION
 40
0.0
  9
$THICKNESS
 40
0.0
  9
$LIMCHECK
 70
     0
  9
$CHAMFERA
 40
0.0
  9
$CHAMFERB
 40
0.0
  9
$CHAMFERC
 40
0.0
  9
$CHAMFERD
 40
0.0
  9
$SKPOLY
 70
     0
  9
$TDCREATE
 40
2457171.836392431
  9
$TDUCREATE
 40
2457171.753059097
  9
$TDUPDATE
 40
2457171.836581089
  9
$TDUUPDATE
 40
2457171.753247755
  9
$TDINDWG
 40
0.0001888426
  9
$TDUSRTIMER
 40
0.0001888426
  9
$USRTIMER
 70
     1
  9
$ANGBASE
 50
0.0
  9
$ANGDIR
 70
     0
  9
$PDMODE
 70
     0
  9
$PDSIZE
 40
0.0
  9
$PLINEWID
 40
0.0
  9
$SPLFRAME
 70
     0
  9
$SPLINETYPE
 70
     6
  9
$SPLINESEGS
 70
     8
  9
$HANDSEED
  5
1006D
  9
$SURFTAB1
 70
     6
  9
$SURFTAB2
 70
     6
  9
$SURFTYPE
 70
     6
  9
$SURFU
 70
     6
  9
$SURFV
 70
     6
  9
$UCSBASE
  2

  9
$UCSNAME
  2

  9
$UCSORG
 10
0.0
 20
0.0
 30
0.0
  9
$UCSXDIR
 10
1.0
 20
0.0
 30
0.0
  9
$UCSYDIR
 10
0.0
 20
1.0
 30
0.0
  9
$UCSORTHOREF
  2

  9
$UCSORTHOVIEW
 70
     0
  9
$UCSORGTOP
 10
0.0
 20
0.0
 30
0.0
  9
$UCSORGBOTTOM
 10
0.0
 20
0.0
 30
0.0
  9
$UCSORGLEFT
 10
0.0
 20
0.0
 30
0.0
  9
$UCSORGRIGHT
 10
0.0
 20
0.0
 30
0.0
  9
$UCSORGFRONT
 10
0.0
 20
0.0
 30
0.0
  9
$UCSORGBACK
 10
0.0
 20
0.0
 30
0.0
  9
$PUCSBASE
  2

  9
$PUCSNAME
  2

  9
$PUCSORG
 10
0.0
 20
0.0
 30
0.0
  9
$PUCSXDIR
 10
1.0
 20
0.0
 30
0.0
  9
$PUCSYDIR
 10
0.0
 20
1.0
 30
0.0
  9
$PUCSORTHOREF
  2

  9
$PUCSORTHOVIEW
 70
     0
  9
$PUCSORGTOP
 10
0.0
 20
0.0
 30
0.0
  9
$PUCSORGBOTTOM
 10
0.0
 20
0.0
 30
0.0
  9
$PUCSORGLEFT
 10
0.0
 20
0.0
 30
0.0
  9
$PUCSORGRIGHT
 10
0.0
 20
0.0
 30
0.0
  9
$PUCSORGFRONT
 10
0.0
 20
0.0
 30
0.0
  9
$PUCSORGBACK
 10
0.0
 20
0.0
 30
0.0
  9
$USERI1
 70
     0
  9
$USERI2
 70
     0
  9
$USERI3
 70
     0
  9
$USERI4
 70
     0
  9
$USERI5
 70
     0
  9
$USERR1
 40
0.0
  9
$USERR2
 40
0.0
  9
$USERR3
 40
0.0
  9
$USERR4
 40
0.0
  9
$USERR5
 40
0.0
  9
$WORLDVIEW
 70
     1
  9
$SHADEDGE
 70
     3
  9
$SHADEDIF
 70
    70
  9
$TILEMODE
 70
     1
  9
$MAXACTVP
 70
    64
  9
$PINSBASE
 10
0.0
 20
0.0
 30
0.0
  9
$PLIMCHECK
 70
     0
  9
$PEXTMIN
 10
1.000000000000000E+20
 20
1.000000000000000E+20
 30
1.000000000000000E+20
  9
$PEXTMAX
 10
-1.000000000000000E+20
 20
-1.000000000000000E+20
 30
-1.000000000000000E+20
  9
$PLIMMIN
 10
0.0
 20
0.0
  9
$PLIMMAX
 10
12.0
 20
9.0
  9
$UNITMODE
 70
     0
  9
$VISRETAIN
 70
     1
  9
$PLINEGEN
 70
     0
  9
$PSLTSCALE
 70
     1
  9
$TREEDEPTH
 70
  3020
  9
$CMLSTYLE
  2
STANDARD
  9
$CMLJUST
 70
     0
  9
$CMLSCALE
 40
1.0
  9
$PROXYGRAPHICS
 70
     1
  9
$MEASUREMENT
 70
     1
  9
$CELWEIGHT
370
    -1
  9
$ENDCAPS
280
     0
  9
$JOINSTYLE
280
     0
  9
$LWDISPLAY
290
     0
  9
$INSUNITS
 70
     0
  9
$HYPERLINKBASE
  1

  9
$STYLESHEET
  1

  9
$XEDIT
290
     1
  9
$CEPSNTYPE
380
     0
  9
$PSTYLEMODE
290
     1
  9
$FINGERPRINTGUID
  2
{BE43EE98-85B3-4501-8D03-E54AC2A81124}
  9
$VERSIONGUID
  2
{792A1128-EC9C-4839-A9CA-8A347097111D}
  9
$EXTNAMES
290
     1
  9
$PSVPSCALE
 40
0.0
  9
$OLESTARTUP
290
     0
  9
$SORTENTS
280
   127
  9
$INDEXCTL
280
     0
  9
$HIDETEXT
280
     0
  9
$XCLIPFRAME
280
     2
  9
$HALOGAP
280
     0
  9
$OBSCOLOR
 70
   257
  9
$OBSLTYPE
280
     0
  9
$INTERSECTIONDISPLAY
280
     0
  9
$INTERSECTIONCOLOR
 70
   257
  9
$DIMASSOC
280
     1
  9
$PROJECTNAME
  1

  9
$CAMERADISPLAY
290
     0
  9
$LENSLENGTH
 40
50.0
  9
$CAMERAHEIGHT
 40
0.0
  9
$STEPSPERSEC
 40
2.0
  9
$STEPSIZE
 40
6.0
  9
$3DDWFPREC
 40
2.0
  9
$PSOLWIDTH
 40
0.25
  9
$PSOLHEIGHT
 40
4.0
  9
$LOFTANG1
 40
1.570796326794896
  9
$LOFTANG2
 40
1.570796326794896
  9
$LOFTMAG1
 40
0.0
  9
$LOFTMAG2
 40
0.0
  9
$LOFTPARAM
 70
     7
  9
$LOFTNORMALS
280
     1
  9
$LATITUDE
 40
37.795
  9
$LONGITUDE
 40
-122.394
  9
$NORTHDIRECTION
 40
0.0
  9
$TIMEZONE
 70
 -8000
  9
$LIGHTGLYPHDISPLAY
280
     1
  9
$TILEMODELIGHTSYNCH
280
     1
  9
$CMATERIAL
347
10004
  9
$SOLIDHIST
280
     0
  9
$SHOWHIST
280
     1
  9
$DWFFRAME
280
     2
  9
$DGNFRAME
280
     0
  9
$REALWORLDSCALE
290
     1
  9
$INTERFERECOLOR
 62
     1
  9
$INTERFEREOBJVS
345
10026
  9
$INTERFEREVPVS
346
10023
  9
$CSHADOW
280
     0
  9
$SHADOWPLANELOCATION
 40
0.0
  0
ENDSEC
  0
SECTION
  2
CLASSES
  0
CLASS
  1
ACDBDICTIONARYWDFLT
  2
AcDbDictionaryWithDefault
  3
ObjectDBX Classes
 90
        0
 91
        1
280
     0
281
     0
  0
CLASS
  1
MATERIAL
  2
AcDbMaterial
  3
ObjectDBX Classes
 90
     1153
 91
        3
280
     0
281
     0
  0
CLASS
  1
VISUALSTYLE
  2
AcDbVisualStyle
  3
ObjectDBX Classes
 90
     4095
 91
       24
280
     0
281
     0
  0
CLASS
  1
TABLESTYLE
  2
AcDbTableStyle
  3
ObjectDBX Classes
 90
     4095
 91
        1
280
     0
281
     0
  0
CLASS
  1
SCALE
  2
AcDbScale
  3
ObjectDBX Classes
 90
     1153
 91
       17
280
     0
281
     0
  0
CLASS
  1
MLEADERSTYLE
  2
AcDbMLeaderStyle
  3
ACDB_MLEADERSTYLE_CLASS
 90
     4095
 91
        1
280
     0
281
     0
  0
CLASS
  1
ACDBSECTIONVIEWSTYLE
  2
AcDbSectionViewStyle
  3
ObjectDBX Classes
 90
     1025
 91
        1
280
     0
281
     0
  0
CLASS
  1
ACDBDETAILVIEWSTYLE
  2
AcDbDetailViewStyle
  3
ObjectDBX Classes
 90
     1025
 91
        1
280
     0
281
     0
  0
CLASS
  1
DICTIONARYVAR
  2
AcDbDictionaryVar
  3
ObjectDBX Classes
 90
        0
 91
        9
280
     0
281
     0
  0
CLASS
  1
CELLSTYLEMAP
  2
AcDbCellStyleMap
  3
ObjectDBX Classes
 90
     1152
 91
        1
280
     0
281
     0
  0
ENDSEC
  0
SECTION
  2
TABLES
  0
TABLE
  2
VPORT
  5
8
330
0
100
AcDbSymbolTable
 70
     1
  0
VPORT
  5
2E
330
8
100
AcDbSymbolTableRecord
100
AcDbViewportTableRecord
  2
*ACTIVE
 70
     0
 10
0.0
 20
0.0
 11
1.0
 21
1.0
 12
400.4425621890548
 22
148.5
 13
0.0
 23
0.0
 14
10.0
 24
10.0
 15
10.0
 25
10.0
 16
0.0
 26
0.0
 36
1.0
 17
0.0
 27
0.0
 37
0.0
 40
341.0
 41
2.356965174129353
 42
50.0
 43
0.0
 44
0.0
 50
0.0
 51
0.0
 71
     0
 72
   100
 73
     1
 74
     3
 75
     0
 76
     0
 77
     0
 78
     0
281
     0
 65
     1
110
0.0
120
0.0
130
0.0
111
1.0
121
0.0
131
0.0
112
0.0
122
1.0
132
0.0
 79
     0
146
0.0
348
10022
 60
     3
 61
     5
292
     1
282
     1
141
0.0
142
0.0
 63
   250
421
  3355443
1001
ACAD_NAV_VCDISPLAY
1070
     3
  0
ENDTAB
  0
TABLE
  2
LTYPE
  5
5
330
0
100
AcDbSymbolTable
 70
     1
  0
LTYPE
  5
14
330
5
100
AcDbSymbolTableRecord
100
AcDbLinetypeTableRecord
  2
BYBLOCK
 70
     0
  3

 72
    65
 73
     0
 40
0.0
  0
LTYPE
  5
15
330
5
100
AcDbSymbolTableRecord
100
AcDbLinetypeTableRecord
  2
BYLAYER
 70
     0
  3

 72
    65
 73
     0
 40
0.0
  0
LTYPE
  5
16
330
5
100
AcDbSymbolTableRecord
100
AcDbLinetypeTableRecord
  2
CONTINUOUS
 70
     0
  3
Solid line
 72
    65
 73
     0
 40
0.0
  0
ENDTAB
  0
TABLE
  2
LAYER
  5
2
330
0
100
AcDbSymbolTable
 70
     2
  0
LAYER
  5
50
102
{ACAD_XDICTIONARY
360
10057
102
}
330
2
100
AcDbSymbolTableRecord
100
AcDbLayerTableRecord
  2
0
 70
     0
 62
     7
  6
CONTINUOUS
370
    -3
390
10002
347
10014
348
0
  0
LAYER
  5
51
102
{ACAD_XDICTIONARY
360
10059
102
}
330
2
100
AcDbSymbolTableRecord
100
AcDbLayerTableRecord
  2
LAYER_1
 70
     0
 62
     7
  6
CONTINUOUS
370
    -3
390
10002
347
10014
348
0
  0
ENDTAB
  0
TABLE
  2
STYLE
  5
3
330
0
100
AcDbSymbolTable
 70
     1
  0
STYLE
  5
11
330
3
100
AcDbSymbolTableRecord
100
AcDbTextStyleTableRecord
  2
STANDARD
 70
     0
 40
0.0
 41
1.0
 50
0.0
 71
     0
 42
2.5
  3
txt
  4

  0
ENDTAB
  0
TABLE
  2
VIEW
  5
6
330
0
100
AcDbSymbolTable
 70
     0
  0
ENDTAB
  0
TABLE
  2
UCS
  5
7
330
0
100
AcDbSymbolTable
 70
     0
  0
ENDTAB
  0
TABLE
  2
APPID
  5
9
330
0
100
AcDbSymbolTable
 70
     2
  0
APPID
  5
12
330
9
100
AcDbSymbolTableRecord
100
AcDbRegAppTableRecord
  2
ACAD
 70
     0
  0
APPID
  5
10065
330
9
100
AcDbSymbolTableRecord
100
AcDbRegAppTableRecord
  2
ACAD_NAV_VCDISPLAY
 70
     0
  0
ENDTAB
  0
TABLE
  2
DIMSTYLE
  5
A
330
0
100
AcDbSymbolTable
 70
     1
100
AcDbDimStyleTable
 71
     0
  0
DIMSTYLE
105
27
330
A
100
AcDbSymbolTableRecord
100
AcDbDimStyleTableRecord
  2
ISO-25
 70
     0
 41
2.5
 42
0.625
 43
3.75
 44
1.25
 73
     0
 74
     0
 77
     1
 78
     8
140
2.5
141
2.5
143
0.03937007874016
147
0.625
171
     3
172
     1
271
     2
272
     2
274
     3
283
     0
284
     8
340
11
  0
ENDTAB
  0
TABLE
  2
BLOCK_RECORD
  5
1
330
0
100
AcDbSymbolTable
 70
     0
  0
BLOCK_RECORD
  5
1F
330
1
100
AcDbSymbolTableRecord
100
AcDbBlockTableRecord
  2
*MODEL_SPACE
340
10052
 70
     0
280
     1
281
     0
  0
BLOCK_RECORD
  5
1B
330
1
100
AcDbSymbolTableRecord
100
AcDbBlockTableRecord
  2
*PAPER_SPACE
340
10053
 70
     0
280
     1
281
     0
  0
ENDTAB
  0
ENDSEC
  0
SECTION
  2
BLOCKS
  0
BLOCK
  5
20
330
1F
100
AcDbEntity
  8
0
100
AcDbBlockBegin
  2
*MODEL_SPACE
 70
     0
 10
0.0
 20
0.0
 30
0.0
  3
*MODEL_SPACE
  1

  0
ENDBLK
  5
21
330
1F
100
AcDbEntity
  8
0
100
AcDbBlockEnd
  0
BLOCK
  5
1C
330
1B
100
AcDbEntity
 67
     1
  8
0
100
AcDbBlockBegin
  2
*PAPER_SPACE
 70
     0
 10
0.0
 20
0.0
 30
0.0
  3
*PAPER_SPACE
  1

  0
ENDBLK
  5
1D
330
1B
100
AcDbEntity
 67
     1
  8
0
100
AcDbBlockEnd
  0
ENDSEC
  0
SECTION
  2
ENTITIES
  0
LINE
  5
100
330
1F
100
AcDbEntity
  8
LAYER_1
 62
     7
100
AcDbLine
 10
108.141115
 20
0.141112
 30
0.0
 11
108.141115
 21
250.141109
 31
0.0
  0
LINE
  5
101
330
1F
100
AcDbEntity
  8
LAYER_1
 62
     7
100
AcDbLine
 10
108.141115
 20
125.141111
 30
0.0
 11
0.141111
 21
125.141111
 31
0.0
  0
LINE
  5
102
330
1F
100
AcDbEntity
  8
LAYER_1
 62
     7
100
AcDbLine
 10
0.141111
 20
250.141109
 30
0.0
 11
0.141111
 21
0.141112
 31
0.0
  0
LINE
  5
103
330
1F
100
AcDbEntity
  8
LAYER_1
 62
     7
100
AcDbLine
 10
0.141111
 20
0.141112
 30
0.0
 11
108.141115
 21
0.141112
 31
0.0
  0
LINE
  5
104
330
1F
100
AcDbEntity
  8
LAYER_1
 62
     7
100
AcDbLine
 10
100.429215
 20
120.197311
 30
0.0
 11
100.684914
 21
120.699111
 31
0.0
  0
LINE
  5
105
330
1F
100
AcDbEntity
  8
LAYER_1
 62
     7
100
AcDbLine
 10
100.684914
 20
120.699111
 30
0.0
 11
101.083116
 21
121.097312
 31
0.0
  0
LINE
  5
106
330
1F
100
AcDbEntity
  8
LAYER_1
 62
     7
100
AcDbLine
 10
101.083116
 20
121.097312
 30
0.0
 11
101.584915
 21
121.353011
 31
0.0
  0
LINE
  5
107
330
1F
100
AcDbEntity
  8
LAYER_1
 62
     7
100
AcDbLine
 10
101.584915
 20
121.353011
 30
0.0
 11
102.141116
 21
121.441113
 31
0.0
  0
LINE
  5
108
330
1F
100
AcDbEntity
  8
LAYER_1
 62
     7
100
AcDbLine
 10
102.141116
 20
121.441113
 30
0.0
 11
102.697314
 21
121.353011
 31
0.0
  0
LINE
  5
109
330
1F
100
AcDbEntity
  8
LAYER_1
 62
     7
100
AcDbLine
 10
102.697314
 20
121.353011
 30
0.0
 11
103.199113
 21
121.097312
 31
0.0
  0
LINE
  5
10A
330
1F
100
AcDbEntity
  8
LAYER_1
 62
     7
100
AcDbLine
 10
103.199113
 20
121.097312
 30
0.0
 11
103.597315
 21
120.699111
 31
0.0
  0
LINE
  5
10B
330
1F
100
AcDbEntity
  8
LAYER_1
 62
     7
100
AcDbLine
 10
103.597315
 20
120.699111
 30
0.0
 11
103.853014
 21
120.197311
 31
0.0
  0
LINE
  5
10C
330
1F
100
AcDbEntity
  8
LAYER_1
 62
     7
100
AcDbLine
 10
103.853014
 20
120.197311
 30
0.0
 11
103.941115
 21
119.641111
 31
0.0
  0
LINE
  5
10D
330
1F
100
AcDbEntity
  8
LAYER_1
 62
     7
100
AcDbLine
 10
103.941115
 20
119.641111
 30
0.0
 11
103.853014
 21
119.084913
 31
0.0
  0
LINE
  5
10E
330
1F
100
AcDbEntity
  8
LAYER_1
 62
     7
100
AcDbLine
 10
103.853014
 20
119.084913
 30
0.0
 11
103.597315
 21
118.58311
 31
0.0
  0
LINE
  5
10F
330
1F
100
AcDbEntity
  8
LAYER_1
 62
     7
100
AcDbLine
 10
103.597315
 20
118.58311
 30
0.0
 11
103.199113
 21
118.184912
 31
0.0
  0
LINE
  5
110
330
1F
100
AcDbEntity
  8
LAYER_1
 62
     7
100
AcDbLine
 10
103.199113
 20
118.184912
 30
0.0
 11
102.697314
 21
117.929213
 31
0.0
  0
LINE
  5
111
330
1F
100
AcDbEntity
  8
LAYER_1
 62
     7
100
AcDbLine
 10
102.697314
 20
117.929213
 30
0.0
 11
102.141116
 21
117.841111
 31
0.0
  0
LINE
  5
112
330
1F
100
AcDbEntity
  8
LAYER_1
 62
     7
100
AcDbLine
 10
102.141116
 20
117.841111
 30
0.0
 11
101.584915
 21
117.929213
 31
0.0
  0
LINE
  5
113
330
1F
100
AcDbEntity
  8
LAYER_1
 62
     7
100
AcDbLine
 10
101.584915
 20
117.929213
 30
0.0
 11
101.083116
 21
118.184912
 31
0.0
  0
LINE
  5
114
330
1F
100
AcDbEntity
  8
LAYER_1
 62
     7
100
AcDbLine
 10
101.083116
 20
118.184912
 30
0.0
 11
100.684914
 21
118.58311
 31
0.0
  0
LINE
  5
115
330
1F
100
AcDbEntity
  8
LAYER_1
 62
     7
100
AcDbLine
 10
100.684914
 20
118.58311
 30
0.0
 11
100.429215
 21
119.084913
 31
0.0
  0
LINE
  5
116
330
1F
100
AcDbEntity
  8
LAYER_1
 62
     7
100
AcDbLine
 10
100.429215
 20
119.084913
 30
0.0
 11
100.341114
 21
119.641111
 31
0.0
  0
LINE
  5
117
330
1F
100
AcDbEntity
  8
LAYER_1
 62
     7
100
AcDbLine
 10
100.341114
 20
119.641111
 30
0.0
 11
100.429215
 21
120.197311
 31
0.0
  0
LINE
  5
118
330
1F
100
AcDbEntity
  8
LAYER_1
 62
     7
100
AcDbLine
 10
100.429215
 20
91.69731199999999
 30
0.0
 11
100.684914
 21
92.199111
 31
0.0
  0
LINE
  5
119
330
1F
100
AcDbEntity
  8
LAYER_1
 62
     7
100
AcDbLine
 10
100.684914
 20
92.199111
 30
0.0
 11
101.083116
 21
92.597313
 31
0.0
  0
LINE
  5
11A
330
1F
100
AcDbEntity
  8
LAYER_1
 62
     7
100
AcDbLine
 10
101.083116
 20
92.597313
 30
0.0
 11
101.584915
 21
92.85301199999999
 31
0.0
  0
LINE
  5
11B
330
1F
100
AcDbEntity
  8
LAYER_1
 62
     7
100
AcDbLine
 10
101.584915
 20
92.85301199999999
 30
0.0
 11
102.141116
 21
92.941113
 31
0.0
  0
LINE
  5
11C
330
1F
100
AcDbEntity
  8
LAYER_1
 62
     7
100
AcDbLine
 10
102.141116
 20
92.941113
 30
0.0
 11
102.697314
 21
92.85301199999999
 31
0.0
  0
LINE
  5
11D
330
1F
100
AcDbEntity
  8
LAYER_1
 62
     7
100
AcDbLine
 10
102.697314
 20
92.85301199999999
 30
0.0
 11
103.199113
 21
92.597313
 31
0.0
  0
LINE
  5
11E
330
1F
100
AcDbEntity
  8
LAYER_1
 62
     7
100
AcDbLine
 10
103.199113
 20
92.597313
 30
0.0
 11
103.597315
 21
92.199111
 31
0.0
  0
LINE
  5
11F
330
1F
100
AcDbEntity
  8
LAYER_1
 62
     7
100
AcDbLine
 10
103.597315
 20
92.199111
 30
0.0
 11
103.853014
 21
91.69731199999999
 31
0.0
  0
LINE
  5
120
330
1F
100
AcDbEntity
  8
LAYER_1
 62
     7
100
AcDbLine
 10
103.853014
 20
91.69731199999999
 30
0.0
 11
103.941115
 21
91.141111
 31
0.0
  0
LINE
  5
121
330
1F
100
AcDbEntity
  8
LAYER_1
 62
     7
100
AcDbLine
 10
103.941115
 20
91.141111
 30
0.0
 11
103.853014
 21
90.584912
 31
0.0
  0
LINE
  5
122
330
1F
100
AcDbEntity
  8
LAYER_1
 62
     7
100
AcDbLine
 10
103.853014
 20
90.584912
 30
0.0
 11
103.597315
 21
90.08311199999999
 31
0.0
  0
LINE
  5
123
330
1F
100
AcDbEntity
  8
LAYER_1
 62
     7
100
AcDbLine
 10
103.597315
 20
90.08311199999999
 30
0.0
 11
103.199113
 21
89.684912
 31
0.0
  0
LINE
  5
124
330
1F
100
AcDbEntity
  8
LAYER_1
 62
     7
100
AcDbLine
 10
103.199113
 20
89.684912
 30
0.0
 11
102.697314
 21
89.42921199999998
 31
0.0
  0
LINE
  5
125
330
1F
100
AcDbEntity
  8
LAYER_1
 62
     7
100
AcDbLine
 10
102.697314
 20
89.42921199999998
 30
0.0
 11
102.141116
 21
89.341112
 31
0.0
  0
LINE
  5
126
330
1F
100
AcDbEntity
  8
LAYER_1
 62
     7
100
AcDbLine
 10
102.141116
 20
89.341112
 30
0.0
 11
101.584915
 21
89.42921199999998
 31
0.0
  0
LINE
  5
127
330
1F
100
AcDbEntity
  8
LAYER_1
 62
     7
100
AcDbLine
 10
101.584915
 20
89.42921199999998
 30
0.0
 11
101.083116
 21
89.684912
 31
0.0
  0
LINE
  5
128
330
1F
100
AcDbEntity
  8
LAYER_1
 62
     7
100
AcDbLine
 10
101.083116
 20
89.684912
 30
0.0
 11
100.684914
 21
90.08311199999999
 31
0.0
  0
LINE
  5
129
330
1F
100
AcDbEntity
  8
LAYER_1
 62
     7
100
AcDbLine
 10
100.684914
 20
90.08311199999999
 30
0.0
 11
100.429215
 21
90.584912
 31
0.0
  0
LINE
  5
12A
330
1F
100
AcDbEntity
  8
LAYER_1
 62
     7
100
AcDbLine
 10
100.429215
 20
90.584912
 30
0.0
 11
100.341114
 21
91.141111
 31
0.0
  0
LINE
  5
12B
330
1F
100
AcDbEntity
  8
LAYER_1
 62
     7
100
AcDbLine
 10
100.341114
 20
91.141111
 30
0.0
 11
100.429215
 21
91.69731199999999
 31
0.0
  0
LINE
  5
12C
330
1F
100
AcDbEntity
  8
LAYER_1
 62
     7
100
AcDbLine
 10
100.429215
 20
6.197311
 30
0.0
 11
100.684914
 21
6.699113
 31
0.0
  0
LINE
  5
12D
330
1F
100
AcDbEntity
  8
LAYER_1
 62
     7
100
AcDbLine
 10
100.684914
 20
6.699113
 30
0.0
 11
101.083116
 21
7.097311999999999
 31
0.0
  0
LINE
  5
12E
330
1F
100
AcDbEntity
  8
LAYER_1
 62
     7
100
AcDbLine
 10
101.083116
 20
7.097311999999999
 30
0.0
 11
101.584915
 21
7.353011
 31
0.0
  0
LINE
  5
12F
330
1F
100
AcDbEntity
  8
LAYER_1
 62
     7
100
AcDbLine
 10
101.584915
 20
7.353011
 30
0.0
 11
102.141116
 21
7.441111999999999
 31
0.0
  0
LINE
  5
130
330
1F
100
AcDbEntity
  8
LAYER_1
 62
     7
100
AcDbLine
 10
102.141116
 20
7.441111999999999
 30
0.0
 11
102.697314
 21
7.353011
 31
0.0
  0
LINE
  5
131
330
1F
100
AcDbEntity
  8
LAYER_1
 62
     7
100
AcDbLine
 10
102.697314
 20
7.353011
 30
0.0
 11
103.199113
 21
7.097311999999999
 31
0.0
  0
LINE
  5
132
330
1F
100
AcDbEntity
  8
LAYER_1
 62
     7
100
AcDbLine
 10
103.199113
 20
7.097311999999999
 30
0.0
 11
103.597315
 21
6.699113
 31
0.0
  0
LINE
  5
133
330
1F
100
AcDbEntity
  8
LAYER_1
 62
     7
100
AcDbLine
 10
103.597315
 20
6.699113
 30
0.0
 11
103.853014
 21
6.197311
 31
0.0
  0
LINE
  5
134
330
1F
100
AcDbEntity
  8
LAYER_1
 62
     7
100
AcDbLine
 10
103.853014
 20
6.197311
 30
0.0
 11
103.941115
 21
5.641112999999999
 31
0.0
  0
LINE
  5
135
330
1F
100
AcDbEntity
  8
LAYER_1
 62
     7
100
AcDbLine
 10
103.941115
 20
5.641112999999999
 30
0.0
 11
103.853014
 21
5.084912
 31
0.0
  0
LINE
  5
136
330
1F
100
AcDbEntity
  8
LAYER_1
 62
     7
100
AcDbLine
 10
103.853014
 20
5.084912
 30
0.0
 11
103.597315
 21
4.583111999999999
 31
0.0
  0
LINE
  5
137
330
1F
100
AcDbEntity
  8
LAYER_1
 62
     7
100
AcDbLine
 10
103.597315
 20
4.583111999999999
 30
0.0
 11
103.199113
 21
4.184911
 31
0.0
  0
LINE
  5
138
330
1F
100
AcDbEntity
  8
LAYER_1
 62
     7
100
AcDbLine
 10
103.199113
 20
4.184911
 30
0.0
 11
102.697314
 21
3.929212
 31
0.0
  0
LINE
  5
139
330
1F
100
AcDbEntity
  8
LAYER_1
 62
     7
100
AcDbLine
 10
102.697314
 20
3.929212
 30
0.0
 11
102.141116
 21
3.841111
 31
0.0
  0
LINE
  5
13A
330
1F
100
AcDbEntity
  8
LAYER_1
 62
     7
100
AcDbLine
 10
102.141116
 20
3.841111
 30
0.0
 11
101.584915
 21
3.929212
 31
0.0
  0
LINE
  5
13B
330
1F
100
AcDbEntity
  8
LAYER_1
 62
     7
100
AcDbLine
 10
101.584915
 20
3.929212
 30
0.0
 11
101.083116
 21
4.184911
 31
0.0
  0
LINE
  5
13C
330
1F
100
AcDbEntity
  8
LAYER_1
 62
     7
100
AcDbLine
 10
101.083116
 20
4.184911
 30
0.0
 11
100.684914
 21
4.583111999999999
 31
0.0
  0
LINE
  5
13D
330
1F
100
AcDbEntity
  8
LAYER_1
 62
     7
100
AcDbLine
 10
100.684914
 20
4.583111999999999
 30
0.0
 11
100.429215
 21
5.084912
 31
0.0
  0
LINE
  5
13E
330
1F
100
AcDbEntity
  8
LAYER_1
 62
     7
100
AcDbLine
 10
100.429215
 20
5.084912
 30
0.0
 11
100.341114
 21
5.641112999999999
 31
0.0
  0
LINE
  5
13F
330
1F
100
AcDbEntity
  8
LAYER_1
 62
     7
100
AcDbLine
 10
100.341114
 20
5.641112999999999
 30
0.0
 11
100.429215
 21
6.197311
 31
0.0
  0
LINE
  5
140
330
1F
100
AcDbEntity
  8
LAYER_1
 62
     7
100
AcDbLine
 10
100.429215
 20
34.697311
 30
0.0
 11
100.684914
 21
35.199112
 31
0.0
  0
LINE
  5
141
330
1F
100
AcDbEntity
  8
LAYER_1
 62
     7
100
AcDbLine
 10
100.684914
 20
35.199112
 30
0.0
 11
101.083116
 21
35.597312
 31
0.0
  0
LINE
  5
142
330
1F
100
AcDbEntity
  8
LAYER_1
 62
     7
100
AcDbLine
 10
101.083116
 20
35.597312
 30
0.0
 11
101.584915
 21
35.853011
 31
0.0
  0
LINE
  5
143
330
1F
100
AcDbEntity
  8
LAYER_1
 62
     7
100
AcDbLine
 10
101.584915
 20
35.853011
 30
0.0
 11
102.141116
 21
35.941112
 31
0.0
  0
LINE
  5
144
330
1F
100
AcDbEntity
  8
LAYER_1
 62
     7
100
AcDbLine
 10
102.141116
 20
35.941112
 30
0.0
 11
102.697314
 21
35.853011
 31
0.0
  0
LINE
  5
145
330
1F
100
AcDbEntity
  8
LAYER_1
 62
     7
100
AcDbLine
 10
102.697314
 20
35.853011
 30
0.0
 11
103.199113
 21
35.597312
 31
0.0
  0
LINE
  5
146
330
1F
100
AcDbEntity
  8
LAYER_1
 62
     7
100
AcDbLine
 10
103.199113
 20
35.597312
 30
0.0
 11
103.597315
 21
35.199112
 31
0.0
  0
LINE
  5
147
330
1F
100
AcDbEntity
  8
LAYER_1
 62
     7
100
AcDbLine
 10
103.597315
 20
35.199112
 30
0.0
 11
103.853014
 21
34.697311
 31
0.0
  0
LINE
  5
148
330
1F
100
AcDbEntity
  8
LAYER_1
 62
     7
100
AcDbLine
 10
103.853014
 20
34.697311
 30
0.0
 11
103.941115
 21
34.141112
 31
0.0
  0
LINE
  5
149
330
1F
100
AcDbEntity
  8
LAYER_1
 62
     7
100
AcDbLine
 10
103.941115
 20
34.141112
 30
0.0
 11
103.853014
 21
33.584911
 31
0.0
  0
LINE
  5
14A
330
1F
100
AcDbEntity
  8
LAYER_1
 62
     7
100
AcDbLine
 10
103.853014
 20
33.584911
 30
0.0
 11
103.597315
 21
33.083112
 31
0.0
  0
LINE
  5
14B
330
1F
100
AcDbEntity
  8
LAYER_1
 62
     7
100
AcDbLine
 10
103.597315
 20
33.083112
 30
0.0
 11
103.199113
 21
32.68491
 31
0.0
  0
LINE
  5
14C
330
1F
100
AcDbEntity
  8
LAYER_1
 62
     7
100
AcDbLine
 10
103.199113
 20
32.68491
 30
0.0
 11
102.697314
 21
32.429211
 31
0.0
  0
LINE
  5
14D
330
1F
100
AcDbEntity
  8
LAYER_1
 62
     7
100
AcDbLine
 10
102.697314
 20
32.429211
 30
0.0
 11
102.141116
 21
32.34111
 31
0.0
  0
LINE
  5
14E
330
1F
100
AcDbEntity
  8
LAYER_1
 62
     7
100
AcDbLine
 10
102.141116
 20
32.34111
 30
0.0
 11
101.584915
 21
32.429211
 31
0.0
  0
LINE
  5
14F
330
1F
100
AcDbEntity
  8
LAYER_1
 62
     7
100
AcDbLine
 10
101.584915
 20
32.429211
 30
0.0
 11
101.083116
 21
32.68491
 31
0.0
  0
LINE
  5
150
330
1F
100
AcDbEntity
  8
LAYER_1
 62
     7
100
AcDbLine
 10
101.083116
 20
32.68491
 30
0.0
 11
100.684914
 21
33.083112
 31
0.0
  0
LINE
  5
151
330
1F
100
AcDbEntity
  8
LAYER_1
 62
     7
100
AcDbLine
 10
100.684914
 20
33.083112
 30
0.0
 11
100.429215
 21
33.584911
 31
0.0
  0
LINE
  5
152
330
1F
100
AcDbEntity
  8
LAYER_1
 62
     7
100
AcDbLine
 10
100.429215
 20
33.584911
 30
0.0
 11
100.341114
 21
34.141112
 31
0.0
  0
LINE
  5
153
330
1F
100
AcDbEntity
  8
LAYER_1
 62
     7
100
AcDbLine
 10
100.341114
 20
34.141112
 30
0.0
 11
100.429215
 21
34.697311
 31
0.0
  0
LINE
  5
154
330
1F
100
AcDbEntity
  8
LAYER_1
 62
     7
100
AcDbLine
 10
100.429215
 20
63.197341
 30
0.0
 11
100.684914
 21
63.699112
 31
0.0
  0
LINE
  5
155
330
1F
100
AcDbEntity
  8
LAYER_1
 62
     7
100
AcDbLine
 10
100.684914
 20
63.699112
 30
0.0
 11
101.083116
 21
64.09733199999999
 31
0.0
  0
LINE
  5
156
330
1F
100
AcDbEntity
  8
LAYER_1
 62
     7
100
AcDbLine
 10
101.083116
 20
64.09733199999999
 30
0.0
 11
101.584915
 21
64.35301199999999
 31
0.0
  0
LINE
  5
157
330
1F
100
AcDbEntity
  8
LAYER_1
 62
     7
100
AcDbLine
 10
101.584915
 20
64.35301199999999
 30
0.0
 11
102.141116
 21
64.441102
 31
0.0
  0
LINE
  5
158
330
1F
100
AcDbEntity
  8
LAYER_1
 62
     7
100
AcDbLine
 10
102.141116
 20
64.441102
 30
0.0
 11
102.697314
 21
64.35301199999999
 31
0.0
  0
LINE
  5
159
330
1F
100
AcDbEntity
  8
LAYER_1
 62
     7
100
AcDbLine
 10
102.697314
 20
64.35301199999999
 30
0.0
 11
103.199113
 21
64.09733199999999
 31
0.0
  0
LINE
  5
15A
330
1F
100
AcDbEntity
  8
LAYER_1
 62
     7
100
AcDbLine
 10
103.199113
 20
64.09733199999999
 30
0.0
 11
103.597315
 21
63.699112
 31
0.0
  0
LINE
  5
15B
330
1F
100
AcDbEntity
  8
LAYER_1
 62
     7
100
AcDbLine
 10
103.597315
 20
63.699112
 30
0.0
 11
103.853014
 21
63.197341
 31
0.0
  0
LINE
  5
15C
330
1F
100
AcDbEntity
  8
LAYER_1
 62
     7
100
AcDbLine
 10
103.853014
 20
63.197341
 30
0.0
 11
103.941115
 21
62.641112
 31
0.0
  0
LINE
  5
15D
330
1F
100
AcDbEntity
  8
LAYER_1
 62
     7
100
AcDbLine
 10
103.941115
 20
62.641112
 30
0.0
 11
103.853014
 21
62.08488299999999
 31
0.0
  0
LINE
  5
15E
330
1F
100
AcDbEntity
  8
LAYER_1
 62
     7
100
AcDbLine
 10
103.853014
 20
62.08488299999999
 30
0.0
 11
103.597315
 21
61.58311199999999
 31
0.0
  0
LINE
  5
15F
330
1F
100
AcDbEntity
  8
LAYER_1
 62
     7
100
AcDbLine
 10
103.597315
 20
61.58311199999999
 30
0.0
 11
103.199113
 21
61.184892
 31
0.0
  0
LINE
  5
160
330
1F
100
AcDbEntity
  8
LAYER_1
 62
     7
100
AcDbLine
 10
103.199113
 20
61.184892
 30
0.0
 11
102.697314
 21
60.929212
 31
0.0
  0
LINE
  5
161
330
1F
100
AcDbEntity
  8
LAYER_1
 62
     7
100
AcDbLine
 10
102.697314
 20
60.929212
 30
0.0
 11
102.141116
 21
60.84112199999999
 31
0.0
  0
LINE
  5
162
330
1F
100
AcDbEntity
  8
LAYER_1
 62
     7
100
AcDbLine
 10
102.141116
 20
60.84112199999999
 30
0.0
 11
101.584915
 21
60.929212
 31
0.0
  0
LINE
  5
163
330
1F
100
AcDbEntity
  8
LAYER_1
 62
     7
100
AcDbLine
 10
101.584915
 20
60.929212
 30
0.0
 11
101.083116
 21
61.184892
 31
0.0
  0
LINE
  5
164
330
1F
100
AcDbEntity
  8
LAYER_1
 62
     7
100
AcDbLine
 10
101.083116
 20
61.184892
 30
0.0
 11
100.684914
 21
61.58311199999999
 31
0.0
  0
LINE
  5
165
330
1F
100
AcDbEntity
  8
LAYER_1
 62
     7
100
AcDbLine
 10
100.684914
 20
61.58311199999999
 30
0.0
 11
100.429215
 21
62.08488299999999
 31
0.0
  0
LINE
  5
166
330
1F
100
AcDbEntity
  8
LAYER_1
 62
     7
100
AcDbLine
 10
100.429215
 20
62.08488299999999
 30
0.0
 11
100.341114
 21
62.641112
 31
0.0
  0
LINE
  5
167
330
1F
100
AcDbEntity
  8
LAYER_1
 62
     7
100
AcDbLine
 10
100.341114
 20
62.641112
 30
0.0
 11
100.429215
 21
63.197341
 31
0.0
  0
LINE
  5
168
330
1F
100
AcDbEntity
  8
LAYER_1
 62
     7
100
AcDbLine
 10
75.27571400000001
 20
6.940913
 30
0.0
 11
75.66631499999999
 21
7.707513
 31
0.0
  0
LINE
  5
169
330
1F
100
AcDbEntity
  8
LAYER_1
 62
     7
100
AcDbLine
 10
75.66631499999999
 20
7.707513
 30
0.0
 11
76.27471599999999
 21
8.315910999999999
 31
0.0
  0
LINE
  5
16A
330
1F
100
AcDbEntity
  8
LAYER_1
 62
     7
100
AcDbLine
 10
76.27471599999999
 20
8.315910999999999
 30
0.0
 11
77.04131600000001
 21
8.706512
 31
0.0
  0
LINE
  5
16B
330
1F
100
AcDbEntity
  8
LAYER_1
 62
     7
100
AcDbLine
 10
77.04131600000001
 20
8.706512
 30
0.0
 11
77.891115
 21
8.841111999999998
 31
0.0
  0
LINE
  5
16C
330
1F
100
AcDbEntity
  8
LAYER_1
 62
     7
100
AcDbLine
 10
77.891115
 20
8.841111999999998
 30
0.0
 11
78.74091400000001
 21
8.706512
 31
0.0
  0
LINE
  5
16D
330
1F
100
AcDbEntity
  8
LAYER_1
 62
     7
100
AcDbLine
 10
78.74091400000001
 20
8.706512
 30
0.0
 11
79.50751499999999
 21
8.315910999999999
 31
0.0
  0
LINE
  5
16E
330
1F
100
AcDbEntity
  8
LAYER_1
 62
     7
100
AcDbLine
 10
79.50751499999999
 20
8.315910999999999
 30
0.0
 11
80.11591499999999
 21
7.707513
 31
0.0
  0
LINE
  5
16F
330
1F
100
AcDbEntity
  8
LAYER_1
 62
     7
100
AcDbLine
 10
80.11591499999999
 20
7.707513
 30
0.0
 11
80.50651399999999
 21
6.940913
 31
0.0
  0
LINE
  5
170
330
1F
100
AcDbEntity
  8
LAYER_1
 62
     7
100
AcDbLine
 10
80.50651399999999
 20
6.940913
 30
0.0
 11
80.64111399999999
 21
6.091109999999999
 31
0.0
  0
LINE
  5
171
330
1F
100
AcDbEntity
  8
LAYER_1
 62
     7
100
AcDbLine
 10
80.64111399999999
 20
6.091109999999999
 30
0.0
 11
80.50651399999999
 21
5.241311
 31
0.0
  0
LINE
  5
172
330
1F
100
AcDbEntity
  8
LAYER_1
 62
     7
100
AcDbLine
 10
80.50651399999999
 20
5.241311
 30
0.0
 11
80.11591499999999
 21
4.474711
 31
0.0
  0
LINE
  5
173
330
1F
100
AcDbEntity
  8
LAYER_1
 62
     7
100
AcDbLine
 10
80.11591499999999
 20
4.474711
 30
0.0
 11
79.50751499999999
 21
3.866312999999999
 31
0.0
  0
LINE
  5
174
330
1F
100
AcDbEntity
  8
LAYER_1
 62
     7
100
AcDbLine
 10
79.50751499999999
 20
3.866312999999999
 30
0.0
 11
78.74091400000001
 21
3.475712
 31
0.0
  0
LINE
  5
175
330
1F
100
AcDbEntity
  8
LAYER_1
 62
     7
100
AcDbLine
 10
78.74091400000001
 20
3.475712
 30
0.0
 11
77.891115
 21
3.341112
 31
0.0
  0
LINE
  5
176
330
1F
100
AcDbEntity
  8
LAYER_1
 62
     7
100
AcDbLine
 10
77.891115
 20
3.341112
 30
0.0
 11
77.04131600000001
 21
3.475712
 31
0.0
  0
LINE
  5
177
330
1F
100
AcDbEntity
  8
LAYER_1
 62
     7
100
AcDbLine
 10
77.04131600000001
 20
3.475712
 30
0.0
 11
76.27471599999999
 21
3.866312999999999
 31
0.0
  0
LINE
  5
178
330
1F
100
AcDbEntity
  8
LAYER_1
 62
     7
100
AcDbLine
 10
76.27471599999999
 20
3.866312999999999
 30
0.0
 11
75.66631499999999
 21
4.474711
 31
0.0
  0
LINE
  5
179
330
1F
100
AcDbEntity
  8
LAYER_1
 62
     7
100
AcDbLine
 10
75.66631499999999
 20
4.474711
 30
0.0
 11
75.27571400000001
 21
5.241311
 31
0.0
  0
LINE
  5
17A
330
1F
100
AcDbEntity
  8
LAYER_1
 62
     7
100
AcDbLine
 10
75.27571400000001
 20
5.241311
 30
0.0
 11
75.141114
 21
6.091109999999999
 31
0.0
  0
LINE
  5
17B
330
1F
100
AcDbEntity
  8
LAYER_1
 62
     7
100
AcDbLine
 10
75.141114
 20
6.091109999999999
 30
0.0
 11
75.27571400000001
 21
6.940913
 31
0.0
  0
LINE
  5
17C
330
1F
100
AcDbEntity
  8
LAYER_1
 62
     7
100
AcDbLine
 10
75.27571400000001
 20
120.040912
 30
0.0
 11
75.66631499999999
 21
120.807512
 31
0.0
  0
LINE
  5
17D
330
1F
100
AcDbEntity
  8
LAYER_1
 62
     7
100
AcDbLine
 10
75.66631499999999
 20
120.807512
 30
0.0
 11
76.27471599999999
 21
121.41591
 31
0.0
  0
LINE
  5
17E
330
1F
100
AcDbEntity
  8
LAYER_1
 62
     7
100
AcDbLine
 10
76.27471599999999
 20
121.41591
 30
0.0
 11
77.04131600000001
 21
121.806511
 31
0.0
  0
LINE
  5
17F
330
1F
100
AcDbEntity
  8
LAYER_1
 62
     7
100
AcDbLine
 10
77.04131600000001
 20
121.806511
 30
0.0
 11
77.891115
 21
121.941112
 31
0.0
  0
LINE
  5
180
330
1F
100
AcDbEntity
  8
LAYER_1
 62
     7
100
AcDbLine
 10
77.891115
 20
121.941112
 30
0.0
 11
78.74091400000001
 21
121.806511
 31
0.0
  0
LINE
  5
181
330
1F
100
AcDbEntity
  8
LAYER_1
 62
     7
100
AcDbLine
 10
78.74091400000001
 20
121.806511
 30
0.0
 11
79.50751499999999
 21
121.41591
 31
0.0
  0
LINE
  5
182
330
1F
100
AcDbEntity
  8
LAYER_1
 62
     7
100
AcDbLine
 10
79.50751499999999
 20
121.41591
 30
0.0
 11
80.11591499999999
 21
120.807512
 31
0.0
  0
LINE
  5
183
330
1F
100
AcDbEntity
  8
LAYER_1
 62
     7
100
AcDbLine
 10
80.11591499999999
 20
120.807512
 30
0.0
 11
80.50651399999999
 21
120.040912
 31
0.0
  0
LINE
  5
184
330
1F
100
AcDbEntity
  8
LAYER_1
 62
     7
100
AcDbLine
 10
80.50651399999999
 20
120.040912
 30
0.0
 11
80.64111399999999
 21
119.191113
 31
0.0
  0
LINE
  5
185
330
1F
100
AcDbEntity
  8
LAYER_1
 62
     7
100
AcDbLine
 10
80.64111399999999
 20
119.191113
 30
0.0
 11
80.50651399999999
 21
118.341311
 31
0.0
  0
LINE
  5
186
330
1F
100
AcDbEntity
  8
LAYER_1
 62
     7
100
AcDbLine
 10
80.50651399999999
 20
118.341311
 30
0.0
 11
80.11591499999999
 21
117.57471
 31
0.0
  0
LINE
  5
187
330
1F
100
AcDbEntity
  8
LAYER_1
 62
     7
100
AcDbLine
 10
80.11591499999999
 20
117.57471
 30
0.0
 11
79.50751499999999
 21
116.9663129999999
 31
0.0
  0
LINE
  5
188
330
1F
100
AcDbEntity
  8
LAYER_1
 62
     7
100
AcDbLine
 10
79.50751499999999
 20
116.9663129999999
 30
0.0
 11
78.74091400000001
 21
116.575712
 31
0.0
  0
LINE
  5
189
330
1F
100
AcDbEntity
  8
LAYER_1
 62
     7
100
AcDbLine
 10
78.74091400000001
 20
116.575712
 30
0.0
 11
77.891115
 21
116.441111
 31
0.0
  0
LINE
  5
18A
330
1F
100
AcDbEntity
  8
LAYER_1
 62
     7
100
AcDbLine
 10
77.891115
 20
116.441111
 30
0.0
 11
77.04131600000001
 21
116.575712
 31
0.0
  0
LINE
  5
18B
330
1F
100
AcDbEntity
  8
LAYER_1
 62
     7
100
AcDbLine
 10
77.04131600000001
 20
116.575712
 30
0.0
 11
76.27471599999999
 21
116.9663129999999
 31
0.0
  0
LINE
  5
18C
330
1F
100
AcDbEntity
  8
LAYER_1
 62
     7
100
AcDbLine
 10
76.27471599999999
 20
116.9663129999999
 30
0.0
 11
75.66631499999999
 21
117.57471
 31
0.0
  0
LINE
  5
18D
330
1F
100
AcDbEntity
  8
LAYER_1
 62
     7
100
AcDbLine
 10
75.66631499999999
 20
117.57471
 30
0.0
 11
75.27571400000001
 21
118.341311
 31
0.0
  0
LINE
  5
18E
330
1F
100
AcDbEntity
  8
LAYER_1
 62
     7
100
AcDbLine
 10
75.27571400000001
 20
118.341311
 30
0.0
 11
75.141114
 21
119.191113
 31
0.0
  0
LINE
  5
18F
330
1F
100
AcDbEntity
  8
LAYER_1
 62
     7
100
AcDbLine
 10
75.141114
 20
119.191113
 30
0.0
 11
75.27571400000001
 21
120.040912
 31
0.0
  0
LINE
  5
190
330
1F
100
AcDbEntity
  8
LAYER_1
 62
     7
100
AcDbLine
 10
52.429212
 20
120.197311
 30
0.0
 11
52.684906
 21
120.699111
 31
0.0
  0
LINE
  5
191
330
1F
100
AcDbEntity
  8
LAYER_1
 62
     7
100
AcDbLine
 10
52.684906
 20
120.699111
 30
0.0
 11
53.083121
 21
121.097312
 31
0.0
  0
LINE
  5
192
330
1F
100
AcDbEntity
  8
LAYER_1
 62
     7
100
AcDbLine
 10
53.083121
 20
121.097312
 30
0.0
 11
53.58488399999999
 21
121.353011
 31
0.0
  0
LINE
  5
193
330
1F
100
AcDbEntity
  8
LAYER_1
 62
     7
100
AcDbLine
 10
53.58488399999999
 20
121.353011
 30
0.0
 11
54.141116
 21
121.441113
 31
0.0
  0
LINE
  5
194
330
1F
100
AcDbEntity
  8
LAYER_1
 62
     7
100
AcDbLine
 10
54.141116
 20
121.441113
 30
0.0
 11
54.697348
 21
121.353011
 31
0.0
  0
LINE
  5
195
330
1F
100
AcDbEntity
  8
LAYER_1
 62
     7
100
AcDbLine
 10
54.697348
 20
121.353011
 30
0.0
 11
55.199111
 21
121.097312
 31
0.0
  0
LINE
  5
196
330
1F
100
AcDbEntity
  8
LAYER_1
 62
     7
100
AcDbLine
 10
55.199111
 20
121.097312
 30
0.0
 11
55.597326
 21
120.699111
 31
0.0
  0
LINE
  5
197
330
1F
100
AcDbEntity
  8
LAYER_1
 62
     7
100
AcDbLine
 10
55.597326
 20
120.699111
 30
0.0
 11
55.85301999999999
 21
120.197311
 31
0.0
  0
LINE
  5
198
330
1F
100
AcDbEntity
  8
LAYER_1
 62
     7
100
AcDbLine
 10
55.85301999999999
 20
120.197311
 30
0.0
 11
55.941101
 21
119.641111
 31
0.0
  0
LINE
  5
199
330
1F
100
AcDbEntity
  8
LAYER_1
 62
     7
100
AcDbLine
 10
55.941101
 20
119.641111
 30
0.0
 11
55.85301999999999
 21
119.084913
 31
0.0
  0
LINE
  5
19A
330
1F
100
AcDbEntity
  8
LAYER_1
 62
     7
100
AcDbLine
 10
55.85301999999999
 20
119.084913
 30
0.0
 11
55.597326
 21
118.58311
 31
0.0
  0
LINE
  5
19B
330
1F
100
AcDbEntity
  8
LAYER_1
 62
     7
100
AcDbLine
 10
55.597326
 20
118.58311
 30
0.0
 11
55.199111
 21
118.184912
 31
0.0
  0
LINE
  5
19C
330
1F
100
AcDbEntity
  8
LAYER_1
 62
     7
100
AcDbLine
 10
55.199111
 20
118.184912
 30
0.0
 11
54.697348
 21
117.929213
 31
0.0
  0
LINE
  5
19D
330
1F
100
AcDbEntity
  8
LAYER_1
 62
     7
100
AcDbLine
 10
54.697348
 20
117.929213
 30
0.0
 11
54.141116
 21
117.841111
 31
0.0
  0
LINE
  5
19E
330
1F
100
AcDbEntity
  8
LAYER_1
 62
     7
100
AcDbLine
 10
54.141116
 20
117.841111
 30
0.0
 11
53.58488399999999
 21
117.929213
 31
0.0
  0
LINE
  5
19F
330
1F
100
AcDbEntity
  8
LAYER_1
 62
     7
100
AcDbLine
 10
53.58488399999999
 20
117.929213
 30
0.0
 11
53.083121
 21
118.184912
 31
0.0
  0
LINE
  5
1A0
330
1F
100
AcDbEntity
  8
LAYER_1
 62
     7
100
AcDbLine
 10
53.083121
 20
118.184912
 30
0.0
 11
52.684906
 21
118.58311
 31
0.0
  0
LINE
  5
1A1
330
1F
100
AcDbEntity
  8
LAYER_1
 62
     7
100
AcDbLine
 10
52.684906
 20
118.58311
 30
0.0
 11
52.429212
 21
119.084913
 31
0.0
  0
LINE
  5
1A2
330
1F
100
AcDbEntity
  8
LAYER_1
 62
     7
100
AcDbLine
 10
52.429212
 20
119.084913
 30
0.0
 11
52.341131
 21
119.641111
 31
0.0
  0
LINE
  5
1A3
330
1F
100
AcDbEntity
  8
LAYER_1
 62
     7
100
AcDbLine
 10
52.341131
 20
119.641111
 30
0.0
 11
52.429212
 21
120.197311
 31
0.0
  0
LINE
  5
1A4
330
1F
100
AcDbEntity
  8
LAYER_1
 62
     7
100
AcDbLine
 10
52.429212
 20
6.197311
 30
0.0
 11
52.684906
 21
6.699113
 31
0.0
  0
LINE
  5
1A5
330
1F
100
AcDbEntity
  8
LAYER_1
 62
     7
100
AcDbLine
 10
52.684906
 20
6.699113
 30
0.0
 11
53.083121
 21
7.097311999999999
 31
0.0
  0
LINE
  5
1A6
330
1F
100
AcDbEntity
  8
LAYER_1
 62
     7
100
AcDbLine
 10
53.083121
 20
7.097311999999999
 30
0.0
 11
53.58488399999999
 21
7.353011
 31
0.0
  0
LINE
  5
1A7
330
1F
100
AcDbEntity
  8
LAYER_1
 62
     7
100
AcDbLine
 10
53.58488399999999
 20
7.353011
 30
0.0
 11
54.141116
 21
7.441111999999999
 31
0.0
  0
LINE
  5
1A8
330
1F
100
AcDbEntity
  8
LAYER_1
 62
     7
100
AcDbLine
 10
54.141116
 20
7.441111999999999
 30
0.0
 11
54.697348
 21
7.353011
 31
0.0
  0
LINE
  5
1A9
330
1F
100
AcDbEntity
  8
LAYER_1
 62
     7
100
AcDbLine
 10
54.697348
 20
7.353011
 30
0.0
 11
55.199111
 21
7.097311999999999
 31
0.0
  0
LINE
  5
1AA
330
1F
100
AcDbEntity
  8
LAYER_1
 62
     7
100
AcDbLine
 10
55.199111
 20
7.097311999999999
 30
0.0
 11
55.597326
 21
6.699113
 31
0.0
  0
LINE
  5
1AB
330
1F
100
AcDbEntity
  8
LAYER_1
 62
     7
100
AcDbLine
 10
55.597326
 20
6.699113
 30
0.0
 11
55.85301999999999
 21
6.197311
 31
0.0
  0
LINE
  5
1AC
330
1F
100
AcDbEntity
  8
LAYER_1
 62
     7
100
AcDbLine
 10
55.85301999999999
 20
6.197311
 30
0.0
 11
55.941101
 21
5.641112999999999
 31
0.0
  0
LINE
  5
1AD
330
1F
100
AcDbEntity
  8
LAYER_1
 62
     7
100
AcDbLine
 10
55.941101
 20
5.641112999999999
 30
0.0
 11
55.85301999999999
 21
5.084912
 31
0.0
  0
LINE
  5
1AE
330
1F
100
AcDbEntity
  8
LAYER_1
 62
     7
100
AcDbLine
 10
55.85301999999999
 20
5.084912
 30
0.0
 11
55.597326
 21
4.583111999999999
 31
0.0
  0
LINE
  5
1AF
330
1F
100
AcDbEntity
  8
LAYER_1
 62
     7
100
AcDbLine
 10
55.597326
 20
4.583111999999999
 30
0.0
 11
55.199111
 21
4.184911
 31
0.0
  0
LINE
  5
1B0
330
1F
100
AcDbEntity
  8
LAYER_1
 62
     7
100
AcDbLine
 10
55.199111
 20
4.184911
 30
0.0
 11
54.697348
 21
3.929212
 31
0.0
  0
LINE
  5
1B1
330
1F
100
AcDbEntity
  8
LAYER_1
 62
     7
100
AcDbLine
 10
54.697348
 20
3.929212
 30
0.0
 11
54.141116
 21
3.841111
 31
0.0
  0
LINE
  5
1B2
330
1F
100
AcDbEntity
  8
LAYER_1
 62
     7
100
AcDbLine
 10
54.141116
 20
3.841111
 30
0.0
 11
53.58488399999999
 21
3.929212
 31
0.0
  0
LINE
  5
1B3
330
1F
100
AcDbEntity
  8
LAYER_1
 62
     7
100
AcDbLine
 10
53.58488399999999
 20
3.929212
 30
0.0
 11
53.083121
 21
4.184911
 31
0.0
  0
LINE
  5
1B4
330
1F
100
AcDbEntity
  8
LAYER_1
 62
     7
100
AcDbLine
 10
53.083121
 20
4.184911
 30
0.0
 11
52.684906
 21
4.583111999999999
 31
0.0
  0
LINE
  5
1B5
330
1F
100
AcDbEntity
  8
LAYER_1
 62
     7
100
AcDbLine
 10
52.684906
 20
4.583111999999999
 30
0.0
 11
52.429212
 21
5.084912
 31
0.0
  0
LINE
  5
1B6
330
1F
100
AcDbEntity
  8
LAYER_1
 62
     7
100
AcDbLine
 10
52.429212
 20
5.084912
 30
0.0
 11
52.341131
 21
5.641112999999999
 31
0.0
  0
LINE
  5
1B7
330
1F
100
AcDbEntity
  8
LAYER_1
 62
     7
100
AcDbLine
 10
52.341131
 20
5.641112999999999
 30
0.0
 11
52.429212
 21
6.197311
 31
0.0
  0
LINE
  5
1B8
330
1F
100
AcDbEntity
  8
LAYER_1
 62
     7
100
AcDbLine
 10
27.775718
 20
6.940913
 30
0.0
 11
28.166314
 21
7.707513
 31
0.0
  0
LINE
  5
1B9
330
1F
100
AcDbEntity
  8
LAYER_1
 62
     7
100
AcDbLine
 10
28.166314
 20
7.707513
 30
0.0
 11
28.7747
 21
8.315910999999999
 31
0.0
  0
LINE
  5
1BA
330
1F
100
AcDbEntity
  8
LAYER_1
 62
     7
100
AcDbLine
 10
28.7747
 20
8.315910999999999
 30
0.0
 11
29.541301
 21
8.706512
 31
0.0
  0
LINE
  5
1BB
330
1F
100
AcDbEntity
  8
LAYER_1
 62
     7
100
AcDbLine
 10
29.541301
 20
8.706512
 30
0.0
 11
30.391128
 21
8.841111999999998
 31
0.0
  0
LINE
  5
1BC
330
1F
100
AcDbEntity
  8
LAYER_1
 62
     7
100
AcDbLine
 10
30.391128
 20
8.841111999999998
 30
0.0
 11
31.24092800000001
 21
8.706512
 31
0.0
  0
LINE
  5
1BD
330
1F
100
AcDbEntity
  8
LAYER_1
 62
     7
100
AcDbLine
 10
31.24092800000001
 20
8.706512
 30
0.0
 11
32.007528
 21
8.315910999999999
 31
0.0
  0
LINE
  5
1BE
330
1F
100
AcDbEntity
  8
LAYER_1
 62
     7
100
AcDbLine
 10
32.007528
 20
8.315910999999999
 30
0.0
 11
32.615914
 21
7.707513
 31
0.0
  0
LINE
  5
1BF
330
1F
100
AcDbEntity
  8
LAYER_1
 62
     7
100
AcDbLine
 10
32.615914
 20
7.707513
 30
0.0
 11
33.00651
 21
6.940913
 31
0.0
  0
LINE
  5
1C0
330
1F
100
AcDbEntity
  8
LAYER_1
 62
     7
100
AcDbLine
 10
33.00651
 20
6.940913
 30
0.0
 11
33.141102
 21
6.091109999999999
 31
0.0
  0
LINE
  5
1C1
330
1F
100
AcDbEntity
  8
LAYER_1
 62
     7
100
AcDbLine
 10
33.141102
 20
6.091109999999999
 30
0.0
 11
33.00651
 21
5.241311
 31
0.0
  0
LINE
  5
1C2
330
1F
100
AcDbEntity
  8
LAYER_1
 62
     7
100
AcDbLine
 10
33.00651
 20
5.241311
 30
0.0
 11
32.615914
 21
4.474711
 31
0.0
  0
LINE
  5
1C3
330
1F
100
AcDbEntity
  8
LAYER_1
 62
     7
100
AcDbLine
 10
32.615914
 20
4.474711
 30
0.0
 11
32.007528
 21
3.866312999999999
 31
0.0
  0
LINE
  5
1C4
330
1F
100
AcDbEntity
  8
LAYER_1
 62
     7
100
AcDbLine
 10
32.007528
 20
3.866312999999999
 30
0.0
 11
31.24092800000001
 21
3.475712
 31
0.0
  0
LINE
  5
1C5
330
1F
100
AcDbEntity
  8
LAYER_1
 62
     7
100
AcDbLine
 10
31.24092800000001
 20
3.475712
 30
0.0
 11
30.391128
 21
3.341112
 31
0.0
  0
LINE
  5
1C6
330
1F
100
AcDbEntity
  8
LAYER_1
 62
     7
100
AcDbLine
 10
30.391128
 20
3.341112
 30
0.0
 11
29.541301
 21
3.475712
 31
0.0
  0
LINE
  5
1C7
330
1F
100
AcDbEntity
  8
LAYER_1
 62
     7
100
AcDbLine
 10
29.541301
 20
3.475712
 30
0.0
 11
28.7747
 21
3.866312999999999
 31
0.0
  0
LINE
  5
1C8
330
1F
100
AcDbEntity
  8
LAYER_1
 62
     7
100
AcDbLine
 10
28.7747
 20
3.866312999999999
 30
0.0
 11
28.166314
 21
4.474711
 31
0.0
  0
LINE
  5
1C9
330
1F
100
AcDbEntity
  8
LAYER_1
 62
     7
100
AcDbLine
 10
28.166314
 20
4.474711
 30
0.0
 11
27.775718
 21
5.241311
 31
0.0
  0
LINE
  5
1CA
330
1F
100
AcDbEntity
  8
LAYER_1
 62
     7
100
AcDbLine
 10
27.775718
 20
5.241311
 30
0.0
 11
27.641127
 21
6.091109999999999
 31
0.0
  0
LINE
  5
1CB
330
1F
100
AcDbEntity
  8
LAYER_1
 62
     7
100
AcDbLine
 10
27.641127
 20
6.091109999999999
 30
0.0
 11
27.775718
 21
6.940913
 31
0.0
  0
LINE
  5
1CC
330
1F
100
AcDbEntity
  8
LAYER_1
 62
     7
100
AcDbLine
 10
27.775718
 20
120.040912
 30
0.0
 11
28.166314
 21
120.807512
 31
0.0
  0
LINE
  5
1CD
330
1F
100
AcDbEntity
  8
LAYER_1
 62
     7
100
AcDbLine
 10
28.166314
 20
120.807512
 30
0.0
 11
28.7747
 21
121.41591
 31
0.0
  0
LINE
  5
1CE
330
1F
100
AcDbEntity
  8
LAYER_1
 62
     7
100
AcDbLine
 10
28.7747
 20
121.41591
 30
0.0
 11
29.541301
 21
121.806511
 31
0.0
  0
LINE
  5
1CF
330
1F
100
AcDbEntity
  8
LAYER_1
 62
     7
100
AcDbLine
 10
29.541301
 20
121.806511
 30
0.0
 11
30.391128
 21
121.941112
 31
0.0
  0
LINE
  5
1D0
330
1F
100
AcDbEntity
  8
LAYER_1
 62
     7
100
AcDbLine
 10
30.391128
 20
121.941112
 30
0.0
 11
31.24092800000001
 21
121.806511
 31
0.0
  0
LINE
  5
1D1
330
1F
100
AcDbEntity
  8
LAYER_1
 62
     7
100
AcDbLine
 10
31.24092800000001
 20
121.806511
 30
0.0
 11
32.007528
 21
121.41591
 31
0.0
  0
LINE
  5
1D2
330
1F
100
AcDbEntity
  8
LAYER_1
 62
     7
100
AcDbLine
 10
32.007528
 20
121.41591
 30
0.0
 11
32.615914
 21
120.807512
 31
0.0
  0
LINE
  5
1D3
330
1F
100
AcDbEntity
  8
LAYER_1
 62
     7
100
AcDbLine
 10
32.615914
 20
120.807512
 30
0.0
 11
33.00651
 21
120.040912
 31
0.0
  0
LINE
  5
1D4
330
1F
100
AcDbEntity
  8
LAYER_1
 62
     7
100
AcDbLine
 10
33.00651
 20
120.040912
 30
0.0
 11
33.141102
 21
119.191113
 31
0.0
  0
LINE
  5
1D5
330
1F
100
AcDbEntity
  8
LAYER_1
 62
     7
100
AcDbLine
 10
33.141102
 20
119.191113
 30
0.0
 11
33.00651
 21
118.341311
 31
0.0
  0
LINE
  5
1D6
330
1F
100
AcDbEntity
  8
LAYER_1
 62
     7
100
AcDbLine
 10
33.00651
 20
118.341311
 30
0.0
 11
32.615914
 21
117.57471
 31
0.0
  0
LINE
  5
1D7
330
1F
100
AcDbEntity
  8
LAYER_1
 62
     7
100
AcDbLine
 10
32.615914
 20
117.57471
 30
0.0
 11
32.007528
 21
116.9663129999999
 31
0.0
  0
LINE
  5
1D8
330
1F
100
AcDbEntity
  8
LAYER_1
 62
     7
100
AcDbLine
 10
32.007528
 20
116.9663129999999
 30
0.0
 11
31.24092800000001
 21
116.575712
 31
0.0
  0
LINE
  5
1D9
330
1F
100
AcDbEntity
  8
LAYER_1
 62
     7
100
AcDbLine
 10
31.24092800000001
 20
116.575712
 30
0.0
 11
30.391128
 21
116.441111
 31
0.0
  0
LINE
  5
1DA
330
1F
100
AcDbEntity
  8
LAYER_1
 62
     7
100
AcDbLine
 10
30.391128
 20
116.441111
 30
0.0
 11
29.541301
 21
116.575712
 31
0.0
  0
LINE
  5
1DB
330
1F
100
AcDbEntity
  8
LAYER_1
 62
     7
100
AcDbLine
 10
29.541301
 20
116.575712
 30
0.0
 11
28.7747
 21
116.9663129999999
 31
0.0
  0
LINE
  5
1DC
330
1F
100
AcDbEntity
  8
LAYER_1
 62
     7
100
AcDbLine
 10
28.7747
 20
116.9663129999999
 30
0.0
 11
28.166314
 21
117.57471
 31
0.0
  0
LINE
  5
1DD
330
1F
100
AcDbEntity
  8
LAYER_1
 62
     7
100
AcDbLine
 10
28.166314
 20
117.57471
 30
0.0
 11
27.775718
 21
118.341311
 31
0.0
  0
LINE
  5
1DE
330
1F
100
AcDbEntity
  8
LAYER_1
 62
     7
100
AcDbLine
 10
27.775718
 20
118.341311
 30
0.0
 11
27.641127
 21
119.191113
 31
0.0
  0
LINE
  5
1DF
330
1F
100
AcDbEntity
  8
LAYER_1
 62
     7
100
AcDbLine
 10
27.641127
 20
119.191113
 30
0.0
 11
27.775718
 21
120.040912
 31
0.0
  0
LINE
  5
1E0
330
1F
100
AcDbEntity
  8
LAYER_1
 62
     7
100
AcDbLine
 10
4.429223999999999
 20
63.197341
 30
0.0
 11
4.684916999999999
 21
63.699112
 31
0.0
  0
LINE
  5
1E1
330
1F
100
AcDbEntity
  8
LAYER_1
 62
     7
100
AcDbLine
 10
4.684916999999999
 20
63.699112
 30
0.0
 11
5.083104
 21
64.09733199999999
 31
0.0
  0
LINE
  5
1E2
330
1F
100
AcDbEntity
  8
LAYER_1
 62
     7
100
AcDbLine
 10
5.083104
 20
64.09733199999999
 30
0.0
 11
5.584923999999999
 21
64.35301199999999
 31
0.0
  0
LINE
  5
1E3
330
1F
100
AcDbEntity
  8
LAYER_1
 62
     7
100
AcDbLine
 10
5.584923999999999
 20
64.35301199999999
 30
0.0
 11
6.141127
 21
64.441102
 31
0.0
  0
LINE
  5
1E4
330
1F
100
AcDbEntity
  8
LAYER_1
 62
     7
100
AcDbLine
 10
6.141127
 20
64.441102
 30
0.0
 11
6.697302999999999
 21
64.35301199999999
 31
0.0
  0
LINE
  5
1E5
330
1F
100
AcDbEntity
  8
LAYER_1
 62
     7
100
AcDbLine
 10
6.697302999999999
 20
64.35301199999999
 30
0.0
 11
7.199122
 21
64.09733199999999
 31
0.0
  0
LINE
  5
1E6
330
1F
100
AcDbEntity
  8
LAYER_1
 62
     7
100
AcDbLine
 10
7.199122
 20
64.09733199999999
 30
0.0
 11
7.597309
 21
63.699112
 31
0.0
  0
LINE
  5
1E7
330
1F
100
AcDbEntity
  8
LAYER_1
 62
     7
100
AcDbLine
 10
7.597309
 20
63.699112
 30
0.0
 11
7.853003
 21
63.197341
 31
0.0
  0
LINE
  5
1E8
330
1F
100
AcDbEntity
  8
LAYER_1
 62
     7
100
AcDbLine
 10
7.853003
 20
63.197341
 30
0.0
 11
7.941111999999999
 21
62.641112
 31
0.0
  0
LINE
  5
1E9
330
1F
100
AcDbEntity
  8
LAYER_1
 62
     7
100
AcDbLine
 10
7.941111999999999
 20
62.641112
 30
0.0
 11
7.853003
 21
62.08488299999999
 31
0.0
  0
LINE
  5
1EA
330
1F
100
AcDbEntity
  8
LAYER_1
 62
     7
100
AcDbLine
 10
7.853003
 20
62.08488299999999
 30
0.0
 11
7.597309
 21
61.58311199999999
 31
0.0
  0
LINE
  5
1EB
330
1F
100
AcDbEntity
  8
LAYER_1
 62
     7
100
AcDbLine
 10
7.597309
 20
61.58311199999999
 30
0.0
 11
7.199122
 21
61.184892
 31
0.0
  0
LINE
  5
1EC
330
1F
100
AcDbEntity
  8
LAYER_1
 62
     7
100
AcDbLine
 10
7.199122
 20
61.184892
 30
0.0
 11
6.697302999999999
 21
60.929212
 31
0.0
  0
LINE
  5
1ED
330
1F
100
AcDbEntity
  8
LAYER_1
 62
     7
100
AcDbLine
 10
6.697302999999999
 20
60.929212
 30
0.0
 11
6.141127
 21
60.84112199999999
 31
0.0
  0
LINE
  5
1EE
330
1F
100
AcDbEntity
  8
LAYER_1
 62
     7
100
AcDbLine
 10
6.141127
 20
60.84112199999999
 30
0.0
 11
5.584923999999999
 21
60.929212
 31
0.0
  0
LINE
  5
1EF
330
1F
100
AcDbEntity
  8
LAYER_1
 62
     7
100
AcDbLine
 10
5.584923999999999
 20
60.929212
 30
0.0
 11
5.083104
 21
61.184892
 31
0.0
  0
LINE
  5
1F0
330
1F
100
AcDbEntity
  8
LAYER_1
 62
     7
100
AcDbLine
 10
5.083104
 20
61.184892
 30
0.0
 11
4.684916999999999
 21
61.58311199999999
 31
0.0
  0
LINE
  5
1F1
330
1F
100
AcDbEntity
  8
LAYER_1
 62
     7
100
AcDbLine
 10
4.684916999999999
 20
61.58311199999999
 30
0.0
 11
4.429223999999999
 21
62.08488299999999
 31
0.0
  0
LINE
  5
1F2
330
1F
100
AcDbEntity
  8
LAYER_1
 62
     7
100
AcDbLine
 10
4.429223999999999
 20
62.08488299999999
 30
0.0
 11
4.341114
 21
62.641112
 31
0.0
  0
LINE
  5
1F3
330
1F
100
AcDbEntity
  8
LAYER_1
 62
     7
100
AcDbLine
 10
4.341114
 20
62.641112
 30
0.0
 11
4.429223999999999
 21
63.197341
 31
0.0
  0
LINE
  5
1F4
330
1F
100
AcDbEntity
  8
LAYER_1
 62
     7
100
AcDbLine
 10
4.429223999999999
 20
34.697311
 30
0.0
 11
4.684916999999999
 21
35.199112
 31
0.0
  0
LINE
  5
1F5
330
1F
100
AcDbEntity
  8
LAYER_1
 62
     7
100
AcDbLine
 10
4.684916999999999
 20
35.199112
 30
0.0
 11
5.083104
 21
35.597312
 31
0.0
  0
LINE
  5
1F6
330
1F
100
AcDbEntity
  8
LAYER_1
 62
     7
100
AcDbLine
 10
5.083104
 20
35.597312
 30
0.0
 11
5.584923999999999
 21
35.853011
 31
0.0
  0
LINE
  5
1F7
330
1F
100
AcDbEntity
  8
LAYER_1
 62
     7
100
AcDbLine
 10
5.584923999999999
 20
35.853011
 30
0.0
 11
6.141127
 21
35.941112
 31
0.0
  0
LINE
  5
1F8
330
1F
100
AcDbEntity
  8
LAYER_1
 62
     7
100
AcDbLine
 10
6.141127
 20
35.941112
 30
0.0
 11
6.697302999999999
 21
35.853011
 31
0.0
  0
LINE
  5
1F9
330
1F
100
AcDbEntity
  8
LAYER_1
 62
     7
100
AcDbLine
 10
6.697302999999999
 20
35.853011
 30
0.0
 11
7.199122
 21
35.597312
 31
0.0
  0
LINE
  5
1FA
330
1F
100
AcDbEntity
  8
LAYER_1
 62
     7
100
AcDbLine
 10
7.199122
 20
35.597312
 30
0.0
 11
7.597309
 21
35.199112
 31
0.0
  0
LINE
  5
1FB
330
1F
100
AcDbEntity
  8
LAYER_1
 62
     7
100
AcDbLine
 10
7.597309
 20
35.199112
 30
0.0
 11
7.853003
 21
34.697311
 31
0.0
  0
LINE
  5
1FC
330
1F
100
AcDbEntity
  8
LAYER_1
 62
     7
100
AcDbLine
 10
7.853003
 20
34.697311
 30
0.0
 11
7.941111999999999
 21
34.141112
 31
0.0
  0
LINE
  5
1FD
330
1F
100
AcDbEntity
  8
LAYER_1
 62
     7
100
AcDbLine
 10
7.941111999999999
 20
34.141112
 30
0.0
 11
7.853003
 21
33.584911
 31
0.0
  0
LINE
  5
1FE
330
1F
100
AcDbEntity
  8
LAYER_1
 62
     7
100
AcDbLine
 10
7.853003
 20
33.584911
 30
0.0
 11
7.597309
 21
33.083112
 31
0.0
  0
LINE
  5
1FF
330
1F
100
AcDbEntity
  8
LAYER_1
 62
     7
100
AcDbLine
 10
7.597309
 20
33.083112
 30
0.0
 11
7.199122
 21
32.68491
 31
0.0
  0
LINE
  5
200
330
1F
100
AcDbEntity
  8
LAYER_1
 62
     7
100
AcDbLine
 10
7.199122
 20
32.68491
 30
0.0
 11
6.697302999999999
 21
32.429211
 31
0.0
  0
LINE
  5
201
330
1F
100
AcDbEntity
  8
LAYER_1
 62
     7
100
AcDbLine
 10
6.697302999999999
 20
32.429211
 30
0.0
 11
6.141127
 21
32.34111
 31
0.0
  0
LINE
  5
202
330
1F
100
AcDbEntity
  8
LAYER_1
 62
     7
100
AcDbLine
 10
6.141127
 20
32.34111
 30
0.0
 11
5.584923999999999
 21
32.429211
 31
0.0
  0
LINE
  5
203
330
1F
100
AcDbEntity
  8
LAYER_1
 62
     7
100
AcDbLine
 10
5.584923999999999
 20
32.429211
 30
0.0
 11
5.083104
 21
32.68491
 31
0.0
  0
LINE
  5
204
330
1F
100
AcDbEntity
  8
LAYER_1
 62
     7
100
AcDbLine
 10
5.083104
 20
32.68491
 30
0.0
 11
4.684916999999999
 21
33.083112
 31
0.0
  0
LINE
  5
205
330
1F
100
AcDbEntity
  8
LAYER_1
 62
     7
100
AcDbLine
 10
4.684916999999999
 20
33.083112
 30
0.0
 11
4.429223999999999
 21
33.584911
 31
0.0
  0
LINE
  5
206
330
1F
100
AcDbEntity
  8
LAYER_1
 62
     7
100
AcDbLine
 10
4.429223999999999
 20
33.584911
 30
0.0
 11
4.341114
 21
34.141112
 31
0.0
  0
LINE
  5
207
330
1F
100
AcDbEntity
  8
LAYER_1
 62
     7
100
AcDbLine
 10
4.341114
 20
34.141112
 30
0.0
 11
4.429223999999999
 21
34.697311
 31
0.0
  0
LINE
  5
208
330
1F
100
AcDbEntity
  8
LAYER_1
 62
     7
100
AcDbLine
 10
4.429223999999999
 20
6.197311
 30
0.0
 11
4.684916999999999
 21
6.699113
 31
0.0
  0
LINE
  5
209
330
1F
100
AcDbEntity
  8
LAYER_1
 62
     7
100
AcDbLine
 10
4.684916999999999
 20
6.699113
 30
0.0
 11
5.083104
 21
7.097311999999999
 31
0.0
  0
LINE
  5
20A
330
1F
100
AcDbEntity
  8
LAYER_1
 62
     7
100
AcDbLine
 10
5.083104
 20
7.097311999999999
 30
0.0
 11
5.584923999999999
 21
7.353011
 31
0.0
  0
LINE
  5
20B
330
1F
100
AcDbEntity
  8
LAYER_1
 62
     7
100
AcDbLine
 10
5.584923999999999
 20
7.353011
 30
0.0
 11
6.141127
 21
7.441111999999999
 31
0.0
  0
LINE
  5
20C
330
1F
100
AcDbEntity
  8
LAYER_1
 62
     7
100
AcDbLine
 10
6.141127
 20
7.441111999999999
 30
0.0
 11
6.697302999999999
 21
7.353011
 31
0.0
  0
LINE
  5
20D
330
1F
100
AcDbEntity
  8
LAYER_1
 62
     7
100
AcDbLine
 10
6.697302999999999
 20
7.353011
 30
0.0
 11
7.199122
 21
7.097311999999999
 31
0.0
  0
LINE
  5
20E
330
1F
100
AcDbEntity
  8
LAYER_1
 62
     7
100
AcDbLine
 10
7.199122
 20
7.097311999999999
 30
0.0
 11
7.597309
 21
6.699113
 31
0.0
  0
LINE
  5
20F
330
1F
100
AcDbEntity
  8
LAYER_1
 62
     7
100
AcDbLine
 10
7.597309
 20
6.699113
 30
0.0
 11
7.853003
 21
6.197311
 31
0.0
  0
LINE
  5
210
330
1F
100
AcDbEntity
  8
LAYER_1
 62
     7
100
AcDbLine
 10
7.853003
 20
6.197311
 30
0.0
 11
7.941111999999999
 21
5.641112999999999
 31
0.0
  0
LINE
  5
211
330
1F
100
AcDbEntity
  8
LAYER_1
 62
     7
100
AcDbLine
 10
7.941111999999999
 20
5.641112999999999
 30
0.0
 11
7.853003
 21
5.084912
 31
0.0
  0
LINE
  5
212
330
1F
100
AcDbEntity
  8
LAYER_1
 62
     7
100
AcDbLine
 10
7.853003
 20
5.084912
 30
0.0
 11
7.597309
 21
4.583111999999999
 31
0.0
  0
LINE
  5
213
330
1F
100
AcDbEntity
  8
LAYER_1
 62
     7
100
AcDbLine
 10
7.597309
 20
4.583111999999999
 30
0.0
 11
7.199122
 21
4.184911
 31
0.0
  0
LINE
  5
214
330
1F
100
AcDbEntity
  8
LAYER_1
 62
     7
100
AcDbLine
 10
7.199122
 20
4.184911
 30
0.0
 11
6.697302999999999
 21
3.929212
 31
0.0
  0
LINE
  5
215
330
1F
100
AcDbEntity
  8
LAYER_1
 62
     7
100
AcDbLine
 10
6.697302999999999
 20
3.929212
 30
0.0
 11
6.141127
 21
3.841111
 31
0.0
  0
LINE
  5
216
330
1F
100
AcDbEntity
  8
LAYER_1
 62
     7
100
AcDbLine
 10
6.141127
 20
3.841111
 30
0.0
 11
5.584923999999999
 21
3.929212
 31
0.0
  0
LINE
  5
217
330
1F
100
AcDbEntity
  8
LAYER_1
 62
     7
100
AcDbLine
 10
5.584923999999999
 20
3.929212
 30
0.0
 11
5.083104
 21
4.184911
 31
0.0
  0
LINE
  5
218
330
1F
100
AcDbEntity
  8
LAYER_1
 62
     7
100
AcDbLine
 10
5.083104
 20
4.184911
 30
0.0
 11
4.684916999999999
 21
4.583111999999999
 31
0.0
  0
LINE
  5
219
330
1F
100
AcDbEntity
  8
LAYER_1
 62
     7
100
AcDbLine
 10
4.684916999999999
 20
4.583111999999999
 30
0.0
 11
4.429223999999999
 21
5.084912
 31
0.0
  0
LINE
  5
21A
330
1F
100
AcDbEntity
  8
LAYER_1
 62
     7
100
AcDbLine
 10
4.429223999999999
 20
5.084912
 30
0.0
 11
4.341114
 21
5.641112999999999
 31
0.0
  0
LINE
  5
21B
330
1F
100
AcDbEntity
  8
LAYER_1
 62
     7
100
AcDbLine
 10
4.341114
 20
5.641112999999999
 30
0.0
 11
4.429223999999999
 21
6.197311
 31
0.0
  0
LINE
  5
21C
330
1F
100
AcDbEntity
  8
LAYER_1
 62
     7
100
AcDbLine
 10
4.429223999999999
 20
91.69731199999999
 30
0.0
 11
4.684916999999999
 21
92.199111
 31
0.0
  0
LINE
  5
21D
330
1F
100
AcDbEntity
  8
LAYER_1
 62
     7
100
AcDbLine
 10
4.684916999999999
 20
92.199111
 30
0.0
 11
5.083104
 21
92.597313
 31
0.0
  0
LINE
  5
21E
330
1F
100
AcDbEntity
  8
LAYER_1
 62
     7
100
AcDbLine
 10
5.083104
 20
92.597313
 30
0.0
 11
5.584923999999999
 21
92.85301199999999
 31
0.0
  0
LINE
  5
21F
330
1F
100
AcDbEntity
  8
LAYER_1
 62
     7
100
AcDbLine
 10
5.584923999999999
 20
92.85301199999999
 30
0.0
 11
6.141127
 21
92.941113
 31
0.0
  0
LINE
  5
220
330
1F
100
AcDbEntity
  8
LAYER_1
 62
     7
100
AcDbLine
 10
6.141127
 20
92.941113
 30
0.0
 11
6.697302999999999
 21
92.85301199999999
 31
0.0
  0
LINE
  5
221
330
1F
100
AcDbEntity
  8
LAYER_1
 62
     7
100
AcDbLine
 10
6.697302999999999
 20
92.85301199999999
 30
0.0
 11
7.199122
 21
92.597313
 31
0.0
  0
LINE
  5
222
330
1F
100
AcDbEntity
  8
LAYER_1
 62
     7
100
AcDbLine
 10
7.199122
 20
92.597313
 30
0.0
 11
7.597309
 21
92.199111
 31
0.0
  0
LINE
  5
223
330
1F
100
AcDbEntity
  8
LAYER_1
 62
     7
100
AcDbLine
 10
7.597309
 20
92.199111
 30
0.0
 11
7.853003
 21
91.69731199999999
 31
0.0
  0
LINE
  5
224
330
1F
100
AcDbEntity
  8
LAYER_1
 62
     7
100
AcDbLine
 10
7.853003
 20
91.69731199999999
 30
0.0
 11
7.941111999999999
 21
91.141111
 31
0.0
  0
LINE
  5
225
330
1F
100
AcDbEntity
  8
LAYER_1
 62
     7
100
AcDbLine
 10
7.941111999999999
 20
91.141111
 30
0.0
 11
7.853003
 21
90.584912
 31
0.0
  0
LINE
  5
226
330
1F
100
AcDbEntity
  8
LAYER_1
 62
     7
100
AcDbLine
 10
7.853003
 20
90.584912
 30
0.0
 11
7.597309
 21
90.08311199999999
 31
0.0
  0
LINE
  5
227
330
1F
100
AcDbEntity
  8
LAYER_1
 62
     7
100
AcDbLine
 10
7.597309
 20
90.08311199999999
 30
0.0
 11
7.199122
 21
89.684912
 31
0.0
  0
LINE
  5
228
330
1F
100
AcDbEntity
  8
LAYER_1
 62
     7
100
AcDbLine
 10
7.199122
 20
89.684912
 30
0.0
 11
6.697302999999999
 21
89.42921199999998
 31
0.0
  0
LINE
  5
229
330
1F
100
AcDbEntity
  8
LAYER_1
 62
     7
100
AcDbLine
 10
6.697302999999999
 20
89.42921199999998
 30
0.0
 11
6.141127
 21
89.341112
 31
0.0
  0
LINE
  5
22A
330
1F
100
AcDbEntity
  8
LAYER_1
 62
     7
100
AcDbLine
 10
6.141127
 20
89.341112
 30
0.0
 11
5.584923999999999
 21
89.42921199999998
 31
0.0
  0
LINE
  5
22B
330
1F
100
AcDbEntity
  8
LAYER_1
 62
     7
100
AcDbLine
 10
5.584923999999999
 20
89.42921199999998
 30
0.0
 11
5.083104
 21
89.684912
 31
0.0
  0
LINE
  5
22C
330
1F
100
AcDbEntity
  8
LAYER_1
 62
     7
100
AcDbLine
 10
5.083104
 20
89.684912
 30
0.0
 11
4.684916999999999
 21
90.08311199999999
 31
0.0
  0
LINE
  5
22D
330
1F
100
AcDbEntity
  8
LAYER_1
 62
     7
100
AcDbLine
 10
4.684916999999999
 20
90.08311199999999
 30
0.0
 11
4.429223999999999
 21
90.584912
 31
0.0
  0
LINE
  5
22E
330
1F
100
AcDbEntity
  8
LAYER_1
 62
     7
100
AcDbLine
 10
4.429223999999999
 20
90.584912
 30
0.0
 11
4.341114
 21
91.141111
 31
0.0
  0
LINE
  5
22F
330
1F
100
AcDbEntity
  8
LAYER_1
 62
     7
100
AcDbLine
 10
4.341114
 20
91.141111
 30
0.0
 11
4.429223999999999
 21
91.69731199999999
 31
0.0
  0
LINE
  5
230
330
1F
100
AcDbEntity
  8
LAYER_1
 62
     7
100
AcDbLine
 10
4.429223999999999
 20
120.197311
 30
0.0
 11
4.684916999999999
 21
120.699111
 31
0.0
  0
LINE
  5
231
330
1F
100
AcDbEntity
  8
LAYER_1
 62
     7
100
AcDbLine
 10
4.684916999999999
 20
120.699111
 30
0.0
 11
5.083104
 21
121.097312
 31
0.0
  0
LINE
  5
232
330
1F
100
AcDbEntity
  8
LAYER_1
 62
     7
100
AcDbLine
 10
5.083104
 20
121.097312
 30
0.0
 11
5.584923999999999
 21
121.353011
 31
0.0
  0
LINE
  5
233
330
1F
100
AcDbEntity
  8
LAYER_1
 62
     7
100
AcDbLine
 10
5.584923999999999
 20
121.353011
 30
0.0
 11
6.141127
 21
121.441113
 31
0.0
  0
LINE
  5
234
330
1F
100
AcDbEntity
  8
LAYER_1
 62
     7
100
AcDbLine
 10
6.141127
 20
121.441113
 30
0.0
 11
6.697302999999999
 21
121.353011
 31
0.0
  0
LINE
  5
235
330
1F
100
AcDbEntity
  8
LAYER_1
 62
     7
100
AcDbLine
 10
6.697302999999999
 20
121.353011
 30
0.0
 11
7.199122
 21
121.097312
 31
0.0
  0
LINE
  5
236
330
1F
100
AcDbEntity
  8
LAYER_1
 62
     7
100
AcDbLine
 10
7.199122
 20
121.097312
 30
0.0
 11
7.597309
 21
120.699111
 31
0.0
  0
LINE
  5
237
330
1F
100
AcDbEntity
  8
LAYER_1
 62
     7
100
AcDbLine
 10
7.597309
 20
120.699111
 30
0.0
 11
7.853003
 21
120.197311
 31
0.0
  0
LINE
  5
238
330
1F
100
AcDbEntity
  8
LAYER_1
 62
     7
100
AcDbLine
 10
7.853003
 20
120.197311
 30
0.0
 11
7.941111999999999
 21
119.641111
 31
0.0
  0
LINE
  5
239
330
1F
100
AcDbEntity
  8
LAYER_1
 62
     7
100
AcDbLine
 10
7.941111999999999
 20
119.641111
 30
0.0
 11
7.853003
 21
119.084913
 31
0.0
  0
LINE
  5
23A
330
1F
100
AcDbEntity
  8
LAYER_1
 62
     7
100
AcDbLine
 10
7.853003
 20
119.084913
 30
0.0
 11
7.597309
 21
118.58311
 31
0.0
  0
LINE
  5
23B
330
1F
100
AcDbEntity
  8
LAYER_1
 62
     7
100
AcDbLine
 10
7.597309
 20
118.58311
 30
0.0
 11
7.199122
 21
118.184912
 31
0.0
  0
LINE
  5
23C
330
1F
100
AcDbEntity
  8
LAYER_1
 62
     7
100
AcDbLine
 10
7.199122
 20
118.184912
 30
0.0
 11
6.697302999999999
 21
117.929213
 31
0.0
  0
LINE
  5
23D
330
1F
100
AcDbEntity
  8
LAYER_1
 62
     7
100
AcDbLine
 10
6.697302999999999
 20
117.929213
 30
0.0
 11
6.141127
 21
117.841111
 31
0.0
  0
LINE
  5
23E
330
1F
100
AcDbEntity
  8
LAYER_1
 62
     7
100
AcDbLine
 10
6.141127
 20
117.841111
 30
0.0
 11
5.584923999999999
 21
117.929213
 31
0.0
  0
LINE
  5
23F
330
1F
100
AcDbEntity
  8
LAYER_1
 62
     7
100
AcDbLine
 10
5.584923999999999
 20
117.929213
 30
0.0
 11
5.083104
 21
118.184912
 31
0.0
  0
LINE
  5
240
330
1F
100
AcDbEntity
  8
LAYER_1
 62
     7
100
AcDbLine
 10
5.083104
 20
118.184912
 30
0.0
 11
4.684916999999999
 21
118.58311
 31
0.0
  0
LINE
  5
241
330
1F
100
AcDbEntity
  8
LAYER_1
 62
     7
100
AcDbLine
 10
4.684916999999999
 20
118.58311
 30
0.0
 11
4.429223999999999
 21
119.084913
 31
0.0
  0
LINE
  5
242
330
1F
100
AcDbEntity
  8
LAYER_1
 62
     7
100
AcDbLine
 10
4.429223999999999
 20
119.084913
 30
0.0
 11
4.341114
 21
119.641111
 31
0.0
  0
LINE
  5
243
330
1F
100
AcDbEntity
  8
LAYER_1
 62
     7
100
AcDbLine
 10
4.341114
 20
119.641111
 30
0.0
 11
4.429223999999999
 21
120.197311
 31
0.0
  0
LINE
  5
245
330
1F
100
AcDbEntity
  8
LAYER_1
 62
     7
100
AcDbLine
 10
108.141115
 20
250.141109
 30
0.0
 11
0.141111
 21
250.141109
 31
0.0
  0
LINE
  5
248
330
1F
100
AcDbEntity
  8
LAYER_1
 62
     7
100
AcDbLine
 10
100.429215
 20
245.19731
 30
0.0
 11
100.684914
 21
245.699109
 31
0.0
  0
LINE
  5
249
330
1F
100
AcDbEntity
  8
LAYER_1
 62
     7
100
AcDbLine
 10
100.684914
 20
245.699109
 30
0.0
 11
101.083116
 21
246.097311
 31
0.0
  0
LINE
  5
24A
330
1F
100
AcDbEntity
  8
LAYER_1
 62
     7
100
AcDbLine
 10
101.083116
 20
246.097311
 30
0.0
 11
101.584915
 21
246.35301
 31
0.0
  0
LINE
  5
24B
330
1F
100
AcDbEntity
  8
LAYER_1
 62
     7
100
AcDbLine
 10
101.584915
 20
246.35301
 30
0.0
 11
102.141116
 21
246.441111
 31
0.0
  0
LINE
  5
24C
330
1F
100
AcDbEntity
  8
LAYER_1
 62
     7
100
AcDbLine
 10
102.141116
 20
246.441111
 30
0.0
 11
102.697314
 21
246.35301
 31
0.0
  0
LINE
  5
24D
330
1F
100
AcDbEntity
  8
LAYER_1
 62
     7
100
AcDbLine
 10
102.697314
 20
246.35301
 30
0.0
 11
103.199113
 21
246.097311
 31
0.0
  0
LINE
  5
24E
330
1F
100
AcDbEntity
  8
LAYER_1
 62
     7
100
AcDbLine
 10
103.199113
 20
246.097311
 30
0.0
 11
103.597315
 21
245.699109
 31
0.0
  0
LINE
  5
24F
330
1F
100
AcDbEntity
  8
LAYER_1
 62
     7
100
AcDbLine
 10
103.597315
 20
245.699109
 30
0.0
 11
103.853014
 21
245.19731
 31
0.0
  0
LINE
  5
250
330
1F
100
AcDbEntity
  8
LAYER_1
 62
     7
100
AcDbLine
 10
103.853014
 20
245.19731
 30
0.0
 11
103.941115
 21
244.641109
 31
0.0
  0
LINE
  5
251
330
1F
100
AcDbEntity
  8
LAYER_1
 62
     7
100
AcDbLine
 10
103.941115
 20
244.641109
 30
0.0
 11
103.853014
 21
244.084911
 31
0.0
  0
LINE
  5
252
330
1F
100
AcDbEntity
  8
LAYER_1
 62
     7
100
AcDbLine
 10
103.853014
 20
244.084911
 30
0.0
 11
103.597315
 21
243.583109
 31
0.0
  0
LINE
  5
253
330
1F
100
AcDbEntity
  8
LAYER_1
 62
     7
100
AcDbLine
 10
103.597315
 20
243.583109
 30
0.0
 11
103.199113
 21
243.18491
 31
0.0
  0
LINE
  5
254
330
1F
100
AcDbEntity
  8
LAYER_1
 62
     7
100
AcDbLine
 10
103.199113
 20
243.18491
 30
0.0
 11
102.697314
 21
242.929211
 31
0.0
  0
LINE
  5
255
330
1F
100
AcDbEntity
  8
LAYER_1
 62
     7
100
AcDbLine
 10
102.697314
 20
242.929211
 30
0.0
 11
102.141116
 21
242.84111
 31
0.0
  0
LINE
  5
256
330
1F
100
AcDbEntity
  8
LAYER_1
 62
     7
100
AcDbLine
 10
102.141116
 20
242.84111
 30
0.0
 11
101.584915
 21
242.929211
 31
0.0
  0
LINE
  5
257
330
1F
100
AcDbEntity
  8
LAYER_1
 62
     7
100
AcDbLine
 10
101.584915
 20
242.929211
 30
0.0
 11
101.083116
 21
243.18491
 31
0.0
  0
LINE
  5
258
330
1F
100
AcDbEntity
  8
LAYER_1
 62
     7
100
AcDbLine
 10
101.083116
 20
243.18491
 30
0.0
 11
100.684914
 21
243.583109
 31
0.0
  0
LINE
  5
259
330
1F
100
AcDbEntity
  8
LAYER_1
 62
     7
100
AcDbLine
 10
100.684914
 20
243.583109
 30
0.0
 11
100.429215
 21
244.084911
 31
0.0
  0
LINE
  5
25A
330
1F
100
AcDbEntity
  8
LAYER_1
 62
     7
100
AcDbLine
 10
100.429215
 20
244.084911
 30
0.0
 11
100.341114
 21
244.641109
 31
0.0
  0
LINE
  5
25B
330
1F
100
AcDbEntity
  8
LAYER_1
 62
     7
100
AcDbLine
 10
100.341114
 20
244.641109
 30
0.0
 11
100.429215
 21
245.19731
 31
0.0
  0
LINE
  5
25C
330
1F
100
AcDbEntity
  8
LAYER_1
 62
     7
100
AcDbLine
 10
100.429215
 20
216.69731
 30
0.0
 11
100.684914
 21
217.19911
 31
0.0
  0
LINE
  5
25D
330
1F
100
AcDbEntity
  8
LAYER_1
 62
     7
100
AcDbLine
 10
100.684914
 20
217.19911
 30
0.0
 11
101.083116
 21
217.597311
 31
0.0
  0
LINE
  5
25E
330
1F
100
AcDbEntity
  8
LAYER_1
 62
     7
100
AcDbLine
 10
101.083116
 20
217.597311
 30
0.0
 11
101.584915
 21
217.85301
 31
0.0
  0
LINE
  5
25F
330
1F
100
AcDbEntity
  8
LAYER_1
 62
     7
100
AcDbLine
 10
101.584915
 20
217.85301
 30
0.0
 11
102.141116
 21
217.941111
 31
0.0
  0
LINE
  5
260
330
1F
100
AcDbEntity
  8
LAYER_1
 62
     7
100
AcDbLine
 10
102.141116
 20
217.941111
 30
0.0
 11
102.697314
 21
217.85301
 31
0.0
  0
LINE
  5
261
330
1F
100
AcDbEntity
  8
LAYER_1
 62
     7
100
AcDbLine
 10
102.697314
 20
217.85301
 30
0.0
 11
103.199113
 21
217.597311
 31
0.0
  0
LINE
  5
262
330
1F
100
AcDbEntity
  8
LAYER_1
 62
     7
100
AcDbLine
 10
103.199113
 20
217.597311
 30
0.0
 11
103.597315
 21
217.19911
 31
0.0
  0
LINE
  5
263
330
1F
100
AcDbEntity
  8
LAYER_1
 62
     7
100
AcDbLine
 10
103.597315
 20
217.19911
 30
0.0
 11
103.853014
 21
216.69731
 31
0.0
  0
LINE
  5
264
330
1F
100
AcDbEntity
  8
LAYER_1
 62
     7
100
AcDbLine
 10
103.853014
 20
216.69731
 30
0.0
 11
103.941115
 21
216.141109
 31
0.0
  0
LINE
  5
265
330
1F
100
AcDbEntity
  8
LAYER_1
 62
     7
100
AcDbLine
 10
103.941115
 20
216.141109
 30
0.0
 11
103.853014
 21
215.58491
 31
0.0
  0
LINE
  5
266
330
1F
100
AcDbEntity
  8
LAYER_1
 62
     7
100
AcDbLine
 10
103.853014
 20
215.58491
 30
0.0
 11
103.597315
 21
215.08311
 31
0.0
  0
LINE
  5
267
330
1F
100
AcDbEntity
  8
LAYER_1
 62
     7
100
AcDbLine
 10
103.597315
 20
215.08311
 30
0.0
 11
103.199113
 21
214.68491
 31
0.0
  0
LINE
  5
268
330
1F
100
AcDbEntity
  8
LAYER_1
 62
     7
100
AcDbLine
 10
103.199113
 20
214.68491
 30
0.0
 11
102.697314
 21
214.42921
 31
0.0
  0
LINE
  5
269
330
1F
100
AcDbEntity
  8
LAYER_1
 62
     7
100
AcDbLine
 10
102.697314
 20
214.42921
 30
0.0
 11
102.141116
 21
214.34111
 31
0.0
  0
LINE
  5
26A
330
1F
100
AcDbEntity
  8
LAYER_1
 62
     7
100
AcDbLine
 10
102.141116
 20
214.34111
 30
0.0
 11
101.584915
 21
214.42921
 31
0.0
  0
LINE
  5
26B
330
1F
100
AcDbEntity
  8
LAYER_1
 62
     7
100
AcDbLine
 10
101.584915
 20
214.42921
 30
0.0
 11
101.083116
 21
214.68491
 31
0.0
  0
LINE
  5
26C
330
1F
100
AcDbEntity
  8
LAYER_1
 62
     7
100
AcDbLine
 10
101.083116
 20
214.68491
 30
0.0
 11
100.684914
 21
215.08311
 31
0.0
  0
LINE
  5
26D
330
1F
100
AcDbEntity
  8
LAYER_1
 62
     7
100
AcDbLine
 10
100.684914
 20
215.08311
 30
0.0
 11
100.429215
 21
215.58491
 31
0.0
  0
LINE
  5
26E
330
1F
100
AcDbEntity
  8
LAYER_1
 62
     7
100
AcDbLine
 10
100.429215
 20
215.58491
 30
0.0
 11
100.341114
 21
216.141109
 31
0.0
  0
LINE
  5
26F
330
1F
100
AcDbEntity
  8
LAYER_1
 62
     7
100
AcDbLine
 10
100.341114
 20
216.141109
 30
0.0
 11
100.429215
 21
216.69731
 31
0.0
  0
LINE
  5
270
330
1F
100
AcDbEntity
  8
LAYER_1
 62
     7
100
AcDbLine
 10
100.429215
 20
131.197309
 30
0.0
 11
100.684914
 21
131.699111
 31
0.0
  0
LINE
  5
271
330
1F
100
AcDbEntity
  8
LAYER_1
 62
     7
100
AcDbLine
 10
100.684914
 20
131.699111
 30
0.0
 11
101.083116
 21
132.09731
 31
0.0
  0
LINE
  5
272
330
1F
100
AcDbEntity
  8
LAYER_1
 62
     7
100
AcDbLine
 10
101.083116
 20
132.09731
 30
0.0
 11
101.584915
 21
132.353009
 31
0.0
  0
LINE
  5
273
330
1F
100
AcDbEntity
  8
LAYER_1
 62
     7
100
AcDbLine
 10
101.584915
 20
132.353009
 30
0.0
 11
102.141116
 21
132.44111
 31
0.0
  0
LINE
  5
274
330
1F
100
AcDbEntity
  8
LAYER_1
 62
     7
100
AcDbLine
 10
102.141116
 20
132.44111
 30
0.0
 11
102.697314
 21
132.353009
 31
0.0
  0
LINE
  5
275
330
1F
100
AcDbEntity
  8
LAYER_1
 62
     7
100
AcDbLine
 10
102.697314
 20
132.353009
 30
0.0
 11
103.199113
 21
132.09731
 31
0.0
  0
LINE
  5
276
330
1F
100
AcDbEntity
  8
LAYER_1
 62
     7
100
AcDbLine
 10
103.199113
 20
132.09731
 30
0.0
 11
103.597315
 21
131.699111
 31
0.0
  0
LINE
  5
277
330
1F
100
AcDbEntity
  8
LAYER_1
 62
     7
100
AcDbLine
 10
103.597315
 20
131.699111
 30
0.0
 11
103.853014
 21
131.197309
 31
0.0
  0
LINE
  5
278
330
1F
100
AcDbEntity
  8
LAYER_1
 62
     7
100
AcDbLine
 10
103.853014
 20
131.197309
 30
0.0
 11
103.941115
 21
130.641111
 31
0.0
  0
LINE
  5
279
330
1F
100
AcDbEntity
  8
LAYER_1
 62
     7
100
AcDbLine
 10
103.941115
 20
130.641111
 30
0.0
 11
103.853014
 21
130.08491
 31
0.0
  0
LINE
  5
27A
330
1F
100
AcDbEntity
  8
LAYER_1
 62
     7
100
AcDbLine
 10
103.853014
 20
130.08491
 30
0.0
 11
103.597315
 21
129.583111
 31
0.0
  0
LINE
  5
27B
330
1F
100
AcDbEntity
  8
LAYER_1
 62
     7
100
AcDbLine
 10
103.597315
 20
129.583111
 30
0.0
 11
103.199113
 21
129.184909
 31
0.0
  0
LINE
  5
27C
330
1F
100
AcDbEntity
  8
LAYER_1
 62
     7
100
AcDbLine
 10
103.199113
 20
129.184909
 30
0.0
 11
102.697314
 21
128.92921
 31
0.0
  0
LINE
  5
27D
330
1F
100
AcDbEntity
  8
LAYER_1
 62
     7
100
AcDbLine
 10
102.697314
 20
128.92921
 30
0.0
 11
102.141116
 21
128.841109
 31
0.0
  0
LINE
  5
27E
330
1F
100
AcDbEntity
  8
LAYER_1
 62
     7
100
AcDbLine
 10
102.141116
 20
128.841109
 30
0.0
 11
101.584915
 21
128.92921
 31
0.0
  0
LINE
  5
27F
330
1F
100
AcDbEntity
  8
LAYER_1
 62
     7
100
AcDbLine
 10
101.584915
 20
128.92921
 30
0.0
 11
101.083116
 21
129.184909
 31
0.0
  0
LINE
  5
280
330
1F
100
AcDbEntity
  8
LAYER_1
 62
     7
100
AcDbLine
 10
101.083116
 20
129.184909
 30
0.0
 11
100.684914
 21
129.583111
 31
0.0
  0
LINE
  5
281
330
1F
100
AcDbEntity
  8
LAYER_1
 62
     7
100
AcDbLine
 10
100.684914
 20
129.583111
 30
0.0
 11
100.429215
 21
130.08491
 31
0.0
  0
LINE
  5
282
330
1F
100
AcDbEntity
  8
LAYER_1
 62
     7
100
AcDbLine
 10
100.429215
 20
130.08491
 30
0.0
 11
100.341114
 21
130.641111
 31
0.0
  0
LINE
  5
283
330
1F
100
AcDbEntity
  8
LAYER_1
 62
     7
100
AcDbLine
 10
100.341114
 20
130.641111
 30
0.0
 11
100.429215
 21
131.197309
 31
0.0
  0
LINE
  5
284
330
1F
100
AcDbEntity
  8
LAYER_1
 62
     7
100
AcDbLine
 10
100.429215
 20
159.69731
 30
0.0
 11
100.684914
 21
160.19911
 31
0.0
  0
LINE
  5
285
330
1F
100
AcDbEntity
  8
LAYER_1
 62
     7
100
AcDbLine
 10
100.684914
 20
160.19911
 30
0.0
 11
101.083116
 21
160.59731
 31
0.0
  0
LINE
  5
286
330
1F
100
AcDbEntity
  8
LAYER_1
 62
     7
100
AcDbLine
 10
101.083116
 20
160.59731
 30
0.0
 11
101.584915
 21
160.85301
 31
0.0
  0
LINE
  5
287
330
1F
100
AcDbEntity
  8
LAYER_1
 62
     7
100
AcDbLine
 10
101.584915
 20
160.85301
 30
0.0
 11
102.141116
 21
160.94111
 31
0.0
  0
LINE
  5
288
330
1F
100
AcDbEntity
  8
LAYER_1
 62
     7
100
AcDbLine
 10
102.141116
 20
160.94111
 30
0.0
 11
102.697314
 21
160.85301
 31
0.0
  0
LINE
  5
289
330
1F
100
AcDbEntity
  8
LAYER_1
 62
     7
100
AcDbLine
 10
102.697314
 20
160.85301
 30
0.0
 11
103.199113
 21
160.59731
 31
0.0
  0
LINE
  5
28A
330
1F
100
AcDbEntity
  8
LAYER_1
 62
     7
100
AcDbLine
 10
103.199113
 20
160.59731
 30
0.0
 11
103.597315
 21
160.19911
 31
0.0
  0
LINE
  5
28B
330
1F
100
AcDbEntity
  8
LAYER_1
 62
     7
100
AcDbLine
 10
103.597315
 20
160.19911
 30
0.0
 11
103.853014
 21
159.69731
 31
0.0
  0
LINE
  5
28C
330
1F
100
AcDbEntity
  8
LAYER_1
 62
     7
100
AcDbLine
 10
103.853014
 20
159.69731
 30
0.0
 11
103.941115
 21
159.141111
 31
0.0
  0
LINE
  5
28D
330
1F
100
AcDbEntity
  8
LAYER_1
 62
     7
100
AcDbLine
 10
103.941115
 20
159.141111
 30
0.0
 11
103.853014
 21
158.58491
 31
0.0
  0
LINE
  5
28E
330
1F
100
AcDbEntity
  8
LAYER_1
 62
     7
100
AcDbLine
 10
103.853014
 20
158.58491
 30
0.0
 11
103.597315
 21
158.08311
 31
0.0
  0
LINE
  5
28F
330
1F
100
AcDbEntity
  8
LAYER_1
 62
     7
100
AcDbLine
 10
103.597315
 20
158.08311
 30
0.0
 11
103.199113
 21
157.684909
 31
0.0
  0
LINE
  5
290
330
1F
100
AcDbEntity
  8
LAYER_1
 62
     7
100
AcDbLine
 10
103.199113
 20
157.684909
 30
0.0
 11
102.697314
 21
157.42921
 31
0.0
  0
LINE
  5
291
330
1F
100
AcDbEntity
  8
LAYER_1
 62
     7
100
AcDbLine
 10
102.697314
 20
157.42921
 30
0.0
 11
102.141116
 21
157.341108
 31
0.0
  0
LINE
  5
292
330
1F
100
AcDbEntity
  8
LAYER_1
 62
     7
100
AcDbLine
 10
102.141116
 20
157.341108
 30
0.0
 11
101.584915
 21
157.42921
 31
0.0
  0
LINE
  5
293
330
1F
100
AcDbEntity
  8
LAYER_1
 62
     7
100
AcDbLine
 10
101.584915
 20
157.42921
 30
0.0
 11
101.083116
 21
157.684909
 31
0.0
  0
LINE
  5
294
330
1F
100
AcDbEntity
  8
LAYER_1
 62
     7
100
AcDbLine
 10
101.083116
 20
157.684909
 30
0.0
 11
100.684914
 21
158.08311
 31
0.0
  0
LINE
  5
295
330
1F
100
AcDbEntity
  8
LAYER_1
 62
     7
100
AcDbLine
 10
100.684914
 20
158.08311
 30
0.0
 11
100.429215
 21
158.58491
 31
0.0
  0
LINE
  5
296
330
1F
100
AcDbEntity
  8
LAYER_1
 62
     7
100
AcDbLine
 10
100.429215
 20
158.58491
 30
0.0
 11
100.341114
 21
159.141111
 31
0.0
  0
LINE
  5
297
330
1F
100
AcDbEntity
  8
LAYER_1
 62
     7
100
AcDbLine
 10
100.341114
 20
159.141111
 30
0.0
 11
100.429215
 21
159.69731
 31
0.0
  0
LINE
  5
298
330
1F
100
AcDbEntity
  8
LAYER_1
 62
     7
100
AcDbLine
 10
100.429215
 20
188.197339
 30
0.0
 11
100.684914
 21
188.69911
 31
0.0
  0
LINE
  5
299
330
1F
100
AcDbEntity
  8
LAYER_1
 62
     7
100
AcDbLine
 10
100.684914
 20
188.69911
 30
0.0
 11
101.083116
 21
189.09733
 31
0.0
  0
LINE
  5
29A
330
1F
100
AcDbEntity
  8
LAYER_1
 62
     7
100
AcDbLine
 10
101.083116
 20
189.09733
 30
0.0
 11
101.584915
 21
189.35301
 31
0.0
  0
LINE
  5
29B
330
1F
100
AcDbEntity
  8
LAYER_1
 62
     7
100
AcDbLine
 10
101.584915
 20
189.35301
 30
0.0
 11
102.141116
 21
189.4411
 31
0.0
  0
LINE
  5
29C
330
1F
100
AcDbEntity
  8
LAYER_1
 62
     7
100
AcDbLine
 10
102.141116
 20
189.4411
 30
0.0
 11
102.697314
 21
189.35301
 31
0.0
  0
LINE
  5
29D
330
1F
100
AcDbEntity
  8
LAYER_1
 62
     7
100
AcDbLine
 10
102.697314
 20
189.35301
 30
0.0
 11
103.199113
 21
189.09733
 31
0.0
  0
LINE
  5
29E
330
1F
100
AcDbEntity
  8
LAYER_1
 62
     7
100
AcDbLine
 10
103.199113
 20
189.09733
 30
0.0
 11
103.597315
 21
188.69911
 31
0.0
  0
LINE
  5
29F
330
1F
100
AcDbEntity
  8
LAYER_1
 62
     7
100
AcDbLine
 10
103.597315
 20
188.69911
 30
0.0
 11
103.853014
 21
188.197339
 31
0.0
  0
LINE
  5
2A0
330
1F
100
AcDbEntity
  8
LAYER_1
 62
     7
100
AcDbLine
 10
103.853014
 20
188.197339
 30
0.0
 11
103.941115
 21
187.64111
 31
0.0
  0
LINE
  5
2A1
330
1F
100
AcDbEntity
  8
LAYER_1
 62
     7
100
AcDbLine
 10
103.941115
 20
187.64111
 30
0.0
 11
103.853014
 21
187.084881
 31
0.0
  0
LINE
  5
2A2
330
1F
100
AcDbEntity
  8
LAYER_1
 62
     7
100
AcDbLine
 10
103.853014
 20
187.084881
 30
0.0
 11
103.597315
 21
186.58311
 31
0.0
  0
LINE
  5
2A3
330
1F
100
AcDbEntity
  8
LAYER_1
 62
     7
100
AcDbLine
 10
103.597315
 20
186.58311
 30
0.0
 11
103.199113
 21
186.18489
 31
0.0
  0
LINE
  5
2A4
330
1F
100
AcDbEntity
  8
LAYER_1
 62
     7
100
AcDbLine
 10
103.199113
 20
186.18489
 30
0.0
 11
102.697314
 21
185.92921
 31
0.0
  0
LINE
  5
2A5
330
1F
100
AcDbEntity
  8
LAYER_1
 62
     7
100
AcDbLine
 10
102.697314
 20
185.92921
 30
0.0
 11
102.141116
 21
185.84112
 31
0.0
  0
LINE
  5
2A6
330
1F
100
AcDbEntity
  8
LAYER_1
 62
     7
100
AcDbLine
 10
102.141116
 20
185.84112
 30
0.0
 11
101.584915
 21
185.92921
 31
0.0
  0
LINE
  5
2A7
330
1F
100
AcDbEntity
  8
LAYER_1
 62
     7
100
AcDbLine
 10
101.584915
 20
185.92921
 30
0.0
 11
101.083116
 21
186.18489
 31
0.0
  0
LINE
  5
2A8
330
1F
100
AcDbEntity
  8
LAYER_1
 62
     7
100
AcDbLine
 10
101.083116
 20
186.18489
 30
0.0
 11
100.684914
 21
186.58311
 31
0.0
  0
LINE
  5
2A9
330
1F
100
AcDbEntity
  8
LAYER_1
 62
     7
100
AcDbLine
 10
100.684914
 20
186.58311
 30
0.0
 11
100.429215
 21
187.084881
 31
0.0
  0
LINE
  5
2AA
330
1F
100
AcDbEntity
  8
LAYER_1
 62
     7
100
AcDbLine
 10
100.429215
 20
187.084881
 30
0.0
 11
100.341114
 21
187.64111
 31
0.0
  0
LINE
  5
2AB
330
1F
100
AcDbEntity
  8
LAYER_1
 62
     7
100
AcDbLine
 10
100.341114
 20
187.64111
 30
0.0
 11
100.429215
 21
188.197339
 31
0.0
  0
LINE
  5
2AC
330
1F
100
AcDbEntity
  8
LAYER_1
 62
     7
100
AcDbLine
 10
75.27571400000001
 20
131.940911
 30
0.0
 11
75.66631499999999
 21
132.707511
 31
0.0
  0
LINE
  5
2AD
330
1F
100
AcDbEntity
  8
LAYER_1
 62
     7
100
AcDbLine
 10
75.66631499999999
 20
132.707511
 30
0.0
 11
76.27471599999999
 21
133.315909
 31
0.0
  0
LINE
  5
2AE
330
1F
100
AcDbEntity
  8
LAYER_1
 62
     7
100
AcDbLine
 10
76.27471599999999
 20
133.315909
 30
0.0
 11
77.04131600000001
 21
133.70651
 31
0.0
  0
LINE
  5
2AF
330
1F
100
AcDbEntity
  8
LAYER_1
 62
     7
100
AcDbLine
 10
77.04131600000001
 20
133.70651
 30
0.0
 11
77.891115
 21
133.84111
 31
0.0
  0
LINE
  5
2B0
330
1F
100
AcDbEntity
  8
LAYER_1
 62
     7
100
AcDbLine
 10
77.891115
 20
133.84111
 30
0.0
 11
78.74091400000001
 21
133.70651
 31
0.0
  0
LINE
  5
2B1
330
1F
100
AcDbEntity
  8
LAYER_1
 62
     7
100
AcDbLine
 10
78.74091400000001
 20
133.70651
 30
0.0
 11
79.50751499999999
 21
133.315909
 31
0.0
  0
LINE
  5
2B2
330
1F
100
AcDbEntity
  8
LAYER_1
 62
     7
100
AcDbLine
 10
79.50751499999999
 20
133.315909
 30
0.0
 11
80.11591499999999
 21
132.707511
 31
0.0
  0
LINE
  5
2B3
330
1F
100
AcDbEntity
  8
LAYER_1
 62
     7
100
AcDbLine
 10
80.11591499999999
 20
132.707511
 30
0.0
 11
80.50651399999999
 21
131.940911
 31
0.0
  0
LINE
  5
2B4
330
1F
100
AcDbEntity
  8
LAYER_1
 62
     7
100
AcDbLine
 10
80.50651399999999
 20
131.940911
 30
0.0
 11
80.64111399999999
 21
131.091109
 31
0.0
  0
LINE
  5
2B5
330
1F
100
AcDbEntity
  8
LAYER_1
 62
     7
100
AcDbLine
 10
80.64111399999999
 20
131.091109
 30
0.0
 11
80.50651399999999
 21
130.241309
 31
0.0
  0
LINE
  5
2B6
330
1F
100
AcDbEntity
  8
LAYER_1
 62
     7
100
AcDbLine
 10
80.50651399999999
 20
130.241309
 30
0.0
 11
80.11591499999999
 21
129.474709
 31
0.0
  0
LINE
  5
2B7
330
1F
100
AcDbEntity
  8
LAYER_1
 62
     7
100
AcDbLine
 10
80.11591499999999
 20
129.474709
 30
0.0
 11
79.50751499999999
 21
128.866311
 31
0.0
  0
LINE
  5
2B8
330
1F
100
AcDbEntity
  8
LAYER_1
 62
     7
100
AcDbLine
 10
79.50751499999999
 20
128.866311
 30
0.0
 11
78.74091400000001
 21
128.47571
 31
0.0
  0
LINE
  5
2B9
330
1F
100
AcDbEntity
  8
LAYER_1
 62
     7
100
AcDbLine
 10
78.74091400000001
 20
128.47571
 30
0.0
 11
77.891115
 21
128.34111
 31
0.0
  0
LINE
  5
2BA
330
1F
100
AcDbEntity
  8
LAYER_1
 62
     7
100
AcDbLine
 10
77.891115
 20
128.34111
 30
0.0
 11
77.04131600000001
 21
128.47571
 31
0.0
  0
LINE
  5
2BB
330
1F
100
AcDbEntity
  8
LAYER_1
 62
     7
100
AcDbLine
 10
77.04131600000001
 20
128.47571
 30
0.0
 11
76.27471599999999
 21
128.866311
 31
0.0
  0
LINE
  5
2BC
330
1F
100
AcDbEntity
  8
LAYER_1
 62
     7
100
AcDbLine
 10
76.27471599999999
 20
128.866311
 30
0.0
 11
75.66631499999999
 21
129.474709
 31
0.0
  0
LINE
  5
2BD
330
1F
100
AcDbEntity
  8
LAYER_1
 62
     7
100
AcDbLine
 10
75.66631499999999
 20
129.474709
 30
0.0
 11
75.27571400000001
 21
130.241309
 31
0.0
  0
LINE
  5
2BE
330
1F
100
AcDbEntity
  8
LAYER_1
 62
     7
100
AcDbLine
 10
75.27571400000001
 20
130.241309
 30
0.0
 11
75.141114
 21
131.091109
 31
0.0
  0
LINE
  5
2BF
330
1F
100
AcDbEntity
  8
LAYER_1
 62
     7
100
AcDbLine
 10
75.141114
 20
131.091109
 30
0.0
 11
75.27571400000001
 21
131.940911
 31
0.0
  0
LINE
  5
2C0
330
1F
100
AcDbEntity
  8
LAYER_1
 62
     7
100
AcDbLine
 10
75.27571400000001
 20
245.040911
 30
0.0
 11
75.66631499999999
 21
245.807511
 31
0.0
  0
LINE
  5
2C1
330
1F
100
AcDbEntity
  8
LAYER_1
 62
     7
100
AcDbLine
 10
75.66631499999999
 20
245.807511
 30
0.0
 11
76.27471599999999
 21
246.415908
 31
0.0
  0
LINE
  5
2C2
330
1F
100
AcDbEntity
  8
LAYER_1
 62
     7
100
AcDbLine
 10
76.27471599999999
 20
246.415908
 30
0.0
 11
77.04131600000001
 21
246.80651
 31
0.0
  0
LINE
  5
2C3
330
1F
100
AcDbEntity
  8
LAYER_1
 62
     7
100
AcDbLine
 10
77.04131600000001
 20
246.80651
 30
0.0
 11
77.891115
 21
246.94111
 31
0.0
  0
LINE
  5
2C4
330
1F
100
AcDbEntity
  8
LAYER_1
 62
     7
100
AcDbLine
 10
77.891115
 20
246.94111
 30
0.0
 11
78.74091400000001
 21
246.80651
 31
0.0
  0
LINE
  5
2C5
330
1F
100
AcDbEntity
  8
LAYER_1
 62
     7
100
AcDbLine
 10
78.74091400000001
 20
246.80651
 30
0.0
 11
79.50751499999999
 21
246.415908
 31
0.0
  0
LINE
  5
2C6
330
1F
100
AcDbEntity
  8
LAYER_1
 62
     7
100
AcDbLine
 10
79.50751499999999
 20
246.415908
 30
0.0
 11
80.11591499999999
 21
245.807511
 31
0.0
  0
LINE
  5
2C7
330
1F
100
AcDbEntity
  8
LAYER_1
 62
     7
100
AcDbLine
 10
80.11591499999999
 20
245.807511
 30
0.0
 11
80.50651399999999
 21
245.040911
 31
0.0
  0
LINE
  5
2C8
330
1F
100
AcDbEntity
  8
LAYER_1
 62
     7
100
AcDbLine
 10
80.50651399999999
 20
245.040911
 30
0.0
 11
80.64111399999999
 21
244.191111
 31
0.0
  0
LINE
  5
2C9
330
1F
100
AcDbEntity
  8
LAYER_1
 62
     7
100
AcDbLine
 10
80.64111399999999
 20
244.191111
 30
0.0
 11
80.50651399999999
 21
243.341309
 31
0.0
  0
LINE
  5
2CA
330
1F
100
AcDbEntity
  8
LAYER_1
 62
     7
100
AcDbLine
 10
80.50651399999999
 20
243.341309
 30
0.0
 11
80.11591499999999
 21
242.574709
 31
0.0
  0
LINE
  5
2CB
330
1F
100
AcDbEntity
  8
LAYER_1
 62
     7
100
AcDbLine
 10
80.11591499999999
 20
242.574709
 30
0.0
 11
79.50751499999999
 21
241.966311
 31
0.0
  0
LINE
  5
2CC
330
1F
100
AcDbEntity
  8
LAYER_1
 62
     7
100
AcDbLine
 10
79.50751499999999
 20
241.966311
 30
0.0
 11
78.74091400000001
 21
241.57571
 31
0.0
  0
LINE
  5
2CD
330
1F
100
AcDbEntity
  8
LAYER_1
 62
     7
100
AcDbLine
 10
78.74091400000001
 20
241.57571
 30
0.0
 11
77.891115
 21
241.44111
 31
0.0
  0
LINE
  5
2CE
330
1F
100
AcDbEntity
  8
LAYER_1
 62
     7
100
AcDbLine
 10
77.891115
 20
241.44111
 30
0.0
 11
77.04131600000001
 21
241.57571
 31
0.0
  0
LINE
  5
2CF
330
1F
100
AcDbEntity
  8
LAYER_1
 62
     7
100
AcDbLine
 10
77.04131600000001
 20
241.57571
 30
0.0
 11
76.27471599999999
 21
241.966311
 31
0.0
  0
LINE
  5
2D0
330
1F
100
AcDbEntity
  8
LAYER_1
 62
     7
100
AcDbLine
 10
76.27471599999999
 20
241.966311
 30
0.0
 11
75.66631499999999
 21
242.574709
 31
0.0
  0
LINE
  5
2D1
330
1F
100
AcDbEntity
  8
LAYER_1
 62
     7
100
AcDbLine
 10
75.66631499999999
 20
242.574709
 30
0.0
 11
75.27571400000001
 21
243.341309
 31
0.0
  0
LINE
  5
2D2
330
1F
100
AcDbEntity
  8
LAYER_1
 62
     7
100
AcDbLine
 10
75.27571400000001
 20
243.341309
 30
0.0
 11
75.141114
 21
244.191111
 31
0.0
  0
LINE
  5
2D3
330
1F
100
AcDbEntity
  8
LAYER_1
 62
     7
100
AcDbLine
 10
75.141114
 20
244.191111
 30
0.0
 11
75.27571400000001
 21
245.040911
 31
0.0
  0
LINE
  5
2D4
330
1F
100
AcDbEntity
  8
LAYER_1
 62
     7
100
AcDbLine
 10
52.429212
 20
245.19731
 30
0.0
 11
52.684906
 21
245.699109
 31
0.0
  0
LINE
  5
2D5
330
1F
100
AcDbEntity
  8
LAYER_1
 62
     7
100
AcDbLine
 10
52.684906
 20
245.699109
 30
0.0
 11
53.083121
 21
246.097311
 31
0.0
  0
LINE
  5
2D6
330
1F
100
AcDbEntity
  8
LAYER_1
 62
     7
100
AcDbLine
 10
53.083121
 20
246.097311
 30
0.0
 11
53.58488399999999
 21
246.35301
 31
0.0
  0
LINE
  5
2D7
330
1F
100
AcDbEntity
  8
LAYER_1
 62
     7
100
AcDbLine
 10
53.58488399999999
 20
246.35301
 30
0.0
 11
54.141116
 21
246.441111
 31
0.0
  0
LINE
  5
2D8
330
1F
100
AcDbEntity
  8
LAYER_1
 62
     7
100
AcDbLine
 10
54.141116
 20
246.441111
 30
0.0
 11
54.697348
 21
246.35301
 31
0.0
  0
LINE
  5
2D9
330
1F
100
AcDbEntity
  8
LAYER_1
 62
     7
100
AcDbLine
 10
54.697348
 20
246.35301
 30
0.0
 11
55.199111
 21
246.097311
 31
0.0
  0
LINE
  5
2DA
330
1F
100
AcDbEntity
  8
LAYER_1
 62
     7
100
AcDbLine
 10
55.199111
 20
246.097311
 30
0.0
 11
55.597326
 21
245.699109
 31
0.0
  0
LINE
  5
2DB
330
1F
100
AcDbEntity
  8
LAYER_1
 62
     7
100
AcDbLine
 10
55.597326
 20
245.699109
 30
0.0
 11
55.85301999999999
 21
245.19731
 31
0.0
  0
LINE
  5
2DC
330
1F
100
AcDbEntity
  8
LAYER_1
 62
     7
100
AcDbLine
 10
55.85301999999999
 20
245.19731
 30
0.0
 11
55.941101
 21
244.641109
 31
0.0
  0
LINE
  5
2DD
330
1F
100
AcDbEntity
  8
LAYER_1
 62
     7
100
AcDbLine
 10
55.941101
 20
244.641109
 30
0.0
 11
55.85301999999999
 21
244.084911
 31
0.0
  0
LINE
  5
2DE
330
1F
100
AcDbEntity
  8
LAYER_1
 62
     7
100
AcDbLine
 10
55.85301999999999
 20
244.084911
 30
0.0
 11
55.597326
 21
243.583109
 31
0.0
  0
LINE
  5
2DF
330
1F
100
AcDbEntity
  8
LAYER_1
 62
     7
100
AcDbLine
 10
55.597326
 20
243.583109
 30
0.0
 11
55.199111
 21
243.18491
 31
0.0
  0
LINE
  5
2E0
330
1F
100
AcDbEntity
  8
LAYER_1
 62
     7
100
AcDbLine
 10
55.199111
 20
243.18491
 30
0.0
 11
54.697348
 21
242.929211
 31
0.0
  0
LINE
  5
2E1
330
1F
100
AcDbEntity
  8
LAYER_1
 62
     7
100
AcDbLine
 10
54.697348
 20
242.929211
 30
0.0
 11
54.141116
 21
242.84111
 31
0.0
  0
LINE
  5
2E2
330
1F
100
AcDbEntity
  8
LAYER_1
 62
     7
100
AcDbLine
 10
54.141116
 20
242.84111
 30
0.0
 11
53.58488399999999
 21
242.929211
 31
0.0
  0
LINE
  5
2E3
330
1F
100
AcDbEntity
  8
LAYER_1
 62
     7
100
AcDbLine
 10
53.58488399999999
 20
242.929211
 30
0.0
 11
53.083121
 21
243.18491
 31
0.0
  0
LINE
  5
2E4
330
1F
100
AcDbEntity
  8
LAYER_1
 62
     7
100
AcDbLine
 10
53.083121
 20
243.18491
 30
0.0
 11
52.684906
 21
243.583109
 31
0.0
  0
LINE
  5
2E5
330
1F
100
AcDbEntity
  8
LAYER_1
 62
     7
100
AcDbLine
 10
52.684906
 20
243.583109
 30
0.0
 11
52.429212
 21
244.084911
 31
0.0
  0
LINE
  5
2E6
330
1F
100
AcDbEntity
  8
LAYER_1
 62
     7
100
AcDbLine
 10
52.429212
 20
244.084911
 30
0.0
 11
52.341131
 21
244.641109
 31
0.0
  0
LINE
  5
2E7
330
1F
100
AcDbEntity
  8
LAYER_1
 62
     7
100
AcDbLine
 10
52.341131
 20
244.641109
 30
0.0
 11
52.429212
 21
245.19731
 31
0.0
  0
LINE
  5
2E8
330
1F
100
AcDbEntity
  8
LAYER_1
 62
     7
100
AcDbLine
 10
52.429212
 20
131.197309
 30
0.0
 11
52.684906
 21
131.699111
 31
0.0
  0
LINE
  5
2E9
330
1F
100
AcDbEntity
  8
LAYER_1
 62
     7
100
AcDbLine
 10
52.684906
 20
131.699111
 30
0.0
 11
53.083121
 21
132.09731
 31
0.0
  0
LINE
  5
2EA
330
1F
100
AcDbEntity
  8
LAYER_1
 62
     7
100
AcDbLine
 10
53.083121
 20
132.09731
 30
0.0
 11
53.58488399999999
 21
132.353009
 31
0.0
  0
LINE
  5
2EB
330
1F
100
AcDbEntity
  8
LAYER_1
 62
     7
100
AcDbLine
 10
53.58488399999999
 20
132.353009
 30
0.0
 11
54.141116
 21
132.44111
 31
0.0
  0
LINE
  5
2EC
330
1F
100
AcDbEntity
  8
LAYER_1
 62
     7
100
AcDbLine
 10
54.141116
 20
132.44111
 30
0.0
 11
54.697348
 21
132.353009
 31
0.0
  0
LINE
  5
2ED
330
1F
100
AcDbEntity
  8
LAYER_1
 62
     7
100
AcDbLine
 10
54.697348
 20
132.353009
 30
0.0
 11
55.199111
 21
132.09731
 31
0.0
  0
LINE
  5
2EE
330
1F
100
AcDbEntity
  8
LAYER_1
 62
     7
100
AcDbLine
 10
55.199111
 20
132.09731
 30
0.0
 11
55.597326
 21
131.699111
 31
0.0
  0
LINE
  5
2EF
330
1F
100
AcDbEntity
  8
LAYER_1
 62
     7
100
AcDbLine
 10
55.597326
 20
131.699111
 30
0.0
 11
55.85301999999999
 21
131.197309
 31
0.0
  0
LINE
  5
2F0
330
1F
100
AcDbEntity
  8
LAYER_1
 62
     7
100
AcDbLine
 10
55.85301999999999
 20
131.197309
 30
0.0
 11
55.941101
 21
130.641111
 31
0.0
  0
LINE
  5
2F1
330
1F
100
AcDbEntity
  8
LAYER_1
 62
     7
100
AcDbLine
 10
55.941101
 20
130.641111
 30
0.0
 11
55.85301999999999
 21
130.08491
 31
0.0
  0
LINE
  5
2F2
330
1F
100
AcDbEntity
  8
LAYER_1
 62
     7
100
AcDbLine
 10
55.85301999999999
 20
130.08491
 30
0.0
 11
55.597326
 21
129.583111
 31
0.0
  0
LINE
  5
2F3
330
1F
100
AcDbEntity
  8
LAYER_1
 62
     7
100
AcDbLine
 10
55.597326
 20
129.583111
 30
0.0
 11
55.199111
 21
129.184909
 31
0.0
  0
LINE
  5
2F4
330
1F
100
AcDbEntity
  8
LAYER_1
 62
     7
100
AcDbLine
 10
55.199111
 20
129.184909
 30
0.0
 11
54.697348
 21
128.92921
 31
0.0
  0
LINE
  5
2F5
330
1F
100
AcDbEntity
  8
LAYER_1
 62
     7
100
AcDbLine
 10
54.697348
 20
128.92921
 30
0.0
 11
54.141116
 21
128.841109
 31
0.0
  0
LINE
  5
2F6
330
1F
100
AcDbEntity
  8
LAYER_1
 62
     7
100
AcDbLine
 10
54.141116
 20
128.841109
 30
0.0
 11
53.58488399999999
 21
128.92921
 31
0.0
  0
LINE
  5
2F7
330
1F
100
AcDbEntity
  8
LAYER_1
 62
     7
100
AcDbLine
 10
53.58488399999999
 20
128.92921
 30
0.0
 11
53.083121
 21
129.184909
 31
0.0
  0
LINE
  5
2F8
330
1F
100
AcDbEntity
  8
LAYER_1
 62
     7
100
AcDbLine
 10
53.083121
 20
129.184909
 30
0.0
 11
52.684906
 21
129.583111
 31
0.0
  0
LINE
  5
2F9
330
1F
100
AcDbEntity
  8
LAYER_1
 62
     7
100
AcDbLine
 10
52.684906
 20
129.583111
 30
0.0
 11
52.429212
 21
130.08491
 31
0.0
  0
LINE
  5
2FA
330
1F
100
AcDbEntity
  8
LAYER_1
 62
     7
100
AcDbLine
 10
52.429212
 20
130.08491
 30
0.0
 11
52.341131
 21
130.641111
 31
0.0
  0
LINE
  5
2FB
330
1F
100
AcDbEntity
  8
LAYER_1
 62
     7
100
AcDbLine
 10
52.341131
 20
130.641111
 30
0.0
 11
52.429212
 21
131.197309
 31
0.0
  0
LINE
  5
2FC
330
1F
100
AcDbEntity
  8
LAYER_1
 62
     7
100
AcDbLine
 10
27.775718
 20
131.940911
 30
0.0
 11
28.166314
 21
132.707511
 31
0.0
  0
LINE
  5
2FD
330
1F
100
AcDbEntity
  8
LAYER_1
 62
     7
100
AcDbLine
 10
28.166314
 20
132.707511
 30
0.0
 11
28.7747
 21
133.315909
 31
0.0
  0
LINE
  5
2FE
330
1F
100
AcDbEntity
  8
LAYER_1
 62
     7
100
AcDbLine
 10
28.7747
 20
133.315909
 30
0.0
 11
29.541301
 21
133.70651
 31
0.0
  0
LINE
  5
2FF
330
1F
100
AcDbEntity
  8
LAYER_1
 62
     7
100
AcDbLine
 10
29.541301
 20
133.70651
 30
0.0
 11
30.391128
 21
133.84111
 31
0.0
  0
LINE
  5
300
330
1F
100
AcDbEntity
  8
LAYER_1
 62
     7
100
AcDbLine
 10
30.391128
 20
133.84111
 30
0.0
 11
31.24092800000001
 21
133.70651
 31
0.0
  0
LINE
  5
301
330
1F
100
AcDbEntity
  8
LAYER_1
 62
     7
100
AcDbLine
 10
31.24092800000001
 20
133.70651
 30
0.0
 11
32.007528
 21
133.315909
 31
0.0
  0
LINE
  5
302
330
1F
100
AcDbEntity
  8
LAYER_1
 62
     7
100
AcDbLine
 10
32.007528
 20
133.315909
 30
0.0
 11
32.615914
 21
132.707511
 31
0.0
  0
LINE
  5
303
330
1F
100
AcDbEntity
  8
LAYER_1
 62
     7
100
AcDbLine
 10
32.615914
 20
132.707511
 30
0.0
 11
33.00651
 21
131.940911
 31
0.0
  0
LINE
  5
304
330
1F
100
AcDbEntity
  8
LAYER_1
 62
     7
100
AcDbLine
 10
33.00651
 20
131.940911
 30
0.0
 11
33.141102
 21
131.091109
 31
0.0
  0
LINE
  5
305
330
1F
100
AcDbEntity
  8
LAYER_1
 62
     7
100
AcDbLine
 10
33.141102
 20
131.091109
 30
0.0
 11
33.00651
 21
130.241309
 31
0.0
  0
LINE
  5
306
330
1F
100
AcDbEntity
  8
LAYER_1
 62
     7
100
AcDbLine
 10
33.00651
 20
130.241309
 30
0.0
 11
32.615914
 21
129.474709
 31
0.0
  0
LINE
  5
307
330
1F
100
AcDbEntity
  8
LAYER_1
 62
     7
100
AcDbLine
 10
32.615914
 20
129.474709
 30
0.0
 11
32.007528
 21
128.866311
 31
0.0
  0
LINE
  5
308
330
1F
100
AcDbEntity
  8
LAYER_1
 62
     7
100
AcDbLine
 10
32.007528
 20
128.866311
 30
0.0
 11
31.24092800000001
 21
128.47571
 31
0.0
  0
LINE
  5
309
330
1F
100
AcDbEntity
  8
LAYER_1
 62
     7
100
AcDbLine
 10
31.24092800000001
 20
128.47571
 30
0.0
 11
30.391128
 21
128.34111
 31
0.0
  0
LINE
  5
30A
330
1F
100
AcDbEntity
  8
LAYER_1
 62
     7
100
AcDbLine
 10
30.391128
 20
128.34111
 30
0.0
 11
29.541301
 21
128.47571
 31
0.0
  0
LINE
  5
30B
330
1F
100
AcDbEntity
  8
LAYER_1
 62
     7
100
AcDbLine
 10
29.541301
 20
128.47571
 30
0.0
 11
28.7747
 21
128.866311
 31
0.0
  0
LINE
  5
30C
330
1F
100
AcDbEntity
  8
LAYER_1
 62
     7
100
AcDbLine
 10
28.7747
 20
128.866311
 30
0.0
 11
28.166314
 21
129.474709
 31
0.0
  0
LINE
  5
30D
330
1F
100
AcDbEntity
  8
LAYER_1
 62
     7
100
AcDbLine
 10
28.166314
 20
129.474709
 30
0.0
 11
27.775718
 21
130.241309
 31
0.0
  0
LINE
  5
30E
330
1F
100
AcDbEntity
  8
LAYER_1
 62
     7
100
AcDbLine
 10
27.775718
 20
130.241309
 30
0.0
 11
27.641127
 21
131.091109
 31
0.0
  0
LINE
  5
30F
330
1F
100
AcDbEntity
  8
LAYER_1
 62
     7
100
AcDbLine
 10
27.641127
 20
131.091109
 30
0.0
 11
27.775718
 21
131.940911
 31
0.0
  0
LINE
  5
310
330
1F
100
AcDbEntity
  8
LAYER_1
 62
     7
100
AcDbLine
 10
27.775718
 20
245.040911
 30
0.0
 11
28.166314
 21
245.807511
 31
0.0
  0
LINE
  5
311
330
1F
100
AcDbEntity
  8
LAYER_1
 62
     7
100
AcDbLine
 10
28.166314
 20
245.807511
 30
0.0
 11
28.7747
 21
246.415908
 31
0.0
  0
LINE
  5
312
330
1F
100
AcDbEntity
  8
LAYER_1
 62
     7
100
AcDbLine
 10
28.7747
 20
246.415908
 30
0.0
 11
29.541301
 21
246.80651
 31
0.0
  0
LINE
  5
313
330
1F
100
AcDbEntity
  8
LAYER_1
 62
     7
100
AcDbLine
 10
29.541301
 20
246.80651
 30
0.0
 11
30.391128
 21
246.94111
 31
0.0
  0
LINE
  5
314
330
1F
100
AcDbEntity
  8
LAYER_1
 62
     7
100
AcDbLine
 10
30.391128
 20
246.94111
 30
0.0
 11
31.24092800000001
 21
246.80651
 31
0.0
  0
LINE
  5
315
330
1F
100
AcDbEntity
  8
LAYER_1
 62
     7
100
AcDbLine
 10
31.24092800000001
 20
246.80651
 30
0.0
 11
32.007528
 21
246.415908
 31
0.0
  0
LINE
  5
316
330
1F
100
AcDbEntity
  8
LAYER_1
 62
     7
100
AcDbLine
 10
32.007528
 20
246.415908
 30
0.0
 11
32.615914
 21
245.807511
 31
0.0
  0
LINE
  5
317
330
1F
100
AcDbEntity
  8
LAYER_1
 62
     7
100
AcDbLine
 10
32.615914
 20
245.807511
 30
0.0
 11
33.00651
 21
245.040911
 31
0.0
  0
LINE
  5
318
330
1F
100
AcDbEntity
  8
LAYER_1
 62
     7
100
AcDbLine
 10
33.00651
 20
245.040911
 30
0.0
 11
33.141102
 21
244.191111
 31
0.0
  0
LINE
  5
319
330
1F
100
AcDbEntity
  8
LAYER_1
 62
     7
100
AcDbLine
 10
33.141102
 20
244.191111
 30
0.0
 11
33.00651
 21
243.341309
 31
0.0
  0
LINE
  5
31A
330
1F
100
AcDbEntity
  8
LAYER_1
 62
     7
100
AcDbLine
 10
33.00651
 20
243.341309
 30
0.0
 11
32.615914
 21
242.574709
 31
0.0
  0
LINE
  5
31B
330
1F
100
AcDbEntity
  8
LAYER_1
 62
     7
100
AcDbLine
 10
32.615914
 20
242.574709
 30
0.0
 11
32.007528
 21
241.966311
 31
0.0
  0
LINE
  5
31C
330
1F
100
AcDbEntity
  8
LAYER_1
 62
     7
100
AcDbLine
 10
32.007528
 20
241.966311
 30
0.0
 11
31.24092800000001
 21
241.57571
 31
0.0
  0
LINE
  5
31D
330
1F
100
AcDbEntity
  8
LAYER_1
 62
     7
100
AcDbLine
 10
31.24092800000001
 20
241.57571
 30
0.0
 11
30.391128
 21
241.44111
 31
0.0
  0
LINE
  5
31E
330
1F
100
AcDbEntity
  8
LAYER_1
 62
     7
100
AcDbLine
 10
30.391128
 20
241.44111
 30
0.0
 11
29.541301
 21
241.57571
 31
0.0
  0
LINE
  5
31F
330
1F
100
AcDbEntity
  8
LAYER_1
 62
     7
100
AcDbLine
 10
29.541301
 20
241.57571
 30
0.0
 11
28.7747
 21
241.966311
 31
0.0
  0
LINE
  5
320
330
1F
100
AcDbEntity
  8
LAYER_1
 62
     7
100
AcDbLine
 10
28.7747
 20
241.966311
 30
0.0
 11
28.166314
 21
242.574709
 31
0.0
  0
LINE
  5
321
330
1F
100
AcDbEntity
  8
LAYER_1
 62
     7
100
AcDbLine
 10
28.166314
 20
242.574709
 30
0.0
 11
27.775718
 21
243.341309
 31
0.0
  0
LINE
  5
322
330
1F
100
AcDbEntity
  8
LAYER_1
 62
     7
100
AcDbLine
 10
27.775718
 20
243.341309
 30
0.0
 11
27.641127
 21
244.191111
 31
0.0
  0
LINE
  5
323
330
1F
100
AcDbEntity
  8
LAYER_1
 62
     7
100
AcDbLine
 10
27.641127
 20
244.191111
 30
0.0
 11
27.775718
 21
245.040911
 31
0.0
  0
LINE
  5
324
330
1F
100
AcDbEntity
  8
LAYER_1
 62
     7
100
AcDbLine
 10
4.429223999999999
 20
188.197339
 30
0.0
 11
4.684916999999999
 21
188.69911
 31
0.0
  0
LINE
  5
325
330
1F
100
AcDbEntity
  8
LAYER_1
 62
     7
100
AcDbLine
 10
4.684916999999999
 20
188.69911
 30
0.0
 11
5.083104
 21
189.09733
 31
0.0
  0
LINE
  5
326
330
1F
100
AcDbEntity
  8
LAYER_1
 62
     7
100
AcDbLine
 10
5.083104
 20
189.09733
 30
0.0
 11
5.584923999999999
 21
189.35301
 31
0.0
  0
LINE
  5
327
330
1F
100
AcDbEntity
  8
LAYER_1
 62
     7
100
AcDbLine
 10
5.584923999999999
 20
189.35301
 30
0.0
 11
6.141127
 21
189.4411
 31
0.0
  0
LINE
  5
328
330
1F
100
AcDbEntity
  8
LAYER_1
 62
     7
100
AcDbLine
 10
6.141127
 20
189.4411
 30
0.0
 11
6.697302999999999
 21
189.35301
 31
0.0
  0
LINE
  5
329
330
1F
100
AcDbEntity
  8
LAYER_1
 62
     7
100
AcDbLine
 10
6.697302999999999
 20
189.35301
 30
0.0
 11
7.199122
 21
189.09733
 31
0.0
  0
LINE
  5
32A
330
1F
100
AcDbEntity
  8
LAYER_1
 62
     7
100
AcDbLine
 10
7.199122
 20
189.09733
 30
0.0
 11
7.597309
 21
188.69911
 31
0.0
  0
LINE
  5
32B
330
1F
100
AcDbEntity
  8
LAYER_1
 62
     7
100
AcDbLine
 10
7.597309
 20
188.69911
 30
0.0
 11
7.853003
 21
188.197339
 31
0.0
  0
LINE
  5
32C
330
1F
100
AcDbEntity
  8
LAYER_1
 62
     7
100
AcDbLine
 10
7.853003
 20
188.197339
 30
0.0
 11
7.941111999999999
 21
187.64111
 31
0.0
  0
LINE
  5
32D
330
1F
100
AcDbEntity
  8
LAYER_1
 62
     7
100
AcDbLine
 10
7.941111999999999
 20
187.64111
 30
0.0
 11
7.853003
 21
187.084881
 31
0.0
  0
LINE
  5
32E
330
1F
100
AcDbEntity
  8
LAYER_1
 62
     7
100
AcDbLine
 10
7.853003
 20
187.084881
 30
0.0
 11
7.597309
 21
186.58311
 31
0.0
  0
LINE
  5
32F
330
1F
100
AcDbEntity
  8
LAYER_1
 62
     7
100
AcDbLine
 10
7.597309
 20
186.58311
 30
0.0
 11
7.199122
 21
186.18489
 31
0.0
  0
LINE
  5
330
330
1F
100
AcDbEntity
  8
LAYER_1
 62
     7
100
AcDbLine
 10
7.199122
 20
186.18489
 30
0.0
 11
6.697302999999999
 21
185.92921
 31
0.0
  0
LINE
  5
331
330
1F
100
AcDbEntity
  8
LAYER_1
 62
     7
100
AcDbLine
 10
6.697302999999999
 20
185.92921
 30
0.0
 11
6.141127
 21
185.84112
 31
0.0
  0
LINE
  5
332
330
1F
100
AcDbEntity
  8
LAYER_1
 62
     7
100
AcDbLine
 10
6.141127
 20
185.84112
 30
0.0
 11
5.584923999999999
 21
185.92921
 31
0.0
  0
LINE
  5
333
330
1F
100
AcDbEntity
  8
LAYER_1
 62
     7
100
AcDbLine
 10
5.584923999999999
 20
185.92921
 30
0.0
 11
5.083104
 21
186.18489
 31
0.0
  0
LINE
  5
334
330
1F
100
AcDbEntity
  8
LAYER_1
 62
     7
100
AcDbLine
 10
5.083104
 20
186.18489
 30
0.0
 11
4.684916999999999
 21
186.58311
 31
0.0
  0
LINE
  5
335
330
1F
100
AcDbEntity
  8
LAYER_1
 62
     7
100
AcDbLine
 10
4.684916999999999
 20
186.58311
 30
0.0
 11
4.429223999999999
 21
187.084881
 31
0.0
  0
LINE
  5
336
330
1F
100
AcDbEntity
  8
LAYER_1
 62
     7
100
AcDbLine
 10
4.429223999999999
 20
187.084881
 30
0.0
 11
4.341114
 21
187.64111
 31
0.0
  0
LINE
  5
337
330
1F
100
AcDbEntity
  8
LAYER_1
 62
     7
100
AcDbLine
 10
4.341114
 20
187.64111
 30
0.0
 11
4.429223999999999
 21
188.197339
 31
0.0
  0
LINE
  5
338
330
1F
100
AcDbEntity
  8
LAYER_1
 62
     7
100
AcDbLine
 10
4.429223999999999
 20
159.69731
 30
0.0
 11
4.684916999999999
 21
160.19911
 31
0.0
  0
LINE
  5
339
330
1F
100
AcDbEntity
  8
LAYER_1
 62
     7
100
AcDbLine
 10
4.684916999999999
 20
160.19911
 30
0.0
 11
5.083104
 21
160.59731
 31
0.0
  0
LINE
  5
33A
330
1F
100
AcDbEntity
  8
LAYER_1
 62
     7
100
AcDbLine
 10
5.083104
 20
160.59731
 30
0.0
 11
5.584923999999999
 21
160.85301
 31
0.0
  0
LINE
  5
33B
330
1F
100
AcDbEntity
  8
LAYER_1
 62
     7
100
AcDbLine
 10
5.584923999999999
 20
160.85301
 30
0.0
 11
6.141127
 21
160.94111
 31
0.0
  0
LINE
  5
33C
330
1F
100
AcDbEntity
  8
LAYER_1
 62
     7
100
AcDbLine
 10
6.141127
 20
160.94111
 30
0.0
 11
6.697302999999999
 21
160.85301
 31
0.0
  0
LINE
  5
33D
330
1F
100
AcDbEntity
  8
LAYER_1
 62
     7
100
AcDbLine
 10
6.697302999999999
 20
160.85301
 30
0.0
 11
7.199122
 21
160.59731
 31
0.0
  0
LINE
  5
33E
330
1F
100
AcDbEntity
  8
LAYER_1
 62
     7
100
AcDbLine
 10
7.199122
 20
160.59731
 30
0.0
 11
7.597309
 21
160.19911
 31
0.0
  0
LINE
  5
33F
330
1F
100
AcDbEntity
  8
LAYER_1
 62
     7
100
AcDbLine
 10
7.597309
 20
160.19911
 30
0.0
 11
7.853003
 21
159.69731
 31
0.0
  0
LINE
  5
340
330
1F
100
AcDbEntity
  8
LAYER_1
 62
     7
100
AcDbLine
 10
7.853003
 20
159.69731
 30
0.0
 11
7.941111999999999
 21
159.141111
 31
0.0
  0
LINE
  5
341
330
1F
100
AcDbEntity
  8
LAYER_1
 62
     7
100
AcDbLine
 10
7.941111999999999
 20
159.141111
 30
0.0
 11
7.853003
 21
158.58491
 31
0.0
  0
LINE
  5
342
330
1F
100
AcDbEntity
  8
LAYER_1
 62
     7
100
AcDbLine
 10
7.853003
 20
158.58491
 30
0.0
 11
7.597309
 21
158.08311
 31
0.0
  0
LINE
  5
343
330
1F
100
AcDbEntity
  8
LAYER_1
 62
     7
100
AcDbLine
 10
7.597309
 20
158.08311
 30
0.0
 11
7.199122
 21
157.684909
 31
0.0
  0
LINE
  5
344
330
1F
100
AcDbEntity
  8
LAYER_1
 62
     7
100
AcDbLine
 10
7.199122
 20
157.684909
 30
0.0
 11
6.697302999999999
 21
157.42921
 31
0.0
  0
LINE
  5
345
330
1F
100
AcDbEntity
  8
LAYER_1
 62
     7
100
AcDbLine
 10
6.697302999999999
 20
157.42921
 30
0.0
 11
6.141127
 21
157.341108
 31
0.0
  0
LINE
  5
346
330
1F
100
AcDbEntity
  8
LAYER_1
 62
     7
100
AcDbLine
 10
6.141127
 20
157.341108
 30
0.0
 11
5.584923999999999
 21
157.42921
 31
0.0
  0
LINE
  5
347
330
1F
100
AcDbEntity
  8
LAYER_1
 62
     7
100
AcDbLine
 10
5.584923999999999
 20
157.42921
 30
0.0
 11
5.083104
 21
157.684909
 31
0.0
  0
LINE
  5
348
330
1F
100
AcDbEntity
  8
LAYER_1
 62
     7
100
AcDbLine
 10
5.083104
 20
157.684909
 30
0.0
 11
4.684916999999999
 21
158.08311
 31
0.0
  0
LINE
  5
349
330
1F
100
AcDbEntity
  8
LAYER_1
 62
     7
100
AcDbLine
 10
4.684916999999999
 20
158.08311
 30
0.0
 11
4.429223999999999
 21
158.58491
 31
0.0
  0
LINE
  5
34A
330
1F
100
AcDbEntity
  8
LAYER_1
 62
     7
100
AcDbLine
 10
4.429223999999999
 20
158.58491
 30
0.0
 11
4.341114
 21
159.141111
 31
0.0
  0
LINE
  5
34B
330
1F
100
AcDbEntity
  8
LAYER_1
 62
     7
100
AcDbLine
 10
4.341114
 20
159.141111
 30
0.0
 11
4.429223999999999
 21
159.69731
 31
0.0
  0
LINE
  5
34C
330
1F
100
AcDbEntity
  8
LAYER_1
 62
     7
100
AcDbLine
 10
4.429223999999999
 20
131.197309
 30
0.0
 11
4.684916999999999
 21
131.699111
 31
0.0
  0
LINE
  5
34D
330
1F
100
AcDbEntity
  8
LAYER_1
 62
     7
100
AcDbLine
 10
4.684916999999999
 20
131.699111
 30
0.0
 11
5.083104
 21
132.09731
 31
0.0
  0
LINE
  5
34E
330
1F
100
AcDbEntity
  8
LAYER_1
 62
     7
100
AcDbLine
 10
5.083104
 20
132.09731
 30
0.0
 11
5.584923999999999
 21
132.353009
 31
0.0
  0
LINE
  5
34F
330
1F
100
AcDbEntity
  8
LAYER_1
 62
     7
100
AcDbLine
 10
5.584923999999999
 20
132.353009
 30
0.0
 11
6.141127
 21
132.44111
 31
0.0
  0
LINE
  5
350
330
1F
100
AcDbEntity
  8
LAYER_1
 62
     7
100
AcDbLine
 10
6.141127
 20
132.44111
 30
0.0
 11
6.697302999999999
 21
132.353009
 31
0.0
  0
LINE
  5
351
330
1F
100
AcDbEntity
  8
LAYER_1
 62
     7
100
AcDbLine
 10
6.697302999999999
 20
132.353009
 30
0.0
 11
7.199122
 21
132.09731
 31
0.0
  0
LINE
  5
352
330
1F
100
AcDbEntity
  8
LAYER_1
 62
     7
100
AcDbLine
 10
7.199122
 20
132.09731
 30
0.0
 11
7.597309
 21
131.699111
 31
0.0
  0
LINE
  5
353
330
1F
100
AcDbEntity
  8
LAYER_1
 62
     7
100
AcDbLine
 10
7.597309
 20
131.699111
 30
0.0
 11
7.853003
 21
131.197309
 31
0.0
  0
LINE
  5
354
330
1F
100
AcDbEntity
  8
LAYER_1
 62
     7
100
AcDbLine
 10
7.853003
 20
131.197309
 30
0.0
 11
7.941111999999999
 21
130.641111
 31
0.0
  0
LINE
  5
355
330
1F
100
AcDbEntity
  8
LAYER_1
 62
     7
100
AcDbLine
 10
7.941111999999999
 20
130.641111
 30
0.0
 11
7.853003
 21
130.08491
 31
0.0
  0
LINE
  5
356
330
1F
100
AcDbEntity
  8
LAYER_1
 62
     7
100
AcDbLine
 10
7.853003
 20
130.08491
 30
0.0
 11
7.597309
 21
129.583111
 31
0.0
  0
LINE
  5
357
330
1F
100
AcDbEntity
  8
LAYER_1
 62
     7
100
AcDbLine
 10
7.597309
 20
129.583111
 30
0.0
 11
7.199122
 21
129.184909
 31
0.0
  0
LINE
  5
358
330
1F
100
AcDbEntity
  8
LAYER_1
 62
     7
100
AcDbLine
 10
7.199122
 20
129.184909
 30
0.0
 11
6.697302999999999
 21
128.92921
 31
0.0
  0
LINE
  5
359
330
1F
100
AcDbEntity
  8
LAYER_1
 62
     7
100
AcDbLine
 10
6.697302999999999
 20
128.92921
 30
0.0
 11
6.141127
 21
128.841109
 31
0.0
  0
LINE
  5
35A
330
1F
100
AcDbEntity
  8
LAYER_1
 62
     7
100
AcDbLine
 10
6.141127
 20
128.841109
 30
0.0
 11
5.584923999999999
 21
128.92921
 31
0.0
  0
LINE
  5
35B
330
1F
100
AcDbEntity
  8
LAYER_1
 62
     7
100
AcDbLine
 10
5.584923999999999
 20
128.92921
 30
0.0
 11
5.083104
 21
129.184909
 31
0.0
  0
LINE
  5
35C
330
1F
100
AcDbEntity
  8
LAYER_1
 62
     7
100
AcDbLine
 10
5.083104
 20
129.184909
 30
0.0
 11
4.684916999999999
 21
129.583111
 31
0.0
  0
LINE
  5
35D
330
1F
100
AcDbEntity
  8
LAYER_1
 62
     7
100
AcDbLine
 10
4.684916999999999
 20
129.583111
 30
0.0
 11
4.429223999999999
 21
130.08491
 31
0.0
  0
LINE
  5
35E
330
1F
100
AcDbEntity
  8
LAYER_1
 62
     7
100
AcDbLine
 10
4.429223999999999
 20
130.08491
 30
0.0
 11
4.341114
 21
130.641111
 31
0.0
  0
LINE
  5
35F
330
1F
100
AcDbEntity
  8
LAYER_1
 62
     7
100
AcDbLine
 10
4.341114
 20
130.641111
 30
0.0
 11
4.429223999999999
 21
131.197309
 31
0.0
  0
LINE
  5
360
330
1F
100
AcDbEntity
  8
LAYER_1
 62
     7
100
AcDbLine
 10
4.429223999999999
 20
216.69731
 30
0.0
 11
4.684916999999999
 21
217.19911
 31
0.0
  0
LINE
  5
361
330
1F
100
AcDbEntity
  8
LAYER_1
 62
     7
100
AcDbLine
 10
4.684916999999999
 20
217.19911
 30
0.0
 11
5.083104
 21
217.597311
 31
0.0
  0
LINE
  5
362
330
1F
100
AcDbEntity
  8
LAYER_1
 62
     7
100
AcDbLine
 10
5.083104
 20
217.597311
 30
0.0
 11
5.584923999999999
 21
217.85301
 31
0.0
  0
LINE
  5
363
330
1F
100
AcDbEntity
  8
LAYER_1
 62
     7
100
AcDbLine
 10
5.584923999999999
 20
217.85301
 30
0.0
 11
6.141127
 21
217.941111
 31
0.0
  0
LINE
  5
364
330
1F
100
AcDbEntity
  8
LAYER_1
 62
     7
100
AcDbLine
 10
6.141127
 20
217.941111
 30
0.0
 11
6.697302999999999
 21
217.85301
 31
0.0
  0
LINE
  5
365
330
1F
100
AcDbEntity
  8
LAYER_1
 62
     7
100
AcDbLine
 10
6.697302999999999
 20
217.85301
 30
0.0
 11
7.199122
 21
217.597311
 31
0.0
  0
LINE
  5
366
330
1F
100
AcDbEntity
  8
LAYER_1
 62
     7
100
AcDbLine
 10
7.199122
 20
217.597311
 30
0.0
 11
7.597309
 21
217.19911
 31
0.0
  0
LINE
  5
367
330
1F
100
AcDbEntity
  8
LAYER_1
 62
     7
100
AcDbLine
 10
7.597309
 20
217.19911
 30
0.0
 11
7.853003
 21
216.69731
 31
0.0
  0
LINE
  5
368
330
1F
100
AcDbEntity
  8
LAYER_1
 62
     7
100
AcDbLine
 10
7.853003
 20
216.69731
 30
0.0
 11
7.941111999999999
 21
216.141109
 31
0.0
  0
LINE
  5
369
330
1F
100
AcDbEntity
  8
LAYER_1
 62
     7
100
AcDbLine
 10
7.941111999999999
 20
216.141109
 30
0.0
 11
7.853003
 21
215.58491
 31
0.0
  0
LINE
  5
36A
330
1F
100
AcDbEntity
  8
LAYER_1
 62
     7
100
AcDbLine
 10
7.853003
 20
215.58491
 30
0.0
 11
7.597309
 21
215.08311
 31
0.0
  0
LINE
  5
36B
330
1F
100
AcDbEntity
  8
LAYER_1
 62
     7
100
AcDbLine
 10
7.597309
 20
215.08311
 30
0.0
 11
7.199122
 21
214.68491
 31
0.0
  0
LINE
  5
36C
330
1F
100
AcDbEntity
  8
LAYER_1
 62
     7
100
AcDbLine
 10
7.199122
 20
214.68491
 30
0.0
 11
6.697302999999999
 21
214.42921
 31
0.0
  0
LINE
  5
36D
330
1F
100
AcDbEntity
  8
LAYER_1
 62
     7
100
AcDbLine
 10
6.697302999999999
 20
214.42921
 30
0.0
 11
6.141127
 21
214.34111
 31
0.0
  0
LINE
  5
36E
330
1F
100
AcDbEntity
  8
LAYER_1
 62
     7
100
AcDbLine
 10
6.141127
 20
214.34111
 30
0.0
 11
5.584923999999999
 21
214.42921
 31
0.0
  0
LINE
  5
36F
330
1F
100
AcDbEntity
  8
LAYER_1
 62
     7
100
AcDbLine
 10
5.584923999999999
 20
214.42921
 30
0.0
 11
5.083104
 21
214.68491
 31
0.0
  0
LINE
  5
370
330
1F
100
AcDbEntity
  8
LAYER_1
 62
     7
100
AcDbLine
 10
5.083104
 20
214.68491
 30
0.0
 11
4.684916999999999
 21
215.08311
 31
0.0
  0
LINE
  5
371
330
1F
100
AcDbEntity
  8
LAYER_1
 62
     7
100
AcDbLine
 10
4.684916999999999
 20
215.08311
 30
0.0
 11
4.429223999999999
 21
215.58491
 31
0.0
  0
LINE
  5
372
330
1F
100
AcDbEntity
  8
LAYER_1
 62
     7
100
AcDbLine
 10
4.429223999999999
 20
215.58491
 30
0.0
 11
4.341114
 21
216.141109
 31
0.0
  0
LINE
  5
373
330
1F
100
AcDbEntity
  8
LAYER_1
 62
     7
100
AcDbLine
 10
4.341114
 20
216.141109
 30
0.0
 11
4.429223999999999
 21
216.69731
 31
0.0
  0
LINE
  5
374
330
1F
100
AcDbEntity
  8
LAYER_1
 62
     7
100
AcDbLine
 10
4.429223999999999
 20
245.19731
 30
0.0
 11
4.684916999999999
 21
245.699109
 31
0.0
  0
LINE
  5
375
330
1F
100
AcDbEntity
  8
LAYER_1
 62
     7
100
AcDbLine
 10
4.684916999999999
 20
245.699109
 30
0.0
 11
5.083104
 21
246.097311
 31
0.0
  0
LINE
  5
376
330
1F
100
AcDbEntity
  8
LAYER_1
 62
     7
100
AcDbLine
 10
5.083104
 20
246.097311
 30
0.0
 11
5.584923999999999
 21
246.35301
 31
0.0
  0
LINE
  5
377
330
1F
100
AcDbEntity
  8
LAYER_1
 62
     7
100
AcDbLine
 10
5.584923999999999
 20
246.35301
 30
0.0
 11
6.141127
 21
246.441111
 31
0.0
  0
LINE
  5
378
330
1F
100
AcDbEntity
  8
LAYER_1
 62
     7
100
AcDbLine
 10
6.141127
 20
246.441111
 30
0.0
 11
6.697302999999999
 21
246.35301
 31
0.0
  0
LINE
  5
379
330
1F
100
AcDbEntity
  8
LAYER_1
 62
     7
100
AcDbLine
 10
6.697302999999999
 20
246.35301
 30
0.0
 11
7.199122
 21
246.097311
 31
0.0
  0
LINE
  5
37A
330
1F
100
AcDbEntity
  8
LAYER_1
 62
     7
100
AcDbLine
 10
7.199122
 20
246.097311
 30
0.0
 11
7.597309
 21
245.699109
 31
0.0
  0
LINE
  5
37B
330
1F
100
AcDbEntity
  8
LAYER_1
 62
     7
100
AcDbLine
 10
7.597309
 20
245.699109
 30
0.0
 11
7.853003
 21
245.19731
 31
0.0
  0
LINE
  5
37C
330
1F
100
AcDbEntity
  8
LAYER_1
 62
     7
100
AcDbLine
 10
7.853003
 20
245.19731
 30
0.0
 11
7.941111999999999
 21
244.641109
 31
0.0
  0
LINE
  5
37D
330
1F
100
AcDbEntity
  8
LAYER_1
 62
     7
100
AcDbLine
 10
7.941111999999999
 20
244.641109
 30
0.0
 11
7.853003
 21
244.084911
 31
0.0
  0
LINE
  5
37E
330
1F
100
AcDbEntity
  8
LAYER_1
 62
     7
100
AcDbLine
 10
7.853003
 20
244.084911
 30
0.0
 11
7.597309
 21
243.583109
 31
0.0
  0
LINE
  5
37F
330
1F
100
AcDbEntity
  8
LAYER_1
 62
     7
100
AcDbLine
 10
7.597309
 20
243.583109
 30
0.0
 11
7.199122
 21
243.18491
 31
0.0
  0
LINE
  5
380
330
1F
100
AcDbEntity
  8
LAYER_1
 62
     7
100
AcDbLine
 10
7.199122
 20
243.18491
 30
0.0
 11
6.697302999999999
 21
242.929211
 31
0.0
  0
LINE
  5
381
330
1F
100
AcDbEntity
  8
LAYER_1
 62
     7
100
AcDbLine
 10
6.697302999999999
 20
242.929211
 30
0.0
 11
6.141127
 21
242.84111
 31
0.0
  0
LINE
  5
382
330
1F
100
AcDbEntity
  8
LAYER_1
 62
     7
100
AcDbLine
 10
6.141127
 20
242.84111
 30
0.0
 11
5.584923999999999
 21
242.929211
 31
0.0
  0
LINE
  5
383
330
1F
100
AcDbEntity
  8
LAYER_1
 62
     7
100
AcDbLine
 10
5.584923999999999
 20
242.929211
 30
0.0
 11
5.083104
 21
243.18491
 31
0.0
  0
LINE
  5
384
330
1F
100
AcDbEntity
  8
LAYER_1
 62
     7
100
AcDbLine
 10
5.083104
 20
243.18491
 30
0.0
 11
4.684916999999999
 21
243.583109
 31
0.0
  0
LINE
  5
385
330
1F
100
AcDbEntity
  8
LAYER_1
 62
     7
100
AcDbLine
 10
4.684916999999999
 20
243.583109
 30
0.0
 11
4.429223999999999
 21
244.084911
 31
0.0
  0
LINE
  5
386
330
1F
100
AcDbEntity
  8
LAYER_1
 62
     7
100
AcDbLine
 10
4.429223999999999
 20
244.084911
 30
0.0
 11
4.341114
 21
244.641109
 31
0.0
  0
LINE
  5
387
330
1F
100
AcDbEntity
  8
LAYER_1
 62
     7
100
AcDbLine
 10
4.341114
 20
244.641109
 30
0.0
 11
4.429223999999999
 21
245.19731
 31
0.0
  0
ENDSEC
  0
SECTION
  2
OBJECTS
  0
DICTIONARY
  5
C
330
0
100
AcDbDictionary
281
     1
  3
ACAD_CIP_PREVIOUS_PRODUCT_INFO
350
10056
  3
ACAD_COLOR
350
10035
  3
ACAD_DETAILVIEWSTYLE
350
1004E
  3
ACAD_GROUP
350
D
  3
ACAD_LAYOUT
350
10050
  3
ACAD_MATERIAL
350
10003
  3
ACAD_MLEADERSTYLE
350
1004A
  3
ACAD_MLINESTYLE
350
17
  3
ACAD_PLOTSETTINGS
350
10051
  3
ACAD_PLOTSTYLENAME
350
10001
  3
ACAD_SCALELIST
350
10038
  3
ACAD_SECTIONVIEWSTYLE
350
1004C
  3
ACAD_TABLESTYLE
350
10036
  3
ACAD_VISUALSTYLE
350
1001C
  3
ACDB_RECOMPOSE_DATA
350
1006C
  3
AcDbVariableDictionary
350
1005B
  0
DICTIONARY
  5
10057
330
50
100
AcDbDictionary
280
     1
281
     1
  3
ADSK_XREC_LAYER_RECONCILED
360
10058
  0
DICTIONARY
  5
10059
330
51
100
AcDbDictionary
280
     1
281
     1
  3
ADSK_XREC_LAYER_RECONCILED
360
1005A
  0
XRECORD
  5
10056
102
{ACAD_REACTORS
330
C
102
}
330
C
100
AcDbXrecord
280
     1
300
ACD
300
2014
300
ACD_F_S
  0
DICTIONARY
  5
10035
102
{ACAD_REACTORS
330
C
102
}
330
C
100
AcDbDictionary
281
     1
  0
DICTIONARY
  5
1004E
102
{ACAD_REACTORS
330
C
102
}
330
C
100
AcDbDictionary
281
     1
  3
Metric50
350
1004F
  0
DICTIONARY
  5
D
330
C
100
AcDbDictionary
281
     1
  0
DICTIONARY
  5
10050
102
{ACAD_REACTORS
330
C
102
}
330
C
100
AcDbDictionary
281
     1
  3
Layout1
350
10053
  3
Model
350
10052
  0
DICTIONARY
  5
10003
102
{ACAD_REACTORS
330
C
102
}
330
C
100
AcDbDictionary
281
     1
  3
ByBlock
350
1000C
  3
ByLayer
350
10004
  3
Global
350
10014
  0
DICTIONARY
  5
1004A
102
{ACAD_REACTORS
330
C
102
}
330
C
100
AcDbDictionary
281
     1
  3
Standard
350
1004B
  0
DICTIONARY
  5
17
330
C
100
AcDbDictionary
281
     1
  0
DICTIONARY
  5
10051
102
{ACAD_REACTORS
330
C
102
}
330
C
100
AcDbDictionary
281
     1
  0
ACDBDICTIONARYWDFLT
  5
10001
102
{ACAD_REACTORS
330
C
102
}
330
C
100
AcDbDictionary
281
     1
  3
Normal
350
10002
100
AcDbDictionaryWithDefault
340
10002
  0
DICTIONARY
  5
10038
102
{ACAD_REACTORS
330
C
102
}
330
C
100
AcDbDictionary
281
     1
  3
A0
350
10039
  3
A1
350
1003A
  3
A2
350
1003B
  3
A3
350
1003C
  3
A4
350
1003D
  3
A5
350
1003E
  3
A6
350
1003F
  3
A7
350
10040
  3
A8
350
10041
  3
A9
350
10042
  3
B0
350
10043
  3
B1
350
10044
  3
B2
350
10045
  3
B3
350
10046
  3
B4
350
10047
  3
B5
350
10048
  3
B6
350
10049
  0
DICTIONARY
  5
1004C
102
{ACAD_REACTORS
330
C
102
}
330
C
100
AcDbDictionary
281
     1
  3
Metric50
350
1004D
  0
DICTIONARY
  5
10036
102
{ACAD_REACTORS
330
C
102
}
330
C
100
AcDbDictionary
281
     1
  3
Standard
350
10037
  0
DICTIONARY
  5
1001C
102
{ACAD_REACTORS
330
C
102
}
330
C
100
AcDbDictionary
281
     1
  3
2dWireframe
350
10022
  3
Basic
350
10021
  3
Brighten
350
10028
  3
ColorChange
350
1002C
  3
Conceptual
350
10025
  3
Dim
350
10027
  3
EdgeColorOff
350
10034
  3
Facepattern
350
1002B
  3
Flat
350
1001D
  3
FlatWithEdges
350
1001E
  3
Gouraud
350
1001F
  3
GouraudWithEdges
350
10020
  3
Hidden
350
10024
  3
JitterOff
350
10032
  3
Linepattern
350
1002A
  3
OverhangOff
350
10033
  3
Realistic
350
10026
  3
Shaded
350
10031
  3
Shaded with edges
350
10030
  3
Shades of Gray
350
1002D
  3
Sketchy
350
1002E
  3
Thicken
350
10029
  3
Wireframe
350
10023
  3
X-Ray
350
1002F
  0
XRECORD
  5
1006C
102
{ACAD_REACTORS
330
C
102
}
330
C
100
AcDbXrecord
280
     1
 90
        1
330
10037
330
1004D
330
1004F
  0
DICTIONARY
  5
1005B
102
{ACAD_REACTORS
330
C
102
}
330
C
100
AcDbDictionary
281
     1
  3
CANNOSCALE
350
10061
  3
CMLEADERSTYLE
350
1005D
  3
CTABLESTYLE
350
1005C
  3
CVIEWDETAILSTYLE
350
1005E
  3
CVIEWSECTIONSTYLE
350
1005F
  3
LAYEREVAL
350
10063
  3
LAYERNOTIFY
350
10064
  3
LIGHTINGUNITS
350
10062
  3
MSLTSCALE
350
10060
  0
XRECORD
  5
10058
102
{ACAD_REACTORS
330
10057
102
}
330
10057
100
AcDbXrecord
280
     1
290
     1
  0
XRECORD
  5
1005A
102
{ACAD_REACTORS
330
10059
102
}
330
10059
100
AcDbXrecord
280
     1
290
     1
  0
ACDBDETAILVIEWSTYLE
  5
1004F
102
{ACAD_XDICTIONARY
360
1006A
102
}
102
{ACAD_REACTORS
330
1004E
102
}
330
1004E
100
AcDbModelDocViewStyle
 70
     0
  3
Metric50
290
     0
100
AcDbDetailViewStyle
 70
     0
 71
     0
 90
        3
 71
     1
340
11
 62
   256
 40
5.0
340
0
 62
   256
 40
5.0
300

 40
0.0
280
     1
 71
     2
340
16
 90
       25
 62
   256
 71
     3
340
11
 62
   256
 40
5.0
 90
        0
 40
15.0
 90
        1
300
%<\AcVar ViewDetailId>% (%<\AcVar ViewScale \f "%sn">%)
 71
     4
340
16
 90
       25
 62
   256
340
16
 90
       25
 62
   256
280
     0
  0
LAYOUT
  5
10053
102
{ACAD_REACTORS
330
10050
102
}
330
10050
100
AcDbPlotSettings
  1

  2
Canon LBP6020
  4

  6

 40
0.0
 41
0.0
 42
0.0
 43
0.0
 44
0.0
 45
0.0
 46
0.0
 47
0.0
 48
0.0
 49
0.0
140
0.0
141
0.0
142
1.0
143
1.0
 70
   688
 72
     0
 73
     0
 74
     5
  7

 75
    16
147
1.0
 76
     0
 77
     2
 78
   300
148
0.0
149
0.0
100
AcDbLayout
  1
Layout1
 70
     1
 71
     1
 10
0.0
 20
0.0
 11
12.0
 21
9.0
 12
0.0
 22
0.0
 32
0.0
 14
1.000000000000000E+20
 24
1.000000000000000E+20
 34
1.000000000000000E+20
 15
-1.000000000000000E+20
 25
-1.000000000000000E+20
 35
-1.000000000000000E+20
146
0.0
 13
0.0
 23
0.0
 33
0.0
 16
1.0
 26
0.0
 36
0.0
 17
0.0
 27
1.0
 37
0.0
 76
     0
330
1B
  0
LAYOUT
  5
10052
102
{ACAD_REACTORS
330
10050
102
}
330
10050
100
AcDbPlotSettings
  1

  2
Canon LBP6020
  4

  6

 40
0.0
 41
0.0
 42
0.0
 43
0.0
 44
0.0
 45
0.0
 46
0.0
 47
0.0
 48
0.0
 49
0.0
140
0.0
141
0.0
142
1.0
143
1.0
 70
  1712
 72
     0
 73
     0
 74
     0
  7

 75
     0
147
1.0
 76
     0
 77
     2
 78
   300
148
0.0
149
0.0
100
AcDbLayout
  1
Model
 70
     1
 71
     0
 10
0.0
 20
0.0
 11
12.0
 21
9.0
 12
0.0
 22
0.0
 32
0.0
 14
0.0
 24
0.0
 34
0.0
 15
0.0
 25
0.0
 35
0.0
146
0.0
 13
0.0
 23
0.0
 33
0.0
 16
1.0
 26
0.0
 36
0.0
 17
0.0
 27
1.0
 37
0.0
 76
     0
330
1F
331
2E
  0
MATERIAL
  5
1000C
102
{ACAD_XDICTIONARY
360
1000D
102
}
102
{ACAD_REACTORS
330
10003
102
}
330
10003
100
AcDbMaterial
  1
ByBlock
 72
     0
 43
0.0208333333333333
 43
0.0
 43
0.0
 43
0.0
 43
0.0
 43
0.0208333333333333
 43
0.0
 43
0.0
 43
0.0
 43
0.0
 43
1.0
 43
0.0
 43
0.0
 43
0.0
 43
0.0
 43
1.0
 77
     0
 47
0.0208333333333333
 47
0.0
 47
0.0
 47
0.0
 47
0.0
 47
0.0208333333333333
 47
0.0
 47
0.0
 47
0.0
 47
0.0
 47
1.0
 47
0.0
 47
0.0
 47
0.0
 47
0.0
 47
1.0
171
     0
 49
0.0208333333333333
 49
0.0
 49
0.0
 49
0.0
 49
0.0
 49
0.0208333333333333
 49
0.0
 49
0.0
 49
0.0
 49
0.0
 49
1.0
 49
0.0
 49
0.0
 49
0.0
 49
0.0
 49
1.0
175
     0
142
0.0208333333333333
142
0.0
142
0.0
142
0.0
142
0.0
142
0.0208333333333333
142
0.0
142
0.0
142
0.0
142
0.0
142
1.0
142
0.0
142
0.0
142
0.0
142
0.0
142
1.0
179
     0
144
0.0208333333333333
144
0.0
144
0.0
144
0.0
144
0.0
144
0.0208333333333333
144
0.0
144
0.0
144
0.0
144
0.0
144
1.0
144
0.0
144
0.0
144
0.0
144
0.0
144
1.0
147
0.0208333333333333
147
0.0
147
0.0
147
0.0
147
0.0
147
0.0208333333333333
147
0.0
147
0.0
147
0.0
147
0.0
147
1.0
147
0.0
147
0.0
147
0.0
147
0.0
147
1.0
  0
MATERIAL
  5
10004
102
{ACAD_XDICTIONARY
360
10005
102
}
102
{ACAD_REACTORS
330
10003
102
}
330
10003
100
AcDbMaterial
  1
ByLayer
 72
     0
 43
0.0208333333333333
 43
0.0
 43
0.0
 43
0.0
 43
0.0
 43
0.0208333333333333
 43
0.0
 43
0.0
 43
0.0
 43
0.0
 43
1.0
 43
0.0
 43
0.0
 43
0.0
 43
0.0
 43
1.0
 77
     0
 47
0.0208333333333333
 47
0.0
 47
0.0
 47
0.0
 47
0.0
 47
0.0208333333333333
 47
0.0
 47
0.0
 47
0.0
 47
0.0
 47
1.0
 47
0.0
 47
0.0
 47
0.0
 47
0.0
 47
1.0
171
     0
 49
0.0208333333333333
 49
0.0
 49
0.0
 49
0.0
 49
0.0
 49
0.0208333333333333
 49
0.0
 49
0.0
 49
0.0
 49
0.0
 49
1.0
 49
0.0
 49
0.0
 49
0.0
 49
0.0
 49
1.0
175
     0
142
0.0208333333333333
142
0.0
142
0.0
142
0.0
142
0.0
142
0.0208333333333333
142
0.0
142
0.0
142
0.0
142
0.0
142
1.0
142
0.0
142
0.0
142
0.0
142
0.0
142
1.0
179
     0
144
0.0208333333333333
144
0.0
144
0.0
144
0.0
144
0.0
144
0.0208333333333333
144
0.0
144
0.0
144
0.0
144
0.0
144
1.0
144
0.0
144
0.0
144
0.0
144
0.0
144
1.0
147
0.0208333333333333
147
0.0
147
0.0
147
0.0
147
0.0
147
0.0208333333333333
147
0.0
147
0.0
147
0.0
147
0.0
147
1.0
147
0.0
147
0.0
147
0.0
147
0.0
147
1.0
  0
MATERIAL
  5
10014
102
{ACAD_XDICTIONARY
360
10015
102
}
102
{ACAD_REACTORS
330
10003
102
}
330
10003
100
AcDbMaterial
  1
Global
 72
     0
 43
0.0208333333333333
 43
0.0
 43
0.0
 43
0.0
 43
0.0
 43
0.0208333333333333
 43
0.0
 43
0.0
 43
0.0
 43
0.0
 43
1.0
 43
0.0
 43
0.0
 43
0.0
 43
0.0
 43
1.0
 77
     0
 47
0.0208333333333333
 47
0.0
 47
0.0
 47
0.0
 47
0.0
 47
0.0208333333333333
 47
0.0
 47
0.0
 47
0.0
 47
0.0
 47
1.0
 47
0.0
 47
0.0
 47
0.0
 47
0.0
 47
1.0
171
     0
 49
0.0208333333333333
 49
0.0
 49
0.0
 49
0.0
 49
0.0
 49
0.0208333333333333
 49
0.0
 49
0.0
 49
0.0
 49
0.0
 49
1.0
 49
0.0
 49
0.0
 49
0.0
 49
0.0
 49
1.0
175
     0
142
0.0208333333333333
142
0.0
142
0.0
142
0.0
142
0.0
142
0.0208333333333333
142
0.0
142
0.0
142
0.0
142
0.0
142
1.0
142
0.0
142
0.0
142
0.0
142
0.0
142
1.0
179
     0
144
0.0208333333333333
144
0.0
144
0.0
144
0.0
144
0.0
144
0.0208333333333333
144
0.0
144
0.0
144
0.0
144
0.0
144
1.0
144
0.0
144
0.0
144
0.0
144
0.0
144
1.0
147
0.0208333333333333
147
0.0
147
0.0
147
0.0
147
0.0
147
0.0208333333333333
147
0.0
147
0.0
147
0.0
147
0.0
147
1.0
147
0.0
147
0.0
147
0.0
147
0.0
147
1.0
  0
MLEADERSTYLE
  5
1004B
102
{ACAD_REACTORS
330
1004A
102
}
330
1004A
100
AcDbMLeaderStyle
179
     2
170
     2
171
     1
172
     0
 90
        2
 40
0.0
 41
0.0
173
     1
 91
-1056964608
340
14
 92
       -2
290
     1
 42
2.0
291
     1
 43
0.36
  3
Standard
 44
4.0
300

342
11
174
     1
178
     6
175
     1
176
     0
 93
-1056964608
 45
4.0
292
     0
297
     0
 46
4.0
 94
-1056964608
 47
1.0
 49
1.0
140
1.0
293
     1
141
0.0
294
     1
177
     0
142
1.0
295
     0
296
     0
143
0.125
271
     0
272
     9
273
     9
298
     0
  0
ACDBPLACEHOLDER
  5
10002
102
{ACAD_REACTORS
330
10001
102
}
330
10001
  0
SCALE
  5
10039
102
{ACAD_REACTORS
330
10038
102
}
330
10038
100
AcDbScale
 70
     0
300
1:1
140
1.0
141
1.0
290
     1
  0
SCALE
  5
1003A
102
{ACAD_REACTORS
330
10038
102
}
330
10038
100
AcDbScale
 70
     0
300
1:2
140
1.0
141
2.0
290
     0
  0
SCALE
  5
1003B
102
{ACAD_REACTORS
330
10038
102
}
330
10038
100
AcDbScale
 70
     0
300
1:4
140
1.0
141
4.0
290
     0
  0
SCALE
  5
1003C
102
{ACAD_REACTORS
330
10038
102
}
330
10038
100
AcDbScale
 70
     0
300
1:5
140
1.0
141
5.0
290
     0
  0
SCALE
  5
1003D
102
{ACAD_REACTORS
330
10038
102
}
330
10038
100
AcDbScale
 70
     0
300
1:8
140
1.0
141
8.0
290
     0
  0
SCALE
  5
1003E
102
{ACAD_REACTORS
330
10038
102
}
330
10038
100
AcDbScale
 70
     0
300
1:10
140
1.0
141
10.0
290
     0
  0
SCALE
  5
1003F
102
{ACAD_REACTORS
330
10038
102
}
330
10038
100
AcDbScale
 70
     0
300
1:16
140
1.0
141
16.0
290
     0
  0
SCALE
  5
10040
102
{ACAD_REACTORS
330
10038
102
}
330
10038
100
AcDbScale
 70
     0
300
1:20
140
1.0
141
20.0
290
     0
  0
SCALE
  5
10041
102
{ACAD_REACTORS
330
10038
102
}
330
10038
100
AcDbScale
 70
     0
300
1:30
140
1.0
141
30.0
290
     0
  0
SCALE
  5
10042
102
{ACAD_REACTORS
330
10038
102
}
330
10038
100
AcDbScale
 70
     0
300
1:40
140
1.0
141
40.0
290
     0
  0
SCALE
  5
10043
102
{ACAD_REACTORS
330
10038
102
}
330
10038
100
AcDbScale
 70
     0
300
1:50
140
1.0
141
50.0
290
     0
  0
SCALE
  5
10044
102
{ACAD_REACTORS
330
10038
102
}
330
10038
100
AcDbScale
 70
     0
300
1:100
140
1.0
141
100.0
290
     0
  0
SCALE
  5
10045
102
{ACAD_REACTORS
330
10038
102
}
330
10038
100
AcDbScale
 70
     0
300
2:1
140
2.0
141
1.0
290
     0
  0
SCALE
  5
10046
102
{ACAD_REACTORS
330
10038
102
}
330
10038
100
AcDbScale
 70
     0
300
4:1
140
4.0
141
1.0
290
     0
  0
SCALE
  5
10047
102
{ACAD_REACTORS
330
10038
102
}
330
10038
100
AcDbScale
 70
     0
300
8:1
140
8.0
141
1.0
290
     0
  0
SCALE
  5
10048
102
{ACAD_REACTORS
330
10038
102
}
330
10038
100
AcDbScale
 70
     0
300
10:1
140
10.0
141
1.0
290
     0
  0
SCALE
  5
10049
102
{ACAD_REACTORS
330
10038
102
}
330
10038
100
AcDbScale
 70
     0
300
100:1
140
100.0
141
1.0
290
     0
  0
ACDBSECTIONVIEWSTYLE
  5
1004D
102
{ACAD_XDICTIONARY
360
10068
102
}
102
{ACAD_REACTORS
330
1004C
102
}
330
1004C
100
AcDbModelDocViewStyle
 70
     0
  3
Metric50
290
     0
100
AcDbSectionViewStyle
 70
     0
 71
     0
 90
      102
 71
     1
340
11
 62
   256
 40
5.0
340
0
340
0
 62
   256
 40
5.0
300
I, O, Q, S, X, Z
 40
10.0
 90
        0
 40
2.5
 90
        0
 71
     2
340
16
 90
       25
 62
   256
340
16
 90
       50
 62
   256
 40
5.0
 40
2.5
 40
5.0
 71
     3
340
11
 62
   256
 40
5.0
 90
        0
 40
15.0
 90
        1
300
%<\AcVar ViewSectionStartId>%-%<\AcVar ViewSectionEndId>% (%<\AcVar ViewScale \f "%sn">%)
 71
     4
 62
   256
 62
   257
300
ANSI31
 40
1.0
 90
        0
290
     0
290
     0
 90
        6
 40
0.0
 40
1.570796326794896
 40
0.2617993877991494
 40
1.308996938995747
 40
-0.2617993877991494
 40
1.832595714594046
  0
TABLESTYLE
  5
10037
102
{ACAD_XDICTIONARY
360
10066
102
}
102
{ACAD_REACTORS
330
10036
102
}
330
10036
100
AcDbTableStyle
280
     0
  3
Standard
 70
     0
 71
     0
 40
1.5
 41
1.5
280
     0
281
     0
  7
STANDARD
140
4.5
170
     2
 62
     0
 63
     7
283
     0
 90
      512
 91
        0
  1

274
    -2
284
     1
 64
     0
275
    -2
285
     1
 65
     0
276
    -2
286
     1
 66
     0
277
    -2
287
     1
 67
     0
278
    -2
288
     1
 68
     0
279
    -2
289
     1
 69
     0
  7
STANDARD
140
6.0
170
     5
 62
     0
 63
     7
283
     0
 90
      512
 91
        0
  1

274
    -2
284
     1
 64
     0
275
    -2
285
     1
 65
     0
276
    -2
286
     1
 66
     0
277
    -2
287
     1
 67
     0
278
    -2
288
     1
 68
     0
279
    -2
289
     1
 69
     0
  7
STANDARD
140
4.5
170
     5
 62
     0
 63
     7
283
     0
 90
      512
 91
        0
  1

274
    -2
284
     1
 64
     0
275
    -2
285
     1
 65
     0
276
    -2
286
     1
 66
     0
277
    -2
287
     1
 67
     0
278
    -2
288
     1
 68
     0
279
    -2
289
     1
 69
     0
  0
VISUALSTYLE
  5
10022
102
{ACAD_REACTORS
330
1001C
102
}
330
1001C
100
AcDbVisualStyle
  2
2dWireframe
 70
     4
177
     3
291
     0
 70
    58
 90
        0
176
     1
 90
        2
176
     1
 90
        0
176
     1
 90
        0
176
     1
 40
0.6
176
     1
 40
30.0
176
     1
 62
     7
420
 16777215
176
     1
 90
        1
176
     1
 90
        4
176
     1
 62
     7
176
     1
 62
   257
176
     1
 90
        1
176
     1
 90
        1
176
     1
 40
1.0
176
     1
 90
        0
176
     1
 62
   257
176
     1
 40
1.0
176
     1
 90
        1
176
     1
 90
        6
176
     1
 90
        2
176
     1
 62
     7
176
     1
 90
        5
176
     1
 90
        0
176
     1
 90
        0
176
     1
290
     0
176
     1
 90
        1
176
     1
 40
0.0
176
     1
 90
        0
176
     1
290
     1
176
     1
290
     1
176
     1
290
     0
176
     1
290
     0
176
     1
290
     0
176
     1
290
     0
176
     1
290
     0
176
     1
290
     0
176
     1
290
     0
176
     1
 90
       50
176
     1
 40
0.0
176
     1
 40
1.0
176
     1
 90
        0
176
     1
 62
    18
420
        0
176
     1
 90
       50
176
     1
 90
        3
176
     1
 62
     5
420
      255
176
     1
290
     0
176
     1
 90
       50
176
     1
 90
       50
176
     1
 90
       50
176
     1
290
     0
176
     1
 90
       50
176
     1
 62
   256
176
     0
 40
1.0
176
     0
 90
        2
176
     1
  1
strokes_ogs.tif
176
     1
290
     0
176
     1
 40
1.0
176
     1
 40
1.0
176
     1
  0
VISUALSTYLE
  5
10021
102
{ACAD_REACTORS
330
1001C
102
}
330
1001C
100
AcDbVisualStyle
  2
Basic
 70
     7
177
     3
291
     1
 70
    58
 90
        1
176
     1
 90
        0
176
     1
 90
        1
176
     1
 90
        0
176
     1
 40
0.6
176
     1
 40
30.0
176
     1
 62
     7
420
 16777215
176
     1
 90
        0
176
     1
 90
        4
176
     1
 62
     7
176
     1
 62
   257
176
     1
 90
        1
176
     1
 90
        1
176
     1
 40
1.0
176
     1
 90
        8
176
     1
 62
     7
176
     1
 40
1.0
176
     1
 90
        1
176
     1
 90
        6
176
     1
 90
        2
176
     1
 62
     7
176
     1
 90
        5
176
     1
 90
        0
176
     1
 90
        0
176
     1
290
     0
176
     1
 90
        1
176
     1
 40
0.0
176
     1
 90
        0
176
     1
290
     0
176
     1
290
     1
176
     1
290
     1
176
     1
290
     0
176
     1
290
     0
176
     1
290
     0
176
     1
290
     0
176
     1
290
     0
176
     1
290
     0
176
     1
 90
       50
176
     1
 40
0.0
176
     1
 40
1.0
176
     1
 90
        0
176
     1
 62
    18
420
        0
176
     1
 90
       50
176
     1
 90
        3
176
     1
 62
     5
420
      255
176
     1
290
     0
176
     1
 90
       50
176
     1
 90
       50
176
     1
 90
       50
176
     1
290
     0
176
     1
 90
       50
176
     1
 62
   256
176
     0
 40
1.0
176
     0
 90
        2
176
     1
  1
strokes_ogs.tif
176
     1
290
     0
176
     1
 40
1.0
176
     1
 40
1.0
176
     1
  0
VISUALSTYLE
  5
10028
102
{ACAD_REACTORS
330
1001C
102
}
330
1001C
100
AcDbVisualStyle
  2
Brighten
 70
    12
177
     3
291
     1
 70
    58
 90
        2
176
     1
 90
        2
176
     1
 90
        0
176
     1
 90
        0
176
     1
 40
0.6
176
     1
 40
30.0
176
     1
 62
     7
420
 16777215
176
     1
 90
        1
176
     1
 90
        4
176
     1
 62
     7
176
     1
 62
   257
176
     1
 90
        1
176
     1
 90
        1
176
     1
 40
1.0
176
     1
 90
        8
176
     1
 62
     7
176
     1
 40
1.0
176
     1
 90
        1
176
     1
 90
        6
176
     1
 90
        2
176
     1
 62
     7
176
     1
 90
        5
176
     1
 90
        0
176
     1
 90
        0
176
     1
290
     0
176
     1
 90
        1
176
     1
 40
50.0
176
     1
 90
        0
176
     1
290
     0
176
     1
290
     1
176
     1
290
     1
176
     1
290
     0
176
     1
290
     0
176
     1
290
     0
176
     1
290
     0
176
     1
290
     0
176
     1
290
     0
176
     1
 90
       50
176
     1
 40
0.0
176
     1
 40
1.0
176
     1
 90
        0
176
     1
 62
    18
420
        0
176
     1
 90
       50
176
     1
 90
        3
176
     1
 62
     5
420
      255
176
     1
290
     0
176
     1
 90
       50
176
     1
 90
       50
176
     1
 90
       50
176
     1
290
     0
176
     1
 90
       50
176
     1
 62
   256
176
     0
 40
1.0
176
     0
 90
        2
176
     1
  1
strokes_ogs.tif
176
     1
290
     0
176
     1
 40
1.0
176
     1
 40
1.0
176
     1
  0
VISUALSTYLE
  5
1002C
102
{ACAD_REACTORS
330
1001C
102
}
330
1001C
100
AcDbVisualStyle
  2
ColorChange
 70
    16
177
     3
291
     1
 70
    58
 90
        2
176
     1
 90
        2
176
     1
 90
        3
176
     1
 90
        0
176
     1
 40
0.6
176
     1
 40
30.0
176
     1
 62
     8
420
  8421504
176
     1
 90
        1
176
     1
 90
        4
176
     1
 62
     7
176
     1
 62
   257
176
     1
 90
        1
176
     1
 90
        1
176
     1
 40
1.0
176
     1
 90
        8
176
     1
 62
     8
420
  8421504
176
     1
 40
1.0
176
     1
 90
        1
176
     1
 90
        6
176
     1
 90
        2
176
     1
 62
     7
176
     1
 90
        5
176
     1
 90
        0
176
     1
 90
        0
176
     1
290
     0
176
     1
 90
        1
176
     1
 40
0.0
176
     1
 90
        0
176
     1
290
     0
176
     1
290
     1
176
     1
290
     1
176
     1
290
     0
176
     1
290
     0
176
     1
290
     0
176
     1
290
     0
176
     1
290
     0
176
     1
290
     0
176
     1
 90
       50
176
     1
 40
0.0
176
     1
 40
1.0
176
     1
 90
        0
176
     1
 62
    18
420
        0
176
     1
 90
       50
176
     1
 90
        3
176
     1
 62
     5
420
      255
176
     1
290
     0
176
     1
 90
       50
176
     1
 90
       50
176
     1
 90
       50
176
     1
290
     0
176
     1
 90
       50
176
     1
 62
   256
176
     0
 40
1.0
176
     0
 90
        2
176
     1
  1
strokes_ogs.tif
176
     1
290
     0
176
     1
 40
1.0
176
     1
 40
1.0
176
     1
  0
VISUALSTYLE
  5
10025
102
{ACAD_REACTORS
330
1001C
102
}
330
1001C
100
AcDbVisualStyle
  2
Conceptual
 70
     9
177
     3
291
     0
 70
    58
 90
        3
176
     1
 90
        2
176
     1
 90
        0
176
     1
 90
        0
176
     1
 40
0.6
176
     1
 40
30.0
176
     1
 62
     7
420
 16777215
176
     1
 90
        2
176
     1
 90
        2
176
     1
 62
     7
176
     1
 62
   257
176
     1
 90
        1
176
     1
 90
        1
176
     1
 40
179.0
176
     1
 90
        8
176
     1
 62
     7
176
     1
 40
1.0
176
     1
 90
        1
176
     1
 90
        6
176
     1
 90
        2
176
     1
 62
     7
176
     1
 90
        3
176
     1
 90
        0
176
     1
 90
        0
176
     1
290
     0
176
     1
 90
        1
176
     1
 40
0.0
176
     1
 90
        0
176
     1
290
     0
176
     1
290
     1
176
     1
290
     1
176
     1
290
     0
176
     1
290
     0
176
     1
290
     0
176
     1
290
     0
176
     1
290
     0
176
     1
290
     0
176
     1
 90
       50
176
     1
 40
0.0
176
     1
 40
1.0
176
     1
 90
        0
176
     1
 62
    18
420
        0
176
     1
 90
       50
176
     1
 90
        3
176
     1
 62
     5
420
      255
176
     1
290
     0
176
     1
 90
       50
176
     1
 90
       50
176
     1
 90
       50
176
     1
290
     0
176
     1
 90
       50
176
     1
 62
   256
176
     0
 40
1.0
176
     0
 90
        2
176
     1
  1
strokes_ogs.tif
176
     1
290
     0
176
     1
 40
1.0
176
     1
 40
1.0
176
     1
  0
VISUALSTYLE
  5
10027
102
{ACAD_REACTORS
330
1001C
102
}
330
1001C
100
AcDbVisualStyle
  2
Dim
 70
    11
177
     3
291
     1
 70
    58
 90
        2
176
     1
 90
        2
176
     1
 90
        0
176
     1
 90
        0
176
     1
 40
0.6
176
     1
 40
30.0
176
     1
 62
     7
420
 16777215
176
     1
 90
        1
176
     1
 90
        4
176
     1
 62
     7
176
     1
 62
   257
176
     1
 90
        1
176
     1
 90
        1
176
     1
 40
1.0
176
     1
 90
        8
176
     1
 62
     7
176
     1
 40
1.0
176
     1
 90
        1
176
     1
 90
        6
176
     1
 90
        2
176
     1
 62
     7
176
     1
 90
        5
176
     1
 90
        0
176
     1
 90
        0
176
     1
290
     0
176
     1
 90
        1
176
     1
 40
-50.0
176
     1
 90
        0
176
     1
290
     0
176
     1
290
     1
176
     1
290
     1
176
     1
290
     0
176
     1
290
     0
176
     1
290
     0
176
     1
290
     0
176
     1
290
     0
176
     1
290
     0
176
     1
 90
       50
176
     1
 40
0.0
176
     1
 40
1.0
176
     1
 90
        0
176
     1
 62
    18
420
        0
176
     1
 90
       50
176
     1
 90
        3
176
     1
 62
     5
420
      255
176
     1
290
     0
176
     1
 90
       50
176
     1
 90
       50
176
     1
 90
       50
176
     1
290
     0
176
     1
 90
       50
176
     1
 62
   256
176
     0
 40
1.0
176
     0
 90
        2
176
     1
  1
strokes_ogs.tif
176
     1
290
     0
176
     1
 40
1.0
176
     1
 40
1.0
176
     1
  0
VISUALSTYLE
  5
10034
102
{ACAD_REACTORS
330
1001C
102
}
330
1001C
100
AcDbVisualStyle
  2
EdgeColorOff
 70
    22
177
     3
291
     1
 70
    58
 90
        2
176
     0
 90
        2
176
     0
 90
        0
176
     0
 90
        0
176
     0
 40
0.6
176
     0
 40
30.0
176
     0
 62
     7
420
 16777215
176
     0
 90
        1
176
     0
 90
        4
176
     0
 62
     7
176
     0
 62
   257
176
     0
 90
        1
176
     0
 90
        1
176
     0
 40
1.0
176
     0
 90
        8
176
     2
 62
     7
176
     0
 40
1.0
176
     0
 90
        1
176
     0
 90
        6
176
     0
 90
        2
176
     0
 62
     7
176
     0
 90
        5
176
     0
 90
        0
176
     0
 90
        0
176
     0
290
     0
176
     0
 90
        1
176
     0
 40
0.0
176
     0
 90
        0
176
     0
290
     0
176
     1
290
     1
176
     1
290
     1
176
     1
290
     0
176
     1
290
     0
176
     1
290
     0
176
     1
290
     0
176
     1
290
     0
176
     1
290
     0
176
     1
 90
       50
176
     0
 40
0.0
176
     0
 40
1.0
176
     0
 90
        0
176
     0
 62
    18
420
        0
176
     0
 90
       50
176
     0
 90
        3
176
     0
 62
     5
420
      255
176
     0
290
     0
176
     1
 90
       50
176
     0
 90
       50
176
     0
 90
       50
176
     0
290
     0
176
     1
 90
       50
176
     0
 62
   256
176
     0
 40
1.0
176
     0
 90
        2
176
     0
  1
strokes_ogs.tif
176
     0
290
     0
176
     1
 40
1.0
176
     0
 40
1.0
176
     0
  0
VISUALSTYLE
  5
1002B
102
{ACAD_REACTORS
330
1001C
102
}
330
1001C
100
AcDbVisualStyle
  2
Facepattern
 70
    15
177
     3
291
     1
 70
    58
 90
        2
176
     1
 90
        2
176
     1
 90
        0
176
     1
 90
        0
176
     1
 40
0.6
176
     1
 40
30.0
176
     1
 62
     7
420
 16777215
176
     1
 90
        1
176
     1
 90
        4
176
     1
 62
     7
176
     1
 62
   257
176
     1
 90
        1
176
     1
 90
        1
176
     1
 40
1.0
176
     1
 90
        8
176
     1
 62
     7
176
     1
 40
1.0
176
     1
 90
        1
176
     1
 90
        6
176
     1
 90
        2
176
     1
 62
     7
176
     1
 90
        5
176
     1
 90
        0
176
     1
 90
        0
176
     1
290
     0
176
     1
 90
        1
176
     1
 40
0.0
176
     1
 90
        0
176
     1
290
     0
176
     1
290
     1
176
     1
290
     1
176
     1
290
     0
176
     1
290
     0
176
     1
290
     0
176
     1
290
     0
176
     1
290
     0
176
     1
290
     0
176
     1
 90
       50
176
     1
 40
0.0
176
     1
 40
1.0
176
     1
 90
        0
176
     1
 62
    18
420
        0
176
     1
 90
       50
176
     1
 90
        3
176
     1
 62
     5
420
      255
176
     1
290
     0
176
     1
 90
       50
176
     1
 90
       50
176
     1
 90
       50
176
     1
290
     0
176
     1
 90
       50
176
     1
 62
   256
176
     0
 40
1.0
176
     0
 90
        2
176
     1
  1
strokes_ogs.tif
176
     1
290
     0
176
     1
 40
1.0
176
     1
 40
1.0
176
     1
  0
VISUALSTYLE
  5
1001D
102
{ACAD_REACTORS
330
1001C
102
}
330
1001C
100
AcDbVisualStyle
  2
Flat
 70
     0
177
     3
291
     1
 70
    58
 90
        2
176
     1
 90
        1
176
     1
 90
        1
176
     1
 90
        2
176
     1
 40
0.6
176
     1
 40
30.0
176
     1
 62
     7
420
 16777215
176
     1
 90
        0
176
     1
 90
        0
176
     1
 62
     7
176
     1
 62
   257
176
     1
 90
        1
176
     1
 90
        1
176
     1
 40
1.0
176
     1
 90
        8
176
     1
 62
     7
176
     1
 40
1.0
176
     1
 90
        1
176
     1
 90
        6
176
     1
 90
        2
176
     1
 62
     7
176
     1
 90
        5
176
     1
 90
        0
176
     1
 90
        0
176
     1
290
     0
176
     1
 90
       13
176
     1
 40
0.0
176
     1
 90
        0
176
     1
290
     0
176
     1
290
     1
176
     1
290
     1
176
     1
290
     0
176
     1
290
     0
176
     1
290
     0
176
     1
290
     0
176
     1
290
     0
176
     1
290
     0
176
     1
 90
       50
176
     1
 40
0.0
176
     1
 40
1.0
176
     1
 90
        0
176
     1
 62
    18
420
        0
176
     1
 90
       50
176
     1
 90
        3
176
     1
 62
     5
420
      255
176
     1
290
     0
176
     1
 90
       50
176
     1
 90
       50
176
     1
 90
       50
176
     1
290
     0
176
     1
 90
       50
176
     1
 62
   256
176
     0
 40
1.0
176
     0
 90
        2
176
     1
  1
strokes_ogs.tif
176
     1
290
     0
176
     1
 40
1.0
176
     1
 40
1.0
176
     1
  0
VISUALSTYLE
  5
1001E
102
{ACAD_REACTORS
330
1001C
102
}
330
1001C
100
AcDbVisualStyle
  2
FlatWithEdges
 70
     1
177
     3
291
     1
 70
    58
 90
        2
176
     1
 90
        1
176
     1
 90
        1
176
     1
 90
        2
176
     1
 40
0.6
176
     1
 40
30.0
176
     1
 62
     7
420
 16777215
176
     1
 90
        1
176
     1
 90
        0
176
     1
 62
     7
176
     1
 62
   257
176
     1
 90
        1
176
     1
 90
        1
176
     1
 40
1.0
176
     1
 90
        0
176
     1
 62
   257
176
     1
 40
1.0
176
     1
 90
        1
176
     1
 90
        6
176
     1
 90
        2
176
     1
 62
     7
176
     1
 90
        5
176
     1
 90
        0
176
     1
 90
        0
176
     1
290
     0
176
     1
 90
       13
176
     1
 40
0.0
176
     1
 90
        0
176
     1
290
     0
176
     1
290
     1
176
     1
290
     1
176
     1
290
     0
176
     1
290
     0
176
     1
290
     0
176
     1
290
     0
176
     1
290
     0
176
     1
290
     0
176
     1
 90
       50
176
     1
 40
0.0
176
     1
 40
1.0
176
     1
 90
        0
176
     1
 62
    18
420
        0
176
     1
 90
       50
176
     1
 90
        3
176
     1
 62
     5
420
      255
176
     1
290
     0
176
     1
 90
       50
176
     1
 90
       50
176
     1
 90
       50
176
     1
290
     0
176
     1
 90
       50
176
     1
 62
   256
176
     0
 40
1.0
176
     0
 90
        2
176
     1
  1
strokes_ogs.tif
176
     1
290
     0
176
     1
 40
1.0
176
     1
 40
1.0
176
     1
  0
VISUALSTYLE
  5
1001F
102
{ACAD_REACTORS
330
1001C
102
}
330
1001C
100
AcDbVisualStyle
  2
Gouraud
 70
     2
177
     3
291
     1
 70
    58
 90
        2
176
     1
 90
        2
176
     1
 90
        1
176
     1
 90
        2
176
     1
 40
0.6
176
     1
 40
30.0
176
     1
 62
     7
420
 16777215
176
     1
 90
        0
176
     1
 90
        0
176
     1
 62
     7
176
     1
 62
   257
176
     1
 90
        1
176
     1
 90
        1
176
     1
 40
1.0
176
     1
 90
        0
176
     1
 62
     7
176
     1
 40
1.0
176
     1
 90
        1
176
     1
 90
        6
176
     1
 90
        2
176
     1
 62
     7
176
     1
 90
        5
176
     1
 90
        0
176
     1
 90
        0
176
     1
290
     0
176
     1
 90
       13
176
     1
 40
0.0
176
     1
 90
        0
176
     1
290
     0
176
     1
290
     1
176
     1
290
     1
176
     1
290
     0
176
     1
290
     0
176
     1
290
     0
176
     1
290
     0
176
     1
290
     0
176
     1
290
     0
176
     1
 90
       50
176
     1
 40
0.0
176
     1
 40
1.0
176
     1
 90
        0
176
     1
 62
    18
420
        0
176
     1
 90
       50
176
     1
 90
        3
176
     1
 62
     5
420
      255
176
     1
290
     0
176
     1
 90
       50
176
     1
 90
       50
176
     1
 90
       50
176
     1
290
     0
176
     1
 90
       50
176
     1
 62
   256
176
     0
 40
1.0
176
     0
 90
        2
176
     1
  1
strokes_ogs.tif
176
     1
290
     0
176
     1
 40
1.0
176
     1
 40
1.0
176
     1
  0
VISUALSTYLE
  5
10020
102
{ACAD_REACTORS
330
1001C
102
}
330
1001C
100
AcDbVisualStyle
  2
GouraudWithEdges
 70
     3
177
     3
291
     1
 70
    58
 90
        2
176
     1
 90
        2
176
     1
 90
        1
176
     1
 90
        2
176
     1
 40
0.6
176
     1
 40
30.0
176
     1
 62
     7
420
 16777215
176
     1
 90
        1
176
     1
 90
        0
176
     1
 62
     7
176
     1
 62
   257
176
     1
 90
        1
176
     1
 90
        1
176
     1
 40
1.0
176
     1
 90
        0
176
     1
 62
   257
176
     1
 40
1.0
176
     1
 90
        1
176
     1
 90
        6
176
     1
 90
        2
176
     1
 62
     7
176
     1
 90
        5
176
     1
 90
        0
176
     1
 90
        0
176
     1
290
     0
176
     1
 90
       13
176
     1
 40
0.0
176
     1
 90
        0
176
     1
290
     0
176
     1
290
     1
176
     1
290
     1
176
     1
290
     0
176
     1
290
     0
176
     1
290
     0
176
     1
290
     0
176
     1
290
     0
176
     1
290
     0
176
     1
 90
       50
176
     1
 40
0.0
176
     1
 40
1.0
176
     1
 90
        0
176
     1
 62
    18
420
        0
176
     1
 90
       50
176
     1
 90
        3
176
     1
 62
     5
420
      255
176
     1
290
     0
176
     1
 90
       50
176
     1
 90
       50
176
     1
 90
       50
176
     1
290
     0
176
     1
 90
       50
176
     1
 62
   256
176
     0
 40
1.0
176
     0
 90
        2
176
     1
  1
strokes_ogs.tif
176
     1
290
     0
176
     1
 40
1.0
176
     1
 40
1.0
176
     1
  0
VISUALSTYLE
  5
10024
102
{ACAD_REACTORS
330
1001C
102
}
330
1001C
100
AcDbVisualStyle
  2
Hidden
 70
     6
177
     3
291
     0
 70
    58
 90
        1
176
     1
 90
        2
176
     1
 90
        2
176
     1
 90
        0
176
     1
 40
0.6
176
     1
 40
30.0
176
     1
 62
     7
420
 16777215
176
     1
 90
        2
176
     1
 90
        2
176
     1
 62
     7
176
     1
 62
   257
176
     1
 90
        2
176
     1
 90
        1
176
     1
 40
40.0
176
     1
 90
        0
176
     1
 62
   257
176
     1
 40
1.0
176
     1
 90
        1
176
     1
 90
        6
176
     1
 90
        2
176
     1
 62
     7
176
     1
 90
        3
176
     1
 90
        0
176
     1
 90
        0
176
     1
290
     0
176
     1
 90
        1
176
     1
 40
0.0
176
     1
 90
        0
176
     1
290
     0
176
     1
290
     1
176
     1
290
     1
176
     1
290
     0
176
     1
290
     0
176
     1
290
     0
176
     1
290
     0
176
     1
290
     0
176
     1
290
     0
176
     1
 90
       50
176
     1
 40
0.0
176
     1
 40
1.0
176
     1
 90
        0
176
     1
 62
    18
420
        0
176
     1
 90
       50
176
     1
 90
        3
176
     1
 62
     5
420
      255
176
     1
290
     0
176
     1
 90
       50
176
     1
 90
       50
176
     1
 90
       50
176
     1
290
     0
176
     1
 90
       50
176
     1
 62
   256
176
     0
 40
1.0
176
     0
 90
        2
176
     1
  1
strokes_ogs.tif
176
     1
290
     0
176
     1
 40
1.0
176
     1
 40
1.0
176
     1
  0
VISUALSTYLE
  5
10032
102
{ACAD_REACTORS
330
1001C
102
}
330
1001C
100
AcDbVisualStyle
  2
JitterOff
 70
    20
177
     3
291
     1
 70
    58
 90
        2
176
     0
 90
        2
176
     0
 90
        0
176
     0
 90
        0
176
     0
 40
0.6
176
     0
 40
30.0
176
     0
 62
     7
420
 16777215
176
     0
 90
        1
176
     0
 90
        4
176
     0
 62
     7
176
     0
 62
   257
176
     0
 90
        1
176
     0
 90
        1
176
     0
 40
1.0
176
     0
 90
       10
176
     2
 62
     7
176
     0
 40
1.0
176
     0
 90
        1
176
     0
 90
        6
176
     0
 90
        2
176
     0
 62
     7
176
     0
 90
        5
176
     0
 90
        0
176
     0
 90
        0
176
     0
290
     0
176
     0
 90
        1
176
     0
 40
0.0
176
     0
 90
        0
176
     0
290
     0
176
     1
290
     1
176
     1
290
     1
176
     1
290
     0
176
     1
290
     0
176
     1
290
     0
176
     1
290
     0
176
     1
290
     0
176
     1
290
     0
176
     1
 90
       50
176
     0
 40
0.0
176
     0
 40
1.0
176
     0
 90
        0
176
     0
 62
    18
420
        0
176
     0
 90
       50
176
     0
 90
        3
176
     0
 62
     5
420
      255
176
     0
290
     0
176
     1
 90
       50
176
     0
 90
       50
176
     0
 90
       50
176
     0
290
     0
176
     1
 90
       50
176
     0
 62
   256
176
     0
 40
1.0
176
     0
 90
        2
176
     0
  1
strokes_ogs.tif
176
     0
290
     0
176
     1
 40
1.0
176
     0
 40
1.0
176
     0
  0
VISUALSTYLE
  5
1002A
102
{ACAD_REACTORS
330
1001C
102
}
330
1001C
100
AcDbVisualStyle
  2
Linepattern
 70
    14
177
     3
291
     1
 70
    58
 90
        2
176
     1
 90
        2
176
     1
 90
        0
176
     1
 90
        0
176
     1
 40
0.6
176
     1
 40
30.0
176
     1
 62
     7
420
 16777215
176
     1
 90
        1
176
     1
 90
        4
176
     1
 62
     7
176
     1
 62
   257
176
     1
 90
        7
176
     1
 90
        7
176
     1
 40
1.0
176
     1
 90
        8
176
     1
 62
     7
176
     1
 40
1.0
176
     1
 90
        1
176
     1
 90
        6
176
     1
 90
        2
176
     1
 62
     7
176
     1
 90
        5
176
     1
 90
        0
176
     1
 90
        0
176
     1
290
     0
176
     1
 90
        1
176
     1
 40
0.0
176
     1
 90
        0
176
     1
290
     0
176
     1
290
     1
176
     1
290
     1
176
     1
290
     0
176
     1
290
     0
176
     1
290
     0
176
     1
290
     0
176
     1
290
     0
176
     1
290
     0
176
     1
 90
       50
176
     1
 40
0.0
176
     1
 40
1.0
176
     1
 90
        0
176
     1
 62
    18
420
        0
176
     1
 90
       50
176
     1
 90
        3
176
     1
 62
     5
420
      255
176
     1
290
     0
176
     1
 90
       50
176
     1
 90
       50
176
     1
 90
       50
176
     1
290
     0
176
     1
 90
       50
176
     1
 62
   256
176
     0
 40
1.0
176
     0
 90
        2
176
     1
  1
strokes_ogs.tif
176
     1
290
     0
176
     1
 40
1.0
176
     1
 40
1.0
176
     1
  0
VISUALSTYLE
  5
10033
102
{ACAD_REACTORS
330
1001C
102
}
330
1001C
100
AcDbVisualStyle
  2
OverhangOff
 70
    21
177
     3
291
     1
 70
    58
 90
        2
176
     0
 90
        2
176
     0
 90
        0
176
     0
 90
        0
176
     0
 40
0.6
176
     0
 40
30.0
176
     0
 62
     7
420
 16777215
176
     0
 90
        1
176
     0
 90
        4
176
     0
 62
     7
176
     0
 62
   257
176
     0
 90
        1
176
     0
 90
        1
176
     0
 40
1.0
176
     0
 90
        9
176
     2
 62
     7
176
     0
 40
1.0
176
     0
 90
        1
176
     0
 90
        6
176
     0
 90
        2
176
     0
 62
     7
176
     0
 90
        5
176
     0
 90
        0
176
     0
 90
        0
176
     0
290
     0
176
     0
 90
        1
176
     0
 40
0.0
176
     0
 90
        0
176
     0
290
     0
176
     1
290
     1
176
     1
290
     1
176
     1
290
     0
176
     1
290
     0
176
     1
290
     0
176
     1
290
     0
176
     1
290
     0
176
     1
290
     0
176
     1
 90
       50
176
     0
 40
0.0
176
     0
 40
1.0
176
     0
 90
        0
176
     0
 62
    18
420
        0
176
     0
 90
       50
176
     0
 90
        3
176
     0
 62
     5
420
      255
176
     0
290
     0
176
     1
 90
       50
176
     0
 90
       50
176
     0
 90
       50
176
     0
290
     0
176
     1
 90
       50
176
     0
 62
   256
176
     0
 40
1.0
176
     0
 90
        2
176
     0
  1
strokes_ogs.tif
176
     0
290
     0
176
     1
 40
1.0
176
     0
 40
1.0
176
     0
  0
VISUALSTYLE
  5
10026
102
{ACAD_REACTORS
330
1001C
102
}
330
1001C
100
AcDbVisualStyle
  2
Realistic
 70
     8
177
     3
291
     0
 70
    58
 90
        2
176
     1
 90
        3
176
     1
 90
        0
176
     1
 90
        2
176
     1
 40
0.6
176
     1
 40
30.0
176
     1
 62
     7
420
 16777215
176
     1
 90
        0
176
     1
 90
        0
176
     1
 62
     7
176
     1
 62
   257
176
     1
 90
        1
176
     1
 90
        1
176
     1
 40
1.0
176
     1
 90
        8
176
     1
 62
   257
176
     1
 40
1.0
176
     1
 90
        1
176
     1
 90
        6
176
     1
 90
        2
176
     1
 62
     7
176
     1
 90
        3
176
     1
 90
        0
176
     1
 90
        0
176
     1
290
     0
176
     1
 90
       13
176
     1
 40
0.0
176
     1
 90
        0
176
     1
290
     0
176
     1
290
     1
176
     1
290
     1
176
     1
290
     0
176
     1
290
     0
176
     1
290
     0
176
     1
290
     0
176
     1
290
     0
176
     1
290
     0
176
     1
 90
       50
176
     1
 40
0.0
176
     1
 40
1.0
176
     1
 90
        0
176
     1
 62
    18
420
        0
176
     1
 90
       50
176
     1
 90
        3
176
     1
 62
     5
420
      255
176
     1
290
     0
176
     1
 90
       50
176
     1
 90
       50
176
     1
 90
       50
176
     1
290
     0
176
     1
 90
       50
176
     1
 62
   256
176
     0
 40
1.0
176
     0
 90
        2
176
     1
  1
strokes_ogs.tif
176
     1
290
     0
176
     1
 40
1.0
176
     1
 40
1.0
176
     1
  0
VISUALSTYLE
  5
10031
102
{ACAD_REACTORS
330
1001C
102
}
330
1001C
100
AcDbVisualStyle
  2
Shaded
 70
    27
177
     3
291
     0
 70
    58
 90
        2
176
     1
 90
        2
176
     1
 90
        1
176
     1
 90
        2
176
     1
 40
0.6
176
     1
 40
30.0
176
     1
 62
     7
420
 16777215
176
     1
 90
        0
176
     1
 90
        4
176
     1
 62
     7
176
     1
 62
   257
176
     1
 90
        1
176
     1
 90
        1
176
     1
 40
1.0
176
     1
 90
        8
176
     1
 62
   257
176
     1
 40
1.0
176
     1
 90
        1
176
     1
 90
        6
176
     1
 90
        2
176
     1
 62
     8
420
  7895160
176
     1
 90
        3
176
     1
 90
        0
176
     1
 90
        0
176
     1
290
     0
176
     1
 90
        5
176
     1
 40
0.0
176
     1
 90
        0
176
     1
290
     0
176
     1
290
     1
176
     1
290
     1
176
     1
290
     0
176
     1
290
     0
176
     1
290
     0
176
     1
290
     0
176
     1
290
     0
176
     1
290
     0
176
     1
 90
       50
176
     1
 40
0.0
176
     1
 40
1.0
176
     1
 90
        0
176
     1
 62
    18
420
        0
176
     1
 90
       50
176
     1
 90
        3
176
     1
 62
     5
420
      255
176
     1
290
     0
176
     1
 90
       50
176
     1
 90
       50
176
     1
 90
       50
176
     1
290
     0
176
     1
 90
       50
176
     1
 62
   256
176
     0
 40
1.0
176
     0
 90
        2
176
     1
  1
strokes_ogs.tif
176
     1
290
     0
176
     1
 40
1.0
176
     1
 40
1.0
176
     1
  0
VISUALSTYLE
  5
10030
102
{ACAD_REACTORS
330
1001C
102
}
330
1001C
100
AcDbVisualStyle
  2
Shaded with edges
 70
    26
177
     3
291
     0
 70
    58
 90
        2
176
     1
 90
        2
176
     1
 90
        1
176
     1
 90
        2
176
     1
 40
0.6
176
     1
 40
30.0
176
     1
 62
     7
420
 16777215
176
     1
 90
        1
176
     1
 90
       10
176
     1
 62
     7
176
     1
 62
   257
176
     1
 90
        2
176
     1
 90
        1
176
     1
 40
1.0
176
     1
 90
        8
176
     1
 62
   257
176
     1
 40
1.0
176
     1
 90
        1
176
     1
 90
        6
176
     1
 90
        2
176
     1
 62
     7
176
     1
 90
        3
176
     1
 90
        0
176
     1
 90
        0
176
     1
290
     0
176
     1
 90
        5
176
     1
 40
0.0
176
     1
 90
        0
176
     1
290
     0
176
     1
290
     1
176
     1
290
     1
176
     1
290
     0
176
     1
290
     0
176
     1
290
     0
176
     1
290
     0
176
     1
290
     0
176
     1
290
     0
176
     1
 90
       50
176
     1
 40
0.0
176
     1
 40
1.0
176
     1
 90
        0
176
     1
 62
    18
420
        0
176
     1
 90
       50
176
     1
 90
        3
176
     1
 62
     5
420
      255
176
     1
290
     0
176
     1
 90
       50
176
     1
 90
       50
176
     1
 90
       50
176
     1
290
     0
176
     1
 90
       50
176
     1
 62
   256
176
     0
 40
1.0
176
     0
 90
        2
176
     1
  1
strokes_ogs.tif
176
     1
290
     0
176
     1
 40
1.0
176
     1
 40
1.0
176
     1
  0
VISUALSTYLE
  5
1002D
102
{ACAD_REACTORS
330
1001C
102
}
330
1001C
100
AcDbVisualStyle
  2
Shades of Gray
 70
    23
177
     3
291
     0
 70
    58
 90
        2
176
     1
 90
        2
176
     1
 90
        3
176
     1
 90
        0
176
     1
 40
0.6
176
     1
 40
30.0
176
     1
 62
     7
420
 16777215
176
     1
 90
        2
176
     1
 90
        2
176
     1
 62
     7
176
     1
 62
     7
176
     1
 90
        1
176
     1
 90
        1
176
     1
 40
40.0
176
     1
 90
        8
176
     1
 62
     7
176
     1
 40
1.0
176
     1
 90
        1
176
     1
 90
        6
176
     1
 90
        2
176
     1
 62
     7
176
     1
 90
        3
176
     1
 90
        0
176
     1
 90
        0
176
     1
290
     0
176
     1
 90
        1
176
     1
 40
0.0
176
     1
 90
        0
176
     1
290
     0
176
     1
290
     1
176
     1
290
     1
176
     1
290
     0
176
     1
290
     0
176
     1
290
     0
176
     1
290
     0
176
     1
290
     0
176
     1
290
     0
176
     1
 90
       50
176
     1
 40
0.0
176
     1
 40
1.0
176
     1
 90
        0
176
     1
 62
    18
420
        0
176
     1
 90
       50
176
     1
 90
        3
176
     1
 62
     5
420
      255
176
     1
290
     0
176
     1
 90
       50
176
     1
 90
       50
176
     1
 90
       50
176
     1
290
     0
176
     1
 90
       50
176
     1
 62
   256
176
     0
 40
1.0
176
     0
 90
        2
176
     1
  1
strokes_ogs.tif
176
     1
290
     0
176
     1
 40
1.0
176
     1
 40
1.0
176
     1
  0
VISUALSTYLE
  5
1002E
102
{ACAD_REACTORS
330
1001C
102
}
330
1001C
100
AcDbVisualStyle
  2
Sketchy
 70
    24
177
     3
291
     0
 70
    58
 90
        1
176
     1
 90
        2
176
     1
 90
        2
176
     1
 90
        0
176
     1
 40
0.6
176
     1
 40
30.0
176
     1
 62
     7
420
 16777215
176
     1
 90
        2
176
     1
 90
        2
176
     1
 62
     7
176
     1
 62
     7
176
     1
 90
        1
176
     1
 90
        1
176
     1
 40
40.0
176
     1
 90
       11
176
     1
 62
     7
176
     1
 40
1.0
176
     1
 90
        1
176
     1
 90
        6
176
     1
 90
        2
176
     1
 62
     7
176
     1
 90
        6
176
     1
 90
        0
176
     1
 90
        0
176
     1
290
     0
176
     1
 90
        1
176
     1
 40
0.0
176
     1
 90
        0
176
     1
290
     0
176
     1
290
     1
176
     1
290
     1
176
     1
290
     0
176
     1
290
     0
176
     1
290
     0
176
     1
290
     0
176
     1
290
     0
176
     1
290
     0
176
     1
 90
       50
176
     1
 40
0.0
176
     1
 40
1.0
176
     1
 90
        0
176
     1
 62
    18
420
        0
176
     1
 90
       50
176
     1
 90
        3
176
     1
 62
     5
420
      255
176
     1
290
     0
176
     1
 90
       50
176
     1
 90
       50
176
     1
 90
       50
176
     1
290
     0
176
     1
 90
       50
176
     1
 62
   256
176
     0
 40
1.0
176
     0
 90
        2
176
     1
  1
strokes_ogs.tif
176
     1
290
     0
176
     1
 40
1.0
176
     1
 40
1.0
176
     1
  0
VISUALSTYLE
  5
10029
102
{ACAD_REACTORS
330
1001C
102
}
330
1001C
100
AcDbVisualStyle
  2
Thicken
 70
    13
177
     3
291
     1
 70
    58
 90
        2
176
     1
 90
        2
176
     1
 90
        0
176
     1
 90
        0
176
     1
 40
0.6
176
     1
 40
30.0
176
     1
 62
     7
420
 16777215
176
     1
 90
        1
176
     1
 90
        4
176
     1
 62
     7
176
     1
 62
   257
176
     1
 90
        1
176
     1
 90
        1
176
     1
 40
1.0
176
     1
 90
       12
176
     1
 62
     7
176
     1
 40
1.0
176
     1
 90
        1
176
     1
 90
        6
176
     1
 90
        2
176
     1
 62
     7
176
     1
 90
        5
176
     1
 90
        0
176
     1
 90
        0
176
     1
290
     0
176
     1
 90
        1
176
     1
 40
0.0
176
     1
 90
        0
176
     1
290
     0
176
     1
290
     1
176
     1
290
     1
176
     1
290
     0
176
     1
290
     0
176
     1
290
     0
176
     1
290
     0
176
     1
290
     0
176
     1
290
     0
176
     1
 90
       50
176
     1
 40
0.0
176
     1
 40
1.0
176
     1
 90
        0
176
     1
 62
    18
420
        0
176
     1
 90
       50
176
     1
 90
        3
176
     1
 62
     5
420
      255
176
     1
290
     0
176
     1
 90
       50
176
     1
 90
       50
176
     1
 90
       50
176
     1
290
     0
176
     1
 90
       50
176
     1
 62
   256
176
     0
 40
1.0
176
     0
 90
        2
176
     1
  1
strokes_ogs.tif
176
     1
290
     0
176
     1
 40
1.0
176
     1
 40
1.0
176
     1
  0
VISUALSTYLE
  5
10023
102
{ACAD_REACTORS
330
1001C
102
}
330
1001C
100
AcDbVisualStyle
  2
Wireframe
 70
     5
177
     3
291
     0
 70
    58
 90
        0
176
     1
 90
        2
176
     1
 90
        0
176
     1
 90
        0
176
     1
 40
0.6
176
     1
 40
30.0
176
     1
 62
     7
420
 16777215
176
     1
 90
        1
176
     1
 90
        4
176
     1
 62
     7
176
     1
 62
   257
176
     1
 90
        1
176
     1
 90
        1
176
     1
 40
1.0
176
     1
 90
        0
176
     1
 62
   257
176
     1
 40
1.0
176
     1
 90
        1
176
     1
 90
        6
176
     1
 90
        2
176
     1
 62
     7
176
     1
 90
        3
176
     1
 90
        0
176
     1
 90
        0
176
     1
290
     0
176
     1
 90
        1
176
     1
 40
0.0
176
     1
 90
        0
176
     1
290
     0
176
     1
290
     1
176
     1
290
     1
176
     1
290
     0
176
     1
290
     0
176
     1
290
     0
176
     1
290
     0
176
     1
290
     0
176
     1
290
     0
176
     1
 90
       50
176
     1
 40
0.0
176
     1
 40
1.0
176
     1
 90
        0
176
     1
 62
    18
420
        0
176
     1
 90
       50
176
     1
 90
        3
176
     1
 62
     5
420
      255
176
     1
290
     0
176
     1
 90
       50
176
     1
 90
       50
176
     1
 90
       50
176
     1
290
     0
176
     1
 90
       50
176
     1
 62
   256
176
     0
 40
1.0
176
     0
 90
        2
176
     1
  1
strokes_ogs.tif
176
     1
290
     0
176
     1
 40
1.0
176
     1
 40
1.0
176
     1
  0
VISUALSTYLE
  5
1002F
102
{ACAD_REACTORS
330
1001C
102
}
330
1001C
100
AcDbVisualStyle
  2
X-Ray
 70
    25
177
     3
291
     0
 70
    58
 90
        2
176
     1
 90
        2
176
     1
 90
        1
176
     1
 90
        1
176
     1
 40
0.5
176
     1
 40
30.0
176
     1
 62
     7
420
 16777215
176
     1
 90
        1
176
     1
 90
        0
176
     1
 62
     7
176
     1
 62
   257
176
     1
 90
        1
176
     1
 90
        1
176
     1
 40
1.0
176
     1
 90
        8
176
     1
 62
     7
176
     1
 40
1.0
176
     1
 90
        1
176
     1
 90
        6
176
     1
 90
        2
176
     1
 62
     7
176
     1
 90
        3
176
     1
 90
        0
176
     1
 90
        0
176
     1
290
     0
176
     1
 90
       13
176
     1
 40
0.0
176
     1
 90
        0
176
     1
290
     0
176
     1
290
     1
176
     1
290
     1
176
     1
290
     0
176
     1
290
     0
176
     1
290
     0
176
     1
290
     0
176
     1
290
     0
176
     1
290
     0
176
     1
 90
       50
176
     1
 40
0.0
176
     1
 40
1.0
176
     1
 90
        0
176
     1
 62
    18
420
        0
176
     1
 90
       50
176
     1
 90
        3
176
     1
 62
     5
420
      255
176
     1
290
     0
176
     1
 90
       50
176
     1
 90
       50
176
     1
 90
       50
176
     1
290
     0
176
     1
 90
       50
176
     1
 62
   256
176
     0
 40
1.0
176
     0
 90
        2
176
     1
  1
strokes_ogs.tif
176
     1
290
     0
176
     1
 40
1.0
176
     1
 40
1.0
176
     1
  0
DICTIONARYVAR
  5
10061
102
{ACAD_REACTORS
330
1005B
102
}
330
1005B
100
DictionaryVariables
280
     0
  1
1:1
  0
DICTIONARYVAR
  5
1005D
102
{ACAD_REACTORS
330
1005B
102
}
330
1005B
100
DictionaryVariables
280
     0
  1
STANDARD
  0
DICTIONARYVAR
  5
1005C
102
{ACAD_REACTORS
330
1005B
102
}
330
1005B
100
DictionaryVariables
280
     0
  1
STANDARD
  0
DICTIONARYVAR
  5
1005E
102
{ACAD_REACTORS
330
1005B
102
}
330
1005B
100
DictionaryVariables
280
     0
  1
Metric50
  0
DICTIONARYVAR
  5
1005F
102
{ACAD_REACTORS
330
1005B
102
}
330
1005B
100
DictionaryVariables
280
     0
  1
Metric50
  0
DICTIONARYVAR
  5
10063
102
{ACAD_REACTORS
330
1005B
102
}
330
1005B
100
DictionaryVariables
280
     0
  1
1
  0
DICTIONARYVAR
  5
10064
102
{ACAD_REACTORS
330
1005B
102
}
330
1005B
100
DictionaryVariables
280
     0
  1
15
  0
DICTIONARYVAR
  5
10062
102
{ACAD_REACTORS
330
1005B
102
}
330
1005B
100
DictionaryVariables
280
     0
  1
0
  0
DICTIONARYVAR
  5
10060
102
{ACAD_REACTORS
330
1005B
102
}
330
1005B
100
DictionaryVariables
280
     0
  1
0
  0
DICTIONARY
  5
1006A
330
1004F
100
AcDbDictionary
280
     1
281
     1
  3
ACAD_XREC_ROUNDTRIP
360
1006B
  0
DICTIONARY
  5
1000D
330
1000C
100
AcDbDictionary
280
     1
281
     1
  3
BUMPTILE
360
1000F
  3
DIFFUSETILE
360
1000E
  3
OPACITYTILE
360
10012
  3
REFLECTIONTILE
360
10011
  3
REFRACTIONTILE
360
10013
  3
SPECULARTILE
360
10010
  0
DICTIONARY
  5
10005
330
10004
100
AcDbDictionary
280
     1
281
     1
  3
BUMPTILE
360
10007
  3
DIFFUSETILE
360
10006
  3
OPACITYTILE
360
1000A
  3
REFLECTIONTILE
360
10009
  3
REFRACTIONTILE
360
1000B
  3
SPECULARTILE
360
10008
  0
DICTIONARY
  5
10015
330
10014
100
AcDbDictionary
280
     1
281
     1
  3
BUMPTILE
360
10017
  3
DIFFUSETILE
360
10016
  3
OPACITYTILE
360
1001A
  3
REFLECTIONTILE
360
10019
  3
REFRACTIONTILE
360
1001B
  3
SPECULARTILE
360
10018
  0
DICTIONARY
  5
10068
330
1004D
100
AcDbDictionary
280
     1
281
     1
  3
ACAD_XREC_ROUNDTRIP
360
10069
  0
DICTIONARY
  5
10066
330
10037
100
AcDbDictionary
280
     1
281
     1
  3
ACAD_ROUNDTRIP_2008_TABLESTYLE_CELLSTYLEMAP
360
10067
  0
XRECORD
  5
1006B
102
{ACAD_REACTORS
330
1006A
102
}
330
1006A
100
AcDbXrecord
280
     1
102
DISPLAYNAME
  1
Metric50
102
FLAGS
 90
        0
  0
XRECORD
  5
1000F
102
{ACAD_REACTORS
330
1000D
102
}
330
1000D
100
AcDbXrecord
280
     1
270
     1
271
     1
  0
XRECORD
  5
1000E
102
{ACAD_REACTORS
330
1000D
102
}
330
1000D
100
AcDbXrecord
280
     1
270
     1
271
     1
  0
XRECORD
  5
10012
102
{ACAD_REACTORS
330
1000D
102
}
330
1000D
100
AcDbXrecord
280
     1
270
     1
271
     1
  0
XRECORD
  5
10011
102
{ACAD_REACTORS
330
1000D
102
}
330
1000D
100
AcDbXrecord
280
     1
270
     1
271
     1
  0
XRECORD
  5
10013
102
{ACAD_REACTORS
330
1000D
102
}
330
1000D
100
AcDbXrecord
280
     1
270
     1
271
     1
  0
XRECORD
  5
10010
102
{ACAD_REACTORS
330
1000D
102
}
330
1000D
100
AcDbXrecord
280
     1
270
     1
271
     1
  0
XRECORD
  5
10007
102
{ACAD_REACTORS
330
10005
102
}
330
10005
100
AcDbXrecord
280
     1
270
     1
271
     1
  0
XRECORD
  5
10006
102
{ACAD_REACTORS
330
10005
102
}
330
10005
100
AcDbXrecord
280
     1
270
     1
271
     1
  0
XRECORD
  5
1000A
102
{ACAD_REACTORS
330
10005
102
}
330
10005
100
AcDbXrecord
280
     1
270
     1
271
     1
  0
XRECORD
  5
10009
102
{ACAD_REACTORS
330
10005
102
}
330
10005
100
AcDbXrecord
280
     1
270
     1
271
     1
  0
XRECORD
  5
1000B
102
{ACAD_REACTORS
330
10005
102
}
330
10005
100
AcDbXrecord
280
     1
270
     1
271
     1
  0
XRECORD
  5
10008
102
{ACAD_REACTORS
330
10005
102
}
330
10005
100
AcDbXrecord
280
     1
270
     1
271
     1
  0
XRECORD
  5
10017
102
{ACAD_REACTORS
330
10015
102
}
330
10015
100
AcDbXrecord
280
     1
270
     1
271
     1
  0
XRECORD
  5
10016
102
{ACAD_REACTORS
330
10015
102
}
330
10015
100
AcDbXrecord
280
     1
270
     1
271
     1
  0
XRECORD
  5
1001A
102
{ACAD_REACTORS
330
10015
102
}
330
10015
100
AcDbXrecord
280
     1
270
     1
271
     1
  0
XRECORD
  5
10019
102
{ACAD_REACTORS
330
10015
102
}
330
10015
100
AcDbXrecord
280
     1
270
     1
271
     1
  0
XRECORD
  5
1001B
102
{ACAD_REACTORS
330
10015
102
}
330
10015
100
AcDbXrecord
280
     1
270
     1
271
     1
  0
XRECORD
  5
10018
102
{ACAD_REACTORS
330
10015
102
}
330
10015
100
AcDbXrecord
280
     1
270
     1
271
     1
  0
XRECORD
  5
10069
102
{ACAD_REACTORS
330
10068
102
}
330
10068
100
AcDbXrecord
280
     1
102
DISPLAYNAME
  1
Metric50
102
FLAGS
 90
        0
  0
CELLSTYLEMAP
  5
10067
102
{ACAD_REACTORS
330
10066
102
}
330
10066
100
AcDbCellStyleMap
 90
        3
300
CELLSTYLE
  1
TABLEFORMAT_BEGIN
 90
        5
170
     1
 91
        0
 92
    32768
 62
   257
 93
        1
300
CONTENTFORMAT
  1
CONTENTFORMAT_BEGIN
 90
        0
 91
        0
 92
      512
 93
        0
300

 40
0.0
140
1.0
 94
        5
 62
     0
340
11
144
6.0
309
CONTENTFORMAT_END
171
     1
301
MARGIN
  1
CELLMARGIN_BEGIN
 40
1.5
 40
1.5
 40
1.5
 40
1.5
 40
4.5
 40
4.5
309
CELLMARGIN_END
 94
        6
 95
        1
302
GRIDFORMAT
  1
GRIDFORMAT_BEGIN
 90
        0
 91
        1
 62
     0
 92
       -2
340
0
 93
        0
 40
1.125
309
GRIDFORMAT_END
 95
        2
302
GRIDFORMAT
  1
GRIDFORMAT_BEGIN
 90
        0
 91
        1
 62
     0
 92
       -2
340
0
 93
        0
 40
1.125
309
GRIDFORMAT_END
 95
        4
302
GRIDFORMAT
  1
GRIDFORMAT_BEGIN
 90
        0
 91
        1
 62
     0
 92
       -2
340
0
 93
        0
 40
1.125
309
GRIDFORMAT_END
 95
        8
302
GRIDFORMAT
  1
GRIDFORMAT_BEGIN
 90
        0
 91
        1
 62
     0
 92
       -2
340
0
 93
        0
 40
1.125
309
GRIDFORMAT_END
 95
       16
302
GRIDFORMAT
  1
GRIDFORMAT_BEGIN
 90
        0
 91
        1
 62
     0
 92
       -2
340
0
 93
        0
 40
1.125
309
GRIDFORMAT_END
 95
       32
302
GRIDFORMAT
  1
GRIDFORMAT_BEGIN
 90
        0
 91
        1
 62
     0
 92
       -2
340
0
 93
        0
 40
1.125
309
GRIDFORMAT_END
309
TABLEFORMAT_END
  1
CELLSTYLE_BEGIN
 90
        1
 91
        1
300
_TITLE
309
CELLSTYLE_END
300
CELLSTYLE
  1
TABLEFORMAT_BEGIN
 90
        5
170
     1
 91
        0
 92
        0
 62
   257
 93
        1
300
CONTENTFORMAT
  1
CONTENTFORMAT_BEGIN
 90
        0
 91
        0
 92
      512
 93
        0
300

 40
0.0
140
1.0
 94
        5
 62
     0
340
11
144
4.5
309
CONTENTFORMAT_END
171
     1
301
MARGIN
  1
CELLMARGIN_BEGIN
 40
1.5
 40
1.5
 40
1.5
 40
1.5
 40
4.5
 40
4.5
309
CELLMARGIN_END
 94
        6
 95
        1
302
GRIDFORMAT
  1
GRIDFORMAT_BEGIN
 90
        0
 91
        1
 62
     0
 92
       -2
340
0
 93
        0
 40
1.125
309
GRIDFORMAT_END
 95
        2
302
GRIDFORMAT
  1
GRIDFORMAT_BEGIN
 90
        0
 91
        1
 62
     0
 92
       -2
340
0
 93
        0
 40
1.125
309
GRIDFORMAT_END
 95
        4
302
GRIDFORMAT
  1
GRIDFORMAT_BEGIN
 90
        0
 91
        1
 62
     0
 92
       -2
340
0
 93
        0
 40
1.125
309
GRIDFORMAT_END
 95
        8
302
GRIDFORMAT
  1
GRIDFORMAT_BEGIN
 90
        0
 91
        1
 62
     0
 92
       -2
340
0
 93
        0
 40
1.125
309
GRIDFORMAT_END
 95
       16
302
GRIDFORMAT
  1
GRIDFORMAT_BEGIN
 90
        0
 91
        1
 62
     0
 92
       -2
340
0
 93
        0
 40
1.125
309
GRIDFORMAT_END
 95
       32
302
GRIDFORMAT
  1
GRIDFORMAT_BEGIN
 90
        0
 91
        1
 62
     0
 92
       -2
340
0
 93
        0
 40
1.125
309
GRIDFORMAT_END
309
TABLEFORMAT_END
  1
CELLSTYLE_BEGIN
 90
        2
 91
        1
300
_HEADER
309
CELLSTYLE_END
300
CELLSTYLE
  1
TABLEFORMAT_BEGIN
 90
        5
170
     1
 91
        0
 92
        0
 62
   257
 93
        1
300
CONTENTFORMAT
  1
CONTENTFORMAT_BEGIN
 90
        0
 91
        0
 92
      512
 93
        0
300

 40
0.0
140
1.0
 94
        2
 62
     0
340
11
144
4.5
309
CONTENTFORMAT_END
171
     1
301
MARGIN
  1
CELLMARGIN_BEGIN
 40
1.5
 40
1.5
 40
1.5
 40
1.5
 40
4.5
 40
4.5
309
CELLMARGIN_END
 94
        6
 95
        1
302
GRIDFORMAT
  1
GRIDFORMAT_BEGIN
 90
        0
 91
        1
 62
     0
 92
       -2
340
0
 93
        0
 40
1.125
309
GRIDFORMAT_END
 95
        2
302
GRIDFORMAT
  1
GRIDFORMAT_BEGIN
 90
        0
 91
        1
 62
     0
 92
       -2
340
0
 93
        0
 40
1.125
309
GRIDFORMAT_END
 95
        4
302
GRIDFORMAT
  1
GRIDFORMAT_BEGIN
 90
        0
 91
        1
 62
     0
 92
       -2
340
0
 93
        0
 40
1.125
309
GRIDFORMAT_END
 95
        8
302
GRIDFORMAT
  1
GRIDFORMAT_BEGIN
 90
        0
 91
        1
 62
     0
 92
       -2
340
0
 93
        0
 40
1.125
309
GRIDFORMAT_END
 95
       16
302
GRIDFORMAT
  1
GRIDFORMAT_BEGIN
 90
        0
 91
        1
 62
     0
 92
       -2
340
0
 93
        0
 40
1.125
309
GRIDFORMAT_END
 95
       32
302
GRIDFORMAT
  1
GRIDFORMAT_BEGIN
 90
        0
 91
        1
 62
     0
 92
       -2
340
0
 93
        0
 40
1.125
309
GRIDFORMAT_END
309
TABLEFORMAT_END
  1
CELLSTYLE_BEGIN
 90
        3
 91
        2
300
_DATA
309
CELLSTYLE_END
  0
ENDSEC
  0
EOF
