  0
SECTION
  2
HEADER
  9
$ACADVER
  1
AC1014
  9
$HANDSEED
  5
FFFF
  9
$MEASUREMENT
 70
     1
  0
ENDSEC
  0
SECTION
  2
TABLES
  0
TABLE
  2
VPORT
  5
8
330
0
100
AcDbSymbolTable
 70
     4
  0
VPORT
  5
2E
330
8
100
AcDbSymbolTableRecord
100
AcDbViewportTableRecord
  2
*ACTIVE
 70
     0
 10
0.0
 20
0.0
 11
1.0
 21
1.0
 12
210.0
 22
148.5
 13
0.0
 23
0.0
 14
10.0
 24
10.0
 15
10.0
 25
10.0
 16
0.0
 26
0.0
 36
1.0
 17
0.0
 27
0.0
 37
0.0
 40
341.0
 41
1.24
 42
50.0
 43
0.0
 44
0.0
 50
0.0
 51
0.0
 71
     0
 72
   100
 73
     1
 74
     3
 75
     0
 76
     0
 77
     0
 78
     0
  0
ENDTAB
  0
TABLE
  2
LTYPE
  5
5
330
0
100
AcDbSymbolTable
 70
     1
  0
LTYPE
  5
14
330
5
100
AcDbSymbolTableRecord
100
AcDbLinetypeTableRecord
  2
BYBLOCK
 70
     0
  3

 72
    65
 73
     0
 40
0.0
  0
LTYPE
  5
15
330
5
100
AcDbSymbolTableRecord
100
AcDbLinetypeTableRecord
  2
BYLAYER
 70
     0
  3

 72
    65
 73
     0
 40
0.0
  0
LTYPE
  5
16
330
5
100
AcDbSymbolTableRecord
100
AcDbLinetypeTableRecord
  2
CONTINUOUS
 70
     0
  3
Solid line
 72
    65
 73
     0
 40
0.0
  0
ENDTAB
  0
TABLE
  2
LAYER
  5
2
100
AcDbSymbolTable
 70
2
  0
LAYER
  5
50
100
AcDbSymbolTableRecord
100
AcDbLayerTableRecord
  2
0
 70
0
  6
CONTINUOUS
  0
LAYER
  5
51
100
AcDbSymbolTableRecord
100
AcDbLayerTableRecord
  2
Layer_1
 70
0
  6
CONTINUOUS
  0
ENDTAB
  0
TABLE
  2
STYLE
  5
3
330
0
100
AcDbSymbolTable
 70
     1
  0
STYLE
  5
11
330
3
100
AcDbSymbolTableRecord
100
AcDbTextStyleTableRecord
  2
STANDARD
 70
     0
 40
0.0
 41
1.0
 50
0.0
 71
     0
 42
2.5
  3
txt
  4

  0
ENDTAB
  0
TABLE
  2
VIEW
  5
6
330
0
100
AcDbSymbolTable
 70
     0
  0
ENDTAB
  0
TABLE
  2
UCS
  5
7
330
0
100
AcDbSymbolTable
 70
     0
  0
ENDTAB
  0
TABLE
  2
APPID
  5
9
330
0
100
AcDbSymbolTable
 70
     2
  0
APPID
  5
12
330
9
100
AcDbSymbolTableRecord
100
AcDbRegAppTableRecord
  2
ACAD
 70
     0
  0
ENDTAB
  0
TABLE
  2
DIMSTYLE
  5
A
330
0
100
AcDbSymbolTable
 70
     1
  0
DIMSTYLE
105
27
330
A
100
AcDbSymbolTableRecord
100
AcDbDimStyleTableRecord
  2
ISO-25
 70
     0
  3

  4

  5

  6

  7

 40
1.0
 41
2.5
 42
0.625
 43
3.75
 44
1.25
 45
0.0
 46
0.0
 47
0.0
 48
0.0
140
2.5
141
2.5
142
0.0
143
0.03937007874016
144
1.0
145
0.0
146
1.0
147
0.625
 71
     0
 72
     0
 73
     0
 74
     0
 75
     0
 76
     0
 77
     1
 78
     8
170
     0
171
     3
172
     1
173
     0
174
     0
175
     0
176
     0
177
     0
178
     0
270
     2
271
     2
272
     2
273
     2
274
     3
340
11
275
     0
280
     0
281
     0
282
     0
283
     0
284
     8
285
     0
286
     0
287
     3
288
     0
  0
ENDTAB
  0
TABLE
  2
BLOCK_RECORD
  5
1
330
0
100
AcDbSymbolTable
 70
     1
  0
BLOCK_RECORD
  5
1F
330
1
100
AcDbSymbolTableRecord
100
AcDbBlockTableRecord
  2
*MODEL_SPACE
  0
BLOCK_RECORD
  5
1B
330
1
100
AcDbSymbolTableRecord
100
AcDbBlockTableRecord
  2
*PAPER_SPACE
  0
ENDTAB
  0
ENDSEC
  0
SECTION
  2
BLOCKS
  0
BLOCK
  5
20
330
1F
100
AcDbEntity
  8
0
100
AcDbBlockBegin
  2
*MODEL_SPACE
 70
     0
 10
0.0
 20
0.0
 30
0.0
  3
*MODEL_SPACE
  1

  0
ENDBLK
  5
21
330
1F
100
AcDbEntity
  8
0
100
AcDbBlockEnd
  0
BLOCK
  5
1C
330
1B
100
AcDbEntity
 67
     1
  8
0
100
AcDbBlockBegin
  2
*PAPER_SPACE
  1

  0
ENDBLK
  5
1D
330
1B
100
AcDbEntity
 67
     1
  8
0
100
AcDbBlockEnd
  0
ENDSEC
  0
SECTION
  2
ENTITIES
  0
LINE
  5
100
100
AcDbEntity
  8
Layer_1
 62
7
100
AcDbLine
 10
-119.207610
 20
149.276936
 30
0.0
 11
-244.207609
 21
149.276936
 31
0.0
  0
LINE
  5
101
100
AcDbEntity
  8
Layer_1
 62
7
100
AcDbLine
 10
-244.207609
 20
149.276936
 30
0.0
 11
-244.207609
 21
41.276932
 31
0.0
  0
LINE
  5
102
100
AcDbEntity
  8
Layer_1
 62
7
100
AcDbLine
 10
-244.207609
 20
41.276932
 30
0.0
 11
-119.207610
 21
41.276932
 31
0.0
  0
LINE
  5
103
100
AcDbEntity
  8
Layer_1
 62
7
100
AcDbLine
 10
-119.207610
 20
41.276932
 30
0.0
 11
-119.207610
 21
149.276936
 31
0.0
  0
SPLINE
  5
104
100
AcDbEntity
  8
Layer_1
 62
7
100
AcDbSpline
 70
8
 71
3
 72
8
 73
4
 74
0
 40
0
 40
0
 40
0
 40
0
 40
1
 40
1
 40
1
 40
1
 10
-236.806562
 20
114.562047
 30
0.0
 10
-237.359546
 20
114.447846
 30
0.0
 10
-237.912529
 20
114.333654
 30
0.0
 10
-238.473925
 20
114.341618
 30
0.0
  0
SPLINE
  5
105
100
AcDbEntity
  8
Layer_1
 62
7
100
AcDbSpline
 70
8
 71
3
 72
8
 73
4
 74
0
 40
0
 40
0
 40
0
 40
0
 40
1
 40
1
 40
1
 40
1
 10
-238.473925
 20
114.341618
 30
0.0
 10
-239.034738
 20
114.349576
 30
0.0
 10
-239.603955
 20
114.479433
 30
0.0
 10
-240.111466
 20
114.717408
 30
0.0
  0
SPLINE
  5
106
100
AcDbEntity
  8
Layer_1
 62
7
100
AcDbSpline
 70
8
 71
3
 72
8
 73
4
 74
0
 40
0
 40
0
 40
0
 40
0
 40
1
 40
1
 40
1
 40
1
 10
-240.111466
 20
114.717408
 30
0.0
 10
-240.619441
 20
114.955606
 30
0.0
 10
-241.065600
 20
115.302122
 30
0.0
 10
-241.511746
 20
115.648634
 30
0.0
  0
SPLINE
  5
107
100
AcDbEntity
  8
Layer_1
 62
7
100
AcDbSpline
 70
8
 71
3
 72
8
 73
4
 74
0
 40
0
 40
0
 40
0
 40
0
 40
1
 40
1
 40
1
 40
1
 10
-241.511746
 20
115.648634
 30
0.0
 10
-241.913514
 20
116.141707
 30
0.0
 10
-242.315278
 20
116.634769
 30
0.0
 10
-242.580767
 20
117.206983
 30
0.0
  0
SPLINE
  5
108
100
AcDbEntity
  8
Layer_1
 62
7
100
AcDbSpline
 70
8
 71
3
 72
8
 73
4
 74
0
 40
0
 40
0
 40
0
 40
0
 40
1
 40
1
 40
1
 40
1
 10
-242.580767
 20
117.206983
 30
0.0
 10
-242.846369
 20
117.779423
 30
0.0
 10
-242.975590
 20
118.431080
 30
0.0
 10
-242.948155
 20
119.061477
 30
0.0
  0
SPLINE
  5
109
100
AcDbEntity
  8
Layer_1
 62
7
100
AcDbSpline
 70
8
 71
3
 72
8
 73
4
 74
0
 40
0
 40
0
 40
0
 40
0
 40
1
 40
1
 40
1
 40
1
 10
-242.948155
 20
119.061477
 30
0.0
 10
-242.920723
 20
119.691769
 30
0.0
 10
-242.736697
 20
120.300816
 30
0.0
 10
-242.552672
 20
120.909866
 30
0.0
  0
SPLINE
  5
10a
100
AcDbEntity
  8
Layer_1
 62
7
100
AcDbSpline
 70
8
 71
3
 72
8
 73
4
 74
0
 40
0
 40
0
 40
0
 40
0
 40
1
 40
1
 40
1
 40
1
 10
-242.552672
 20
120.909866
 30
0.0
 10
-242.216920
 20
121.474372
 30
0.0
 10
-241.881166
 20
122.038879
 30
0.0
 10
-241.416575
 20
122.494736
 30
0.0
  0
SPLINE
  5
10b
100
AcDbEntity
  8
Layer_1
 62
7
100
AcDbSpline
 70
8
 71
3
 72
8
 73
4
 74
0
 40
0
 40
0
 40
0
 40
0
 40
1
 40
1
 40
1
 40
1
 10
-241.416575
 20
122.494736
 30
0.0
 10
-240.951755
 20
122.950810
 30
0.0
 10
-240.357965
 20
123.298121
 30
0.0
 10
-239.732620
 20
123.479875
 30
0.0
  0
SPLINE
  5
10c
100
AcDbEntity
  8
Layer_1
 62
7
100
AcDbSpline
 70
8
 71
3
 72
8
 73
4
 74
0
 40
0
 40
0
 40
0
 40
0
 40
1
 40
1
 40
1
 40
1
 10
-239.732620
 20
123.479875
 30
0.0
 10
-239.107416
 20
123.661595
 30
0.0
 10
-238.450665
 20
123.677828
 30
0.0
 10
-237.793914
 20
123.694062
 30
0.0
  0
SPLINE
  5
10d
100
AcDbEntity
  8
Layer_1
 62
7
100
AcDbSpline
 70
8
 71
3
 72
8
 73
4
 74
0
 40
0
 40
0
 40
0
 40
0
 40
1
 40
1
 40
1
 40
1
 10
-237.793914
 20
123.694062
 30
0.0
 10
-237.153300
 20
123.549180
 30
0.0
 10
-236.512687
 20
123.404298
 30
0.0
 10
-235.935591
 20
123.103308
 30
0.0
  0
SPLINE
  5
10e
100
AcDbEntity
  8
Layer_1
 62
7
100
AcDbSpline
 70
8
 71
3
 72
8
 73
4
 74
0
 40
0
 40
0
 40
0
 40
0
 40
1
 40
1
 40
1
 40
1
 10
-235.935591
 20
123.103308
 30
0.0
 10
-235.358212
 20
122.802169
 30
0.0
 10
-234.844412
 20
122.344763
 30
0.0
 10
-234.478302
 20
121.806184
 30
0.0
  0
SPLINE
  5
10f
100
AcDbEntity
  8
Layer_1
 62
7
100
AcDbSpline
 70
8
 71
3
 72
8
 73
4
 74
0
 40
0
 40
0
 40
0
 40
0
 40
1
 40
1
 40
1
 40
1
 10
-234.478302
 20
121.806184
 30
0.0
 10
-234.112283
 20
121.267724
 30
0.0
 10
-233.893896
 20
120.648116
 30
0.0
 10
-233.675507
 20
120.028503
 30
0.0
  0
SPLINE
  5
110
100
AcDbEntity
  8
Layer_1
 62
7
100
AcDbSpline
 70
8
 71
3
 72
8
 73
4
 74
0
 40
0
 40
0
 40
0
 40
0
 40
1
 40
1
 40
1
 40
1
 10
-233.675507
 20
120.028503
 30
0.0
 10
-233.615340
 20
119.374456
 30
0.0
 10
-233.555170
 20
118.720406
 30
0.0
 10
-233.663061
 20
118.078525
 30
0.0
  0
SPLINE
  5
111
100
AcDbEntity
  8
Layer_1
 62
7
100
AcDbSpline
 70
8
 71
3
 72
8
 73
4
 74
0
 40
0
 40
0
 40
0
 40
0
 40
1
 40
1
 40
1
 40
1
 10
-233.663061
 20
118.078525
 30
0.0
 10
-233.771036
 20
117.436328
 30
0.0
 10
-234.047278
 20
116.806318
 30
0.0
 10
-234.446349
 20
116.291689
 30
0.0
  0
SPLINE
  5
112
100
AcDbEntity
  8
Layer_1
 62
7
100
AcDbSpline
 70
8
 71
3
 72
8
 73
4
 74
0
 40
0
 40
0
 40
0
 40
0
 40
1
 40
1
 40
1
 40
1
 10
-234.446349
 20
116.291689
 30
0.0
 10
-234.845332
 20
115.777175
 30
0.0
 10
-235.367099
 20
115.377989
 30
0.0
 10
-235.888869
 20
114.978797
 30
0.0
  0
LINE
  5
113
100
AcDbEntity
  8
Layer_1
 62
7
100
AcDbLine
 10
-236.806562
 20
114.562047
 30
0.0
 11
-236.806562
 21
114.562047
 31
0.0
  0
SPLINE
  5
114
100
AcDbEntity
  8
Layer_1
 62
7
100
AcDbSpline
 70
8
 71
3
 72
8
 73
4
 74
0
 40
0
 40
0
 40
0
 40
0
 40
1
 40
1
 40
1
 40
1
 10
-235.888908
 20
114.978797
 30
0.0
 10
-235.986684
 20
114.923738
 30
0.0
 10
-236.084457
 20
114.868679
 30
0.0
 10
-236.184460
 20
114.817809
 30
0.0
  0
SPLINE
  5
115
100
AcDbEntity
  8
Layer_1
 62
7
100
AcDbSpline
 70
8
 71
3
 72
8
 73
4
 74
0
 40
0
 40
0
 40
0
 40
0
 40
1
 40
1
 40
1
 40
1
 10
-236.184460
 20
114.817809
 30
0.0
 10
-236.284462
 20
114.766935
 30
0.0
 10
-236.386695
 20
114.720253
 30
0.0
 10
-236.490747
 20
114.678323
 30
0.0
  0
SPLINE
  5
116
100
AcDbEntity
  8
Layer_1
 62
7
100
AcDbSpline
 70
8
 71
3
 72
8
 73
4
 74
0
 40
0
 40
0
 40
0
 40
0
 40
1
 40
1
 40
1
 40
1
 10
-236.490747
 20
114.678323
 30
0.0
 10
-236.594800
 20
114.636393
 30
0.0
 10
-236.700681
 20
114.599219
 30
0.0
 10
-236.806562
 20
114.562047
 30
0.0
  0
SPLINE
  5
117
100
AcDbEntity
  8
Layer_1
 62
7
100
AcDbSpline
 70
8
 71
3
 72
8
 73
4
 74
0
 40
0
 40
0
 40
0
 40
0
 40
1
 40
1
 40
1
 40
1
 10
-123.706560
 20
114.562033
 30
0.0
 10
-124.259543
 20
114.447843
 30
0.0
 10
-124.812521
 20
114.333654
 30
0.0
 10
-125.373920
 20
114.341615
 30
0.0
  0
SPLINE
  5
118
100
AcDbEntity
  8
Layer_1
 62
7
100
AcDbSpline
 70
8
 71
3
 72
8
 73
4
 74
0
 40
0
 40
0
 40
0
 40
0
 40
1
 40
1
 40
1
 40
1
 10
-125.373920
 20
114.341615
 30
0.0
 10
-125.934738
 20
114.349574
 30
0.0
 10
-126.503958
 20
114.479427
 30
0.0
 10
-127.011470
 20
114.717400
 30
0.0
  0
SPLINE
  5
119
100
AcDbEntity
  8
Layer_1
 62
7
100
AcDbSpline
 70
8
 71
3
 72
8
 73
4
 74
0
 40
0
 40
0
 40
0
 40
0
 40
1
 40
1
 40
1
 40
1
 10
-127.011470
 20
114.717400
 30
0.0
 10
-127.519441
 20
114.955592
 30
0.0
 10
-127.965601
 20
115.302096
 30
0.0
 10
-128.411755
 20
115.648597
 30
0.0
  0
SPLINE
  5
11a
100
AcDbEntity
  8
Layer_1
 62
7
100
AcDbSpline
 70
8
 71
3
 72
8
 73
4
 74
0
 40
0
 40
0
 40
0
 40
0
 40
1
 40
1
 40
1
 40
1
 10
-128.411755
 20
115.648597
 30
0.0
 10
-128.813518
 20
116.141659
 30
0.0
 10
-129.215278
 20
116.634710
 30
0.0
 10
-129.480770
 20
117.206916
 30
0.0
  0
SPLINE
  5
11b
100
AcDbEntity
  8
Layer_1
 62
7
100
AcDbSpline
 70
8
 71
3
 72
8
 73
4
 74
0
 40
0
 40
0
 40
0
 40
0
 40
1
 40
1
 40
1
 40
1
 10
-129.480770
 20
117.206916
 30
0.0
 10
-129.746367
 20
117.779347
 30
0.0
 10
-129.875590
 20
118.430981
 30
0.0
 10
-129.848156
 20
119.061364
 30
0.0
  0
SPLINE
  5
11c
100
AcDbEntity
  8
Layer_1
 62
7
100
AcDbSpline
 70
8
 71
3
 72
8
 73
4
 74
0
 40
0
 40
0
 40
0
 40
0
 40
1
 40
1
 40
1
 40
1
 10
-129.848156
 20
119.061364
 30
0.0
 10
-129.820724
 20
119.691640
 30
0.0
 10
-129.636701
 20
120.300669
 30
0.0
 10
-129.452675
 20
120.909705
 30
0.0
  0
SPLINE
  5
11d
100
AcDbEntity
  8
Layer_1
 62
7
100
AcDbSpline
 70
8
 71
3
 72
8
 73
4
 74
0
 40
0
 40
0
 40
0
 40
0
 40
1
 40
1
 40
1
 40
1
 10
-129.452675
 20
120.909705
 30
0.0
 10
-129.116926
 20
121.474203
 30
0.0
 10
-128.781167
 20
122.038696
 30
0.0
 10
-128.316578
 20
122.494538
 30
0.0
  0
SPLINE
  5
11e
100
AcDbEntity
  8
Layer_1
 62
7
100
AcDbSpline
 70
8
 71
3
 72
8
 73
4
 74
0
 40
0
 40
0
 40
0
 40
0
 40
1
 40
1
 40
1
 40
1
 10
-128.316578
 20
122.494538
 30
0.0
 10
-127.851758
 20
122.950604
 30
0.0
 10
-127.257968
 20
123.297909
 30
0.0
 10
-126.632623
 20
123.479657
 30
0.0
  0
SPLINE
  5
11f
100
AcDbEntity
  8
Layer_1
 62
7
100
AcDbSpline
 70
8
 71
3
 72
8
 73
4
 74
0
 40
0
 40
0
 40
0
 40
0
 40
1
 40
1
 40
1
 40
1
 10
-126.632623
 20
123.479657
 30
0.0
 10
-126.007413
 20
123.661372
 30
0.0
 10
-125.350662
 20
123.677608
 30
0.0
 10
-124.693909
 20
123.693844
 30
0.0
  0
SPLINE
  5
120
100
AcDbEntity
  8
Layer_1
 62
7
100
AcDbSpline
 70
8
 71
3
 72
8
 73
4
 74
0
 40
0
 40
0
 40
0
 40
0
 40
1
 40
1
 40
1
 40
1
 10
-124.693909
 20
123.693844
 30
0.0
 10
-124.053304
 20
123.548960
 30
0.0
 10
-123.412685
 20
123.404081
 30
0.0
 10
-122.835588
 20
123.103102
 30
0.0
  0
SPLINE
  5
121
100
AcDbEntity
  8
Layer_1
 62
7
100
AcDbSpline
 70
8
 71
3
 72
8
 73
4
 74
0
 40
0
 40
0
 40
0
 40
0
 40
1
 40
1
 40
1
 40
1
 10
-122.835588
 20
123.103102
 30
0.0
 10
-122.258209
 20
122.801971
 30
0.0
 10
-121.744399
 20
122.344576
 30
0.0
 10
-121.378297
 20
121.806006
 30
0.0
  0
SPLINE
  5
122
100
AcDbEntity
  8
Layer_1
 62
7
100
AcDbSpline
 70
8
 71
3
 72
8
 73
4
 74
0
 40
0
 40
0
 40
0
 40
0
 40
1
 40
1
 40
1
 40
1
 10
-121.378297
 20
121.806006
 30
0.0
 10
-121.012277
 20
121.267563
 30
0.0
 10
-120.793888
 20
120.647964
 30
0.0
 10
-120.575499
 20
120.028365
 30
0.0
  0
SPLINE
  5
123
100
AcDbEntity
  8
Layer_1
 62
7
100
AcDbSpline
 70
8
 71
3
 72
8
 73
4
 74
0
 40
0
 40
0
 40
0
 40
0
 40
1
 40
1
 40
1
 40
1
 10
-120.575499
 20
120.028365
 30
0.0
 10
-120.515335
 20
119.374337
 30
0.0
 10
-120.455168
 20
118.720298
 30
0.0
 10
-120.563025
 20
118.078438
 30
0.0
  0
SPLINE
  5
124
100
AcDbEntity
  8
Layer_1
 62
7
100
AcDbSpline
 70
8
 71
3
 72
8
 73
4
 74
0
 40
0
 40
0
 40
0
 40
0
 40
1
 40
1
 40
1
 40
1
 10
-120.563025
 20
118.078438
 30
0.0
 10
-120.671000
 20
117.436255
 30
0.0
 10
-120.947242
 20
116.806256
 30
0.0
 10
-121.346310
 20
116.291635
 30
0.0
  0
SPLINE
  5
125
100
AcDbEntity
  8
Layer_1
 62
7
100
AcDbSpline
 70
8
 71
3
 72
8
 73
4
 74
0
 40
0
 40
0
 40
0
 40
0
 40
1
 40
1
 40
1
 40
1
 10
-121.346310
 20
116.291635
 30
0.0
 10
-121.745293
 20
115.777133
 30
0.0
 10
-122.267063
 20
115.377958
 30
0.0
 10
-122.788832
 20
114.978780
 30
0.0
  0
LINE
  5
126
100
AcDbEntity
  8
Layer_1
 62
7
100
AcDbLine
 10
-123.706560
 20
114.562033
 30
0.0
 11
-123.706560
 21
114.562033
 31
0.0
  0
SPLINE
  5
127
100
AcDbEntity
  8
Layer_1
 62
7
100
AcDbSpline
 70
8
 71
3
 72
8
 73
4
 74
0
 40
0
 40
0
 40
0
 40
0
 40
1
 40
1
 40
1
 40
1
 10
-122.788903
 20
114.978780
 30
0.0
 10
-122.886684
 20
114.923718
 30
0.0
 10
-122.984458
 20
114.868665
 30
0.0
 10
-123.084457
 20
114.817794
 30
0.0
  0
SPLINE
  5
128
100
AcDbEntity
  8
Layer_1
 62
7
100
AcDbSpline
 70
8
 71
3
 72
8
 73
4
 74
0
 40
0
 40
0
 40
0
 40
0
 40
1
 40
1
 40
1
 40
1
 10
-123.084457
 20
114.817794
 30
0.0
 10
-123.184460
 20
114.766930
 30
0.0
 10
-123.286689
 20
114.720239
 30
0.0
 10
-123.390745
 20
114.678315
 30
0.0
  0
SPLINE
  5
129
100
AcDbEntity
  8
Layer_1
 62
7
100
AcDbSpline
 70
8
 71
3
 72
8
 73
4
 74
0
 40
0
 40
0
 40
0
 40
0
 40
1
 40
1
 40
1
 40
1
 10
-123.390745
 20
114.678315
 30
0.0
 10
-123.494797
 20
114.636382
 30
0.0
 10
-123.600681
 20
114.599211
 30
0.0
 10
-123.706560
 20
114.562033
 30
0.0
  0
SPLINE
  5
12a
100
AcDbEntity
  8
Layer_1
 62
7
100
AcDbSpline
 70
8
 71
3
 72
8
 73
4
 74
0
 40
0
 40
0
 40
0
 40
0
 40
1
 40
1
 40
1
 40
1
 10
-233.564168
 20
71.727411
 30
0.0
 10
-233.626437
 20
71.166249
 30
0.0
 10
-233.688707
 20
70.605078
 30
0.0
 10
-233.869730
 20
70.073643
 30
0.0
  0
SPLINE
  5
12b
100
AcDbEntity
  8
Layer_1
 62
7
100
AcDbSpline
 70
8
 71
3
 72
8
 73
4
 74
0
 40
0
 40
0
 40
0
 40
0
 40
1
 40
1
 40
1
 40
1
 10
-233.869730
 20
70.073643
 30
0.0
 10
-234.050555
 20
69.542774
 30
0.0
 10
-234.349885
 20
69.041576
 30
0.0
 10
-234.732960
 20
68.632461
 30
0.0
  0
SPLINE
  5
12c
100
AcDbEntity
  8
Layer_1
 62
7
100
AcDbSpline
 70
8
 71
3
 72
8
 73
4
 74
0
 40
0
 40
0
 40
0
 40
0
 40
1
 40
1
 40
1
 40
1
 10
-234.732960
 20
68.632461
 30
0.0
 10
-235.116390
 20
68.222973
 30
0.0
 10
-235.583707
 20
67.905741
 30
0.0
 10
-236.051028
 20
67.588510
 30
0.0
  0
SPLINE
  5
12d
100
AcDbEntity
  8
Layer_1
 62
7
100
AcDbSpline
 70
8
 71
3
 72
8
 73
4
 74
0
 40
0
 40
0
 40
0
 40
0
 40
1
 40
1
 40
1
 40
1
 10
-236.051028
 20
67.588510
 30
0.0
 10
-236.644005
 20
67.358775
 30
0.0
 10
-237.236991
 20
67.129043
 30
0.0
 10
-237.863137
 20
67.053365
 30
0.0
  0
SPLINE
  5
12e
100
AcDbEntity
  8
Layer_1
 62
7
100
AcDbSpline
 70
8
 71
3
 72
8
 73
4
 74
0
 40
0
 40
0
 40
0
 40
0
 40
1
 40
1
 40
1
 40
1
 10
-237.863137
 20
67.053365
 30
0.0
 10
-238.489518
 20
66.977656
 30
0.0
 10
-239.149091
 20
67.055905
 30
0.0
 10
-239.740048
 20
67.277001
 30
0.0
  0
SPLINE
  5
12f
100
AcDbEntity
  8
Layer_1
 62
7
100
AcDbSpline
 70
8
 71
3
 72
8
 73
4
 74
0
 40
0
 40
0
 40
0
 40
0
 40
1
 40
1
 40
1
 40
1
 10
-239.740048
 20
67.277001
 30
0.0
 10
-240.330914
 20
67.497840
 30
0.0
 10
-240.853194
 20
67.861043
 30
0.0
 10
-241.375469
 20
68.224252
 30
0.0
  0
SPLINE
  5
130
100
AcDbEntity
  8
Layer_1
 62
7
100
AcDbSpline
 70
8
 71
3
 72
8
 73
4
 74
0
 40
0
 40
0
 40
0
 40
0
 40
1
 40
1
 40
1
 40
1
 10
-241.375469
 20
68.224252
 30
0.0
 10
-241.808502
 20
68.717988
 30
0.0
 10
-242.241544
 20
69.211711
 30
0.0
 10
-242.531457
 20
69.794392
 30
0.0
  0
SPLINE
  5
131
100
AcDbEntity
  8
Layer_1
 62
7
100
AcDbSpline
 70
8
 71
3
 72
8
 73
4
 74
0
 40
0
 40
0
 40
0
 40
0
 40
1
 40
1
 40
1
 40
1
 10
-242.531457
 20
69.794392
 30
0.0
 10
-242.821514
 20
70.377365
 30
0.0
 10
-242.968303
 20
71.049378
 30
0.0
 10
-242.947924
 20
71.700247
 30
0.0
  0
SPLINE
  5
132
100
AcDbEntity
  8
Layer_1
 62
7
100
AcDbSpline
 70
8
 71
3
 72
8
 73
4
 74
0
 40
0
 40
0
 40
0
 40
0
 40
1
 40
1
 40
1
 40
1
 10
-242.947924
 20
71.700247
 30
0.0
 10
-242.927519
 20
72.350976
 30
0.0
 10
-242.740081
 20
72.980563
 30
0.0
 10
-242.552615
 20
73.610161
 30
0.0
  0
SPLINE
  5
133
100
AcDbEntity
  8
Layer_1
 62
7
100
AcDbSpline
 70
8
 71
3
 72
8
 73
4
 74
0
 40
0
 40
0
 40
0
 40
0
 40
1
 40
1
 40
1
 40
1
 10
-242.552615
 20
73.610161
 30
0.0
 10
-242.216917
 20
74.174634
 30
0.0
 10
-241.881220
 20
74.739106
 30
0.0
 10
-241.416702
 20
75.194946
 30
0.0
  0
SPLINE
  5
134
100
AcDbEntity
  8
Layer_1
 62
7
100
AcDbSpline
 70
8
 71
3
 72
8
 73
4
 74
0
 40
0
 40
0
 40
0
 40
0
 40
1
 40
1
 40
1
 40
1
 10
-241.416702
 20
75.194946
 30
0.0
 10
-240.951964
 20
75.651011
 30
0.0
 10
-240.358278
 20
75.998325
 30
0.0
 10
-239.733034
 20
76.180082
 30
0.0
  0
SPLINE
  5
135
100
AcDbEntity
  8
Layer_1
 62
7
100
AcDbSpline
 70
8
 71
3
 72
8
 73
4
 74
0
 40
0
 40
0
 40
0
 40
0
 40
1
 40
1
 40
1
 40
1
 10
-239.733034
 20
76.180082
 30
0.0
 10
-239.107929
 20
76.361802
 30
0.0
 10
-238.451280
 20
76.378036
 30
0.0
 10
-237.794625
 20
76.394272
 30
0.0
  0
SPLINE
  5
136
100
AcDbEntity
  8
Layer_1
 62
7
100
AcDbSpline
 70
8
 71
3
 72
8
 73
4
 74
0
 40
0
 40
0
 40
0
 40
0
 40
1
 40
1
 40
1
 40
1
 10
-237.794625
 20
76.394272
 30
0.0
 10
-237.154116
 20
76.249387
 30
0.0
 10
-236.513601
 20
76.104503
 30
0.0
 10
-235.936604
 20
75.803519
 30
0.0
  0
SPLINE
  5
137
100
AcDbEntity
  8
Layer_1
 62
7
100
AcDbSpline
 70
8
 71
3
 72
8
 73
4
 74
0
 40
0
 40
0
 40
0
 40
0
 40
1
 40
1
 40
1
 40
1
 10
-235.936604
 20
75.803519
 30
0.0
 10
-235.359318
 20
75.502385
 30
0.0
 10
-234.845612
 20
75.044993
 30
0.0
 10
-234.479569
 20
74.506434
 30
0.0
  0
SPLINE
  5
138
100
AcDbEntity
  8
Layer_1
 62
7
100
AcDbSpline
 70
8
 71
3
 72
8
 73
4
 74
0
 40
0
 40
0
 40
0
 40
0
 40
1
 40
1
 40
1
 40
1
 10
-234.479569
 20
74.506434
 30
0.0
 10
-234.113609
 20
73.967999
 30
0.0
 10
-233.895248
 20
73.348434
 30
0.0
 10
-233.676893
 20
72.728866
 30
0.0
  0
LINE
  5
139
100
AcDbEntity
  8
Layer_1
 62
7
100
AcDbLine
 10
-233.564168
 20
71.727411
 30
0.0
 11
-233.564168
 21
71.727411
 31
0.0
  0
SPLINE
  5
13a
100
AcDbEntity
  8
Layer_1
 62
7
100
AcDbSpline
 70
8
 71
3
 72
8
 73
4
 74
0
 40
0
 40
0
 40
0
 40
0
 40
1
 40
1
 40
1
 40
1
 10
-233.676893
 20
72.728866
 30
0.0
 10
-233.654767
 20
72.618869
 30
0.0
 10
-233.632615
 20
72.508876
 30
0.0
 10
-233.615143
 20
72.398050
 30
0.0
  0
SPLINE
  5
13b
100
AcDbEntity
  8
Layer_1
 62
7
100
AcDbSpline
 70
8
 71
3
 72
8
 73
4
 74
0
 40
0
 40
0
 40
0
 40
0
 40
1
 40
1
 40
1
 40
1
 10
-233.615143
 20
72.398050
 30
0.0
 10
-233.597729
 20
72.287233
 30
0.0
 10
-233.584866
 20
72.175591
 30
0.0
 10
-233.577153
 20
72.063679
 30
0.0
  0
SPLINE
  5
13c
100
AcDbEntity
  8
Layer_1
 62
7
100
AcDbSpline
 70
8
 71
3
 72
8
 73
4
 74
0
 40
0
 40
0
 40
0
 40
0
 40
1
 40
1
 40
1
 40
1
 10
-233.577153
 20
72.063679
 30
0.0
 10
-233.569420
 20
71.951769
 30
0.0
 10
-233.566767
 20
71.839595
 30
0.0
 10
-233.564142
 20
71.727411
 30
0.0
  0
SPLINE
  5
13d
100
AcDbEntity
  8
Layer_1
 62
7
100
AcDbSpline
 70
8
 71
3
 72
8
 73
4
 74
0
 40
0
 40
0
 40
0
 40
0
 40
1
 40
1
 40
1
 40
1
 10
-128.954671
 20
68.768577
 30
0.0
 10
-129.234136
 20
69.259183
 30
0.0
 10
-129.513612
 20
69.749793
 30
0.0
 10
-129.679519
 20
70.286153
 30
0.0
  0
SPLINE
  5
13e
100
AcDbEntity
  8
Layer_1
 62
7
100
AcDbSpline
 70
8
 71
3
 72
8
 73
4
 74
0
 40
0
 40
0
 40
0
 40
0
 40
1
 40
1
 40
1
 40
1
 10
-129.679519
 20
70.286153
 30
0.0
 10
-129.845249
 20
70.821949
 30
0.0
 10
-129.897643
 20
71.403403
 30
0.0
 10
-129.828160
 20
71.959587
 30
0.0
  0
SPLINE
  5
13f
100
AcDbEntity
  8
Layer_1
 62
7
100
AcDbSpline
 70
8
 71
3
 72
8
 73
4
 74
0
 40
0
 40
0
 40
0
 40
0
 40
1
 40
1
 40
1
 40
1
 10
-129.828160
 20
71.959587
 30
0.0
 10
-129.758615
 20
72.516279
 30
0.0
 10
-129.566964
 20
73.047658
 30
0.0
 10
-129.375309
 20
73.579035
 30
0.0
  0
SPLINE
  5
140
100
AcDbEntity
  8
Layer_1
 62
7
100
AcDbSpline
 70
8
 71
3
 72
8
 73
4
 74
0
 40
0
 40
0
 40
0
 40
0
 40
1
 40
1
 40
1
 40
1
 10
-129.375309
 20
73.579035
 30
0.0
 10
-129.030547
 20
74.113501
 30
0.0
 10
-128.685775
 20
74.647974
 30
0.0
 10
-128.223617
 20
75.077304
 30
0.0
  0
SPLINE
  5
141
100
AcDbEntity
  8
Layer_1
 62
7
100
AcDbSpline
 70
8
 71
3
 72
8
 73
4
 74
0
 40
0
 40
0
 40
0
 40
0
 40
1
 40
1
 40
1
 40
1
 10
-128.223617
 20
75.077304
 30
0.0
 10
-127.761280
 20
75.506801
 30
0.0
 10
-127.181458
 20
75.831075
 30
0.0
 10
-126.573441
 20
75.999787
 30
0.0
  0
SPLINE
  5
142
100
AcDbEntity
  8
Layer_1
 62
7
100
AcDbSpline
 70
8
 71
3
 72
8
 73
4
 74
0
 40
0
 40
0
 40
0
 40
0
 40
1
 40
1
 40
1
 40
1
 10
-126.573441
 20
75.999787
 30
0.0
 10
-125.965520
 20
76.168469
 30
0.0
 10
-125.329411
 20
76.181648
 30
0.0
 10
-124.693302
 20
76.194825
 30
0.0
  0
SPLINE
  5
143
100
AcDbEntity
  8
Layer_1
 62
7
100
AcDbSpline
 70
8
 71
3
 72
8
 73
4
 74
0
 40
0
 40
0
 40
0
 40
0
 40
1
 40
1
 40
1
 40
1
 10
-124.693302
 20
76.194825
 30
0.0
 10
-124.052677
 20
76.049938
 30
0.0
 10
-123.412050
 20
75.905054
 30
0.0
 10
-122.834953
 20
75.604064
 30
0.0
  0
SPLINE
  5
144
100
AcDbEntity
  8
Layer_1
 62
7
100
AcDbSpline
 70
8
 71
3
 72
8
 73
4
 74
0
 40
0
 40
0
 40
0
 40
0
 40
1
 40
1
 40
1
 40
1
 10
-122.834953
 20
75.604064
 30
0.0
 10
-122.257566
 20
75.302924
 30
0.0
 10
-121.743764
 20
74.845518
 30
0.0
 10
-121.377662
 20
74.306951
 30
0.0
  0
SPLINE
  5
145
100
AcDbEntity
  8
Layer_1
 62
7
100
AcDbSpline
 70
8
 71
3
 72
8
 73
4
 74
0
 40
0
 40
0
 40
0
 40
0
 40
1
 40
1
 40
1
 40
1
 10
-121.377662
 20
74.306951
 30
0.0
 10
-121.011640
 20
73.768499
 30
0.0
 10
-120.793245
 20
73.148922
 30
0.0
 10
-120.574850
 20
72.529340
 30
0.0
  0
SPLINE
  5
146
100
AcDbEntity
  8
Layer_1
 62
7
100
AcDbSpline
 70
8
 71
3
 72
8
 73
4
 74
0
 40
0
 40
0
 40
0
 40
0
 40
1
 40
1
 40
1
 40
1
 10
-120.574850
 20
72.529340
 30
0.0
 10
-120.514680
 20
71.875327
 30
0.0
 10
-120.454510
 20
71.221313
 30
0.0
 10
-120.562376
 20
70.579472
 30
0.0
  0
SPLINE
  5
147
100
AcDbEntity
  8
Layer_1
 62
7
100
AcDbSpline
 70
8
 71
3
 72
8
 73
4
 74
0
 40
0
 40
0
 40
0
 40
0
 40
1
 40
1
 40
1
 40
1
 10
-120.562376
 20
70.579472
 30
0.0
 10
-120.670343
 20
69.937310
 30
0.0
 10
-120.946582
 20
69.307333
 30
0.0
 10
-121.345661
 20
68.792729
 30
0.0
  0
SPLINE
  5
148
100
AcDbEntity
  8
Layer_1
 62
7
100
AcDbSpline
 70
8
 71
3
 72
8
 73
4
 74
0
 40
0
 40
0
 40
0
 40
0
 40
1
 40
1
 40
1
 40
1
 10
-121.345661
 20
68.792729
 30
0.0
 10
-121.744655
 20
68.278255
 30
0.0
 10
-122.266436
 20
67.879105
 30
0.0
 10
-122.788220
 20
67.479958
 30
0.0
  0
SPLINE
  5
149
100
AcDbEntity
  8
Layer_1
 62
7
100
AcDbSpline
 70
8
 71
3
 72
8
 73
4
 74
0
 40
0
 40
0
 40
0
 40
0
 40
1
 40
1
 40
1
 40
1
 10
-122.788279
 20
67.479958
 30
0.0
 10
-123.391718
 20
67.220633
 30
0.0
 10
-123.995163
 20
66.961310
 30
0.0
 10
-124.638966
 20
66.865609
 30
0.0
  0
SPLINE
  5
14a
100
AcDbEntity
  8
Layer_1
 62
7
100
AcDbSpline
 70
8
 71
3
 72
8
 73
4
 74
0
 40
0
 40
0
 40
0
 40
0
 40
1
 40
1
 40
1
 40
1
 10
-124.638966
 20
66.865609
 30
0.0
 10
-125.283087
 20
66.769859
 30
0.0
 10
-125.967628
 20
66.837894
 30
0.0
 10
-126.580389
 20
67.058409
 30
0.0
  0
SPLINE
  5
14b
100
AcDbEntity
  8
Layer_1
 62
7
100
AcDbSpline
 70
8
 71
3
 72
8
 73
4
 74
0
 40
0
 40
0
 40
0
 40
0
 40
1
 40
1
 40
1
 40
1
 10
-126.580389
 20
67.058409
 30
0.0
 10
-127.193009
 20
67.278875
 30
0.0
 10
-127.733891
 20
67.651756
 30
0.0
 10
-128.274772
 20
68.024639
 30
0.0
  0
LINE
  5
14c
100
AcDbEntity
  8
Layer_1
 62
7
100
AcDbLine
 10
-128.954671
 20
68.768577
 30
0.0
 11
-128.954671
 21
68.768577
 31
0.0
  0
SPLINE
  5
14d
100
AcDbEntity
  8
Layer_1
 62
7
100
AcDbSpline
 70
8
 71
3
 72
8
 73
4
 74
0
 40
0
 40
0
 40
0
 40
0
 40
1
 40
1
 40
1
 40
1
 10
-128.274772
 20
68.024639
 30
0.0
 10
-128.357348
 20
68.100607
 30
0.0
 10
-128.439923
 20
68.176587
 30
0.0
 10
-128.519208
 20
68.255971
 30
0.0
  0
SPLINE
  5
14e
100
AcDbEntity
  8
Layer_1
 62
7
100
AcDbSpline
 70
8
 71
3
 72
8
 73
4
 74
0
 40
0
 40
0
 40
0
 40
0
 40
1
 40
1
 40
1
 40
1
 10
-128.519208
 20
68.255971
 30
0.0
 10
-128.598476
 20
68.335354
 30
0.0
 10
-128.674470
 20
68.418155
 30
0.0
 10
-128.746496
 20
68.504160
 30
0.0
  0
SPLINE
  5
14f
100
AcDbEntity
  8
Layer_1
 62
7
100
AcDbSpline
 70
8
 71
3
 72
8
 73
4
 74
0
 40
0
 40
0
 40
0
 40
0
 40
1
 40
1
 40
1
 40
1
 10
-128.746496
 20
68.504160
 30
0.0
 10
-128.818524
 20
68.590161
 30
0.0
 10
-128.886599
 20
68.679369
 30
0.0
 10
-128.954671
 20
68.768577
 30
0.0
  0
ENDSEC
  0
SECTION
  2
OBJECTS
  0
DICTIONARY
  5
C
330
0
100
AcDbDictionary
  3
ACAD_GROUP
350
D
  3
ACAD_MLINESTYLE
350
17
  0
DICTIONARY
  5
D
330
C
100
AcDbDictionary
  0
DICTIONARY
  5
1A
330
C
100
AcDbDictionary
  0
DICTIONARY
  5
17
330
C
100
AcDbDictionary
  3
STANDARD
350
18
  0
DICTIONARY
  5
19
330
C
100
AcDbDictionary
  0
ENDSEC
  0
EOF
