  0
SECTION
  2
BLOCKS
  0
ENDSEC
  0
SECTION
  2
ENTITIES
  0
LINE
  8
0
 10
62.5
 20
54
 11
-62.5
 21
54
  0
LINE
  8
0
 10
-62.5
 20
54
 11
-62.5
 21
-54
  0
LINE
  8
0
 10
-62.5
 20
-54
 11
62.5
 21
-54
  0
LINE
  8
0
 10
62.5
 20
-54
 11
62.5
 21
54
  0
LINE
  8
0
 10
-57.2198
 20
44.5069
 11
-57.4387
 21
44.5276
  0
LINE
  8
0
 10
-57.4387
 20
44.5276
 11
-57.6558
 21
44.562
  0
LINE
  8
0
 10
-57.6558
 20
44.562
 11
-57.8704
 21
44.61
  0
LINE
  8
0
 10
-57.8704
 20
44.61
 11
-58.0816
 21
44.6713
  0
LINE
  8
0
 10
-58.0816
 20
44.6713
 11
-58.2884
 21
44.7458
  0
LINE
  8
0
 10
-58.2884
 20
44.7458
 11
-58.4902
 21
44.8331
  0
LINE
  8
0
 10
-58.4902
 20
44.8331
 11
-58.6861
 21
44.9329
  0
LINE
  8
0
 10
-58.6861
 20
44.9329
 11
-58.8754
 21
45.0448
  0
LINE
  8
0
 10
-58.8754
 20
45.0448
 11
-59.0572
 21
45.1684
  0
LINE
  8
0
 10
-59.0572
 20
45.1684
 11
-59.231
 21
45.3032
  0
LINE
  8
0
 10
-59.231
 20
45.3032
 11
-59.3959
 21
45.4486
  0
LINE
  8
0
 10
-59.3959
 20
45.4486
 11
-59.5514
 21
45.6041
  0
LINE
  8
0
 10
-59.5514
 20
45.6041
 11
-59.6968
 21
45.769
  0
LINE
  8
0
 10
-59.6968
 20
45.769
 11
-59.8316
 21
45.9427
  0
LINE
  8
0
 10
-59.8316
 20
45.9427
 11
-59.9551
 21
46.1246
  0
LINE
  8
0
 10
-59.9551
 20
46.1246
 11
-60.0671
 21
46.3139
  0
LINE
  8
0
 10
-60.0671
 20
46.3139
 11
-60.1669
 21
46.5098
  0
LINE
  8
0
 10
-60.1669
 20
46.5098
 11
-60.2542
 21
46.7116
  0
LINE
  8
0
 10
-60.2542
 20
46.7116
 11
-60.3287
 21
46.9184
  0
LINE
  8
0
 10
-60.3287
 20
46.9184
 11
-60.39
 21
47.1296
  0
LINE
  8
0
 10
-60.39
 20
47.1296
 11
-60.438
 21
47.3442
  0
LINE
  8
0
 10
-60.438
 20
47.3442
 11
-60.4724
 21
47.5613
  0
LINE
  8
0
 10
-60.4724
 20
47.5613
 11
-60.4931
 21
47.7802
  0
LINE
  8
0
 10
-60.4931
 20
47.7802
 11
-60.5
 21
48
  0
LINE
  8
0
 10
-60.5
 20
48
 11
-60.4931
 21
48.2198
  0
LINE
  8
0
 10
-60.4931
 20
48.2198
 11
-60.4724
 21
48.4387
  0
LINE
  8
0
 10
-60.4724
 20
48.4387
 11
-60.438
 21
48.6558
  0
LINE
  8
0
 10
-60.438
 20
48.6558
 11
-60.39
 21
48.8704
  0
LINE
  8
0
 10
-60.39
 20
48.8704
 11
-60.3287
 21
49.0816
  0
LINE
  8
0
 10
-60.3287
 20
49.0816
 11
-60.2542
 21
49.2884
  0
LINE
  8
0
 10
-60.2542
 20
49.2884
 11
-60.1669
 21
49.4902
  0
LINE
  8
0
 10
-60.1669
 20
49.4902
 11
-60.0671
 21
49.6861
  0
LINE
  8
0
 10
-60.0671
 20
49.6861
 11
-59.9551
 21
49.8754
  0
LINE
  8
0
 10
-59.9551
 20
49.8754
 11
-59.8316
 21
50.0572
  0
LINE
  8
0
 10
-59.8316
 20
50.0572
 11
-59.6968
 21
50.231
  0
LINE
  8
0
 10
-59.6968
 20
50.231
 11
-59.5514
 21
50.3959
  0
LINE
  8
0
 10
-59.5514
 20
50.3959
 11
-59.3959
 21
50.5514
  0
LINE
  8
0
 10
-59.3959
 20
50.5514
 11
-59.231
 21
50.6968
  0
LINE
  8
0
 10
-59.231
 20
50.6968
 11
-59.0572
 21
50.8316
  0
LINE
  8
0
 10
-59.0572
 20
50.8316
 11
-58.8754
 21
50.9551
  0
LINE
  8
0
 10
-58.8754
 20
50.9551
 11
-58.6861
 21
51.0671
  0
LINE
  8
0
 10
-58.6861
 20
51.0671
 11
-58.4902
 21
51.1669
  0
LINE
  8
0
 10
-58.4902
 20
51.1669
 11
-58.2884
 21
51.2542
  0
LINE
  8
0
 10
-58.2884
 20
51.2542
 11
-58.0816
 21
51.3287
  0
LINE
  8
0
 10
-58.0816
 20
51.3287
 11
-57.8704
 21
51.39
  0
LINE
  8
0
 10
-57.8704
 20
51.39
 11
-57.6558
 21
51.438
  0
LINE
  8
0
 10
-57.6558
 20
51.438
 11
-57.4387
 21
51.4724
  0
LINE
  8
0
 10
-57.4387
 20
51.4724
 11
-57.2198
 21
51.4931
  0
LINE
  8
0
 10
-57.2198
 20
51.4931
 11
-57
 21
51.5
  0
LINE
  8
0
 10
-57
 20
51.5
 11
-56.7802
 21
51.4931
  0
LINE
  8
0
 10
-56.7802
 20
51.4931
 11
-56.5613
 21
51.4724
  0
LINE
  8
0
 10
-56.5613
 20
51.4724
 11
-56.3442
 21
51.438
  0
LINE
  8
0
 10
-56.3442
 20
51.438
 11
-56.1296
 21
51.39
  0
LINE
  8
0
 10
-56.1296
 20
51.39
 11
-55.9184
 21
51.3287
  0
LINE
  8
0
 10
-55.9184
 20
51.3287
 11
-55.7116
 21
51.2542
  0
LINE
  8
0
 10
-55.7116
 20
51.2542
 11
-55.5098
 21
51.1669
  0
LINE
  8
0
 10
-55.5098
 20
51.1669
 11
-55.3139
 21
51.0671
  0
LINE
  8
0
 10
-55.3139
 20
51.0671
 11
-55.1246
 21
50.9551
  0
LINE
  8
0
 10
-55.1246
 20
50.9551
 11
-54.9427
 21
50.8316
  0
LINE
  8
0
 10
-54.9427
 20
50.8316
 11
-54.769
 21
50.6968
  0
LINE
  8
0
 10
-54.769
 20
50.6968
 11
-54.6041
 21
50.5514
  0
LINE
  8
0
 10
-54.6041
 20
50.5514
 11
-54.4486
 21
50.3959
  0
LINE
  8
0
 10
-54.4486
 20
50.3959
 11
-54.3032
 21
50.231
  0
LINE
  8
0
 10
-54.3032
 20
50.231
 11
-54.1684
 21
50.0572
  0
LINE
  8
0
 10
-54.1684
 20
50.0572
 11
-54.0448
 21
49.8754
  0
LINE
  8
0
 10
-54.0448
 20
49.8754
 11
-53.9329
 21
49.6861
  0
LINE
  8
0
 10
-53.9329
 20
49.6861
 11
-53.8331
 21
49.4902
  0
LINE
  8
0
 10
-53.8331
 20
49.4902
 11
-53.7458
 21
49.2884
  0
LINE
  8
0
 10
-53.7458
 20
49.2884
 11
-53.6713
 21
49.0816
  0
LINE
  8
0
 10
-53.6713
 20
49.0816
 11
-53.61
 21
48.8704
  0
LINE
  8
0
 10
-53.61
 20
48.8704
 11
-53.562
 21
48.6558
  0
LINE
  8
0
 10
-53.562
 20
48.6558
 11
-53.5276
 21
48.4387
  0
LINE
  8
0
 10
-53.5276
 20
48.4387
 11
-53.5069
 21
48.2198
  0
LINE
  8
0
 10
-53.5069
 20
48.2198
 11
-53.5
 21
48
  0
LINE
  8
0
 10
-53.5
 20
48
 11
-53.5069
 21
47.7802
  0
LINE
  8
0
 10
-53.5069
 20
47.7802
 11
-53.5276
 21
47.5613
  0
LINE
  8
0
 10
-53.5276
 20
47.5613
 11
-53.562
 21
47.3442
  0
LINE
  8
0
 10
-53.562
 20
47.3442
 11
-53.61
 21
47.1296
  0
LINE
  8
0
 10
-53.61
 20
47.1296
 11
-53.6713
 21
46.9184
  0
LINE
  8
0
 10
-53.6713
 20
46.9184
 11
-53.7458
 21
46.7116
  0
LINE
  8
0
 10
-53.7458
 20
46.7116
 11
-53.8331
 21
46.5098
  0
LINE
  8
0
 10
-53.8331
 20
46.5098
 11
-53.9329
 21
46.3139
  0
LINE
  8
0
 10
-53.9329
 20
46.3139
 11
-54.0448
 21
46.1246
  0
LINE
  8
0
 10
-54.0448
 20
46.1246
 11
-54.1684
 21
45.9427
  0
LINE
  8
0
 10
-54.1684
 20
45.9427
 11
-54.3032
 21
45.769
  0
LINE
  8
0
 10
-54.3032
 20
45.769
 11
-54.4486
 21
45.6041
  0
LINE
  8
0
 10
-54.4486
 20
45.6041
 11
-54.6041
 21
45.4486
  0
LINE
  8
0
 10
-54.6041
 20
45.4486
 11
-54.769
 21
45.3032
  0
LINE
  8
0
 10
-54.769
 20
45.3032
 11
-54.9427
 21
45.1684
  0
LINE
  8
0
 10
-54.9427
 20
45.1684
 11
-55.1246
 21
45.0448
  0
LINE
  8
0
 10
-55.1246
 20
45.0448
 11
-55.3139
 21
44.9329
  0
LINE
  8
0
 10
-55.3139
 20
44.9329
 11
-55.5098
 21
44.8331
  0
LINE
  8
0
 10
-55.5098
 20
44.8331
 11
-55.7116
 21
44.7458
  0
LINE
  8
0
 10
-55.7116
 20
44.7458
 11
-55.9184
 21
44.6713
  0
LINE
  8
0
 10
-55.9184
 20
44.6713
 11
-56.1296
 21
44.61
  0
LINE
  8
0
 10
-56.1296
 20
44.61
 11
-56.3442
 21
44.562
  0
LINE
  8
0
 10
-56.3442
 20
44.562
 11
-56.5613
 21
44.5276
  0
LINE
  8
0
 10
-56.5613
 20
44.5276
 11
-56.7802
 21
44.5069
  0
LINE
  8
0
 10
-56.7802
 20
44.5069
 11
-57
 21
44.5
  0
LINE
  8
0
 10
-57
 20
44.5
 11
-57.2198
 21
44.5069
  0
LINE
  8
0
 10
-28.7198
 20
44.5069
 11
-28.9387
 21
44.5276
  0
LINE
  8
0
 10
-28.9387
 20
44.5276
 11
-29.1558
 21
44.562
  0
LINE
  8
0
 10
-29.1558
 20
44.562
 11
-29.3704
 21
44.61
  0
LINE
  8
0
 10
-29.3704
 20
44.61
 11
-29.5816
 21
44.6713
  0
LINE
  8
0
 10
-29.5816
 20
44.6713
 11
-29.7884
 21
44.7458
  0
LINE
  8
0
 10
-29.7884
 20
44.7458
 11
-29.9902
 21
44.8331
  0
LINE
  8
0
 10
-29.9902
 20
44.8331
 11
-30.1861
 21
44.9329
  0
LINE
  8
0
 10
-30.1861
 20
44.9329
 11
-30.3754
 21
45.0448
  0
LINE
  8
0
 10
-30.3754
 20
45.0448
 11
-30.5572
 21
45.1684
  0
LINE
  8
0
 10
-30.5572
 20
45.1684
 11
-30.731
 21
45.3032
  0
LINE
  8
0
 10
-30.731
 20
45.3032
 11
-30.8959
 21
45.4486
  0
LINE
  8
0
 10
-30.8959
 20
45.4486
 11
-31.0514
 21
45.6041
  0
LINE
  8
0
 10
-31.0514
 20
45.6041
 11
-31.1968
 21
45.769
  0
LINE
  8
0
 10
-31.1968
 20
45.769
 11
-31.3316
 21
45.9427
  0
LINE
  8
0
 10
-31.3316
 20
45.9427
 11
-31.4551
 21
46.1246
  0
LINE
  8
0
 10
-31.4551
 20
46.1246
 11
-31.5671
 21
46.3139
  0
LINE
  8
0
 10
-31.5671
 20
46.3139
 11
-31.6669
 21
46.5098
  0
LINE
  8
0
 10
-31.6669
 20
46.5098
 11
-31.7542
 21
46.7116
  0
LINE
  8
0
 10
-31.7542
 20
46.7116
 11
-31.8287
 21
46.9184
  0
LINE
  8
0
 10
-31.8287
 20
46.9184
 11
-31.89
 21
47.1296
  0
LINE
  8
0
 10
-31.89
 20
47.1296
 11
-31.938
 21
47.3442
  0
LINE
  8
0
 10
-31.938
 20
47.3442
 11
-31.9724
 21
47.5613
  0
LINE
  8
0
 10
-31.9724
 20
47.5613
 11
-31.9931
 21
47.7802
  0
LINE
  8
0
 10
-31.9931
 20
47.7802
 11
-32
 21
48
  0
LINE
  8
0
 10
-32
 20
48
 11
-31.9931
 21
48.2198
  0
LINE
  8
0
 10
-31.9931
 20
48.2198
 11
-31.9724
 21
48.4387
  0
LINE
  8
0
 10
-31.9724
 20
48.4387
 11
-31.938
 21
48.6558
  0
LINE
  8
0
 10
-31.938
 20
48.6558
 11
-31.89
 21
48.8704
  0
LINE
  8
0
 10
-31.89
 20
48.8704
 11
-31.8287
 21
49.0816
  0
LINE
  8
0
 10
-31.8287
 20
49.0816
 11
-31.7542
 21
49.2884
  0
LINE
  8
0
 10
-31.7542
 20
49.2884
 11
-31.6669
 21
49.4902
  0
LINE
  8
0
 10
-31.6669
 20
49.4902
 11
-31.5671
 21
49.6861
  0
LINE
  8
0
 10
-31.5671
 20
49.6861
 11
-31.4551
 21
49.8754
  0
LINE
  8
0
 10
-31.4551
 20
49.8754
 11
-31.3316
 21
50.0572
  0
LINE
  8
0
 10
-31.3316
 20
50.0572
 11
-31.1968
 21
50.231
  0
LINE
  8
0
 10
-31.1968
 20
50.231
 11
-31.0514
 21
50.3959
  0
LINE
  8
0
 10
-31.0514
 20
50.3959
 11
-30.8959
 21
50.5514
  0
LINE
  8
0
 10
-30.8959
 20
50.5514
 11
-30.731
 21
50.6968
  0
LINE
  8
0
 10
-30.731
 20
50.6968
 11
-30.5572
 21
50.8316
  0
LINE
  8
0
 10
-30.5572
 20
50.8316
 11
-30.3754
 21
50.9551
  0
LINE
  8
0
 10
-30.3754
 20
50.9551
 11
-30.1861
 21
51.0671
  0
LINE
  8
0
 10
-30.1861
 20
51.0671
 11
-29.9902
 21
51.1669
  0
LINE
  8
0
 10
-29.9902
 20
51.1669
 11
-29.7884
 21
51.2542
  0
LINE
  8
0
 10
-29.7884
 20
51.2542
 11
-29.5816
 21
51.3287
  0
LINE
  8
0
 10
-29.5816
 20
51.3287
 11
-29.3704
 21
51.39
  0
LINE
  8
0
 10
-29.3704
 20
51.39
 11
-29.1558
 21
51.438
  0
LINE
  8
0
 10
-29.1558
 20
51.438
 11
-28.9387
 21
51.4724
  0
LINE
  8
0
 10
-28.9387
 20
51.4724
 11
-28.7198
 21
51.4931
  0
LINE
  8
0
 10
-28.7198
 20
51.4931
 11
-28.5
 21
51.5
  0
LINE
  8
0
 10
-28.5
 20
51.5
 11
-28.2802
 21
51.4931
  0
LINE
  8
0
 10
-28.2802
 20
51.4931
 11
-28.0613
 21
51.4724
  0
LINE
  8
0
 10
-28.0613
 20
51.4724
 11
-27.8442
 21
51.438
  0
LINE
  8
0
 10
-27.8442
 20
51.438
 11
-27.6296
 21
51.39
  0
LINE
  8
0
 10
-27.6296
 20
51.39
 11
-27.4184
 21
51.3287
  0
LINE
  8
0
 10
-27.4184
 20
51.3287
 11
-27.2116
 21
51.2542
  0
LINE
  8
0
 10
-27.2116
 20
51.2542
 11
-27.0098
 21
51.1669
  0
LINE
  8
0
 10
-27.0098
 20
51.1669
 11
-26.8139
 21
51.0671
  0
LINE
  8
0
 10
-26.8139
 20
51.0671
 11
-26.6246
 21
50.9551
  0
LINE
  8
0
 10
-26.6246
 20
50.9551
 11
-26.4427
 21
50.8316
  0
LINE
  8
0
 10
-26.4427
 20
50.8316
 11
-26.269
 21
50.6968
  0
LINE
  8
0
 10
-26.269
 20
50.6968
 11
-26.1041
 21
50.5514
  0
LINE
  8
0
 10
-26.1041
 20
50.5514
 11
-25.9486
 21
50.3959
  0
LINE
  8
0
 10
-25.9486
 20
50.3959
 11
-25.8032
 21
50.231
  0
LINE
  8
0
 10
-25.8032
 20
50.231
 11
-25.6684
 21
50.0572
  0
LINE
  8
0
 10
-25.6684
 20
50.0572
 11
-25.5448
 21
49.8754
  0
LINE
  8
0
 10
-25.5448
 20
49.8754
 11
-25.4329
 21
49.6861
  0
LINE
  8
0
 10
-25.4329
 20
49.6861
 11
-25.3331
 21
49.4902
  0
LINE
  8
0
 10
-25.3331
 20
49.4902
 11
-25.2458
 21
49.2884
  0
LINE
  8
0
 10
-25.2458
 20
49.2884
 11
-25.1713
 21
49.0816
  0
LINE
  8
0
 10
-25.1713
 20
49.0816
 11
-25.11
 21
48.8704
  0
LINE
  8
0
 10
-25.11
 20
48.8704
 11
-25.062
 21
48.6558
  0
LINE
  8
0
 10
-25.062
 20
48.6558
 11
-25.0276
 21
48.4387
  0
LINE
  8
0
 10
-25.0276
 20
48.4387
 11
-25.0069
 21
48.2198
  0
LINE
  8
0
 10
-25.0069
 20
48.2198
 11
-25
 21
48
  0
LINE
  8
0
 10
-25
 20
48
 11
-25.0069
 21
47.7802
  0
LINE
  8
0
 10
-25.0069
 20
47.7802
 11
-25.0276
 21
47.5613
  0
LINE
  8
0
 10
-25.0276
 20
47.5613
 11
-25.062
 21
47.3442
  0
LINE
  8
0
 10
-25.062
 20
47.3442
 11
-25.11
 21
47.1296
  0
LINE
  8
0
 10
-25.11
 20
47.1296
 11
-25.1713
 21
46.9184
  0
LINE
  8
0
 10
-25.1713
 20
46.9184
 11
-25.2458
 21
46.7116
  0
LINE
  8
0
 10
-25.2458
 20
46.7116
 11
-25.3331
 21
46.5098
  0
LINE
  8
0
 10
-25.3331
 20
46.5098
 11
-25.4329
 21
46.3139
  0
LINE
  8
0
 10
-25.4329
 20
46.3139
 11
-25.5448
 21
46.1246
  0
LINE
  8
0
 10
-25.5448
 20
46.1246
 11
-25.6684
 21
45.9427
  0
LINE
  8
0
 10
-25.6684
 20
45.9427
 11
-25.8032
 21
45.769
  0
LINE
  8
0
 10
-25.8032
 20
45.769
 11
-25.9486
 21
45.6041
  0
LINE
  8
0
 10
-25.9486
 20
45.6041
 11
-26.1041
 21
45.4486
  0
LINE
  8
0
 10
-26.1041
 20
45.4486
 11
-26.269
 21
45.3032
  0
LINE
  8
0
 10
-26.269
 20
45.3032
 11
-26.4427
 21
45.1684
  0
LINE
  8
0
 10
-26.4427
 20
45.1684
 11
-26.6246
 21
45.0448
  0
LINE
  8
0
 10
-26.6246
 20
45.0448
 11
-26.8139
 21
44.9329
  0
LINE
  8
0
 10
-26.8139
 20
44.9329
 11
-27.0098
 21
44.8331
  0
LINE
  8
0
 10
-27.0098
 20
44.8331
 11
-27.2116
 21
44.7458
  0
LINE
  8
0
 10
-27.2116
 20
44.7458
 11
-27.4184
 21
44.6713
  0
LINE
  8
0
 10
-27.4184
 20
44.6713
 11
-27.6296
 21
44.61
  0
LINE
  8
0
 10
-27.6296
 20
44.61
 11
-27.8442
 21
44.562
  0
LINE
  8
0
 10
-27.8442
 20
44.562
 11
-28.0613
 21
44.5276
  0
LINE
  8
0
 10
-28.0613
 20
44.5276
 11
-28.2802
 21
44.5069
  0
LINE
  8
0
 10
-28.2802
 20
44.5069
 11
-28.5
 21
44.5
  0
LINE
  8
0
 10
-28.5
 20
44.5
 11
-28.7198
 21
44.5069
  0
LINE
  8
0
 10
56.7802
 20
44.5069
 11
56.5613
 21
44.5276
  0
LINE
  8
0
 10
56.5613
 20
44.5276
 11
56.3442
 21
44.562
  0
LINE
  8
0
 10
56.3442
 20
44.562
 11
56.1296
 21
44.61
  0
LINE
  8
0
 10
56.1296
 20
44.61
 11
55.9184
 21
44.6713
  0
LINE
  8
0
 10
55.9184
 20
44.6713
 11
55.7116
 21
44.7458
  0
LINE
  8
0
 10
55.7116
 20
44.7458
 11
55.5098
 21
44.8331
  0
LINE
  8
0
 10
55.5098
 20
44.8331
 11
55.3139
 21
44.9329
  0
LINE
  8
0
 10
55.3139
 20
44.9329
 11
55.1246
 21
45.0448
  0
LINE
  8
0
 10
55.1246
 20
45.0448
 11
54.9427
 21
45.1684
  0
LINE
  8
0
 10
54.9427
 20
45.1684
 11
54.769
 21
45.3032
  0
LINE
  8
0
 10
54.769
 20
45.3032
 11
54.6041
 21
45.4486
  0
LINE
  8
0
 10
54.6041
 20
45.4486
 11
54.4486
 21
45.6041
  0
LINE
  8
0
 10
54.4486
 20
45.6041
 11
54.3032
 21
45.769
  0
LINE
  8
0
 10
54.3032
 20
45.769
 11
54.1684
 21
45.9427
  0
LINE
  8
0
 10
54.1684
 20
45.9427
 11
54.0448
 21
46.1246
  0
LINE
  8
0
 10
54.0448
 20
46.1246
 11
53.9329
 21
46.3139
  0
LINE
  8
0
 10
53.9329
 20
46.3139
 11
53.8331
 21
46.5098
  0
LINE
  8
0
 10
53.8331
 20
46.5098
 11
53.7458
 21
46.7116
  0
LINE
  8
0
 10
53.7458
 20
46.7116
 11
53.6713
 21
46.9184
  0
LINE
  8
0
 10
53.6713
 20
46.9184
 11
53.61
 21
47.1296
  0
LINE
  8
0
 10
53.61
 20
47.1296
 11
53.562
 21
47.3442
  0
LINE
  8
0
 10
53.562
 20
47.3442
 11
53.5276
 21
47.5613
  0
LINE
  8
0
 10
53.5276
 20
47.5613
 11
53.5069
 21
47.7802
  0
LINE
  8
0
 10
53.5069
 20
47.7802
 11
53.5
 21
48
  0
LINE
  8
0
 10
53.5
 20
48
 11
53.5069
 21
48.2198
  0
LINE
  8
0
 10
53.5069
 20
48.2198
 11
53.5276
 21
48.4387
  0
LINE
  8
0
 10
53.5276
 20
48.4387
 11
53.562
 21
48.6558
  0
LINE
  8
0
 10
53.562
 20
48.6558
 11
53.61
 21
48.8704
  0
LINE
  8
0
 10
53.61
 20
48.8704
 11
53.6713
 21
49.0816
  0
LINE
  8
0
 10
53.6713
 20
49.0816
 11
53.7458
 21
49.2884
  0
LINE
  8
0
 10
53.7458
 20
49.2884
 11
53.8331
 21
49.4902
  0
LINE
  8
0
 10
53.8331
 20
49.4902
 11
53.9329
 21
49.6861
  0
LINE
  8
0
 10
53.9329
 20
49.6861
 11
54.0448
 21
49.8754
  0
LINE
  8
0
 10
54.0448
 20
49.8754
 11
54.1684
 21
50.0572
  0
LINE
  8
0
 10
54.1684
 20
50.0572
 11
54.3032
 21
50.231
  0
LINE
  8
0
 10
54.3032
 20
50.231
 11
54.4486
 21
50.3959
  0
LINE
  8
0
 10
54.4486
 20
50.3959
 11
54.6041
 21
50.5514
  0
LINE
  8
0
 10
54.6041
 20
50.5514
 11
54.769
 21
50.6968
  0
LINE
  8
0
 10
54.769
 20
50.6968
 11
54.9427
 21
50.8316
  0
LINE
  8
0
 10
54.9427
 20
50.8316
 11
55.1246
 21
50.9551
  0
LINE
  8
0
 10
55.1246
 20
50.9551
 11
55.3139
 21
51.0671
  0
LINE
  8
0
 10
55.3139
 20
51.0671
 11
55.5098
 21
51.1669
  0
LINE
  8
0
 10
55.5098
 20
51.1669
 11
55.7116
 21
51.2542
  0
LINE
  8
0
 10
55.7116
 20
51.2542
 11
55.9184
 21
51.3287
  0
LINE
  8
0
 10
55.9184
 20
51.3287
 11
56.1296
 21
51.39
  0
LINE
  8
0
 10
56.1296
 20
51.39
 11
56.3442
 21
51.438
  0
LINE
  8
0
 10
56.3442
 20
51.438
 11
56.5613
 21
51.4724
  0
LINE
  8
0
 10
56.5613
 20
51.4724
 11
56.7802
 21
51.4931
  0
LINE
  8
0
 10
56.7802
 20
51.4931
 11
57
 21
51.5
  0
LINE
  8
0
 10
57
 20
51.5
 11
57.2198
 21
51.4931
  0
LINE
  8
0
 10
57.2198
 20
51.4931
 11
57.4387
 21
51.4724
  0
LINE
  8
0
 10
57.4387
 20
51.4724
 11
57.6558
 21
51.438
  0
LINE
  8
0
 10
57.6558
 20
51.438
 11
57.8704
 21
51.39
  0
LINE
  8
0
 10
57.8704
 20
51.39
 11
58.0816
 21
51.3287
  0
LINE
  8
0
 10
58.0816
 20
51.3287
 11
58.2884
 21
51.2542
  0
LINE
  8
0
 10
58.2884
 20
51.2542
 11
58.4902
 21
51.1669
  0
LINE
  8
0
 10
58.4902
 20
51.1669
 11
58.6861
 21
51.0671
  0
LINE
  8
0
 10
58.6861
 20
51.0671
 11
58.8754
 21
50.9551
  0
LINE
  8
0
 10
58.8754
 20
50.9551
 11
59.0572
 21
50.8316
  0
LINE
  8
0
 10
59.0572
 20
50.8316
 11
59.231
 21
50.6968
  0
LINE
  8
0
 10
59.231
 20
50.6968
 11
59.3959
 21
50.5514
  0
LINE
  8
0
 10
59.3959
 20
50.5514
 11
59.5514
 21
50.3959
  0
LINE
  8
0
 10
59.5514
 20
50.3959
 11
59.6968
 21
50.231
  0
LINE
  8
0
 10
59.6968
 20
50.231
 11
59.8316
 21
50.0572
  0
LINE
  8
0
 10
59.8316
 20
50.0572
 11
59.9551
 21
49.8754
  0
LINE
  8
0
 10
59.9551
 20
49.8754
 11
60.0671
 21
49.6861
  0
LINE
  8
0
 10
60.0671
 20
49.6861
 11
60.1669
 21
49.4902
  0
LINE
  8
0
 10
60.1669
 20
49.4902
 11
60.2542
 21
49.2884
  0
LINE
  8
0
 10
60.2542
 20
49.2884
 11
60.3287
 21
49.0816
  0
LINE
  8
0
 10
60.3287
 20
49.0816
 11
60.39
 21
48.8704
  0
LINE
  8
0
 10
60.39
 20
48.8704
 11
60.438
 21
48.6558
  0
LINE
  8
0
 10
60.438
 20
48.6558
 11
60.4724
 21
48.4387
  0
LINE
  8
0
 10
60.4724
 20
48.4387
 11
60.4931
 21
48.2198
  0
LINE
  8
0
 10
60.4931
 20
48.2198
 11
60.5
 21
48
  0
LINE
  8
0
 10
60.5
 20
48
 11
60.4931
 21
47.7802
  0
LINE
  8
0
 10
60.4931
 20
47.7802
 11
60.4724
 21
47.5613
  0
LINE
  8
0
 10
60.4724
 20
47.5613
 11
60.438
 21
47.3442
  0
LINE
  8
0
 10
60.438
 20
47.3442
 11
60.39
 21
47.1296
  0
LINE
  8
0
 10
60.39
 20
47.1296
 11
60.3287
 21
46.9184
  0
LINE
  8
0
 10
60.3287
 20
46.9184
 11
60.2542
 21
46.7116
  0
LINE
  8
0
 10
60.2542
 20
46.7116
 11
60.1669
 21
46.5098
  0
LINE
  8
0
 10
60.1669
 20
46.5098
 11
60.0671
 21
46.3139
  0
LINE
  8
0
 10
60.0671
 20
46.3139
 11
59.9551
 21
46.1246
  0
LINE
  8
0
 10
59.9551
 20
46.1246
 11
59.8316
 21
45.9427
  0
LINE
  8
0
 10
59.8316
 20
45.9427
 11
59.6968
 21
45.769
  0
LINE
  8
0
 10
59.6968
 20
45.769
 11
59.5514
 21
45.6041
  0
LINE
  8
0
 10
59.5514
 20
45.6041
 11
59.3959
 21
45.4486
  0
LINE
  8
0
 10
59.3959
 20
45.4486
 11
59.231
 21
45.3032
  0
LINE
  8
0
 10
59.231
 20
45.3032
 11
59.0572
 21
45.1684
  0
LINE
  8
0
 10
59.0572
 20
45.1684
 11
58.8754
 21
45.0448
  0
LINE
  8
0
 10
58.8754
 20
45.0448
 11
58.6861
 21
44.9329
  0
LINE
  8
0
 10
58.6861
 20
44.9329
 11
58.4902
 21
44.8331
  0
LINE
  8
0
 10
58.4902
 20
44.8331
 11
58.2884
 21
44.7458
  0
LINE
  8
0
 10
58.2884
 20
44.7458
 11
58.0816
 21
44.6713
  0
LINE
  8
0
 10
58.0816
 20
44.6713
 11
57.8704
 21
44.61
  0
LINE
  8
0
 10
57.8704
 20
44.61
 11
57.6558
 21
44.562
  0
LINE
  8
0
 10
57.6558
 20
44.562
 11
57.4387
 21
44.5276
  0
LINE
  8
0
 10
57.4387
 20
44.5276
 11
57.2198
 21
44.5069
  0
LINE
  8
0
 10
57.2198
 20
44.5069
 11
57
 21
44.5
  0
LINE
  8
0
 10
57
 20
44.5
 11
56.7802
 21
44.5069
  0
LINE
  8
0
 10
28.2802
 20
44.5069
 11
28.0613
 21
44.5276
  0
LINE
  8
0
 10
28.0613
 20
44.5276
 11
27.8442
 21
44.562
  0
LINE
  8
0
 10
27.8442
 20
44.562
 11
27.6296
 21
44.61
  0
LINE
  8
0
 10
27.6296
 20
44.61
 11
27.4184
 21
44.6713
  0
LINE
  8
0
 10
27.4184
 20
44.6713
 11
27.2116
 21
44.7458
  0
LINE
  8
0
 10
27.2116
 20
44.7458
 11
27.0098
 21
44.8331
  0
LINE
  8
0
 10
27.0098
 20
44.8331
 11
26.8139
 21
44.9329
  0
LINE
  8
0
 10
26.8139
 20
44.9329
 11
26.6246
 21
45.0448
  0
LINE
  8
0
 10
26.6246
 20
45.0448
 11
26.4427
 21
45.1684
  0
LINE
  8
0
 10
26.4427
 20
45.1684
 11
26.269
 21
45.3032
  0
LINE
  8
0
 10
26.269
 20
45.3032
 11
26.1041
 21
45.4486
  0
LINE
  8
0
 10
26.1041
 20
45.4486
 11
25.9486
 21
45.6041
  0
LINE
  8
0
 10
25.9486
 20
45.6041
 11
25.8032
 21
45.769
  0
LINE
  8
0
 10
25.8032
 20
45.769
 11
25.6684
 21
45.9427
  0
LINE
  8
0
 10
25.6684
 20
45.9427
 11
25.5448
 21
46.1246
  0
LINE
  8
0
 10
25.5448
 20
46.1246
 11
25.4329
 21
46.3139
  0
LINE
  8
0
 10
25.4329
 20
46.3139
 11
25.3331
 21
46.5098
  0
LINE
  8
0
 10
25.3331
 20
46.5098
 11
25.2458
 21
46.7116
  0
LINE
  8
0
 10
25.2458
 20
46.7116
 11
25.1713
 21
46.9184
  0
LINE
  8
0
 10
25.1713
 20
46.9184
 11
25.11
 21
47.1296
  0
LINE
  8
0
 10
25.11
 20
47.1296
 11
25.062
 21
47.3442
  0
LINE
  8
0
 10
25.062
 20
47.3442
 11
25.0276
 21
47.5613
  0
LINE
  8
0
 10
25.0276
 20
47.5613
 11
25.0069
 21
47.7802
  0
LINE
  8
0
 10
25.0069
 20
47.7802
 11
25
 21
48
  0
LINE
  8
0
 10
25
 20
48
 11
25.0069
 21
48.2198
  0
LINE
  8
0
 10
25.0069
 20
48.2198
 11
25.0276
 21
48.4387
  0
LINE
  8
0
 10
25.0276
 20
48.4387
 11
25.062
 21
48.6558
  0
LINE
  8
0
 10
25.062
 20
48.6558
 11
25.11
 21
48.8704
  0
LINE
  8
0
 10
25.11
 20
48.8704
 11
25.1713
 21
49.0816
  0
LINE
  8
0
 10
25.1713
 20
49.0816
 11
25.2458
 21
49.2884
  0
LINE
  8
0
 10
25.2458
 20
49.2884
 11
25.3331
 21
49.4902
  0
LINE
  8
0
 10
25.3331
 20
49.4902
 11
25.4329
 21
49.6861
  0
LINE
  8
0
 10
25.4329
 20
49.6861
 11
25.5448
 21
49.8754
  0
LINE
  8
0
 10
25.5448
 20
49.8754
 11
25.6684
 21
50.0572
  0
LINE
  8
0
 10
25.6684
 20
50.0572
 11
25.8032
 21
50.231
  0
LINE
  8
0
 10
25.8032
 20
50.231
 11
25.9486
 21
50.3959
  0
LINE
  8
0
 10
25.9486
 20
50.3959
 11
26.1041
 21
50.5514
  0
LINE
  8
0
 10
26.1041
 20
50.5514
 11
26.269
 21
50.6968
  0
LINE
  8
0
 10
26.269
 20
50.6968
 11
26.4427
 21
50.8316
  0
LINE
  8
0
 10
26.4427
 20
50.8316
 11
26.6246
 21
50.9551
  0
LINE
  8
0
 10
26.6246
 20
50.9551
 11
26.8139
 21
51.0671
  0
LINE
  8
0
 10
26.8139
 20
51.0671
 11
27.0098
 21
51.1669
  0
LINE
  8
0
 10
27.0098
 20
51.1669
 11
27.2116
 21
51.2542
  0
LINE
  8
0
 10
27.2116
 20
51.2542
 11
27.4184
 21
51.3287
  0
LINE
  8
0
 10
27.4184
 20
51.3287
 11
27.6296
 21
51.39
  0
LINE
  8
0
 10
27.6296
 20
51.39
 11
27.8442
 21
51.438
  0
LINE
  8
0
 10
27.8442
 20
51.438
 11
28.0613
 21
51.4724
  0
LINE
  8
0
 10
28.0613
 20
51.4724
 11
28.2802
 21
51.4931
  0
LINE
  8
0
 10
28.2802
 20
51.4931
 11
28.5
 21
51.5
  0
LINE
  8
0
 10
28.5
 20
51.5
 11
28.7198
 21
51.4931
  0
LINE
  8
0
 10
28.7198
 20
51.4931
 11
28.9387
 21
51.4724
  0
LINE
  8
0
 10
28.9387
 20
51.4724
 11
29.1558
 21
51.438
  0
LINE
  8
0
 10
29.1558
 20
51.438
 11
29.3704
 21
51.39
  0
LINE
  8
0
 10
29.3704
 20
51.39
 11
29.5816
 21
51.3287
  0
LINE
  8
0
 10
29.5816
 20
51.3287
 11
29.7884
 21
51.2542
  0
LINE
  8
0
 10
29.7884
 20
51.2542
 11
29.9902
 21
51.1669
  0
LINE
  8
0
 10
29.9902
 20
51.1669
 11
30.1861
 21
51.0671
  0
LINE
  8
0
 10
30.1861
 20
51.0671
 11
30.3754
 21
50.9551
  0
LINE
  8
0
 10
30.3754
 20
50.9551
 11
30.5572
 21
50.8316
  0
LINE
  8
0
 10
30.5572
 20
50.8316
 11
30.731
 21
50.6968
  0
LINE
  8
0
 10
30.731
 20
50.6968
 11
30.8959
 21
50.5514
  0
LINE
  8
0
 10
30.8959
 20
50.5514
 11
31.0514
 21
50.3959
  0
LINE
  8
0
 10
31.0514
 20
50.3959
 11
31.1968
 21
50.231
  0
LINE
  8
0
 10
31.1968
 20
50.231
 11
31.3316
 21
50.0572
  0
LINE
  8
0
 10
31.3316
 20
50.0572
 11
31.4551
 21
49.8754
  0
LINE
  8
0
 10
31.4551
 20
49.8754
 11
31.5671
 21
49.6861
  0
LINE
  8
0
 10
31.5671
 20
49.6861
 11
31.6669
 21
49.4902
  0
LINE
  8
0
 10
31.6669
 20
49.4902
 11
31.7542
 21
49.2884
  0
LINE
  8
0
 10
31.7542
 20
49.2884
 11
31.8287
 21
49.0816
  0
LINE
  8
0
 10
31.8287
 20
49.0816
 11
31.89
 21
48.8704
  0
LINE
  8
0
 10
31.89
 20
48.8704
 11
31.938
 21
48.6558
  0
LINE
  8
0
 10
31.938
 20
48.6558
 11
31.9724
 21
48.4387
  0
LINE
  8
0
 10
31.9724
 20
48.4387
 11
31.9931
 21
48.2198
  0
LINE
  8
0
 10
31.9931
 20
48.2198
 11
32
 21
48
  0
LINE
  8
0
 10
32
 20
48
 11
31.9931
 21
47.7802
  0
LINE
  8
0
 10
31.9931
 20
47.7802
 11
31.9724
 21
47.5613
  0
LINE
  8
0
 10
31.9724
 20
47.5613
 11
31.938
 21
47.3442
  0
LINE
  8
0
 10
31.938
 20
47.3442
 11
31.89
 21
47.1296
  0
LINE
  8
0
 10
31.89
 20
47.1296
 11
31.8287
 21
46.9184
  0
LINE
  8
0
 10
31.8287
 20
46.9184
 11
31.7542
 21
46.7116
  0
LINE
  8
0
 10
31.7542
 20
46.7116
 11
31.6669
 21
46.5098
  0
LINE
  8
0
 10
31.6669
 20
46.5098
 11
31.5671
 21
46.3139
  0
LINE
  8
0
 10
31.5671
 20
46.3139
 11
31.4551
 21
46.1246
  0
LINE
  8
0
 10
31.4551
 20
46.1246
 11
31.3316
 21
45.9427
  0
LINE
  8
0
 10
31.3316
 20
45.9427
 11
31.1968
 21
45.769
  0
LINE
  8
0
 10
31.1968
 20
45.769
 11
31.0514
 21
45.6041
  0
LINE
  8
0
 10
31.0514
 20
45.6041
 11
30.8959
 21
45.4486
  0
LINE
  8
0
 10
30.8959
 20
45.4486
 11
30.731
 21
45.3032
  0
LINE
  8
0
 10
30.731
 20
45.3032
 11
30.5572
 21
45.1684
  0
LINE
  8
0
 10
30.5572
 20
45.1684
 11
30.3754
 21
45.0448
  0
LINE
  8
0
 10
30.3754
 20
45.0448
 11
30.1861
 21
44.9329
  0
LINE
  8
0
 10
30.1861
 20
44.9329
 11
29.9902
 21
44.8331
  0
LINE
  8
0
 10
29.9902
 20
44.8331
 11
29.7884
 21
44.7458
  0
LINE
  8
0
 10
29.7884
 20
44.7458
 11
29.5816
 21
44.6713
  0
LINE
  8
0
 10
29.5816
 20
44.6713
 11
29.3704
 21
44.61
  0
LINE
  8
0
 10
29.3704
 20
44.61
 11
29.1558
 21
44.562
  0
LINE
  8
0
 10
29.1558
 20
44.562
 11
28.9387
 21
44.5276
  0
LINE
  8
0
 10
28.9387
 20
44.5276
 11
28.7198
 21
44.5069
  0
LINE
  8
0
 10
28.7198
 20
44.5069
 11
28.5
 21
44.5
  0
LINE
  8
0
 10
28.5
 20
44.5
 11
28.2802
 21
44.5069
  0
LINE
  8
0
 10
-0.219757
 20
44.5069
 11
-0.43866
 21
44.5276
  0
LINE
  8
0
 10
-0.43866
 20
44.5276
 11
-0.655823
 21
44.562
  0
LINE
  8
0
 10
-0.655823
 20
44.562
 11
-0.870407
 21
44.61
  0
LINE
  8
0
 10
-0.870407
 20
44.61
 11
-1.08156
 21
44.6713
  0
LINE
  8
0
 10
-1.08156
 20
44.6713
 11
-1.28842
 21
44.7458
  0
LINE
  8
0
 10
-1.28842
 20
44.7458
 11
-1.49022
 21
44.8331
  0
LINE
  8
0
 10
-1.49022
 20
44.8331
 11
-1.68613
 21
44.9329
  0
LINE
  8
0
 10
-1.68613
 20
44.9329
 11
-1.87538
 21
45.0448
  0
LINE
  8
0
 10
-1.87538
 20
45.0448
 11
-2.05724
 21
45.1684
  0
LINE
  8
0
 10
-2.05724
 20
45.1684
 11
-2.23097
 21
45.3032
  0
LINE
  8
0
 10
-2.23097
 20
45.3032
 11
-2.3959
 21
45.4486
  0
LINE
  8
0
 10
-2.3959
 20
45.4486
 11
-2.55138
 21
45.6041
  0
LINE
  8
0
 10
-2.55138
 20
45.6041
 11
-2.69679
 21
45.769
  0
LINE
  8
0
 10
-2.69679
 20
45.769
 11
-2.83156
 21
45.9427
  0
LINE
  8
0
 10
-2.83156
 20
45.9427
 11
-2.95514
 21
46.1246
  0
LINE
  8
0
 10
-2.95514
 20
46.1246
 11
-3.06706
 21
46.3139
  0
LINE
  8
0
 10
-3.06706
 20
46.3139
 11
-3.16689
 21
46.5098
  0
LINE
  8
0
 10
-3.16689
 20
46.5098
 11
-3.25421
 21
46.7116
  0
LINE
  8
0
 10
-3.25421
 20
46.7116
 11
-3.32869
 21
46.9184
  0
LINE
  8
0
 10
-3.32869
 20
46.9184
 11
-3.39003
 21
47.1296
  0
LINE
  8
0
 10
-3.39003
 20
47.1296
 11
-3.438
 21
47.3442
  0
LINE
  8
0
 10
-3.438
 20
47.3442
 11
-3.4724
 21
47.5613
  0
LINE
  8
0
 10
-3.4724
 20
47.5613
 11
-3.49309
 21
47.7802
  0
LINE
  8
0
 10
-3.49309
 20
47.7802
 11
-3.5
 21
48
  0
LINE
  8
0
 10
-3.5
 20
48
 11
-3.49309
 21
48.2198
  0
LINE
  8
0
 10
-3.49309
 20
48.2198
 11
-3.4724
 21
48.4387
  0
LINE
  8
0
 10
-3.4724
 20
48.4387
 11
-3.438
 21
48.6558
  0
LINE
  8
0
 10
-3.438
 20
48.6558
 11
-3.39003
 21
48.8704
  0
LINE
  8
0
 10
-3.39003
 20
48.8704
 11
-3.32869
 21
49.0816
  0
LINE
  8
0
 10
-3.32869
 20
49.0816
 11
-3.25421
 21
49.2884
  0
LINE
  8
0
 10
-3.25421
 20
49.2884
 11
-3.16689
 21
49.4902
  0
LINE
  8
0
 10
-3.16689
 20
49.4902
 11
-3.06706
 21
49.6861
  0
LINE
  8
0
 10
-3.06706
 20
49.6861
 11
-2.95514
 21
49.8754
  0
LINE
  8
0
 10
-2.95514
 20
49.8754
 11
-2.83156
 21
50.0572
  0
LINE
  8
0
 10
-2.83156
 20
50.0572
 11
-2.69679
 21
50.231
  0
LINE
  8
0
 10
-2.69679
 20
50.231
 11
-2.55138
 21
50.3959
  0
LINE
  8
0
 10
-2.55138
 20
50.3959
 11
-2.3959
 21
50.5514
  0
LINE
  8
0
 10
-2.3959
 20
50.5514
 11
-2.23097
 21
50.6968
  0
LINE
  8
0
 10
-2.23097
 20
50.6968
 11
-2.05724
 21
50.8316
  0
LINE
  8
0
 10
-2.05724
 20
50.8316
 11
-1.87538
 21
50.9551
  0
LINE
  8
0
 10
-1.87538
 20
50.9551
 11
-1.68613
 21
51.0671
  0
LINE
  8
0
 10
-1.68613
 20
51.0671
 11
-1.49022
 21
51.1669
  0
LINE
  8
0
 10
-1.49022
 20
51.1669
 11
-1.28842
 21
51.2542
  0
LINE
  8
0
 10
-1.28842
 20
51.2542
 11
-1.08156
 21
51.3287
  0
LINE
  8
0
 10
-1.08156
 20
51.3287
 11
-0.870407
 21
51.39
  0
LINE
  8
0
 10
-0.870407
 20
51.39
 11
-0.655823
 21
51.438
  0
LINE
  8
0
 10
-0.655823
 20
51.438
 11
-0.43866
 21
51.4724
  0
LINE
  8
0
 10
-0.43866
 20
51.4724
 11
-0.219757
 21
51.4931
  0
LINE
  8
0
 10
-0.219757
 20
51.4931
 11
0
 21
51.5
  0
LINE
  8
0
 10
0
 20
51.5
 11
0.219757
 21
51.4931
  0
LINE
  8
0
 10
0.219757
 20
51.4931
 11
0.43866
 21
51.4724
  0
LINE
  8
0
 10
0.43866
 20
51.4724
 11
0.655823
 21
51.438
  0
LINE
  8
0
 10
0.655823
 20
51.438
 11
0.870407
 21
51.39
  0
LINE
  8
0
 10
0.870407
 20
51.39
 11
1.08156
 21
51.3287
  0
LINE
  8
0
 10
1.08156
 20
51.3287
 11
1.28842
 21
51.2542
  0
LINE
  8
0
 10
1.28842
 20
51.2542
 11
1.49022
 21
51.1669
  0
LINE
  8
0
 10
1.49022
 20
51.1669
 11
1.68613
 21
51.0671
  0
LINE
  8
0
 10
1.68613
 20
51.0671
 11
1.87538
 21
50.9551
  0
LINE
  8
0
 10
1.87538
 20
50.9551
 11
2.05724
 21
50.8316
  0
LINE
  8
0
 10
2.05724
 20
50.8316
 11
2.23097
 21
50.6968
  0
LINE
  8
0
 10
2.23097
 20
50.6968
 11
2.3959
 21
50.5514
  0
LINE
  8
0
 10
2.3959
 20
50.5514
 11
2.55138
 21
50.3959
  0
LINE
  8
0
 10
2.55138
 20
50.3959
 11
2.69679
 21
50.231
  0
LINE
  8
0
 10
2.69679
 20
50.231
 11
2.83156
 21
50.0572
  0
LINE
  8
0
 10
2.83156
 20
50.0572
 11
2.95514
 21
49.8754
  0
LINE
  8
0
 10
2.95514
 20
49.8754
 11
3.06706
 21
49.6861
  0
LINE
  8
0
 10
3.06706
 20
49.6861
 11
3.16689
 21
49.4902
  0
LINE
  8
0
 10
3.16689
 20
49.4902
 11
3.25421
 21
49.2884
  0
LINE
  8
0
 10
3.25421
 20
49.2884
 11
3.32869
 21
49.0816
  0
LINE
  8
0
 10
3.32869
 20
49.0816
 11
3.39003
 21
48.8704
  0
LINE
  8
0
 10
3.39003
 20
48.8704
 11
3.438
 21
48.6558
  0
LINE
  8
0
 10
3.438
 20
48.6558
 11
3.4724
 21
48.4387
  0
LINE
  8
0
 10
3.4724
 20
48.4387
 11
3.49309
 21
48.2198
  0
LINE
  8
0
 10
3.49309
 20
48.2198
 11
3.5
 21
48
  0
LINE
  8
0
 10
3.5
 20
48
 11
3.49309
 21
47.7802
  0
LINE
  8
0
 10
3.49309
 20
47.7802
 11
3.4724
 21
47.5613
  0
LINE
  8
0
 10
3.4724
 20
47.5613
 11
3.438
 21
47.3442
  0
LINE
  8
0
 10
3.438
 20
47.3442
 11
3.39003
 21
47.1296
  0
LINE
  8
0
 10
3.39003
 20
47.1296
 11
3.32869
 21
46.9184
  0
LINE
  8
0
 10
3.32869
 20
46.9184
 11
3.25421
 21
46.7116
  0
LINE
  8
0
 10
3.25421
 20
46.7116
 11
3.16689
 21
46.5098
  0
LINE
  8
0
 10
3.16689
 20
46.5098
 11
3.06706
 21
46.3139
  0
LINE
  8
0
 10
3.06706
 20
46.3139
 11
2.95514
 21
46.1246
  0
LINE
  8
0
 10
2.95514
 20
46.1246
 11
2.83156
 21
45.9427
  0
LINE
  8
0
 10
2.83156
 20
45.9427
 11
2.69679
 21
45.769
  0
LINE
  8
0
 10
2.69679
 20
45.769
 11
2.55138
 21
45.6041
  0
LINE
  8
0
 10
2.55138
 20
45.6041
 11
2.3959
 21
45.4486
  0
LINE
  8
0
 10
2.3959
 20
45.4486
 11
2.23097
 21
45.3032
  0
LINE
  8
0
 10
2.23097
 20
45.3032
 11
2.05724
 21
45.1684
  0
LINE
  8
0
 10
2.05724
 20
45.1684
 11
1.87538
 21
45.0448
  0
LINE
  8
0
 10
1.87538
 20
45.0448
 11
1.68613
 21
44.9329
  0
LINE
  8
0
 10
1.68613
 20
44.9329
 11
1.49022
 21
44.8331
  0
LINE
  8
0
 10
1.49022
 20
44.8331
 11
1.28842
 21
44.7458
  0
LINE
  8
0
 10
1.28842
 20
44.7458
 11
1.08156
 21
44.6713
  0
LINE
  8
0
 10
1.08156
 20
44.6713
 11
0.870407
 21
44.61
  0
LINE
  8
0
 10
0.870407
 20
44.61
 11
0.655823
 21
44.562
  0
LINE
  8
0
 10
0.655823
 20
44.562
 11
0.43866
 21
44.5276
  0
LINE
  8
0
 10
0.43866
 20
44.5276
 11
0.219757
 21
44.5069
  0
LINE
  8
0
 10
0.219757
 20
44.5069
 11
0
 21
44.5
  0
LINE
  8
0
 10
0
 20
44.5
 11
-0.219757
 21
44.5069
  0
LINE
  8
0
 10
-35.9014
 20
-37.8018
 11
-36.1055
 21
-37.7986
  0
LINE
  8
0
 10
-36.1055
 20
-37.7986
 11
-36.5131
 21
-37.7729
  0
LINE
  8
0
 10
-36.5131
 20
-37.7729
 11
-36.9182
 21
-37.7217
  0
LINE
  8
0
 10
-36.9182
 20
-37.7217
 11
-37.3193
 21
-37.6452
  0
LINE
  8
0
 10
-37.3193
 20
-37.6452
 11
-37.7148
 21
-37.5437
  0
LINE
  8
0
 10
-37.7148
 20
-37.5437
 11
-38.1032
 21
-37.4175
  0
LINE
  8
0
 10
-38.1032
 20
-37.4175
 11
-38.4828
 21
-37.2672
  0
LINE
  8
0
 10
-38.4828
 20
-37.2672
 11
-38.8523
 21
-37.0933
  0
LINE
  8
0
 10
-38.8523
 20
-37.0933
 11
-39.2101
 21
-36.8966
  0
LINE
  8
0
 10
-39.2101
 20
-36.8966
 11
-39.5549
 21
-36.6778
  0
LINE
  8
0
 10
-39.5549
 20
-36.6778
 11
-39.8853
 21
-36.4378
  0
LINE
  8
0
 10
-39.8853
 20
-36.4378
 11
-40.1999
 21
-36.1775
  0
LINE
  8
0
 10
-40.1999
 20
-36.1775
 11
-40.4976
 21
-35.8979
  0
LINE
  8
0
 10
-40.4976
 20
-35.8979
 11
-45.4976
 21
-30.8979
  0
LINE
  8
0
 10
-45.4976
 20
-30.8979
 11
-45.6397
 21
-30.7513
  0
LINE
  8
0
 10
-45.6397
 20
-30.7513
 11
-45.9097
 21
-30.445
  0
LINE
  8
0
 10
-45.9097
 20
-30.445
 11
-46.16
 21
-30.1224
  0
LINE
  8
0
 10
-46.16
 20
-30.1224
 11
-46.3895
 21
-29.7846
  0
LINE
  8
0
 10
-46.3895
 20
-29.7846
 11
-46.5974
 21
-29.4332
  0
LINE
  8
0
 10
-46.5974
 20
-29.4332
 11
-46.7827
 21
-29.0693
  0
LINE
  8
0
 10
-46.7827
 20
-29.0693
 11
-46.9449
 21
-28.6946
  0
LINE
  8
0
 10
-46.9449
 20
-28.6946
 11
-47.0832
 21
-28.3104
  0
LINE
  8
0
 10
-47.0832
 20
-28.3104
 11
-47.1972
 21
-27.9182
  0
LINE
  8
0
 10
-47.1972
 20
-27.9182
 11
-47.2862
 21
-27.5197
  0
LINE
  8
0
 10
-47.2862
 20
-27.5197
 11
-47.3501
 21
-27.1164
  0
LINE
  8
0
 10
-47.3501
 20
-27.1164
 11
-47.3885
 21
-26.7099
  0
LINE
  8
0
 10
-47.3885
 20
-26.7099
 11
-47.4014
 21
-26.3018
  0
LINE
  8
0
 10
-47.4014
 20
-26.3018
 11
-47.4014
 21
26.3018
  0
LINE
  8
0
 10
-47.4014
 20
26.3018
 11
-47.3982
 21
26.5059
  0
LINE
  8
0
 10
-47.3982
 20
26.5059
 11
-47.3725
 21
26.9135
  0
LINE
  8
0
 10
-47.3725
 20
26.9135
 11
-47.3213
 21
27.3186
  0
LINE
  8
0
 10
-47.3213
 20
27.3186
 11
-47.2448
 21
27.7197
  0
LINE
  8
0
 10
-47.2448
 20
27.7197
 11
-47.1433
 21
28.1152
  0
LINE
  8
0
 10
-47.1433
 20
28.1152
 11
-47.0171
 21
28.5036
  0
LINE
  8
0
 10
-47.0171
 20
28.5036
 11
-46.8668
 21
28.8832
  0
LINE
  8
0
 10
-46.8668
 20
28.8832
 11
-46.6929
 21
29.2527
  0
LINE
  8
0
 10
-46.6929
 20
29.2527
 11
-46.4962
 21
29.6105
  0
LINE
  8
0
 10
-46.4962
 20
29.6105
 11
-46.2774
 21
29.9553
  0
LINE
  8
0
 10
-46.2774
 20
29.9553
 11
-46.0374
 21
30.2857
  0
LINE
  8
0
 10
-46.0374
 20
30.2857
 11
-45.7771
 21
30.6003
  0
LINE
  8
0
 10
-45.7771
 20
30.6003
 11
-45.4976
 21
30.8979
  0
LINE
  8
0
 10
-45.4976
 20
30.8979
 11
-40.4976
 21
35.8979
  0
LINE
  8
0
 10
-40.4976
 20
35.8979
 11
-40.3509
 21
36.0401
  0
LINE
  8
0
 10
-40.3509
 20
36.0401
 11
-40.0446
 21
36.3101
  0
LINE
  8
0
 10
-40.0446
 20
36.3101
 11
-39.722
 21
36.5604
  0
LINE
  8
0
 10
-39.722
 20
36.5604
 11
-39.3842
 21
36.7899
  0
LINE
  8
0
 10
-39.3842
 20
36.7899
 11
-39.0328
 21
36.9978
  0
LINE
  8
0
 10
-39.0328
 20
36.9978
 11
-38.6689
 21
37.1831
  0
LINE
  8
0
 10
-38.6689
 20
37.1831
 11
-38.2942
 21
37.3453
  0
LINE
  8
0
 10
-38.2942
 20
37.3453
 11
-37.91
 21
37.4836
  0
LINE
  8
0
 10
-37.91
 20
37.4836
 11
-37.5179
 21
37.5975
  0
LINE
  8
0
 10
-37.5179
 20
37.5975
 11
-37.1193
 21
37.6866
  0
LINE
  8
0
 10
-37.1193
 20
37.6866
 11
-36.716
 21
37.7505
  0
LINE
  8
0
 10
-36.716
 20
37.7505
 11
-36.3095
 21
37.7889
  0
LINE
  8
0
 10
-36.3095
 20
37.7889
 11
-35.9014
 21
37.8018
  0
LINE
  8
0
 10
-35.9014
 20
37.8018
 11
35.9014
 21
37.8018
  0
LINE
  8
0
 10
35.9014
 20
37.8018
 11
36.1055
 21
37.7986
  0
LINE
  8
0
 10
36.1055
 20
37.7986
 11
36.5131
 21
37.7729
  0
LINE
  8
0
 10
36.5131
 20
37.7729
 11
36.9182
 21
37.7217
  0
LINE
  8
0
 10
36.9182
 20
37.7217
 11
37.3193
 21
37.6452
  0
LINE
  8
0
 10
37.3193
 20
37.6452
 11
37.7148
 21
37.5437
  0
LINE
  8
0
 10
37.7148
 20
37.5437
 11
38.1032
 21
37.4175
  0
LINE
  8
0
 10
38.1032
 20
37.4175
 11
38.4828
 21
37.2672
  0
LINE
  8
0
 10
38.4828
 20
37.2672
 11
38.8523
 21
37.0933
  0
LINE
  8
0
 10
38.8523
 20
37.0933
 11
39.2101
 21
36.8966
  0
LINE
  8
0
 10
39.2101
 20
36.8966
 11
39.5549
 21
36.6778
  0
LINE
  8
0
 10
39.5549
 20
36.6778
 11
39.8853
 21
36.4378
  0
LINE
  8
0
 10
39.8853
 20
36.4378
 11
40.1999
 21
36.1775
  0
LINE
  8
0
 10
40.1999
 20
36.1775
 11
40.4976
 21
35.8979
  0
LINE
  8
0
 10
40.4976
 20
35.8979
 11
45.4976
 21
30.8979
  0
LINE
  8
0
 10
45.4976
 20
30.8979
 11
45.6397
 21
30.7513
  0
LINE
  8
0
 10
45.6397
 20
30.7513
 11
45.9097
 21
30.445
  0
LINE
  8
0
 10
45.9097
 20
30.445
 11
46.16
 21
30.1224
  0
LINE
  8
0
 10
46.16
 20
30.1224
 11
46.3895
 21
29.7846
  0
LINE
  8
0
 10
46.3895
 20
29.7846
 11
46.5974
 21
29.4332
  0
LINE
  8
0
 10
46.5974
 20
29.4332
 11
46.7827
 21
29.0693
  0
LINE
  8
0
 10
46.7827
 20
29.0693
 11
46.9449
 21
28.6946
  0
LINE
  8
0
 10
46.9449
 20
28.6946
 11
47.0832
 21
28.3104
  0
LINE
  8
0
 10
47.0832
 20
28.3104
 11
47.1972
 21
27.9182
  0
LINE
  8
0
 10
47.1972
 20
27.9182
 11
47.2862
 21
27.5197
  0
LINE
  8
0
 10
47.2862
 20
27.5197
 11
47.3501
 21
27.1164
  0
LINE
  8
0
 10
47.3501
 20
27.1164
 11
47.3885
 21
26.7099
  0
LINE
  8
0
 10
47.3885
 20
26.7099
 11
47.4014
 21
26.3018
  0
LINE
  8
0
 10
47.4014
 20
26.3018
 11
47.4014
 21
-26.3018
  0
LINE
  8
0
 10
47.4014
 20
-26.3018
 11
47.3982
 21
-26.5059
  0
LINE
  8
0
 10
47.3982
 20
-26.5059
 11
47.3725
 21
-26.9135
  0
LINE
  8
0
 10
47.3725
 20
-26.9135
 11
47.3213
 21
-27.3186
  0
LINE
  8
0
 10
47.3213
 20
-27.3186
 11
47.2448
 21
-27.7197
  0
LINE
  8
0
 10
47.2448
 20
-27.7197
 11
47.1433
 21
-28.1152
  0
LINE
  8
0
 10
47.1433
 20
-28.1152
 11
47.0171
 21
-28.5036
  0
LINE
  8
0
 10
47.0171
 20
-28.5036
 11
46.8668
 21
-28.8832
  0
LINE
  8
0
 10
46.8668
 20
-28.8832
 11
46.6929
 21
-29.2527
  0
LINE
  8
0
 10
46.6929
 20
-29.2527
 11
46.4962
 21
-29.6105
  0
LINE
  8
0
 10
46.4962
 20
-29.6105
 11
46.2774
 21
-29.9553
  0
LINE
  8
0
 10
46.2774
 20
-29.9553
 11
46.0374
 21
-30.2857
  0
LINE
  8
0
 10
46.0374
 20
-30.2857
 11
45.7771
 21
-30.6003
  0
LINE
  8
0
 10
45.7771
 20
-30.6003
 11
45.4976
 21
-30.8979
  0
LINE
  8
0
 10
45.4976
 20
-30.8979
 11
40.4976
 21
-35.8979
  0
LINE
  8
0
 10
40.4976
 20
-35.8979
 11
40.3509
 21
-36.0401
  0
LINE
  8
0
 10
40.3509
 20
-36.0401
 11
40.0446
 21
-36.3101
  0
LINE
  8
0
 10
40.0446
 20
-36.3101
 11
39.722
 21
-36.5604
  0
LINE
  8
0
 10
39.722
 20
-36.5604
 11
39.3842
 21
-36.7899
  0
LINE
  8
0
 10
39.3842
 20
-36.7899
 11
39.0328
 21
-36.9978
  0
LINE
  8
0
 10
39.0328
 20
-36.9978
 11
38.6689
 21
-37.1831
  0
LINE
  8
0
 10
38.6689
 20
-37.1831
 11
38.2942
 21
-37.3453
  0
LINE
  8
0
 10
38.2942
 20
-37.3453
 11
37.91
 21
-37.4836
  0
LINE
  8
0
 10
37.91
 20
-37.4836
 11
37.5179
 21
-37.5975
  0
LINE
  8
0
 10
37.5179
 20
-37.5975
 11
37.1193
 21
-37.6866
  0
LINE
  8
0
 10
37.1193
 20
-37.6866
 11
36.716
 21
-37.7505
  0
LINE
  8
0
 10
36.716
 20
-37.7505
 11
36.3095
 21
-37.7889
  0
LINE
  8
0
 10
36.3095
 20
-37.7889
 11
35.9014
 21
-37.8018
  0
LINE
  8
0
 10
35.9014
 20
-37.8018
 11
-35.9014
 21
-37.8018
  0
LINE
  8
0
 10
-56.7227
 20
21.0054
 11
-56.8947
 21
21.0217
  0
LINE
  8
0
 10
-56.8947
 20
21.0217
 11
-57.0653
 21
21.0487
  0
LINE
  8
0
 10
-57.0653
 20
21.0487
 11
-57.2339
 21
21.0864
  0
LINE
  8
0
 10
-57.2339
 20
21.0864
 11
-57.3998
 21
21.1346
  0
LINE
  8
0
 10
-57.3998
 20
21.1346
 11
-57.5623
 21
21.1931
  0
LINE
  8
0
 10
-57.5623
 20
21.1931
 11
-57.7209
 21
21.2617
  0
LINE
  8
0
 10
-57.7209
 20
21.2617
 11
-57.8748
 21
21.3401
  0
LINE
  8
0
 10
-57.8748
 20
21.3401
 11
-58.0235
 21
21.4281
  0
LINE
  8
0
 10
-58.0235
 20
21.4281
 11
-58.1664
 21
21.5252
  0
LINE
  8
0
 10
-58.1664
 20
21.5252
 11
-58.3029
 21
21.6311
  0
LINE
  8
0
 10
-58.3029
 20
21.6311
 11
-58.4325
 21
21.7453
  0
LINE
  8
0
 10
-58.4325
 20
21.7453
 11
-58.5547
 21
21.8675
  0
LINE
  8
0
 10
-58.5547
 20
21.8675
 11
-58.6689
 21
21.9971
  0
LINE
  8
0
 10
-58.6689
 20
21.9971
 11
-58.7748
 21
22.1336
  0
LINE
  8
0
 10
-58.7748
 20
22.1336
 11
-58.8719
 21
22.2765
  0
LINE
  8
0
 10
-58.8719
 20
22.2765
 11
-58.9598
 21
22.4252
  0
LINE
  8
0
 10
-58.9598
 20
22.4252
 11
-59.0383
 21
22.5791
  0
LINE
  8
0
 10
-59.0383
 20
22.5791
 11
-59.1069
 21
22.7377
  0
LINE
  8
0
 10
-59.1069
 20
22.7377
 11
-59.1654
 21
22.9002
  0
LINE
  8
0
 10
-59.1654
 20
22.9002
 11
-59.2136
 21
23.0661
  0
LINE
  8
0
 10
-59.2136
 20
23.0661
 11
-59.2513
 21
23.2347
  0
LINE
  8
0
 10
-59.2513
 20
23.2347
 11
-59.2783
 21
23.4053
  0
LINE
  8
0
 10
-59.2783
 20
23.4053
 11
-59.2946
 21
23.5773
  0
LINE
  8
0
 10
-59.2946
 20
23.5773
 11
-59.3
 21
23.75
  0
LINE
  8
0
 10
-59.3
 20
23.75
 11
-59.2946
 21
23.9227
  0
LINE
  8
0
 10
-59.2946
 20
23.9227
 11
-59.2783
 21
24.0947
  0
LINE
  8
0
 10
-59.2783
 20
24.0947
 11
-59.2513
 21
24.2653
  0
LINE
  8
0
 10
-59.2513
 20
24.2653
 11
-59.2136
 21
24.4339
  0
LINE
  8
0
 10
-59.2136
 20
24.4339
 11
-59.1654
 21
24.5998
  0
LINE
  8
0
 10
-59.1654
 20
24.5998
 11
-59.1069
 21
24.7623
  0
LINE
  8
0
 10
-59.1069
 20
24.7623
 11
-59.0383
 21
24.9209
  0
LINE
  8
0
 10
-59.0383
 20
24.9209
 11
-58.9598
 21
25.0748
  0
LINE
  8
0
 10
-58.9598
 20
25.0748
 11
-58.8719
 21
25.2235
  0
LINE
  8
0
 10
-58.8719
 20
25.2235
 11
-58.7748
 21
25.3664
  0
LINE
  8
0
 10
-58.7748
 20
25.3664
 11
-58.6689
 21
25.5029
  0
LINE
  8
0
 10
-58.6689
 20
25.5029
 11
-58.5547
 21
25.6325
  0
LINE
  8
0
 10
-58.5547
 20
25.6325
 11
-58.4325
 21
25.7547
  0
LINE
  8
0
 10
-58.4325
 20
25.7547
 11
-58.3029
 21
25.8689
  0
LINE
  8
0
 10
-58.3029
 20
25.8689
 11
-58.1664
 21
25.9748
  0
LINE
  8
0
 10
-58.1664
 20
25.9748
 11
-58.0235
 21
26.0719
  0
LINE
  8
0
 10
-58.0235
 20
26.0719
 11
-57.8748
 21
26.1598
  0
LINE
  8
0
 10
-57.8748
 20
26.1598
 11
-57.7209
 21
26.2383
  0
LINE
  8
0
 10
-57.7209
 20
26.2383
 11
-57.5623
 21
26.3069
  0
LINE
  8
0
 10
-57.5623
 20
26.3069
 11
-57.3998
 21
26.3654
  0
LINE
  8
0
 10
-57.3998
 20
26.3654
 11
-57.2339
 21
26.4136
  0
LINE
  8
0
 10
-57.2339
 20
26.4136
 11
-57.0653
 21
26.4513
  0
LINE
  8
0
 10
-57.0653
 20
26.4513
 11
-56.8947
 21
26.4783
  0
LINE
  8
0
 10
-56.8947
 20
26.4783
 11
-56.7227
 21
26.4946
  0
LINE
  8
0
 10
-56.7227
 20
26.4946
 11
-56.55
 21
26.5
  0
LINE
  8
0
 10
-56.55
 20
26.5
 11
-56.3773
 21
26.4946
  0
LINE
  8
0
 10
-56.3773
 20
26.4946
 11
-56.2053
 21
26.4783
  0
LINE
  8
0
 10
-56.2053
 20
26.4783
 11
-56.0347
 21
26.4513
  0
LINE
  8
0
 10
-56.0347
 20
26.4513
 11
-55.8661
 21
26.4136
  0
LINE
  8
0
 10
-55.8661
 20
26.4136
 11
-55.7002
 21
26.3654
  0
LINE
  8
0
 10
-55.7002
 20
26.3654
 11
-55.5376
 21
26.3069
  0
LINE
  8
0
 10
-55.5376
 20
26.3069
 11
-55.3791
 21
26.2383
  0
LINE
  8
0
 10
-55.3791
 20
26.2383
 11
-55.2252
 21
26.1598
  0
LINE
  8
0
 10
-55.2252
 20
26.1598
 11
-55.0765
 21
26.0719
  0
LINE
  8
0
 10
-55.0765
 20
26.0719
 11
-54.9336
 21
25.9748
  0
LINE
  8
0
 10
-54.9336
 20
25.9748
 11
-54.7971
 21
25.8689
  0
LINE
  8
0
 10
-54.7971
 20
25.8689
 11
-54.6675
 21
25.7547
  0
LINE
  8
0
 10
-54.6675
 20
25.7547
 11
-54.5453
 21
25.6325
  0
LINE
  8
0
 10
-54.5453
 20
25.6325
 11
-54.4311
 21
25.5029
  0
LINE
  8
0
 10
-54.4311
 20
25.5029
 11
-54.3252
 21
25.3664
  0
LINE
  8
0
 10
-54.3252
 20
25.3664
 11
-54.2281
 21
25.2235
  0
LINE
  8
0
 10
-54.2281
 20
25.2235
 11
-54.1402
 21
25.0748
  0
LINE
  8
0
 10
-54.1402
 20
25.0748
 11
-54.0617
 21
24.9209
  0
LINE
  8
0
 10
-54.0617
 20
24.9209
 11
-53.9931
 21
24.7623
  0
LINE
  8
0
 10
-53.9931
 20
24.7623
 11
-53.9346
 21
24.5998
  0
LINE
  8
0
 10
-53.9346
 20
24.5998
 11
-53.8864
 21
24.4339
  0
LINE
  8
0
 10
-53.8864
 20
24.4339
 11
-53.8487
 21
24.2653
  0
LINE
  8
0
 10
-53.8487
 20
24.2653
 11
-53.8217
 21
24.0947
  0
LINE
  8
0
 10
-53.8217
 20
24.0947
 11
-53.8054
 21
23.9227
  0
LINE
  8
0
 10
-53.8054
 20
23.9227
 11
-53.8
 21
23.75
  0
LINE
  8
0
 10
-53.8
 20
23.75
 11
-53.8054
 21
23.5773
  0
LINE
  8
0
 10
-53.8054
 20
23.5773
 11
-53.8217
 21
23.4053
  0
LINE
  8
0
 10
-53.8217
 20
23.4053
 11
-53.8487
 21
23.2347
  0
LINE
  8
0
 10
-53.8487
 20
23.2347
 11
-53.8864
 21
23.0661
  0
LINE
  8
0
 10
-53.8864
 20
23.0661
 11
-53.9346
 21
22.9002
  0
LINE
  8
0
 10
-53.9346
 20
22.9002
 11
-53.9931
 21
22.7377
  0
LINE
  8
0
 10
-53.9931
 20
22.7377
 11
-54.0617
 21
22.5791
  0
LINE
  8
0
 10
-54.0617
 20
22.5791
 11
-54.1402
 21
22.4252
  0
LINE
  8
0
 10
-54.1402
 20
22.4252
 11
-54.2281
 21
22.2765
  0
LINE
  8
0
 10
-54.2281
 20
22.2765
 11
-54.3252
 21
22.1336
  0
LINE
  8
0
 10
-54.3252
 20
22.1336
 11
-54.4311
 21
21.9971
  0
LINE
  8
0
 10
-54.4311
 20
21.9971
 11
-54.5453
 21
21.8675
  0
LINE
  8
0
 10
-54.5453
 20
21.8675
 11
-54.6675
 21
21.7453
  0
LINE
  8
0
 10
-54.6675
 20
21.7453
 11
-54.7971
 21
21.6311
  0
LINE
  8
0
 10
-54.7971
 20
21.6311
 11
-54.9336
 21
21.5252
  0
LINE
  8
0
 10
-54.9336
 20
21.5252
 11
-55.0765
 21
21.4281
  0
LINE
  8
0
 10
-55.0765
 20
21.4281
 11
-55.2252
 21
21.3401
  0
LINE
  8
0
 10
-55.2252
 20
21.3401
 11
-55.3791
 21
21.2617
  0
LINE
  8
0
 10
-55.3791
 20
21.2617
 11
-55.5376
 21
21.1931
  0
LINE
  8
0
 10
-55.5376
 20
21.1931
 11
-55.7002
 21
21.1346
  0
LINE
  8
0
 10
-55.7002
 20
21.1346
 11
-55.8661
 21
21.0864
  0
LINE
  8
0
 10
-55.8661
 20
21.0864
 11
-56.0347
 21
21.0487
  0
LINE
  8
0
 10
-56.0347
 20
21.0487
 11
-56.2053
 21
21.0217
  0
LINE
  8
0
 10
-56.2053
 20
21.0217
 11
-56.3773
 21
21.0054
  0
LINE
  8
0
 10
-56.3773
 20
21.0054
 11
-56.55
 21
21
  0
LINE
  8
0
 10
-56.55
 20
21
 11
-56.7227
 21
21.0054
  0
LINE
  8
0
 10
56.3773
 20
21.0054
 11
56.2053
 21
21.0217
  0
LINE
  8
0
 10
56.2053
 20
21.0217
 11
56.0347
 21
21.0487
  0
LINE
  8
0
 10
56.0347
 20
21.0487
 11
55.8661
 21
21.0864
  0
LINE
  8
0
 10
55.8661
 20
21.0864
 11
55.7002
 21
21.1346
  0
LINE
  8
0
 10
55.7002
 20
21.1346
 11
55.5376
 21
21.1931
  0
LINE
  8
0
 10
55.5376
 20
21.1931
 11
55.3791
 21
21.2617
  0
LINE
  8
0
 10
55.3791
 20
21.2617
 11
55.2252
 21
21.3401
  0
LINE
  8
0
 10
55.2252
 20
21.3401
 11
55.0765
 21
21.4281
  0
LINE
  8
0
 10
55.0765
 20
21.4281
 11
54.9336
 21
21.5252
  0
LINE
  8
0
 10
54.9336
 20
21.5252
 11
54.7971
 21
21.6311
  0
LINE
  8
0
 10
54.7971
 20
21.6311
 11
54.6675
 21
21.7453
  0
LINE
  8
0
 10
54.6675
 20
21.7453
 11
54.5453
 21
21.8675
  0
LINE
  8
0
 10
54.5453
 20
21.8675
 11
54.4311
 21
21.9971
  0
LINE
  8
0
 10
54.4311
 20
21.9971
 11
54.3252
 21
22.1336
  0
LINE
  8
0
 10
54.3252
 20
22.1336
 11
54.2281
 21
22.2765
  0
LINE
  8
0
 10
54.2281
 20
22.2765
 11
54.1402
 21
22.4252
  0
LINE
  8
0
 10
54.1402
 20
22.4252
 11
54.0617
 21
22.5791
  0
LINE
  8
0
 10
54.0617
 20
22.5791
 11
53.9931
 21
22.7377
  0
LINE
  8
0
 10
53.9931
 20
22.7377
 11
53.9346
 21
22.9002
  0
LINE
  8
0
 10
53.9346
 20
22.9002
 11
53.8864
 21
23.0661
  0
LINE
  8
0
 10
53.8864
 20
23.0661
 11
53.8487
 21
23.2347
  0
LINE
  8
0
 10
53.8487
 20
23.2347
 11
53.8217
 21
23.4053
  0
LINE
  8
0
 10
53.8217
 20
23.4053
 11
53.8054
 21
23.5773
  0
LINE
  8
0
 10
53.8054
 20
23.5773
 11
53.8
 21
23.75
  0
LINE
  8
0
 10
53.8
 20
23.75
 11
53.8054
 21
23.9227
  0
LINE
  8
0
 10
53.8054
 20
23.9227
 11
53.8217
 21
24.0947
  0
LINE
  8
0
 10
53.8217
 20
24.0947
 11
53.8487
 21
24.2653
  0
LINE
  8
0
 10
53.8487
 20
24.2653
 11
53.8864
 21
24.4339
  0
LINE
  8
0
 10
53.8864
 20
24.4339
 11
53.9346
 21
24.5998
  0
LINE
  8
0
 10
53.9346
 20
24.5998
 11
53.9931
 21
24.7623
  0
LINE
  8
0
 10
53.9931
 20
24.7623
 11
54.0617
 21
24.9209
  0
LINE
  8
0
 10
54.0617
 20
24.9209
 11
54.1402
 21
25.0748
  0
LINE
  8
0
 10
54.1402
 20
25.0748
 11
54.2281
 21
25.2235
  0
LINE
  8
0
 10
54.2281
 20
25.2235
 11
54.3252
 21
25.3664
  0
LINE
  8
0
 10
54.3252
 20
25.3664
 11
54.4311
 21
25.5029
  0
LINE
  8
0
 10
54.4311
 20
25.5029
 11
54.5453
 21
25.6325
  0
LINE
  8
0
 10
54.5453
 20
25.6325
 11
54.6675
 21
25.7547
  0
LINE
  8
0
 10
54.6675
 20
25.7547
 11
54.7971
 21
25.8689
  0
LINE
  8
0
 10
54.7971
 20
25.8689
 11
54.9336
 21
25.9748
  0
LINE
  8
0
 10
54.9336
 20
25.9748
 11
55.0765
 21
26.0719
  0
LINE
  8
0
 10
55.0765
 20
26.0719
 11
55.2252
 21
26.1598
  0
LINE
  8
0
 10
55.2252
 20
26.1598
 11
55.3791
 21
26.2383
  0
LINE
  8
0
 10
55.3791
 20
26.2383
 11
55.5376
 21
26.3069
  0
LINE
  8
0
 10
55.5376
 20
26.3069
 11
55.7002
 21
26.3654
  0
LINE
  8
0
 10
55.7002
 20
26.3654
 11
55.8661
 21
26.4136
  0
LINE
  8
0
 10
55.8661
 20
26.4136
 11
56.0347
 21
26.4513
  0
LINE
  8
0
 10
56.0347
 20
26.4513
 11
56.2053
 21
26.4783
  0
LINE
  8
0
 10
56.2053
 20
26.4783
 11
56.3773
 21
26.4946
  0
LINE
  8
0
 10
56.3773
 20
26.4946
 11
56.55
 21
26.5
  0
LINE
  8
0
 10
56.55
 20
26.5
 11
56.7227
 21
26.4946
  0
LINE
  8
0
 10
56.7227
 20
26.4946
 11
56.8947
 21
26.4783
  0
LINE
  8
0
 10
56.8947
 20
26.4783
 11
57.0653
 21
26.4513
  0
LINE
  8
0
 10
57.0653
 20
26.4513
 11
57.2339
 21
26.4136
  0
LINE
  8
0
 10
57.2339
 20
26.4136
 11
57.3998
 21
26.3654
  0
LINE
  8
0
 10
57.3998
 20
26.3654
 11
57.5623
 21
26.3069
  0
LINE
  8
0
 10
57.5623
 20
26.3069
 11
57.7209
 21
26.2383
  0
LINE
  8
0
 10
57.7209
 20
26.2383
 11
57.8748
 21
26.1598
  0
LINE
  8
0
 10
57.8748
 20
26.1598
 11
58.0235
 21
26.0719
  0
LINE
  8
0
 10
58.0235
 20
26.0719
 11
58.1664
 21
25.9748
  0
LINE
  8
0
 10
58.1664
 20
25.9748
 11
58.3029
 21
25.8689
  0
LINE
  8
0
 10
58.3029
 20
25.8689
 11
58.4325
 21
25.7547
  0
LINE
  8
0
 10
58.4325
 20
25.7547
 11
58.5547
 21
25.6325
  0
LINE
  8
0
 10
58.5547
 20
25.6325
 11
58.6689
 21
25.5029
  0
LINE
  8
0
 10
58.6689
 20
25.5029
 11
58.7748
 21
25.3664
  0
LINE
  8
0
 10
58.7748
 20
25.3664
 11
58.8719
 21
25.2235
  0
LINE
  8
0
 10
58.8719
 20
25.2235
 11
58.9598
 21
25.0748
  0
LINE
  8
0
 10
58.9598
 20
25.0748
 11
59.0383
 21
24.9209
  0
LINE
  8
0
 10
59.0383
 20
24.9209
 11
59.1069
 21
24.7623
  0
LINE
  8
0
 10
59.1069
 20
24.7623
 11
59.1654
 21
24.5998
  0
LINE
  8
0
 10
59.1654
 20
24.5998
 11
59.2136
 21
24.4339
  0
LINE
  8
0
 10
59.2136
 20
24.4339
 11
59.2513
 21
24.2653
  0
LINE
  8
0
 10
59.2513
 20
24.2653
 11
59.2783
 21
24.0947
  0
LINE
  8
0
 10
59.2783
 20
24.0947
 11
59.2946
 21
23.9227
  0
LINE
  8
0
 10
59.2946
 20
23.9227
 11
59.3
 21
23.75
  0
LINE
  8
0
 10
59.3
 20
23.75
 11
59.2946
 21
23.5773
  0
LINE
  8
0
 10
59.2946
 20
23.5773
 11
59.2783
 21
23.4053
  0
LINE
  8
0
 10
59.2783
 20
23.4053
 11
59.2513
 21
23.2347
  0
LINE
  8
0
 10
59.2513
 20
23.2347
 11
59.2136
 21
23.0661
  0
LINE
  8
0
 10
59.2136
 20
23.0661
 11
59.1654
 21
22.9002
  0
LINE
  8
0
 10
59.1654
 20
22.9002
 11
59.1069
 21
22.7377
  0
LINE
  8
0
 10
59.1069
 20
22.7377
 11
59.0383
 21
22.5791
  0
LINE
  8
0
 10
59.0383
 20
22.5791
 11
58.9598
 21
22.4252
  0
LINE
  8
0
 10
58.9598
 20
22.4252
 11
58.8719
 21
22.2765
  0
LINE
  8
0
 10
58.8719
 20
22.2765
 11
58.7748
 21
22.1336
  0
LINE
  8
0
 10
58.7748
 20
22.1336
 11
58.6689
 21
21.9971
  0
LINE
  8
0
 10
58.6689
 20
21.9971
 11
58.5547
 21
21.8675
  0
LINE
  8
0
 10
58.5547
 20
21.8675
 11
58.4325
 21
21.7453
  0
LINE
  8
0
 10
58.4325
 20
21.7453
 11
58.3029
 21
21.6311
  0
LINE
  8
0
 10
58.3029
 20
21.6311
 11
58.1664
 21
21.5252
  0
LINE
  8
0
 10
58.1664
 20
21.5252
 11
58.0235
 21
21.4281
  0
LINE
  8
0
 10
58.0235
 20
21.4281
 11
57.8748
 21
21.3401
  0
LINE
  8
0
 10
57.8748
 20
21.3401
 11
57.7209
 21
21.2617
  0
LINE
  8
0
 10
57.7209
 20
21.2617
 11
57.5623
 21
21.1931
  0
LINE
  8
0
 10
57.5623
 20
21.1931
 11
57.3998
 21
21.1346
  0
LINE
  8
0
 10
57.3998
 20
21.1346
 11
57.2339
 21
21.0864
  0
LINE
  8
0
 10
57.2339
 20
21.0864
 11
57.0653
 21
21.0487
  0
LINE
  8
0
 10
57.0653
 20
21.0487
 11
56.8947
 21
21.0217
  0
LINE
  8
0
 10
56.8947
 20
21.0217
 11
56.7227
 21
21.0054
  0
LINE
  8
0
 10
56.7227
 20
21.0054
 11
56.55
 21
21
  0
LINE
  8
0
 10
56.55
 20
21
 11
56.3773
 21
21.0054
  0
LINE
  8
0
 10
-57.2198
 20
-3.49309
 11
-57.4387
 21
-3.4724
  0
LINE
  8
0
 10
-57.4387
 20
-3.4724
 11
-57.6558
 21
-3.438
  0
LINE
  8
0
 10
-57.6558
 20
-3.438
 11
-57.8704
 21
-3.39003
  0
LINE
  8
0
 10
-57.8704
 20
-3.39003
 11
-58.0816
 21
-3.32869
  0
LINE
  8
0
 10
-58.0816
 20
-3.32869
 11
-58.2884
 21
-3.25421
  0
LINE
  8
0
 10
-58.2884
 20
-3.25421
 11
-58.4902
 21
-3.16689
  0
LINE
  8
0
 10
-58.4902
 20
-3.16689
 11
-58.6861
 21
-3.06706
  0
LINE
  8
0
 10
-58.6861
 20
-3.06706
 11
-58.8754
 21
-2.95514
  0
LINE
  8
0
 10
-58.8754
 20
-2.95514
 11
-59.0572
 21
-2.83156
  0
LINE
  8
0
 10
-59.0572
 20
-2.83156
 11
-59.231
 21
-2.69679
  0
LINE
  8
0
 10
-59.231
 20
-2.69679
 11
-59.3959
 21
-2.55138
  0
LINE
  8
0
 10
-59.3959
 20
-2.55138
 11
-59.5514
 21
-2.3959
  0
LINE
  8
0
 10
-59.5514
 20
-2.3959
 11
-59.6968
 21
-2.23097
  0
LINE
  8
0
 10
-59.6968
 20
-2.23097
 11
-59.8316
 21
-2.05724
  0
LINE
  8
0
 10
-59.8316
 20
-2.05724
 11
-59.9551
 21
-1.87538
  0
LINE
  8
0
 10
-59.9551
 20
-1.87538
 11
-60.0671
 21
-1.68613
  0
LINE
  8
0
 10
-60.0671
 20
-1.68613
 11
-60.1669
 21
-1.49022
  0
LINE
  8
0
 10
-60.1669
 20
-1.49022
 11
-60.2542
 21
-1.28842
  0
LINE
  8
0
 10
-60.2542
 20
-1.28842
 11
-60.3287
 21
-1.08156
  0
LINE
  8
0
 10
-60.3287
 20
-1.08156
 11
-60.39
 21
-0.870407
  0
LINE
  8
0
 10
-60.39
 20
-0.870407
 11
-60.438
 21
-0.655823
  0
LINE
  8
0
 10
-60.438
 20
-0.655823
 11
-60.4724
 21
-0.43866
  0
LINE
  8
0
 10
-60.4724
 20
-0.43866
 11
-60.4931
 21
-0.219757
  0
LINE
  8
0
 10
-60.4931
 20
-0.219757
 11
-60.5
 21
0
  0
LINE
  8
0
 10
-60.5
 20
0
 11
-60.4931
 21
0.219757
  0
LINE
  8
0
 10
-60.4931
 20
0.219757
 11
-60.4724
 21
0.43866
  0
LINE
  8
0
 10
-60.4724
 20
0.43866
 11
-60.438
 21
0.655823
  0
LINE
  8
0
 10
-60.438
 20
0.655823
 11
-60.39
 21
0.870407
  0
LINE
  8
0
 10
-60.39
 20
0.870407
 11
-60.3287
 21
1.08156
  0
LINE
  8
0
 10
-60.3287
 20
1.08156
 11
-60.2542
 21
1.28842
  0
LINE
  8
0
 10
-60.2542
 20
1.28842
 11
-60.1669
 21
1.49022
  0
LINE
  8
0
 10
-60.1669
 20
1.49022
 11
-60.0671
 21
1.68613
  0
LINE
  8
0
 10
-60.0671
 20
1.68613
 11
-59.9551
 21
1.87538
  0
LINE
  8
0
 10
-59.9551
 20
1.87538
 11
-59.8316
 21
2.05724
  0
LINE
  8
0
 10
-59.8316
 20
2.05724
 11
-59.6968
 21
2.23097
  0
LINE
  8
0
 10
-59.6968
 20
2.23097
 11
-59.5514
 21
2.3959
  0
LINE
  8
0
 10
-59.5514
 20
2.3959
 11
-59.3959
 21
2.55138
  0
LINE
  8
0
 10
-59.3959
 20
2.55138
 11
-59.231
 21
2.69679
  0
LINE
  8
0
 10
-59.231
 20
2.69679
 11
-59.0572
 21
2.83156
  0
LINE
  8
0
 10
-59.0572
 20
2.83156
 11
-58.8754
 21
2.95514
  0
LINE
  8
0
 10
-58.8754
 20
2.95514
 11
-58.6861
 21
3.06706
  0
LINE
  8
0
 10
-58.6861
 20
3.06706
 11
-58.4902
 21
3.16689
  0
LINE
  8
0
 10
-58.4902
 20
3.16689
 11
-58.2884
 21
3.25421
  0
LINE
  8
0
 10
-58.2884
 20
3.25421
 11
-58.0816
 21
3.32869
  0
LINE
  8
0
 10
-58.0816
 20
3.32869
 11
-57.8704
 21
3.39003
  0
LINE
  8
0
 10
-57.8704
 20
3.39003
 11
-57.6558
 21
3.438
  0
LINE
  8
0
 10
-57.6558
 20
3.438
 11
-57.4387
 21
3.4724
  0
LINE
  8
0
 10
-57.4387
 20
3.4724
 11
-57.2198
 21
3.49309
  0
LINE
  8
0
 10
-57.2198
 20
3.49309
 11
-57
 21
3.5
  0
LINE
  8
0
 10
-57
 20
3.5
 11
-56.7802
 21
3.49309
  0
LINE
  8
0
 10
-56.7802
 20
3.49309
 11
-56.5613
 21
3.4724
  0
LINE
  8
0
 10
-56.5613
 20
3.4724
 11
-56.3442
 21
3.438
  0
LINE
  8
0
 10
-56.3442
 20
3.438
 11
-56.1296
 21
3.39003
  0
LINE
  8
0
 10
-56.1296
 20
3.39003
 11
-55.9184
 21
3.32869
  0
LINE
  8
0
 10
-55.9184
 20
3.32869
 11
-55.7116
 21
3.25421
  0
LINE
  8
0
 10
-55.7116
 20
3.25421
 11
-55.5098
 21
3.16689
  0
LINE
  8
0
 10
-55.5098
 20
3.16689
 11
-55.3139
 21
3.06706
  0
LINE
  8
0
 10
-55.3139
 20
3.06706
 11
-55.1246
 21
2.95514
  0
LINE
  8
0
 10
-55.1246
 20
2.95514
 11
-54.9427
 21
2.83156
  0
LINE
  8
0
 10
-54.9427
 20
2.83156
 11
-54.769
 21
2.69679
  0
LINE
  8
0
 10
-54.769
 20
2.69679
 11
-54.6041
 21
2.55138
  0
LINE
  8
0
 10
-54.6041
 20
2.55138
 11
-54.4486
 21
2.3959
  0
LINE
  8
0
 10
-54.4486
 20
2.3959
 11
-54.3032
 21
2.23097
  0
LINE
  8
0
 10
-54.3032
 20
2.23097
 11
-54.1684
 21
2.05724
  0
LINE
  8
0
 10
-54.1684
 20
2.05724
 11
-54.0448
 21
1.87538
  0
LINE
  8
0
 10
-54.0448
 20
1.87538
 11
-53.9329
 21
1.68613
  0
LINE
  8
0
 10
-53.9329
 20
1.68613
 11
-53.8331
 21
1.49022
  0
LINE
  8
0
 10
-53.8331
 20
1.49022
 11
-53.7458
 21
1.28842
  0
LINE
  8
0
 10
-53.7458
 20
1.28842
 11
-53.6713
 21
1.08156
  0
LINE
  8
0
 10
-53.6713
 20
1.08156
 11
-53.61
 21
0.870407
  0
LINE
  8
0
 10
-53.61
 20
0.870407
 11
-53.562
 21
0.655823
  0
LINE
  8
0
 10
-53.562
 20
0.655823
 11
-53.5276
 21
0.43866
  0
LINE
  8
0
 10
-53.5276
 20
0.43866
 11
-53.5069
 21
0.219757
  0
LINE
  8
0
 10
-53.5069
 20
0.219757
 11
-53.5
 21
0
  0
LINE
  8
0
 10
-53.5
 20
0
 11
-53.5069
 21
-0.219757
  0
LINE
  8
0
 10
-53.5069
 20
-0.219757
 11
-53.5276
 21
-0.43866
  0
LINE
  8
0
 10
-53.5276
 20
-0.43866
 11
-53.562
 21
-0.655823
  0
LINE
  8
0
 10
-53.562
 20
-0.655823
 11
-53.61
 21
-0.870407
  0
LINE
  8
0
 10
-53.61
 20
-0.870407
 11
-53.6713
 21
-1.08156
  0
LINE
  8
0
 10
-53.6713
 20
-1.08156
 11
-53.7458
 21
-1.28842
  0
LINE
  8
0
 10
-53.7458
 20
-1.28842
 11
-53.8331
 21
-1.49022
  0
LINE
  8
0
 10
-53.8331
 20
-1.49022
 11
-53.9329
 21
-1.68613
  0
LINE
  8
0
 10
-53.9329
 20
-1.68613
 11
-54.0448
 21
-1.87538
  0
LINE
  8
0
 10
-54.0448
 20
-1.87538
 11
-54.1684
 21
-2.05724
  0
LINE
  8
0
 10
-54.1684
 20
-2.05724
 11
-54.3032
 21
-2.23097
  0
LINE
  8
0
 10
-54.3032
 20
-2.23097
 11
-54.4486
 21
-2.3959
  0
LINE
  8
0
 10
-54.4486
 20
-2.3959
 11
-54.6041
 21
-2.55138
  0
LINE
  8
0
 10
-54.6041
 20
-2.55138
 11
-54.769
 21
-2.69679
  0
LINE
  8
0
 10
-54.769
 20
-2.69679
 11
-54.9427
 21
-2.83156
  0
LINE
  8
0
 10
-54.9427
 20
-2.83156
 11
-55.1246
 21
-2.95514
  0
LINE
  8
0
 10
-55.1246
 20
-2.95514
 11
-55.3139
 21
-3.06706
  0
LINE
  8
0
 10
-55.3139
 20
-3.06706
 11
-55.5098
 21
-3.16689
  0
LINE
  8
0
 10
-55.5098
 20
-3.16689
 11
-55.7116
 21
-3.25421
  0
LINE
  8
0
 10
-55.7116
 20
-3.25421
 11
-55.9184
 21
-3.32869
  0
LINE
  8
0
 10
-55.9184
 20
-3.32869
 11
-56.1296
 21
-3.39003
  0
LINE
  8
0
 10
-56.1296
 20
-3.39003
 11
-56.3442
 21
-3.438
  0
LINE
  8
0
 10
-56.3442
 20
-3.438
 11
-56.5613
 21
-3.4724
  0
LINE
  8
0
 10
-56.5613
 20
-3.4724
 11
-56.7802
 21
-3.49309
  0
LINE
  8
0
 10
-56.7802
 20
-3.49309
 11
-57
 21
-3.5
  0
LINE
  8
0
 10
-57
 20
-3.5
 11
-57.2198
 21
-3.49309
  0
LINE
  8
0
 10
56.7802
 20
-3.49309
 11
56.5613
 21
-3.4724
  0
LINE
  8
0
 10
56.5613
 20
-3.4724
 11
56.3442
 21
-3.438
  0
LINE
  8
0
 10
56.3442
 20
-3.438
 11
56.1296
 21
-3.39003
  0
LINE
  8
0
 10
56.1296
 20
-3.39003
 11
55.9184
 21
-3.32869
  0
LINE
  8
0
 10
55.9184
 20
-3.32869
 11
55.7116
 21
-3.25421
  0
LINE
  8
0
 10
55.7116
 20
-3.25421
 11
55.5098
 21
-3.16689
  0
LINE
  8
0
 10
55.5098
 20
-3.16689
 11
55.3139
 21
-3.06706
  0
LINE
  8
0
 10
55.3139
 20
-3.06706
 11
55.1246
 21
-2.95514
  0
LINE
  8
0
 10
55.1246
 20
-2.95514
 11
54.9427
 21
-2.83156
  0
LINE
  8
0
 10
54.9427
 20
-2.83156
 11
54.769
 21
-2.69679
  0
LINE
  8
0
 10
54.769
 20
-2.69679
 11
54.6041
 21
-2.55138
  0
LINE
  8
0
 10
54.6041
 20
-2.55138
 11
54.4486
 21
-2.3959
  0
LINE
  8
0
 10
54.4486
 20
-2.3959
 11
54.3032
 21
-2.23097
  0
LINE
  8
0
 10
54.3032
 20
-2.23097
 11
54.1684
 21
-2.05724
  0
LINE
  8
0
 10
54.1684
 20
-2.05724
 11
54.0448
 21
-1.87538
  0
LINE
  8
0
 10
54.0448
 20
-1.87538
 11
53.9329
 21
-1.68613
  0
LINE
  8
0
 10
53.9329
 20
-1.68613
 11
53.8331
 21
-1.49022
  0
LINE
  8
0
 10
53.8331
 20
-1.49022
 11
53.7458
 21
-1.28842
  0
LINE
  8
0
 10
53.7458
 20
-1.28842
 11
53.6713
 21
-1.08156
  0
LINE
  8
0
 10
53.6713
 20
-1.08156
 11
53.61
 21
-0.870407
  0
LINE
  8
0
 10
53.61
 20
-0.870407
 11
53.562
 21
-0.655823
  0
LINE
  8
0
 10
53.562
 20
-0.655823
 11
53.5276
 21
-0.43866
  0
LINE
  8
0
 10
53.5276
 20
-0.43866
 11
53.5069
 21
-0.219757
  0
LINE
  8
0
 10
53.5069
 20
-0.219757
 11
53.5
 21
0
  0
LINE
  8
0
 10
53.5
 20
0
 11
53.5069
 21
0.219757
  0
LINE
  8
0
 10
53.5069
 20
0.219757
 11
53.5276
 21
0.43866
  0
LINE
  8
0
 10
53.5276
 20
0.43866
 11
53.562
 21
0.655823
  0
LINE
  8
0
 10
53.562
 20
0.655823
 11
53.61
 21
0.870407
  0
LINE
  8
0
 10
53.61
 20
0.870407
 11
53.6713
 21
1.08156
  0
LINE
  8
0
 10
53.6713
 20
1.08156
 11
53.7458
 21
1.28842
  0
LINE
  8
0
 10
53.7458
 20
1.28842
 11
53.8331
 21
1.49022
  0
LINE
  8
0
 10
53.8331
 20
1.49022
 11
53.9329
 21
1.68613
  0
LINE
  8
0
 10
53.9329
 20
1.68613
 11
54.0448
 21
1.87538
  0
LINE
  8
0
 10
54.0448
 20
1.87538
 11
54.1684
 21
2.05724
  0
LINE
  8
0
 10
54.1684
 20
2.05724
 11
54.3032
 21
2.23097
  0
LINE
  8
0
 10
54.3032
 20
2.23097
 11
54.4486
 21
2.3959
  0
LINE
  8
0
 10
54.4486
 20
2.3959
 11
54.6041
 21
2.55138
  0
LINE
  8
0
 10
54.6041
 20
2.55138
 11
54.769
 21
2.69679
  0
LINE
  8
0
 10
54.769
 20
2.69679
 11
54.9427
 21
2.83156
  0
LINE
  8
0
 10
54.9427
 20
2.83156
 11
55.1246
 21
2.95514
  0
LINE
  8
0
 10
55.1246
 20
2.95514
 11
55.3139
 21
3.06706
  0
LINE
  8
0
 10
55.3139
 20
3.06706
 11
55.5098
 21
3.16689
  0
LINE
  8
0
 10
55.5098
 20
3.16689
 11
55.7116
 21
3.25421
  0
LINE
  8
0
 10
55.7116
 20
3.25421
 11
55.9184
 21
3.32869
  0
LINE
  8
0
 10
55.9184
 20
3.32869
 11
56.1296
 21
3.39003
  0
LINE
  8
0
 10
56.1296
 20
3.39003
 11
56.3442
 21
3.438
  0
LINE
  8
0
 10
56.3442
 20
3.438
 11
56.5613
 21
3.4724
  0
LINE
  8
0
 10
56.5613
 20
3.4724
 11
56.7802
 21
3.49309
  0
LINE
  8
0
 10
56.7802
 20
3.49309
 11
57
 21
3.5
  0
LINE
  8
0
 10
57
 20
3.5
 11
57.2198
 21
3.49309
  0
LINE
  8
0
 10
57.2198
 20
3.49309
 11
57.4387
 21
3.4724
  0
LINE
  8
0
 10
57.4387
 20
3.4724
 11
57.6558
 21
3.438
  0
LINE
  8
0
 10
57.6558
 20
3.438
 11
57.8704
 21
3.39003
  0
LINE
  8
0
 10
57.8704
 20
3.39003
 11
58.0816
 21
3.32869
  0
LINE
  8
0
 10
58.0816
 20
3.32869
 11
58.2884
 21
3.25421
  0
LINE
  8
0
 10
58.2884
 20
3.25421
 11
58.4902
 21
3.16689
  0
LINE
  8
0
 10
58.4902
 20
3.16689
 11
58.6861
 21
3.06706
  0
LINE
  8
0
 10
58.6861
 20
3.06706
 11
58.8754
 21
2.95514
  0
LINE
  8
0
 10
58.8754
 20
2.95514
 11
59.0572
 21
2.83156
  0
LINE
  8
0
 10
59.0572
 20
2.83156
 11
59.231
 21
2.69679
  0
LINE
  8
0
 10
59.231
 20
2.69679
 11
59.3959
 21
2.55138
  0
LINE
  8
0
 10
59.3959
 20
2.55138
 11
59.5514
 21
2.3959
  0
LINE
  8
0
 10
59.5514
 20
2.3959
 11
59.6968
 21
2.23097
  0
LINE
  8
0
 10
59.6968
 20
2.23097
 11
59.8316
 21
2.05724
  0
LINE
  8
0
 10
59.8316
 20
2.05724
 11
59.9551
 21
1.87538
  0
LINE
  8
0
 10
59.9551
 20
1.87538
 11
60.0671
 21
1.68613
  0
LINE
  8
0
 10
60.0671
 20
1.68613
 11
60.1669
 21
1.49022
  0
LINE
  8
0
 10
60.1669
 20
1.49022
 11
60.2542
 21
1.28842
  0
LINE
  8
0
 10
60.2542
 20
1.28842
 11
60.3287
 21
1.08156
  0
LINE
  8
0
 10
60.3287
 20
1.08156
 11
60.39
 21
0.870407
  0
LINE
  8
0
 10
60.39
 20
0.870407
 11
60.438
 21
0.655823
  0
LINE
  8
0
 10
60.438
 20
0.655823
 11
60.4724
 21
0.43866
  0
LINE
  8
0
 10
60.4724
 20
0.43866
 11
60.4931
 21
0.219757
  0
LINE
  8
0
 10
60.4931
 20
0.219757
 11
60.5
 21
0
  0
LINE
  8
0
 10
60.5
 20
0
 11
60.4931
 21
-0.219757
  0
LINE
  8
0
 10
60.4931
 20
-0.219757
 11
60.4724
 21
-0.43866
  0
LINE
  8
0
 10
60.4724
 20
-0.43866
 11
60.438
 21
-0.655823
  0
LINE
  8
0
 10
60.438
 20
-0.655823
 11
60.39
 21
-0.870407
  0
LINE
  8
0
 10
60.39
 20
-0.870407
 11
60.3287
 21
-1.08156
  0
LINE
  8
0
 10
60.3287
 20
-1.08156
 11
60.2542
 21
-1.28842
  0
LINE
  8
0
 10
60.2542
 20
-1.28842
 11
60.1669
 21
-1.49022
  0
LINE
  8
0
 10
60.1669
 20
-1.49022
 11
60.0671
 21
-1.68613
  0
LINE
  8
0
 10
60.0671
 20
-1.68613
 11
59.9551
 21
-1.87538
  0
LINE
  8
0
 10
59.9551
 20
-1.87538
 11
59.8316
 21
-2.05724
  0
LINE
  8
0
 10
59.8316
 20
-2.05724
 11
59.6968
 21
-2.23097
  0
LINE
  8
0
 10
59.6968
 20
-2.23097
 11
59.5514
 21
-2.3959
  0
LINE
  8
0
 10
59.5514
 20
-2.3959
 11
59.3959
 21
-2.55138
  0
LINE
  8
0
 10
59.3959
 20
-2.55138
 11
59.231
 21
-2.69679
  0
LINE
  8
0
 10
59.231
 20
-2.69679
 11
59.0572
 21
-2.83156
  0
LINE
  8
0
 10
59.0572
 20
-2.83156
 11
58.8754
 21
-2.95514
  0
LINE
  8
0
 10
58.8754
 20
-2.95514
 11
58.6861
 21
-3.06706
  0
LINE
  8
0
 10
58.6861
 20
-3.06706
 11
58.4902
 21
-3.16689
  0
LINE
  8
0
 10
58.4902
 20
-3.16689
 11
58.2884
 21
-3.25421
  0
LINE
  8
0
 10
58.2884
 20
-3.25421
 11
58.0816
 21
-3.32869
  0
LINE
  8
0
 10
58.0816
 20
-3.32869
 11
57.8704
 21
-3.39003
  0
LINE
  8
0
 10
57.8704
 20
-3.39003
 11
57.6558
 21
-3.438
  0
LINE
  8
0
 10
57.6558
 20
-3.438
 11
57.4387
 21
-3.4724
  0
LINE
  8
0
 10
57.4387
 20
-3.4724
 11
57.2198
 21
-3.49309
  0
LINE
  8
0
 10
57.2198
 20
-3.49309
 11
57
 21
-3.5
  0
LINE
  8
0
 10
57
 20
-3.5
 11
56.7802
 21
-3.49309
  0
LINE
  8
0
 10
56.3773
 20
-26.4946
 11
56.2053
 21
-26.4783
  0
LINE
  8
0
 10
56.2053
 20
-26.4783
 11
56.0347
 21
-26.4513
  0
LINE
  8
0
 10
56.0347
 20
-26.4513
 11
55.8661
 21
-26.4136
  0
LINE
  8
0
 10
55.8661
 20
-26.4136
 11
55.7002
 21
-26.3654
  0
LINE
  8
0
 10
55.7002
 20
-26.3654
 11
55.5376
 21
-26.3069
  0
LINE
  8
0
 10
55.5376
 20
-26.3069
 11
55.3791
 21
-26.2383
  0
LINE
  8
0
 10
55.3791
 20
-26.2383
 11
55.2252
 21
-26.1598
  0
LINE
  8
0
 10
55.2252
 20
-26.1598
 11
55.0765
 21
-26.0719
  0
LINE
  8
0
 10
55.0765
 20
-26.0719
 11
54.9336
 21
-25.9748
  0
LINE
  8
0
 10
54.9336
 20
-25.9748
 11
54.7971
 21
-25.8689
  0
LINE
  8
0
 10
54.7971
 20
-25.8689
 11
54.6675
 21
-25.7547
  0
LINE
  8
0
 10
54.6675
 20
-25.7547
 11
54.5453
 21
-25.6325
  0
LINE
  8
0
 10
54.5453
 20
-25.6325
 11
54.4311
 21
-25.5029
  0
LINE
  8
0
 10
54.4311
 20
-25.5029
 11
54.3252
 21
-25.3664
  0
LINE
  8
0
 10
54.3252
 20
-25.3664
 11
54.2281
 21
-25.2235
  0
LINE
  8
0
 10
54.2281
 20
-25.2235
 11
54.1402
 21
-25.0748
  0
LINE
  8
0
 10
54.1402
 20
-25.0748
 11
54.0617
 21
-24.9209
  0
LINE
  8
0
 10
54.0617
 20
-24.9209
 11
53.9931
 21
-24.7623
  0
LINE
  8
0
 10
53.9931
 20
-24.7623
 11
53.9346
 21
-24.5998
  0
LINE
  8
0
 10
53.9346
 20
-24.5998
 11
53.8864
 21
-24.4339
  0
LINE
  8
0
 10
53.8864
 20
-24.4339
 11
53.8487
 21
-24.2653
  0
LINE
  8
0
 10
53.8487
 20
-24.2653
 11
53.8217
 21
-24.0947
  0
LINE
  8
0
 10
53.8217
 20
-24.0947
 11
53.8054
 21
-23.9227
  0
LINE
  8
0
 10
53.8054
 20
-23.9227
 11
53.8
 21
-23.75
  0
LINE
  8
0
 10
53.8
 20
-23.75
 11
53.8054
 21
-23.5773
  0
LINE
  8
0
 10
53.8054
 20
-23.5773
 11
53.8217
 21
-23.4053
  0
LINE
  8
0
 10
53.8217
 20
-23.4053
 11
53.8487
 21
-23.2347
  0
LINE
  8
0
 10
53.8487
 20
-23.2347
 11
53.8864
 21
-23.0661
  0
LINE
  8
0
 10
53.8864
 20
-23.0661
 11
53.9346
 21
-22.9002
  0
LINE
  8
0
 10
53.9346
 20
-22.9002
 11
53.9931
 21
-22.7377
  0
LINE
  8
0
 10
53.9931
 20
-22.7377
 11
54.0617
 21
-22.5791
  0
LINE
  8
0
 10
54.0617
 20
-22.5791
 11
54.1402
 21
-22.4252
  0
LINE
  8
0
 10
54.1402
 20
-22.4252
 11
54.2281
 21
-22.2765
  0
LINE
  8
0
 10
54.2281
 20
-22.2765
 11
54.3252
 21
-22.1336
  0
LINE
  8
0
 10
54.3252
 20
-22.1336
 11
54.4311
 21
-21.9971
  0
LINE
  8
0
 10
54.4311
 20
-21.9971
 11
54.5453
 21
-21.8675
  0
LINE
  8
0
 10
54.5453
 20
-21.8675
 11
54.6675
 21
-21.7453
  0
LINE
  8
0
 10
54.6675
 20
-21.7453
 11
54.7971
 21
-21.6311
  0
LINE
  8
0
 10
54.7971
 20
-21.6311
 11
54.9336
 21
-21.5252
  0
LINE
  8
0
 10
54.9336
 20
-21.5252
 11
55.0765
 21
-21.4281
  0
LINE
  8
0
 10
55.0765
 20
-21.4281
 11
55.2252
 21
-21.3401
  0
LINE
  8
0
 10
55.2252
 20
-21.3401
 11
55.3791
 21
-21.2617
  0
LINE
  8
0
 10
55.3791
 20
-21.2617
 11
55.5376
 21
-21.1931
  0
LINE
  8
0
 10
55.5376
 20
-21.1931
 11
55.7002
 21
-21.1346
  0
LINE
  8
0
 10
55.7002
 20
-21.1346
 11
55.8661
 21
-21.0864
  0
LINE
  8
0
 10
55.8661
 20
-21.0864
 11
56.0347
 21
-21.0487
  0
LINE
  8
0
 10
56.0347
 20
-21.0487
 11
56.2053
 21
-21.0217
  0
LINE
  8
0
 10
56.2053
 20
-21.0217
 11
56.3773
 21
-21.0054
  0
LINE
  8
0
 10
56.3773
 20
-21.0054
 11
56.55
 21
-21
  0
LINE
  8
0
 10
56.55
 20
-21
 11
56.7227
 21
-21.0054
  0
LINE
  8
0
 10
56.7227
 20
-21.0054
 11
56.8947
 21
-21.0217
  0
LINE
  8
0
 10
56.8947
 20
-21.0217
 11
57.0653
 21
-21.0487
  0
LINE
  8
0
 10
57.0653
 20
-21.0487
 11
57.2339
 21
-21.0864
  0
LINE
  8
0
 10
57.2339
 20
-21.0864
 11
57.3998
 21
-21.1346
  0
LINE
  8
0
 10
57.3998
 20
-21.1346
 11
57.5623
 21
-21.1931
  0
LINE
  8
0
 10
57.5623
 20
-21.1931
 11
57.7209
 21
-21.2617
  0
LINE
  8
0
 10
57.7209
 20
-21.2617
 11
57.8748
 21
-21.3401
  0
LINE
  8
0
 10
57.8748
 20
-21.3401
 11
58.0235
 21
-21.4281
  0
LINE
  8
0
 10
58.0235
 20
-21.4281
 11
58.1664
 21
-21.5252
  0
LINE
  8
0
 10
58.1664
 20
-21.5252
 11
58.3029
 21
-21.6311
  0
LINE
  8
0
 10
58.3029
 20
-21.6311
 11
58.4325
 21
-21.7453
  0
LINE
  8
0
 10
58.4325
 20
-21.7453
 11
58.5547
 21
-21.8675
  0
LINE
  8
0
 10
58.5547
 20
-21.8675
 11
58.6689
 21
-21.9971
  0
LINE
  8
0
 10
58.6689
 20
-21.9971
 11
58.7748
 21
-22.1336
  0
LINE
  8
0
 10
58.7748
 20
-22.1336
 11
58.8719
 21
-22.2765
  0
LINE
  8
0
 10
58.8719
 20
-22.2765
 11
58.9598
 21
-22.4252
  0
LINE
  8
0
 10
58.9598
 20
-22.4252
 11
59.0383
 21
-22.5791
  0
LINE
  8
0
 10
59.0383
 20
-22.5791
 11
59.1069
 21
-22.7377
  0
LINE
  8
0
 10
59.1069
 20
-22.7377
 11
59.1654
 21
-22.9002
  0
LINE
  8
0
 10
59.1654
 20
-22.9002
 11
59.2136
 21
-23.0661
  0
LINE
  8
0
 10
59.2136
 20
-23.0661
 11
59.2513
 21
-23.2347
  0
LINE
  8
0
 10
59.2513
 20
-23.2347
 11
59.2783
 21
-23.4053
  0
LINE
  8
0
 10
59.2783
 20
-23.4053
 11
59.2946
 21
-23.5773
  0
LINE
  8
0
 10
59.2946
 20
-23.5773
 11
59.3
 21
-23.75
  0
LINE
  8
0
 10
59.3
 20
-23.75
 11
59.2946
 21
-23.9227
  0
LINE
  8
0
 10
59.2946
 20
-23.9227
 11
59.2783
 21
-24.0947
  0
LINE
  8
0
 10
59.2783
 20
-24.0947
 11
59.2513
 21
-24.2653
  0
LINE
  8
0
 10
59.2513
 20
-24.2653
 11
59.2136
 21
-24.4339
  0
LINE
  8
0
 10
59.2136
 20
-24.4339
 11
59.1654
 21
-24.5998
  0
LINE
  8
0
 10
59.1654
 20
-24.5998
 11
59.1069
 21
-24.7623
  0
LINE
  8
0
 10
59.1069
 20
-24.7623
 11
59.0383
 21
-24.9209
  0
LINE
  8
0
 10
59.0383
 20
-24.9209
 11
58.9598
 21
-25.0748
  0
LINE
  8
0
 10
58.9598
 20
-25.0748
 11
58.8719
 21
-25.2235
  0
LINE
  8
0
 10
58.8719
 20
-25.2235
 11
58.7748
 21
-25.3664
  0
LINE
  8
0
 10
58.7748
 20
-25.3664
 11
58.6689
 21
-25.5029
  0
LINE
  8
0
 10
58.6689
 20
-25.5029
 11
58.5547
 21
-25.6325
  0
LINE
  8
0
 10
58.5547
 20
-25.6325
 11
58.4325
 21
-25.7547
  0
LINE
  8
0
 10
58.4325
 20
-25.7547
 11
58.3029
 21
-25.8689
  0
LINE
  8
0
 10
58.3029
 20
-25.8689
 11
58.1664
 21
-25.9748
  0
LINE
  8
0
 10
58.1664
 20
-25.9748
 11
58.0235
 21
-26.0719
  0
LINE
  8
0
 10
58.0235
 20
-26.0719
 11
57.8748
 21
-26.1598
  0
LINE
  8
0
 10
57.8748
 20
-26.1598
 11
57.7209
 21
-26.2383
  0
LINE
  8
0
 10
57.7209
 20
-26.2383
 11
57.5623
 21
-26.3069
  0
LINE
  8
0
 10
57.5623
 20
-26.3069
 11
57.3998
 21
-26.3654
  0
LINE
  8
0
 10
57.3998
 20
-26.3654
 11
57.2339
 21
-26.4136
  0
LINE
  8
0
 10
57.2339
 20
-26.4136
 11
57.0653
 21
-26.4513
  0
LINE
  8
0
 10
57.0653
 20
-26.4513
 11
56.8947
 21
-26.4783
  0
LINE
  8
0
 10
56.8947
 20
-26.4783
 11
56.7227
 21
-26.4946
  0
LINE
  8
0
 10
56.7227
 20
-26.4946
 11
56.55
 21
-26.5
  0
LINE
  8
0
 10
56.55
 20
-26.5
 11
56.3773
 21
-26.4946
  0
LINE
  8
0
 10
-56.7227
 20
-26.4946
 11
-56.8947
 21
-26.4783
  0
LINE
  8
0
 10
-56.8947
 20
-26.4783
 11
-57.0653
 21
-26.4513
  0
LINE
  8
0
 10
-57.0653
 20
-26.4513
 11
-57.2339
 21
-26.4136
  0
LINE
  8
0
 10
-57.2339
 20
-26.4136
 11
-57.3998
 21
-26.3654
  0
LINE
  8
0
 10
-57.3998
 20
-26.3654
 11
-57.5623
 21
-26.3069
  0
LINE
  8
0
 10
-57.5623
 20
-26.3069
 11
-57.7209
 21
-26.2383
  0
LINE
  8
0
 10
-57.7209
 20
-26.2383
 11
-57.8748
 21
-26.1598
  0
LINE
  8
0
 10
-57.8748
 20
-26.1598
 11
-58.0235
 21
-26.0719
  0
LINE
  8
0
 10
-58.0235
 20
-26.0719
 11
-58.1664
 21
-25.9748
  0
LINE
  8
0
 10
-58.1664
 20
-25.9748
 11
-58.3029
 21
-25.8689
  0
LINE
  8
0
 10
-58.3029
 20
-25.8689
 11
-58.4325
 21
-25.7547
  0
LINE
  8
0
 10
-58.4325
 20
-25.7547
 11
-58.5547
 21
-25.6325
  0
LINE
  8
0
 10
-58.5547
 20
-25.6325
 11
-58.6689
 21
-25.5029
  0
LINE
  8
0
 10
-58.6689
 20
-25.5029
 11
-58.7748
 21
-25.3664
  0
LINE
  8
0
 10
-58.7748
 20
-25.3664
 11
-58.8719
 21
-25.2235
  0
LINE
  8
0
 10
-58.8719
 20
-25.2235
 11
-58.9598
 21
-25.0748
  0
LINE
  8
0
 10
-58.9598
 20
-25.0748
 11
-59.0383
 21
-24.9209
  0
LINE
  8
0
 10
-59.0383
 20
-24.9209
 11
-59.1069
 21
-24.7623
  0
LINE
  8
0
 10
-59.1069
 20
-24.7623
 11
-59.1654
 21
-24.5998
  0
LINE
  8
0
 10
-59.1654
 20
-24.5998
 11
-59.2136
 21
-24.4339
  0
LINE
  8
0
 10
-59.2136
 20
-24.4339
 11
-59.2513
 21
-24.2653
  0
LINE
  8
0
 10
-59.2513
 20
-24.2653
 11
-59.2783
 21
-24.0947
  0
LINE
  8
0
 10
-59.2783
 20
-24.0947
 11
-59.2946
 21
-23.9227
  0
LINE
  8
0
 10
-59.2946
 20
-23.9227
 11
-59.3
 21
-23.75
  0
LINE
  8
0
 10
-59.3
 20
-23.75
 11
-59.2946
 21
-23.5773
  0
LINE
  8
0
 10
-59.2946
 20
-23.5773
 11
-59.2783
 21
-23.4053
  0
LINE
  8
0
 10
-59.2783
 20
-23.4053
 11
-59.2513
 21
-23.2347
  0
LINE
  8
0
 10
-59.2513
 20
-23.2347
 11
-59.2136
 21
-23.0661
  0
LINE
  8
0
 10
-59.2136
 20
-23.0661
 11
-59.1654
 21
-22.9002
  0
LINE
  8
0
 10
-59.1654
 20
-22.9002
 11
-59.1069
 21
-22.7377
  0
LINE
  8
0
 10
-59.1069
 20
-22.7377
 11
-59.0383
 21
-22.5791
  0
LINE
  8
0
 10
-59.0383
 20
-22.5791
 11
-58.9598
 21
-22.4252
  0
LINE
  8
0
 10
-58.9598
 20
-22.4252
 11
-58.8719
 21
-22.2765
  0
LINE
  8
0
 10
-58.8719
 20
-22.2765
 11
-58.7748
 21
-22.1336
  0
LINE
  8
0
 10
-58.7748
 20
-22.1336
 11
-58.6689
 21
-21.9971
  0
LINE
  8
0
 10
-58.6689
 20
-21.9971
 11
-58.5547
 21
-21.8675
  0
LINE
  8
0
 10
-58.5547
 20
-21.8675
 11
-58.4325
 21
-21.7453
  0
LINE
  8
0
 10
-58.4325
 20
-21.7453
 11
-58.3029
 21
-21.6311
  0
LINE
  8
0
 10
-58.3029
 20
-21.6311
 11
-58.1664
 21
-21.5252
  0
LINE
  8
0
 10
-58.1664
 20
-21.5252
 11
-58.0235
 21
-21.4281
  0
LINE
  8
0
 10
-58.0235
 20
-21.4281
 11
-57.8748
 21
-21.3401
  0
LINE
  8
0
 10
-57.8748
 20
-21.3401
 11
-57.7209
 21
-21.2617
  0
LINE
  8
0
 10
-57.7209
 20
-21.2617
 11
-57.5623
 21
-21.1931
  0
LINE
  8
0
 10
-57.5623
 20
-21.1931
 11
-57.3998
 21
-21.1346
  0
LINE
  8
0
 10
-57.3998
 20
-21.1346
 11
-57.2339
 21
-21.0864
  0
LINE
  8
0
 10
-57.2339
 20
-21.0864
 11
-57.0653
 21
-21.0487
  0
LINE
  8
0
 10
-57.0653
 20
-21.0487
 11
-56.8947
 21
-21.0217
  0
LINE
  8
0
 10
-56.8947
 20
-21.0217
 11
-56.7227
 21
-21.0054
  0
LINE
  8
0
 10
-56.7227
 20
-21.0054
 11
-56.55
 21
-21
  0
LINE
  8
0
 10
-56.55
 20
-21
 11
-56.3773
 21
-21.0054
  0
LINE
  8
0
 10
-56.3773
 20
-21.0054
 11
-56.2053
 21
-21.0217
  0
LINE
  8
0
 10
-56.2053
 20
-21.0217
 11
-56.0347
 21
-21.0487
  0
LINE
  8
0
 10
-56.0347
 20
-21.0487
 11
-55.8661
 21
-21.0864
  0
LINE
  8
0
 10
-55.8661
 20
-21.0864
 11
-55.7002
 21
-21.1346
  0
LINE
  8
0
 10
-55.7002
 20
-21.1346
 11
-55.5376
 21
-21.1931
  0
LINE
  8
0
 10
-55.5376
 20
-21.1931
 11
-55.3791
 21
-21.2617
  0
LINE
  8
0
 10
-55.3791
 20
-21.2617
 11
-55.2252
 21
-21.3401
  0
LINE
  8
0
 10
-55.2252
 20
-21.3401
 11
-55.0765
 21
-21.4281
  0
LINE
  8
0
 10
-55.0765
 20
-21.4281
 11
-54.9336
 21
-21.5252
  0
LINE
  8
0
 10
-54.9336
 20
-21.5252
 11
-54.7971
 21
-21.6311
  0
LINE
  8
0
 10
-54.7971
 20
-21.6311
 11
-54.6675
 21
-21.7453
  0
LINE
  8
0
 10
-54.6675
 20
-21.7453
 11
-54.5453
 21
-21.8675
  0
LINE
  8
0
 10
-54.5453
 20
-21.8675
 11
-54.4311
 21
-21.9971
  0
LINE
  8
0
 10
-54.4311
 20
-21.9971
 11
-54.3252
 21
-22.1336
  0
LINE
  8
0
 10
-54.3252
 20
-22.1336
 11
-54.2281
 21
-22.2765
  0
LINE
  8
0
 10
-54.2281
 20
-22.2765
 11
-54.1402
 21
-22.4252
  0
LINE
  8
0
 10
-54.1402
 20
-22.4252
 11
-54.0617
 21
-22.5791
  0
LINE
  8
0
 10
-54.0617
 20
-22.5791
 11
-53.9931
 21
-22.7377
  0
LINE
  8
0
 10
-53.9931
 20
-22.7377
 11
-53.9346
 21
-22.9002
  0
LINE
  8
0
 10
-53.9346
 20
-22.9002
 11
-53.8864
 21
-23.0661
  0
LINE
  8
0
 10
-53.8864
 20
-23.0661
 11
-53.8487
 21
-23.2347
  0
LINE
  8
0
 10
-53.8487
 20
-23.2347
 11
-53.8217
 21
-23.4053
  0
LINE
  8
0
 10
-53.8217
 20
-23.4053
 11
-53.8054
 21
-23.5773
  0
LINE
  8
0
 10
-53.8054
 20
-23.5773
 11
-53.8
 21
-23.75
  0
LINE
  8
0
 10
-53.8
 20
-23.75
 11
-53.8054
 21
-23.9227
  0
LINE
  8
0
 10
-53.8054
 20
-23.9227
 11
-53.8217
 21
-24.0947
  0
LINE
  8
0
 10
-53.8217
 20
-24.0947
 11
-53.8487
 21
-24.2653
  0
LINE
  8
0
 10
-53.8487
 20
-24.2653
 11
-53.8864
 21
-24.4339
  0
LINE
  8
0
 10
-53.8864
 20
-24.4339
 11
-53.9346
 21
-24.5998
  0
LINE
  8
0
 10
-53.9346
 20
-24.5998
 11
-53.9931
 21
-24.7623
  0
LINE
  8
0
 10
-53.9931
 20
-24.7623
 11
-54.0617
 21
-24.9209
  0
LINE
  8
0
 10
-54.0617
 20
-24.9209
 11
-54.1402
 21
-25.0748
  0
LINE
  8
0
 10
-54.1402
 20
-25.0748
 11
-54.2281
 21
-25.2235
  0
LINE
  8
0
 10
-54.2281
 20
-25.2235
 11
-54.3252
 21
-25.3664
  0
LINE
  8
0
 10
-54.3252
 20
-25.3664
 11
-54.4311
 21
-25.5029
  0
LINE
  8
0
 10
-54.4311
 20
-25.5029
 11
-54.5453
 21
-25.6325
  0
LINE
  8
0
 10
-54.5453
 20
-25.6325
 11
-54.6675
 21
-25.7547
  0
LINE
  8
0
 10
-54.6675
 20
-25.7547
 11
-54.7971
 21
-25.8689
  0
LINE
  8
0
 10
-54.7971
 20
-25.8689
 11
-54.9336
 21
-25.9748
  0
LINE
  8
0
 10
-54.9336
 20
-25.9748
 11
-55.0765
 21
-26.0719
  0
LINE
  8
0
 10
-55.0765
 20
-26.0719
 11
-55.2252
 21
-26.1598
  0
LINE
  8
0
 10
-55.2252
 20
-26.1598
 11
-55.3791
 21
-26.2383
  0
LINE
  8
0
 10
-55.3791
 20
-26.2383
 11
-55.5376
 21
-26.3069
  0
LINE
  8
0
 10
-55.5376
 20
-26.3069
 11
-55.7002
 21
-26.3654
  0
LINE
  8
0
 10
-55.7002
 20
-26.3654
 11
-55.8661
 21
-26.4136
  0
LINE
  8
0
 10
-55.8661
 20
-26.4136
 11
-56.0347
 21
-26.4513
  0
LINE
  8
0
 10
-56.0347
 20
-26.4513
 11
-56.2053
 21
-26.4783
  0
LINE
  8
0
 10
-56.2053
 20
-26.4783
 11
-56.3773
 21
-26.4946
  0
LINE
  8
0
 10
-56.3773
 20
-26.4946
 11
-56.55
 21
-26.5
  0
LINE
  8
0
 10
-56.55
 20
-26.5
 11
-56.7227
 21
-26.4946
  0
LINE
  8
0
 10
-0.219757
 20
-51.4931
 11
-0.43866
 21
-51.4724
  0
LINE
  8
0
 10
-0.43866
 20
-51.4724
 11
-0.655823
 21
-51.438
  0
LINE
  8
0
 10
-0.655823
 20
-51.438
 11
-0.870407
 21
-51.39
  0
LINE
  8
0
 10
-0.870407
 20
-51.39
 11
-1.08156
 21
-51.3287
  0
LINE
  8
0
 10
-1.08156
 20
-51.3287
 11
-1.28842
 21
-51.2542
  0
LINE
  8
0
 10
-1.28842
 20
-51.2542
 11
-1.49022
 21
-51.1669
  0
LINE
  8
0
 10
-1.49022
 20
-51.1669
 11
-1.68613
 21
-51.0671
  0
LINE
  8
0
 10
-1.68613
 20
-51.0671
 11
-1.87538
 21
-50.9551
  0
LINE
  8
0
 10
-1.87538
 20
-50.9551
 11
-2.05724
 21
-50.8316
  0
LINE
  8
0
 10
-2.05724
 20
-50.8316
 11
-2.23097
 21
-50.6968
  0
LINE
  8
0
 10
-2.23097
 20
-50.6968
 11
-2.3959
 21
-50.5514
  0
LINE
  8
0
 10
-2.3959
 20
-50.5514
 11
-2.55138
 21
-50.3959
  0
LINE
  8
0
 10
-2.55138
 20
-50.3959
 11
-2.69679
 21
-50.231
  0
LINE
  8
0
 10
-2.69679
 20
-50.231
 11
-2.83156
 21
-50.0572
  0
LINE
  8
0
 10
-2.83156
 20
-50.0572
 11
-2.95514
 21
-49.8754
  0
LINE
  8
0
 10
-2.95514
 20
-49.8754
 11
-3.06706
 21
-49.6861
  0
LINE
  8
0
 10
-3.06706
 20
-49.6861
 11
-3.16689
 21
-49.4902
  0
LINE
  8
0
 10
-3.16689
 20
-49.4902
 11
-3.25421
 21
-49.2884
  0
LINE
  8
0
 10
-3.25421
 20
-49.2884
 11
-3.32869
 21
-49.0816
  0
LINE
  8
0
 10
-3.32869
 20
-49.0816
 11
-3.39003
 21
-48.8704
  0
LINE
  8
0
 10
-3.39003
 20
-48.8704
 11
-3.438
 21
-48.6558
  0
LINE
  8
0
 10
-3.438
 20
-48.6558
 11
-3.4724
 21
-48.4387
  0
LINE
  8
0
 10
-3.4724
 20
-48.4387
 11
-3.49309
 21
-48.2198
  0
LINE
  8
0
 10
-3.49309
 20
-48.2198
 11
-3.5
 21
-48
  0
LINE
  8
0
 10
-3.5
 20
-48
 11
-3.49309
 21
-47.7802
  0
LINE
  8
0
 10
-3.49309
 20
-47.7802
 11
-3.4724
 21
-47.5613
  0
LINE
  8
0
 10
-3.4724
 20
-47.5613
 11
-3.438
 21
-47.3442
  0
LINE
  8
0
 10
-3.438
 20
-47.3442
 11
-3.39003
 21
-47.1296
  0
LINE
  8
0
 10
-3.39003
 20
-47.1296
 11
-3.32869
 21
-46.9184
  0
LINE
  8
0
 10
-3.32869
 20
-46.9184
 11
-3.25421
 21
-46.7116
  0
LINE
  8
0
 10
-3.25421
 20
-46.7116
 11
-3.16689
 21
-46.5098
  0
LINE
  8
0
 10
-3.16689
 20
-46.5098
 11
-3.06706
 21
-46.3139
  0
LINE
  8
0
 10
-3.06706
 20
-46.3139
 11
-2.95514
 21
-46.1246
  0
LINE
  8
0
 10
-2.95514
 20
-46.1246
 11
-2.83156
 21
-45.9427
  0
LINE
  8
0
 10
-2.83156
 20
-45.9427
 11
-2.69679
 21
-45.769
  0
LINE
  8
0
 10
-2.69679
 20
-45.769
 11
-2.55138
 21
-45.6041
  0
LINE
  8
0
 10
-2.55138
 20
-45.6041
 11
-2.3959
 21
-45.4486
  0
LINE
  8
0
 10
-2.3959
 20
-45.4486
 11
-2.23097
 21
-45.3032
  0
LINE
  8
0
 10
-2.23097
 20
-45.3032
 11
-2.05724
 21
-45.1684
  0
LINE
  8
0
 10
-2.05724
 20
-45.1684
 11
-1.87538
 21
-45.0448
  0
LINE
  8
0
 10
-1.87538
 20
-45.0448
 11
-1.68613
 21
-44.9329
  0
LINE
  8
0
 10
-1.68613
 20
-44.9329
 11
-1.49022
 21
-44.8331
  0
LINE
  8
0
 10
-1.49022
 20
-44.8331
 11
-1.28842
 21
-44.7458
  0
LINE
  8
0
 10
-1.28842
 20
-44.7458
 11
-1.08156
 21
-44.6713
  0
LINE
  8
0
 10
-1.08156
 20
-44.6713
 11
-0.870407
 21
-44.61
  0
LINE
  8
0
 10
-0.870407
 20
-44.61
 11
-0.655823
 21
-44.562
  0
LINE
  8
0
 10
-0.655823
 20
-44.562
 11
-0.43866
 21
-44.5276
  0
LINE
  8
0
 10
-0.43866
 20
-44.5276
 11
-0.219757
 21
-44.5069
  0
LINE
  8
0
 10
-0.219757
 20
-44.5069
 11
0
 21
-44.5
  0
LINE
  8
0
 10
0
 20
-44.5
 11
0.219757
 21
-44.5069
  0
LINE
  8
0
 10
0.219757
 20
-44.5069
 11
0.43866
 21
-44.5276
  0
LINE
  8
0
 10
0.43866
 20
-44.5276
 11
0.655823
 21
-44.562
  0
LINE
  8
0
 10
0.655823
 20
-44.562
 11
0.870407
 21
-44.61
  0
LINE
  8
0
 10
0.870407
 20
-44.61
 11
1.08156
 21
-44.6713
  0
LINE
  8
0
 10
1.08156
 20
-44.6713
 11
1.28842
 21
-44.7458
  0
LINE
  8
0
 10
1.28842
 20
-44.7458
 11
1.49022
 21
-44.8331
  0
LINE
  8
0
 10
1.49022
 20
-44.8331
 11
1.68613
 21
-44.9329
  0
LINE
  8
0
 10
1.68613
 20
-44.9329
 11
1.87538
 21
-45.0448
  0
LINE
  8
0
 10
1.87538
 20
-45.0448
 11
2.05724
 21
-45.1684
  0
LINE
  8
0
 10
2.05724
 20
-45.1684
 11
2.23097
 21
-45.3032
  0
LINE
  8
0
 10
2.23097
 20
-45.3032
 11
2.3959
 21
-45.4486
  0
LINE
  8
0
 10
2.3959
 20
-45.4486
 11
2.55138
 21
-45.6041
  0
LINE
  8
0
 10
2.55138
 20
-45.6041
 11
2.69679
 21
-45.769
  0
LINE
  8
0
 10
2.69679
 20
-45.769
 11
2.83156
 21
-45.9427
  0
LINE
  8
0
 10
2.83156
 20
-45.9427
 11
2.95514
 21
-46.1246
  0
LINE
  8
0
 10
2.95514
 20
-46.1246
 11
3.06706
 21
-46.3139
  0
LINE
  8
0
 10
3.06706
 20
-46.3139
 11
3.16689
 21
-46.5098
  0
LINE
  8
0
 10
3.16689
 20
-46.5098
 11
3.25421
 21
-46.7116
  0
LINE
  8
0
 10
3.25421
 20
-46.7116
 11
3.32869
 21
-46.9184
  0
LINE
  8
0
 10
3.32869
 20
-46.9184
 11
3.39003
 21
-47.1296
  0
LINE
  8
0
 10
3.39003
 20
-47.1296
 11
3.438
 21
-47.3442
  0
LINE
  8
0
 10
3.438
 20
-47.3442
 11
3.4724
 21
-47.5613
  0
LINE
  8
0
 10
3.4724
 20
-47.5613
 11
3.49309
 21
-47.7802
  0
LINE
  8
0
 10
3.49309
 20
-47.7802
 11
3.5
 21
-48
  0
LINE
  8
0
 10
3.5
 20
-48
 11
3.49309
 21
-48.2198
  0
LINE
  8
0
 10
3.49309
 20
-48.2198
 11
3.4724
 21
-48.4387
  0
LINE
  8
0
 10
3.4724
 20
-48.4387
 11
3.438
 21
-48.6558
  0
LINE
  8
0
 10
3.438
 20
-48.6558
 11
3.39003
 21
-48.8704
  0
LINE
  8
0
 10
3.39003
 20
-48.8704
 11
3.32869
 21
-49.0816
  0
LINE
  8
0
 10
3.32869
 20
-49.0816
 11
3.25421
 21
-49.2884
  0
LINE
  8
0
 10
3.25421
 20
-49.2884
 11
3.16689
 21
-49.4902
  0
LINE
  8
0
 10
3.16689
 20
-49.4902
 11
3.06706
 21
-49.6861
  0
LINE
  8
0
 10
3.06706
 20
-49.6861
 11
2.95514
 21
-49.8754
  0
LINE
  8
0
 10
2.95514
 20
-49.8754
 11
2.83156
 21
-50.0572
  0
LINE
  8
0
 10
2.83156
 20
-50.0572
 11
2.69679
 21
-50.231
  0
LINE
  8
0
 10
2.69679
 20
-50.231
 11
2.55138
 21
-50.3959
  0
LINE
  8
0
 10
2.55138
 20
-50.3959
 11
2.3959
 21
-50.5514
  0
LINE
  8
0
 10
2.3959
 20
-50.5514
 11
2.23097
 21
-50.6968
  0
LINE
  8
0
 10
2.23097
 20
-50.6968
 11
2.05724
 21
-50.8316
  0
LINE
  8
0
 10
2.05724
 20
-50.8316
 11
1.87538
 21
-50.9551
  0
LINE
  8
0
 10
1.87538
 20
-50.9551
 11
1.68613
 21
-51.0671
  0
LINE
  8
0
 10
1.68613
 20
-51.0671
 11
1.49022
 21
-51.1669
  0
LINE
  8
0
 10
1.49022
 20
-51.1669
 11
1.28842
 21
-51.2542
  0
LINE
  8
0
 10
1.28842
 20
-51.2542
 11
1.08156
 21
-51.3287
  0
LINE
  8
0
 10
1.08156
 20
-51.3287
 11
0.870407
 21
-51.39
  0
LINE
  8
0
 10
0.870407
 20
-51.39
 11
0.655823
 21
-51.438
  0
LINE
  8
0
 10
0.655823
 20
-51.438
 11
0.43866
 21
-51.4724
  0
LINE
  8
0
 10
0.43866
 20
-51.4724
 11
0.219757
 21
-51.4931
  0
LINE
  8
0
 10
0.219757
 20
-51.4931
 11
0
 21
-51.5
  0
LINE
  8
0
 10
0
 20
-51.5
 11
-0.219757
 21
-51.4931
  0
LINE
  8
0
 10
28.2802
 20
-51.4931
 11
28.0613
 21
-51.4724
  0
LINE
  8
0
 10
28.0613
 20
-51.4724
 11
27.8442
 21
-51.438
  0
LINE
  8
0
 10
27.8442
 20
-51.438
 11
27.6296
 21
-51.39
  0
LINE
  8
0
 10
27.6296
 20
-51.39
 11
27.4184
 21
-51.3287
  0
LINE
  8
0
 10
27.4184
 20
-51.3287
 11
27.2116
 21
-51.2542
  0
LINE
  8
0
 10
27.2116
 20
-51.2542
 11
27.0098
 21
-51.1669
  0
LINE
  8
0
 10
27.0098
 20
-51.1669
 11
26.8139
 21
-51.0671
  0
LINE
  8
0
 10
26.8139
 20
-51.0671
 11
26.6246
 21
-50.9551
  0
LINE
  8
0
 10
26.6246
 20
-50.9551
 11
26.4427
 21
-50.8316
  0
LINE
  8
0
 10
26.4427
 20
-50.8316
 11
26.269
 21
-50.6968
  0
LINE
  8
0
 10
26.269
 20
-50.6968
 11
26.1041
 21
-50.5514
  0
LINE
  8
0
 10
26.1041
 20
-50.5514
 11
25.9486
 21
-50.3959
  0
LINE
  8
0
 10
25.9486
 20
-50.3959
 11
25.8032
 21
-50.231
  0
LINE
  8
0
 10
25.8032
 20
-50.231
 11
25.6684
 21
-50.0572
  0
LINE
  8
0
 10
25.6684
 20
-50.0572
 11
25.5448
 21
-49.8754
  0
LINE
  8
0
 10
25.5448
 20
-49.8754
 11
25.4329
 21
-49.6861
  0
LINE
  8
0
 10
25.4329
 20
-49.6861
 11
25.3331
 21
-49.4902
  0
LINE
  8
0
 10
25.3331
 20
-49.4902
 11
25.2458
 21
-49.2884
  0
LINE
  8
0
 10
25.2458
 20
-49.2884
 11
25.1713
 21
-49.0816
  0
LINE
  8
0
 10
25.1713
 20
-49.0816
 11
25.11
 21
-48.8704
  0
LINE
  8
0
 10
25.11
 20
-48.8704
 11
25.062
 21
-48.6558
  0
LINE
  8
0
 10
25.062
 20
-48.6558
 11
25.0276
 21
-48.4387
  0
LINE
  8
0
 10
25.0276
 20
-48.4387
 11
25.0069
 21
-48.2198
  0
LINE
  8
0
 10
25.0069
 20
-48.2198
 11
25
 21
-48
  0
LINE
  8
0
 10
25
 20
-48
 11
25.0069
 21
-47.7802
  0
LINE
  8
0
 10
25.0069
 20
-47.7802
 11
25.0276
 21
-47.5613
  0
LINE
  8
0
 10
25.0276
 20
-47.5613
 11
25.062
 21
-47.3442
  0
LINE
  8
0
 10
25.062
 20
-47.3442
 11
25.11
 21
-47.1296
  0
LINE
  8
0
 10
25.11
 20
-47.1296
 11
25.1713
 21
-46.9184
  0
LINE
  8
0
 10
25.1713
 20
-46.9184
 11
25.2458
 21
-46.7116
  0
LINE
  8
0
 10
25.2458
 20
-46.7116
 11
25.3331
 21
-46.5098
  0
LINE
  8
0
 10
25.3331
 20
-46.5098
 11
25.4329
 21
-46.3139
  0
LINE
  8
0
 10
25.4329
 20
-46.3139
 11
25.5448
 21
-46.1246
  0
LINE
  8
0
 10
25.5448
 20
-46.1246
 11
25.6684
 21
-45.9427
  0
LINE
  8
0
 10
25.6684
 20
-45.9427
 11
25.8032
 21
-45.769
  0
LINE
  8
0
 10
25.8032
 20
-45.769
 11
25.9486
 21
-45.6041
  0
LINE
  8
0
 10
25.9486
 20
-45.6041
 11
26.1041
 21
-45.4486
  0
LINE
  8
0
 10
26.1041
 20
-45.4486
 11
26.269
 21
-45.3032
  0
LINE
  8
0
 10
26.269
 20
-45.3032
 11
26.4427
 21
-45.1684
  0
LINE
  8
0
 10
26.4427
 20
-45.1684
 11
26.6246
 21
-45.0448
  0
LINE
  8
0
 10
26.6246
 20
-45.0448
 11
26.8139
 21
-44.9329
  0
LINE
  8
0
 10
26.8139
 20
-44.9329
 11
27.0098
 21
-44.8331
  0
LINE
  8
0
 10
27.0098
 20
-44.8331
 11
27.2116
 21
-44.7458
  0
LINE
  8
0
 10
27.2116
 20
-44.7458
 11
27.4184
 21
-44.6713
  0
LINE
  8
0
 10
27.4184
 20
-44.6713
 11
27.6296
 21
-44.61
  0
LINE
  8
0
 10
27.6296
 20
-44.61
 11
27.8442
 21
-44.562
  0
LINE
  8
0
 10
27.8442
 20
-44.562
 11
28.0613
 21
-44.5276
  0
LINE
  8
0
 10
28.0613
 20
-44.5276
 11
28.2802
 21
-44.5069
  0
LINE
  8
0
 10
28.2802
 20
-44.5069
 11
28.5
 21
-44.5
  0
LINE
  8
0
 10
28.5
 20
-44.5
 11
28.7198
 21
-44.5069
  0
LINE
  8
0
 10
28.7198
 20
-44.5069
 11
28.9387
 21
-44.5276
  0
LINE
  8
0
 10
28.9387
 20
-44.5276
 11
29.1558
 21
-44.562
  0
LINE
  8
0
 10
29.1558
 20
-44.562
 11
29.3704
 21
-44.61
  0
LINE
  8
0
 10
29.3704
 20
-44.61
 11
29.5816
 21
-44.6713
  0
LINE
  8
0
 10
29.5816
 20
-44.6713
 11
29.7884
 21
-44.7458
  0
LINE
  8
0
 10
29.7884
 20
-44.7458
 11
29.9902
 21
-44.8331
  0
LINE
  8
0
 10
29.9902
 20
-44.8331
 11
30.1861
 21
-44.9329
  0
LINE
  8
0
 10
30.1861
 20
-44.9329
 11
30.3754
 21
-45.0448
  0
LINE
  8
0
 10
30.3754
 20
-45.0448
 11
30.5572
 21
-45.1684
  0
LINE
  8
0
 10
30.5572
 20
-45.1684
 11
30.731
 21
-45.3032
  0
LINE
  8
0
 10
30.731
 20
-45.3032
 11
30.8959
 21
-45.4486
  0
LINE
  8
0
 10
30.8959
 20
-45.4486
 11
31.0514
 21
-45.6041
  0
LINE
  8
0
 10
31.0514
 20
-45.6041
 11
31.1968
 21
-45.769
  0
LINE
  8
0
 10
31.1968
 20
-45.769
 11
31.3316
 21
-45.9427
  0
LINE
  8
0
 10
31.3316
 20
-45.9427
 11
31.4551
 21
-46.1246
  0
LINE
  8
0
 10
31.4551
 20
-46.1246
 11
31.5671
 21
-46.3139
  0
LINE
  8
0
 10
31.5671
 20
-46.3139
 11
31.6669
 21
-46.5098
  0
LINE
  8
0
 10
31.6669
 20
-46.5098
 11
31.7542
 21
-46.7116
  0
LINE
  8
0
 10
31.7542
 20
-46.7116
 11
31.8287
 21
-46.9184
  0
LINE
  8
0
 10
31.8287
 20
-46.9184
 11
31.89
 21
-47.1296
  0
LINE
  8
0
 10
31.89
 20
-47.1296
 11
31.938
 21
-47.3442
  0
LINE
  8
0
 10
31.938
 20
-47.3442
 11
31.9724
 21
-47.5613
  0
LINE
  8
0
 10
31.9724
 20
-47.5613
 11
31.9931
 21
-47.7802
  0
LINE
  8
0
 10
31.9931
 20
-47.7802
 11
32
 21
-48
  0
LINE
  8
0
 10
32
 20
-48
 11
31.9931
 21
-48.2198
  0
LINE
  8
0
 10
31.9931
 20
-48.2198
 11
31.9724
 21
-48.4387
  0
LINE
  8
0
 10
31.9724
 20
-48.4387
 11
31.938
 21
-48.6558
  0
LINE
  8
0
 10
31.938
 20
-48.6558
 11
31.89
 21
-48.8704
  0
LINE
  8
0
 10
31.89
 20
-48.8704
 11
31.8287
 21
-49.0816
  0
LINE
  8
0
 10
31.8287
 20
-49.0816
 11
31.7542
 21
-49.2884
  0
LINE
  8
0
 10
31.7542
 20
-49.2884
 11
31.6669
 21
-49.4902
  0
LINE
  8
0
 10
31.6669
 20
-49.4902
 11
31.5671
 21
-49.6861
  0
LINE
  8
0
 10
31.5671
 20
-49.6861
 11
31.4551
 21
-49.8754
  0
LINE
  8
0
 10
31.4551
 20
-49.8754
 11
31.3316
 21
-50.0572
  0
LINE
  8
0
 10
31.3316
 20
-50.0572
 11
31.1968
 21
-50.231
  0
LINE
  8
0
 10
31.1968
 20
-50.231
 11
31.0514
 21
-50.3959
  0
LINE
  8
0
 10
31.0514
 20
-50.3959
 11
30.8959
 21
-50.5514
  0
LINE
  8
0
 10
30.8959
 20
-50.5514
 11
30.731
 21
-50.6968
  0
LINE
  8
0
 10
30.731
 20
-50.6968
 11
30.5572
 21
-50.8316
  0
LINE
  8
0
 10
30.5572
 20
-50.8316
 11
30.3754
 21
-50.9551
  0
LINE
  8
0
 10
30.3754
 20
-50.9551
 11
30.1861
 21
-51.0671
  0
LINE
  8
0
 10
30.1861
 20
-51.0671
 11
29.9902
 21
-51.1669
  0
LINE
  8
0
 10
29.9902
 20
-51.1669
 11
29.7884
 21
-51.2542
  0
LINE
  8
0
 10
29.7884
 20
-51.2542
 11
29.5816
 21
-51.3287
  0
LINE
  8
0
 10
29.5816
 20
-51.3287
 11
29.3704
 21
-51.39
  0
LINE
  8
0
 10
29.3704
 20
-51.39
 11
29.1558
 21
-51.438
  0
LINE
  8
0
 10
29.1558
 20
-51.438
 11
28.9387
 21
-51.4724
  0
LINE
  8
0
 10
28.9387
 20
-51.4724
 11
28.7198
 21
-51.4931
  0
LINE
  8
0
 10
28.7198
 20
-51.4931
 11
28.5
 21
-51.5
  0
LINE
  8
0
 10
28.5
 20
-51.5
 11
28.2802
 21
-51.4931
  0
LINE
  8
0
 10
56.7802
 20
-51.4931
 11
56.5613
 21
-51.4724
  0
LINE
  8
0
 10
56.5613
 20
-51.4724
 11
56.3442
 21
-51.438
  0
LINE
  8
0
 10
56.3442
 20
-51.438
 11
56.1296
 21
-51.39
  0
LINE
  8
0
 10
56.1296
 20
-51.39
 11
55.9184
 21
-51.3287
  0
LINE
  8
0
 10
55.9184
 20
-51.3287
 11
55.7116
 21
-51.2542
  0
LINE
  8
0
 10
55.7116
 20
-51.2542
 11
55.5098
 21
-51.1669
  0
LINE
  8
0
 10
55.5098
 20
-51.1669
 11
55.3139
 21
-51.0671
  0
LINE
  8
0
 10
55.3139
 20
-51.0671
 11
55.1246
 21
-50.9551
  0
LINE
  8
0
 10
55.1246
 20
-50.9551
 11
54.9427
 21
-50.8316
  0
LINE
  8
0
 10
54.9427
 20
-50.8316
 11
54.769
 21
-50.6968
  0
LINE
  8
0
 10
54.769
 20
-50.6968
 11
54.6041
 21
-50.5514
  0
LINE
  8
0
 10
54.6041
 20
-50.5514
 11
54.4486
 21
-50.3959
  0
LINE
  8
0
 10
54.4486
 20
-50.3959
 11
54.3032
 21
-50.231
  0
LINE
  8
0
 10
54.3032
 20
-50.231
 11
54.1684
 21
-50.0572
  0
LINE
  8
0
 10
54.1684
 20
-50.0572
 11
54.0448
 21
-49.8754
  0
LINE
  8
0
 10
54.0448
 20
-49.8754
 11
53.9329
 21
-49.6861
  0
LINE
  8
0
 10
53.9329
 20
-49.6861
 11
53.8331
 21
-49.4902
  0
LINE
  8
0
 10
53.8331
 20
-49.4902
 11
53.7458
 21
-49.2884
  0
LINE
  8
0
 10
53.7458
 20
-49.2884
 11
53.6713
 21
-49.0816
  0
LINE
  8
0
 10
53.6713
 20
-49.0816
 11
53.61
 21
-48.8704
  0
LINE
  8
0
 10
53.61
 20
-48.8704
 11
53.562
 21
-48.6558
  0
LINE
  8
0
 10
53.562
 20
-48.6558
 11
53.5276
 21
-48.4387
  0
LINE
  8
0
 10
53.5276
 20
-48.4387
 11
53.5069
 21
-48.2198
  0
LINE
  8
0
 10
53.5069
 20
-48.2198
 11
53.5
 21
-48
  0
LINE
  8
0
 10
53.5
 20
-48
 11
53.5069
 21
-47.7802
  0
LINE
  8
0
 10
53.5069
 20
-47.7802
 11
53.5276
 21
-47.5613
  0
LINE
  8
0
 10
53.5276
 20
-47.5613
 11
53.562
 21
-47.3442
  0
LINE
  8
0
 10
53.562
 20
-47.3442
 11
53.61
 21
-47.1296
  0
LINE
  8
0
 10
53.61
 20
-47.1296
 11
53.6713
 21
-46.9184
  0
LINE
  8
0
 10
53.6713
 20
-46.9184
 11
53.7458
 21
-46.7116
  0
LINE
  8
0
 10
53.7458
 20
-46.7116
 11
53.8331
 21
-46.5098
  0
LINE
  8
0
 10
53.8331
 20
-46.5098
 11
53.9329
 21
-46.3139
  0
LINE
  8
0
 10
53.9329
 20
-46.3139
 11
54.0448
 21
-46.1246
  0
LINE
  8
0
 10
54.0448
 20
-46.1246
 11
54.1684
 21
-45.9427
  0
LINE
  8
0
 10
54.1684
 20
-45.9427
 11
54.3032
 21
-45.769
  0
LINE
  8
0
 10
54.3032
 20
-45.769
 11
54.4486
 21
-45.6041
  0
LINE
  8
0
 10
54.4486
 20
-45.6041
 11
54.6041
 21
-45.4486
  0
LINE
  8
0
 10
54.6041
 20
-45.4486
 11
54.769
 21
-45.3032
  0
LINE
  8
0
 10
54.769
 20
-45.3032
 11
54.9427
 21
-45.1684
  0
LINE
  8
0
 10
54.9427
 20
-45.1684
 11
55.1246
 21
-45.0448
  0
LINE
  8
0
 10
55.1246
 20
-45.0448
 11
55.3139
 21
-44.9329
  0
LINE
  8
0
 10
55.3139
 20
-44.9329
 11
55.5098
 21
-44.8331
  0
LINE
  8
0
 10
55.5098
 20
-44.8331
 11
55.7116
 21
-44.7458
  0
LINE
  8
0
 10
55.7116
 20
-44.7458
 11
55.9184
 21
-44.6713
  0
LINE
  8
0
 10
55.9184
 20
-44.6713
 11
56.1296
 21
-44.61
  0
LINE
  8
0
 10
56.1296
 20
-44.61
 11
56.3442
 21
-44.562
  0
LINE
  8
0
 10
56.3442
 20
-44.562
 11
56.5613
 21
-44.5276
  0
LINE
  8
0
 10
56.5613
 20
-44.5276
 11
56.7802
 21
-44.5069
  0
LINE
  8
0
 10
56.7802
 20
-44.5069
 11
57
 21
-44.5
  0
LINE
  8
0
 10
57
 20
-44.5
 11
57.2198
 21
-44.5069
  0
LINE
  8
0
 10
57.2198
 20
-44.5069
 11
57.4387
 21
-44.5276
  0
LINE
  8
0
 10
57.4387
 20
-44.5276
 11
57.6558
 21
-44.562
  0
LINE
  8
0
 10
57.6558
 20
-44.562
 11
57.8704
 21
-44.61
  0
LINE
  8
0
 10
57.8704
 20
-44.61
 11
58.0816
 21
-44.6713
  0
LINE
  8
0
 10
58.0816
 20
-44.6713
 11
58.2884
 21
-44.7458
  0
LINE
  8
0
 10
58.2884
 20
-44.7458
 11
58.4902
 21
-44.8331
  0
LINE
  8
0
 10
58.4902
 20
-44.8331
 11
58.6861
 21
-44.9329
  0
LINE
  8
0
 10
58.6861
 20
-44.9329
 11
58.8754
 21
-45.0448
  0
LINE
  8
0
 10
58.8754
 20
-45.0448
 11
59.0572
 21
-45.1684
  0
LINE
  8
0
 10
59.0572
 20
-45.1684
 11
59.231
 21
-45.3032
  0
LINE
  8
0
 10
59.231
 20
-45.3032
 11
59.3959
 21
-45.4486
  0
LINE
  8
0
 10
59.3959
 20
-45.4486
 11
59.5514
 21
-45.6041
  0
LINE
  8
0
 10
59.5514
 20
-45.6041
 11
59.6968
 21
-45.769
  0
LINE
  8
0
 10
59.6968
 20
-45.769
 11
59.8316
 21
-45.9427
  0
LINE
  8
0
 10
59.8316
 20
-45.9427
 11
59.9551
 21
-46.1246
  0
LINE
  8
0
 10
59.9551
 20
-46.1246
 11
60.0671
 21
-46.3139
  0
LINE
  8
0
 10
60.0671
 20
-46.3139
 11
60.1669
 21
-46.5098
  0
LINE
  8
0
 10
60.1669
 20
-46.5098
 11
60.2542
 21
-46.7116
  0
LINE
  8
0
 10
60.2542
 20
-46.7116
 11
60.3287
 21
-46.9184
  0
LINE
  8
0
 10
60.3287
 20
-46.9184
 11
60.39
 21
-47.1296
  0
LINE
  8
0
 10
60.39
 20
-47.1296
 11
60.438
 21
-47.3442
  0
LINE
  8
0
 10
60.438
 20
-47.3442
 11
60.4724
 21
-47.5613
  0
LINE
  8
0
 10
60.4724
 20
-47.5613
 11
60.4931
 21
-47.7802
  0
LINE
  8
0
 10
60.4931
 20
-47.7802
 11
60.5
 21
-48
  0
LINE
  8
0
 10
60.5
 20
-48
 11
60.4931
 21
-48.2198
  0
LINE
  8
0
 10
60.4931
 20
-48.2198
 11
60.4724
 21
-48.4387
  0
LINE
  8
0
 10
60.4724
 20
-48.4387
 11
60.438
 21
-48.6558
  0
LINE
  8
0
 10
60.438
 20
-48.6558
 11
60.39
 21
-48.8704
  0
LINE
  8
0
 10
60.39
 20
-48.8704
 11
60.3287
 21
-49.0816
  0
LINE
  8
0
 10
60.3287
 20
-49.0816
 11
60.2542
 21
-49.2884
  0
LINE
  8
0
 10
60.2542
 20
-49.2884
 11
60.1669
 21
-49.4902
  0
LINE
  8
0
 10
60.1669
 20
-49.4902
 11
60.0671
 21
-49.6861
  0
LINE
  8
0
 10
60.0671
 20
-49.6861
 11
59.9551
 21
-49.8754
  0
LINE
  8
0
 10
59.9551
 20
-49.8754
 11
59.8316
 21
-50.0572
  0
LINE
  8
0
 10
59.8316
 20
-50.0572
 11
59.6968
 21
-50.231
  0
LINE
  8
0
 10
59.6968
 20
-50.231
 11
59.5514
 21
-50.3959
  0
LINE
  8
0
 10
59.5514
 20
-50.3959
 11
59.3959
 21
-50.5514
  0
LINE
  8
0
 10
59.3959
 20
-50.5514
 11
59.231
 21
-50.6968
  0
LINE
  8
0
 10
59.231
 20
-50.6968
 11
59.0572
 21
-50.8316
  0
LINE
  8
0
 10
59.0572
 20
-50.8316
 11
58.8754
 21
-50.9551
  0
LINE
  8
0
 10
58.8754
 20
-50.9551
 11
58.6861
 21
-51.0671
  0
LINE
  8
0
 10
58.6861
 20
-51.0671
 11
58.4902
 21
-51.1669
  0
LINE
  8
0
 10
58.4902
 20
-51.1669
 11
58.2884
 21
-51.2542
  0
LINE
  8
0
 10
58.2884
 20
-51.2542
 11
58.0816
 21
-51.3287
  0
LINE
  8
0
 10
58.0816
 20
-51.3287
 11
57.8704
 21
-51.39
  0
LINE
  8
0
 10
57.8704
 20
-51.39
 11
57.6558
 21
-51.438
  0
LINE
  8
0
 10
57.6558
 20
-51.438
 11
57.4387
 21
-51.4724
  0
LINE
  8
0
 10
57.4387
 20
-51.4724
 11
57.2198
 21
-51.4931
  0
LINE
  8
0
 10
57.2198
 20
-51.4931
 11
57
 21
-51.5
  0
LINE
  8
0
 10
57
 20
-51.5
 11
56.7802
 21
-51.4931
  0
LINE
  8
0
 10
-28.7198
 20
-51.4931
 11
-28.9387
 21
-51.4724
  0
LINE
  8
0
 10
-28.9387
 20
-51.4724
 11
-29.1558
 21
-51.438
  0
LINE
  8
0
 10
-29.1558
 20
-51.438
 11
-29.3704
 21
-51.39
  0
LINE
  8
0
 10
-29.3704
 20
-51.39
 11
-29.5816
 21
-51.3287
  0
LINE
  8
0
 10
-29.5816
 20
-51.3287
 11
-29.7884
 21
-51.2542
  0
LINE
  8
0
 10
-29.7884
 20
-51.2542
 11
-29.9902
 21
-51.1669
  0
LINE
  8
0
 10
-29.9902
 20
-51.1669
 11
-30.1861
 21
-51.0671
  0
LINE
  8
0
 10
-30.1861
 20
-51.0671
 11
-30.3754
 21
-50.9551
  0
LINE
  8
0
 10
-30.3754
 20
-50.9551
 11
-30.5572
 21
-50.8316
  0
LINE
  8
0
 10
-30.5572
 20
-50.8316
 11
-30.731
 21
-50.6968
  0
LINE
  8
0
 10
-30.731
 20
-50.6968
 11
-30.8959
 21
-50.5514
  0
LINE
  8
0
 10
-30.8959
 20
-50.5514
 11
-31.0514
 21
-50.3959
  0
LINE
  8
0
 10
-31.0514
 20
-50.3959
 11
-31.1968
 21
-50.231
  0
LINE
  8
0
 10
-31.1968
 20
-50.231
 11
-31.3316
 21
-50.0572
  0
LINE
  8
0
 10
-31.3316
 20
-50.0572
 11
-31.4551
 21
-49.8754
  0
LINE
  8
0
 10
-31.4551
 20
-49.8754
 11
-31.5671
 21
-49.6861
  0
LINE
  8
0
 10
-31.5671
 20
-49.6861
 11
-31.6669
 21
-49.4902
  0
LINE
  8
0
 10
-31.6669
 20
-49.4902
 11
-31.7542
 21
-49.2884
  0
LINE
  8
0
 10
-31.7542
 20
-49.2884
 11
-31.8287
 21
-49.0816
  0
LINE
  8
0
 10
-31.8287
 20
-49.0816
 11
-31.89
 21
-48.8704
  0
LINE
  8
0
 10
-31.89
 20
-48.8704
 11
-31.938
 21
-48.6558
  0
LINE
  8
0
 10
-31.938
 20
-48.6558
 11
-31.9724
 21
-48.4387
  0
LINE
  8
0
 10
-31.9724
 20
-48.4387
 11
-31.9931
 21
-48.2198
  0
LINE
  8
0
 10
-31.9931
 20
-48.2198
 11
-32
 21
-48
  0
LINE
  8
0
 10
-32
 20
-48
 11
-31.9931
 21
-47.7802
  0
LINE
  8
0
 10
-31.9931
 20
-47.7802
 11
-31.9724
 21
-47.5613
  0
LINE
  8
0
 10
-31.9724
 20
-47.5613
 11
-31.938
 21
-47.3442
  0
LINE
  8
0
 10
-31.938
 20
-47.3442
 11
-31.89
 21
-47.1296
  0
LINE
  8
0
 10
-31.89
 20
-47.1296
 11
-31.8287
 21
-46.9184
  0
LINE
  8
0
 10
-31.8287
 20
-46.9184
 11
-31.7542
 21
-46.7116
  0
LINE
  8
0
 10
-31.7542
 20
-46.7116
 11
-31.6669
 21
-46.5098
  0
LINE
  8
0
 10
-31.6669
 20
-46.5098
 11
-31.5671
 21
-46.3139
  0
LINE
  8
0
 10
-31.5671
 20
-46.3139
 11
-31.4551
 21
-46.1246
  0
LINE
  8
0
 10
-31.4551
 20
-46.1246
 11
-31.3316
 21
-45.9427
  0
LINE
  8
0
 10
-31.3316
 20
-45.9427
 11
-31.1968
 21
-45.769
  0
LINE
  8
0
 10
-31.1968
 20
-45.769
 11
-31.0514
 21
-45.6041
  0
LINE
  8
0
 10
-31.0514
 20
-45.6041
 11
-30.8959
 21
-45.4486
  0
LINE
  8
0
 10
-30.8959
 20
-45.4486
 11
-30.731
 21
-45.3032
  0
LINE
  8
0
 10
-30.731
 20
-45.3032
 11
-30.5572
 21
-45.1684
  0
LINE
  8
0
 10
-30.5572
 20
-45.1684
 11
-30.3754
 21
-45.0448
  0
LINE
  8
0
 10
-30.3754
 20
-45.0448
 11
-30.1861
 21
-44.9329
  0
LINE
  8
0
 10
-30.1861
 20
-44.9329
 11
-29.9902
 21
-44.8331
  0
LINE
  8
0
 10
-29.9902
 20
-44.8331
 11
-29.7884
 21
-44.7458
  0
LINE
  8
0
 10
-29.7884
 20
-44.7458
 11
-29.5816
 21
-44.6713
  0
LINE
  8
0
 10
-29.5816
 20
-44.6713
 11
-29.3704
 21
-44.61
  0
LINE
  8
0
 10
-29.3704
 20
-44.61
 11
-29.1558
 21
-44.562
  0
LINE
  8
0
 10
-29.1558
 20
-44.562
 11
-28.9387
 21
-44.5276
  0
LINE
  8
0
 10
-28.9387
 20
-44.5276
 11
-28.7198
 21
-44.5069
  0
LINE
  8
0
 10
-28.7198
 20
-44.5069
 11
-28.5
 21
-44.5
  0
LINE
  8
0
 10
-28.5
 20
-44.5
 11
-28.2802
 21
-44.5069
  0
LINE
  8
0
 10
-28.2802
 20
-44.5069
 11
-28.0613
 21
-44.5276
  0
LINE
  8
0
 10
-28.0613
 20
-44.5276
 11
-27.8442
 21
-44.562
  0
LINE
  8
0
 10
-27.8442
 20
-44.562
 11
-27.6296
 21
-44.61
  0
LINE
  8
0
 10
-27.6296
 20
-44.61
 11
-27.4184
 21
-44.6713
  0
LINE
  8
0
 10
-27.4184
 20
-44.6713
 11
-27.2116
 21
-44.7458
  0
LINE
  8
0
 10
-27.2116
 20
-44.7458
 11
-27.0098
 21
-44.8331
  0
LINE
  8
0
 10
-27.0098
 20
-44.8331
 11
-26.8139
 21
-44.9329
  0
LINE
  8
0
 10
-26.8139
 20
-44.9329
 11
-26.6246
 21
-45.0448
  0
LINE
  8
0
 10
-26.6246
 20
-45.0448
 11
-26.4427
 21
-45.1684
  0
LINE
  8
0
 10
-26.4427
 20
-45.1684
 11
-26.269
 21
-45.3032
  0
LINE
  8
0
 10
-26.269
 20
-45.3032
 11
-26.1041
 21
-45.4486
  0
LINE
  8
0
 10
-26.1041
 20
-45.4486
 11
-25.9486
 21
-45.6041
  0
LINE
  8
0
 10
-25.9486
 20
-45.6041
 11
-25.8032
 21
-45.769
  0
LINE
  8
0
 10
-25.8032
 20
-45.769
 11
-25.6684
 21
-45.9427
  0
LINE
  8
0
 10
-25.6684
 20
-45.9427
 11
-25.5448
 21
-46.1246
  0
LINE
  8
0
 10
-25.5448
 20
-46.1246
 11
-25.4329
 21
-46.3139
  0
LINE
  8
0
 10
-25.4329
 20
-46.3139
 11
-25.3331
 21
-46.5098
  0
LINE
  8
0
 10
-25.3331
 20
-46.5098
 11
-25.2458
 21
-46.7116
  0
LINE
  8
0
 10
-25.2458
 20
-46.7116
 11
-25.1713
 21
-46.9184
  0
LINE
  8
0
 10
-25.1713
 20
-46.9184
 11
-25.11
 21
-47.1296
  0
LINE
  8
0
 10
-25.11
 20
-47.1296
 11
-25.062
 21
-47.3442
  0
LINE
  8
0
 10
-25.062
 20
-47.3442
 11
-25.0276
 21
-47.5613
  0
LINE
  8
0
 10
-25.0276
 20
-47.5613
 11
-25.0069
 21
-47.7802
  0
LINE
  8
0
 10
-25.0069
 20
-47.7802
 11
-25
 21
-48
  0
LINE
  8
0
 10
-25
 20
-48
 11
-25.0069
 21
-48.2198
  0
LINE
  8
0
 10
-25.0069
 20
-48.2198
 11
-25.0276
 21
-48.4387
  0
LINE
  8
0
 10
-25.0276
 20
-48.4387
 11
-25.062
 21
-48.6558
  0
LINE
  8
0
 10
-25.062
 20
-48.6558
 11
-25.11
 21
-48.8704
  0
LINE
  8
0
 10
-25.11
 20
-48.8704
 11
-25.1713
 21
-49.0816
  0
LINE
  8
0
 10
-25.1713
 20
-49.0816
 11
-25.2458
 21
-49.2884
  0
LINE
  8
0
 10
-25.2458
 20
-49.2884
 11
-25.3331
 21
-49.4902
  0
LINE
  8
0
 10
-25.3331
 20
-49.4902
 11
-25.4329
 21
-49.6861
  0
LINE
  8
0
 10
-25.4329
 20
-49.6861
 11
-25.5448
 21
-49.8754
  0
LINE
  8
0
 10
-25.5448
 20
-49.8754
 11
-25.6684
 21
-50.0572
  0
LINE
  8
0
 10
-25.6684
 20
-50.0572
 11
-25.8032
 21
-50.231
  0
LINE
  8
0
 10
-25.8032
 20
-50.231
 11
-25.9486
 21
-50.3959
  0
LINE
  8
0
 10
-25.9486
 20
-50.3959
 11
-26.1041
 21
-50.5514
  0
LINE
  8
0
 10
-26.1041
 20
-50.5514
 11
-26.269
 21
-50.6968
  0
LINE
  8
0
 10
-26.269
 20
-50.6968
 11
-26.4427
 21
-50.8316
  0
LINE
  8
0
 10
-26.4427
 20
-50.8316
 11
-26.6246
 21
-50.9551
  0
LINE
  8
0
 10
-26.6246
 20
-50.9551
 11
-26.8139
 21
-51.0671
  0
LINE
  8
0
 10
-26.8139
 20
-51.0671
 11
-27.0098
 21
-51.1669
  0
LINE
  8
0
 10
-27.0098
 20
-51.1669
 11
-27.2116
 21
-51.2542
  0
LINE
  8
0
 10
-27.2116
 20
-51.2542
 11
-27.4184
 21
-51.3287
  0
LINE
  8
0
 10
-27.4184
 20
-51.3287
 11
-27.6296
 21
-51.39
  0
LINE
  8
0
 10
-27.6296
 20
-51.39
 11
-27.8442
 21
-51.438
  0
LINE
  8
0
 10
-27.8442
 20
-51.438
 11
-28.0613
 21
-51.4724
  0
LINE
  8
0
 10
-28.0613
 20
-51.4724
 11
-28.2802
 21
-51.4931
  0
LINE
  8
0
 10
-28.2802
 20
-51.4931
 11
-28.5
 21
-51.5
  0
LINE
  8
0
 10
-28.5
 20
-51.5
 11
-28.7198
 21
-51.4931
  0
LINE
  8
0
 10
-57.2198
 20
-51.4931
 11
-57.4387
 21
-51.4724
  0
LINE
  8
0
 10
-57.4387
 20
-51.4724
 11
-57.6558
 21
-51.438
  0
LINE
  8
0
 10
-57.6558
 20
-51.438
 11
-57.8704
 21
-51.39
  0
LINE
  8
0
 10
-57.8704
 20
-51.39
 11
-58.0816
 21
-51.3287
  0
LINE
  8
0
 10
-58.0816
 20
-51.3287
 11
-58.2884
 21
-51.2542
  0
LINE
  8
0
 10
-58.2884
 20
-51.2542
 11
-58.4902
 21
-51.1669
  0
LINE
  8
0
 10
-58.4902
 20
-51.1669
 11
-58.6861
 21
-51.0671
  0
LINE
  8
0
 10
-58.6861
 20
-51.0671
 11
-58.8754
 21
-50.9551
  0
LINE
  8
0
 10
-58.8754
 20
-50.9551
 11
-59.0572
 21
-50.8316
  0
LINE
  8
0
 10
-59.0572
 20
-50.8316
 11
-59.231
 21
-50.6968
  0
LINE
  8
0
 10
-59.231
 20
-50.6968
 11
-59.3959
 21
-50.5514
  0
LINE
  8
0
 10
-59.3959
 20
-50.5514
 11
-59.5514
 21
-50.3959
  0
LINE
  8
0
 10
-59.5514
 20
-50.3959
 11
-59.6968
 21
-50.231
  0
LINE
  8
0
 10
-59.6968
 20
-50.231
 11
-59.8316
 21
-50.0572
  0
LINE
  8
0
 10
-59.8316
 20
-50.0572
 11
-59.9551
 21
-49.8754
  0
LINE
  8
0
 10
-59.9551
 20
-49.8754
 11
-60.0671
 21
-49.6861
  0
LINE
  8
0
 10
-60.0671
 20
-49.6861
 11
-60.1669
 21
-49.4902
  0
LINE
  8
0
 10
-60.1669
 20
-49.4902
 11
-60.2542
 21
-49.2884
  0
LINE
  8
0
 10
-60.2542
 20
-49.2884
 11
-60.3287
 21
-49.0816
  0
LINE
  8
0
 10
-60.3287
 20
-49.0816
 11
-60.39
 21
-48.8704
  0
LINE
  8
0
 10
-60.39
 20
-48.8704
 11
-60.438
 21
-48.6558
  0
LINE
  8
0
 10
-60.438
 20
-48.6558
 11
-60.4724
 21
-48.4387
  0
LINE
  8
0
 10
-60.4724
 20
-48.4387
 11
-60.4931
 21
-48.2198
  0
LINE
  8
0
 10
-60.4931
 20
-48.2198
 11
-60.5
 21
-48
  0
LINE
  8
0
 10
-60.5
 20
-48
 11
-60.4931
 21
-47.7802
  0
LINE
  8
0
 10
-60.4931
 20
-47.7802
 11
-60.4724
 21
-47.5613
  0
LINE
  8
0
 10
-60.4724
 20
-47.5613
 11
-60.438
 21
-47.3442
  0
LINE
  8
0
 10
-60.438
 20
-47.3442
 11
-60.39
 21
-47.1296
  0
LINE
  8
0
 10
-60.39
 20
-47.1296
 11
-60.3287
 21
-46.9184
  0
LINE
  8
0
 10
-60.3287
 20
-46.9184
 11
-60.2542
 21
-46.7116
  0
LINE
  8
0
 10
-60.2542
 20
-46.7116
 11
-60.1669
 21
-46.5098
  0
LINE
  8
0
 10
-60.1669
 20
-46.5098
 11
-60.0671
 21
-46.3139
  0
LINE
  8
0
 10
-60.0671
 20
-46.3139
 11
-59.9551
 21
-46.1246
  0
LINE
  8
0
 10
-59.9551
 20
-46.1246
 11
-59.8316
 21
-45.9427
  0
LINE
  8
0
 10
-59.8316
 20
-45.9427
 11
-59.6968
 21
-45.769
  0
LINE
  8
0
 10
-59.6968
 20
-45.769
 11
-59.5514
 21
-45.6041
  0
LINE
  8
0
 10
-59.5514
 20
-45.6041
 11
-59.3959
 21
-45.4486
  0
LINE
  8
0
 10
-59.3959
 20
-45.4486
 11
-59.231
 21
-45.3032
  0
LINE
  8
0
 10
-59.231
 20
-45.3032
 11
-59.0572
 21
-45.1684
  0
LINE
  8
0
 10
-59.0572
 20
-45.1684
 11
-58.8754
 21
-45.0448
  0
LINE
  8
0
 10
-58.8754
 20
-45.0448
 11
-58.6861
 21
-44.9329
  0
LINE
  8
0
 10
-58.6861
 20
-44.9329
 11
-58.4902
 21
-44.8331
  0
LINE
  8
0
 10
-58.4902
 20
-44.8331
 11
-58.2884
 21
-44.7458
  0
LINE
  8
0
 10
-58.2884
 20
-44.7458
 11
-58.0816
 21
-44.6713
  0
LINE
  8
0
 10
-58.0816
 20
-44.6713
 11
-57.8704
 21
-44.61
  0
LINE
  8
0
 10
-57.8704
 20
-44.61
 11
-57.6558
 21
-44.562
  0
LINE
  8
0
 10
-57.6558
 20
-44.562
 11
-57.4387
 21
-44.5276
  0
LINE
  8
0
 10
-57.4387
 20
-44.5276
 11
-57.2198
 21
-44.5069
  0
LINE
  8
0
 10
-57.2198
 20
-44.5069
 11
-57
 21
-44.5
  0
LINE
  8
0
 10
-57
 20
-44.5
 11
-56.7802
 21
-44.5069
  0
LINE
  8
0
 10
-56.7802
 20
-44.5069
 11
-56.5613
 21
-44.5276
  0
LINE
  8
0
 10
-56.5613
 20
-44.5276
 11
-56.3442
 21
-44.562
  0
LINE
  8
0
 10
-56.3442
 20
-44.562
 11
-56.1296
 21
-44.61
  0
LINE
  8
0
 10
-56.1296
 20
-44.61
 11
-55.9184
 21
-44.6713
  0
LINE
  8
0
 10
-55.9184
 20
-44.6713
 11
-55.7116
 21
-44.7458
  0
LINE
  8
0
 10
-55.7116
 20
-44.7458
 11
-55.5098
 21
-44.8331
  0
LINE
  8
0
 10
-55.5098
 20
-44.8331
 11
-55.3139
 21
-44.9329
  0
LINE
  8
0
 10
-55.3139
 20
-44.9329
 11
-55.1246
 21
-45.0448
  0
LINE
  8
0
 10
-55.1246
 20
-45.0448
 11
-54.9427
 21
-45.1684
  0
LINE
  8
0
 10
-54.9427
 20
-45.1684
 11
-54.769
 21
-45.3032
  0
LINE
  8
0
 10
-54.769
 20
-45.3032
 11
-54.6041
 21
-45.4486
  0
LINE
  8
0
 10
-54.6041
 20
-45.4486
 11
-54.4486
 21
-45.6041
  0
LINE
  8
0
 10
-54.4486
 20
-45.6041
 11
-54.3032
 21
-45.769
  0
LINE
  8
0
 10
-54.3032
 20
-45.769
 11
-54.1684
 21
-45.9427
  0
LINE
  8
0
 10
-54.1684
 20
-45.9427
 11
-54.0448
 21
-46.1246
  0
LINE
  8
0
 10
-54.0448
 20
-46.1246
 11
-53.9329
 21
-46.3139
  0
LINE
  8
0
 10
-53.9329
 20
-46.3139
 11
-53.8331
 21
-46.5098
  0
LINE
  8
0
 10
-53.8331
 20
-46.5098
 11
-53.7458
 21
-46.7116
  0
LINE
  8
0
 10
-53.7458
 20
-46.7116
 11
-53.6713
 21
-46.9184
  0
LINE
  8
0
 10
-53.6713
 20
-46.9184
 11
-53.61
 21
-47.1296
  0
LINE
  8
0
 10
-53.61
 20
-47.1296
 11
-53.562
 21
-47.3442
  0
LINE
  8
0
 10
-53.562
 20
-47.3442
 11
-53.5276
 21
-47.5613
  0
LINE
  8
0
 10
-53.5276
 20
-47.5613
 11
-53.5069
 21
-47.7802
  0
LINE
  8
0
 10
-53.5069
 20
-47.7802
 11
-53.5
 21
-48
  0
LINE
  8
0
 10
-53.5
 20
-48
 11
-53.5069
 21
-48.2198
  0
LINE
  8
0
 10
-53.5069
 20
-48.2198
 11
-53.5276
 21
-48.4387
  0
LINE
  8
0
 10
-53.5276
 20
-48.4387
 11
-53.562
 21
-48.6558
  0
LINE
  8
0
 10
-53.562
 20
-48.6558
 11
-53.61
 21
-48.8704
  0
LINE
  8
0
 10
-53.61
 20
-48.8704
 11
-53.6713
 21
-49.0816
  0
LINE
  8
0
 10
-53.6713
 20
-49.0816
 11
-53.7458
 21
-49.2884
  0
LINE
  8
0
 10
-53.7458
 20
-49.2884
 11
-53.8331
 21
-49.4902
  0
LINE
  8
0
 10
-53.8331
 20
-49.4902
 11
-53.9329
 21
-49.6861
  0
LINE
  8
0
 10
-53.9329
 20
-49.6861
 11
-54.0448
 21
-49.8754
  0
LINE
  8
0
 10
-54.0448
 20
-49.8754
 11
-54.1684
 21
-50.0572
  0
LINE
  8
0
 10
-54.1684
 20
-50.0572
 11
-54.3032
 21
-50.231
  0
LINE
  8
0
 10
-54.3032
 20
-50.231
 11
-54.4486
 21
-50.3959
  0
LINE
  8
0
 10
-54.4486
 20
-50.3959
 11
-54.6041
 21
-50.5514
  0
LINE
  8
0
 10
-54.6041
 20
-50.5514
 11
-54.769
 21
-50.6968
  0
LINE
  8
0
 10
-54.769
 20
-50.6968
 11
-54.9427
 21
-50.8316
  0
LINE
  8
0
 10
-54.9427
 20
-50.8316
 11
-55.1246
 21
-50.9551
  0
LINE
  8
0
 10
-55.1246
 20
-50.9551
 11
-55.3139
 21
-51.0671
  0
LINE
  8
0
 10
-55.3139
 20
-51.0671
 11
-55.5098
 21
-51.1669
  0
LINE
  8
0
 10
-55.5098
 20
-51.1669
 11
-55.7116
 21
-51.2542
  0
LINE
  8
0
 10
-55.7116
 20
-51.2542
 11
-55.9184
 21
-51.3287
  0
LINE
  8
0
 10
-55.9184
 20
-51.3287
 11
-56.1296
 21
-51.39
  0
LINE
  8
0
 10
-56.1296
 20
-51.39
 11
-56.3442
 21
-51.438
  0
LINE
  8
0
 10
-56.3442
 20
-51.438
 11
-56.5613
 21
-51.4724
  0
LINE
  8
0
 10
-56.5613
 20
-51.4724
 11
-56.7802
 21
-51.4931
  0
LINE
  8
0
 10
-56.7802
 20
-51.4931
 11
-57
 21
-51.5
  0
LINE
  8
0
 10
-57
 20
-51.5
 11
-57.2198
 21
-51.4931
  0
ENDSEC
  0
SECTION
  2
OBJECTS
  0
DICTIONARY
  0
ENDSEC
  0
EOF
