  0
SECTION
  2
HEADER
  9
$ACADVER
  1
AC1014
  9
$HANDSEED
  5
FFFF
  9
$MEASUREMENT
 70
     1
  0
ENDSEC
  0
SECTION
  2
TABLES
  0
TABLE
  2
VPORT
  5
8
330
0
100
AcDbSymbolTable
 70
     4
  0
VPORT
  5
2E
330
8
100
AcDbSymbolTableRecord
100
AcDbViewportTableRecord
  2
*ACTIVE
 70
     0
 10
0.0
 20
0.0
 11
1.0
 21
1.0
 12
210.0
 22
148.5
 13
0.0
 23
0.0
 14
10.0
 24
10.0
 15
10.0
 25
10.0
 16
0.0
 26
0.0
 36
1.0
 17
0.0
 27
0.0
 37
0.0
 40
341.0
 41
1.24
 42
50.0
 43
0.0
 44
0.0
 50
0.0
 51
0.0
 71
     0
 72
   100
 73
     1
 74
     3
 75
     0
 76
     0
 77
     0
 78
     0
  0
ENDTAB
  0
TABLE
  2
LTYPE
  5
5
330
0
100
AcDbSymbolTable
 70
     1
  0
LTYPE
  5
14
330
5
100
AcDbSymbolTableRecord
100
AcDbLinetypeTableRecord
  2
BYBLOCK
 70
     0
  3

 72
    65
 73
     0
 40
0.0
  0
LTYPE
  5
15
330
5
100
AcDbSymbolTableRecord
100
AcDbLinetypeTableRecord
  2
BYLAYER
 70
     0
  3

 72
    65
 73
     0
 40
0.0
  0
LTYPE
  5
16
330
5
100
AcDbSymbolTableRecord
100
AcDbLinetypeTableRecord
  2
CONTINUOUS
 70
     0
  3
Solid line
 72
    65
 73
     0
 40
0.0
  0
ENDTAB
  0
TABLE
  2
LAYER
  5
2
100
AcDbSymbolTable
 70
2
  0
LAYER
  5
50
100
AcDbSymbolTableRecord
100
AcDbLayerTableRecord
  2
0
 70
0
  6
CONTINUOUS
  0
LAYER
  5
51
100
AcDbSymbolTableRecord
100
AcDbLayerTableRecord
  2
Layer_1
 70
0
  6
CONTINUOUS
  0
ENDTAB
  0
TABLE
  2
STYLE
  5
3
330
0
100
AcDbSymbolTable
 70
     1
  0
STYLE
  5
11
330
3
100
AcDbSymbolTableRecord
100
AcDbTextStyleTableRecord
  2
STANDARD
 70
     0
 40
0.0
 41
1.0
 50
0.0
 71
     0
 42
2.5
  3
txt
  4

  0
ENDTAB
  0
TABLE
  2
VIEW
  5
6
330
0
100
AcDbSymbolTable
 70
     0
  0
ENDTAB
  0
TABLE
  2
UCS
  5
7
330
0
100
AcDbSymbolTable
 70
     0
  0
ENDTAB
  0
TABLE
  2
APPID
  5
9
330
0
100
AcDbSymbolTable
 70
     2
  0
APPID
  5
12
330
9
100
AcDbSymbolTableRecord
100
AcDbRegAppTableRecord
  2
ACAD
 70
     0
  0
ENDTAB
  0
TABLE
  2
DIMSTYLE
  5
A
330
0
100
AcDbSymbolTable
 70
     1
  0
DIMSTYLE
105
27
330
A
100
AcDbSymbolTableRecord
100
AcDbDimStyleTableRecord
  2
ISO-25
 70
     0
  3

  4

  5

  6

  7

 40
1.0
 41
2.5
 42
0.625
 43
3.75
 44
1.25
 45
0.0
 46
0.0
 47
0.0
 48
0.0
140
2.5
141
2.5
142
0.0
143
0.03937007874016
144
1.0
145
0.0
146
1.0
147
0.625
 71
     0
 72
     0
 73
     0
 74
     0
 75
     0
 76
     0
 77
     1
 78
     8
170
     0
171
     3
172
     1
173
     0
174
     0
175
     0
176
     0
177
     0
178
     0
270
     2
271
     2
272
     2
273
     2
274
     3
340
11
275
     0
280
     0
281
     0
282
     0
283
     0
284
     8
285
     0
286
     0
287
     3
288
     0
  0
ENDTAB
  0
TABLE
  2
BLOCK_RECORD
  5
1
330
0
100
AcDbSymbolTable
 70
     1
  0
BLOCK_RECORD
  5
1F
330
1
100
AcDbSymbolTableRecord
100
AcDbBlockTableRecord
  2
*MODEL_SPACE
  0
BLOCK_RECORD
  5
1B
330
1
100
AcDbSymbolTableRecord
100
AcDbBlockTableRecord
  2
*PAPER_SPACE
  0
ENDTAB
  0
ENDSEC
  0
SECTION
  2
BLOCKS
  0
BLOCK
  5
20
330
1F
100
AcDbEntity
  8
0
100
AcDbBlockBegin
  2
*MODEL_SPACE
 70
     0
 10
0.0
 20
0.0
 30
0.0
  3
*MODEL_SPACE
  1

  0
ENDBLK
  5
21
330
1F
100
AcDbEntity
  8
0
100
AcDbBlockEnd
  0
BLOCK
  5
1C
330
1B
100
AcDbEntity
 67
     1
  8
0
100
AcDbBlockBegin
  2
*PAPER_SPACE
  1

  0
ENDBLK
  5
1D
330
1B
100
AcDbEntity
 67
     1
  8
0
100
AcDbBlockEnd
  0
ENDSEC
  0
SECTION
  2
ENTITIES
  0
LINE
  5
100
100
AcDbEntity
  8
Layer_1
 62
7
100
AcDbLine
 10
-195.531746
 20
252.361907
 30
0.0
 11
-320.531744
 21
252.361907
 31
0.0
  0
LINE
  5
101
100
AcDbEntity
  8
Layer_1
 62
7
100
AcDbLine
 10
-320.531744
 20
252.361907
 30
0.0
 11
-320.531744
 21
144.361903
 31
0.0
  0
LINE
  5
102
100
AcDbEntity
  8
Layer_1
 62
7
100
AcDbLine
 10
-320.531744
 20
144.361903
 30
0.0
 11
-195.531746
 21
144.361903
 31
0.0
  0
LINE
  5
103
100
AcDbEntity
  8
Layer_1
 62
7
100
AcDbLine
 10
-195.531746
 20
144.361903
 30
0.0
 11
-195.531746
 21
252.361907
 31
0.0
  0
SPLINE
  5
104
100
AcDbEntity
  8
Layer_1
 62
7
100
AcDbSpline
 70
0
 71
3
 72
10
 73
6
 74
4
 40
0.000000
 40
0.000000
 40
0.000000
 40
0.000000
 40
1.276493
 40
2.551551
 40
3.827912
 40
3.827912
 40
3.827912
 40
3.827912
 10
-318.531748
 20
246.361908
 30
0.0
 10
-318.483701
 20
246.787904
 30
0.0
 10
-318.387661
 20
247.639416
 30
0.0
 10
-317.692900
 20
248.776009
 30
0.0
 10
-316.975425
 20
249.245233
 30
0.0
 10
-316.616503
 20
249.479964
 30
0.0
 11
-318.531748
 21
246.361908
 31
0.0
 11
-318.295738
 21
247.616393
 31
0.0
 11
-317.629603
 21
248.703608
 31
0.0
 11
-316.616503
 21
249.479964
 31
0.0
  0
SPLINE
  5
105
100
AcDbEntity
  8
Layer_1
 62
7
100
AcDbSpline
 70
0
 71
3
 72
10
 73
6
 74
4
 40
0.000000
 40
0.000000
 40
0.000000
 40
0.000000
 40
1.409119
 40
2.818523
 40
4.227986
 40
4.227986
 40
4.227986
 40
4.227986
 10
-316.616503
 20
249.479964
 30
0.0
 10
-316.170928
 20
249.642363
 30
0.0
 10
-315.279686
 20
249.967193
 30
0.0
 10
-313.808203
 20
249.762699
 30
0.0
 10
-313.039881
 20
249.205984
 30
0.0
 10
-312.655712
 20
248.927621
 30
0.0
 11
-316.616503
 21
249.479964
 31
0.0
 11
-315.257356
 21
249.851895
 31
0.0
 11
-313.861406
 21
249.657612
 31
0.0
 11
-312.655712
 21
248.927621
 31
0.0
  0
SPLINE
  5
106
100
AcDbEntity
  8
Layer_1
 62
7
100
AcDbSpline
 70
0
 71
3
 72
10
 73
6
 74
4
 40
0.000000
 40
0.000000
 40
0.000000
 40
0.000000
 40
1.431339
 40
2.863326
 40
4.295033
 40
4.295033
 40
4.295033
 40
4.295033
 10
-312.655712
 20
248.927621
 30
0.0
 10
-312.344546
 20
248.559622
 30
0.0
 10
-311.722073
 20
247.823455
 30
0.0
 10
-311.413733
 20
246.343394
 30
0.0
 10
-311.690774
 20
245.419841
 30
0.0
 10
-311.829281
 20
244.958109
 30
0.0
 11
-312.655712
 21
248.927621
 31
0.0
 11
-311.826396
 21
247.761018
 31
0.0
 11
-311.534393
 21
246.359118
 31
0.0
 11
-311.829281
 21
244.958109
 31
0.0
  0
SPLINE
  5
107
100
AcDbEntity
  8
Layer_1
 62
7
100
AcDbSpline
 70
0
 71
3
 72
10
 73
6
 74
4
 40
0.000000
 40
0.000000
 40
0.000000
 40
0.000000
 40
1.453810
 40
2.908344
 40
4.362556
 40
4.362556
 40
4.362556
 40
4.362556
 10
-311.829281
 20
244.958109
 30
0.0
 10
-312.079598
 20
244.537244
 30
0.0
 10
-312.580356
 20
243.695303
 30
0.0
 10
-313.908168
 20
242.918727
 30
0.0
 10
-314.887565
 20
242.894520
 30
0.0
 10
-315.377209
 20
242.882419
 30
0.0
 11
-311.829281
 21
244.958109
 31
0.0
 11
-312.676294
 21
243.776529
 31
0.0
 11
-313.931790
 21
243.042091
 31
0.0
 11
-315.377209
 21
242.882419
 31
0.0
  0
SPLINE
  5
108
100
AcDbEntity
  8
Layer_1
 62
7
100
AcDbSpline
 70
0
 71
3
 72
10
 73
6
 74
4
 40
0.000000
 40
0.000000
 40
0.000000
 40
0.000000
 40
1.453816
 40
2.908345
 40
4.362547
 40
4.362547
 40
4.362547
 40
4.362547
 10
-315.377209
 20
242.882419
 30
0.0
 10
-315.854829
 20
242.990426
 30
0.0
 10
-316.810303
 20
243.206493
 30
0.0
 10
-317.959244
 20
244.229280
 30
0.0
 10
-318.284895
 20
245.153270
 30
0.0
 10
-318.447702
 20
245.615213
 30
0.0
 11
-315.377209
 21
242.882419
 31
0.0
 11
-316.762712
 21
243.322829
 31
0.0
 11
-317.849204
 21
244.289881
 31
0.0
 11
-318.447702
 21
245.615213
 31
0.0
  0
LINE
  5
109
100
AcDbEntity
  8
Layer_1
 62
7
100
AcDbLine
 10
-318.531748
 20
246.361908
 30
0.0
 11
-318.531748
 21
246.361908
 31
0.0
  0
SPLINE
  5
10a
100
AcDbEntity
  8
Layer_1
 62
7
100
AcDbSpline
 70
0
 71
3
 72
10
 73
6
 74
4
 40
0.000000
 40
0.000000
 40
0.000000
 40
0.000000
 40
0.250918
 40
0.501835
 40
0.752745
 40
0.752745
 40
0.752745
 40
0.752745
 10
-318.447702
 20
245.615213
 30
0.0
 10
-318.464208
 20
245.697228
 30
0.0
 10
-318.497218
 20
245.861258
 30
0.0
 10
-318.525852
 20
246.110982
 30
0.0
 10
-318.529783
 20
246.278267
 30
0.0
 10
-318.531748
 20
246.361908
 30
0.0
 11
-318.447702
 21
245.615213
 31
0.0
 11
-318.493738
 21
245.861872
 31
0.0
 11
-318.522063
 21
246.111185
 31
0.0
 11
-318.531748
 21
246.361908
 31
0.0
  0
SPLINE
  5
10b
100
AcDbEntity
  8
Layer_1
 62
7
100
AcDbSpline
 70
0
 71
3
 72
10
 73
6
 74
4
 40
0.000000
 40
0.000000
 40
0.000000
 40
0.000000
 40
1.276541
 40
2.551644
 40
3.828057
 40
3.828057
 40
3.828057
 40
3.828057
 10
-289.363348
 20
248.419108
 30
0.0
 10
-289.074080
 20
248.735524
 30
0.0
 10
-288.495872
 20
249.368000
 30
0.0
 10
-287.265675
 20
249.879184
 30
0.0
 10
-286.409390
 20
249.837033
 30
0.0
 10
-285.981027
 20
249.815947
 30
0.0
 11
-289.363348
 21
248.419108
 31
0.0
 11
-288.435029
 21
249.295340
 31
0.0
 11
-287.257025
 21
249.783390
 31
0.0
 11
-285.981027
 21
249.815947
 31
0.0
  0
SPLINE
  5
10c
100
AcDbEntity
  8
Layer_1
 62
7
100
AcDbSpline
 70
0
 71
3
 72
10
 73
6
 74
4
 40
0.000000
 40
0.000000
 40
0.000000
 40
0.000000
 40
1.409097
 40
2.818466
 40
4.227895
 40
4.227895
 40
4.227895
 40
4.227895
 10
-285.981027
 20
249.815947
 30
0.0
 10
-285.525102
 20
249.685424
 30
0.0
 10
-284.613162
 20
249.424353
 30
0.0
 10
-283.542939
 20
248.394016
 30
0.0
 10
-283.248582
 20
247.492042
 30
0.0
 10
-283.101401
 20
247.041045
 30
0.0
 11
-285.981027
 21
249.815947
 31
0.0
 11
-284.662863
 21
249.317952
 31
0.0
 11
-283.647743
 21
248.340274
 31
0.0
 11
-283.101401
 21
247.041045
 31
0.0
  0
SPLINE
  5
10d
100
AcDbEntity
  8
Layer_1
 62
7
100
AcDbSpline
 70
0
 71
3
 72
10
 73
6
 74
4
 40
0.000000
 40
0.000000
 40
0.000000
 40
0.000000
 40
1.431344
 40
2.863335
 40
4.295035
 40
4.295035
 40
4.295035
 40
4.295035
 10
-283.101401
 20
247.041045
 30
0.0
 10
-283.065965
 20
246.560429
 30
0.0
 10
-282.995077
 20
245.598979
 30
0.0
 10
-283.615510
 20
244.220307
 30
0.0
 10
-284.382513
 20
243.635997
 30
0.0
 10
-284.765976
 20
243.343872
 30
0.0
 11
-283.101401
 21
247.041045
 31
0.0
 11
-283.116165
 21
245.609777
 31
0.0
 11
-283.703904
 21
244.303958
 31
0.0
 11
-284.765976
 21
243.343872
 31
0.0
  0
SPLINE
  5
10e
100
AcDbEntity
  8
Layer_1
 62
7
100
AcDbSpline
 70
0
 71
3
 72
10
 73
6
 74
4
 40
0.000000
 40
0.000000
 40
0.000000
 40
0.000000
 40
1.453829
 40
2.908375
 40
4.362592
 40
4.362592
 40
4.362592
 40
4.362592
 10
-284.765976
 20
243.343872
 30
0.0
 10
-285.215876
 20
243.150533
 30
0.0
 10
-286.115897
 20
242.763760
 30
0.0
 10
-287.646588
 20
242.915884
 30
0.0
 10
-288.453192
 20
243.471953
 30
0.0
 10
-288.856448
 20
243.749956
 30
0.0
 11
-284.765976
 21
243.343872
 31
0.0
 11
-286.145769
 21
242.885842
 31
0.0
 11
-287.593194
 21
243.029581
 31
0.0
 11
-288.856448
 21
243.749956
 31
0.0
  0
SPLINE
  5
10f
100
AcDbEntity
  8
Layer_1
 62
7
100
AcDbSpline
 70
0
 71
3
 72
10
 73
6
 74
4
 40
0.000000
 40
0.000000
 40
0.000000
 40
0.000000
 40
1.453792
 40
2.908316
 40
4.362512
 40
4.362512
 40
4.362512
 40
4.362512
 10
-288.856448
 20
243.749956
 30
0.0
 10
-289.179354
 20
244.118075
 30
0.0
 10
-289.825329
 20
244.854500
 30
0.0
 10
-290.153580
 20
246.357274
 30
0.0
 10
-289.873993
 20
247.296218
 30
0.0
 10
-289.734216
 20
247.765636
 30
0.0
 11
-288.856448
 21
243.749956
 31
0.0
 11
-289.718434
 21
244.920635
 31
0.0
 11
-290.028964
 21
246.341625
 31
0.0
 11
-289.734216
 21
247.765636
 31
0.0
  0
LINE
  5
110
100
AcDbEntity
  8
Layer_1
 62
7
100
AcDbLine
 10
-289.363348
 20
248.419108
 30
0.0
 11
-289.363348
 21
248.419108
 31
0.0
  0
SPLINE
  5
111
100
AcDbEntity
  8
Layer_1
 62
7
100
AcDbSpline
 70
0
 71
3
 72
10
 73
6
 74
4
 40
0.000000
 40
0.000000
 40
0.000000
 40
0.000000
 40
0.250913
 40
0.501818
 40
0.752713
 40
0.752713
 40
0.752713
 40
0.752713
 10
-289.734216
 20
247.765636
 30
0.0
 10
-289.699365
 20
247.841689
 30
0.0
 10
-289.629664
 20
247.993792
 30
0.0
 10
-289.506060
 20
248.212650
 30
0.0
 10
-289.410918
 20
248.350289
 30
0.0
 10
-289.363348
 20
248.419108
 30
0.0
 11
-289.734216
 21
247.765636
 31
0.0
 11
-289.626487
 21
247.992246
 31
0.0
 11
-289.502873
 21
248.210587
 31
0.0
 11
-289.363348
 21
248.419108
 31
0.0
  0
SPLINE
  5
112
100
AcDbEntity
  8
Layer_1
 62
7
100
AcDbSpline
 70
0
 71
3
 72
10
 73
6
 74
4
 40
0.000000
 40
0.000000
 40
0.000000
 40
0.000000
 40
1.276494
 40
2.551561
 40
3.827942
 40
3.827942
 40
3.827942
 40
3.827942
 10
-198.200145
 20
248.419108
 30
0.0
 10
-197.988626
 20
248.046226
 30
0.0
 10
-197.565824
 20
247.300880
 30
0.0
 10
-197.459845
 20
245.972974
 30
0.0
 10
-197.764501
 20
245.171637
 30
0.0
 10
-197.916907
 20
244.770762
 30
0.0
 11
-198.200145
 21
248.419108
 31
0.0
 11
-197.653726
 21
247.265478
 31
0.0
 11
-197.553608
 21
245.994347
 31
0.0
 11
-197.916907
 21
244.770762
 31
0.0
  0
SPLINE
  5
113
100
AcDbEntity
  8
Layer_1
 62
7
100
AcDbSpline
 70
0
 71
3
 72
10
 73
6
 74
4
 40
0.000000
 40
0.000000
 40
0.000000
 40
0.000000
 40
1.409090
 40
2.818467
 40
4.227902
 40
4.227902
 40
4.227902
 40
4.227902
 10
-197.916907
 20
244.770762
 30
0.0
 10
-198.181928
 20
244.377484
 30
0.0
 10
-198.712023
 20
243.590848
 30
0.0
 10
-200.022676
 20
242.891441
 30
0.0
 10
-200.971468
 20
242.890211
 30
0.0
 10
-201.445873
 20
242.889595
 30
0.0
 11
-197.916907
 21
244.770762
 31
0.0
 11
-198.797860
 21
243.671008
 31
0.0
 11
-200.041396
 21
243.007715
 31
0.0
 11
-201.445873
 21
242.889595
 31
0.0
  0
SPLINE
  5
114
100
AcDbEntity
  8
Layer_1
 62
7
100
AcDbSpline
 70
0
 71
3
 72
10
 73
6
 74
4
 40
0.000000
 40
0.000000
 40
0.000000
 40
0.000000
 40
1.431350
 40
2.863347
 40
4.295060
 40
4.295060
 40
4.295060
 40
4.295060
 10
-201.445873
 20
242.889595
 30
0.0
 10
-201.913923
 20
243.004403
 30
0.0
 10
-202.850233
 20
243.234070
 30
0.0
 10
-203.969691
 20
244.250206
 30
0.0
 10
-204.288373
 20
245.160241
 30
0.0
 10
-204.447699
 20
245.615213
 30
0.0
 11
-201.445873
 21
242.889595
 31
0.0
 11
-202.802540
 21
243.345905
 31
0.0
 11
-203.862816
 21
244.308417
 31
0.0
 11
-204.447699
 21
245.615213
 31
0.0
  0
SPLINE
  5
115
100
AcDbEntity
  8
Layer_1
 62
7
100
AcDbSpline
 70
0
 71
3
 72
10
 73
6
 74
4
 40
0.000000
 40
0.000000
 40
0.000000
 40
0.000000
 40
1.453793
 40
2.908308
 40
4.362503
 40
4.362503
 40
4.362503
 40
4.362503
 10
-204.447699
 20
245.615213
 30
0.0
 10
-204.492553
 20
246.102826
 30
0.0
 10
-204.582283
 20
247.078293
 30
0.0
 10
-203.964612
 20
248.487035
 30
0.0
 10
-203.186513
 20
249.082307
 30
0.0
 10
-202.797506
 20
249.379911
 30
0.0
 11
-204.447699
 21
245.615213
 31
0.0
 11
-204.456946
 21
247.068977
 31
0.0
 11
-203.872980
 21
248.401117
 31
0.0
 11
-202.797506
 21
249.379911
 31
0.0
  0
SPLINE
  5
116
100
AcDbEntity
  8
Layer_1
 62
7
100
AcDbSpline
 70
0
 71
3
 72
10
 73
6
 74
4
 40
0.000000
 40
0.000000
 40
0.000000
 40
0.000000
 40
1.453838
 40
2.908401
 40
4.362639
 40
4.362639
 40
4.362639
 40
4.362639
 10
-202.797506
 20
249.379911
 30
0.0
 10
-202.347609
 20
249.573267
 30
0.0
 10
-201.447591
 20
249.960075
 30
0.0
 10
-199.916872
 20
249.807931
 30
0.0
 10
-199.110283
 20
249.251816
 30
0.0
 10
-198.707034
 20
248.973790
 30
0.0
 11
-202.797506
 21
249.379911
 31
0.0
 11
-201.417718
 21
249.837980
 31
0.0
 11
-199.970275
 21
249.694226
 31
0.0
 11
-198.707034
 21
248.973790
 31
0.0
  0
LINE
  5
117
100
AcDbEntity
  8
Layer_1
 62
7
100
AcDbLine
 10
-198.200145
 20
248.419108
 30
0.0
 11
-198.200145
 21
248.419108
 31
0.0
  0
SPLINE
  5
118
100
AcDbEntity
  8
Layer_1
 62
7
100
AcDbSpline
 70
0
 71
3
 72
10
 73
6
 74
4
 40
0.000000
 40
0.000000
 40
0.000000
 40
0.000000
 40
0.250918
 40
0.501832
 40
0.752740
 40
0.752740
 40
0.752740
 40
0.752740
 10
-198.707034
 20
248.973790
 30
0.0
 10
-198.645471
 20
248.917143
 30
0.0
 10
-198.522346
 20
248.803849
 30
0.0
 10
-198.352397
 20
248.618650
 30
0.0
 10
-198.250895
 20
248.485621
 30
0.0
 10
-198.200145
 20
248.419108
 30
0.0
 11
-198.707034
 21
248.973790
 31
0.0
 11
-198.524801
 21
248.801305
 31
0.0
 11
-198.355345
 21
248.616257
 31
0.0
 11
-198.200145
 21
248.419108
 31
0.0
  0
SPLINE
  5
119
100
AcDbEntity
  8
Layer_1
 62
7
100
AcDbSpline
 70
0
 71
3
 72
10
 73
6
 74
4
 40
0.000000
 40
0.000000
 40
0.000000
 40
0.000000
 40
1.276526
 40
2.551623
 40
3.828032
 40
3.828032
 40
3.828032
 40
3.828032
 10
-228.450146
 20
243.033207
 30
0.0
 10
-228.870149
 20
242.947258
 30
0.0
 10
-229.709685
 20
242.775456
 30
0.0
 10
-231.005390
 20
243.084972
 30
0.0
 10
-231.673379
 20
243.622359
 30
0.0
 10
-232.007545
 20
243.891191
 30
0.0
 11
-228.450146
 21
243.033207
 31
0.0
 11
-229.716195
 21
242.869994
 31
0.0
 11
-230.956087
 21
243.167552
 31
0.0
 11
-232.007545
 21
243.891191
 31
0.0
  0
SPLINE
  5
11a
100
AcDbEntity
  8
Layer_1
 62
7
100
AcDbSpline
 70
0
 71
3
 72
10
 73
6
 74
4
 40
0.000000
 40
0.000000
 40
0.000000
 40
0.000000
 40
1.409075
 40
2.818439
 40
4.227857
 40
4.227857
 40
4.227857
 40
4.227857
 10
-232.007545
 20
243.891191
 30
0.0
 10
-232.299671
 20
244.264769
 30
0.0
 10
-232.883982
 20
245.012002
 30
0.0
 10
-233.144157
 20
246.474612
 30
0.0
 10
-232.852160
 20
247.377344
 30
0.0
 10
-232.706158
 20
247.828719
 30
0.0
 11
-232.007545
 21
243.891191
 31
0.0
 11
-232.781226
 21
245.068863
 31
0.0
 11
-233.027793
 21
246.456490
 31
0.0
 11
-232.706158
 21
247.828719
 31
0.0
  0
SPLINE
  5
11b
100
AcDbEntity
  8
Layer_1
 62
7
100
AcDbSpline
 70
0
 71
3
 72
10
 73
6
 74
4
 40
0.000000
 40
0.000000
 40
0.000000
 40
0.000000
 40
1.431362
 40
2.863376
 40
4.295107
 40
4.295107
 40
4.295107
 40
4.295107
 10
-232.706158
 20
247.828719
 30
0.0
 10
-232.452330
 20
248.238385
 30
0.0
 10
-231.944558
 20
249.057905
 30
0.0
 10
-230.632203
 20
249.808555
 30
0.0
 10
-229.668223
 20
249.830456
 30
0.0
 10
-229.186280
 20
249.841406
 30
0.0
 11
-232.706158
 21
247.828719
 31
0.0
 11
-231.852935
 21
248.977982
 31
0.0
 11
-230.609869
 21
249.688933
 31
0.0
 11
-229.186280
 21
249.841406
 31
0.0
  0
SPLINE
  5
11c
100
AcDbEntity
  8
Layer_1
 62
7
100
AcDbSpline
 70
0
 71
3
 72
10
 73
6
 74
4
 40
0.000000
 40
0.000000
 40
0.000000
 40
0.000000
 40
1.453805
 40
2.908336
 40
4.362542
 40
4.362542
 40
4.362542
 40
4.362542
 10
-229.186280
 20
249.841406
 30
0.0
 10
-228.708666
 20
249.733387
 30
0.0
 10
-227.753201
 20
249.517295
 30
0.0
 10
-226.604290
 20
248.494488
 30
0.0
 10
-226.278618
 20
247.570506
 30
0.0
 10
-226.115801
 20
247.108566
 30
0.0
 11
-229.186280
 21
249.841406
 31
0.0
 11
-227.800799
 21
249.400964
 31
0.0
 11
-226.714321
 21
248.433892
 31
0.0
 11
-226.115801
 21
247.108566
 31
0.0
  0
SPLINE
  5
11d
100
AcDbEntity
  8
Layer_1
 62
7
100
AcDbSpline
 70
0
 71
3
 72
10
 73
6
 74
4
 40
0.000000
 40
0.000000
 40
0.000000
 40
0.000000
 40
1.453804
 40
2.908328
 40
4.362527
 40
4.362527
 40
4.362527
 40
4.362527
 10
-226.115801
 20
247.108566
 30
0.0
 10
-226.070940
 20
246.620952
 30
0.0
 10
-225.981197
 20
245.645481
 30
0.0
 10
-226.598838
 20
244.236708
 30
0.0
 10
-227.376969
 20
243.641461
 30
0.0
 10
-227.765991
 20
243.343872
 30
0.0
 11
-226.115801
 21
247.108566
 31
0.0
 11
-226.106532
 21
245.654792
 31
0.0
 11
-226.690484
 21
244.322636
 31
0.0
 11
-227.765991
 21
243.343872
 31
0.0
  0
LINE
  5
11e
100
AcDbEntity
  8
Layer_1
 62
7
100
AcDbLine
 10
-228.450146
 20
243.033207
 30
0.0
 11
-228.450146
 21
243.033207
 31
0.0
  0
SPLINE
  5
11f
100
AcDbEntity
  8
Layer_1
 62
7
100
AcDbSpline
 70
0
 71
3
 72
10
 73
6
 74
4
 40
0.000000
 40
0.000000
 40
0.000000
 40
0.000000
 40
0.250911
 40
0.501820
 40
0.752721
 40
0.752721
 40
0.752721
 40
0.752721
 10
-227.765991
 20
243.343872
 30
0.0
 10
-227.838888
 20
243.302828
 30
0.0
 10
-227.984681
 20
243.220742
 30
0.0
 10
-228.213328
 20
243.116344
 30
0.0
 10
-228.371207
 20
243.060919
 30
0.0
 10
-228.450146
 20
243.033207
 30
0.0
 11
-227.765991
 21
243.343872
 31
0.0
 11
-227.986342
 21
243.223864
 31
0.0
 11
-228.214692
 21
243.119886
 31
0.0
 11
-228.450146
 21
243.033207
 31
0.0
  0
SPLINE
  5
120
100
AcDbEntity
  8
Layer_1
 62
7
100
AcDbSpline
 70
0
 71
3
 72
10
 73
6
 74
4
 40
0.000000
 40
0.000000
 40
0.000000
 40
0.000000
 40
1.276503
 40
2.551575
 40
3.827963
 40
3.827963
 40
3.827963
 40
3.827963
 10
-255.200184
 20
248.419108
 30
0.0
 10
-254.988655
 20
248.046228
 30
0.0
 10
-254.565835
 20
247.300886
 30
0.0
 10
-254.459841
 20
245.972969
 30
0.0
 10
-254.764519
 20
245.171633
 30
0.0
 10
-254.916937
 20
244.770759
 30
0.0
 11
-255.200184
 21
248.419108
 31
0.0
 11
-254.653739
 21
247.265479
 31
0.0
 11
-254.553613
 21
245.994344
 31
0.0
 11
-254.916937
 21
244.770759
 31
0.0
  0
SPLINE
  5
121
100
AcDbEntity
  8
Layer_1
 62
7
100
AcDbSpline
 70
0
 71
3
 72
10
 73
6
 74
4
 40
0.000000
 40
0.000000
 40
0.000000
 40
0.000000
 40
1.409073
 40
2.818432
 40
4.227850
 40
4.227850
 40
4.227850
 40
4.227850
 10
-254.916937
 20
244.770759
 30
0.0
 10
-255.181957
 20
244.377488
 30
0.0
 10
-255.712051
 20
243.590868
 30
0.0
 10
-257.022676
 20
242.891451
 30
0.0
 10
-257.971457
 20
242.890218
 30
0.0
 10
-258.445858
 20
242.889601
 30
0.0
 11
-254.916937
 21
244.770759
 31
0.0
 11
-255.797884
 21
243.671022
 31
0.0
 11
-257.041399
 21
243.007725
 31
0.0
 11
-258.445858
 21
242.889601
 31
0.0
  0
SPLINE
  5
122
100
AcDbEntity
  8
Layer_1
 62
7
100
AcDbSpline
 70
0
 71
3
 72
10
 73
6
 74
4
 40
0.000000
 40
0.000000
 40
0.000000
 40
0.000000
 40
1.431345
 40
2.863337
 40
4.295045
 40
4.295045
 40
4.295045
 40
4.295045
 10
-258.445858
 20
242.889601
 30
0.0
 10
-258.913905
 20
243.004411
 30
0.0
 10
-259.850211
 20
243.234084
 30
0.0
 10
-260.969656
 20
244.250220
 30
0.0
 10
-261.288355
 20
245.160243
 30
0.0
 10
-261.447689
 20
245.615210
 30
0.0
 11
-258.445858
 21
242.889601
 31
0.0
 11
-259.802517
 21
243.345918
 31
0.0
 11
-260.862788
 21
244.308428
 31
0.0
 11
-261.447689
 21
245.615210
 31
0.0
  0
SPLINE
  5
123
100
AcDbEntity
  8
Layer_1
 62
7
100
AcDbSpline
 70
0
 71
3
 72
10
 73
6
 74
4
 40
0.000000
 40
0.000000
 40
0.000000
 40
0.000000
 40
1.453797
 40
2.908320
 40
4.362520
 40
4.362520
 40
4.362520
 40
4.362520
 10
-261.447689
 20
245.615210
 30
0.0
 10
-261.492546
 20
246.102825
 30
0.0
 10
-261.582282
 20
247.078299
 30
0.0
 10
-260.964572
 20
248.487030
 30
0.0
 10
-260.186472
 20
249.082306
 30
0.0
 10
-259.797465
 20
249.379911
 30
0.0
 11
-261.447689
 21
245.615210
 31
0.0
 11
-261.456937
 21
247.068978
 31
0.0
 11
-260.872946
 21
248.401115
 31
0.0
 11
-259.797465
 21
249.379911
 31
0.0
  0
SPLINE
  5
124
100
AcDbEntity
  8
Layer_1
 62
7
100
AcDbSpline
 70
0
 71
3
 72
10
 73
6
 74
4
 40
0.000000
 40
0.000000
 40
0.000000
 40
0.000000
 40
1.453810
 40
2.908344
 40
4.362556
 40
4.362556
 40
4.362556
 40
4.362556
 10
-259.797465
 20
249.379911
 30
0.0
 10
-259.347578
 20
249.573265
 30
0.0
 10
-258.447578
 20
249.960069
 30
0.0
 10
-256.916888
 20
249.807919
 30
0.0
 10
-256.110316
 20
249.251812
 30
0.0
 10
-255.707075
 20
248.973790
 30
0.0
 11
-259.797465
 21
249.379911
 31
0.0
 11
-258.417704
 21
249.837974
 31
0.0
 11
-256.970291
 21
249.694217
 31
0.0
 11
-255.707075
 21
248.973790
 31
0.0
  0
LINE
  5
125
100
AcDbEntity
  8
Layer_1
 62
7
100
AcDbLine
 10
-255.200184
 20
248.419108
 30
0.0
 11
-255.200184
 21
248.419108
 31
0.0
  0
SPLINE
  5
126
100
AcDbEntity
  8
Layer_1
 62
7
100
AcDbSpline
 70
0
 71
3
 72
10
 73
6
 74
4
 40
0.000000
 40
0.000000
 40
0.000000
 40
0.000000
 40
0.250918
 40
0.501834
 40
0.752742
 40
0.752742
 40
0.752742
 40
0.752742
 10
-255.707075
 20
248.973790
 30
0.0
 10
-255.645512
 20
248.917143
 30
0.0
 10
-255.522387
 20
248.803848
 30
0.0
 10
-255.352438
 20
248.618649
 30
0.0
 10
-255.250935
 20
248.485621
 30
0.0
 10
-255.200184
 20
248.419108
 30
0.0
 11
-255.707075
 21
248.973790
 31
0.0
 11
-255.524842
 21
248.801304
 31
0.0
 11
-255.355385
 21
248.616256
 31
0.0
 11
-255.200184
 21
248.419108
 31
0.0
  0
SPLINE
  5
127
100
AcDbEntity
  8
Layer_1
 62
7
100
AcDbSpline
 70
0
 71
3
 72
10
 73
6
 74
4
 40
0.000000
 40
0.000000
 40
0.000000
 40
0.000000
 40
5.455324
 40
10.918824
 40
16.364951
 40
16.364951
 40
16.364951
 40
16.364951
 10
-305.433137
 20
224.663707
 30
0.0
 10
-304.801676
 20
226.380147
 30
0.0
 10
-303.537808
 20
229.815599
 30
0.0
 10
-299.639504
 20
233.945245
 30
0.0
 10
-296.221544
 20
235.275395
 30
0.0
 10
-294.515286
 20
235.939410
 30
0.0
 11
-305.433137
 21
224.663707
 31
0.0
 11
-303.204977
 21
229.643251
 31
0.0
 11
-299.429919
 21
233.592780
 31
0.0
 11
-294.515286
 21
235.939410
 31
0.0
  0
SPLINE
  5
128
100
AcDbEntity
  8
Layer_1
 62
7
100
AcDbSpline
 70
0
 71
3
 72
10
 73
6
 74
4
 40
0.000000
 40
0.000000
 40
0.000000
 40
0.000000
 40
3.091028
 40
6.225315
 40
9.351799
 40
9.351799
 40
9.351799
 40
9.351799
 10
-294.515286
 20
235.939410
 30
0.0
 10
-293.489277
 20
236.049772
 30
0.0
 10
-291.422901
 20
236.272040
 30
0.0
 10
-288.302451
 20
236.126886
 30
0.0
 10
-286.215959
 20
236.151443
 30
0.0
 10
-285.174013
 20
236.163706
 30
0.0
 11
-294.515286
 21
235.939410
 31
0.0
 11
-291.434586
 21
236.191876
 31
0.0
 11
-288.300489
 21
236.157274
 31
0.0
 11
-285.174013
 21
236.163706
 31
0.0
  0
SPLINE
  5
129
100
AcDbEntity
  8
Layer_1
 62
7
100
AcDbSpline
 70
0
 71
3
 72
10
 73
6
 74
4
 40
0.000000
 40
0.000000
 40
0.000000
 40
0.000000
 40
21.014552
 40
42.029109
 40
63.043666
 40
63.043666
 40
63.043666
 40
63.043666
 10
-285.174013
 20
236.163706
 30
0.0
 10
-278.169162
 20
236.163706
 30
0.0
 10
-264.159459
 20
236.163706
 30
0.0
 10
-243.144904
 20
236.163706
 30
0.0
 10
-229.135199
 20
236.163706
 30
0.0
 10
-222.130346
 20
236.163706
 30
0.0
 11
-285.174013
 21
236.163706
 31
0.0
 11
-264.159461
 21
236.163706
 31
0.0
 11
-243.144904
 21
236.163706
 31
0.0
 11
-222.130346
 21
236.163706
 31
0.0
  0
SPLINE
  5
12a
100
AcDbEntity
  8
Layer_1
 62
7
100
AcDbSpline
 70
0
 71
3
 72
10
 73
6
 74
4
 40
0.000000
 40
0.000000
 40
0.000000
 40
0.000000
 40
5.455336
 40
10.918843
 40
16.364966
 40
16.364966
 40
16.364966
 40
16.364966
 10
-222.130346
 20
236.163706
 30
0.0
 10
-220.413913
 20
235.532226
 30
0.0
 10
-216.978475
 20
234.268319
 30
0.0
 10
-212.848758
 20
230.370085
 30
0.0
 10
-211.518630
 20
226.952109
 30
0.0
 10
-210.854626
 20
225.245844
 30
0.0
 11
-222.130346
 21
236.163706
 31
0.0
 11
-217.150806
 21
233.935508
 31
0.0
 11
-213.201238
 21
230.160481
 31
0.0
 11
-210.854626
 21
225.245844
 31
0.0
  0
SPLINE
  5
12b
100
AcDbEntity
  8
Layer_1
 62
7
100
AcDbSpline
 70
0
 71
3
 72
10
 73
6
 74
4
 40
0.000000
 40
0.000000
 40
0.000000
 40
0.000000
 40
3.091034
 40
6.225318
 40
9.351786
 40
9.351786
 40
9.351786
 40
9.351786
 10
-210.854626
 20
225.245844
 30
0.0
 10
-210.744270
 20
224.219833
 30
0.0
 10
-210.522015
 20
222.153454
 30
0.0
 10
-210.667163
 20
219.033009
 30
0.0
 10
-210.642607
 20
216.946523
 30
0.0
 10
-210.630344
 20
215.904582
 30
0.0
 11
-210.854626
 21
225.245844
 31
0.0
 11
-210.602175
 21
222.165136
 31
0.0
 11
-210.636776
 21
219.031044
 31
0.0
 11
-210.630344
 21
215.904582
 31
0.0
  0
SPLINE
  5
12c
100
AcDbEntity
  8
Layer_1
 62
7
100
AcDbSpline
 70
0
 71
3
 72
10
 73
6
 74
4
 40
0.000000
 40
0.000000
 40
0.000000
 40
0.000000
 40
14.614829
 40
29.229658
 40
43.844487
 40
43.844487
 40
43.844487
 40
43.844487
 10
-210.630344
 20
215.904582
 30
0.0
 10
-210.630344
 20
211.032972
 30
0.0
 10
-210.630344
 20
201.289753
 30
0.0
 10
-210.630344
 20
186.674924
 30
0.0
 10
-210.630344
 20
176.931705
 30
0.0
 10
-210.630344
 20
172.060095
 30
0.0
 11
-210.630344
 21
215.904582
 31
0.0
 11
-210.630344
 21
201.289753
 31
0.0
 11
-210.630344
 21
186.674924
 31
0.0
 11
-210.630344
 21
172.060095
 31
0.0
  0
SPLINE
  5
12d
100
AcDbEntity
  8
Layer_1
 62
7
100
AcDbSpline
 70
0
 71
3
 72
10
 73
6
 74
4
 40
0.000000
 40
0.000000
 40
0.000000
 40
0.000000
 40
5.455323
 40
10.918821
 40
16.364942
 40
16.364942
 40
16.364942
 40
16.364942
 10
-210.630344
 20
172.060095
 30
0.0
 10
-211.261808
 20
170.343657
 30
0.0
 10
-212.525684
 20
166.908209
 30
0.0
 10
-216.423981
 20
162.778562
 30
0.0
 10
-219.841938
 20
161.448415
 30
0.0
 10
-221.548195
 20
160.784400
 30
0.0
 11
-210.630344
 21
172.060095
 31
0.0
 11
-212.858512
 21
167.080555
 31
0.0
 11
-216.633567
 21
163.131027
 31
0.0
 11
-221.548195
 21
160.784400
 31
0.0
  0
SPLINE
  5
12e
100
AcDbEntity
  8
Layer_1
 62
7
100
AcDbSpline
 70
0
 71
3
 72
10
 73
6
 74
4
 40
0.000000
 40
0.000000
 40
0.000000
 40
0.000000
 40
3.091037
 40
6.225328
 40
9.351801
 40
9.351801
 40
9.351801
 40
9.351801
 10
-221.548195
 20
160.784400
 30
0.0
 10
-222.574207
 20
160.674038
 30
0.0
 10
-224.640587
 20
160.451769
 30
0.0
 10
-227.761038
 20
160.596924
 30
0.0
 10
-229.847529
 20
160.572367
 30
0.0
 10
-230.889471
 20
160.560104
 30
0.0
 11
-221.548195
 21
160.784400
 31
0.0
 11
-224.628905
 21
160.531933
 31
0.0
 11
-227.763004
 21
160.566536
 31
0.0
 11
-230.889471
 21
160.560104
 31
0.0
  0
SPLINE
  5
12f
100
AcDbEntity
  8
Layer_1
 62
7
100
AcDbSpline
 70
0
 71
3
 72
10
 73
6
 74
4
 40
0.000000
 40
0.000000
 40
0.000000
 40
0.000000
 40
21.014558
 40
42.029117
 40
63.043675
 40
63.043675
 40
63.043675
 40
63.043675
 10
-230.889471
 20
160.560104
 30
0.0
 10
-237.894324
 20
160.560104
 30
0.0
 10
-251.904030
 20
160.560104
 30
0.0
 10
-272.918588
 20
160.560104
 30
0.0
 10
-286.928294
 20
160.560104
 30
0.0
 10
-293.933146
 20
160.560104
 30
0.0
 11
-230.889471
 21
160.560104
 31
0.0
 11
-251.904029
 21
160.560104
 31
0.0
 11
-272.918588
 21
160.560104
 31
0.0
 11
-293.933146
 21
160.560104
 31
0.0
  0
SPLINE
  5
130
100
AcDbEntity
  8
Layer_1
 62
7
100
AcDbSpline
 70
0
 71
3
 72
10
 73
6
 74
4
 40
0.000000
 40
0.000000
 40
0.000000
 40
0.000000
 40
5.455336
 40
10.918841
 40
16.364954
 40
16.364954
 40
16.364954
 40
16.364954
 10
-293.933146
 20
160.560104
 30
0.0
 10
-295.649578
 20
161.191586
 30
0.0
 10
-299.085012
 20
162.455496
 30
0.0
 10
-303.214745
 20
166.353711
 30
0.0
 10
-304.544859
 20
169.771690
 30
0.0
 10
-305.208855
 20
171.477955
 30
0.0
 11
-293.933146
 21
160.560104
 31
0.0
 11
-298.912687
 21
162.788304
 31
0.0
 11
-302.862260
 21
166.563320
 31
0.0
 11
-305.208855
 21
171.477955
 31
0.0
  0
SPLINE
  5
131
100
AcDbEntity
  8
Layer_1
 62
7
100
AcDbSpline
 70
0
 71
3
 72
10
 73
6
 74
4
 40
0.000000
 40
0.000000
 40
0.000000
 40
0.000000
 40
3.091035
 40
6.225320
 40
9.351789
 40
9.351789
 40
9.351789
 40
9.351789
 10
-305.208855
 20
171.477955
 30
0.0
 10
-305.319212
 20
172.503967
 30
0.0
 10
-305.541471
 20
174.570346
 30
0.0
 10
-305.396318
 20
177.690792
 30
0.0
 10
-305.420874
 20
179.777279
 30
0.0
 10
-305.433137
 20
180.819220
 30
0.0
 11
-305.208855
 21
171.477955
 31
0.0
 11
-305.461309
 21
174.558664
 31
0.0
 11
-305.426706
 21
177.692758
 31
0.0
 11
-305.433137
 21
180.819220
 31
0.0
  0
LINE
  5
132
100
AcDbEntity
  8
Layer_1
 62
7
100
AcDbLine
 10
-305.433137
 20
224.663707
 30
0.0
 11
-305.433137
 21
224.663707
 31
0.0
  0
SPLINE
  5
133
100
AcDbEntity
  8
Layer_1
 62
7
100
AcDbSpline
 70
0
 71
3
 72
10
 73
6
 74
4
 40
0.000000
 40
0.000000
 40
0.000000
 40
0.000000
 40
14.614829
 40
29.229658
 40
43.844487
 40
43.844487
 40
43.844487
 40
43.844487
 10
-305.433137
 20
180.819220
 30
0.0
 10
-305.433137
 20
185.690830
 30
0.0
 10
-305.433137
 20
195.434049
 30
0.0
 10
-305.433137
 20
210.048878
 30
0.0
 10
-305.433137
 20
219.792097
 30
0.0
 10
-305.433137
 20
224.663707
 30
0.0
 11
-305.433137
 21
180.819220
 31
0.0
 11
-305.433137
 21
195.434049
 31
0.0
 11
-305.433137
 21
210.048878
 31
0.0
 11
-305.433137
 21
224.663707
 31
0.0
  0
SPLINE
  5
134
100
AcDbEntity
  8
Layer_1
 62
7
100
AcDbSpline
 70
0
 71
3
 72
10
 73
6
 74
4
 40
0.000000
 40
0.000000
 40
0.000000
 40
0.000000
 40
1.002971
 40
2.004811
 40
3.007679
 40
3.007679
 40
3.007679
 40
3.007679
 10
-315.431537
 20
224.727306
 30
0.0
 10
-315.101539
 20
224.794838
 30
0.0
 10
-314.441916
 20
224.929826
 30
0.0
 10
-313.423881
 20
224.686618
 30
0.0
 10
-312.899064
 20
224.264371
 30
0.0
 10
-312.636521
 20
224.053139
 30
0.0
 11
-315.431537
 21
224.727306
 31
0.0
 11
-314.436798
 21
224.855543
 31
0.0
 11
-313.462623
 21
224.621733
 31
0.0
 11
-312.636521
 21
224.053139
 31
0.0
  0
SPLINE
  5
135
100
AcDbEntity
  8
Layer_1
 62
7
100
AcDbSpline
 70
0
 71
3
 72
10
 73
6
 74
4
 40
0.000000
 40
0.000000
 40
0.000000
 40
0.000000
 40
1.107140
 40
2.214492
 40
3.321888
 40
3.321888
 40
3.321888
 40
3.321888
 10
-312.636521
 20
224.053139
 30
0.0
 10
-312.406986
 20
223.759616
 30
0.0
 10
-311.947873
 20
223.172514
 30
0.0
 10
-311.743401
 20
222.023324
 30
0.0
 10
-311.972846
 20
221.314040
 30
0.0
 10
-312.087570
 20
220.959391
 30
0.0
 11
-312.636521
 21
224.053139
 31
0.0
 11
-312.028603
 21
223.127831
 31
0.0
 11
-311.834843
 21
222.037563
 31
0.0
 11
-312.087570
 21
220.959391
 31
0.0
  0
SPLINE
  5
136
100
AcDbEntity
  8
Layer_1
 62
7
100
AcDbSpline
 70
0
 71
3
 72
10
 73
6
 74
4
 40
0.000000
 40
0.000000
 40
0.000000
 40
0.000000
 40
1.124632
 40
2.249767
 40
3.374662
 40
3.374662
 40
3.374662
 40
3.374662
 10
-312.087570
 20
220.959391
 30
0.0
 10
-312.287014
 20
220.637518
 30
0.0
 10
-312.685989
 20
219.993630
 30
0.0
 10
-313.717098
 20
219.403841
 30
0.0
 10
-314.474493
 20
219.386631
 30
0.0
 10
-314.853151
 20
219.378026
 30
0.0
 11
-312.087570
 21
220.959391
 31
0.0
 11
-312.757975
 21
220.056420
 31
0.0
 11
-313.734653
 21
219.497826
 31
0.0
 11
-314.853151
 21
219.378026
 31
0.0
  0
SPLINE
  5
137
100
AcDbEntity
  8
Layer_1
 62
7
100
AcDbSpline
 70
0
 71
3
 72
10
 73
6
 74
4
 40
0.000000
 40
0.000000
 40
0.000000
 40
0.000000
 40
1.142282
 40
2.285130
 40
3.427720
 40
3.427720
 40
3.427720
 40
3.427720
 10
-314.853151
 20
219.378026
 30
0.0
 10
-315.228421
 20
219.462896
 30
0.0
 10
-315.979147
 20
219.632679
 30
0.0
 10
-316.881882
 20
220.436296
 30
0.0
 10
-317.137770
 20
221.162283
 30
0.0
 10
-317.265699
 20
221.525235
 30
0.0
 11
-314.853151
 21
219.378026
 31
0.0
 11
-315.941753
 21
219.724081
 31
0.0
 11
-316.795427
 21
220.483910
 31
0.0
 11
-317.265699
 21
221.525235
 31
0.0
  0
SPLINE
  5
138
100
AcDbEntity
  8
Layer_1
 62
7
100
AcDbSpline
 70
0
 71
3
 72
10
 73
6
 74
4
 40
0.000000
 40
0.000000
 40
0.000000
 40
0.000000
 40
1.142270
 40
2.285106
 40
3.427696
 40
3.427696
 40
3.427696
 40
3.427696
 10
-317.265699
 20
221.525235
 30
0.0
 10
-317.300943
 20
221.908360
 30
0.0
 10
-317.371447
 20
222.674801
 30
0.0
 10
-316.886128
 20
223.781678
 30
0.0
 10
-316.274745
 20
224.249374
 30
0.0
 10
-315.969086
 20
224.483198
 30
0.0
 11
-317.265699
 21
221.525235
 31
0.0
 11
-317.272967
 21
222.667482
 31
0.0
 11
-316.814129
 21
223.714163
 31
0.0
 11
-315.969086
 21
224.483198
 31
0.0
  0
LINE
  5
139
100
AcDbEntity
  8
Layer_1
 62
7
100
AcDbLine
 10
-315.431537
 20
224.727306
 30
0.0
 11
-315.431537
 21
224.727306
 31
0.0
  0
SPLINE
  5
13a
100
AcDbEntity
  8
Layer_1
 62
7
100
AcDbSpline
 70
0
 71
3
 72
10
 73
6
 74
4
 40
0.000000
 40
0.000000
 40
0.000000
 40
0.000000
 40
0.197146
 40
0.394287
 40
0.591429
 40
0.591429
 40
0.591429
 40
0.591429
 10
-315.969086
 20
224.483198
 30
0.0
 10
-315.911810
 20
224.515448
 30
0.0
 10
-315.797260
 20
224.579948
 30
0.0
 10
-315.617611
 20
224.661983
 30
0.0
 10
-315.493562
 20
224.705531
 30
0.0
 10
-315.431537
 20
224.727306
 30
0.0
 11
-315.969086
 21
224.483198
 31
0.0
 11
-315.795955
 21
224.577496
 31
0.0
 11
-315.616540
 21
224.659197
 31
0.0
 11
-315.431537
 21
224.727306
 31
0.0
  0
SPLINE
  5
13b
100
AcDbEntity
  8
Layer_1
 62
7
100
AcDbSpline
 70
0
 71
3
 72
10
 73
6
 74
4
 40
0.000000
 40
0.000000
 40
0.000000
 40
0.000000
 40
1.002963
 40
2.004802
 40
3.007673
 40
3.007673
 40
3.007673
 40
3.007673
 10
-203.706544
 20
220.495508
 30
0.0
 10
-203.872745
 20
220.788483
 30
0.0
 10
-204.204960
 20
221.374106
 30
0.0
 10
-204.288244
 20
222.417466
 30
0.0
 10
-204.048849
 20
223.047083
 30
0.0
 10
-203.929090
 20
223.362053
 30
0.0
 11
-203.706544
 21
220.495508
 31
0.0
 11
-204.135893
 21
221.401926
 31
0.0
 11
-204.214564
 21
222.400671
 31
0.0
 11
-203.929090
 21
223.362053
 31
0.0
  0
SPLINE
  5
13c
100
AcDbEntity
  8
Layer_1
 62
7
100
AcDbSpline
 70
0
 71
3
 72
10
 73
6
 74
4
 40
0.000000
 40
0.000000
 40
0.000000
 40
0.000000
 40
1.107139
 40
2.214497
 40
3.321903
 40
3.321903
 40
3.321903
 40
3.321903
 10
-203.929090
 20
223.362053
 30
0.0
 10
-203.720860
 20
223.671054
 30
0.0
 10
-203.304358
 20
224.289118
 30
0.0
 10
-202.274589
 20
224.838692
 30
0.0
 10
-201.529113
 20
224.839660
 30
0.0
 10
-201.156367
 20
224.840144
 30
0.0
 11
-203.929090
 21
223.362053
 31
0.0
 11
-203.236918
 21
224.226144
 31
0.0
 11
-202.259876
 21
224.747328
 31
0.0
 11
-201.156367
 21
224.840144
 31
0.0
  0
SPLINE
  5
13d
100
AcDbEntity
  8
Layer_1
 62
7
100
AcDbSpline
 70
0
 71
3
 72
10
 73
6
 74
4
 40
0.000000
 40
0.000000
 40
0.000000
 40
0.000000
 40
1.124623
 40
2.249760
 40
3.374671
 40
3.374671
 40
3.374671
 40
3.374671
 10
-201.156367
 20
224.840144
 30
0.0
 10
-200.788618
 20
224.749931
 30
0.0
 10
-200.052952
 20
224.569466
 30
0.0
 10
-199.173408
 20
223.771060
 30
0.0
 10
-198.922988
 20
223.056049
 30
0.0
 10
-198.797791
 20
222.698579
 30
0.0
 11
-201.156367
 21
224.840144
 31
0.0
 11
-200.090430
 21
224.481597
 31
0.0
 11
-199.257369
 21
223.725329
 31
0.0
 11
-198.797791
 21
222.698579
 31
0.0
  0
SPLINE
  5
13e
100
AcDbEntity
  8
Layer_1
 62
7
100
AcDbSpline
 70
0
 71
3
 72
10
 73
6
 74
4
 40
0.000000
 40
0.000000
 40
0.000000
 40
0.000000
 40
1.142268
 40
2.285106
 40
3.427689
 40
3.427689
 40
3.427689
 40
3.427689
 10
-198.797791
 20
222.698579
 30
0.0
 10
-198.762544
 20
222.315454
 30
0.0
 10
-198.692033
 20
221.549012
 30
0.0
 10
-199.177371
 20
220.442148
 30
0.0
 10
-199.788742
 20
219.974441
 30
0.0
 10
-200.094393
 20
219.740614
 30
0.0
 11
-198.797791
 21
222.698579
 31
0.0
 11
-198.790518
 21
221.556335
 31
0.0
 11
-199.249366
 21
220.509656
 31
0.0
 11
-200.094393
 21
219.740614
 31
0.0
  0
SPLINE
  5
13f
100
AcDbEntity
  8
Layer_1
 62
7
100
AcDbSpline
 70
0
 71
3
 72
10
 73
6
 74
4
 40
0.000000
 40
0.000000
 40
0.000000
 40
0.000000
 40
1.142275
 40
2.285119
 40
3.427709
 40
3.427709
 40
3.427709
 40
3.427709
 10
-200.094393
 20
219.740614
 30
0.0
 10
-200.447876
 20
219.588699
 30
0.0
 10
-201.155020
 20
219.284792
 30
0.0
 10
-202.357697
 20
219.404331
 30
0.0
 10
-202.991437
 20
219.841258
 30
0.0
 10
-203.308272
 20
220.059697
 30
0.0
 11
-200.094393
 21
219.740614
 31
0.0
 11
-201.178491
 21
219.380719
 31
0.0
 11
-202.315740
 21
219.493666
 31
0.0
 11
-203.308272
 21
220.059697
 31
0.0
  0
LINE
  5
140
100
AcDbEntity
  8
Layer_1
 62
7
100
AcDbLine
 10
-203.706544
 20
220.495508
 30
0.0
 11
-203.706544
 21
220.495508
 31
0.0
  0
SPLINE
  5
141
100
AcDbEntity
  8
Layer_1
 62
7
100
AcDbSpline
 70
0
 71
3
 72
10
 73
6
 74
4
 40
0.000000
 40
0.000000
 40
0.000000
 40
0.000000
 40
0.197147
 40
0.394293
 40
0.591432
 40
0.591432
 40
0.591432
 40
0.591432
 10
-203.308272
 20
220.059697
 30
0.0
 10
-203.356643
 20
220.104204
 30
0.0
 10
-203.453384
 20
220.193218
 30
0.0
 10
-203.586916
 20
220.338728
 30
0.0
 10
-203.666668
 20
220.443248
 30
0.0
 10
-203.706544
 20
220.495508
 30
0.0
 11
-203.308272
 21
220.059697
 31
0.0
 11
-203.451455
 21
220.195217
 31
0.0
 11
-203.584601
 21
220.340608
 31
0.0
 11
-203.706544
 21
220.495508
 31
0.0
  0
SPLINE
  5
142
100
AcDbEntity
  8
Layer_1
 62
7
100
AcDbSpline
 70
0
 71
3
 72
10
 73
6
 74
4
 40
0.000000
 40
0.000000
 40
0.000000
 40
0.000000
 40
1.276508
 40
2.551580
 40
3.827966
 40
3.827966
 40
3.827966
 40
3.827966
 10
-313.950152
 20
201.690606
 30
0.0
 10
-313.559848
 20
201.513272
 30
0.0
 10
-312.779678
 20
201.158804
 30
0.0
 10
-311.913395
 20
200.146795
 30
0.0
 10
-311.688889
 20
199.319410
 30
0.0
 10
-311.576579
 20
198.905505
 30
0.0
 11
-313.950152
 21
201.690606
 31
0.0
 11
-312.829980
 21
201.078489
 31
0.0
 11
-312.001826
 21
200.108970
 31
0.0
 11
-311.576579
 21
198.905505
 31
0.0
  0
SPLINE
  5
143
100
AcDbEntity
  8
Layer_1
 62
7
100
AcDbSpline
 70
0
 71
3
 72
10
 73
6
 74
4
 40
0.000000
 40
0.000000
 40
0.000000
 40
0.000000
 40
1.409077
 40
2.818433
 40
4.227850
 40
4.227850
 40
4.227850
 40
4.227850
 10
-311.576579
 20
198.905505
 30
0.0
 10
-311.559823
 20
198.431567
 30
0.0
 10
-311.526308
 20
197.483598
 30
0.0
 10
-312.175472
 20
196.147368
 30
0.0
 10
-312.942328
 20
195.588690
 30
0.0
 10
-313.325764
 20
195.309345
 30
0.0
 11
-311.576579
 21
198.905505
 31
0.0
 11
-311.642856
 21
197.497987
 31
0.0
 11
-312.258971
 21
196.230436
 31
0.0
 11
-313.325764
 21
195.309345
 31
0.0
  0
SPLINE
  5
144
100
AcDbEntity
  8
Layer_1
 62
7
100
AcDbSpline
 70
0
 71
3
 72
10
 73
6
 74
4
 40
0.000000
 40
0.000000
 40
0.000000
 40
0.000000
 40
1.431366
 40
2.863389
 40
4.295134
 40
4.295134
 40
4.295134
 40
4.295134
 10
-313.325764
 20
195.309345
 30
0.0
 10
-313.771915
 20
195.127119
 30
0.0
 10
-314.664420
 20
194.762583
 30
0.0
 10
-316.167366
 20
194.926681
 30
0.0
 10
-316.960122
 20
195.475580
 30
0.0
 10
-317.356462
 20
195.750004
 30
0.0
 11
-313.325764
 21
195.309345
 31
0.0
 11
-314.691565
 21
194.881096
 31
0.0
 11
-316.115121
 21
195.036585
 31
0.0
 11
-317.356462
 21
195.750004
 31
0.0
  0
SPLINE
  5
145
100
AcDbEntity
  8
Layer_1
 62
7
100
AcDbSpline
 70
0
 71
3
 72
10
 73
6
 74
4
 40
0.000000
 40
0.000000
 40
0.000000
 40
0.000000
 40
1.453782
 40
2.908292
 40
4.362481
 40
4.362481
 40
4.362481
 40
4.362481
 10
-317.356462
 20
195.750004
 30
0.0
 10
-317.679358
 20
196.118125
 30
0.0
 10
-318.325311
 20
196.854553
 30
0.0
 10
-318.653596
 20
198.357310
 30
0.0
 10
-318.373989
 20
199.296244
 30
0.0
 10
-318.234201
 20
199.765659
 30
0.0
 11
-317.356462
 21
195.750004
 31
0.0
 11
-318.218428
 21
196.920685
 31
0.0
 11
-318.528970
 21
198.341658
 31
0.0
 11
-318.234201
 21
199.765659
 31
0.0
  0
SPLINE
  5
146
100
AcDbEntity
  8
Layer_1
 62
7
100
AcDbSpline
 70
0
 71
3
 72
10
 73
6
 74
4
 40
0.000000
 40
0.000000
 40
0.000000
 40
0.000000
 40
1.453813
 40
2.908344
 40
4.362556
 40
4.362556
 40
4.362556
 40
4.362556
 10
-318.234201
 20
199.765659
 30
0.0
 10
-317.983882
 20
200.186522
 30
0.0
 10
-317.483121
 20
201.028456
 30
0.0
 10
-316.155347
 20
201.805096
 30
0.0
 10
-315.175947
 20
201.829302
 30
0.0
 10
-314.686301
 20
201.841403
 30
0.0
 11
-318.234201
 21
199.765659
 31
0.0
 11
-317.387188
 21
200.947244
 31
0.0
 11
-316.131719
 21
201.681721
 31
0.0
 11
-314.686301
 21
201.841403
 31
0.0
  0
LINE
  5
147
100
AcDbEntity
  8
Layer_1
 62
7
100
AcDbLine
 10
-313.950152
 20
201.690606
 30
0.0
 11
-313.950152
 21
201.690606
 31
0.0
  0
SPLINE
  5
148
100
AcDbEntity
  8
Layer_1
 62
7
100
AcDbSpline
 70
0
 71
3
 72
10
 73
6
 74
4
 40
0.000000
 40
0.000000
 40
0.000000
 40
0.000000
 40
0.250932
 40
0.501852
 40
0.752771
 40
0.752771
 40
0.752771
 40
0.752771
 10
-314.686301
 20
201.841403
 30
0.0
 10
-314.603194
 20
201.831760
 30
0.0
 10
-314.436985
 20
201.812475
 30
0.0
 10
-314.190625
 20
201.762544
 30
0.0
 10
-314.030310
 20
201.714586
 30
0.0
 10
-313.950152
 20
201.690606
 30
0.0
 11
-314.686301
 21
201.841403
 31
0.0
 11
-314.437473
 21
201.808974
 31
0.0
 11
-314.191605
 21
201.758876
 31
0.0
 11
-313.950152
 21
201.690606
 31
0.0
  0
SPLINE
  5
149
100
AcDbEntity
  8
Layer_1
 62
7
100
AcDbSpline
 70
0
 71
3
 72
10
 73
6
 74
4
 40
0.000000
 40
0.000000
 40
0.000000
 40
0.000000
 40
1.276487
 40
2.551547
 40
3.827919
 40
3.827919
 40
3.827919
 40
3.827919
 10
-198.200145
 20
200.419139
 30
0.0
 10
-197.988627
 20
200.046260
 30
0.0
 10
-197.565826
 20
199.300918
 30
0.0
 10
-197.459844
 20
197.973020
 30
0.0
 10
-197.764506
 20
197.171689
 30
0.0
 10
-197.916916
 20
196.770818
 30
0.0
 11
-198.200145
 21
200.419139
 31
0.0
 11
-197.653727
 21
199.265516
 31
0.0
 11
-197.553609
 21
197.994393
 31
0.0
 11
-197.916916
 21
196.770818
 31
0.0
  0
SPLINE
  5
14a
100
AcDbEntity
  8
Layer_1
 62
7
100
AcDbSpline
 70
0
 71
3
 72
10
 73
6
 74
4
 40
0.000000
 40
0.000000
 40
0.000000
 40
0.000000
 40
1.409102
 40
2.818486
 40
4.227930
 40
4.227930
 40
4.227930
 40
4.227930
 10
-197.916916
 20
196.770818
 30
0.0
 10
-198.181935
 20
196.377536
 30
0.0
 10
-198.712028
 20
195.590894
 30
0.0
 10
-200.022666
 20
194.891435
 30
0.0
 10
-200.971466
 20
194.890207
 30
0.0
 10
-201.445876
 20
194.889593
 30
0.0
 11
-197.916916
 21
196.770818
 31
0.0
 11
-198.797864
 21
195.671047
 31
0.0
 11
-200.041391
 21
195.007718
 31
0.0
 11
-201.445876
 21
194.889593
 31
0.0
  0
SPLINE
  5
14b
100
AcDbEntity
  8
Layer_1
 62
7
100
AcDbSpline
 70
0
 71
3
 72
10
 73
6
 74
4
 40
0.000000
 40
0.000000
 40
0.000000
 40
0.000000
 40
1.431346
 40
2.863343
 40
4.295056
 40
4.295056
 40
4.295056
 40
4.295056
 10
-201.445876
 20
194.889593
 30
0.0
 10
-201.913923
 20
195.004407
 30
0.0
 10
-202.850230
 20
195.234088
 30
0.0
 10
-203.969659
 20
196.250245
 30
0.0
 10
-204.288359
 20
197.160271
 30
0.0
 10
-204.447693
 20
197.615238
 30
0.0
 11
-201.445876
 21
194.889593
 31
0.0
 11
-202.802531
 21
195.345922
 31
0.0
 11
-203.862793
 21
196.308451
 31
0.0
 11
-204.447693
 21
197.615238
 31
0.0
  0
SPLINE
  5
14c
100
AcDbEntity
  8
Layer_1
 62
7
100
AcDbSpline
 70
0
 71
3
 72
10
 73
6
 74
4
 40
0.000000
 40
0.000000
 40
0.000000
 40
0.000000
 40
1.453792
 40
2.908305
 40
4.362496
 40
4.362496
 40
4.362496
 40
4.362496
 10
-204.447693
 20
197.615238
 30
0.0
 10
-204.492550
 20
198.102850
 30
0.0
 10
-204.582287
 20
199.078316
 30
0.0
 10
-203.964620
 20
200.487061
 30
0.0
 10
-203.186513
 20
201.082322
 30
0.0
 10
-202.797503
 20
201.379919
 30
0.0
 11
-204.447693
 21
197.615238
 31
0.0
 11
-204.456949
 21
199.069001
 31
0.0
 11
-203.872985
 21
200.401140
 31
0.0
 11
-202.797503
 21
201.379919
 31
0.0
  0
SPLINE
  5
14d
100
AcDbEntity
  8
Layer_1
 62
7
100
AcDbSpline
 70
0
 71
3
 72
10
 73
6
 74
4
 40
0.000000
 40
0.000000
 40
0.000000
 40
0.000000
 40
1.453832
 40
2.908389
 40
4.362621
 40
4.362621
 40
4.362621
 40
4.362621
 10
-202.797503
 20
201.379919
 30
0.0
 10
-202.347607
 20
201.573270
 30
0.0
 10
-201.447589
 20
201.960069
 30
0.0
 10
-199.916880
 20
201.807930
 30
0.0
 10
-199.110286
 20
201.251831
 30
0.0
 10
-198.707034
 20
200.973813
 30
0.0
 11
-202.797503
 21
201.379919
 31
0.0
 11
-201.417717
 21
201.837977
 31
0.0
 11
-199.970280
 21
201.694228
 31
0.0
 11
-198.707034
 21
200.973813
 31
0.0
  0
LINE
  5
14e
100
AcDbEntity
  8
Layer_1
 62
7
100
AcDbLine
 10
-198.200145
 20
200.419139
 30
0.0
 11
-198.200145
 21
200.419139
 31
0.0
  0
SPLINE
  5
14f
100
AcDbEntity
  8
Layer_1
 62
7
100
AcDbSpline
 70
0
 71
3
 72
10
 73
6
 74
4
 40
0.000000
 40
0.000000
 40
0.000000
 40
0.000000
 40
0.250916
 40
0.501828
 40
0.752734
 40
0.752734
 40
0.752734
 40
0.752734
 10
-198.707034
 20
200.973813
 30
0.0
 10
-198.645471
 20
200.917166
 30
0.0
 10
-198.522346
 20
200.803874
 30
0.0
 10
-198.352397
 20
200.618678
 30
0.0
 10
-198.250895
 20
200.485651
 30
0.0
 10
-198.200145
 20
200.419139
 30
0.0
 11
-198.707034
 21
200.973813
 31
0.0
 11
-198.524801
 21
200.801330
 31
0.0
 11
-198.355345
 21
200.616286
 31
0.0
 11
-198.200145
 21
200.419139
 31
0.0
  0
SPLINE
  5
150
100
AcDbEntity
  8
Layer_1
 62
7
100
AcDbSpline
 70
0
 71
3
 72
10
 73
6
 74
4
 40
0.000000
 40
0.000000
 40
0.000000
 40
0.000000
 40
1.002970
 40
2.004816
 40
3.007695
 40
3.007695
 40
3.007695
 40
3.007695
 10
-199.256946
 20
176.228320
 30
0.0
 10
-199.090744
 20
175.935342
 30
0.0
 10
-198.758526
 20
175.349715
 30
0.0
 10
-198.675248
 20
174.306347
 30
0.0
 10
-198.914640
 20
173.676725
 30
0.0
 10
-199.034397
 20
173.361752
 30
0.0
 11
-199.256946
 21
176.228320
 31
0.0
 11
-198.827594
 21
175.321895
 31
0.0
 11
-198.748925
 21
174.323142
 31
0.0
 11
-199.034397
 21
173.361752
 31
0.0
  0
SPLINE
  5
151
100
AcDbEntity
  8
Layer_1
 62
7
100
AcDbSpline
 70
0
 71
3
 72
10
 73
6
 74
4
 40
0.000000
 40
0.000000
 40
0.000000
 40
0.000000
 40
1.107136
 40
2.214493
 40
3.321896
 40
3.321896
 40
3.321896
 40
3.321896
 10
-199.034397
 20
173.361752
 30
0.0
 10
-199.242627
 20
173.052751
 30
0.0
 10
-199.659129
 20
172.434688
 30
0.0
 10
-200.688901
 20
171.885127
 30
0.0
 10
-201.434376
 20
171.884159
 30
0.0
 10
-201.807120
 20
171.883675
 30
0.0
 11
-199.034397
 21
173.361752
 31
0.0
 11
-199.726569
 21
172.497664
 31
0.0
 11
-200.703614
 21
171.976489
 31
0.0
 11
-201.807120
 21
171.883675
 31
0.0
  0
SPLINE
  5
152
100
AcDbEntity
  8
Layer_1
 62
7
100
AcDbSpline
 70
0
 71
3
 72
10
 73
6
 74
4
 40
0.000000
 40
0.000000
 40
0.000000
 40
0.000000
 40
1.124627
 40
2.249765
 40
3.374681
 40
3.374681
 40
3.374681
 40
3.374681
 10
-201.807120
 20
171.883675
 30
0.0
 10
-202.174871
 20
171.973885
 30
0.0
 10
-202.910540
 20
172.154347
 30
0.0
 10
-203.790093
 20
172.952750
 30
0.0
 10
-204.040506
 20
173.667767
 30
0.0
 10
-204.165700
 20
174.025240
 30
0.0
 11
-201.807120
 21
171.883675
 31
0.0
 11
-202.873063
 21
172.242216
 31
0.0
 11
-203.706128
 21
172.998483
 31
0.0
 11
-204.165700
 21
174.025240
 31
0.0
  0
SPLINE
  5
153
100
AcDbEntity
  8
Layer_1
 62
7
100
AcDbSpline
 70
0
 71
3
 72
10
 73
6
 74
4
 40
0.000000
 40
0.000000
 40
0.000000
 40
0.000000
 40
1.142268
 40
2.285105
 40
3.427688
 40
3.427688
 40
3.427688
 40
3.427688
 10
-204.165700
 20
174.025240
 30
0.0
 10
-204.200947
 20
174.408365
 30
0.0
 10
-204.271458
 20
175.174806
 30
0.0
 10
-203.786127
 20
176.281674
 30
0.0
 10
-203.174751
 20
176.749375
 30
0.0
 10
-202.869097
 20
176.983199
 30
0.0
 11
-204.165700
 21
174.025240
 31
0.0
 11
-204.172974
 21
175.167485
 31
0.0
 11
-203.714130
 21
176.214165
 31
0.0
 11
-202.869097
 21
176.983199
 31
0.0
  0
SPLINE
  5
154
100
AcDbEntity
  8
Layer_1
 62
7
100
AcDbSpline
 70
0
 71
3
 72
10
 73
6
 74
4
 40
0.000000
 40
0.000000
 40
0.000000
 40
0.000000
 40
1.142272
 40
2.285113
 40
3.427699
 40
3.427699
 40
3.427699
 40
3.427699
 10
-202.869097
 20
176.983199
 30
0.0
 10
-202.515613
 20
177.135111
 30
0.0
 10
-201.808470
 20
177.439011
 30
0.0
 10
-200.605798
 20
177.319477
 30
0.0
 10
-199.972055
 20
176.882559
 30
0.0
 10
-199.655218
 20
176.664125
 30
0.0
 11
-202.869097
 21
176.983199
 31
0.0
 11
-201.785000
 21
177.343086
 31
0.0
 11
-200.647753
 21
177.230143
 31
0.0
 11
-199.655218
 21
176.664125
 31
0.0
  0
LINE
  5
155
100
AcDbEntity
  8
Layer_1
 62
7
100
AcDbLine
 10
-199.256946
 20
176.228320
 30
0.0
 11
-199.256946
 21
176.228320
 31
0.0
  0
SPLINE
  5
156
100
AcDbEntity
  8
Layer_1
 62
7
100
AcDbSpline
 70
0
 71
3
 72
10
 73
6
 74
4
 40
0.000000
 40
0.000000
 40
0.000000
 40
0.000000
 40
0.197146
 40
0.394290
 40
0.591428
 40
0.591428
 40
0.591428
 40
0.591428
 10
-199.655218
 20
176.664125
 30
0.0
 10
-199.606847
 20
176.619618
 30
0.0
 10
-199.510106
 20
176.530605
 30
0.0
 10
-199.376573
 20
176.385098
 30
0.0
 10
-199.296822
 20
176.280579
 30
0.0
 10
-199.256946
 20
176.228320
 30
0.0
 11
-199.655218
 21
176.664125
 31
0.0
 11
-199.512035
 21
176.528606
 31
0.0
 11
-199.378890
 21
176.383218
 31
0.0
 11
-199.256946
 21
176.228320
 31
0.0
  0
SPLINE
  5
157
100
AcDbEntity
  8
Layer_1
 62
7
100
AcDbSpline
 70
0
 71
3
 72
10
 73
6
 74
4
 40
0.000000
 40
0.000000
 40
0.000000
 40
0.000000
 40
1.002956
 40
2.004793
 40
3.007661
 40
3.007661
 40
3.007661
 40
3.007661
 10
-313.731938
 20
177.227302
 30
0.0
 10
-313.425275
 20
177.087969
 30
0.0
 10
-312.812291
 20
176.809460
 30
0.0
 10
-312.131642
 20
176.014323
 30
0.0
 10
-311.955235
 20
175.364243
 30
0.0
 10
-311.866986
 20
175.039035
 30
0.0
 11
-313.731938
 21
177.227302
 31
0.0
 11
-312.851816
 21
176.746359
 31
0.0
 11
-312.201121
 21
175.984602
 31
0.0
 11
-311.866986
 21
175.039035
 31
0.0
  0
SPLINE
  5
158
100
AcDbEntity
  8
Layer_1
 62
7
100
AcDbSpline
 70
0
 71
3
 72
10
 73
6
 74
4
 40
0.000000
 40
0.000000
 40
0.000000
 40
0.000000
 40
1.107138
 40
2.214496
 40
3.321898
 40
3.321898
 40
3.321898
 40
3.321898
 10
-311.866986
 20
175.039035
 30
0.0
 10
-311.853820
 20
174.666654
 30
0.0
 10
-311.827487
 20
173.921817
 30
0.0
 10
-312.337549
 20
172.871918
 30
0.0
 10
-312.940080
 20
172.432953
 30
0.0
 10
-313.241351
 20
172.213466
 30
0.0
 11
-311.866986
 21
175.039035
 31
0.0
 11
-311.919061
 21
173.933123
 31
0.0
 11
-312.403156
 21
172.937184
 31
0.0
 11
-313.241351
 21
172.213466
 31
0.0
  0
SPLINE
  5
159
100
AcDbEntity
  8
Layer_1
 62
7
100
AcDbSpline
 70
0
 71
3
 72
10
 73
6
 74
4
 40
0.000000
 40
0.000000
 40
0.000000
 40
0.000000
 40
1.124630
 40
2.249775
 40
3.374685
 40
3.374685
 40
3.374685
 40
3.374685
 10
-313.241351
 20
172.213466
 30
0.0
 10
-313.591895
 20
172.070293
 30
0.0
 10
-314.293143
 20
171.783882
 30
0.0
 10
-315.474003
 20
171.912821
 30
0.0
 10
-316.096876
 20
172.344079
 30
0.0
 10
-316.408280
 20
172.559685
 30
0.0
 11
-313.241351
 21
172.213466
 31
0.0
 11
-314.314469
 21
171.876998
 31
0.0
 11
-315.432962
 21
171.999170
 31
0.0
 11
-316.408280
 21
172.559685
 31
0.0
  0
SPLINE
  5
15a
100
AcDbEntity
  8
Layer_1
 62
7
100
AcDbSpline
 70
0
 71
3
 72
10
 73
6
 74
4
 40
0.000000
 40
0.000000
 40
0.000000
 40
0.000000
 40
1.142271
 40
2.285115
 40
3.427705
 40
3.427705
 40
3.427705
 40
3.427705
 10
-316.408280
 20
172.559685
 30
0.0
 10
-316.661990
 20
172.848925
 30
0.0
 10
-317.169537
 20
173.427549
 30
0.0
 10
-317.427481
 20
174.608302
 30
0.0
 10
-317.207783
 20
175.346043
 30
0.0
 10
-317.097946
 20
175.714873
 30
0.0
 11
-316.408280
 21
172.559685
 31
0.0
 11
-317.085556
 21
173.479512
 31
0.0
 11
-317.329558
 21
174.596004
 31
0.0
 11
-317.097946
 21
175.714873
 31
0.0
  0
SPLINE
  5
15b
100
AcDbEntity
  8
Layer_1
 62
7
100
AcDbSpline
 70
0
 71
3
 72
10
 73
6
 74
4
 40
0.000000
 40
0.000000
 40
0.000000
 40
0.000000
 40
1.142267
 40
2.285105
 40
3.427685
 40
3.427685
 40
3.427685
 40
3.427685
 10
-317.097946
 20
175.714873
 30
0.0
 10
-316.901268
 20
176.045547
 30
0.0
 10
-316.507814
 20
176.707061
 30
0.0
 10
-315.464559
 20
177.317241
 30
0.0
 10
-314.695040
 20
177.336267
 30
0.0
 10
-314.310324
 20
177.345779
 30
0.0
 11
-317.097946
 21
175.714873
 31
0.0
 11
-316.432439
 21
176.643245
 31
0.0
 11
-315.445995
 21
177.220312
 31
0.0
 11
-314.310324
 21
177.345779
 31
0.0
  0
LINE
  5
15c
100
AcDbEntity
  8
Layer_1
 62
7
100
AcDbLine
 10
-313.731938
 20
177.227302
 30
0.0
 11
-313.731938
 21
177.227302
 31
0.0
  0
SPLINE
  5
15d
100
AcDbEntity
  8
Layer_1
 62
7
100
AcDbSpline
 70
0
 71
3
 72
10
 73
6
 74
4
 40
0.000000
 40
0.000000
 40
0.000000
 40
0.000000
 40
0.197155
 40
0.394301
 40
0.591446
 40
0.591446
 40
0.591446
 40
0.591446
 10
-314.310324
 20
177.345779
 30
0.0
 10
-314.245028
 20
177.338206
 30
0.0
 10
-314.114438
 20
177.323060
 30
0.0
 10
-313.920876
 20
177.283823
 30
0.0
 10
-313.794917
 20
177.246142
 30
0.0
 10
-313.731938
 20
177.227302
 30
0.0
 11
-314.310324
 21
177.345779
 31
0.0
 11
-314.114822
 21
177.320306
 31
0.0
 11
-313.921646
 21
177.280942
 31
0.0
 11
-313.731938
 21
177.227302
 31
0.0
  0
SPLINE
  5
15e
100
AcDbEntity
  8
Layer_1
 62
7
100
AcDbSpline
 70
0
 71
3
 72
10
 73
6
 74
4
 40
0.000000
 40
0.000000
 40
0.000000
 40
0.000000
 40
1.276507
 40
2.551584
 40
3.827974
 40
3.827974
 40
3.827974
 40
3.827974
 10
-255.200184
 20
152.419207
 30
0.0
 10
-254.988656
 20
152.046325
 30
0.0
 10
-254.565838
 20
151.300980
 30
0.0
 10
-254.459838
 20
149.973058
 30
0.0
 10
-254.764526
 20
149.171723
 30
0.0
 10
-254.916948
 20
148.770849
 30
0.0
 11
-255.200184
 21
152.419207
 31
0.0
 11
-254.653740
 21
151.265574
 31
0.0
 11
-254.553613
 21
149.994434
 31
0.0
 11
-254.916948
 21
148.770849
 31
0.0
  0
SPLINE
  5
15f
100
AcDbEntity
  8
Layer_1
 62
7
100
AcDbSpline
 70
0
 71
3
 72
10
 73
6
 74
4
 40
0.000000
 40
0.000000
 40
0.000000
 40
0.000000
 40
1.409098
 40
2.818472
 40
4.227905
 40
4.227905
 40
4.227905
 40
4.227905
 10
-254.916948
 20
148.770849
 30
0.0
 10
-255.181968
 20
148.377571
 30
0.0
 10
-255.712059
 20
147.590938
 30
0.0
 10
-257.022656
 20
146.891423
 30
0.0
 10
-257.971452
 20
146.890192
 30
0.0
 10
-258.445861
 20
146.889576
 30
0.0
 11
-254.916948
 21
148.770849
 31
0.0
 11
-255.797890
 21
147.671078
 31
0.0
 11
-257.041387
 21
147.007714
 31
0.0
 11
-258.445861
 21
146.889576
 31
0.0
  0
SPLINE
  5
160
100
AcDbEntity
  8
Layer_1
 62
7
100
AcDbSpline
 70
0
 71
3
 72
10
 73
6
 74
4
 40
0.000000
 40
0.000000
 40
0.000000
 40
0.000000
 40
1.431343
 40
2.863344
 40
4.295058
 40
4.295058
 40
4.295058
 40
4.295058
 10
-258.445861
 20
146.889576
 30
0.0
 10
-258.913905
 20
147.004400
 30
0.0
 10
-259.850209
 20
147.234101
 30
0.0
 10
-260.969605
 20
148.250283
 30
0.0
 10
-261.288333
 20
149.160297
 30
0.0
 10
-261.447681
 20
149.615258
 30
0.0
 11
-258.445861
 21
146.889576
 31
0.0
 11
-259.802504
 21
147.345933
 31
0.0
 11
-260.862752
 21
148.308482
 31
0.0
 11
-261.447681
 21
149.615258
 31
0.0
  0
SPLINE
  5
161
100
AcDbEntity
  8
Layer_1
 62
7
100
AcDbSpline
 70
0
 71
3
 72
10
 73
6
 74
4
 40
0.000000
 40
0.000000
 40
0.000000
 40
0.000000
 40
1.453803
 40
2.908330
 40
4.362531
 40
4.362531
 40
4.362531
 40
4.362531
 10
-261.447681
 20
149.615258
 30
0.0
 10
-261.492542
 20
150.102874
 30
0.0
 10
-261.582286
 20
151.078348
 30
0.0
 10
-260.964604
 20
152.487104
 30
0.0
 10
-260.186479
 20
153.082355
 30
0.0
 10
-259.797460
 20
153.379947
 30
0.0
 11
-261.447681
 21
149.615258
 31
0.0
 11
-261.456944
 21
151.069032
 31
0.0
 11
-260.872967
 21
152.401180
 31
0.0
 11
-259.797460
 21
153.379947
 31
0.0
  0
SPLINE
  5
162
100
AcDbEntity
  8
Layer_1
 62
7
100
AcDbSpline
 70
0
 71
3
 72
10
 73
6
 74
4
 40
0.000000
 40
0.000000
 40
0.000000
 40
0.000000
 40
1.453794
 40
2.908314
 40
4.362510
 40
4.362510
 40
4.362510
 40
4.362510
 10
-259.797460
 20
153.379947
 30
0.0
 10
-259.347572
 20
153.573287
 30
0.0
 10
-258.447573
 20
153.960062
 30
0.0
 10
-256.916909
 20
153.807928
 30
0.0
 10
-256.110323
 20
153.251863
 30
0.0
 10
-255.707075
 20
152.973861
 30
0.0
 11
-259.797460
 21
153.379947
 31
0.0
 11
-258.417704
 21
153.837977
 31
0.0
 11
-256.970305
 21
153.694235
 31
0.0
 11
-255.707075
 21
152.973861
 31
0.0
  0
LINE
  5
163
100
AcDbEntity
  8
Layer_1
 62
7
100
AcDbLine
 10
-255.200184
 20
152.419207
 30
0.0
 11
-255.200184
 21
152.419207
 31
0.0
  0
SPLINE
  5
164
100
AcDbEntity
  8
Layer_1
 62
7
100
AcDbSpline
 70
0
 71
3
 72
10
 73
6
 74
4
 40
0.000000
 40
0.000000
 40
0.000000
 40
0.000000
 40
0.250911
 40
0.501820
 40
0.752721
 40
0.752721
 40
0.752721
 40
0.752721
 10
-255.707075
 20
152.973861
 30
0.0
 10
-255.645512
 20
152.917217
 30
0.0
 10
-255.522386
 20
152.803930
 30
0.0
 10
-255.352436
 20
152.618741
 30
0.0
 10
-255.250934
 20
152.485717
 30
0.0
 10
-255.200184
 20
152.419207
 30
0.0
 11
-255.707075
 21
152.973861
 31
0.0
 11
-255.524842
 21
152.801386
 31
0.0
 11
-255.355384
 21
152.616348
 31
0.0
 11
-255.200184
 21
152.419207
 31
0.0
  0
SPLINE
  5
165
100
AcDbEntity
  8
Layer_1
 62
7
100
AcDbSpline
 70
0
 71
3
 72
10
 73
6
 74
4
 40
0.000000
 40
0.000000
 40
0.000000
 40
0.000000
 40
1.276543
 40
2.551652
 40
3.828078
 40
3.828078
 40
3.828078
 40
3.828078
 10
-226.700145
 20
148.304717
 30
0.0
 10
-226.989408
 20
147.988297
 30
0.0
 10
-227.567611
 20
147.355812
 30
0.0
 10
-228.797812
 20
146.844612
 30
0.0
 10
-229.654104
 20
146.886765
 30
0.0
 10
-230.082471
 20
146.907852
 30
0.0
 11
-226.700145
 21
148.304717
 31
0.0
 11
-227.628454
 21
147.428473
 31
0.0
 11
-228.806460
 21
146.940410
 31
0.0
 11
-230.082471
 21
146.907852
 31
0.0
  0
SPLINE
  5
166
100
AcDbEntity
  8
Layer_1
 62
7
100
AcDbSpline
 70
0
 71
3
 72
10
 73
6
 74
4
 40
0.000000
 40
0.000000
 40
0.000000
 40
0.000000
 40
1.409089
 40
2.818463
 40
4.227893
 40
4.227893
 40
4.227893
 40
4.227893
 10
-230.082471
 20
146.907852
 30
0.0
 10
-230.538393
 20
147.038379
 30
0.0
 10
-231.450328
 20
147.299460
 30
0.0
 10
-232.520537
 20
148.329808
 30
0.0
 10
-232.814897
 20
149.231783
 30
0.0
 10
-232.962080
 20
149.682780
 30
0.0
 11
-230.082471
 21
146.907852
 31
0.0
 11
-231.400622
 21
147.405858
 31
0.0
 11
-232.415736
 21
148.383549
 31
0.0
 11
-232.962080
 21
149.682780
 31
0.0
  0
SPLINE
  5
167
100
AcDbEntity
  8
Layer_1
 62
7
100
AcDbSpline
 70
0
 71
3
 72
10
 73
6
 74
4
 40
0.000000
 40
0.000000
 40
0.000000
 40
0.000000
 40
1.431341
 40
2.863330
 40
4.295035
 40
4.295035
 40
4.295035
 40
4.295035
 10
-232.962080
 20
149.682780
 30
0.0
 10
-232.997517
 20
150.163395
 30
0.0
 10
-233.068407
 20
151.124844
 30
0.0
 10
-232.447965
 20
152.503512
 30
0.0
 10
-231.680965
 20
153.087825
 30
0.0
 10
-231.297503
 20
153.379953
 30
0.0
 11
-232.962080
 21
149.682780
 31
0.0
 11
-232.947317
 21
151.114045
 31
0.0
 11
-232.359576
 21
152.419860
 31
0.0
 11
-231.297503
 21
153.379953
 31
0.0
  0
SPLINE
  5
168
100
AcDbEntity
  8
Layer_1
 62
7
100
AcDbSpline
 70
0
 71
3
 72
10
 73
6
 74
4
 40
0.000000
 40
0.000000
 40
0.000000
 40
0.000000
 40
1.453821
 40
2.908370
 40
4.362591
 40
4.362591
 40
4.362591
 40
4.362591
 10
-231.297503
 20
153.379953
 30
0.0
 10
-230.847605
 20
153.573291
 30
0.0
 10
-229.947585
 20
153.960063
 30
0.0
 10
-228.416894
 20
153.807939
 30
0.0
 10
-227.610290
 20
153.251868
 30
0.0
 10
-227.207033
 20
152.973864
 30
0.0
 11
-231.297503
 21
153.379953
 31
0.0
 11
-229.917717
 21
153.837981
 31
0.0
 11
-228.470289
 21
153.694242
 31
0.0
 11
-227.207033
 21
152.973864
 31
0.0
  0
SPLINE
  5
169
100
AcDbEntity
  8
Layer_1
 62
7
100
AcDbSpline
 70
0
 71
3
 72
10
 73
6
 74
4
 40
0.000000
 40
0.000000
 40
0.000000
 40
0.000000
 40
1.453789
 40
2.908311
 40
4.362505
 40
4.362505
 40
4.362505
 40
4.362505
 10
-227.207033
 20
152.973864
 30
0.0
 10
-226.884131
 20
152.605742
 30
0.0
 10
-226.238165
 20
151.869315
 30
0.0
 10
-225.909898
 20
150.366545
 30
0.0
 10
-226.189498
 20
149.427605
 30
0.0
 10
-226.329282
 20
148.958188
 30
0.0
 11
-227.207033
 21
152.973864
 31
0.0
 11
-226.345055
 21
151.803181
 31
0.0
 11
-226.034520
 21
150.382195
 31
0.0
 11
-226.329282
 21
148.958188
 31
0.0
  0
LINE
  5
16a
100
AcDbEntity
  8
Layer_1
 62
7
100
AcDbLine
 10
-226.700145
 20
148.304717
 30
0.0
 11
-226.700145
 21
148.304717
 31
0.0
  0
SPLINE
  5
16b
100
AcDbEntity
  8
Layer_1
 62
7
100
AcDbSpline
 70
0
 71
3
 72
10
 73
6
 74
4
 40
0.000000
 40
0.000000
 40
0.000000
 40
0.000000
 40
0.250908
 40
0.501814
 40
0.752711
 40
0.752711
 40
0.752711
 40
0.752711
 10
-226.329282
 20
148.958188
 30
0.0
 10
-226.364129
 20
148.882135
 30
0.0
 10
-226.433822
 20
148.730030
 30
0.0
 10
-226.557428
 20
148.511174
 30
0.0
 10
-226.652573
 20
148.373535
 30
0.0
 10
-226.700145
 20
148.304717
 30
0.0
 11
-226.329282
 21
148.958188
 31
0.0
 11
-226.437000
 21
148.731579
 31
0.0
 11
-226.560615
 21
148.513238
 31
0.0
 11
-226.700145
 21
148.304717
 31
0.0
  0
SPLINE
  5
16c
100
AcDbEntity
  8
Layer_1
 62
7
100
AcDbSpline
 70
0
 71
3
 72
10
 73
6
 74
4
 40
0.000000
 40
0.000000
 40
0.000000
 40
0.000000
 40
1.276542
 40
2.551651
 40
3.828078
 40
3.828078
 40
3.828078
 40
3.828078
 10
-198.200145
 20
148.304717
 30
0.0
 10
-198.489409
 20
147.988297
 30
0.0
 10
-199.067610
 20
147.355811
 30
0.0
 10
-200.297812
 20
146.844612
 30
0.0
 10
-201.154104
 20
146.886765
 30
0.0
 10
-201.582472
 20
146.907852
 30
0.0
 11
-198.200145
 21
148.304717
 31
0.0
 11
-199.128454
 21
147.428473
 31
0.0
 11
-200.306460
 21
146.940410
 31
0.0
 11
-201.582472
 21
146.907852
 31
0.0
  0
SPLINE
  5
16d
100
AcDbEntity
  8
Layer_1
 62
7
100
AcDbSpline
 70
0
 71
3
 72
10
 73
6
 74
4
 40
0.000000
 40
0.000000
 40
0.000000
 40
0.000000
 40
1.409088
 40
2.818462
 40
4.227892
 40
4.227892
 40
4.227892
 40
4.227892
 10
-201.582472
 20
146.907852
 30
0.0
 10
-202.038393
 20
147.038380
 30
0.0
 10
-202.950328
 20
147.299461
 30
0.0
 10
-204.020536
 20
148.329810
 30
0.0
 10
-204.314897
 20
149.231784
 30
0.0
 10
-204.462081
 20
149.682780
 30
0.0
 11
-201.582472
 21
146.907852
 31
0.0
 11
-202.900622
 21
147.405859
 31
0.0
 11
-203.915735
 21
148.383550
 31
0.0
 11
-204.462081
 21
149.682780
 31
0.0
  0
SPLINE
  5
16e
100
AcDbEntity
  8
Layer_1
 62
7
100
AcDbSpline
 70
0
 71
3
 72
10
 73
6
 74
4
 40
0.000000
 40
0.000000
 40
0.000000
 40
0.000000
 40
1.431340
 40
2.863330
 40
4.295034
 40
4.295034
 40
4.295034
 40
4.295034
 10
-204.462081
 20
149.682780
 30
0.0
 10
-204.497518
 20
150.163395
 30
0.0
 10
-204.568408
 20
151.124844
 30
0.0
 10
-203.947963
 20
152.503510
 30
0.0
 10
-203.180964
 20
153.087825
 30
0.0
 10
-202.797503
 20
153.379953
 30
0.0
 11
-204.462081
 21
149.682780
 31
0.0
 11
-204.447318
 21
151.114044
 31
0.0
 11
-203.859574
 21
152.419859
 31
0.0
 11
-202.797503
 21
153.379953
 31
0.0
  0
SPLINE
  5
16f
100
AcDbEntity
  8
Layer_1
 62
7
100
AcDbSpline
 70
0
 71
3
 72
10
 73
6
 74
4
 40
0.000000
 40
0.000000
 40
0.000000
 40
0.000000
 40
1.453821
 40
2.908370
 40
4.362591
 40
4.362591
 40
4.362591
 40
4.362591
 10
-202.797503
 20
153.379953
 30
0.0
 10
-202.347606
 20
153.573291
 30
0.0
 10
-201.447586
 20
153.960063
 30
0.0
 10
-199.916895
 20
153.807939
 30
0.0
 10
-199.110290
 20
153.251868
 30
0.0
 10
-198.707034
 20
152.973864
 30
0.0
 11
-202.797503
 21
153.379953
 31
0.0
 11
-201.417718
 21
153.837981
 31
0.0
 11
-199.970289
 21
153.694242
 31
0.0
 11
-198.707034
 21
152.973864
 31
0.0
  0
SPLINE
  5
170
100
AcDbEntity
  8
Layer_1
 62
7
100
AcDbSpline
 70
0
 71
3
 72
10
 73
6
 74
4
 40
0.000000
 40
0.000000
 40
0.000000
 40
0.000000
 40
1.453789
 40
2.908311
 40
4.362505
 40
4.362505
 40
4.362505
 40
4.362505
 10
-198.707034
 20
152.973864
 30
0.0
 10
-198.384132
 20
152.605742
 30
0.0
 10
-197.738166
 20
151.869315
 30
0.0
 10
-197.409899
 20
150.366545
 30
0.0
 10
-197.689499
 20
149.427605
 30
0.0
 10
-197.829283
 20
148.958188
 30
0.0
 11
-198.707034
 21
152.973864
 31
0.0
 11
-197.845056
 21
151.803181
 31
0.0
 11
-197.534520
 21
150.382195
 31
0.0
 11
-197.829283
 21
148.958188
 31
0.0
  0
LINE
  5
171
100
AcDbEntity
  8
Layer_1
 62
7
100
AcDbLine
 10
-198.200145
 20
148.304717
 30
0.0
 11
-198.200145
 21
148.304717
 31
0.0
  0
SPLINE
  5
172
100
AcDbEntity
  8
Layer_1
 62
7
100
AcDbSpline
 70
0
 71
3
 72
10
 73
6
 74
4
 40
0.000000
 40
0.000000
 40
0.000000
 40
0.000000
 40
0.250908
 40
0.501814
 40
0.752711
 40
0.752711
 40
0.752711
 40
0.752711
 10
-197.829283
 20
148.958188
 30
0.0
 10
-197.864130
 20
148.882135
 30
0.0
 10
-197.933823
 20
148.730030
 30
0.0
 10
-198.057428
 20
148.511174
 30
0.0
 10
-198.152574
 20
148.373535
 30
0.0
 10
-198.200145
 20
148.304717
 30
0.0
 11
-197.829283
 21
148.958188
 31
0.0
 11
-197.937001
 21
148.731579
 31
0.0
 11
-198.060615
 21
148.513238
 31
0.0
 11
-198.200145
 21
148.304717
 31
0.0
  0
SPLINE
  5
173
100
AcDbEntity
  8
Layer_1
 62
7
100
AcDbSpline
 70
0
 71
3
 72
10
 73
6
 74
4
 40
0.000000
 40
0.000000
 40
0.000000
 40
0.000000
 40
1.276528
 40
2.551626
 40
3.828046
 40
3.828046
 40
3.828046
 40
3.828046
 10
-287.613344
 20
153.690618
 30
0.0
 10
-287.193340
 20
153.776568
 30
0.0
 10
-286.353803
 20
153.948372
 30
0.0
 10
-285.058094
 20
153.638849
 30
0.0
 10
-284.390102
 20
153.101460
 30
0.0
 10
-284.055933
 20
152.832625
 30
0.0
 11
-287.613344
 21
153.690618
 31
0.0
 11
-286.347293
 21
153.853833
 31
0.0
 11
-285.107401
 21
153.556271
 31
0.0
 11
-284.055933
 21
152.832625
 31
0.0
  0
SPLINE
  5
174
100
AcDbEntity
  8
Layer_1
 62
7
100
AcDbSpline
 70
0
 71
3
 72
10
 73
6
 74
4
 40
0.000000
 40
0.000000
 40
0.000000
 40
0.000000
 40
1.409070
 40
2.818430
 40
4.227845
 40
4.227845
 40
4.227845
 40
4.227845
 10
-284.055933
 20
152.832625
 30
0.0
 10
-283.763809
 20
152.459048
 30
0.0
 10
-283.179501
 20
151.711816
 30
0.0
 10
-282.919329
 20
150.249211
 30
0.0
 10
-283.211321
 20
149.346480
 30
0.0
 10
-283.357320
 20
148.895106
 30
0.0
 11
-284.055933
 21
152.832625
 31
0.0
 11
-283.282257
 21
151.654956
 31
0.0
 11
-283.035691
 21
150.267332
 31
0.0
 11
-283.357320
 21
148.895106
 31
0.0
  0
SPLINE
  5
175
100
AcDbEntity
  8
Layer_1
 62
7
100
AcDbSpline
 70
0
 71
3
 72
10
 73
6
 74
4
 40
0.000000
 40
0.000000
 40
0.000000
 40
0.000000
 40
1.431369
 40
2.863391
 40
4.295123
 40
4.295123
 40
4.295123
 40
4.295123
 10
-283.357320
 20
148.895106
 30
0.0
 10
-283.611146
 20
148.485435
 30
0.0
 10
-284.118914
 20
147.665907
 30
0.0
 10
-285.431269
 20
146.915242
 30
0.0
 10
-286.395252
 20
146.893340
 30
0.0
 10
-286.877196
 20
146.882390
 30
0.0
 11
-283.357320
 21
148.895106
 31
0.0
 11
-284.210538
 21
147.745829
 31
0.0
 11
-285.453606
 21
147.034866
 31
0.0
 11
-286.877196
 21
146.882390
 31
0.0
  0
SPLINE
  5
176
100
AcDbEntity
  8
Layer_1
 62
7
100
AcDbSpline
 70
0
 71
3
 72
10
 73
6
 74
4
 40
0.000000
 40
0.000000
 40
0.000000
 40
0.000000
 40
1.453816
 40
2.908357
 40
4.362574
 40
4.362574
 40
4.362574
 40
4.362574
 10
-286.877196
 20
146.882390
 30
0.0
 10
-287.354813
 20
146.990411
 30
0.0
 10
-288.310286
 20
147.206506
 30
0.0
 10
-289.459196
 20
148.229331
 30
0.0
 10
-289.784870
 20
149.153319
 30
0.0
 10
-289.947689
 20
149.615261
 30
0.0
 11
-286.877196
 21
146.882390
 31
0.0
 11
-288.262686
 21
147.322840
 31
0.0
 11
-289.349165
 21
148.289925
 31
0.0
 11
-289.947689
 21
149.615261
 31
0.0
  0
SPLINE
  5
177
100
AcDbEntity
  8
Layer_1
 62
7
100
AcDbSpline
 70
0
 71
3
 72
10
 73
6
 74
4
 40
0.000000
 40
0.000000
 40
0.000000
 40
0.000000
 40
1.453801
 40
2.908319
 40
4.362508
 40
4.362508
 40
4.362508
 40
4.362508
 10
-289.947689
 20
149.615261
 30
0.0
 10
-289.992543
 20
150.102875
 30
0.0
 10
-290.082275
 20
151.078342
 30
0.0
 10
-289.464648
 20
152.487111
 30
0.0
 10
-288.686525
 20
153.082360
 30
0.0
 10
-288.297507
 20
153.379950
 30
0.0
 11
-289.947689
 21
149.615261
 31
0.0
 11
-289.956945
 21
151.069032
 31
0.0
 11
-289.373001
 21
152.401185
 31
0.0
 11
-288.297507
 21
153.379950
 31
0.0
  0
LINE
  5
178
100
AcDbEntity
  8
Layer_1
 62
7
100
AcDbLine
 10
-287.613344
 20
153.690618
 30
0.0
 11
-287.613344
 21
153.690618
 31
0.0
  0
SPLINE
  5
179
100
AcDbEntity
  8
Layer_1
 62
7
100
AcDbSpline
 70
0
 71
3
 72
10
 73
6
 74
4
 40
0.000000
 40
0.000000
 40
0.000000
 40
0.000000
 40
0.250921
 40
0.501831
 40
0.752730
 40
0.752730
 40
0.752730
 40
0.752730
 10
-288.297507
 20
153.379950
 30
0.0
 10
-288.224606
 20
153.420993
 30
0.0
 10
-288.078808
 20
153.503078
 30
0.0
 10
-287.850161
 20
153.607480
 30
0.0
 10
-287.692282
 20
153.662905
 30
0.0
 10
-287.613344
 20
153.690618
 30
0.0
 11
-288.297507
 21
153.379950
 31
0.0
 11
-288.077146
 21
153.499959
 31
0.0
 11
-287.848795
 21
153.603938
 31
0.0
 11
-287.613344
 21
153.690618
 31
0.0
  0
SPLINE
  5
17a
100
AcDbEntity
  8
Layer_1
 62
7
100
AcDbSpline
 70
0
 71
3
 72
10
 73
6
 74
4
 40
0.000000
 40
0.000000
 40
0.000000
 40
0.000000
 40
1.276503
 40
2.551578
 40
3.827969
 40
3.827969
 40
3.827969
 40
3.827969
 10
-313.950152
 20
153.690618
 30
0.0
 10
-313.559846
 20
153.513292
 30
0.0
 10
-312.779668
 20
153.158840
 30
0.0
 10
-311.913378
 20
152.146830
 30
0.0
 10
-311.688884
 20
151.319439
 30
0.0
 10
-311.576579
 20
150.905530
 30
0.0
 11
-313.950152
 21
153.690618
 31
0.0
 11
-312.829974
 21
153.078524
 31
0.0
 11
-312.001814
 21
152.109004
 31
0.0
 11
-311.576579
 21
150.905530
 31
0.0
  0
SPLINE
  5
17b
100
AcDbEntity
  8
Layer_1
 62
7
100
AcDbSpline
 70
0
 71
3
 72
10
 73
6
 74
4
 40
0.000000
 40
0.000000
 40
0.000000
 40
0.000000
 40
1.409079
 40
2.818438
 40
4.227861
 40
4.227861
 40
4.227861
 40
4.227861
 10
-311.576579
 20
150.905530
 30
0.0
 10
-311.559825
 20
150.431591
 30
0.0
 10
-311.526313
 20
149.483620
 30
0.0
 10
-312.175491
 20
148.147397
 30
0.0
 10
-312.942334
 20
147.588700
 30
0.0
 10
-313.325764
 20
147.309345
 30
0.0
 11
-311.576579
 21
150.905530
 31
0.0
 11
-311.642862
 21
149.498011
 31
0.0
 11
-312.258984
 21
148.230460
 31
0.0
 11
-313.325764
 21
147.309345
 31
0.0
  0
SPLINE
  5
17c
100
AcDbEntity
  8
Layer_1
 62
7
100
AcDbSpline
 70
0
 71
3
 72
10
 73
6
 74
4
 40
0.000000
 40
0.000000
 40
0.000000
 40
0.000000
 40
1.431378
 40
2.863408
 40
4.295161
 40
4.295161
 40
4.295161
 40
4.295161
 10
-313.325764
 20
147.309345
 30
0.0
 10
-313.771916
 20
147.127110
 30
0.0
 10
-314.664422
 20
146.762557
 30
0.0
 10
-316.167384
 20
146.926663
 30
0.0
 10
-316.960128
 20
147.475591
 30
0.0
 10
-317.356462
 20
147.750029
 30
0.0
 11
-313.325764
 21
147.309345
 31
0.0
 11
-314.691571
 21
146.881075
 31
0.0
 11
-316.115133
 21
147.036573
 31
0.0
 11
-317.356462
 21
147.750029
 31
0.0
  0
SPLINE
  5
17d
100
AcDbEntity
  8
Layer_1
 62
7
100
AcDbSpline
 70
0
 71
3
 72
10
 73
6
 74
4
 40
0.000000
 40
0.000000
 40
0.000000
 40
0.000000
 40
1.453785
 40
2.908301
 40
4.362497
 40
4.362497
 40
4.362497
 40
4.362497
 10
-317.356462
 20
147.750029
 30
0.0
 10
-317.679352
 20
148.118156
 30
0.0
 10
-318.325294
 20
148.854596
 30
0.0
 10
-318.653591
 20
150.357352
 30
0.0
 10
-318.373987
 20
151.296291
 30
0.0
 10
-318.234201
 20
151.765710
 30
0.0
 11
-317.356462
 21
147.750029
 31
0.0
 11
-318.218415
 21
148.920724
 31
0.0
 11
-318.528963
 21
150.341701
 31
0.0
 11
-318.234201
 21
151.765710
 31
0.0
  0
SPLINE
  5
17e
100
AcDbEntity
  8
Layer_1
 62
7
100
AcDbSpline
 70
0
 71
3
 72
10
 73
6
 74
4
 40
0.000000
 40
0.000000
 40
0.000000
 40
0.000000
 40
1.453804
 40
2.908331
 40
4.362535
 40
4.362535
 40
4.362535
 40
4.362535
 10
-318.234201
 20
151.765710
 30
0.0
 10
-317.983886
 20
152.186573
 30
0.0
 10
-317.483131
 20
153.028509
 30
0.0
 10
-316.155337
 20
153.805103
 30
0.0
 10
-315.175943
 20
153.829308
 30
0.0
 10
-314.686301
 20
153.841409
 30
0.0
 11
-318.234201
 21
151.765710
 31
0.0
 11
-317.387195
 21
152.947287
 31
0.0
 11
-316.131712
 21
153.681735
 31
0.0
 11
-314.686301
 21
153.841409
 31
0.0
  0
LINE
  5
17f
100
AcDbEntity
  8
Layer_1
 62
7
100
AcDbLine
 10
-313.950152
 20
153.690618
 30
0.0
 11
-313.950152
 21
153.690618
 31
0.0
  0
SPLINE
  5
180
100
AcDbEntity
  8
Layer_1
 62
7
100
AcDbSpline
 70
0
 71
3
 72
10
 73
6
 74
4
 40
0.000000
 40
0.000000
 40
0.000000
 40
0.000000
 40
0.250932
 40
0.501852
 40
0.752770
 40
0.752770
 40
0.752770
 40
0.752770
 10
-314.686301
 20
153.841409
 30
0.0
 10
-314.603194
 20
153.831766
 30
0.0
 10
-314.436985
 20
153.812481
 30
0.0
 10
-314.190625
 20
153.762553
 30
0.0
 10
-314.030310
 20
153.714596
 30
0.0
 10
-313.950152
 20
153.690618
 30
0.0
 11
-314.686301
 21
153.841409
 31
0.0
 11
-314.437473
 21
153.808980
 31
0.0
 11
-314.191605
 21
153.758885
 31
0.0
 11
-313.950152
 21
153.690618
 31
0.0
  0
ENDSEC
  0
SECTION
  2
OBJECTS
  0
DICTIONARY
  5
C
330
0
100
AcDbDictionary
  3
ACAD_GROUP
350
D
  3
ACAD_MLINESTYLE
350
17
  0
DICTIONARY
  5
D
330
C
100
AcDbDictionary
  0
DICTIONARY
  5
1A
330
C
100
AcDbDictionary
  0
DICTIONARY
  5
17
330
C
100
AcDbDictionary
  3
STANDARD
350
18
  0
DICTIONARY
  5
19
330
C
100
AcDbDictionary
  0
ENDSEC
  0
EOF
