  0
SECTION
  2
BLOCKS
  0
ENDSEC
  0
SECTION
  2
ENTITIES
  0
LINE
  8
0
 10
62.5
 20
54
 11
-62.5
 21
54
  0
LINE
  8
0
 10
-62.5
 20
54
 11
-62.5
 21
-54
  0
LINE
  8
0
 10
-62.5
 20
-54
 11
62.5
 21
-54
  0
LINE
  8
0
 10
62.5
 20
-54
 11
62.5
 21
54
  0
LINE
  8
0
 10
-35.9014
 20
-31.3018
 11
-40.9014
 21
-26.3018
  0
LINE
  8
0
 10
-40.9014
 20
-26.3018
 11
-40.9014
 21
26.3018
  0
LINE
  8
0
 10
-40.9014
 20
26.3018
 11
-35.9014
 21
31.3018
  0
LINE
  8
0
 10
-35.9014
 20
31.3018
 11
35.9014
 21
31.3018
  0
LINE
  8
0
 10
35.9014
 20
31.3018
 11
40.9014
 21
26.3018
  0
LINE
  8
0
 10
40.9014
 20
26.3018
 11
40.9014
 21
-26.3018
  0
LINE
  8
0
 10
40.9014
 20
-26.3018
 11
35.9014
 21
-31.3018
  0
LINE
  8
0
 10
35.9014
 20
-31.3018
 11
-35.9014
 21
-31.3018
  0
LINE
  8
0
 10
-56.7227
 20
21.0054
 11
-56.8947
 21
21.0217
  0
LINE
  8
0
 10
-56.8947
 20
21.0217
 11
-57.0653
 21
21.0487
  0
LINE
  8
0
 10
-57.0653
 20
21.0487
 11
-57.2339
 21
21.0864
  0
LINE
  8
0
 10
-57.2339
 20
21.0864
 11
-57.3998
 21
21.1346
  0
LINE
  8
0
 10
-57.3998
 20
21.1346
 11
-57.5623
 21
21.1931
  0
LINE
  8
0
 10
-57.5623
 20
21.1931
 11
-57.7209
 21
21.2617
  0
LINE
  8
0
 10
-57.7209
 20
21.2617
 11
-57.8748
 21
21.3401
  0
LINE
  8
0
 10
-57.8748
 20
21.3401
 11
-58.0235
 21
21.4281
  0
LINE
  8
0
 10
-58.0235
 20
21.4281
 11
-58.1664
 21
21.5252
  0
LINE
  8
0
 10
-58.1664
 20
21.5252
 11
-58.3029
 21
21.6311
  0
LINE
  8
0
 10
-58.3029
 20
21.6311
 11
-58.4325
 21
21.7453
  0
LINE
  8
0
 10
-58.4325
 20
21.7453
 11
-58.5547
 21
21.8675
  0
LINE
  8
0
 10
-58.5547
 20
21.8675
 11
-58.6689
 21
21.9971
  0
LINE
  8
0
 10
-58.6689
 20
21.9971
 11
-58.7748
 21
22.1336
  0
LINE
  8
0
 10
-58.7748
 20
22.1336
 11
-58.8719
 21
22.2765
  0
LINE
  8
0
 10
-58.8719
 20
22.2765
 11
-58.9598
 21
22.4252
  0
LINE
  8
0
 10
-58.9598
 20
22.4252
 11
-59.0383
 21
22.5791
  0
LINE
  8
0
 10
-59.0383
 20
22.5791
 11
-59.1069
 21
22.7377
  0
LINE
  8
0
 10
-59.1069
 20
22.7377
 11
-59.1654
 21
22.9002
  0
LINE
  8
0
 10
-59.1654
 20
22.9002
 11
-59.2136
 21
23.0661
  0
LINE
  8
0
 10
-59.2136
 20
23.0661
 11
-59.2513
 21
23.2347
  0
LINE
  8
0
 10
-59.2513
 20
23.2347
 11
-59.2783
 21
23.4053
  0
LINE
  8
0
 10
-59.2783
 20
23.4053
 11
-59.2946
 21
23.5773
  0
LINE
  8
0
 10
-59.2946
 20
23.5773
 11
-59.3
 21
23.75
  0
LINE
  8
0
 10
-59.3
 20
23.75
 11
-59.2946
 21
23.9227
  0
LINE
  8
0
 10
-59.2946
 20
23.9227
 11
-59.2783
 21
24.0947
  0
LINE
  8
0
 10
-59.2783
 20
24.0947
 11
-59.2513
 21
24.2653
  0
LINE
  8
0
 10
-59.2513
 20
24.2653
 11
-59.2136
 21
24.4339
  0
LINE
  8
0
 10
-59.2136
 20
24.4339
 11
-59.1654
 21
24.5998
  0
LINE
  8
0
 10
-59.1654
 20
24.5998
 11
-59.1069
 21
24.7623
  0
LINE
  8
0
 10
-59.1069
 20
24.7623
 11
-59.0383
 21
24.9209
  0
LINE
  8
0
 10
-59.0383
 20
24.9209
 11
-58.9598
 21
25.0748
  0
LINE
  8
0
 10
-58.9598
 20
25.0748
 11
-58.8719
 21
25.2235
  0
LINE
  8
0
 10
-58.8719
 20
25.2235
 11
-58.7748
 21
25.3664
  0
LINE
  8
0
 10
-58.7748
 20
25.3664
 11
-58.6689
 21
25.5029
  0
LINE
  8
0
 10
-58.6689
 20
25.5029
 11
-58.5547
 21
25.6325
  0
LINE
  8
0
 10
-58.5547
 20
25.6325
 11
-58.4325
 21
25.7547
  0
LINE
  8
0
 10
-58.4325
 20
25.7547
 11
-58.3029
 21
25.8689
  0
LINE
  8
0
 10
-58.3029
 20
25.8689
 11
-58.1664
 21
25.9748
  0
LINE
  8
0
 10
-58.1664
 20
25.9748
 11
-58.0235
 21
26.0719
  0
LINE
  8
0
 10
-58.0235
 20
26.0719
 11
-57.8748
 21
26.1598
  0
LINE
  8
0
 10
-57.8748
 20
26.1598
 11
-57.7209
 21
26.2383
  0
LINE
  8
0
 10
-57.7209
 20
26.2383
 11
-57.5623
 21
26.3069
  0
LINE
  8
0
 10
-57.5623
 20
26.3069
 11
-57.3998
 21
26.3654
  0
LINE
  8
0
 10
-57.3998
 20
26.3654
 11
-57.2339
 21
26.4136
  0
LINE
  8
0
 10
-57.2339
 20
26.4136
 11
-57.0653
 21
26.4513
  0
LINE
  8
0
 10
-57.0653
 20
26.4513
 11
-56.8947
 21
26.4783
  0
LINE
  8
0
 10
-56.8947
 20
26.4783
 11
-56.7227
 21
26.4946
  0
LINE
  8
0
 10
-56.7227
 20
26.4946
 11
-56.55
 21
26.5
  0
LINE
  8
0
 10
-56.55
 20
26.5
 11
-56.3773
 21
26.4946
  0
LINE
  8
0
 10
-56.3773
 20
26.4946
 11
-56.2053
 21
26.4783
  0
LINE
  8
0
 10
-56.2053
 20
26.4783
 11
-56.0347
 21
26.4513
  0
LINE
  8
0
 10
-56.0347
 20
26.4513
 11
-55.8661
 21
26.4136
  0
LINE
  8
0
 10
-55.8661
 20
26.4136
 11
-55.7002
 21
26.3654
  0
LINE
  8
0
 10
-55.7002
 20
26.3654
 11
-55.5376
 21
26.3069
  0
LINE
  8
0
 10
-55.5376
 20
26.3069
 11
-55.3791
 21
26.2383
  0
LINE
  8
0
 10
-55.3791
 20
26.2383
 11
-55.2252
 21
26.1598
  0
LINE
  8
0
 10
-55.2252
 20
26.1598
 11
-55.0765
 21
26.0719
  0
LINE
  8
0
 10
-55.0765
 20
26.0719
 11
-54.9336
 21
25.9748
  0
LINE
  8
0
 10
-54.9336
 20
25.9748
 11
-54.7971
 21
25.8689
  0
LINE
  8
0
 10
-54.7971
 20
25.8689
 11
-54.6675
 21
25.7547
  0
LINE
  8
0
 10
-54.6675
 20
25.7547
 11
-54.5453
 21
25.6325
  0
LINE
  8
0
 10
-54.5453
 20
25.6325
 11
-54.4311
 21
25.5029
  0
LINE
  8
0
 10
-54.4311
 20
25.5029
 11
-54.3252
 21
25.3664
  0
LINE
  8
0
 10
-54.3252
 20
25.3664
 11
-54.2281
 21
25.2235
  0
LINE
  8
0
 10
-54.2281
 20
25.2235
 11
-54.1402
 21
25.0748
  0
LINE
  8
0
 10
-54.1402
 20
25.0748
 11
-54.0617
 21
24.9209
  0
LINE
  8
0
 10
-54.0617
 20
24.9209
 11
-53.9931
 21
24.7623
  0
LINE
  8
0
 10
-53.9931
 20
24.7623
 11
-53.9346
 21
24.5998
  0
LINE
  8
0
 10
-53.9346
 20
24.5998
 11
-53.8864
 21
24.4339
  0
LINE
  8
0
 10
-53.8864
 20
24.4339
 11
-53.8487
 21
24.2653
  0
LINE
  8
0
 10
-53.8487
 20
24.2653
 11
-53.8217
 21
24.0947
  0
LINE
  8
0
 10
-53.8217
 20
24.0947
 11
-53.8054
 21
23.9227
  0
LINE
  8
0
 10
-53.8054
 20
23.9227
 11
-53.8
 21
23.75
  0
LINE
  8
0
 10
-53.8
 20
23.75
 11
-53.8054
 21
23.5773
  0
LINE
  8
0
 10
-53.8054
 20
23.5773
 11
-53.8217
 21
23.4053
  0
LINE
  8
0
 10
-53.8217
 20
23.4053
 11
-53.8487
 21
23.2347
  0
LINE
  8
0
 10
-53.8487
 20
23.2347
 11
-53.8864
 21
23.0661
  0
LINE
  8
0
 10
-53.8864
 20
23.0661
 11
-53.9346
 21
22.9002
  0
LINE
  8
0
 10
-53.9346
 20
22.9002
 11
-53.9931
 21
22.7377
  0
LINE
  8
0
 10
-53.9931
 20
22.7377
 11
-54.0617
 21
22.5791
  0
LINE
  8
0
 10
-54.0617
 20
22.5791
 11
-54.1402
 21
22.4252
  0
LINE
  8
0
 10
-54.1402
 20
22.4252
 11
-54.2281
 21
22.2765
  0
LINE
  8
0
 10
-54.2281
 20
22.2765
 11
-54.3252
 21
22.1336
  0
LINE
  8
0
 10
-54.3252
 20
22.1336
 11
-54.4311
 21
21.9971
  0
LINE
  8
0
 10
-54.4311
 20
21.9971
 11
-54.5453
 21
21.8675
  0
LINE
  8
0
 10
-54.5453
 20
21.8675
 11
-54.6675
 21
21.7453
  0
LINE
  8
0
 10
-54.6675
 20
21.7453
 11
-54.7971
 21
21.6311
  0
LINE
  8
0
 10
-54.7971
 20
21.6311
 11
-54.9336
 21
21.5252
  0
LINE
  8
0
 10
-54.9336
 20
21.5252
 11
-55.0765
 21
21.4281
  0
LINE
  8
0
 10
-55.0765
 20
21.4281
 11
-55.2252
 21
21.3401
  0
LINE
  8
0
 10
-55.2252
 20
21.3401
 11
-55.3791
 21
21.2617
  0
LINE
  8
0
 10
-55.3791
 20
21.2617
 11
-55.5376
 21
21.1931
  0
LINE
  8
0
 10
-55.5376
 20
21.1931
 11
-55.7002
 21
21.1346
  0
LINE
  8
0
 10
-55.7002
 20
21.1346
 11
-55.8661
 21
21.0864
  0
LINE
  8
0
 10
-55.8661
 20
21.0864
 11
-56.0347
 21
21.0487
  0
LINE
  8
0
 10
-56.0347
 20
21.0487
 11
-56.2053
 21
21.0217
  0
LINE
  8
0
 10
-56.2053
 20
21.0217
 11
-56.3773
 21
21.0054
  0
LINE
  8
0
 10
-56.3773
 20
21.0054
 11
-56.55
 21
21
  0
LINE
  8
0
 10
-56.55
 20
21
 11
-56.7227
 21
21.0054
  0
LINE
  8
0
 10
56.3773
 20
21.0054
 11
56.2053
 21
21.0217
  0
LINE
  8
0
 10
56.2053
 20
21.0217
 11
56.0347
 21
21.0487
  0
LINE
  8
0
 10
56.0347
 20
21.0487
 11
55.8661
 21
21.0864
  0
LINE
  8
0
 10
55.8661
 20
21.0864
 11
55.7002
 21
21.1346
  0
LINE
  8
0
 10
55.7002
 20
21.1346
 11
55.5376
 21
21.1931
  0
LINE
  8
0
 10
55.5376
 20
21.1931
 11
55.3791
 21
21.2617
  0
LINE
  8
0
 10
55.3791
 20
21.2617
 11
55.2252
 21
21.3401
  0
LINE
  8
0
 10
55.2252
 20
21.3401
 11
55.0765
 21
21.4281
  0
LINE
  8
0
 10
55.0765
 20
21.4281
 11
54.9336
 21
21.5252
  0
LINE
  8
0
 10
54.9336
 20
21.5252
 11
54.7971
 21
21.6311
  0
LINE
  8
0
 10
54.7971
 20
21.6311
 11
54.6675
 21
21.7453
  0
LINE
  8
0
 10
54.6675
 20
21.7453
 11
54.5453
 21
21.8675
  0
LINE
  8
0
 10
54.5453
 20
21.8675
 11
54.4311
 21
21.9971
  0
LINE
  8
0
 10
54.4311
 20
21.9971
 11
54.3252
 21
22.1336
  0
LINE
  8
0
 10
54.3252
 20
22.1336
 11
54.2281
 21
22.2765
  0
LINE
  8
0
 10
54.2281
 20
22.2765
 11
54.1402
 21
22.4252
  0
LINE
  8
0
 10
54.1402
 20
22.4252
 11
54.0617
 21
22.5791
  0
LINE
  8
0
 10
54.0617
 20
22.5791
 11
53.9931
 21
22.7377
  0
LINE
  8
0
 10
53.9931
 20
22.7377
 11
53.9346
 21
22.9002
  0
LINE
  8
0
 10
53.9346
 20
22.9002
 11
53.8864
 21
23.0661
  0
LINE
  8
0
 10
53.8864
 20
23.0661
 11
53.8487
 21
23.2347
  0
LINE
  8
0
 10
53.8487
 20
23.2347
 11
53.8217
 21
23.4053
  0
LINE
  8
0
 10
53.8217
 20
23.4053
 11
53.8054
 21
23.5773
  0
LINE
  8
0
 10
53.8054
 20
23.5773
 11
53.8
 21
23.75
  0
LINE
  8
0
 10
53.8
 20
23.75
 11
53.8054
 21
23.9227
  0
LINE
  8
0
 10
53.8054
 20
23.9227
 11
53.8217
 21
24.0947
  0
LINE
  8
0
 10
53.8217
 20
24.0947
 11
53.8487
 21
24.2653
  0
LINE
  8
0
 10
53.8487
 20
24.2653
 11
53.8864
 21
24.4339
  0
LINE
  8
0
 10
53.8864
 20
24.4339
 11
53.9346
 21
24.5998
  0
LINE
  8
0
 10
53.9346
 20
24.5998
 11
53.9931
 21
24.7623
  0
LINE
  8
0
 10
53.9931
 20
24.7623
 11
54.0617
 21
24.9209
  0
LINE
  8
0
 10
54.0617
 20
24.9209
 11
54.1402
 21
25.0748
  0
LINE
  8
0
 10
54.1402
 20
25.0748
 11
54.2281
 21
25.2235
  0
LINE
  8
0
 10
54.2281
 20
25.2235
 11
54.3252
 21
25.3664
  0
LINE
  8
0
 10
54.3252
 20
25.3664
 11
54.4311
 21
25.5029
  0
LINE
  8
0
 10
54.4311
 20
25.5029
 11
54.5453
 21
25.6325
  0
LINE
  8
0
 10
54.5453
 20
25.6325
 11
54.6675
 21
25.7547
  0
LINE
  8
0
 10
54.6675
 20
25.7547
 11
54.7971
 21
25.8689
  0
LINE
  8
0
 10
54.7971
 20
25.8689
 11
54.9336
 21
25.9748
  0
LINE
  8
0
 10
54.9336
 20
25.9748
 11
55.0765
 21
26.0719
  0
LINE
  8
0
 10
55.0765
 20
26.0719
 11
55.2252
 21
26.1598
  0
LINE
  8
0
 10
55.2252
 20
26.1598
 11
55.3791
 21
26.2383
  0
LINE
  8
0
 10
55.3791
 20
26.2383
 11
55.5376
 21
26.3069
  0
LINE
  8
0
 10
55.5376
 20
26.3069
 11
55.7002
 21
26.3654
  0
LINE
  8
0
 10
55.7002
 20
26.3654
 11
55.8661
 21
26.4136
  0
LINE
  8
0
 10
55.8661
 20
26.4136
 11
56.0347
 21
26.4513
  0
LINE
  8
0
 10
56.0347
 20
26.4513
 11
56.2053
 21
26.4783
  0
LINE
  8
0
 10
56.2053
 20
26.4783
 11
56.3773
 21
26.4946
  0
LINE
  8
0
 10
56.3773
 20
26.4946
 11
56.55
 21
26.5
  0
LINE
  8
0
 10
56.55
 20
26.5
 11
56.7227
 21
26.4946
  0
LINE
  8
0
 10
56.7227
 20
26.4946
 11
56.8947
 21
26.4783
  0
LINE
  8
0
 10
56.8947
 20
26.4783
 11
57.0653
 21
26.4513
  0
LINE
  8
0
 10
57.0653
 20
26.4513
 11
57.2339
 21
26.4136
  0
LINE
  8
0
 10
57.2339
 20
26.4136
 11
57.3998
 21
26.3654
  0
LINE
  8
0
 10
57.3998
 20
26.3654
 11
57.5623
 21
26.3069
  0
LINE
  8
0
 10
57.5623
 20
26.3069
 11
57.7209
 21
26.2383
  0
LINE
  8
0
 10
57.7209
 20
26.2383
 11
57.8748
 21
26.1598
  0
LINE
  8
0
 10
57.8748
 20
26.1598
 11
58.0235
 21
26.0719
  0
LINE
  8
0
 10
58.0235
 20
26.0719
 11
58.1664
 21
25.9748
  0
LINE
  8
0
 10
58.1664
 20
25.9748
 11
58.3029
 21
25.8689
  0
LINE
  8
0
 10
58.3029
 20
25.8689
 11
58.4325
 21
25.7547
  0
LINE
  8
0
 10
58.4325
 20
25.7547
 11
58.5547
 21
25.6325
  0
LINE
  8
0
 10
58.5547
 20
25.6325
 11
58.6689
 21
25.5029
  0
LINE
  8
0
 10
58.6689
 20
25.5029
 11
58.7748
 21
25.3664
  0
LINE
  8
0
 10
58.7748
 20
25.3664
 11
58.8719
 21
25.2235
  0
LINE
  8
0
 10
58.8719
 20
25.2235
 11
58.9598
 21
25.0748
  0
LINE
  8
0
 10
58.9598
 20
25.0748
 11
59.0383
 21
24.9209
  0
LINE
  8
0
 10
59.0383
 20
24.9209
 11
59.1069
 21
24.7623
  0
LINE
  8
0
 10
59.1069
 20
24.7623
 11
59.1654
 21
24.5998
  0
LINE
  8
0
 10
59.1654
 20
24.5998
 11
59.2136
 21
24.4339
  0
LINE
  8
0
 10
59.2136
 20
24.4339
 11
59.2513
 21
24.2653
  0
LINE
  8
0
 10
59.2513
 20
24.2653
 11
59.2783
 21
24.0947
  0
LINE
  8
0
 10
59.2783
 20
24.0947
 11
59.2946
 21
23.9227
  0
LINE
  8
0
 10
59.2946
 20
23.9227
 11
59.3
 21
23.75
  0
LINE
  8
0
 10
59.3
 20
23.75
 11
59.2946
 21
23.5773
  0
LINE
  8
0
 10
59.2946
 20
23.5773
 11
59.2783
 21
23.4053
  0
LINE
  8
0
 10
59.2783
 20
23.4053
 11
59.2513
 21
23.2347
  0
LINE
  8
0
 10
59.2513
 20
23.2347
 11
59.2136
 21
23.0661
  0
LINE
  8
0
 10
59.2136
 20
23.0661
 11
59.1654
 21
22.9002
  0
LINE
  8
0
 10
59.1654
 20
22.9002
 11
59.1069
 21
22.7377
  0
LINE
  8
0
 10
59.1069
 20
22.7377
 11
59.0383
 21
22.5791
  0
LINE
  8
0
 10
59.0383
 20
22.5791
 11
58.9598
 21
22.4252
  0
LINE
  8
0
 10
58.9598
 20
22.4252
 11
58.8719
 21
22.2765
  0
LINE
  8
0
 10
58.8719
 20
22.2765
 11
58.7748
 21
22.1336
  0
LINE
  8
0
 10
58.7748
 20
22.1336
 11
58.6689
 21
21.9971
  0
LINE
  8
0
 10
58.6689
 20
21.9971
 11
58.5547
 21
21.8675
  0
LINE
  8
0
 10
58.5547
 20
21.8675
 11
58.4325
 21
21.7453
  0
LINE
  8
0
 10
58.4325
 20
21.7453
 11
58.3029
 21
21.6311
  0
LINE
  8
0
 10
58.3029
 20
21.6311
 11
58.1664
 21
21.5252
  0
LINE
  8
0
 10
58.1664
 20
21.5252
 11
58.0235
 21
21.4281
  0
LINE
  8
0
 10
58.0235
 20
21.4281
 11
57.8748
 21
21.3401
  0
LINE
  8
0
 10
57.8748
 20
21.3401
 11
57.7209
 21
21.2617
  0
LINE
  8
0
 10
57.7209
 20
21.2617
 11
57.5623
 21
21.1931
  0
LINE
  8
0
 10
57.5623
 20
21.1931
 11
57.3998
 21
21.1346
  0
LINE
  8
0
 10
57.3998
 20
21.1346
 11
57.2339
 21
21.0864
  0
LINE
  8
0
 10
57.2339
 20
21.0864
 11
57.0653
 21
21.0487
  0
LINE
  8
0
 10
57.0653
 20
21.0487
 11
56.8947
 21
21.0217
  0
LINE
  8
0
 10
56.8947
 20
21.0217
 11
56.7227
 21
21.0054
  0
LINE
  8
0
 10
56.7227
 20
21.0054
 11
56.55
 21
21
  0
LINE
  8
0
 10
56.55
 20
21
 11
56.3773
 21
21.0054
  0
LINE
  8
0
 10
-56.7227
 20
-26.4946
 11
-56.8947
 21
-26.4783
  0
LINE
  8
0
 10
-56.8947
 20
-26.4783
 11
-57.0653
 21
-26.4513
  0
LINE
  8
0
 10
-57.0653
 20
-26.4513
 11
-57.2339
 21
-26.4136
  0
LINE
  8
0
 10
-57.2339
 20
-26.4136
 11
-57.3998
 21
-26.3654
  0
LINE
  8
0
 10
-57.3998
 20
-26.3654
 11
-57.5623
 21
-26.3069
  0
LINE
  8
0
 10
-57.5623
 20
-26.3069
 11
-57.7209
 21
-26.2383
  0
LINE
  8
0
 10
-57.7209
 20
-26.2383
 11
-57.8748
 21
-26.1598
  0
LINE
  8
0
 10
-57.8748
 20
-26.1598
 11
-58.0235
 21
-26.0719
  0
LINE
  8
0
 10
-58.0235
 20
-26.0719
 11
-58.1664
 21
-25.9748
  0
LINE
  8
0
 10
-58.1664
 20
-25.9748
 11
-58.3029
 21
-25.8689
  0
LINE
  8
0
 10
-58.3029
 20
-25.8689
 11
-58.4325
 21
-25.7547
  0
LINE
  8
0
 10
-58.4325
 20
-25.7547
 11
-58.5547
 21
-25.6325
  0
LINE
  8
0
 10
-58.5547
 20
-25.6325
 11
-58.6689
 21
-25.5029
  0
LINE
  8
0
 10
-58.6689
 20
-25.5029
 11
-58.7748
 21
-25.3664
  0
LINE
  8
0
 10
-58.7748
 20
-25.3664
 11
-58.8719
 21
-25.2235
  0
LINE
  8
0
 10
-58.8719
 20
-25.2235
 11
-58.9598
 21
-25.0748
  0
LINE
  8
0
 10
-58.9598
 20
-25.0748
 11
-59.0383
 21
-24.9209
  0
LINE
  8
0
 10
-59.0383
 20
-24.9209
 11
-59.1069
 21
-24.7623
  0
LINE
  8
0
 10
-59.1069
 20
-24.7623
 11
-59.1654
 21
-24.5998
  0
LINE
  8
0
 10
-59.1654
 20
-24.5998
 11
-59.2136
 21
-24.4339
  0
LINE
  8
0
 10
-59.2136
 20
-24.4339
 11
-59.2513
 21
-24.2653
  0
LINE
  8
0
 10
-59.2513
 20
-24.2653
 11
-59.2783
 21
-24.0947
  0
LINE
  8
0
 10
-59.2783
 20
-24.0947
 11
-59.2946
 21
-23.9227
  0
LINE
  8
0
 10
-59.2946
 20
-23.9227
 11
-59.3
 21
-23.75
  0
LINE
  8
0
 10
-59.3
 20
-23.75
 11
-59.2946
 21
-23.5773
  0
LINE
  8
0
 10
-59.2946
 20
-23.5773
 11
-59.2783
 21
-23.4053
  0
LINE
  8
0
 10
-59.2783
 20
-23.4053
 11
-59.2513
 21
-23.2347
  0
LINE
  8
0
 10
-59.2513
 20
-23.2347
 11
-59.2136
 21
-23.0661
  0
LINE
  8
0
 10
-59.2136
 20
-23.0661
 11
-59.1654
 21
-22.9002
  0
LINE
  8
0
 10
-59.1654
 20
-22.9002
 11
-59.1069
 21
-22.7377
  0
LINE
  8
0
 10
-59.1069
 20
-22.7377
 11
-59.0383
 21
-22.5791
  0
LINE
  8
0
 10
-59.0383
 20
-22.5791
 11
-58.9598
 21
-22.4252
  0
LINE
  8
0
 10
-58.9598
 20
-22.4252
 11
-58.8719
 21
-22.2765
  0
LINE
  8
0
 10
-58.8719
 20
-22.2765
 11
-58.7748
 21
-22.1336
  0
LINE
  8
0
 10
-58.7748
 20
-22.1336
 11
-58.6689
 21
-21.9971
  0
LINE
  8
0
 10
-58.6689
 20
-21.9971
 11
-58.5547
 21
-21.8675
  0
LINE
  8
0
 10
-58.5547
 20
-21.8675
 11
-58.4325
 21
-21.7453
  0
LINE
  8
0
 10
-58.4325
 20
-21.7453
 11
-58.3029
 21
-21.6311
  0
LINE
  8
0
 10
-58.3029
 20
-21.6311
 11
-58.1664
 21
-21.5252
  0
LINE
  8
0
 10
-58.1664
 20
-21.5252
 11
-58.0235
 21
-21.4281
  0
LINE
  8
0
 10
-58.0235
 20
-21.4281
 11
-57.8748
 21
-21.3401
  0
LINE
  8
0
 10
-57.8748
 20
-21.3401
 11
-57.7209
 21
-21.2617
  0
LINE
  8
0
 10
-57.7209
 20
-21.2617
 11
-57.5623
 21
-21.1931
  0
LINE
  8
0
 10
-57.5623
 20
-21.1931
 11
-57.3998
 21
-21.1346
  0
LINE
  8
0
 10
-57.3998
 20
-21.1346
 11
-57.2339
 21
-21.0864
  0
LINE
  8
0
 10
-57.2339
 20
-21.0864
 11
-57.0653
 21
-21.0487
  0
LINE
  8
0
 10
-57.0653
 20
-21.0487
 11
-56.8947
 21
-21.0217
  0
LINE
  8
0
 10
-56.8947
 20
-21.0217
 11
-56.7227
 21
-21.0054
  0
LINE
  8
0
 10
-56.7227
 20
-21.0054
 11
-56.55
 21
-21
  0
LINE
  8
0
 10
-56.55
 20
-21
 11
-56.3773
 21
-21.0054
  0
LINE
  8
0
 10
-56.3773
 20
-21.0054
 11
-56.2053
 21
-21.0217
  0
LINE
  8
0
 10
-56.2053
 20
-21.0217
 11
-56.0347
 21
-21.0487
  0
LINE
  8
0
 10
-56.0347
 20
-21.0487
 11
-55.8661
 21
-21.0864
  0
LINE
  8
0
 10
-55.8661
 20
-21.0864
 11
-55.7002
 21
-21.1346
  0
LINE
  8
0
 10
-55.7002
 20
-21.1346
 11
-55.5376
 21
-21.1931
  0
LINE
  8
0
 10
-55.5376
 20
-21.1931
 11
-55.3791
 21
-21.2617
  0
LINE
  8
0
 10
-55.3791
 20
-21.2617
 11
-55.2252
 21
-21.3401
  0
LINE
  8
0
 10
-55.2252
 20
-21.3401
 11
-55.0765
 21
-21.4281
  0
LINE
  8
0
 10
-55.0765
 20
-21.4281
 11
-54.9336
 21
-21.5252
  0
LINE
  8
0
 10
-54.9336
 20
-21.5252
 11
-54.7971
 21
-21.6311
  0
LINE
  8
0
 10
-54.7971
 20
-21.6311
 11
-54.6675
 21
-21.7453
  0
LINE
  8
0
 10
-54.6675
 20
-21.7453
 11
-54.5453
 21
-21.8675
  0
LINE
  8
0
 10
-54.5453
 20
-21.8675
 11
-54.4311
 21
-21.9971
  0
LINE
  8
0
 10
-54.4311
 20
-21.9971
 11
-54.3252
 21
-22.1336
  0
LINE
  8
0
 10
-54.3252
 20
-22.1336
 11
-54.2281
 21
-22.2765
  0
LINE
  8
0
 10
-54.2281
 20
-22.2765
 11
-54.1402
 21
-22.4252
  0
LINE
  8
0
 10
-54.1402
 20
-22.4252
 11
-54.0617
 21
-22.5791
  0
LINE
  8
0
 10
-54.0617
 20
-22.5791
 11
-53.9931
 21
-22.7377
  0
LINE
  8
0
 10
-53.9931
 20
-22.7377
 11
-53.9346
 21
-22.9002
  0
LINE
  8
0
 10
-53.9346
 20
-22.9002
 11
-53.8864
 21
-23.0661
  0
LINE
  8
0
 10
-53.8864
 20
-23.0661
 11
-53.8487
 21
-23.2347
  0
LINE
  8
0
 10
-53.8487
 20
-23.2347
 11
-53.8217
 21
-23.4053
  0
LINE
  8
0
 10
-53.8217
 20
-23.4053
 11
-53.8054
 21
-23.5773
  0
LINE
  8
0
 10
-53.8054
 20
-23.5773
 11
-53.8
 21
-23.75
  0
LINE
  8
0
 10
-53.8
 20
-23.75
 11
-53.8054
 21
-23.9227
  0
LINE
  8
0
 10
-53.8054
 20
-23.9227
 11
-53.8217
 21
-24.0947
  0
LINE
  8
0
 10
-53.8217
 20
-24.0947
 11
-53.8487
 21
-24.2653
  0
LINE
  8
0
 10
-53.8487
 20
-24.2653
 11
-53.8864
 21
-24.4339
  0
LINE
  8
0
 10
-53.8864
 20
-24.4339
 11
-53.9346
 21
-24.5998
  0
LINE
  8
0
 10
-53.9346
 20
-24.5998
 11
-53.9931
 21
-24.7623
  0
LINE
  8
0
 10
-53.9931
 20
-24.7623
 11
-54.0617
 21
-24.9209
  0
LINE
  8
0
 10
-54.0617
 20
-24.9209
 11
-54.1402
 21
-25.0748
  0
LINE
  8
0
 10
-54.1402
 20
-25.0748
 11
-54.2281
 21
-25.2235
  0
LINE
  8
0
 10
-54.2281
 20
-25.2235
 11
-54.3252
 21
-25.3664
  0
LINE
  8
0
 10
-54.3252
 20
-25.3664
 11
-54.4311
 21
-25.5029
  0
LINE
  8
0
 10
-54.4311
 20
-25.5029
 11
-54.5453
 21
-25.6325
  0
LINE
  8
0
 10
-54.5453
 20
-25.6325
 11
-54.6675
 21
-25.7547
  0
LINE
  8
0
 10
-54.6675
 20
-25.7547
 11
-54.7971
 21
-25.8689
  0
LINE
  8
0
 10
-54.7971
 20
-25.8689
 11
-54.9336
 21
-25.9748
  0
LINE
  8
0
 10
-54.9336
 20
-25.9748
 11
-55.0765
 21
-26.0719
  0
LINE
  8
0
 10
-55.0765
 20
-26.0719
 11
-55.2252
 21
-26.1598
  0
LINE
  8
0
 10
-55.2252
 20
-26.1598
 11
-55.3791
 21
-26.2383
  0
LINE
  8
0
 10
-55.3791
 20
-26.2383
 11
-55.5376
 21
-26.3069
  0
LINE
  8
0
 10
-55.5376
 20
-26.3069
 11
-55.7002
 21
-26.3654
  0
LINE
  8
0
 10
-55.7002
 20
-26.3654
 11
-55.8661
 21
-26.4136
  0
LINE
  8
0
 10
-55.8661
 20
-26.4136
 11
-56.0347
 21
-26.4513
  0
LINE
  8
0
 10
-56.0347
 20
-26.4513
 11
-56.2053
 21
-26.4783
  0
LINE
  8
0
 10
-56.2053
 20
-26.4783
 11
-56.3773
 21
-26.4946
  0
LINE
  8
0
 10
-56.3773
 20
-26.4946
 11
-56.55
 21
-26.5
  0
LINE
  8
0
 10
-56.55
 20
-26.5
 11
-56.7227
 21
-26.4946
  0
LINE
  8
0
 10
56.3773
 20
-26.4946
 11
56.2053
 21
-26.4783
  0
LINE
  8
0
 10
56.2053
 20
-26.4783
 11
56.0347
 21
-26.4513
  0
LINE
  8
0
 10
56.0347
 20
-26.4513
 11
55.8661
 21
-26.4136
  0
LINE
  8
0
 10
55.8661
 20
-26.4136
 11
55.7002
 21
-26.3654
  0
LINE
  8
0
 10
55.7002
 20
-26.3654
 11
55.5376
 21
-26.3069
  0
LINE
  8
0
 10
55.5376
 20
-26.3069
 11
55.3791
 21
-26.2383
  0
LINE
  8
0
 10
55.3791
 20
-26.2383
 11
55.2252
 21
-26.1598
  0
LINE
  8
0
 10
55.2252
 20
-26.1598
 11
55.0765
 21
-26.0719
  0
LINE
  8
0
 10
55.0765
 20
-26.0719
 11
54.9336
 21
-25.9748
  0
LINE
  8
0
 10
54.9336
 20
-25.9748
 11
54.7971
 21
-25.8689
  0
LINE
  8
0
 10
54.7971
 20
-25.8689
 11
54.6675
 21
-25.7547
  0
LINE
  8
0
 10
54.6675
 20
-25.7547
 11
54.5453
 21
-25.6325
  0
LINE
  8
0
 10
54.5453
 20
-25.6325
 11
54.4311
 21
-25.5029
  0
LINE
  8
0
 10
54.4311
 20
-25.5029
 11
54.3252
 21
-25.3664
  0
LINE
  8
0
 10
54.3252
 20
-25.3664
 11
54.2281
 21
-25.2235
  0
LINE
  8
0
 10
54.2281
 20
-25.2235
 11
54.1402
 21
-25.0748
  0
LINE
  8
0
 10
54.1402
 20
-25.0748
 11
54.0617
 21
-24.9209
  0
LINE
  8
0
 10
54.0617
 20
-24.9209
 11
53.9931
 21
-24.7623
  0
LINE
  8
0
 10
53.9931
 20
-24.7623
 11
53.9346
 21
-24.5998
  0
LINE
  8
0
 10
53.9346
 20
-24.5998
 11
53.8864
 21
-24.4339
  0
LINE
  8
0
 10
53.8864
 20
-24.4339
 11
53.8487
 21
-24.2653
  0
LINE
  8
0
 10
53.8487
 20
-24.2653
 11
53.8217
 21
-24.0947
  0
LINE
  8
0
 10
53.8217
 20
-24.0947
 11
53.8054
 21
-23.9227
  0
LINE
  8
0
 10
53.8054
 20
-23.9227
 11
53.8
 21
-23.75
  0
LINE
  8
0
 10
53.8
 20
-23.75
 11
53.8054
 21
-23.5773
  0
LINE
  8
0
 10
53.8054
 20
-23.5773
 11
53.8217
 21
-23.4053
  0
LINE
  8
0
 10
53.8217
 20
-23.4053
 11
53.8487
 21
-23.2347
  0
LINE
  8
0
 10
53.8487
 20
-23.2347
 11
53.8864
 21
-23.0661
  0
LINE
  8
0
 10
53.8864
 20
-23.0661
 11
53.9346
 21
-22.9002
  0
LINE
  8
0
 10
53.9346
 20
-22.9002
 11
53.9931
 21
-22.7377
  0
LINE
  8
0
 10
53.9931
 20
-22.7377
 11
54.0617
 21
-22.5791
  0
LINE
  8
0
 10
54.0617
 20
-22.5791
 11
54.1402
 21
-22.4252
  0
LINE
  8
0
 10
54.1402
 20
-22.4252
 11
54.2281
 21
-22.2765
  0
LINE
  8
0
 10
54.2281
 20
-22.2765
 11
54.3252
 21
-22.1336
  0
LINE
  8
0
 10
54.3252
 20
-22.1336
 11
54.4311
 21
-21.9971
  0
LINE
  8
0
 10
54.4311
 20
-21.9971
 11
54.5453
 21
-21.8675
  0
LINE
  8
0
 10
54.5453
 20
-21.8675
 11
54.6675
 21
-21.7453
  0
LINE
  8
0
 10
54.6675
 20
-21.7453
 11
54.7971
 21
-21.6311
  0
LINE
  8
0
 10
54.7971
 20
-21.6311
 11
54.9336
 21
-21.5252
  0
LINE
  8
0
 10
54.9336
 20
-21.5252
 11
55.0765
 21
-21.4281
  0
LINE
  8
0
 10
55.0765
 20
-21.4281
 11
55.2252
 21
-21.3401
  0
LINE
  8
0
 10
55.2252
 20
-21.3401
 11
55.3791
 21
-21.2617
  0
LINE
  8
0
 10
55.3791
 20
-21.2617
 11
55.5376
 21
-21.1931
  0
LINE
  8
0
 10
55.5376
 20
-21.1931
 11
55.7002
 21
-21.1346
  0
LINE
  8
0
 10
55.7002
 20
-21.1346
 11
55.8661
 21
-21.0864
  0
LINE
  8
0
 10
55.8661
 20
-21.0864
 11
56.0347
 21
-21.0487
  0
LINE
  8
0
 10
56.0347
 20
-21.0487
 11
56.2053
 21
-21.0217
  0
LINE
  8
0
 10
56.2053
 20
-21.0217
 11
56.3773
 21
-21.0054
  0
LINE
  8
0
 10
56.3773
 20
-21.0054
 11
56.55
 21
-21
  0
LINE
  8
0
 10
56.55
 20
-21
 11
56.7227
 21
-21.0054
  0
LINE
  8
0
 10
56.7227
 20
-21.0054
 11
56.8947
 21
-21.0217
  0
LINE
  8
0
 10
56.8947
 20
-21.0217
 11
57.0653
 21
-21.0487
  0
LINE
  8
0
 10
57.0653
 20
-21.0487
 11
57.2339
 21
-21.0864
  0
LINE
  8
0
 10
57.2339
 20
-21.0864
 11
57.3998
 21
-21.1346
  0
LINE
  8
0
 10
57.3998
 20
-21.1346
 11
57.5623
 21
-21.1931
  0
LINE
  8
0
 10
57.5623
 20
-21.1931
 11
57.7209
 21
-21.2617
  0
LINE
  8
0
 10
57.7209
 20
-21.2617
 11
57.8748
 21
-21.3401
  0
LINE
  8
0
 10
57.8748
 20
-21.3401
 11
58.0235
 21
-21.4281
  0
LINE
  8
0
 10
58.0235
 20
-21.4281
 11
58.1664
 21
-21.5252
  0
LINE
  8
0
 10
58.1664
 20
-21.5252
 11
58.3029
 21
-21.6311
  0
LINE
  8
0
 10
58.3029
 20
-21.6311
 11
58.4325
 21
-21.7453
  0
LINE
  8
0
 10
58.4325
 20
-21.7453
 11
58.5547
 21
-21.8675
  0
LINE
  8
0
 10
58.5547
 20
-21.8675
 11
58.6689
 21
-21.9971
  0
LINE
  8
0
 10
58.6689
 20
-21.9971
 11
58.7748
 21
-22.1336
  0
LINE
  8
0
 10
58.7748
 20
-22.1336
 11
58.8719
 21
-22.2765
  0
LINE
  8
0
 10
58.8719
 20
-22.2765
 11
58.9598
 21
-22.4252
  0
LINE
  8
0
 10
58.9598
 20
-22.4252
 11
59.0383
 21
-22.5791
  0
LINE
  8
0
 10
59.0383
 20
-22.5791
 11
59.1069
 21
-22.7377
  0
LINE
  8
0
 10
59.1069
 20
-22.7377
 11
59.1654
 21
-22.9002
  0
LINE
  8
0
 10
59.1654
 20
-22.9002
 11
59.2136
 21
-23.0661
  0
LINE
  8
0
 10
59.2136
 20
-23.0661
 11
59.2513
 21
-23.2347
  0
LINE
  8
0
 10
59.2513
 20
-23.2347
 11
59.2783
 21
-23.4053
  0
LINE
  8
0
 10
59.2783
 20
-23.4053
 11
59.2946
 21
-23.5773
  0
LINE
  8
0
 10
59.2946
 20
-23.5773
 11
59.3
 21
-23.75
  0
LINE
  8
0
 10
59.3
 20
-23.75
 11
59.2946
 21
-23.9227
  0
LINE
  8
0
 10
59.2946
 20
-23.9227
 11
59.2783
 21
-24.0947
  0
LINE
  8
0
 10
59.2783
 20
-24.0947
 11
59.2513
 21
-24.2653
  0
LINE
  8
0
 10
59.2513
 20
-24.2653
 11
59.2136
 21
-24.4339
  0
LINE
  8
0
 10
59.2136
 20
-24.4339
 11
59.1654
 21
-24.5998
  0
LINE
  8
0
 10
59.1654
 20
-24.5998
 11
59.1069
 21
-24.7623
  0
LINE
  8
0
 10
59.1069
 20
-24.7623
 11
59.0383
 21
-24.9209
  0
LINE
  8
0
 10
59.0383
 20
-24.9209
 11
58.9598
 21
-25.0748
  0
LINE
  8
0
 10
58.9598
 20
-25.0748
 11
58.8719
 21
-25.2235
  0
LINE
  8
0
 10
58.8719
 20
-25.2235
 11
58.7748
 21
-25.3664
  0
LINE
  8
0
 10
58.7748
 20
-25.3664
 11
58.6689
 21
-25.5029
  0
LINE
  8
0
 10
58.6689
 20
-25.5029
 11
58.5547
 21
-25.6325
  0
LINE
  8
0
 10
58.5547
 20
-25.6325
 11
58.4325
 21
-25.7547
  0
LINE
  8
0
 10
58.4325
 20
-25.7547
 11
58.3029
 21
-25.8689
  0
LINE
  8
0
 10
58.3029
 20
-25.8689
 11
58.1664
 21
-25.9748
  0
LINE
  8
0
 10
58.1664
 20
-25.9748
 11
58.0235
 21
-26.0719
  0
LINE
  8
0
 10
58.0235
 20
-26.0719
 11
57.8748
 21
-26.1598
  0
LINE
  8
0
 10
57.8748
 20
-26.1598
 11
57.7209
 21
-26.2383
  0
LINE
  8
0
 10
57.7209
 20
-26.2383
 11
57.5623
 21
-26.3069
  0
LINE
  8
0
 10
57.5623
 20
-26.3069
 11
57.3998
 21
-26.3654
  0
LINE
  8
0
 10
57.3998
 20
-26.3654
 11
57.2339
 21
-26.4136
  0
LINE
  8
0
 10
57.2339
 20
-26.4136
 11
57.0653
 21
-26.4513
  0
LINE
  8
0
 10
57.0653
 20
-26.4513
 11
56.8947
 21
-26.4783
  0
LINE
  8
0
 10
56.8947
 20
-26.4783
 11
56.7227
 21
-26.4946
  0
LINE
  8
0
 10
56.7227
 20
-26.4946
 11
56.55
 21
-26.5
  0
LINE
  8
0
 10
56.55
 20
-26.5
 11
56.3773
 21
-26.4946
  0
ENDSEC
  0
SECTION
  2
OBJECTS
  0
DICTIONARY
  0
ENDSEC
  0
EOF
