  0
SECTION
  2
HEADER
  9
$ACADVER
  1
AC1014
  9
$HANDSEED
  5
FFFF
  9
$MEASUREMENT
 70
     1
  0
ENDSEC
  0
SECTION
  2
TABLES
  0
TABLE
  2
VPORT
  5
8
330
0
100
AcDbSymbolTable
 70
     4
  0
VPORT
  5
2E
330
8
100
AcDbSymbolTableRecord
100
AcDbViewportTableRecord
  2
*ACTIVE
 70
     0
 10
0.0
 20
0.0
 11
1.0
 21
1.0
 12
210.0
 22
148.5
 13
0.0
 23
0.0
 14
10.0
 24
10.0
 15
10.0
 25
10.0
 16
0.0
 26
0.0
 36
1.0
 17
0.0
 27
0.0
 37
0.0
 40
341.0
 41
1.24
 42
50.0
 43
0.0
 44
0.0
 50
0.0
 51
0.0
 71
     0
 72
   100
 73
     1
 74
     3
 75
     0
 76
     0
 77
     0
 78
     0
  0
ENDTAB
  0
TABLE
  2
LTYPE
  5
5
330
0
100
AcDbSymbolTable
 70
     1
  0
LTYPE
  5
14
330
5
100
AcDbSymbolTableRecord
100
AcDbLinetypeTableRecord
  2
BYBLOCK
 70
     0
  3

 72
    65
 73
     0
 40
0.0
  0
LTYPE
  5
15
330
5
100
AcDbSymbolTableRecord
100
AcDbLinetypeTableRecord
  2
BYLAYER
 70
     0
  3

 72
    65
 73
     0
 40
0.0
  0
LTYPE
  5
16
330
5
100
AcDbSymbolTableRecord
100
AcDbLinetypeTableRecord
  2
CONTINUOUS
 70
     0
  3
Solid line
 72
    65
 73
     0
 40
0.0
  0
ENDTAB
  0
TABLE
  2
LAYER
  5
2
100
AcDbSymbolTable
 70
2
  0
LAYER
  5
50
100
AcDbSymbolTableRecord
100
AcDbLayerTableRecord
  2
0
 70
0
  6
CONTINUOUS
  0
LAYER
  5
51
100
AcDbSymbolTableRecord
100
AcDbLayerTableRecord
  2
Layer_1
 70
0
  6
CONTINUOUS
  0
ENDTAB
  0
TABLE
  2
STYLE
  5
3
330
0
100
AcDbSymbolTable
 70
     1
  0
STYLE
  5
11
330
3
100
AcDbSymbolTableRecord
100
AcDbTextStyleTableRecord
  2
STANDARD
 70
     0
 40
0.0
 41
1.0
 50
0.0
 71
     0
 42
2.5
  3
txt
  4

  0
ENDTAB
  0
TABLE
  2
VIEW
  5
6
330
0
100
AcDbSymbolTable
 70
     0
  0
ENDTAB
  0
TABLE
  2
UCS
  5
7
330
0
100
AcDbSymbolTable
 70
     0
  0
ENDTAB
  0
TABLE
  2
APPID
  5
9
330
0
100
AcDbSymbolTable
 70
     2
  0
APPID
  5
12
330
9
100
AcDbSymbolTableRecord
100
AcDbRegAppTableRecord
  2
ACAD
 70
     0
  0
ENDTAB
  0
TABLE
  2
DIMSTYLE
  5
A
330
0
100
AcDbSymbolTable
 70
     1
  0
DIMSTYLE
105
27
330
A
100
AcDbSymbolTableRecord
100
AcDbDimStyleTableRecord
  2
ISO-25
 70
     0
  3

  4

  5

  6

  7

 40
1.0
 41
2.5
 42
0.625
 43
3.75
 44
1.25
 45
0.0
 46
0.0
 47
0.0
 48
0.0
140
2.5
141
2.5
142
0.0
143
0.03937007874016
144
1.0
145
0.0
146
1.0
147
0.625
 71
     0
 72
     0
 73
     0
 74
     0
 75
     0
 76
     0
 77
     1
 78
     8
170
     0
171
     3
172
     1
173
     0
174
     0
175
     0
176
     0
177
     0
178
     0
270
     2
271
     2
272
     2
273
     2
274
     3
340
11
275
     0
280
     0
281
     0
282
     0
283
     0
284
     8
285
     0
286
     0
287
     3
288
     0
  0
ENDTAB
  0
TABLE
  2
BLOCK_RECORD
  5
1
330
0
100
AcDbSymbolTable
 70
     1
  0
BLOCK_RECORD
  5
1F
330
1
100
AcDbSymbolTableRecord
100
AcDbBlockTableRecord
  2
*MODEL_SPACE
  0
BLOCK_RECORD
  5
1B
330
1
100
AcDbSymbolTableRecord
100
AcDbBlockTableRecord
  2
*PAPER_SPACE
  0
ENDTAB
  0
ENDSEC
  0
SECTION
  2
BLOCKS
  0
BLOCK
  5
20
330
1F
100
AcDbEntity
  8
0
100
AcDbBlockBegin
  2
*MODEL_SPACE
 70
     0
 10
0.0
 20
0.0
 30
0.0
  3
*MODEL_SPACE
  1

  0
ENDBLK
  5
21
330
1F
100
AcDbEntity
  8
0
100
AcDbBlockEnd
  0
BLOCK
  5
1C
330
1B
100
AcDbEntity
 67
     1
  8
0
100
AcDbBlockBegin
  2
*PAPER_SPACE
  1

  0
ENDBLK
  5
1D
330
1B
100
AcDbEntity
 67
     1
  8
0
100
AcDbBlockEnd
  0
ENDSEC
  0
SECTION
  2
ENTITIES
  0
LINE
  5
100
100
AcDbEntity
  8
Layer_1
 62
7
100
AcDbLine
 10
-119.207610
 20
149.276936
 30
0.0
 11
-244.207609
 21
149.276936
 31
0.0
  0
LINE
  5
101
100
AcDbEntity
  8
Layer_1
 62
7
100
AcDbLine
 10
-244.207609
 20
149.276936
 30
0.0
 11
-244.207609
 21
41.276932
 31
0.0
  0
LINE
  5
102
100
AcDbEntity
  8
Layer_1
 62
7
100
AcDbLine
 10
-244.207609
 20
41.276932
 30
0.0
 11
-119.207610
 21
41.276932
 31
0.0
  0
LINE
  5
103
100
AcDbEntity
  8
Layer_1
 62
7
100
AcDbLine
 10
-119.207610
 20
41.276932
 30
0.0
 11
-119.207610
 21
149.276936
 31
0.0
  0
SPLINE
  5
104
100
AcDbEntity
  8
Layer_1
 62
7
100
AcDbSpline
 70
0
 71
3
 72
10
 73
6
 74
4
 40
0.000000
 40
0.000000
 40
0.000000
 40
0.000000
 40
3.419917
 40
6.812497
 40
10.211980
 40
10.211980
 40
10.211980
 40
10.211980
 10
-139.442309
 20
57.611248
 30
0.0
 10
-140.448475
 20
57.077146
 30
0.0
 10
-142.452767
 20
56.013210
 30
0.0
 10
-145.733635
 20
54.924834
 30
0.0
 10
-148.011768
 20
54.958349
 30
0.0
 10
-149.151992
 20
54.975124
 30
0.0
 11
-139.442309
 21
57.611248
 31
0.0
 11
-142.507280
 21
56.094088
 31
0.0
 11
-145.755369
 21
55.114535
 31
0.0
 11
-149.151992
 21
54.975124
 31
0.0
  0
SPLINE
  5
105
100
AcDbEntity
  8
Layer_1
 62
7
100
AcDbSpline
 70
0
 71
3
 72
10
 73
6
 74
4
 40
0.000000
 40
0.000000
 40
0.000000
 40
0.000000
 40
22.819005
 40
45.638011
 40
68.457016
 40
68.457016
 40
68.457016
 40
68.457016
 10
-149.151992
 20
54.975124
 30
0.0
 10
-156.758327
 20
54.975124
 30
0.0
 10
-171.970997
 20
54.975124
 30
0.0
 10
-194.790003
 20
54.975124
 30
0.0
 10
-210.002673
 20
54.975124
 30
0.0
 10
-217.609008
 20
54.975124
 30
0.0
 11
-149.151992
 21
54.975124
 31
0.0
 11
-171.970997
 21
54.975124
 31
0.0
 11
-194.790003
 21
54.975124
 31
0.0
 11
-217.609008
 21
54.975124
 31
0.0
  0
SPLINE
  5
106
100
AcDbEntity
  8
Layer_1
 62
7
100
AcDbSpline
 70
0
 71
3
 72
10
 73
6
 74
4
 40
0.000000
 40
0.000000
 40
0.000000
 40
0.000000
 40
6.099313
 40
12.151837
 40
18.227258
 40
18.227258
 40
18.227258
 40
18.227258
 10
-217.609008
 20
54.975124
 30
0.0
 10
-219.543975
 20
55.619818
 30
0.0
 10
-223.399065
 20
56.904261
 30
0.0
 10
-228.301217
 20
60.891830
 30
0.0
 10
-229.945588
 20
64.634321
 30
0.0
 10
-230.769327
 20
66.509100
 30
0.0
 11
-217.609008
 21
54.975124
 31
0.0
 11
-223.266052
 21
57.255359
 31
0.0
 11
-227.892236
 21
61.158110
 31
0.0
 11
-230.769327
 21
66.509100
 31
0.0
  0
SPLINE
  5
107
100
AcDbEntity
  8
Layer_1
 62
7
100
AcDbSpline
 70
0
 71
3
 72
10
 73
6
 74
4
 40
0.000000
 40
0.000000
 40
0.000000
 40
0.000000
 40
3.573352
 40
7.184668
 40
10.799293
 40
10.799293
 40
10.799293
 40
10.799293
 10
-230.769327
 20
66.509100
 30
0.0
 10
-231.116945
 20
67.659116
 30
0.0
 10
-231.815874
 20
69.971365
 30
0.0
 10
-231.566085
 20
73.603972
 30
0.0
 10
-231.594696
 20
76.008217
 30
0.0
 10
-231.609008
 20
77.210890
 30
0.0
 11
-230.769327
 21
66.509100
 31
0.0
 11
-231.598183
 21
69.984994
 31
0.0
 11
-231.615054
 21
73.596271
 31
0.0
 11
-231.609008
 21
77.210890
 31
0.0
  0
SPLINE
  5
108
100
AcDbEntity
  8
Layer_1
 62
7
100
AcDbSpline
 70
0
 71
3
 72
10
 73
6
 74
4
 40
0.000000
 40
0.000000
 40
0.000000
 40
0.000000
 40
14.789281
 40
29.578563
 40
44.367845
 40
44.367845
 40
44.367845
 40
44.367845
 10
-231.609008
 20
77.210890
 30
0.0
 10
-231.609008
 20
82.140651
 30
0.0
 10
-231.609008
 20
92.000171
 30
0.0
 10
-231.609008
 20
106.789453
 30
0.0
 10
-231.609008
 20
116.648975
 30
0.0
 10
-231.609008
 20
121.578735
 30
0.0
 11
-231.609008
 21
77.210890
 31
0.0
 11
-231.609008
 21
92.000171
 31
0.0
 11
-231.609008
 21
106.789453
 31
0.0
 11
-231.609008
 21
121.578735
 31
0.0
  0
SPLINE
  5
109
100
AcDbEntity
  8
Layer_1
 62
7
100
AcDbSpline
 70
0
 71
3
 72
10
 73
6
 74
4
 40
0.000000
 40
0.000000
 40
0.000000
 40
0.000000
 40
6.099314
 40
12.151838
 40
18.227261
 40
18.227261
 40
18.227261
 40
18.227261
 10
-231.609008
 20
121.578735
 30
0.0
 10
-230.964321
 20
123.513705
 30
0.0
 10
-229.679892
 20
127.368802
 30
0.0
 10
-225.692314
 20
132.270951
 30
0.0
 10
-221.949820
 20
133.915318
 30
0.0
 10
-220.075040
 20
134.739054
 30
0.0
 11
-231.609008
 21
121.578735
 31
0.0
 11
-229.328789
 21
127.235787
 31
0.0
 11
-225.426035
 21
131.861969
 31
0.0
 11
-220.075040
 21
134.739054
 31
0.0
  0
SPLINE
  5
10a
100
AcDbEntity
  8
Layer_1
 62
7
100
AcDbSpline
 70
0
 71
3
 72
10
 73
6
 74
4
 40
0.000000
 40
0.000000
 40
0.000000
 40
0.000000
 40
3.573357
 40
7.184675
 40
10.799301
 40
10.799301
 40
10.799301
 40
10.799301
 10
-220.075040
 20
134.739054
 30
0.0
 10
-218.925023
 20
135.086672
 30
0.0
 10
-216.612771
 20
135.785602
 30
0.0
 10
-212.980161
 20
135.535812
 30
0.0
 10
-210.575915
 20
135.564424
 30
0.0
 10
-209.373241
 20
135.578736
 30
0.0
 11
-220.075040
 21
134.739054
 31
0.0
 11
-216.599141
 21
135.567910
 31
0.0
 11
-212.987862
 21
135.584781
 31
0.0
 11
-209.373241
 21
135.578736
 31
0.0
  0
SPLINE
  5
10b
100
AcDbEntity
  8
Layer_1
 62
7
100
AcDbSpline
 70
0
 71
3
 72
10
 73
6
 74
4
 40
0.000000
 40
0.000000
 40
0.000000
 40
0.000000
 40
21.189010
 40
42.378020
 40
63.567031
 40
63.567031
 40
63.567031
 40
63.567031
 10
-209.373241
 20
135.578736
 30
0.0
 10
-202.310238
 20
135.578736
 30
0.0
 10
-188.184231
 20
135.578736
 30
0.0
 10
-166.995221
 20
135.578736
 30
0.0
 10
-152.869214
 20
135.578736
 30
0.0
 10
-145.806211
 20
135.578736
 30
0.0
 11
-209.373241
 21
135.578736
 31
0.0
 11
-188.184231
 21
135.578736
 31
0.0
 11
-166.995221
 21
135.578736
 31
0.0
 11
-145.806211
 21
135.578736
 31
0.0
  0
SPLINE
  5
10c
100
AcDbEntity
  8
Layer_1
 62
7
100
AcDbSpline
 70
0
 71
3
 72
10
 73
6
 74
4
 40
0.000000
 40
0.000000
 40
0.000000
 40
0.000000
 40
6.099314
 40
12.151838
 40
18.227264
 40
18.227264
 40
18.227264
 40
18.227264
 10
-145.806211
 20
135.578736
 30
0.0
 10
-143.871240
 20
134.934049
 30
0.0
 10
-140.016143
 20
133.649621
 30
0.0
 10
-135.113996
 20
129.662040
 30
0.0
 10
-133.469628
 20
125.919546
 30
0.0
 10
-132.645892
 20
124.044765
 30
0.0
 11
-145.806211
 21
135.578736
 31
0.0
 11
-140.149159
 21
133.298517
 31
0.0
 11
-135.522978
 21
129.395762
 31
0.0
 11
-132.645892
 21
124.044765
 31
0.0
  0
SPLINE
  5
10d
100
AcDbEntity
  8
Layer_1
 62
7
100
AcDbSpline
 70
0
 71
3
 72
10
 73
6
 74
4
 40
0.000000
 40
0.000000
 40
0.000000
 40
0.000000
 40
3.573355
 40
7.184672
 40
10.799298
 40
10.799298
 40
10.799298
 40
10.799298
 10
-132.645892
 20
124.044765
 30
0.0
 10
-132.298274
 20
122.894748
 30
0.0
 10
-131.599344
 20
120.582497
 30
0.0
 10
-131.849134
 20
116.949889
 30
0.0
 10
-131.820523
 20
114.545642
 30
0.0
 10
-131.806211
 20
113.342969
 30
0.0
 11
-132.645892
 21
124.044765
 31
0.0
 11
-131.817036
 21
120.568868
 31
0.0
 11
-131.800165
 21
116.957589
 31
0.0
 11
-131.806211
 21
113.342969
 31
0.0
  0
SPLINE
  5
10e
100
AcDbEntity
  8
Layer_1
 62
7
100
AcDbSpline
 70
0
 71
3
 72
10
 73
6
 74
4
 40
0.000000
 40
0.000000
 40
0.000000
 40
0.000000
 40
14.789281
 40
29.578563
 40
44.367845
 40
44.367845
 40
44.367845
 40
44.367845
 10
-131.806211
 20
113.342969
 30
0.0
 10
-131.806211
 20
108.413209
 30
0.0
 10
-131.806211
 20
98.553688
 30
0.0
 10
-131.806211
 20
83.764406
 30
0.0
 10
-131.806211
 20
73.904885
 30
0.0
 10
-131.806211
 20
68.975124
 30
0.0
 11
-131.806211
 21
113.342969
 31
0.0
 11
-131.806211
 21
98.553688
 31
0.0
 11
-131.806211
 21
83.764406
 31
0.0
 11
-131.806211
 21
68.975124
 31
0.0
  0
LINE
  5
10f
100
AcDbEntity
  8
Layer_1
 62
7
100
AcDbLine
 10
-139.442309
 20
57.611248
 30
0.0
 11
-139.442309
 21
57.611248
 31
0.0
  0
SPLINE
  5
110
100
AcDbEntity
  8
Layer_1
 62
7
100
AcDbSpline
 70
0
 71
3
 72
10
 73
6
 74
4
 40
0.000000
 40
0.000000
 40
0.000000
 40
0.000000
 40
4.681351
 40
9.306602
 40
13.985537
 40
13.985537
 40
13.985537
 40
13.985537
 10
-131.806211
 20
68.975124
 30
0.0
 10
-132.286005
 20
67.489539
 30
0.0
 10
-133.239845
 20
64.536173
 30
0.0
 10
-135.720789
 20
60.472641
 30
0.0
 10
-138.197039
 20
58.568708
 30
0.0
 10
-139.442309
 20
57.611248
 30
0.0
 11
-131.806211
 21
68.975124
 31
0.0
 11
-133.421975
 21
64.581452
 31
0.0
 11
-135.915327
 21
60.685795
 31
0.0
 11
-139.442309
 21
57.611248
 31
0.0
  0
SPLINE
  5
111
100
AcDbEntity
  8
Layer_1
 62
7
100
AcDbSpline
 70
0
 71
3
 72
10
 73
6
 74
4
 40
0.000000
 40
0.000000
 40
0.000000
 40
0.000000
 40
1.612186
 40
3.222680
 40
4.834653
 40
4.834653
 40
4.834653
 40
4.834653
 10
-236.867009
 20
114.747134
 30
0.0
 10
-237.397078
 20
114.637673
 30
0.0
 10
-238.456660
 20
114.418866
 30
0.0
 10
-240.094634
 20
114.792537
 30
0.0
 10
-240.949584
 20
115.456526
 30
0.0
 10
-241.377256
 20
115.788673
 30
0.0
 11
-236.867009
 21
114.747134
 31
0.0
 11
-238.465289
 21
114.535846
 31
0.0
 11
-240.034983
 21
114.896058
 31
0.0
 11
-241.377256
 21
115.788673
 31
0.0
  0
SPLINE
  5
112
100
AcDbEntity
  8
Layer_1
 62
7
100
AcDbSpline
 70
0
 71
3
 72
10
 73
6
 74
4
 40
0.000000
 40
0.000000
 40
0.000000
 40
0.000000
 40
1.811439
 40
3.623582
 40
5.435434
 40
5.435434
 40
5.435434
 40
5.435434
 10
-241.377256
 20
115.788673
 30
0.0
 10
-241.762373
 20
116.261295
 30
0.0
 10
-242.532758
 20
117.206723
 30
0.0
 10
-242.904283
 20
119.080278
 30
0.0
 10
-242.551449
 20
120.247959
 30
0.0
 10
-242.375047
 20
120.831752
 30
0.0
 11
-241.377256
 21
115.788673
 31
0.0
 11
-242.401983
 21
117.282408
 31
0.0
 11
-242.754143
 21
119.060004
 31
0.0
 11
-242.375047
 21
120.831752
 31
0.0
  0
SPLINE
  5
113
100
AcDbEntity
  8
Layer_1
 62
7
100
AcDbSpline
 70
0
 71
3
 72
10
 73
6
 74
4
 40
0.000000
 40
0.000000
 40
0.000000
 40
0.000000
 40
1.869172
 40
3.739277
 40
5.608967
 40
5.608967
 40
5.608967
 40
5.608967
 10
-242.375047
 20
120.831752
 30
0.0
 10
-242.053205
 20
121.372855
 30
0.0
 10
-241.409360
 20
122.455330
 30
0.0
 10
-239.702212
 20
123.453819
 30
0.0
 10
-238.442992
 20
123.484946
 30
0.0
 10
-237.813452
 20
123.500508
 30
0.0
 11
-242.375047
 21
120.831752
 31
0.0
 11
-241.286022
 21
122.350907
 31
0.0
 11
-239.671836
 21
123.295203
 31
0.0
 11
-237.813452
 21
123.500508
 31
0.0
  0
SPLINE
  5
114
100
AcDbEntity
  8
Layer_1
 62
7
100
AcDbSpline
 70
0
 71
3
 72
10
 73
6
 74
4
 40
0.000000
 40
0.000000
 40
0.000000
 40
0.000000
 40
1.869167
 40
3.739262
 40
5.608942
 40
5.608942
 40
5.608942
 40
5.608942
 10
-237.813452
 20
123.500508
 30
0.0
 10
-237.199380
 20
123.361635
 30
0.0
 10
-235.970931
 20
123.083819
 30
0.0
 10
-234.493740
 20
121.768822
 30
0.0
 10
-234.075018
 20
120.580855
 30
0.0
 10
-233.865680
 20
119.986937
 30
0.0
 11
-237.813452
 21
123.500508
 31
0.0
 11
-236.032122
 21
122.934252
 31
0.0
 11
-234.635211
 21
121.690910
 31
0.0
 11
-233.865680
 21
119.986937
 31
0.0
  0
SPLINE
  5
115
100
AcDbEntity
  8
Layer_1
 62
7
100
AcDbSpline
 70
0
 71
3
 72
10
 73
6
 74
4
 40
0.000000
 40
0.000000
 40
0.000000
 40
0.000000
 40
1.869164
 40
3.739262
 40
5.608946
 40
5.608946
 40
5.608946
 40
5.608946
 10
-233.865680
 20
119.986937
 30
0.0
 10
-233.808005
 20
119.360005
 30
0.0
 10
-233.692627
 20
118.105828
 30
0.0
 10
-234.486814
 20
116.294600
 30
0.0
 10
-235.487223
 20
115.529242
 30
0.0
 10
-235.987373
 20
115.146606
 30
0.0
 11
-233.865680
 21
119.986937
 31
0.0
 11
-233.853783
 21
118.117811
 31
0.0
 11
-234.604619
 21
116.405062
 31
0.0
 11
-235.987373
 21
115.146606
 31
0.0
  0
LINE
  5
116
100
AcDbEntity
  8
Layer_1
 62
7
100
AcDbLine
 10
-236.867009
 20
114.747134
 30
0.0
 11
-236.867009
 21
114.747134
 31
0.0
  0
SPLINE
  5
117
100
AcDbEntity
  8
Layer_1
 62
7
100
AcDbSpline
 70
0
 71
3
 72
10
 73
6
 74
4
 40
0.000000
 40
0.000000
 40
0.000000
 40
0.000000
 40
0.322610
 40
0.645216
 40
0.967812
 40
0.967812
 40
0.967812
 40
0.967812
 10
-235.987373
 20
115.146606
 30
0.0
 10
-236.081098
 20
115.093830
 30
0.0
 10
-236.268546
 20
114.988278
 30
0.0
 10
-236.562523
 20
114.854035
 30
0.0
 10
-236.765514
 20
114.782768
 30
0.0
 10
-236.867009
 20
114.747134
 30
0.0
 11
-235.987373
 21
115.146606
 31
0.0
 11
-236.270682
 21
114.992291
 31
0.0
 11
-236.564278
 21
114.858591
 31
0.0
 11
-236.867009
 21
114.747134
 31
0.0
  0
SPLINE
  5
118
100
AcDbEntity
  8
Layer_1
 62
7
100
AcDbSpline
 70
0
 71
3
 72
10
 73
6
 74
4
 40
0.000000
 40
0.000000
 40
0.000000
 40
0.000000
 40
1.612186
 40
3.222680
 40
4.834652
 40
4.834652
 40
4.834652
 40
4.834652
 10
-123.767009
 20
114.747134
 30
0.0
 10
-124.297078
 20
114.637674
 30
0.0
 10
-125.356661
 20
114.418866
 30
0.0
 10
-126.994634
 20
114.792538
 30
0.0
 10
-127.849584
 20
115.456526
 30
0.0
 10
-128.277256
 20
115.788673
 30
0.0
 11
-123.767009
 21
114.747134
 31
0.0
 11
-125.365289
 21
114.535847
 31
0.0
 11
-126.934983
 21
114.896060
 31
0.0
 11
-128.277256
 21
115.788673
 31
0.0
  0
SPLINE
  5
119
100
AcDbEntity
  8
Layer_1
 62
7
100
AcDbSpline
 70
0
 71
3
 72
10
 73
6
 74
4
 40
0.000000
 40
0.000000
 40
0.000000
 40
0.000000
 40
1.811439
 40
3.623581
 40
5.435433
 40
5.435433
 40
5.435433
 40
5.435433
 10
-128.277256
 20
115.788673
 30
0.0
 10
-128.662372
 20
116.261295
 30
0.0
 10
-129.432755
 20
117.206724
 30
0.0
 10
-129.804283
 20
119.080278
 30
0.0
 10
-129.451449
 20
120.247959
 30
0.0
 10
-129.275047
 20
120.831752
 30
0.0
 11
-128.277256
 21
115.788673
 31
0.0
 11
-129.301981
 21
117.282410
 31
0.0
 11
-129.654142
 21
119.060004
 31
0.0
 11
-129.275047
 21
120.831752
 31
0.0
  0
SPLINE
  5
11a
100
AcDbEntity
  8
Layer_1
 62
7
100
AcDbSpline
 70
0
 71
3
 72
10
 73
6
 74
4
 40
0.000000
 40
0.000000
 40
0.000000
 40
0.000000
 40
1.869173
 40
3.739279
 40
5.608967
 40
5.608967
 40
5.608967
 40
5.608967
 10
-129.275047
 20
120.831752
 30
0.0
 10
-128.953205
 20
121.372855
 30
0.0
 10
-128.309360
 20
122.455330
 30
0.0
 10
-126.602212
 20
123.453819
 30
0.0
 10
-125.342992
 20
123.484948
 30
0.0
 10
-124.713452
 20
123.500511
 30
0.0
 11
-129.275047
 21
120.831752
 31
0.0
 11
-128.186021
 21
122.350907
 31
0.0
 11
-126.571835
 21
123.295204
 31
0.0
 11
-124.713452
 21
123.500511
 31
0.0
  0
SPLINE
  5
11b
100
AcDbEntity
  8
Layer_1
 62
7
100
AcDbSpline
 70
0
 71
3
 72
10
 73
6
 74
4
 40
0.000000
 40
0.000000
 40
0.000000
 40
0.000000
 40
1.869167
 40
3.739263
 40
5.608943
 40
5.608943
 40
5.608943
 40
5.608943
 10
-124.713452
 20
123.500511
 30
0.0
 10
-124.099381
 20
123.361636
 30
0.0
 10
-122.870932
 20
123.083818
 30
0.0
 10
-121.393739
 20
121.768824
 30
0.0
 10
-120.975018
 20
120.580855
 30
0.0
 10
-120.765680
 20
119.986937
 30
0.0
 11
-124.713452
 21
123.500511
 31
0.0
 11
-122.932123
 21
122.934252
 31
0.0
 11
-121.535211
 21
121.690911
 31
0.0
 11
-120.765680
 21
119.986937
 31
0.0
  0
SPLINE
  5
11c
100
AcDbEntity
  8
Layer_1
 62
7
100
AcDbSpline
 70
0
 71
3
 72
10
 73
6
 74
4
 40
0.000000
 40
0.000000
 40
0.000000
 40
0.000000
 40
1.869165
 40
3.739262
 40
5.608945
 40
5.608945
 40
5.608945
 40
5.608945
 10
-120.765680
 20
119.986937
 30
0.0
 10
-120.708006
 20
119.360005
 30
0.0
 10
-120.592629
 20
118.105827
 30
0.0
 10
-121.386815
 20
116.294599
 30
0.0
 10
-122.387224
 20
115.529242
 30
0.0
 10
-122.887373
 20
115.146606
 30
0.0
 11
-120.765680
 21
119.986937
 31
0.0
 11
-120.753785
 21
118.117810
 31
0.0
 11
-121.504620
 21
116.405061
 31
0.0
 11
-122.887373
 21
115.146606
 31
0.0
  0
LINE
  5
11d
100
AcDbEntity
  8
Layer_1
 62
7
100
AcDbLine
 10
-123.767009
 20
114.747134
 30
0.0
 11
-123.767009
 21
114.747134
 31
0.0
  0
SPLINE
  5
11e
100
AcDbEntity
  8
Layer_1
 62
7
100
AcDbSpline
 70
0
 71
3
 72
10
 73
6
 74
4
 40
0.000000
 40
0.000000
 40
0.000000
 40
0.000000
 40
0.322610
 40
0.645216
 40
0.967812
 40
0.967812
 40
0.967812
 40
0.967812
 10
-122.887373
 20
115.146606
 30
0.0
 10
-122.981098
 20
115.093830
 30
0.0
 10
-123.168547
 20
114.988278
 30
0.0
 10
-123.462523
 20
114.854035
 30
0.0
 10
-123.665515
 20
114.782768
 30
0.0
 10
-123.767009
 20
114.747134
 30
0.0
 11
-122.887373
 21
115.146606
 31
0.0
 11
-123.170683
 21
114.992291
 31
0.0
 11
-123.464279
 21
114.858591
 31
0.0
 11
-123.767009
 21
114.747134
 31
0.0
  0
SPLINE
  5
11f
100
AcDbEntity
  8
Layer_1
 62
7
100
AcDbSpline
 70
0
 71
3
 72
10
 73
6
 74
4
 40
0.000000
 40
0.000000
 40
0.000000
 40
0.000000
 40
1.612148
 40
3.222599
 40
4.834528
 40
4.834528
 40
4.834528
 40
4.834528
 10
-233.757608
 20
71.526949
 30
0.0
 10
-233.817307
 20
70.989011
 30
0.0
 10
-233.936640
 20
69.913702
 30
0.0
 10
-234.798137
 20
68.471395
 30
0.0
 10
-235.693788
 20
67.863473
 30
0.0
 10
-236.141819
 20
67.559373
 30
0.0
 11
-233.757608
 21
71.526949
 31
0.0
 11
-234.050554
 21
69.941640
 31
0.0
 11
-234.878159
 21
68.560111
 31
0.0
 11
-236.141819
 21
67.559373
 31
0.0
  0
SPLINE
  5
120
100
AcDbEntity
  8
Layer_1
 62
7
100
AcDbSpline
 70
0
 71
3
 72
10
 73
6
 74
4
 40
0.000000
 40
0.000000
 40
0.000000
 40
0.000000
 40
1.811466
 40
3.623637
 40
5.435514
 40
5.435514
 40
5.435514
 40
5.435514
 10
-236.141819
 20
67.559373
 30
0.0
 10
-236.710325
 20
67.339150
 30
0.0
 10
-237.847560
 20
66.898619
 30
0.0
 10
-239.744251
 20
67.124230
 30
0.0
 10
-240.745771
 20
67.820629
 30
0.0
 10
-241.246491
 20
68.168801
 30
0.0
 11
-236.141819
 21
67.559373
 31
0.0
 11
-237.879129
 21
67.046381
 31
0.0
 11
-239.678576
 21
67.260758
 31
0.0
 11
-241.246491
 21
68.168801
 31
0.0
  0
SPLINE
  5
121
100
AcDbEntity
  8
Layer_1
 62
7
100
AcDbSpline
 70
0
 71
3
 72
10
 73
6
 74
4
 40
0.000000
 40
0.000000
 40
0.000000
 40
0.000000
 40
1.869149
 40
3.739233
 40
5.608899
 40
5.608899
 40
5.608899
 40
5.608899
 10
-241.246491
 20
68.168801
 30
0.0
 10
-241.661652
 20
68.642092
 30
0.0
 10
-242.492183
 20
69.588912
 30
0.0
 10
-242.914277
 20
71.521029
 30
0.0
 10
-242.554775
 20
72.728226
 30
0.0
 10
-242.375044
 20
73.331757
 30
0.0
 11
-241.246491
 21
68.168801
 31
0.0
 11
-242.354760
 21
69.673945
 31
0.0
 11
-242.754039
 21
71.500906
 31
0.0
 11
-242.375044
 21
73.331757
 31
0.0
  0
SPLINE
  5
122
100
AcDbEntity
  8
Layer_1
 62
7
100
AcDbSpline
 70
0
 71
3
 72
10
 73
6
 74
4
 40
0.000000
 40
0.000000
 40
0.000000
 40
0.000000
 40
1.869195
 40
3.739319
 40
5.609026
 40
5.609026
 40
5.609026
 40
5.609026
 10
-242.375044
 20
73.331757
 30
0.0
 10
-242.053202
 20
73.872866
 30
0.0
 10
-241.409358
 20
74.955353
 30
0.0
 10
-239.702234
 20
75.953926
 30
0.0
 10
-238.442997
 20
75.985056
 30
0.0
 10
-237.813449
 20
76.000620
 30
0.0
 11
-242.375044
 21
73.331757
 31
0.0
 11
-241.286022
 21
74.850941
 31
0.0
 11
-239.671848
 21
75.795297
 31
0.0
 11
-237.813449
 21
76.000620
 31
0.0
  0
SPLINE
  5
123
100
AcDbEntity
  8
Layer_1
 62
7
100
AcDbSpline
 70
0
 71
3
 72
10
 73
6
 74
4
 40
0.000000
 40
0.000000
 40
0.000000
 40
0.000000
 40
1.869178
 40
3.739294
 40
5.608992
 40
5.608992
 40
5.608992
 40
5.608992
 10
-237.813449
 20
76.000620
 30
0.0
 10
-237.199375
 20
75.861733
 30
0.0
 10
-235.970919
 20
75.583891
 30
0.0
 10
-234.493762
 20
74.268837
 30
0.0
 10
-234.075027
 20
73.080865
 30
0.0
 10
-233.865682
 20
72.486945
 30
0.0
 11
-237.813449
 21
76.000620
 31
0.0
 11
-236.032120
 21
75.434322
 31
0.0
 11
-234.635225
 21
74.190933
 31
0.0
 11
-233.865682
 21
72.486945
 31
0.0
  0
LINE
  5
124
100
AcDbEntity
  8
Layer_1
 62
7
100
AcDbLine
 10
-233.757608
 20
71.526949
 30
0.0
 11
-233.757608
 21
71.526949
 31
0.0
  0
SPLINE
  5
125
100
AcDbEntity
  8
Layer_1
 62
7
100
AcDbSpline
 70
0
 71
3
 72
10
 73
6
 74
4
 40
0.000000
 40
0.000000
 40
0.000000
 40
0.000000
 40
0.322598
 40
0.645193
 40
0.967778
 40
0.967778
 40
0.967778
 40
0.967778
 10
-233.865682
 20
72.486945
 30
0.0
 10
-233.844456
 20
72.381502
 30
0.0
 10
-233.802002
 20
72.170617
 30
0.0
 10
-233.765182
 20
71.849555
 30
0.0
 10
-233.760133
 20
71.634483
 30
0.0
 10
-233.757608
 20
71.526949
 30
0.0
 11
-233.865682
 21
72.486945
 31
0.0
 11
-233.806478
 21
72.169826
 31
0.0
 11
-233.770056
 21
71.849294
 31
0.0
 11
-233.757608
 21
71.526949
 31
0.0
  0
SPLINE
  5
126
100
AcDbEntity
  8
Layer_1
 62
7
100
AcDbSpline
 70
0
 71
3
 72
10
 73
6
 74
4
 40
0.000000
 40
0.000000
 40
0.000000
 40
0.000000
 40
1.612136
 40
3.222582
 40
4.834504
 40
4.834504
 40
4.834504
 40
4.834504
 10
-128.798210
 20
68.881934
 30
0.0
 10
-129.066100
 20
69.352223
 30
0.0
 10
-129.601598
 20
70.292308
 30
0.0
 10
-129.752380
 20
71.965525
 30
0.0
 10
-129.385128
 20
72.983795
 30
0.0
 10
-129.201418
 20
73.493163
 30
0.0
 11
-128.798210
 21
68.881934
 31
0.0
 11
-129.493018
 21
70.336659
 31
0.0
 11
-129.635503
 21
71.940789
 31
0.0
 11
-129.201418
 21
73.493163
 31
0.0
  0
SPLINE
  5
127
100
AcDbEntity
  8
Layer_1
 62
7
100
AcDbSpline
 70
0
 71
3
 72
10
 73
6
 74
4
 40
0.000000
 40
0.000000
 40
0.000000
 40
0.000000
 40
1.811479
 40
3.623660
 40
5.435551
 40
5.435551
 40
5.435551
 40
5.435551
 10
-129.201418
 20
73.493163
 30
0.0
 10
-128.870940
 20
74.005498
 30
0.0
 10
-128.209855
 20
75.030366
 30
0.0
 10
-126.542787
 20
75.962730
 30
0.0
 10
-125.323196
 20
75.987991
 30
0.0
 10
-124.713450
 20
76.000620
 30
0.0
 11
-129.201418
 21
73.493163
 31
0.0
 11
-128.097456
 21
74.929382
 31
0.0
 11
-126.515669
 21
75.813661
 31
0.0
 11
-124.713450
 21
76.000620
 31
0.0
  0
SPLINE
  5
128
100
AcDbEntity
  8
Layer_1
 62
7
100
AcDbSpline
 70
0
 71
3
 72
10
 73
6
 74
4
 40
0.000000
 40
0.000000
 40
0.000000
 40
0.000000
 40
1.869179
 40
3.739295
 40
5.608993
 40
5.608993
 40
5.608993
 40
5.608993
 10
-124.713450
 20
76.000620
 30
0.0
 10
-124.099375
 20
75.861734
 30
0.0
 10
-122.870918
 20
75.583893
 30
0.0
 10
-121.393762
 20
74.268837
 30
0.0
 10
-120.975027
 20
73.080865
 30
0.0
 10
-120.765683
 20
72.486945
 30
0.0
 11
-124.713450
 21
76.000620
 31
0.0
 11
-122.932119
 21
75.434324
 31
0.0
 11
-121.535224
 21
74.190933
 31
0.0
 11
-120.765683
 21
72.486945
 31
0.0
  0
SPLINE
  5
129
100
AcDbEntity
  8
Layer_1
 62
7
100
AcDbSpline
 70
0
 71
3
 72
10
 73
6
 74
4
 40
0.000000
 40
0.000000
 40
0.000000
 40
0.000000
 40
1.869154
 40
3.739238
 40
5.608905
 40
5.608905
 40
5.608905
 40
5.608905
 10
-120.765683
 20
72.486945
 30
0.0
 10
-120.708006
 20
71.860017
 30
0.0
 10
-120.592623
 20
70.605850
 30
0.0
 10
-121.386787
 20
68.794619
 30
0.0
 10
-122.387219
 20
68.029300
 30
0.0
 10
-122.887379
 20
67.646684
 30
0.0
 11
-120.765683
 21
72.486945
 31
0.0
 11
-120.753777
 21
70.617829
 31
0.0
 11
-121.504603
 21
68.905090
 31
0.0
 11
-122.887379
 21
67.646684
 31
0.0
  0
SPLINE
  5
12a
100
AcDbEntity
  8
Layer_1
 62
7
100
AcDbSpline
 70
0
 71
3
 72
10
 73
6
 74
4
 40
0.000000
 40
0.000000
 40
0.000000
 40
0.000000
 40
1.869183
 40
3.739298
 40
5.608996
 40
5.608996
 40
5.608996
 40
5.608996
 10
-122.887379
 20
67.646684
 30
0.0
 10
-123.465811
 20
67.398101
 30
0.0
 10
-124.622963
 20
66.900811
 30
0.0
 10
-126.590981
 20
67.096412
 30
0.0
 10
-127.628026
 20
67.811366
 30
0.0
 10
-128.146491
 20
68.168804
 30
0.0
 11
-122.887379
 21
67.646684
 31
0.0
 11
-124.661368
 21
67.057779
 31
0.0
 11
-126.522328
 21
67.242593
 31
0.0
 11
-128.146491
 21
68.168804
 31
0.0
  0
LINE
  5
12b
100
AcDbEntity
  8
Layer_1
 62
7
100
AcDbLine
 10
-128.798210
 20
68.881934
 30
0.0
 11
-128.798210
 21
68.881934
 31
0.0
  0
SPLINE
  5
12c
100
AcDbEntity
  8
Layer_1
 62
7
100
AcDbSpline
 70
0
 71
3
 72
10
 73
6
 74
4
 40
0.000000
 40
0.000000
 40
0.000000
 40
0.000000
 40
0.322602
 40
0.645201
 40
0.967789
 40
0.967789
 40
0.967789
 40
0.967789
 10
-128.146491
 20
68.168804
 30
0.0
 10
-128.225644
 20
68.241632
 30
0.0
 10
-128.383949
 20
68.387287
 30
0.0
 10
-128.602457
 20
68.625389
 30
0.0
 10
-128.732960
 20
68.796420
 30
0.0
 10
-128.798210
 20
68.881934
 30
0.0
 11
-128.146491
 21
68.168804
 31
0.0
 11
-128.380792
 21
68.390559
 31
0.0
 11
-128.598667
 21
68.628466
 31
0.0
 11
-128.798210
 21
68.881934
 31
0.0
  0
ENDSEC
  0
SECTION
  2
OBJECTS
  0
DICTIONARY
  5
C
330
0
100
AcDbDictionary
  3
ACAD_GROUP
350
D
  3
ACAD_MLINESTYLE
350
17
  0
DICTIONARY
  5
D
330
C
100
AcDbDictionary
  0
DICTIONARY
  5
1A
330
C
100
AcDbDictionary
  0
DICTIONARY
  5
17
330
C
100
AcDbDictionary
  3
STANDARD
350
18
  0
DICTIONARY
  5
19
330
C
100
AcDbDictionary
  0
ENDSEC
  0
EOF
