  0
SECTION
  2
HEADER
  9
$ACADVER
  1
AC1014
  9
$HANDSEED
  5
FFFF
  9
$MEASUREMENT
 70
     1
  0
ENDSEC
  0
SECTION
  2
TABLES
  0
TABLE
  2
VPORT
  5
8
330
0
100
AcDbSymbolTable
 70
     4
  0
VPORT
  5
2E
330
8
100
AcDbSymbolTableRecord
100
AcDbViewportTableRecord
  2
*ACTIVE
 70
     0
 10
0.0
 20
0.0
 11
1.0
 21
1.0
 12
210.0
 22
148.5
 13
0.0
 23
0.0
 14
10.0
 24
10.0
 15
10.0
 25
10.0
 16
0.0
 26
0.0
 36
1.0
 17
0.0
 27
0.0
 37
0.0
 40
341.0
 41
1.24
 42
50.0
 43
0.0
 44
0.0
 50
0.0
 51
0.0
 71
     0
 72
   100
 73
     1
 74
     3
 75
     0
 76
     0
 77
     0
 78
     0
  0
ENDTAB
  0
TABLE
  2
LTYPE
  5
5
330
0
100
AcDbSymbolTable
 70
     1
  0
LTYPE
  5
14
330
5
100
AcDbSymbolTableRecord
100
AcDbLinetypeTableRecord
  2
BYBLOCK
 70
     0
  3

 72
    65
 73
     0
 40
0.0
  0
LTYPE
  5
15
330
5
100
AcDbSymbolTableRecord
100
AcDbLinetypeTableRecord
  2
BYLAYER
 70
     0
  3

 72
    65
 73
     0
 40
0.0
  0
LTYPE
  5
16
330
5
100
AcDbSymbolTableRecord
100
AcDbLinetypeTableRecord
  2
CONTINUOUS
 70
     0
  3
Solid line
 72
    65
 73
     0
 40
0.0
  0
ENDTAB
  0
TABLE
  2
LAYER
  5
2
100
AcDbSymbolTable
 70
2
  0
LAYER
  5
50
100
AcDbSymbolTableRecord
100
AcDbLayerTableRecord
  2
0
 70
0
  6
CONTINUOUS
  0
LAYER
  5
51
100
AcDbSymbolTableRecord
100
AcDbLayerTableRecord
  2
Layer_1
 70
0
  6
CONTINUOUS
  0
ENDTAB
  0
TABLE
  2
STYLE
  5
3
330
0
100
AcDbSymbolTable
 70
     1
  0
STYLE
  5
11
330
3
100
AcDbSymbolTableRecord
100
AcDbTextStyleTableRecord
  2
STANDARD
 70
     0
 40
0.0
 41
1.0
 50
0.0
 71
     0
 42
2.5
  3
txt
  4

  0
ENDTAB
  0
TABLE
  2
VIEW
  5
6
330
0
100
AcDbSymbolTable
 70
     0
  0
ENDTAB
  0
TABLE
  2
UCS
  5
7
330
0
100
AcDbSymbolTable
 70
     0
  0
ENDTAB
  0
TABLE
  2
APPID
  5
9
330
0
100
AcDbSymbolTable
 70
     2
  0
APPID
  5
12
330
9
100
AcDbSymbolTableRecord
100
AcDbRegAppTableRecord
  2
ACAD
 70
     0
  0
ENDTAB
  0
TABLE
  2
DIMSTYLE
  5
A
330
0
100
AcDbSymbolTable
 70
     1
  0
DIMSTYLE
105
27
330
A
100
AcDbSymbolTableRecord
100
AcDbDimStyleTableRecord
  2
ISO-25
 70
     0
  3

  4

  5

  6

  7

 40
1.0
 41
2.5
 42
0.625
 43
3.75
 44
1.25
 45
0.0
 46
0.0
 47
0.0
 48
0.0
140
2.5
141
2.5
142
0.0
143
0.03937007874016
144
1.0
145
0.0
146
1.0
147
0.625
 71
     0
 72
     0
 73
     0
 74
     0
 75
     0
 76
     0
 77
     1
 78
     8
170
     0
171
     3
172
     1
173
     0
174
     0
175
     0
176
     0
177
     0
178
     0
270
     2
271
     2
272
     2
273
     2
274
     3
340
11
275
     0
280
     0
281
     0
282
     0
283
     0
284
     8
285
     0
286
     0
287
     3
288
     0
  0
ENDTAB
  0
TABLE
  2
BLOCK_RECORD
  5
1
330
0
100
AcDbSymbolTable
 70
     1
  0
BLOCK_RECORD
  5
1F
330
1
100
AcDbSymbolTableRecord
100
AcDbBlockTableRecord
  2
*MODEL_SPACE
  0
BLOCK_RECORD
  5
1B
330
1
100
AcDbSymbolTableRecord
100
AcDbBlockTableRecord
  2
*PAPER_SPACE
  0
ENDTAB
  0
ENDSEC
  0
SECTION
  2
BLOCKS
  0
BLOCK
  5
20
330
1F
100
AcDbEntity
  8
0
100
AcDbBlockBegin
  2
*MODEL_SPACE
 70
     0
 10
0.0
 20
0.0
 30
0.0
  3
*MODEL_SPACE
  1

  0
ENDBLK
  5
21
330
1F
100
AcDbEntity
  8
0
100
AcDbBlockEnd
  0
BLOCK
  5
1C
330
1B
100
AcDbEntity
 67
     1
  8
0
100
AcDbBlockBegin
  2
*PAPER_SPACE
  1

  0
ENDBLK
  5
1D
330
1B
100
AcDbEntity
 67
     1
  8
0
100
AcDbBlockEnd
  0
ENDSEC
  0
SECTION
  2
ENTITIES
  0
LINE
  5
100
100
AcDbEntity
  8
Layer_1
 62
7
100
AcDbLine
 10
-113.284133
 20
224.139685
 30
0.0
 11
-238.284131
 21
224.139685
 31
0.0
  0
LINE
  5
101
100
AcDbEntity
  8
Layer_1
 62
7
100
AcDbLine
 10
-238.284131
 20
224.139685
 30
0.0
 11
-238.284131
 21
116.139681
 31
0.0
  0
LINE
  5
102
100
AcDbEntity
  8
Layer_1
 62
7
100
AcDbLine
 10
-238.284131
 20
116.139681
 30
0.0
 11
-113.284133
 21
116.139681
 31
0.0
  0
LINE
  5
103
100
AcDbEntity
  8
Layer_1
 62
7
100
AcDbLine
 10
-113.284133
 20
116.139681
 30
0.0
 11
-113.284133
 21
224.139685
 31
0.0
  0
LINE
  5
104
100
AcDbEntity
  8
Layer_1
 62
7
100
AcDbLine
 10
-211.685530
 20
138.837883
 30
0.0
 11
-216.685532
 21
143.837873
 31
0.0
  0
LINE
  5
105
100
AcDbEntity
  8
Layer_1
 62
7
100
AcDbLine
 10
-216.685532
 20
143.837873
 30
0.0
 11
-216.685532
 21
196.441485
 31
0.0
  0
LINE
  5
106
100
AcDbEntity
  8
Layer_1
 62
7
100
AcDbLine
 10
-216.685532
 20
196.441485
 30
0.0
 11
-211.685530
 21
201.441483
 31
0.0
  0
LINE
  5
107
100
AcDbEntity
  8
Layer_1
 62
7
100
AcDbLine
 10
-211.685530
 20
201.441483
 30
0.0
 11
-139.882733
 21
201.441483
 31
0.0
  0
LINE
  5
108
100
AcDbEntity
  8
Layer_1
 62
7
100
AcDbLine
 10
-139.882733
 20
201.441483
 30
0.0
 11
-134.882732
 21
196.441485
 31
0.0
  0
LINE
  5
109
100
AcDbEntity
  8
Layer_1
 62
7
100
AcDbLine
 10
-134.882732
 20
196.441485
 30
0.0
 11
-134.882732
 21
143.837873
 31
0.0
  0
LINE
  5
10a
100
AcDbEntity
  8
Layer_1
 62
7
100
AcDbLine
 10
-134.882732
 20
143.837873
 30
0.0
 11
-139.882733
 21
138.837883
 31
0.0
  0
LINE
  5
10b
100
AcDbEntity
  8
Layer_1
 62
7
100
AcDbLine
 10
-139.882733
 20
138.837883
 30
0.0
 11
-211.685530
 21
138.837883
 31
0.0
  0
SPLINE
  5
10c
100
AcDbEntity
  8
Layer_1
 62
7
100
AcDbSpline
 70
0
 71
3
 72
10
 73
6
 74
4
 40
0.000000
 40
0.000000
 40
0.000000
 40
0.000000
 40
1.002963
 40
2.004802
 40
3.007673
 40
3.007673
 40
3.007673
 40
3.007673
 10
-230.109333
 20
195.506085
 30
0.0
 10
-229.943132
 20
195.213109
 30
0.0
 10
-229.610917
 20
194.627486
 30
0.0
 10
-229.527633
 20
193.584126
 30
0.0
 10
-229.767028
 20
192.954510
 30
0.0
 10
-229.886787
 20
192.639539
 30
0.0
 11
-230.109333
 21
195.506085
 31
0.0
 11
-229.679984
 21
194.599666
 31
0.0
 11
-229.601312
 21
193.600921
 31
0.0
 11
-229.886787
 21
192.639539
 31
0.0
  0
SPLINE
  5
10d
100
AcDbEntity
  8
Layer_1
 62
7
100
AcDbSpline
 70
0
 71
3
 72
10
 73
6
 74
4
 40
0.000000
 40
0.000000
 40
0.000000
 40
0.000000
 40
1.107140
 40
2.214499
 40
3.321904
 40
3.321904
 40
3.321904
 40
3.321904
 10
-229.886787
 20
192.639539
 30
0.0
 10
-230.095017
 20
192.330538
 30
0.0
 10
-230.511519
 20
191.712474
 30
0.0
 10
-231.541287
 20
191.162898
 30
0.0
 10
-232.286764
 20
191.161930
 30
0.0
 10
-232.659510
 20
191.161446
 30
0.0
 11
-229.886787
 21
192.639539
 31
0.0
 11
-230.578959
 21
191.775447
 31
0.0
 11
-231.556001
 21
191.254262
 31
0.0
 11
-232.659510
 21
191.161446
 31
0.0
  0
SPLINE
  5
10e
100
AcDbEntity
  8
Layer_1
 62
7
100
AcDbSpline
 70
0
 71
3
 72
10
 73
6
 74
4
 40
0.000000
 40
0.000000
 40
0.000000
 40
0.000000
 40
1.124623
 40
2.249760
 40
3.374674
 40
3.374674
 40
3.374674
 40
3.374674
 10
-232.659510
 20
191.161446
 30
0.0
 10
-233.027259
 20
191.251658
 30
0.0
 10
-233.762925
 20
191.432124
 30
0.0
 10
-234.642469
 20
192.230530
 30
0.0
 10
-234.892889
 20
192.945542
 30
0.0
 10
-235.018086
 20
193.303013
 30
0.0
 11
-232.659510
 21
191.161446
 31
0.0
 11
-233.725447
 21
191.519992
 31
0.0
 11
-234.558507
 21
192.276262
 31
0.0
 11
-235.018086
 21
193.303013
 31
0.0
  0
SPLINE
  5
10f
100
AcDbEntity
  8
Layer_1
 62
7
100
AcDbSpline
 70
0
 71
3
 72
10
 73
6
 74
4
 40
0.000000
 40
0.000000
 40
0.000000
 40
0.000000
 40
1.142267
 40
2.285104
 40
3.427687
 40
3.427687
 40
3.427687
 40
3.427687
 10
-235.018086
 20
193.303013
 30
0.0
 10
-235.053333
 20
193.686138
 30
0.0
 10
-235.123844
 20
194.452579
 30
0.0
 10
-234.638507
 20
195.559443
 30
0.0
 10
-234.027136
 20
196.027148
 30
0.0
 10
-233.721484
 20
196.260975
 30
0.0
 11
-235.018086
 21
193.303013
 31
0.0
 11
-235.025359
 21
194.445256
 31
0.0
 11
-234.566512
 21
195.491935
 31
0.0
 11
-233.721484
 21
196.260975
 31
0.0
  0
SPLINE
  5
110
100
AcDbEntity
  8
Layer_1
 62
7
100
AcDbSpline
 70
0
 71
3
 72
10
 73
6
 74
4
 40
0.000000
 40
0.000000
 40
0.000000
 40
0.000000
 40
1.142274
 40
2.285118
 40
3.427708
 40
3.427708
 40
3.427708
 40
3.427708
 10
-233.721484
 20
196.260975
 30
0.0
 10
-233.368000
 20
196.412891
 30
0.0
 10
-232.660857
 20
196.716797
 30
0.0
 10
-231.458181
 20
196.597259
 30
0.0
 10
-230.824440
 20
196.160333
 30
0.0
 10
-230.507605
 20
195.941895
 30
0.0
 11
-233.721484
 21
196.260975
 31
0.0
 11
-232.637387
 21
196.620870
 31
0.0
 11
-231.500138
 21
196.507924
 31
0.0
 11
-230.507605
 21
195.941895
 31
0.0
  0
LINE
  5
111
100
AcDbEntity
  8
Layer_1
 62
7
100
AcDbLine
 10
-230.109333
 20
195.506085
 30
0.0
 11
-230.109333
 21
195.506085
 31
0.0
  0
SPLINE
  5
112
100
AcDbEntity
  8
Layer_1
 62
7
100
AcDbSpline
 70
0
 71
3
 72
10
 73
6
 74
4
 40
0.000000
 40
0.000000
 40
0.000000
 40
0.000000
 40
0.197148
 40
0.394293
 40
0.591432
 40
0.591432
 40
0.591432
 40
0.591432
 10
-230.507605
 20
195.941895
 30
0.0
 10
-230.459234
 20
195.897387
 30
0.0
 10
-230.362493
 20
195.808373
 30
0.0
 10
-230.228960
 20
195.662863
 30
0.0
 10
-230.149208
 20
195.558344
 30
0.0
 10
-230.109333
 20
195.506085
 30
0.0
 11
-230.507605
 21
195.941895
 31
0.0
 11
-230.364422
 21
195.806374
 31
0.0
 11
-230.231276
 21
195.660983
 31
0.0
 11
-230.109333
 21
195.506085
 31
0.0
  0
SPLINE
  5
113
100
AcDbEntity
  8
Layer_1
 62
7
100
AcDbSpline
 70
0
 71
3
 72
10
 73
6
 74
4
 40
0.000000
 40
0.000000
 40
0.000000
 40
0.000000
 40
1.002966
 40
2.004808
 40
3.007683
 40
3.007683
 40
3.007683
 40
3.007683
 10
-116.484132
 20
193.889685
 30
0.0
 10
-116.521880
 20
193.554971
 30
0.0
 10
-116.597335
 20
192.885919
 30
0.0
 10
-117.143234
 20
191.992870
 30
0.0
 10
-117.706987
 20
191.624208
 30
0.0
 10
-117.989009
 20
191.439782
 30
0.0
 11
-116.484132
 21
193.889685
 31
0.0
 11
-116.669564
 21
192.904010
 31
0.0
 11
-117.192968
 21
192.049764
 31
0.0
 11
-117.989009
 21
191.439782
 31
0.0
  0
SPLINE
  5
114
100
AcDbEntity
  8
Layer_1
 62
7
100
AcDbSpline
 70
0
 71
3
 72
10
 73
6
 74
4
 40
0.000000
 40
0.000000
 40
0.000000
 40
0.000000
 40
1.107139
 40
2.214499
 40
3.321904
 40
3.321904
 40
3.321904
 40
3.321904
 10
-117.989009
 20
191.439782
 30
0.0
 10
-118.339097
 20
191.312189
 30
0.0
 10
-119.039343
 20
191.056978
 30
0.0
 10
-120.195476
 20
191.217645
 30
0.0
 10
-120.799147
 20
191.655045
 30
0.0
 10
-121.100988
 20
191.873749
 30
0.0
 11
-117.989009
 21
191.439782
 31
0.0
 11
-119.056887
 21
191.147565
 31
0.0
 11
-120.153677
 21
191.300210
 31
0.0
 11
-121.100988
 21
191.873749
 31
0.0
  0
SPLINE
  5
115
100
AcDbEntity
  8
Layer_1
 62
7
100
AcDbSpline
 70
0
 71
3
 72
10
 73
6
 74
4
 40
0.000000
 40
0.000000
 40
0.000000
 40
0.000000
 40
1.124620
 40
2.249752
 40
3.374660
 40
3.374660
 40
3.374660
 40
3.374660
 10
-121.100988
 20
191.873749
 30
0.0
 10
-121.345477
 20
192.162889
 30
0.0
 10
-121.834567
 20
192.741300
 30
0.0
 10
-122.076846
 20
193.904201
 30
0.0
 10
-121.859166
 20
194.629848
 30
0.0
 10
-121.750336
 20
194.992635
 30
0.0
 11
-121.100988
 21
191.873749
 31
0.0
 11
-121.752600
 21
192.790358
 31
0.0
 11
-121.982039
 21
193.891848
 31
0.0
 11
-121.750336
 21
194.992635
 31
0.0
  0
SPLINE
  5
116
100
AcDbEntity
  8
Layer_1
 62
7
100
AcDbSpline
 70
0
 71
3
 72
10
 73
6
 74
4
 40
0.000000
 40
0.000000
 40
0.000000
 40
0.000000
 40
1.142274
 40
2.285115
 40
3.427703
 40
3.427703
 40
3.427703
 40
3.427703
 10
-121.750336
 20
194.992635
 30
0.0
 10
-121.553655
 20
195.323309
 30
0.0
 10
-121.160195
 20
195.984821
 30
0.0
 10
-120.116949
 20
196.595027
 30
0.0
 10
-119.347425
 20
196.614052
 30
0.0
 10
-118.962706
 20
196.623563
 30
0.0
 11
-121.750336
 21
194.992635
 31
0.0
 11
-121.084823
 21
195.921010
 31
0.0
 11
-120.098383
 21
196.498093
 31
0.0
 11
-118.962706
 21
196.623563
 31
0.0
  0
SPLINE
  5
117
100
AcDbEntity
  8
Layer_1
 62
7
100
AcDbSpline
 70
0
 71
3
 72
10
 73
6
 74
4
 40
0.000000
 40
0.000000
 40
0.000000
 40
0.000000
 40
1.142271
 40
2.285112
 40
3.427698
 40
3.427698
 40
3.427698
 40
3.427698
 10
-118.962706
 20
196.623563
 30
0.0
 10
-118.587440
 20
196.538693
 30
0.0
 10
-117.836719
 20
196.368909
 30
0.0
 10
-116.934001
 20
195.565286
 30
0.0
 10
-116.678109
 20
194.839307
 30
0.0
 10
-116.550178
 20
194.476357
 30
0.0
 11
-118.962706
 21
196.623563
 31
0.0
 11
-117.874116
 21
196.277507
 31
0.0
 11
-117.020453
 21
195.517675
 31
0.0
 11
-116.550178
 21
194.476357
 31
0.0
  0
LINE
  5
118
100
AcDbEntity
  8
Layer_1
 62
7
100
AcDbLine
 10
-116.484132
 20
193.889685
 30
0.0
 11
-116.484132
 21
193.889685
 31
0.0
  0
SPLINE
  5
119
100
AcDbEntity
  8
Layer_1
 62
7
100
AcDbSpline
 70
0
 71
3
 72
10
 73
6
 74
4
 40
0.000000
 40
0.000000
 40
0.000000
 40
0.000000
 40
0.197147
 40
0.394290
 40
0.591428
 40
0.591428
 40
0.591428
 40
0.591428
 10
-116.550178
 20
194.476357
 30
0.0
 10
-116.537206
 20
194.411919
 30
0.0
 10
-116.511262
 20
194.283042
 30
0.0
 10
-116.488759
 20
194.086836
 30
0.0
 10
-116.485674
 20
193.955401
 30
0.0
 10
-116.484132
 20
193.889685
 30
0.0
 11
-116.550178
 21
194.476357
 31
0.0
 11
-116.513997
 21
194.282559
 31
0.0
 11
-116.491738
 21
194.086676
 31
0.0
 11
-116.484132
 21
193.889685
 31
0.0
  0
SPLINE
  5
11a
100
AcDbEntity
  8
Layer_1
 62
7
100
AcDbSpline
 70
0
 71
3
 72
10
 73
6
 74
4
 40
0.000000
 40
0.000000
 40
0.000000
 40
0.000000
 40
1.002971
 40
2.004821
 40
3.007703
 40
3.007703
 40
3.007703
 40
3.007703
 10
-234.558930
 20
144.773270
 30
0.0
 10
-234.725131
 20
145.066249
 30
0.0
 10
-235.057347
 20
145.651879
 30
0.0
 10
-235.140630
 20
146.695249
 30
0.0
 10
-234.901236
 20
147.324873
 30
0.0
 10
-234.781477
 20
147.639847
 30
0.0
 11
-234.558930
 21
144.773270
 31
0.0
 11
-234.988280
 21
145.679698
 31
0.0
 11
-235.066951
 21
146.678453
 31
0.0
 11
-234.781477
 21
147.639847
 31
0.0
  0
SPLINE
  5
11b
100
AcDbEntity
  8
Layer_1
 62
7
100
AcDbSpline
 70
0
 71
3
 72
10
 73
6
 74
4
 40
0.000000
 40
0.000000
 40
0.000000
 40
0.000000
 40
1.107132
 40
2.214486
 40
3.321887
 40
3.321887
 40
3.321887
 40
3.321887
 10
-234.781477
 20
147.639847
 30
0.0
 10
-234.573246
 20
147.948845
 30
0.0
 10
-234.156742
 20
148.566904
 30
0.0
 10
-233.126973
 20
149.116463
 30
0.0
 10
-232.381500
 20
149.117431
 30
0.0
 10
-232.008756
 20
149.117915
 30
0.0
 11
-234.781477
 21
147.639847
 31
0.0
 11
-234.089303
 21
148.503929
 31
0.0
 11
-233.112261
 21
149.025101
 31
0.0
 11
-232.008756
 21
149.117915
 31
0.0
  0
SPLINE
  5
11c
100
AcDbEntity
  8
Layer_1
 62
7
100
AcDbSpline
 70
0
 71
3
 72
10
 73
6
 74
4
 40
0.000000
 40
0.000000
 40
0.000000
 40
0.000000
 40
1.124622
 40
2.249755
 40
3.374664
 40
3.374664
 40
3.374664
 40
3.374664
 10
-232.008756
 20
149.117915
 30
0.0
 10
-231.641007
 20
149.027705
 30
0.0
 10
-230.905342
 20
148.847245
 30
0.0
 10
-230.025790
 20
148.048850
 30
0.0
 10
-229.775373
 20
147.333840
 30
0.0
 10
-229.650177
 20
146.976370
 30
0.0
 11
-232.008756
 21
149.117915
 31
0.0
 11
-230.942818
 21
148.759377
 31
0.0
 11
-230.109754
 21
148.003117
 31
0.0
 11
-229.650177
 21
146.976370
 31
0.0
  0
SPLINE
  5
11d
100
AcDbEntity
  8
Layer_1
 62
7
100
AcDbSpline
 70
0
 71
3
 72
10
 73
6
 74
4
 40
0.000000
 40
0.000000
 40
0.000000
 40
0.000000
 40
1.142274
 40
2.285118
 40
3.427707
 40
3.427707
 40
3.427707
 40
3.427707
 10
-229.650177
 20
146.976370
 30
0.0
 10
-229.614930
 20
146.593243
 30
0.0
 10
-229.544419
 20
145.826799
 30
0.0
 10
-230.029744
 20
144.719921
 30
0.0
 10
-230.641124
 20
144.252217
 30
0.0
 10
-230.946779
 20
144.018391
 30
0.0
 11
-229.650177
 21
146.976370
 31
0.0
 11
-229.642902
 21
145.834119
 31
0.0
 11
-230.101743
 21
144.787431
 31
0.0
 11
-230.946779
 21
144.018391
 31
0.0
  0
SPLINE
  5
11e
100
AcDbEntity
  8
Layer_1
 62
7
100
AcDbSpline
 70
0
 71
3
 72
10
 73
6
 74
4
 40
0.000000
 40
0.000000
 40
0.000000
 40
0.000000
 40
1.142272
 40
2.285113
 40
3.427699
 40
3.427699
 40
3.427699
 40
3.427699
 10
-230.946779
 20
144.018391
 30
0.0
 10
-231.300263
 20
143.866479
 30
0.0
 10
-232.007407
 20
143.562579
 30
0.0
 10
-233.210078
 20
143.682114
 30
0.0
 10
-233.843822
 20
144.119031
 30
0.0
 10
-234.160658
 20
144.337466
 30
0.0
 11
-230.946779
 21
144.018391
 31
0.0
 11
-232.030876
 21
143.658504
 31
0.0
 11
-233.168124
 21
143.771447
 31
0.0
 11
-234.160658
 21
144.337466
 31
0.0
  0
LINE
  5
11f
100
AcDbEntity
  8
Layer_1
 62
7
100
AcDbLine
 10
-234.558930
 20
144.773270
 30
0.0
 11
-234.558930
 21
144.773270
 31
0.0
  0
SPLINE
  5
120
100
AcDbEntity
  8
Layer_1
 62
7
100
AcDbSpline
 70
0
 71
3
 72
10
 73
6
 74
4
 40
0.000000
 40
0.000000
 40
0.000000
 40
0.000000
 40
0.197146
 40
0.394290
 40
0.591428
 40
0.591428
 40
0.591428
 40
0.591428
 10
-234.160658
 20
144.337466
 30
0.0
 10
-234.209029
 20
144.381972
 30
0.0
 10
-234.305771
 20
144.470985
 30
0.0
 10
-234.439303
 20
144.616493
 30
0.0
 10
-234.519055
 20
144.721012
 30
0.0
 10
-234.558930
 20
144.773270
 30
0.0
 11
-234.160658
 21
144.337466
 31
0.0
 11
-234.303842
 21
144.472984
 31
0.0
 11
-234.436987
 21
144.618373
 31
0.0
 11
-234.558930
 21
144.773270
 31
0.0
  0
SPLINE
  5
121
100
AcDbEntity
  8
Layer_1
 62
7
100
AcDbSpline
 70
0
 71
3
 72
10
 73
6
 74
4
 40
0.000000
 40
0.000000
 40
0.000000
 40
0.000000
 40
1.002963
 40
2.004803
 40
3.007675
 40
3.007675
 40
3.007675
 40
3.007675
 10
-118.384331
 20
149.005080
 30
0.0
 10
-118.077665
 20
148.865749
 30
0.0
 10
-117.464675
 20
148.587244
 30
0.0
 10
-116.784021
 20
147.792103
 30
0.0
 10
-116.607615
 20
147.142020
 30
0.0
 10
-116.519367
 20
146.816810
 30
0.0
 11
-118.384331
 21
149.005080
 31
0.0
 11
-117.504199
 21
148.524141
 31
0.0
 11
-116.853501
 21
147.762383
 31
0.0
 11
-116.519367
 21
146.816810
 31
0.0
  0
SPLINE
  5
122
100
AcDbEntity
  8
Layer_1
 62
7
100
AcDbSpline
 70
0
 71
3
 72
10
 73
6
 74
4
 40
0.000000
 40
0.000000
 40
0.000000
 40
0.000000
 40
1.107138
 40
2.214497
 40
3.321902
 40
3.321902
 40
3.321902
 40
3.321902
 10
-116.519367
 20
146.816810
 30
0.0
 10
-116.506203
 20
146.444429
 30
0.0
 10
-116.479871
 20
145.699592
 30
0.0
 10
-116.989930
 20
144.649689
 30
0.0
 10
-117.592467
 20
144.210729
 30
0.0
 10
-117.893742
 20
143.991244
 30
0.0
 11
-116.519367
 21
146.816810
 31
0.0
 11
-116.571444
 21
145.710898
 31
0.0
 11
-117.055539
 21
144.714958
 31
0.0
 11
-117.893742
 21
143.991244
 31
0.0
  0
SPLINE
  5
123
100
AcDbEntity
  8
Layer_1
 62
7
100
AcDbSpline
 70
0
 71
3
 72
10
 73
6
 74
4
 40
0.000000
 40
0.000000
 40
0.000000
 40
0.000000
 40
1.124625
 40
2.249762
 40
3.374675
 40
3.374675
 40
3.374675
 40
3.374675
 10
-117.893742
 20
143.991244
 30
0.0
 10
-118.244284
 20
143.848072
 30
0.0
 10
-118.945527
 20
143.561663
 30
0.0
 10
-120.126384
 20
143.690598
 30
0.0
 10
-120.749255
 20
144.121857
 30
0.0
 10
-121.060659
 20
144.337466
 30
0.0
 11
-117.893742
 21
143.991244
 31
0.0
 11
-118.966854
 21
143.654777
 31
0.0
 11
-120.085340
 21
143.776947
 31
0.0
 11
-121.060659
 21
144.337466
 31
0.0
  0
SPLINE
  5
124
100
AcDbEntity
  8
Layer_1
 62
7
100
AcDbSpline
 70
0
 71
3
 72
10
 73
6
 74
4
 40
0.000000
 40
0.000000
 40
0.000000
 40
0.000000
 40
1.142274
 40
2.285119
 40
3.427709
 40
3.427709
 40
3.427709
 40
3.427709
 10
-121.060659
 20
144.337466
 30
0.0
 10
-121.314371
 20
144.626704
 30
0.0
 10
-121.821923
 20
145.205326
 30
0.0
 10
-122.079875
 20
146.386080
 30
0.0
 10
-121.860175
 20
147.123821
 30
0.0
 10
-121.750336
 20
147.492651
 30
0.0
 11
-121.060659
 21
144.337466
 31
0.0
 11
-121.737942
 21
145.257290
 31
0.0
 11
-121.981950
 21
146.373782
 31
0.0
 11
-121.750336
 21
147.492651
 31
0.0
  0
SPLINE
  5
125
100
AcDbEntity
  8
Layer_1
 62
7
100
AcDbSpline
 70
0
 71
3
 72
10
 73
6
 74
4
 40
0.000000
 40
0.000000
 40
0.000000
 40
0.000000
 40
1.142268
 40
2.285106
 40
3.427690
 40
3.427690
 40
3.427690
 40
3.427690
 10
-121.750336
 20
147.492651
 30
0.0
 10
-121.553655
 20
147.823323
 30
0.0
 10
-121.160194
 20
148.484831
 30
0.0
 10
-120.116945
 20
149.095022
 30
0.0
 10
-119.347424
 20
149.114046
 30
0.0
 10
-118.962706
 20
149.123557
 30
0.0
 11
-121.750336
 21
147.492651
 31
0.0
 11
-121.084822
 21
148.421018
 31
0.0
 11
-120.098380
 21
148.998090
 31
0.0
 11
-118.962706
 21
149.123557
 31
0.0
  0
LINE
  5
126
100
AcDbEntity
  8
Layer_1
 62
7
100
AcDbLine
 10
-118.384331
 20
149.005080
 30
0.0
 11
-118.384331
 21
149.005080
 31
0.0
  0
SPLINE
  5
127
100
AcDbEntity
  8
Layer_1
 62
7
100
AcDbSpline
 70
0
 71
3
 72
10
 73
6
 74
4
 40
0.000000
 40
0.000000
 40
0.000000
 40
0.000000
 40
0.197148
 40
0.394294
 40
0.591435
 40
0.591435
 40
0.591435
 40
0.591435
 10
-118.962706
 20
149.123557
 30
0.0
 10
-118.897412
 20
149.115983
 30
0.0
 10
-118.766824
 20
149.100837
 30
0.0
 10
-118.573265
 20
149.061603
 30
0.0
 10
-118.447309
 20
149.023921
 30
0.0
 10
-118.384331
 20
149.005080
 30
0.0
 11
-118.962706
 21
149.123557
 31
0.0
 11
-118.767210
 21
149.098085
 31
0.0
 11
-118.574034
 21
149.058721
 31
0.0
 11
-118.384331
 21
149.005080
 31
0.0
  0
ENDSEC
  0
SECTION
  2
OBJECTS
  0
DICTIONARY
  5
C
330
0
100
AcDbDictionary
  3
ACAD_GROUP
350
D
  3
ACAD_MLINESTYLE
350
17
  0
DICTIONARY
  5
D
330
C
100
AcDbDictionary
  0
DICTIONARY
  5
1A
330
C
100
AcDbDictionary
  0
DICTIONARY
  5
17
330
C
100
AcDbDictionary
  3
STANDARD
350
18
  0
DICTIONARY
  5
19
330
C
100
AcDbDictionary
  0
ENDSEC
  0
EOF
