  0
SECTION
  2
BLOCKS
  0
ENDSEC
  0
SECTION
  2
ENTITIES
  0
LINE
  8
0
 10
62.5
 20
54
 11
-62.5
 21
54
  0
LINE
  8
0
 10
-62.5
 20
54
 11
-62.5
 21
-54
  0
LINE
  8
0
 10
-62.5
 20
-54
 11
62.5
 21
-54
  0
LINE
  8
0
 10
62.5
 20
-54
 11
62.5
 21
54
  0
LINE
  8
0
 10
-35.9014
 20
-40.3018
 11
-36.1841
 21
-40.2973
  0
LINE
  8
0
 10
-36.1841
 20
-40.2973
 11
-36.7483
 21
-40.2618
  0
LINE
  8
0
 10
-36.7483
 20
-40.2618
 11
-37.3093
 21
-40.1909
  0
LINE
  8
0
 10
-37.3093
 20
-40.1909
 11
-37.8647
 21
-40.085
  0
LINE
  8
0
 10
-37.8647
 20
-40.085
 11
-38.4123
 21
-39.9444
  0
LINE
  8
0
 10
-38.4123
 20
-39.9444
 11
-38.95
 21
-39.7697
  0
LINE
  8
0
 10
-38.95
 20
-39.7697
 11
-39.4757
 21
-39.5616
  0
LINE
  8
0
 10
-39.4757
 20
-39.5616
 11
-39.9873
 21
-39.3208
  0
LINE
  8
0
 10
-39.9873
 20
-39.3208
 11
-40.4827
 21
-39.0484
  0
LINE
  8
0
 10
-40.4827
 20
-39.0484
 11
-40.9601
 21
-38.7455
  0
LINE
  8
0
 10
-40.9601
 20
-38.7455
 11
-41.4175
 21
-38.4131
  0
LINE
  8
0
 10
-41.4175
 20
-38.4131
 11
-41.8532
 21
-38.0528
  0
LINE
  8
0
 10
-41.8532
 20
-38.0528
 11
-42.2653
 21
-37.6657
  0
LINE
  8
0
 10
-42.2653
 20
-37.6657
 11
-47.2653
 21
-32.6657
  0
LINE
  8
0
 10
-47.2653
 20
-32.6657
 11
-47.4621
 21
-32.4627
  0
LINE
  8
0
 10
-47.4621
 20
-32.4627
 11
-47.836
 21
-32.0386
  0
LINE
  8
0
 10
-47.836
 20
-32.0386
 11
-48.1825
 21
-31.5918
  0
LINE
  8
0
 10
-48.1825
 20
-31.5918
 11
-48.5003
 21
-31.1242
  0
LINE
  8
0
 10
-48.5003
 20
-31.1242
 11
-48.7881
 21
-30.6375
  0
LINE
  8
0
 10
-48.7881
 20
-30.6375
 11
-49.0448
 21
-30.1338
  0
LINE
  8
0
 10
-49.0448
 20
-30.1338
 11
-49.2693
 21
-29.6149
  0
LINE
  8
0
 10
-49.2693
 20
-29.6149
 11
-49.4609
 21
-29.0829
  0
LINE
  8
0
 10
-49.4609
 20
-29.0829
 11
-49.6186
 21
-28.54
  0
LINE
  8
0
 10
-49.6186
 20
-28.54
 11
-49.742
 21
-27.9882
  0
LINE
  8
0
 10
-49.742
 20
-27.9882
 11
-49.8304
 21
-27.4298
  0
LINE
  8
0
 10
-49.8304
 20
-27.4298
 11
-49.8836
 21
-26.8669
  0
LINE
  8
0
 10
-49.8836
 20
-26.8669
 11
-49.9014
 21
-26.3018
  0
LINE
  8
0
 10
-49.9014
 20
-26.3018
 11
-49.9014
 21
26.3018
  0
LINE
  8
0
 10
-49.9014
 20
26.3018
 11
-49.8969
 21
26.5845
  0
LINE
  8
0
 10
-49.8969
 20
26.5845
 11
-49.8614
 21
27.1487
  0
LINE
  8
0
 10
-49.8614
 20
27.1487
 11
-49.7906
 21
27.7097
  0
LINE
  8
0
 10
-49.7906
 20
27.7097
 11
-49.6846
 21
28.265
  0
LINE
  8
0
 10
-49.6846
 20
28.265
 11
-49.544
 21
28.8127
  0
LINE
  8
0
 10
-49.544
 20
28.8127
 11
-49.3693
 21
29.3504
  0
LINE
  8
0
 10
-49.3693
 20
29.3504
 11
-49.1612
 21
29.8761
  0
LINE
  8
0
 10
-49.1612
 20
29.8761
 11
-48.9204
 21
30.3877
  0
LINE
  8
0
 10
-48.9204
 20
30.3877
 11
-48.648
 21
30.8831
  0
LINE
  8
0
 10
-48.648
 20
30.8831
 11
-48.3451
 21
31.3605
  0
LINE
  8
0
 10
-48.3451
 20
31.3605
 11
-48.0128
 21
31.8179
  0
LINE
  8
0
 10
-48.0128
 20
31.8179
 11
-47.6524
 21
32.2536
  0
LINE
  8
0
 10
-47.6524
 20
32.2536
 11
-47.2653
 21
32.6657
  0
LINE
  8
0
 10
-47.2653
 20
32.6657
 11
-42.2653
 21
37.6657
  0
LINE
  8
0
 10
-42.2653
 20
37.6657
 11
-42.0623
 21
37.8625
  0
LINE
  8
0
 10
-42.0623
 20
37.8625
 11
-41.6382
 21
38.2364
  0
LINE
  8
0
 10
-41.6382
 20
38.2364
 11
-41.1914
 21
38.5829
  0
LINE
  8
0
 10
-41.1914
 20
38.5829
 11
-40.7238
 21
38.9007
  0
LINE
  8
0
 10
-40.7238
 20
38.9007
 11
-40.2372
 21
39.1885
  0
LINE
  8
0
 10
-40.2372
 20
39.1885
 11
-39.7334
 21
39.4452
  0
LINE
  8
0
 10
-39.7334
 20
39.4452
 11
-39.2145
 21
39.6697
  0
LINE
  8
0
 10
-39.2145
 20
39.6697
 11
-38.6825
 21
39.8613
  0
LINE
  8
0
 10
-38.6825
 20
39.8613
 11
-38.1396
 21
40.019
  0
LINE
  8
0
 10
-38.1396
 20
40.019
 11
-37.5878
 21
40.1423
  0
LINE
  8
0
 10
-37.5878
 20
40.1423
 11
-37.0294
 21
40.2308
  0
LINE
  8
0
 10
-37.0294
 20
40.2308
 11
-36.4665
 21
40.284
  0
LINE
  8
0
 10
-36.4665
 20
40.284
 11
-35.9014
 21
40.3018
  0
LINE
  8
0
 10
-35.9014
 20
40.3018
 11
35.9014
 21
40.3018
  0
LINE
  8
0
 10
35.9014
 20
40.3018
 11
36.1841
 21
40.2973
  0
LINE
  8
0
 10
36.1841
 20
40.2973
 11
36.7483
 21
40.2618
  0
LINE
  8
0
 10
36.7483
 20
40.2618
 11
37.3093
 21
40.1909
  0
LINE
  8
0
 10
37.3093
 20
40.1909
 11
37.8647
 21
40.085
  0
LINE
  8
0
 10
37.8647
 20
40.085
 11
38.4123
 21
39.9444
  0
LINE
  8
0
 10
38.4123
 20
39.9444
 11
38.95
 21
39.7697
  0
LINE
  8
0
 10
38.95
 20
39.7697
 11
39.4757
 21
39.5616
  0
LINE
  8
0
 10
39.4757
 20
39.5616
 11
39.9873
 21
39.3208
  0
LINE
  8
0
 10
39.9873
 20
39.3208
 11
40.4827
 21
39.0484
  0
LINE
  8
0
 10
40.4827
 20
39.0484
 11
40.9601
 21
38.7455
  0
LINE
  8
0
 10
40.9601
 20
38.7455
 11
41.4175
 21
38.4131
  0
LINE
  8
0
 10
41.4175
 20
38.4131
 11
41.8532
 21
38.0528
  0
LINE
  8
0
 10
41.8532
 20
38.0528
 11
42.2653
 21
37.6657
  0
LINE
  8
0
 10
42.2653
 20
37.6657
 11
47.2653
 21
32.6657
  0
LINE
  8
0
 10
47.2653
 20
32.6657
 11
47.4621
 21
32.4627
  0
LINE
  8
0
 10
47.4621
 20
32.4627
 11
47.836
 21
32.0386
  0
LINE
  8
0
 10
47.836
 20
32.0386
 11
48.1825
 21
31.5918
  0
LINE
  8
0
 10
48.1825
 20
31.5918
 11
48.5003
 21
31.1242
  0
LINE
  8
0
 10
48.5003
 20
31.1242
 11
48.7881
 21
30.6375
  0
LINE
  8
0
 10
48.7881
 20
30.6375
 11
49.0448
 21
30.1338
  0
LINE
  8
0
 10
49.0448
 20
30.1338
 11
49.2693
 21
29.6149
  0
LINE
  8
0
 10
49.2693
 20
29.6149
 11
49.4609
 21
29.0829
  0
LINE
  8
0
 10
49.4609
 20
29.0829
 11
49.6186
 21
28.54
  0
LINE
  8
0
 10
49.6186
 20
28.54
 11
49.742
 21
27.9882
  0
LINE
  8
0
 10
49.742
 20
27.9882
 11
49.8304
 21
27.4298
  0
LINE
  8
0
 10
49.8304
 20
27.4298
 11
49.8836
 21
26.8669
  0
LINE
  8
0
 10
49.8836
 20
26.8669
 11
49.9014
 21
26.3018
  0
LINE
  8
0
 10
49.9014
 20
26.3018
 11
49.9014
 21
-26.3018
  0
LINE
  8
0
 10
49.9014
 20
-26.3018
 11
49.8969
 21
-26.5845
  0
LINE
  8
0
 10
49.8969
 20
-26.5845
 11
49.8614
 21
-27.1487
  0
LINE
  8
0
 10
49.8614
 20
-27.1487
 11
49.7906
 21
-27.7097
  0
LINE
  8
0
 10
49.7906
 20
-27.7097
 11
49.6846
 21
-28.265
  0
LINE
  8
0
 10
49.6846
 20
-28.265
 11
49.544
 21
-28.8127
  0
LINE
  8
0
 10
49.544
 20
-28.8127
 11
49.3693
 21
-29.3504
  0
LINE
  8
0
 10
49.3693
 20
-29.3504
 11
49.1612
 21
-29.8761
  0
LINE
  8
0
 10
49.1612
 20
-29.8761
 11
48.9204
 21
-30.3877
  0
LINE
  8
0
 10
48.9204
 20
-30.3877
 11
48.648
 21
-30.8831
  0
LINE
  8
0
 10
48.648
 20
-30.8831
 11
48.3451
 21
-31.3605
  0
LINE
  8
0
 10
48.3451
 20
-31.3605
 11
48.0128
 21
-31.8179
  0
LINE
  8
0
 10
48.0128
 20
-31.8179
 11
47.6524
 21
-32.2536
  0
LINE
  8
0
 10
47.6524
 20
-32.2536
 11
47.2653
 21
-32.6657
  0
LINE
  8
0
 10
47.2653
 20
-32.6657
 11
42.2653
 21
-37.6657
  0
LINE
  8
0
 10
42.2653
 20
-37.6657
 11
42.0623
 21
-37.8625
  0
LINE
  8
0
 10
42.0623
 20
-37.8625
 11
41.6382
 21
-38.2364
  0
LINE
  8
0
 10
41.6382
 20
-38.2364
 11
41.1914
 21
-38.5829
  0
LINE
  8
0
 10
41.1914
 20
-38.5829
 11
40.7238
 21
-38.9007
  0
LINE
  8
0
 10
40.7238
 20
-38.9007
 11
40.2372
 21
-39.1885
  0
LINE
  8
0
 10
40.2372
 20
-39.1885
 11
39.7334
 21
-39.4452
  0
LINE
  8
0
 10
39.7334
 20
-39.4452
 11
39.2145
 21
-39.6697
  0
LINE
  8
0
 10
39.2145
 20
-39.6697
 11
38.6825
 21
-39.8613
  0
LINE
  8
0
 10
38.6825
 20
-39.8613
 11
38.1396
 21
-40.019
  0
LINE
  8
0
 10
38.1396
 20
-40.019
 11
37.5878
 21
-40.1423
  0
LINE
  8
0
 10
37.5878
 20
-40.1423
 11
37.0294
 21
-40.2308
  0
LINE
  8
0
 10
37.0294
 20
-40.2308
 11
36.4665
 21
-40.284
  0
LINE
  8
0
 10
36.4665
 20
-40.284
 11
35.9014
 21
-40.3018
  0
LINE
  8
0
 10
35.9014
 20
-40.3018
 11
-35.9014
 21
-40.3018
  0
LINE
  8
0
 10
-56.8326
 20
19.2589
 11
-57.114
 21
19.2855
  0
LINE
  8
0
 10
-57.114
 20
19.2855
 11
-57.3932
 21
19.3297
  0
LINE
  8
0
 10
-57.3932
 20
19.3297
 11
-57.6691
 21
19.3914
  0
LINE
  8
0
 10
-57.6691
 20
19.3914
 11
-57.9406
 21
19.4702
  0
LINE
  8
0
 10
-57.9406
 20
19.4702
 11
-58.2066
 21
19.566
  0
LINE
  8
0
 10
-58.2066
 20
19.566
 11
-58.466
 21
19.6783
  0
LINE
  8
0
 10
-58.466
 20
19.6783
 11
-58.7179
 21
19.8066
  0
LINE
  8
0
 10
-58.7179
 20
19.8066
 11
-58.9612
 21
19.9505
  0
LINE
  8
0
 10
-58.9612
 20
19.9505
 11
-59.195
 21
20.1094
  0
LINE
  8
0
 10
-59.195
 20
20.1094
 11
-59.4184
 21
20.2827
  0
LINE
  8
0
 10
-59.4184
 20
20.2827
 11
-59.6304
 21
20.4696
  0
LINE
  8
0
 10
-59.6304
 20
20.4696
 11
-59.8304
 21
20.6695
  0
LINE
  8
0
 10
-59.8304
 20
20.6695
 11
-60.0173
 21
20.8816
  0
LINE
  8
0
 10
-60.0173
 20
20.8816
 11
-60.1906
 21
21.105
  0
LINE
  8
0
 10
-60.1906
 20
21.105
 11
-60.3495
 21
21.3388
  0
LINE
  8
0
 10
-60.3495
 20
21.3388
 11
-60.4934
 21
21.5821
  0
LINE
  8
0
 10
-60.4934
 20
21.5821
 11
-60.6217
 21
21.834
  0
LINE
  8
0
 10
-60.6217
 20
21.834
 11
-60.734
 21
22.0934
  0
LINE
  8
0
 10
-60.734
 20
22.0934
 11
-60.8297
 21
22.3594
  0
LINE
  8
0
 10
-60.8297
 20
22.3594
 11
-60.9086
 21
22.6309
  0
LINE
  8
0
 10
-60.9086
 20
22.6309
 11
-60.9703
 21
22.9068
  0
LINE
  8
0
 10
-60.9703
 20
22.9068
 11
-61.0145
 21
23.186
  0
LINE
  8
0
 10
-61.0145
 20
23.186
 11
-61.0411
 21
23.4674
  0
LINE
  8
0
 10
-61.0411
 20
23.4674
 11
-61.05
 21
23.75
  0
LINE
  8
0
 10
-61.05
 20
23.75
 11
-61.0411
 21
24.0325
  0
LINE
  8
0
 10
-61.0411
 20
24.0325
 11
-61.0145
 21
24.314
  0
LINE
  8
0
 10
-61.0145
 20
24.314
 11
-60.9703
 21
24.5932
  0
LINE
  8
0
 10
-60.9703
 20
24.5932
 11
-60.9086
 21
24.8691
  0
LINE
  8
0
 10
-60.9086
 20
24.8691
 11
-60.8297
 21
25.1406
  0
LINE
  8
0
 10
-60.8297
 20
25.1406
 11
-60.734
 21
25.4066
  0
LINE
  8
0
 10
-60.734
 20
25.4066
 11
-60.6217
 21
25.666
  0
LINE
  8
0
 10
-60.6217
 20
25.666
 11
-60.4934
 21
25.9179
  0
LINE
  8
0
 10
-60.4934
 20
25.9179
 11
-60.3495
 21
26.1612
  0
LINE
  8
0
 10
-60.3495
 20
26.1612
 11
-60.1906
 21
26.395
  0
LINE
  8
0
 10
-60.1906
 20
26.395
 11
-60.0173
 21
26.6184
  0
LINE
  8
0
 10
-60.0173
 20
26.6184
 11
-59.8304
 21
26.8305
  0
LINE
  8
0
 10
-59.8304
 20
26.8305
 11
-59.6304
 21
27.0303
  0
LINE
  8
0
 10
-59.6304
 20
27.0303
 11
-59.4184
 21
27.2173
  0
LINE
  8
0
 10
-59.4184
 20
27.2173
 11
-59.195
 21
27.3906
  0
LINE
  8
0
 10
-59.195
 20
27.3906
 11
-58.9612
 21
27.5495
  0
LINE
  8
0
 10
-58.9612
 20
27.5495
 11
-58.7179
 21
27.6934
  0
LINE
  8
0
 10
-58.7179
 20
27.6934
 11
-58.466
 21
27.8217
  0
LINE
  8
0
 10
-58.466
 20
27.8217
 11
-58.2066
 21
27.934
  0
LINE
  8
0
 10
-58.2066
 20
27.934
 11
-57.9406
 21
28.0297
  0
LINE
  8
0
 10
-57.9406
 20
28.0297
 11
-57.6691
 21
28.1086
  0
LINE
  8
0
 10
-57.6691
 20
28.1086
 11
-57.3932
 21
28.1703
  0
LINE
  8
0
 10
-57.3932
 20
28.1703
 11
-57.114
 21
28.2145
  0
LINE
  8
0
 10
-57.114
 20
28.2145
 11
-56.8326
 21
28.2411
  0
LINE
  8
0
 10
-56.8326
 20
28.2411
 11
-56.55
 21
28.25
  0
LINE
  8
0
 10
-56.55
 20
28.25
 11
-56.2674
 21
28.2411
  0
LINE
  8
0
 10
-56.2674
 20
28.2411
 11
-55.986
 21
28.2145
  0
LINE
  8
0
 10
-55.986
 20
28.2145
 11
-55.7068
 21
28.1703
  0
LINE
  8
0
 10
-55.7068
 20
28.1703
 11
-55.4309
 21
28.1086
  0
LINE
  8
0
 10
-55.4309
 20
28.1086
 11
-55.1594
 21
28.0297
  0
LINE
  8
0
 10
-55.1594
 20
28.0297
 11
-54.8934
 21
27.934
  0
LINE
  8
0
 10
-54.8934
 20
27.934
 11
-54.634
 21
27.8217
  0
LINE
  8
0
 10
-54.634
 20
27.8217
 11
-54.3821
 21
27.6934
  0
LINE
  8
0
 10
-54.3821
 20
27.6934
 11
-54.1388
 21
27.5495
  0
LINE
  8
0
 10
-54.1388
 20
27.5495
 11
-53.905
 21
27.3906
  0
LINE
  8
0
 10
-53.905
 20
27.3906
 11
-53.6816
 21
27.2173
  0
LINE
  8
0
 10
-53.6816
 20
27.2173
 11
-53.4695
 21
27.0303
  0
LINE
  8
0
 10
-53.4695
 20
27.0303
 11
-53.2696
 21
26.8305
  0
LINE
  8
0
 10
-53.2696
 20
26.8305
 11
-53.0827
 21
26.6184
  0
LINE
  8
0
 10
-53.0827
 20
26.6184
 11
-52.9094
 21
26.395
  0
LINE
  8
0
 10
-52.9094
 20
26.395
 11
-52.7505
 21
26.1612
  0
LINE
  8
0
 10
-52.7505
 20
26.1612
 11
-52.6066
 21
25.9179
  0
LINE
  8
0
 10
-52.6066
 20
25.9179
 11
-52.4783
 21
25.666
  0
LINE
  8
0
 10
-52.4783
 20
25.666
 11
-52.366
 21
25.4066
  0
LINE
  8
0
 10
-52.366
 20
25.4066
 11
-52.2702
 21
25.1406
  0
LINE
  8
0
 10
-52.2702
 20
25.1406
 11
-52.1914
 21
24.8691
  0
LINE
  8
0
 10
-52.1914
 20
24.8691
 11
-52.1297
 21
24.5932
  0
LINE
  8
0
 10
-52.1297
 20
24.5932
 11
-52.0855
 21
24.314
  0
LINE
  8
0
 10
-52.0855
 20
24.314
 11
-52.0589
 21
24.0325
  0
LINE
  8
0
 10
-52.0589
 20
24.0325
 11
-52.05
 21
23.75
  0
LINE
  8
0
 10
-52.05
 20
23.75
 11
-52.0589
 21
23.4674
  0
LINE
  8
0
 10
-52.0589
 20
23.4674
 11
-52.0855
 21
23.186
  0
LINE
  8
0
 10
-52.0855
 20
23.186
 11
-52.1297
 21
22.9068
  0
LINE
  8
0
 10
-52.1297
 20
22.9068
 11
-52.1914
 21
22.6309
  0
LINE
  8
0
 10
-52.1914
 20
22.6309
 11
-52.2702
 21
22.3594
  0
LINE
  8
0
 10
-52.2702
 20
22.3594
 11
-52.366
 21
22.0934
  0
LINE
  8
0
 10
-52.366
 20
22.0934
 11
-52.4783
 21
21.834
  0
LINE
  8
0
 10
-52.4783
 20
21.834
 11
-52.6066
 21
21.5821
  0
LINE
  8
0
 10
-52.6066
 20
21.5821
 11
-52.7505
 21
21.3388
  0
LINE
  8
0
 10
-52.7505
 20
21.3388
 11
-52.9094
 21
21.105
  0
LINE
  8
0
 10
-52.9094
 20
21.105
 11
-53.0827
 21
20.8816
  0
LINE
  8
0
 10
-53.0827
 20
20.8816
 11
-53.2696
 21
20.6695
  0
LINE
  8
0
 10
-53.2696
 20
20.6695
 11
-53.4695
 21
20.4696
  0
LINE
  8
0
 10
-53.4695
 20
20.4696
 11
-53.6816
 21
20.2827
  0
LINE
  8
0
 10
-53.6816
 20
20.2827
 11
-53.905
 21
20.1094
  0
LINE
  8
0
 10
-53.905
 20
20.1094
 11
-54.1388
 21
19.9505
  0
LINE
  8
0
 10
-54.1388
 20
19.9505
 11
-54.3821
 21
19.8066
  0
LINE
  8
0
 10
-54.3821
 20
19.8066
 11
-54.634
 21
19.6783
  0
LINE
  8
0
 10
-54.634
 20
19.6783
 11
-54.8934
 21
19.566
  0
LINE
  8
0
 10
-54.8934
 20
19.566
 11
-55.1594
 21
19.4702
  0
LINE
  8
0
 10
-55.1594
 20
19.4702
 11
-55.4309
 21
19.3914
  0
LINE
  8
0
 10
-55.4309
 20
19.3914
 11
-55.7068
 21
19.3297
  0
LINE
  8
0
 10
-55.7068
 20
19.3297
 11
-55.986
 21
19.2855
  0
LINE
  8
0
 10
-55.986
 20
19.2855
 11
-56.2674
 21
19.2589
  0
LINE
  8
0
 10
-56.2674
 20
19.2589
 11
-56.55
 21
19.25
  0
LINE
  8
0
 10
-56.55
 20
19.25
 11
-56.8326
 21
19.2589
  0
LINE
  8
0
 10
56.2674
 20
19.2589
 11
55.986
 21
19.2855
  0
LINE
  8
0
 10
55.986
 20
19.2855
 11
55.7068
 21
19.3297
  0
LINE
  8
0
 10
55.7068
 20
19.3297
 11
55.4309
 21
19.3914
  0
LINE
  8
0
 10
55.4309
 20
19.3914
 11
55.1594
 21
19.4702
  0
LINE
  8
0
 10
55.1594
 20
19.4702
 11
54.8934
 21
19.566
  0
LINE
  8
0
 10
54.8934
 20
19.566
 11
54.634
 21
19.6783
  0
LINE
  8
0
 10
54.634
 20
19.6783
 11
54.3821
 21
19.8066
  0
LINE
  8
0
 10
54.3821
 20
19.8066
 11
54.1388
 21
19.9505
  0
LINE
  8
0
 10
54.1388
 20
19.9505
 11
53.905
 21
20.1094
  0
LINE
  8
0
 10
53.905
 20
20.1094
 11
53.6816
 21
20.2827
  0
LINE
  8
0
 10
53.6816
 20
20.2827
 11
53.4695
 21
20.4696
  0
LINE
  8
0
 10
53.4695
 20
20.4696
 11
53.2696
 21
20.6695
  0
LINE
  8
0
 10
53.2696
 20
20.6695
 11
53.0827
 21
20.8816
  0
LINE
  8
0
 10
53.0827
 20
20.8816
 11
52.9094
 21
21.105
  0
LINE
  8
0
 10
52.9094
 20
21.105
 11
52.7505
 21
21.3388
  0
LINE
  8
0
 10
52.7505
 20
21.3388
 11
52.6066
 21
21.5821
  0
LINE
  8
0
 10
52.6066
 20
21.5821
 11
52.4783
 21
21.834
  0
LINE
  8
0
 10
52.4783
 20
21.834
 11
52.366
 21
22.0934
  0
LINE
  8
0
 10
52.366
 20
22.0934
 11
52.2702
 21
22.3594
  0
LINE
  8
0
 10
52.2702
 20
22.3594
 11
52.1914
 21
22.6309
  0
LINE
  8
0
 10
52.1914
 20
22.6309
 11
52.1297
 21
22.9068
  0
LINE
  8
0
 10
52.1297
 20
22.9068
 11
52.0855
 21
23.186
  0
LINE
  8
0
 10
52.0855
 20
23.186
 11
52.0589
 21
23.4674
  0
LINE
  8
0
 10
52.0589
 20
23.4674
 11
52.05
 21
23.75
  0
LINE
  8
0
 10
52.05
 20
23.75
 11
52.0589
 21
24.0325
  0
LINE
  8
0
 10
52.0589
 20
24.0325
 11
52.0855
 21
24.314
  0
LINE
  8
0
 10
52.0855
 20
24.314
 11
52.1297
 21
24.5932
  0
LINE
  8
0
 10
52.1297
 20
24.5932
 11
52.1914
 21
24.8691
  0
LINE
  8
0
 10
52.1914
 20
24.8691
 11
52.2702
 21
25.1406
  0
LINE
  8
0
 10
52.2702
 20
25.1406
 11
52.366
 21
25.4066
  0
LINE
  8
0
 10
52.366
 20
25.4066
 11
52.4783
 21
25.666
  0
LINE
  8
0
 10
52.4783
 20
25.666
 11
52.6066
 21
25.9179
  0
LINE
  8
0
 10
52.6066
 20
25.9179
 11
52.7505
 21
26.1612
  0
LINE
  8
0
 10
52.7505
 20
26.1612
 11
52.9094
 21
26.395
  0
LINE
  8
0
 10
52.9094
 20
26.395
 11
53.0827
 21
26.6184
  0
LINE
  8
0
 10
53.0827
 20
26.6184
 11
53.2696
 21
26.8305
  0
LINE
  8
0
 10
53.2696
 20
26.8305
 11
53.4695
 21
27.0303
  0
LINE
  8
0
 10
53.4695
 20
27.0303
 11
53.6816
 21
27.2173
  0
LINE
  8
0
 10
53.6816
 20
27.2173
 11
53.905
 21
27.3906
  0
LINE
  8
0
 10
53.905
 20
27.3906
 11
54.1388
 21
27.5495
  0
LINE
  8
0
 10
54.1388
 20
27.5495
 11
54.3821
 21
27.6934
  0
LINE
  8
0
 10
54.3821
 20
27.6934
 11
54.634
 21
27.8217
  0
LINE
  8
0
 10
54.634
 20
27.8217
 11
54.8934
 21
27.934
  0
LINE
  8
0
 10
54.8934
 20
27.934
 11
55.1594
 21
28.0297
  0
LINE
  8
0
 10
55.1594
 20
28.0297
 11
55.4309
 21
28.1086
  0
LINE
  8
0
 10
55.4309
 20
28.1086
 11
55.7068
 21
28.1703
  0
LINE
  8
0
 10
55.7068
 20
28.1703
 11
55.986
 21
28.2145
  0
LINE
  8
0
 10
55.986
 20
28.2145
 11
56.2674
 21
28.2411
  0
LINE
  8
0
 10
56.2674
 20
28.2411
 11
56.55
 21
28.25
  0
LINE
  8
0
 10
56.55
 20
28.25
 11
56.8326
 21
28.2411
  0
LINE
  8
0
 10
56.8326
 20
28.2411
 11
57.114
 21
28.2145
  0
LINE
  8
0
 10
57.114
 20
28.2145
 11
57.3932
 21
28.1703
  0
LINE
  8
0
 10
57.3932
 20
28.1703
 11
57.6691
 21
28.1086
  0
LINE
  8
0
 10
57.6691
 20
28.1086
 11
57.9406
 21
28.0297
  0
LINE
  8
0
 10
57.9406
 20
28.0297
 11
58.2066
 21
27.934
  0
LINE
  8
0
 10
58.2066
 20
27.934
 11
58.466
 21
27.8217
  0
LINE
  8
0
 10
58.466
 20
27.8217
 11
58.7179
 21
27.6934
  0
LINE
  8
0
 10
58.7179
 20
27.6934
 11
58.9612
 21
27.5495
  0
LINE
  8
0
 10
58.9612
 20
27.5495
 11
59.195
 21
27.3906
  0
LINE
  8
0
 10
59.195
 20
27.3906
 11
59.4184
 21
27.2173
  0
LINE
  8
0
 10
59.4184
 20
27.2173
 11
59.6304
 21
27.0303
  0
LINE
  8
0
 10
59.6304
 20
27.0303
 11
59.8304
 21
26.8305
  0
LINE
  8
0
 10
59.8304
 20
26.8305
 11
60.0173
 21
26.6184
  0
LINE
  8
0
 10
60.0173
 20
26.6184
 11
60.1906
 21
26.395
  0
LINE
  8
0
 10
60.1906
 20
26.395
 11
60.3495
 21
26.1612
  0
LINE
  8
0
 10
60.3495
 20
26.1612
 11
60.4934
 21
25.9179
  0
LINE
  8
0
 10
60.4934
 20
25.9179
 11
60.6217
 21
25.666
  0
LINE
  8
0
 10
60.6217
 20
25.666
 11
60.734
 21
25.4066
  0
LINE
  8
0
 10
60.734
 20
25.4066
 11
60.8297
 21
25.1406
  0
LINE
  8
0
 10
60.8297
 20
25.1406
 11
60.9086
 21
24.8691
  0
LINE
  8
0
 10
60.9086
 20
24.8691
 11
60.9703
 21
24.5932
  0
LINE
  8
0
 10
60.9703
 20
24.5932
 11
61.0145
 21
24.314
  0
LINE
  8
0
 10
61.0145
 20
24.314
 11
61.0411
 21
24.0325
  0
LINE
  8
0
 10
61.0411
 20
24.0325
 11
61.05
 21
23.75
  0
LINE
  8
0
 10
61.05
 20
23.75
 11
61.0411
 21
23.4674
  0
LINE
  8
0
 10
61.0411
 20
23.4674
 11
61.0145
 21
23.186
  0
LINE
  8
0
 10
61.0145
 20
23.186
 11
60.9703
 21
22.9068
  0
LINE
  8
0
 10
60.9703
 20
22.9068
 11
60.9086
 21
22.6309
  0
LINE
  8
0
 10
60.9086
 20
22.6309
 11
60.8297
 21
22.3594
  0
LINE
  8
0
 10
60.8297
 20
22.3594
 11
60.734
 21
22.0934
  0
LINE
  8
0
 10
60.734
 20
22.0934
 11
60.6217
 21
21.834
  0
LINE
  8
0
 10
60.6217
 20
21.834
 11
60.4934
 21
21.5821
  0
LINE
  8
0
 10
60.4934
 20
21.5821
 11
60.3495
 21
21.3388
  0
LINE
  8
0
 10
60.3495
 20
21.3388
 11
60.1906
 21
21.105
  0
LINE
  8
0
 10
60.1906
 20
21.105
 11
60.0173
 21
20.8816
  0
LINE
  8
0
 10
60.0173
 20
20.8816
 11
59.8304
 21
20.6695
  0
LINE
  8
0
 10
59.8304
 20
20.6695
 11
59.6304
 21
20.4696
  0
LINE
  8
0
 10
59.6304
 20
20.4696
 11
59.4184
 21
20.2827
  0
LINE
  8
0
 10
59.4184
 20
20.2827
 11
59.195
 21
20.1094
  0
LINE
  8
0
 10
59.195
 20
20.1094
 11
58.9612
 21
19.9505
  0
LINE
  8
0
 10
58.9612
 20
19.9505
 11
58.7179
 21
19.8066
  0
LINE
  8
0
 10
58.7179
 20
19.8066
 11
58.466
 21
19.6783
  0
LINE
  8
0
 10
58.466
 20
19.6783
 11
58.2066
 21
19.566
  0
LINE
  8
0
 10
58.2066
 20
19.566
 11
57.9406
 21
19.4702
  0
LINE
  8
0
 10
57.9406
 20
19.4702
 11
57.6691
 21
19.3914
  0
LINE
  8
0
 10
57.6691
 20
19.3914
 11
57.3932
 21
19.3297
  0
LINE
  8
0
 10
57.3932
 20
19.3297
 11
57.114
 21
19.2855
  0
LINE
  8
0
 10
57.114
 20
19.2855
 11
56.8326
 21
19.2589
  0
LINE
  8
0
 10
56.8326
 20
19.2589
 11
56.55
 21
19.25
  0
LINE
  8
0
 10
56.55
 20
19.25
 11
56.2674
 21
19.2589
  0
LINE
  8
0
 10
-56.8326
 20
-28.2411
 11
-57.114
 21
-28.2145
  0
LINE
  8
0
 10
-57.114
 20
-28.2145
 11
-57.3932
 21
-28.1703
  0
LINE
  8
0
 10
-57.3932
 20
-28.1703
 11
-57.6691
 21
-28.1086
  0
LINE
  8
0
 10
-57.6691
 20
-28.1086
 11
-57.9406
 21
-28.0297
  0
LINE
  8
0
 10
-57.9406
 20
-28.0297
 11
-58.2066
 21
-27.934
  0
LINE
  8
0
 10
-58.2066
 20
-27.934
 11
-58.466
 21
-27.8217
  0
LINE
  8
0
 10
-58.466
 20
-27.8217
 11
-58.7179
 21
-27.6934
  0
LINE
  8
0
 10
-58.7179
 20
-27.6934
 11
-58.9612
 21
-27.5495
  0
LINE
  8
0
 10
-58.9612
 20
-27.5495
 11
-59.195
 21
-27.3906
  0
LINE
  8
0
 10
-59.195
 20
-27.3906
 11
-59.4184
 21
-27.2173
  0
LINE
  8
0
 10
-59.4184
 20
-27.2173
 11
-59.6304
 21
-27.0303
  0
LINE
  8
0
 10
-59.6304
 20
-27.0303
 11
-59.8304
 21
-26.8305
  0
LINE
  8
0
 10
-59.8304
 20
-26.8305
 11
-60.0173
 21
-26.6184
  0
LINE
  8
0
 10
-60.0173
 20
-26.6184
 11
-60.1906
 21
-26.395
  0
LINE
  8
0
 10
-60.1906
 20
-26.395
 11
-60.3495
 21
-26.1612
  0
LINE
  8
0
 10
-60.3495
 20
-26.1612
 11
-60.4934
 21
-25.9179
  0
LINE
  8
0
 10
-60.4934
 20
-25.9179
 11
-60.6217
 21
-25.666
  0
LINE
  8
0
 10
-60.6217
 20
-25.666
 11
-60.734
 21
-25.4066
  0
LINE
  8
0
 10
-60.734
 20
-25.4066
 11
-60.8297
 21
-25.1406
  0
LINE
  8
0
 10
-60.8297
 20
-25.1406
 11
-60.9086
 21
-24.8691
  0
LINE
  8
0
 10
-60.9086
 20
-24.8691
 11
-60.9703
 21
-24.5932
  0
LINE
  8
0
 10
-60.9703
 20
-24.5932
 11
-61.0145
 21
-24.314
  0
LINE
  8
0
 10
-61.0145
 20
-24.314
 11
-61.0411
 21
-24.0325
  0
LINE
  8
0
 10
-61.0411
 20
-24.0325
 11
-61.05
 21
-23.75
  0
LINE
  8
0
 10
-61.05
 20
-23.75
 11
-61.0411
 21
-23.4674
  0
LINE
  8
0
 10
-61.0411
 20
-23.4674
 11
-61.0145
 21
-23.186
  0
LINE
  8
0
 10
-61.0145
 20
-23.186
 11
-60.9703
 21
-22.9068
  0
LINE
  8
0
 10
-60.9703
 20
-22.9068
 11
-60.9086
 21
-22.6309
  0
LINE
  8
0
 10
-60.9086
 20
-22.6309
 11
-60.8297
 21
-22.3594
  0
LINE
  8
0
 10
-60.8297
 20
-22.3594
 11
-60.734
 21
-22.0934
  0
LINE
  8
0
 10
-60.734
 20
-22.0934
 11
-60.6217
 21
-21.834
  0
LINE
  8
0
 10
-60.6217
 20
-21.834
 11
-60.4934
 21
-21.5821
  0
LINE
  8
0
 10
-60.4934
 20
-21.5821
 11
-60.3495
 21
-21.3388
  0
LINE
  8
0
 10
-60.3495
 20
-21.3388
 11
-60.1906
 21
-21.105
  0
LINE
  8
0
 10
-60.1906
 20
-21.105
 11
-60.0173
 21
-20.8816
  0
LINE
  8
0
 10
-60.0173
 20
-20.8816
 11
-59.8304
 21
-20.6695
  0
LINE
  8
0
 10
-59.8304
 20
-20.6695
 11
-59.6304
 21
-20.4696
  0
LINE
  8
0
 10
-59.6304
 20
-20.4696
 11
-59.4184
 21
-20.2827
  0
LINE
  8
0
 10
-59.4184
 20
-20.2827
 11
-59.195
 21
-20.1094
  0
LINE
  8
0
 10
-59.195
 20
-20.1094
 11
-58.9612
 21
-19.9505
  0
LINE
  8
0
 10
-58.9612
 20
-19.9505
 11
-58.7179
 21
-19.8066
  0
LINE
  8
0
 10
-58.7179
 20
-19.8066
 11
-58.466
 21
-19.6783
  0
LINE
  8
0
 10
-58.466
 20
-19.6783
 11
-58.2066
 21
-19.566
  0
LINE
  8
0
 10
-58.2066
 20
-19.566
 11
-57.9406
 21
-19.4702
  0
LINE
  8
0
 10
-57.9406
 20
-19.4702
 11
-57.6691
 21
-19.3914
  0
LINE
  8
0
 10
-57.6691
 20
-19.3914
 11
-57.3932
 21
-19.3297
  0
LINE
  8
0
 10
-57.3932
 20
-19.3297
 11
-57.114
 21
-19.2855
  0
LINE
  8
0
 10
-57.114
 20
-19.2855
 11
-56.8326
 21
-19.2589
  0
LINE
  8
0
 10
-56.8326
 20
-19.2589
 11
-56.55
 21
-19.25
  0
LINE
  8
0
 10
-56.55
 20
-19.25
 11
-56.2674
 21
-19.2589
  0
LINE
  8
0
 10
-56.2674
 20
-19.2589
 11
-55.986
 21
-19.2855
  0
LINE
  8
0
 10
-55.986
 20
-19.2855
 11
-55.7068
 21
-19.3297
  0
LINE
  8
0
 10
-55.7068
 20
-19.3297
 11
-55.4309
 21
-19.3914
  0
LINE
  8
0
 10
-55.4309
 20
-19.3914
 11
-55.1594
 21
-19.4702
  0
LINE
  8
0
 10
-55.1594
 20
-19.4702
 11
-54.8934
 21
-19.566
  0
LINE
  8
0
 10
-54.8934
 20
-19.566
 11
-54.634
 21
-19.6783
  0
LINE
  8
0
 10
-54.634
 20
-19.6783
 11
-54.3821
 21
-19.8066
  0
LINE
  8
0
 10
-54.3821
 20
-19.8066
 11
-54.1388
 21
-19.9505
  0
LINE
  8
0
 10
-54.1388
 20
-19.9505
 11
-53.905
 21
-20.1094
  0
LINE
  8
0
 10
-53.905
 20
-20.1094
 11
-53.6816
 21
-20.2827
  0
LINE
  8
0
 10
-53.6816
 20
-20.2827
 11
-53.4695
 21
-20.4696
  0
LINE
  8
0
 10
-53.4695
 20
-20.4696
 11
-53.2696
 21
-20.6695
  0
LINE
  8
0
 10
-53.2696
 20
-20.6695
 11
-53.0827
 21
-20.8816
  0
LINE
  8
0
 10
-53.0827
 20
-20.8816
 11
-52.9094
 21
-21.105
  0
LINE
  8
0
 10
-52.9094
 20
-21.105
 11
-52.7505
 21
-21.3388
  0
LINE
  8
0
 10
-52.7505
 20
-21.3388
 11
-52.6066
 21
-21.5821
  0
LINE
  8
0
 10
-52.6066
 20
-21.5821
 11
-52.4783
 21
-21.834
  0
LINE
  8
0
 10
-52.4783
 20
-21.834
 11
-52.366
 21
-22.0934
  0
LINE
  8
0
 10
-52.366
 20
-22.0934
 11
-52.2702
 21
-22.3594
  0
LINE
  8
0
 10
-52.2702
 20
-22.3594
 11
-52.1914
 21
-22.6309
  0
LINE
  8
0
 10
-52.1914
 20
-22.6309
 11
-52.1297
 21
-22.9068
  0
LINE
  8
0
 10
-52.1297
 20
-22.9068
 11
-52.0855
 21
-23.186
  0
LINE
  8
0
 10
-52.0855
 20
-23.186
 11
-52.0589
 21
-23.4674
  0
LINE
  8
0
 10
-52.0589
 20
-23.4674
 11
-52.05
 21
-23.75
  0
LINE
  8
0
 10
-52.05
 20
-23.75
 11
-52.0589
 21
-24.0325
  0
LINE
  8
0
 10
-52.0589
 20
-24.0325
 11
-52.0855
 21
-24.314
  0
LINE
  8
0
 10
-52.0855
 20
-24.314
 11
-52.1297
 21
-24.5932
  0
LINE
  8
0
 10
-52.1297
 20
-24.5932
 11
-52.1914
 21
-24.8691
  0
LINE
  8
0
 10
-52.1914
 20
-24.8691
 11
-52.2702
 21
-25.1406
  0
LINE
  8
0
 10
-52.2702
 20
-25.1406
 11
-52.366
 21
-25.4066
  0
LINE
  8
0
 10
-52.366
 20
-25.4066
 11
-52.4783
 21
-25.666
  0
LINE
  8
0
 10
-52.4783
 20
-25.666
 11
-52.6066
 21
-25.9179
  0
LINE
  8
0
 10
-52.6066
 20
-25.9179
 11
-52.7505
 21
-26.1612
  0
LINE
  8
0
 10
-52.7505
 20
-26.1612
 11
-52.9094
 21
-26.395
  0
LINE
  8
0
 10
-52.9094
 20
-26.395
 11
-53.0827
 21
-26.6184
  0
LINE
  8
0
 10
-53.0827
 20
-26.6184
 11
-53.2696
 21
-26.8305
  0
LINE
  8
0
 10
-53.2696
 20
-26.8305
 11
-53.4695
 21
-27.0303
  0
LINE
  8
0
 10
-53.4695
 20
-27.0303
 11
-53.6816
 21
-27.2173
  0
LINE
  8
0
 10
-53.6816
 20
-27.2173
 11
-53.905
 21
-27.3906
  0
LINE
  8
0
 10
-53.905
 20
-27.3906
 11
-54.1388
 21
-27.5495
  0
LINE
  8
0
 10
-54.1388
 20
-27.5495
 11
-54.3821
 21
-27.6934
  0
LINE
  8
0
 10
-54.3821
 20
-27.6934
 11
-54.634
 21
-27.8217
  0
LINE
  8
0
 10
-54.634
 20
-27.8217
 11
-54.8934
 21
-27.934
  0
LINE
  8
0
 10
-54.8934
 20
-27.934
 11
-55.1594
 21
-28.0297
  0
LINE
  8
0
 10
-55.1594
 20
-28.0297
 11
-55.4309
 21
-28.1086
  0
LINE
  8
0
 10
-55.4309
 20
-28.1086
 11
-55.7068
 21
-28.1703
  0
LINE
  8
0
 10
-55.7068
 20
-28.1703
 11
-55.986
 21
-28.2145
  0
LINE
  8
0
 10
-55.986
 20
-28.2145
 11
-56.2674
 21
-28.2411
  0
LINE
  8
0
 10
-56.2674
 20
-28.2411
 11
-56.55
 21
-28.25
  0
LINE
  8
0
 10
-56.55
 20
-28.25
 11
-56.8326
 21
-28.2411
  0
LINE
  8
0
 10
56.2674
 20
-28.2411
 11
55.986
 21
-28.2145
  0
LINE
  8
0
 10
55.986
 20
-28.2145
 11
55.7068
 21
-28.1703
  0
LINE
  8
0
 10
55.7068
 20
-28.1703
 11
55.4309
 21
-28.1086
  0
LINE
  8
0
 10
55.4309
 20
-28.1086
 11
55.1594
 21
-28.0297
  0
LINE
  8
0
 10
55.1594
 20
-28.0297
 11
54.8934
 21
-27.934
  0
LINE
  8
0
 10
54.8934
 20
-27.934
 11
54.634
 21
-27.8217
  0
LINE
  8
0
 10
54.634
 20
-27.8217
 11
54.3821
 21
-27.6934
  0
LINE
  8
0
 10
54.3821
 20
-27.6934
 11
54.1388
 21
-27.5495
  0
LINE
  8
0
 10
54.1388
 20
-27.5495
 11
53.905
 21
-27.3906
  0
LINE
  8
0
 10
53.905
 20
-27.3906
 11
53.6816
 21
-27.2173
  0
LINE
  8
0
 10
53.6816
 20
-27.2173
 11
53.4695
 21
-27.0303
  0
LINE
  8
0
 10
53.4695
 20
-27.0303
 11
53.2696
 21
-26.8305
  0
LINE
  8
0
 10
53.2696
 20
-26.8305
 11
53.0827
 21
-26.6184
  0
LINE
  8
0
 10
53.0827
 20
-26.6184
 11
52.9094
 21
-26.395
  0
LINE
  8
0
 10
52.9094
 20
-26.395
 11
52.7505
 21
-26.1612
  0
LINE
  8
0
 10
52.7505
 20
-26.1612
 11
52.6066
 21
-25.9179
  0
LINE
  8
0
 10
52.6066
 20
-25.9179
 11
52.4783
 21
-25.666
  0
LINE
  8
0
 10
52.4783
 20
-25.666
 11
52.366
 21
-25.4066
  0
LINE
  8
0
 10
52.366
 20
-25.4066
 11
52.2702
 21
-25.1406
  0
LINE
  8
0
 10
52.2702
 20
-25.1406
 11
52.1914
 21
-24.8691
  0
LINE
  8
0
 10
52.1914
 20
-24.8691
 11
52.1297
 21
-24.5932
  0
LINE
  8
0
 10
52.1297
 20
-24.5932
 11
52.0855
 21
-24.314
  0
LINE
  8
0
 10
52.0855
 20
-24.314
 11
52.0589
 21
-24.0325
  0
LINE
  8
0
 10
52.0589
 20
-24.0325
 11
52.05
 21
-23.75
  0
LINE
  8
0
 10
52.05
 20
-23.75
 11
52.0589
 21
-23.4674
  0
LINE
  8
0
 10
52.0589
 20
-23.4674
 11
52.0855
 21
-23.186
  0
LINE
  8
0
 10
52.0855
 20
-23.186
 11
52.1297
 21
-22.9068
  0
LINE
  8
0
 10
52.1297
 20
-22.9068
 11
52.1914
 21
-22.6309
  0
LINE
  8
0
 10
52.1914
 20
-22.6309
 11
52.2702
 21
-22.3594
  0
LINE
  8
0
 10
52.2702
 20
-22.3594
 11
52.366
 21
-22.0934
  0
LINE
  8
0
 10
52.366
 20
-22.0934
 11
52.4783
 21
-21.834
  0
LINE
  8
0
 10
52.4783
 20
-21.834
 11
52.6066
 21
-21.5821
  0
LINE
  8
0
 10
52.6066
 20
-21.5821
 11
52.7505
 21
-21.3388
  0
LINE
  8
0
 10
52.7505
 20
-21.3388
 11
52.9094
 21
-21.105
  0
LINE
  8
0
 10
52.9094
 20
-21.105
 11
53.0827
 21
-20.8816
  0
LINE
  8
0
 10
53.0827
 20
-20.8816
 11
53.2696
 21
-20.6695
  0
LINE
  8
0
 10
53.2696
 20
-20.6695
 11
53.4695
 21
-20.4696
  0
LINE
  8
0
 10
53.4695
 20
-20.4696
 11
53.6816
 21
-20.2827
  0
LINE
  8
0
 10
53.6816
 20
-20.2827
 11
53.905
 21
-20.1094
  0
LINE
  8
0
 10
53.905
 20
-20.1094
 11
54.1388
 21
-19.9505
  0
LINE
  8
0
 10
54.1388
 20
-19.9505
 11
54.3821
 21
-19.8066
  0
LINE
  8
0
 10
54.3821
 20
-19.8066
 11
54.634
 21
-19.6783
  0
LINE
  8
0
 10
54.634
 20
-19.6783
 11
54.8934
 21
-19.566
  0
LINE
  8
0
 10
54.8934
 20
-19.566
 11
55.1594
 21
-19.4702
  0
LINE
  8
0
 10
55.1594
 20
-19.4702
 11
55.4309
 21
-19.3914
  0
LINE
  8
0
 10
55.4309
 20
-19.3914
 11
55.7068
 21
-19.3297
  0
LINE
  8
0
 10
55.7068
 20
-19.3297
 11
55.986
 21
-19.2855
  0
LINE
  8
0
 10
55.986
 20
-19.2855
 11
56.2674
 21
-19.2589
  0
LINE
  8
0
 10
56.2674
 20
-19.2589
 11
56.55
 21
-19.25
  0
LINE
  8
0
 10
56.55
 20
-19.25
 11
56.8326
 21
-19.2589
  0
LINE
  8
0
 10
56.8326
 20
-19.2589
 11
57.114
 21
-19.2855
  0
LINE
  8
0
 10
57.114
 20
-19.2855
 11
57.3932
 21
-19.3297
  0
LINE
  8
0
 10
57.3932
 20
-19.3297
 11
57.6691
 21
-19.3914
  0
LINE
  8
0
 10
57.6691
 20
-19.3914
 11
57.9406
 21
-19.4702
  0
LINE
  8
0
 10
57.9406
 20
-19.4702
 11
58.2066
 21
-19.566
  0
LINE
  8
0
 10
58.2066
 20
-19.566
 11
58.466
 21
-19.6783
  0
LINE
  8
0
 10
58.466
 20
-19.6783
 11
58.7179
 21
-19.8066
  0
LINE
  8
0
 10
58.7179
 20
-19.8066
 11
58.9612
 21
-19.9505
  0
LINE
  8
0
 10
58.9612
 20
-19.9505
 11
59.195
 21
-20.1094
  0
LINE
  8
0
 10
59.195
 20
-20.1094
 11
59.4184
 21
-20.2827
  0
LINE
  8
0
 10
59.4184
 20
-20.2827
 11
59.6304
 21
-20.4696
  0
LINE
  8
0
 10
59.6304
 20
-20.4696
 11
59.8304
 21
-20.6695
  0
LINE
  8
0
 10
59.8304
 20
-20.6695
 11
60.0173
 21
-20.8816
  0
LINE
  8
0
 10
60.0173
 20
-20.8816
 11
60.1906
 21
-21.105
  0
LINE
  8
0
 10
60.1906
 20
-21.105
 11
60.3495
 21
-21.3388
  0
LINE
  8
0
 10
60.3495
 20
-21.3388
 11
60.4934
 21
-21.5821
  0
LINE
  8
0
 10
60.4934
 20
-21.5821
 11
60.6217
 21
-21.834
  0
LINE
  8
0
 10
60.6217
 20
-21.834
 11
60.734
 21
-22.0934
  0
LINE
  8
0
 10
60.734
 20
-22.0934
 11
60.8297
 21
-22.3594
  0
LINE
  8
0
 10
60.8297
 20
-22.3594
 11
60.9086
 21
-22.6309
  0
LINE
  8
0
 10
60.9086
 20
-22.6309
 11
60.9703
 21
-22.9068
  0
LINE
  8
0
 10
60.9703
 20
-22.9068
 11
61.0145
 21
-23.186
  0
LINE
  8
0
 10
61.0145
 20
-23.186
 11
61.0411
 21
-23.4674
  0
LINE
  8
0
 10
61.0411
 20
-23.4674
 11
61.05
 21
-23.75
  0
LINE
  8
0
 10
61.05
 20
-23.75
 11
61.0411
 21
-24.0325
  0
LINE
  8
0
 10
61.0411
 20
-24.0325
 11
61.0145
 21
-24.314
  0
LINE
  8
0
 10
61.0145
 20
-24.314
 11
60.9703
 21
-24.5932
  0
LINE
  8
0
 10
60.9703
 20
-24.5932
 11
60.9086
 21
-24.8691
  0
LINE
  8
0
 10
60.9086
 20
-24.8691
 11
60.8297
 21
-25.1406
  0
LINE
  8
0
 10
60.8297
 20
-25.1406
 11
60.734
 21
-25.4066
  0
LINE
  8
0
 10
60.734
 20
-25.4066
 11
60.6217
 21
-25.666
  0
LINE
  8
0
 10
60.6217
 20
-25.666
 11
60.4934
 21
-25.9179
  0
LINE
  8
0
 10
60.4934
 20
-25.9179
 11
60.3495
 21
-26.1612
  0
LINE
  8
0
 10
60.3495
 20
-26.1612
 11
60.1906
 21
-26.395
  0
LINE
  8
0
 10
60.1906
 20
-26.395
 11
60.0173
 21
-26.6184
  0
LINE
  8
0
 10
60.0173
 20
-26.6184
 11
59.8304
 21
-26.8305
  0
LINE
  8
0
 10
59.8304
 20
-26.8305
 11
59.6304
 21
-27.0303
  0
LINE
  8
0
 10
59.6304
 20
-27.0303
 11
59.4184
 21
-27.2173
  0
LINE
  8
0
 10
59.4184
 20
-27.2173
 11
59.195
 21
-27.3906
  0
LINE
  8
0
 10
59.195
 20
-27.3906
 11
58.9612
 21
-27.5495
  0
LINE
  8
0
 10
58.9612
 20
-27.5495
 11
58.7179
 21
-27.6934
  0
LINE
  8
0
 10
58.7179
 20
-27.6934
 11
58.466
 21
-27.8217
  0
LINE
  8
0
 10
58.466
 20
-27.8217
 11
58.2066
 21
-27.934
  0
LINE
  8
0
 10
58.2066
 20
-27.934
 11
57.9406
 21
-28.0297
  0
LINE
  8
0
 10
57.9406
 20
-28.0297
 11
57.6691
 21
-28.1086
  0
LINE
  8
0
 10
57.6691
 20
-28.1086
 11
57.3932
 21
-28.1703
  0
LINE
  8
0
 10
57.3932
 20
-28.1703
 11
57.114
 21
-28.2145
  0
LINE
  8
0
 10
57.114
 20
-28.2145
 11
56.8326
 21
-28.2411
  0
LINE
  8
0
 10
56.8326
 20
-28.2411
 11
56.55
 21
-28.25
  0
LINE
  8
0
 10
56.55
 20
-28.25
 11
56.2674
 21
-28.2411
  0
ENDSEC
  0
SECTION
  2
OBJECTS
  0
DICTIONARY
  0
ENDSEC
  0
EOF
