  0
SECTION
  2
BLOCKS
  0
ENDSEC
  0
SECTION
  2
ENTITIES
  0
LINE
  8
0
 10
62.5
 20
54
 11
-62.5
 21
54
  0
LINE
  8
0
 10
-62.5
 20
54
 11
-62.5
 21
-54
  0
LINE
  8
0
 10
-62.5
 20
-54
 11
62.5
 21
-54
  0
LINE
  8
0
 10
62.5
 20
-54
 11
62.5
 21
54
  0
LINE
  8
0
 10
-57.113
 20
46.2035
 11
-57.2256
 21
46.2142
  0
LINE
  8
0
 10
-57.2256
 20
46.2142
 11
-57.3373
 21
46.2319
  0
LINE
  8
0
 10
-57.3373
 20
46.2319
 11
-57.4476
 21
46.2565
  0
LINE
  8
0
 10
-57.4476
 20
46.2565
 11
-57.5562
 21
46.2881
  0
LINE
  8
0
 10
-57.5562
 20
46.2881
 11
-57.6626
 21
46.3264
  0
LINE
  8
0
 10
-57.6626
 20
46.3264
 11
-57.7664
 21
46.3713
  0
LINE
  8
0
 10
-57.7664
 20
46.3713
 11
-57.8671
 21
46.4226
  0
LINE
  8
0
 10
-57.8671
 20
46.4226
 11
-57.9645
 21
46.4802
  0
LINE
  8
0
 10
-57.9645
 20
46.4802
 11
-58.058
 21
46.5438
  0
LINE
  8
0
 10
-58.058
 20
46.5438
 11
-58.1474
 21
46.6131
  0
LINE
  8
0
 10
-58.1474
 20
46.6131
 11
-58.2322
 21
46.6879
  0
LINE
  8
0
 10
-58.2322
 20
46.6879
 11
-58.3121
 21
46.7678
  0
LINE
  8
0
 10
-58.3121
 20
46.7678
 11
-58.3869
 21
46.8526
  0
LINE
  8
0
 10
-58.3869
 20
46.8526
 11
-58.4562
 21
46.942
  0
LINE
  8
0
 10
-58.4562
 20
46.942
 11
-58.5198
 21
47.0355
  0
LINE
  8
0
 10
-58.5198
 20
47.0355
 11
-58.5773
 21
47.1328
  0
LINE
  8
0
 10
-58.5773
 20
47.1328
 11
-58.6287
 21
47.2336
  0
LINE
  8
0
 10
-58.6287
 20
47.2336
 11
-58.6736
 21
47.3374
  0
LINE
  8
0
 10
-58.6736
 20
47.3374
 11
-58.7119
 21
47.4438
  0
LINE
  8
0
 10
-58.7119
 20
47.4438
 11
-58.7434
 21
47.5524
  0
LINE
  8
0
 10
-58.7434
 20
47.5524
 11
-58.7681
 21
47.6627
  0
LINE
  8
0
 10
-58.7681
 20
47.6627
 11
-58.7858
 21
47.7744
  0
LINE
  8
0
 10
-58.7858
 20
47.7744
 11
-58.7964
 21
47.887
  0
LINE
  8
0
 10
-58.7964
 20
47.887
 11
-58.8
 21
48
  0
LINE
  8
0
 10
-58.8
 20
48
 11
-58.7964
 21
48.113
  0
LINE
  8
0
 10
-58.7964
 20
48.113
 11
-58.7858
 21
48.2256
  0
LINE
  8
0
 10
-58.7858
 20
48.2256
 11
-58.7681
 21
48.3373
  0
LINE
  8
0
 10
-58.7681
 20
48.3373
 11
-58.7434
 21
48.4476
  0
LINE
  8
0
 10
-58.7434
 20
48.4476
 11
-58.7119
 21
48.5562
  0
LINE
  8
0
 10
-58.7119
 20
48.5562
 11
-58.6736
 21
48.6626
  0
LINE
  8
0
 10
-58.6736
 20
48.6626
 11
-58.6287
 21
48.7664
  0
LINE
  8
0
 10
-58.6287
 20
48.7664
 11
-58.5773
 21
48.8671
  0
LINE
  8
0
 10
-58.5773
 20
48.8671
 11
-58.5198
 21
48.9645
  0
LINE
  8
0
 10
-58.5198
 20
48.9645
 11
-58.4562
 21
49.058
  0
LINE
  8
0
 10
-58.4562
 20
49.058
 11
-58.3869
 21
49.1474
  0
LINE
  8
0
 10
-58.3869
 20
49.1474
 11
-58.3121
 21
49.2322
  0
LINE
  8
0
 10
-58.3121
 20
49.2322
 11
-58.2322
 21
49.3121
  0
LINE
  8
0
 10
-58.2322
 20
49.3121
 11
-58.1474
 21
49.3869
  0
LINE
  8
0
 10
-58.1474
 20
49.3869
 11
-58.058
 21
49.4562
  0
LINE
  8
0
 10
-58.058
 20
49.4562
 11
-57.9645
 21
49.5198
  0
LINE
  8
0
 10
-57.9645
 20
49.5198
 11
-57.8671
 21
49.5773
  0
LINE
  8
0
 10
-57.8671
 20
49.5773
 11
-57.7664
 21
49.6287
  0
LINE
  8
0
 10
-57.7664
 20
49.6287
 11
-57.6626
 21
49.6736
  0
LINE
  8
0
 10
-57.6626
 20
49.6736
 11
-57.5562
 21
49.7119
  0
LINE
  8
0
 10
-57.5562
 20
49.7119
 11
-57.4476
 21
49.7434
  0
LINE
  8
0
 10
-57.4476
 20
49.7434
 11
-57.3373
 21
49.7681
  0
LINE
  8
0
 10
-57.3373
 20
49.7681
 11
-57.2256
 21
49.7858
  0
LINE
  8
0
 10
-57.2256
 20
49.7858
 11
-57.113
 21
49.7964
  0
LINE
  8
0
 10
-57.113
 20
49.7964
 11
-57
 21
49.8
  0
LINE
  8
0
 10
-57
 20
49.8
 11
-56.887
 21
49.7964
  0
LINE
  8
0
 10
-56.887
 20
49.7964
 11
-56.7744
 21
49.7858
  0
LINE
  8
0
 10
-56.7744
 20
49.7858
 11
-56.6627
 21
49.7681
  0
LINE
  8
0
 10
-56.6627
 20
49.7681
 11
-56.5524
 21
49.7434
  0
LINE
  8
0
 10
-56.5524
 20
49.7434
 11
-56.4438
 21
49.7119
  0
LINE
  8
0
 10
-56.4438
 20
49.7119
 11
-56.3374
 21
49.6736
  0
LINE
  8
0
 10
-56.3374
 20
49.6736
 11
-56.2336
 21
49.6287
  0
LINE
  8
0
 10
-56.2336
 20
49.6287
 11
-56.1328
 21
49.5773
  0
LINE
  8
0
 10
-56.1328
 20
49.5773
 11
-56.0355
 21
49.5198
  0
LINE
  8
0
 10
-56.0355
 20
49.5198
 11
-55.942
 21
49.4562
  0
LINE
  8
0
 10
-55.942
 20
49.4562
 11
-55.8526
 21
49.3869
  0
LINE
  8
0
 10
-55.8526
 20
49.3869
 11
-55.7678
 21
49.3121
  0
LINE
  8
0
 10
-55.7678
 20
49.3121
 11
-55.6879
 21
49.2322
  0
LINE
  8
0
 10
-55.6879
 20
49.2322
 11
-55.6131
 21
49.1474
  0
LINE
  8
0
 10
-55.6131
 20
49.1474
 11
-55.5438
 21
49.058
  0
LINE
  8
0
 10
-55.5438
 20
49.058
 11
-55.4802
 21
48.9645
  0
LINE
  8
0
 10
-55.4802
 20
48.9645
 11
-55.4226
 21
48.8671
  0
LINE
  8
0
 10
-55.4226
 20
48.8671
 11
-55.3713
 21
48.7664
  0
LINE
  8
0
 10
-55.3713
 20
48.7664
 11
-55.3264
 21
48.6626
  0
LINE
  8
0
 10
-55.3264
 20
48.6626
 11
-55.2881
 21
48.5562
  0
LINE
  8
0
 10
-55.2881
 20
48.5562
 11
-55.2565
 21
48.4476
  0
LINE
  8
0
 10
-55.2565
 20
48.4476
 11
-55.2319
 21
48.3373
  0
LINE
  8
0
 10
-55.2319
 20
48.3373
 11
-55.2142
 21
48.2256
  0
LINE
  8
0
 10
-55.2142
 20
48.2256
 11
-55.2035
 21
48.113
  0
LINE
  8
0
 10
-55.2035
 20
48.113
 11
-55.2
 21
48
  0
LINE
  8
0
 10
-55.2
 20
48
 11
-55.2035
 21
47.887
  0
LINE
  8
0
 10
-55.2035
 20
47.887
 11
-55.2142
 21
47.7744
  0
LINE
  8
0
 10
-55.2142
 20
47.7744
 11
-55.2319
 21
47.6627
  0
LINE
  8
0
 10
-55.2319
 20
47.6627
 11
-55.2565
 21
47.5524
  0
LINE
  8
0
 10
-55.2565
 20
47.5524
 11
-55.2881
 21
47.4438
  0
LINE
  8
0
 10
-55.2881
 20
47.4438
 11
-55.3264
 21
47.3374
  0
LINE
  8
0
 10
-55.3264
 20
47.3374
 11
-55.3713
 21
47.2336
  0
LINE
  8
0
 10
-55.3713
 20
47.2336
 11
-55.4226
 21
47.1328
  0
LINE
  8
0
 10
-55.4226
 20
47.1328
 11
-55.4802
 21
47.0355
  0
LINE
  8
0
 10
-55.4802
 20
47.0355
 11
-55.5438
 21
46.942
  0
LINE
  8
0
 10
-55.5438
 20
46.942
 11
-55.6131
 21
46.8526
  0
LINE
  8
0
 10
-55.6131
 20
46.8526
 11
-55.6879
 21
46.7678
  0
LINE
  8
0
 10
-55.6879
 20
46.7678
 11
-55.7678
 21
46.6879
  0
LINE
  8
0
 10
-55.7678
 20
46.6879
 11
-55.8526
 21
46.6131
  0
LINE
  8
0
 10
-55.8526
 20
46.6131
 11
-55.942
 21
46.5438
  0
LINE
  8
0
 10
-55.942
 20
46.5438
 11
-56.0355
 21
46.4802
  0
LINE
  8
0
 10
-56.0355
 20
46.4802
 11
-56.1328
 21
46.4226
  0
LINE
  8
0
 10
-56.1328
 20
46.4226
 11
-56.2336
 21
46.3713
  0
LINE
  8
0
 10
-56.2336
 20
46.3713
 11
-56.3374
 21
46.3264
  0
LINE
  8
0
 10
-56.3374
 20
46.3264
 11
-56.4438
 21
46.2881
  0
LINE
  8
0
 10
-56.4438
 20
46.2881
 11
-56.5524
 21
46.2565
  0
LINE
  8
0
 10
-56.5524
 20
46.2565
 11
-56.6627
 21
46.2319
  0
LINE
  8
0
 10
-56.6627
 20
46.2319
 11
-56.7744
 21
46.2142
  0
LINE
  8
0
 10
-56.7744
 20
46.2142
 11
-56.887
 21
46.2035
  0
LINE
  8
0
 10
-56.887
 20
46.2035
 11
-57
 21
46.2
  0
LINE
  8
0
 10
-57
 20
46.2
 11
-57.113
 21
46.2035
  0
LINE
  8
0
 10
56.887
 20
46.2035
 11
56.7744
 21
46.2142
  0
LINE
  8
0
 10
56.7744
 20
46.2142
 11
56.6627
 21
46.2319
  0
LINE
  8
0
 10
56.6627
 20
46.2319
 11
56.5524
 21
46.2565
  0
LINE
  8
0
 10
56.5524
 20
46.2565
 11
56.4438
 21
46.2881
  0
LINE
  8
0
 10
56.4438
 20
46.2881
 11
56.3374
 21
46.3264
  0
LINE
  8
0
 10
56.3374
 20
46.3264
 11
56.2336
 21
46.3713
  0
LINE
  8
0
 10
56.2336
 20
46.3713
 11
56.1328
 21
46.4226
  0
LINE
  8
0
 10
56.1328
 20
46.4226
 11
56.0355
 21
46.4802
  0
LINE
  8
0
 10
56.0355
 20
46.4802
 11
55.942
 21
46.5438
  0
LINE
  8
0
 10
55.942
 20
46.5438
 11
55.8526
 21
46.6131
  0
LINE
  8
0
 10
55.8526
 20
46.6131
 11
55.7678
 21
46.6879
  0
LINE
  8
0
 10
55.7678
 20
46.6879
 11
55.6879
 21
46.7678
  0
LINE
  8
0
 10
55.6879
 20
46.7678
 11
55.6131
 21
46.8526
  0
LINE
  8
0
 10
55.6131
 20
46.8526
 11
55.5438
 21
46.942
  0
LINE
  8
0
 10
55.5438
 20
46.942
 11
55.4802
 21
47.0355
  0
LINE
  8
0
 10
55.4802
 20
47.0355
 11
55.4226
 21
47.1328
  0
LINE
  8
0
 10
55.4226
 20
47.1328
 11
55.3713
 21
47.2336
  0
LINE
  8
0
 10
55.3713
 20
47.2336
 11
55.3264
 21
47.3374
  0
LINE
  8
0
 10
55.3264
 20
47.3374
 11
55.2881
 21
47.4438
  0
LINE
  8
0
 10
55.2881
 20
47.4438
 11
55.2565
 21
47.5524
  0
LINE
  8
0
 10
55.2565
 20
47.5524
 11
55.2319
 21
47.6627
  0
LINE
  8
0
 10
55.2319
 20
47.6627
 11
55.2142
 21
47.7744
  0
LINE
  8
0
 10
55.2142
 20
47.7744
 11
55.2035
 21
47.887
  0
LINE
  8
0
 10
55.2035
 20
47.887
 11
55.2
 21
48
  0
LINE
  8
0
 10
55.2
 20
48
 11
55.2035
 21
48.113
  0
LINE
  8
0
 10
55.2035
 20
48.113
 11
55.2142
 21
48.2256
  0
LINE
  8
0
 10
55.2142
 20
48.2256
 11
55.2319
 21
48.3373
  0
LINE
  8
0
 10
55.2319
 20
48.3373
 11
55.2565
 21
48.4476
  0
LINE
  8
0
 10
55.2565
 20
48.4476
 11
55.2881
 21
48.5562
  0
LINE
  8
0
 10
55.2881
 20
48.5562
 11
55.3264
 21
48.6626
  0
LINE
  8
0
 10
55.3264
 20
48.6626
 11
55.3713
 21
48.7664
  0
LINE
  8
0
 10
55.3713
 20
48.7664
 11
55.4226
 21
48.8671
  0
LINE
  8
0
 10
55.4226
 20
48.8671
 11
55.4802
 21
48.9645
  0
LINE
  8
0
 10
55.4802
 20
48.9645
 11
55.5438
 21
49.058
  0
LINE
  8
0
 10
55.5438
 20
49.058
 11
55.6131
 21
49.1474
  0
LINE
  8
0
 10
55.6131
 20
49.1474
 11
55.6879
 21
49.2322
  0
LINE
  8
0
 10
55.6879
 20
49.2322
 11
55.7678
 21
49.3121
  0
LINE
  8
0
 10
55.7678
 20
49.3121
 11
55.8526
 21
49.3869
  0
LINE
  8
0
 10
55.8526
 20
49.3869
 11
55.942
 21
49.4562
  0
LINE
  8
0
 10
55.942
 20
49.4562
 11
56.0355
 21
49.5198
  0
LINE
  8
0
 10
56.0355
 20
49.5198
 11
56.1328
 21
49.5773
  0
LINE
  8
0
 10
56.1328
 20
49.5773
 11
56.2336
 21
49.6287
  0
LINE
  8
0
 10
56.2336
 20
49.6287
 11
56.3374
 21
49.6736
  0
LINE
  8
0
 10
56.3374
 20
49.6736
 11
56.4438
 21
49.7119
  0
LINE
  8
0
 10
56.4438
 20
49.7119
 11
56.5524
 21
49.7434
  0
LINE
  8
0
 10
56.5524
 20
49.7434
 11
56.6627
 21
49.7681
  0
LINE
  8
0
 10
56.6627
 20
49.7681
 11
56.7744
 21
49.7858
  0
LINE
  8
0
 10
56.7744
 20
49.7858
 11
56.887
 21
49.7964
  0
LINE
  8
0
 10
56.887
 20
49.7964
 11
57
 21
49.8
  0
LINE
  8
0
 10
57
 20
49.8
 11
57.113
 21
49.7964
  0
LINE
  8
0
 10
57.113
 20
49.7964
 11
57.2256
 21
49.7858
  0
LINE
  8
0
 10
57.2256
 20
49.7858
 11
57.3373
 21
49.7681
  0
LINE
  8
0
 10
57.3373
 20
49.7681
 11
57.4476
 21
49.7434
  0
LINE
  8
0
 10
57.4476
 20
49.7434
 11
57.5562
 21
49.7119
  0
LINE
  8
0
 10
57.5562
 20
49.7119
 11
57.6626
 21
49.6736
  0
LINE
  8
0
 10
57.6626
 20
49.6736
 11
57.7664
 21
49.6287
  0
LINE
  8
0
 10
57.7664
 20
49.6287
 11
57.8671
 21
49.5773
  0
LINE
  8
0
 10
57.8671
 20
49.5773
 11
57.9645
 21
49.5198
  0
LINE
  8
0
 10
57.9645
 20
49.5198
 11
58.058
 21
49.4562
  0
LINE
  8
0
 10
58.058
 20
49.4562
 11
58.1474
 21
49.3869
  0
LINE
  8
0
 10
58.1474
 20
49.3869
 11
58.2322
 21
49.3121
  0
LINE
  8
0
 10
58.2322
 20
49.3121
 11
58.3121
 21
49.2322
  0
LINE
  8
0
 10
58.3121
 20
49.2322
 11
58.3869
 21
49.1474
  0
LINE
  8
0
 10
58.3869
 20
49.1474
 11
58.4562
 21
49.058
  0
LINE
  8
0
 10
58.4562
 20
49.058
 11
58.5198
 21
48.9645
  0
LINE
  8
0
 10
58.5198
 20
48.9645
 11
58.5773
 21
48.8671
  0
LINE
  8
0
 10
58.5773
 20
48.8671
 11
58.6287
 21
48.7664
  0
LINE
  8
0
 10
58.6287
 20
48.7664
 11
58.6736
 21
48.6626
  0
LINE
  8
0
 10
58.6736
 20
48.6626
 11
58.7119
 21
48.5562
  0
LINE
  8
0
 10
58.7119
 20
48.5562
 11
58.7434
 21
48.4476
  0
LINE
  8
0
 10
58.7434
 20
48.4476
 11
58.7681
 21
48.3373
  0
LINE
  8
0
 10
58.7681
 20
48.3373
 11
58.7858
 21
48.2256
  0
LINE
  8
0
 10
58.7858
 20
48.2256
 11
58.7964
 21
48.113
  0
LINE
  8
0
 10
58.7964
 20
48.113
 11
58.8
 21
48
  0
LINE
  8
0
 10
58.8
 20
48
 11
58.7964
 21
47.887
  0
LINE
  8
0
 10
58.7964
 20
47.887
 11
58.7858
 21
47.7744
  0
LINE
  8
0
 10
58.7858
 20
47.7744
 11
58.7681
 21
47.6627
  0
LINE
  8
0
 10
58.7681
 20
47.6627
 11
58.7434
 21
47.5524
  0
LINE
  8
0
 10
58.7434
 20
47.5524
 11
58.7119
 21
47.4438
  0
LINE
  8
0
 10
58.7119
 20
47.4438
 11
58.6736
 21
47.3374
  0
LINE
  8
0
 10
58.6736
 20
47.3374
 11
58.6287
 21
47.2336
  0
LINE
  8
0
 10
58.6287
 20
47.2336
 11
58.5773
 21
47.1328
  0
LINE
  8
0
 10
58.5773
 20
47.1328
 11
58.5198
 21
47.0355
  0
LINE
  8
0
 10
58.5198
 20
47.0355
 11
58.4562
 21
46.942
  0
LINE
  8
0
 10
58.4562
 20
46.942
 11
58.3869
 21
46.8526
  0
LINE
  8
0
 10
58.3869
 20
46.8526
 11
58.3121
 21
46.7678
  0
LINE
  8
0
 10
58.3121
 20
46.7678
 11
58.2322
 21
46.6879
  0
LINE
  8
0
 10
58.2322
 20
46.6879
 11
58.1474
 21
46.6131
  0
LINE
  8
0
 10
58.1474
 20
46.6131
 11
58.058
 21
46.5438
  0
LINE
  8
0
 10
58.058
 20
46.5438
 11
57.9645
 21
46.4802
  0
LINE
  8
0
 10
57.9645
 20
46.4802
 11
57.8671
 21
46.4226
  0
LINE
  8
0
 10
57.8671
 20
46.4226
 11
57.7664
 21
46.3713
  0
LINE
  8
0
 10
57.7664
 20
46.3713
 11
57.6626
 21
46.3264
  0
LINE
  8
0
 10
57.6626
 20
46.3264
 11
57.5562
 21
46.2881
  0
LINE
  8
0
 10
57.5562
 20
46.2881
 11
57.4476
 21
46.2565
  0
LINE
  8
0
 10
57.4476
 20
46.2565
 11
57.3373
 21
46.2319
  0
LINE
  8
0
 10
57.3373
 20
46.2319
 11
57.2256
 21
46.2142
  0
LINE
  8
0
 10
57.2256
 20
46.2142
 11
57.113
 21
46.2035
  0
LINE
  8
0
 10
57.113
 20
46.2035
 11
57
 21
46.2
  0
LINE
  8
0
 10
57
 20
46.2
 11
56.887
 21
46.2035
  0
LINE
  8
0
 10
-0.113022
 20
46.2035
 11
-0.225586
 21
46.2142
  0
LINE
  8
0
 10
-0.225586
 20
46.2142
 11
-0.33728
 21
46.2319
  0
LINE
  8
0
 10
-0.33728
 20
46.2319
 11
-0.447632
 21
46.2565
  0
LINE
  8
0
 10
-0.447632
 20
46.2565
 11
-0.556229
 21
46.2881
  0
LINE
  8
0
 10
-0.556229
 20
46.2881
 11
-0.662613
 21
46.3264
  0
LINE
  8
0
 10
-0.662613
 20
46.3264
 11
-0.766388
 21
46.3713
  0
LINE
  8
0
 10
-0.766388
 20
46.3713
 11
-0.867142
 21
46.4226
  0
LINE
  8
0
 10
-0.867142
 20
46.4226
 11
-0.964478
 21
46.4802
  0
LINE
  8
0
 10
-0.964478
 20
46.4802
 11
-1.058
 21
46.5438
  0
LINE
  8
0
 10
-1.058
 20
46.5438
 11
-1.14735
 21
46.6131
  0
LINE
  8
0
 10
-1.14735
 20
46.6131
 11
-1.23218
 21
46.6879
  0
LINE
  8
0
 10
-1.23218
 20
46.6879
 11
-1.31213
 21
46.7678
  0
LINE
  8
0
 10
-1.31213
 20
46.7678
 11
-1.38692
 21
46.8526
  0
LINE
  8
0
 10
-1.38692
 20
46.8526
 11
-1.45622
 21
46.942
  0
LINE
  8
0
 10
-1.45622
 20
46.942
 11
-1.51978
 21
47.0355
  0
LINE
  8
0
 10
-1.51978
 20
47.0355
 11
-1.57735
 21
47.1328
  0
LINE
  8
0
 10
-1.57735
 20
47.1328
 11
-1.62868
 21
47.2336
  0
LINE
  8
0
 10
-1.62868
 20
47.2336
 11
-1.67358
 21
47.3374
  0
LINE
  8
0
 10
-1.67358
 20
47.3374
 11
-1.7119
 21
47.4438
  0
LINE
  8
0
 10
-1.7119
 20
47.4438
 11
-1.74344
 21
47.5524
  0
LINE
  8
0
 10
-1.74344
 20
47.5524
 11
-1.76811
 21
47.6627
  0
LINE
  8
0
 10
-1.76811
 20
47.6627
 11
-1.7858
 21
47.7744
  0
LINE
  8
0
 10
-1.7858
 20
47.7744
 11
-1.79645
 21
47.887
  0
LINE
  8
0
 10
-1.79645
 20
47.887
 11
-1.79999
 21
48
  0
LINE
  8
0
 10
-1.79999
 20
48
 11
-1.79645
 21
48.113
  0
LINE
  8
0
 10
-1.79645
 20
48.113
 11
-1.7858
 21
48.2256
  0
LINE
  8
0
 10
-1.7858
 20
48.2256
 11
-1.76811
 21
48.3373
  0
LINE
  8
0
 10
-1.76811
 20
48.3373
 11
-1.74344
 21
48.4476
  0
LINE
  8
0
 10
-1.74344
 20
48.4476
 11
-1.7119
 21
48.5562
  0
LINE
  8
0
 10
-1.7119
 20
48.5562
 11
-1.67358
 21
48.6626
  0
LINE
  8
0
 10
-1.67358
 20
48.6626
 11
-1.62868
 21
48.7664
  0
LINE
  8
0
 10
-1.62868
 20
48.7664
 11
-1.57735
 21
48.8671
  0
LINE
  8
0
 10
-1.57735
 20
48.8671
 11
-1.51978
 21
48.9645
  0
LINE
  8
0
 10
-1.51978
 20
48.9645
 11
-1.45622
 21
49.058
  0
LINE
  8
0
 10
-1.45622
 20
49.058
 11
-1.38692
 21
49.1474
  0
LINE
  8
0
 10
-1.38692
 20
49.1474
 11
-1.31213
 21
49.2322
  0
LINE
  8
0
 10
-1.31213
 20
49.2322
 11
-1.23218
 21
49.3121
  0
LINE
  8
0
 10
-1.23218
 20
49.3121
 11
-1.14735
 21
49.3869
  0
LINE
  8
0
 10
-1.14735
 20
49.3869
 11
-1.058
 21
49.4562
  0
LINE
  8
0
 10
-1.058
 20
49.4562
 11
-0.964478
 21
49.5198
  0
LINE
  8
0
 10
-0.964478
 20
49.5198
 11
-0.867142
 21
49.5773
  0
LINE
  8
0
 10
-0.867142
 20
49.5773
 11
-0.766388
 21
49.6287
  0
LINE
  8
0
 10
-0.766388
 20
49.6287
 11
-0.662613
 21
49.6736
  0
LINE
  8
0
 10
-0.662613
 20
49.6736
 11
-0.556229
 21
49.7119
  0
LINE
  8
0
 10
-0.556229
 20
49.7119
 11
-0.447632
 21
49.7434
  0
LINE
  8
0
 10
-0.447632
 20
49.7434
 11
-0.33728
 21
49.7681
  0
LINE
  8
0
 10
-0.33728
 20
49.7681
 11
-0.225586
 21
49.7858
  0
LINE
  8
0
 10
-0.225586
 20
49.7858
 11
-0.113022
 21
49.7964
  0
LINE
  8
0
 10
-0.113022
 20
49.7964
 11
0
 21
49.8
  0
LINE
  8
0
 10
0
 20
49.8
 11
0.113022
 21
49.7964
  0
LINE
  8
0
 10
0.113022
 20
49.7964
 11
0.225586
 21
49.7858
  0
LINE
  8
0
 10
0.225586
 20
49.7858
 11
0.33728
 21
49.7681
  0
LINE
  8
0
 10
0.33728
 20
49.7681
 11
0.447632
 21
49.7434
  0
LINE
  8
0
 10
0.447632
 20
49.7434
 11
0.556229
 21
49.7119
  0
LINE
  8
0
 10
0.556229
 20
49.7119
 11
0.662613
 21
49.6736
  0
LINE
  8
0
 10
0.662613
 20
49.6736
 11
0.766388
 21
49.6287
  0
LINE
  8
0
 10
0.766388
 20
49.6287
 11
0.867142
 21
49.5773
  0
LINE
  8
0
 10
0.867142
 20
49.5773
 11
0.964478
 21
49.5198
  0
LINE
  8
0
 10
0.964478
 20
49.5198
 11
1.058
 21
49.4562
  0
LINE
  8
0
 10
1.058
 20
49.4562
 11
1.14735
 21
49.3869
  0
LINE
  8
0
 10
1.14735
 20
49.3869
 11
1.23218
 21
49.3121
  0
LINE
  8
0
 10
1.23218
 20
49.3121
 11
1.31213
 21
49.2322
  0
LINE
  8
0
 10
1.31213
 20
49.2322
 11
1.38692
 21
49.1474
  0
LINE
  8
0
 10
1.38692
 20
49.1474
 11
1.45622
 21
49.058
  0
LINE
  8
0
 10
1.45622
 20
49.058
 11
1.51978
 21
48.9645
  0
LINE
  8
0
 10
1.51978
 20
48.9645
 11
1.57735
 21
48.8671
  0
LINE
  8
0
 10
1.57735
 20
48.8671
 11
1.62868
 21
48.7664
  0
LINE
  8
0
 10
1.62868
 20
48.7664
 11
1.67358
 21
48.6626
  0
LINE
  8
0
 10
1.67358
 20
48.6626
 11
1.7119
 21
48.5562
  0
LINE
  8
0
 10
1.7119
 20
48.5562
 11
1.74344
 21
48.4476
  0
LINE
  8
0
 10
1.74344
 20
48.4476
 11
1.76811
 21
48.3373
  0
LINE
  8
0
 10
1.76811
 20
48.3373
 11
1.7858
 21
48.2256
  0
LINE
  8
0
 10
1.7858
 20
48.2256
 11
1.79645
 21
48.113
  0
LINE
  8
0
 10
1.79645
 20
48.113
 11
1.79999
 21
48
  0
LINE
  8
0
 10
1.79999
 20
48
 11
1.79645
 21
47.887
  0
LINE
  8
0
 10
1.79645
 20
47.887
 11
1.7858
 21
47.7744
  0
LINE
  8
0
 10
1.7858
 20
47.7744
 11
1.76811
 21
47.6627
  0
LINE
  8
0
 10
1.76811
 20
47.6627
 11
1.74344
 21
47.5524
  0
LINE
  8
0
 10
1.74344
 20
47.5524
 11
1.7119
 21
47.4438
  0
LINE
  8
0
 10
1.7119
 20
47.4438
 11
1.67358
 21
47.3374
  0
LINE
  8
0
 10
1.67358
 20
47.3374
 11
1.62868
 21
47.2336
  0
LINE
  8
0
 10
1.62868
 20
47.2336
 11
1.57735
 21
47.1328
  0
LINE
  8
0
 10
1.57735
 20
47.1328
 11
1.51978
 21
47.0355
  0
LINE
  8
0
 10
1.51978
 20
47.0355
 11
1.45622
 21
46.942
  0
LINE
  8
0
 10
1.45622
 20
46.942
 11
1.38692
 21
46.8526
  0
LINE
  8
0
 10
1.38692
 20
46.8526
 11
1.31213
 21
46.7678
  0
LINE
  8
0
 10
1.31213
 20
46.7678
 11
1.23218
 21
46.6879
  0
LINE
  8
0
 10
1.23218
 20
46.6879
 11
1.14735
 21
46.6131
  0
LINE
  8
0
 10
1.14735
 20
46.6131
 11
1.058
 21
46.5438
  0
LINE
  8
0
 10
1.058
 20
46.5438
 11
0.964478
 21
46.4802
  0
LINE
  8
0
 10
0.964478
 20
46.4802
 11
0.867142
 21
46.4226
  0
LINE
  8
0
 10
0.867142
 20
46.4226
 11
0.766388
 21
46.3713
  0
LINE
  8
0
 10
0.766388
 20
46.3713
 11
0.662613
 21
46.3264
  0
LINE
  8
0
 10
0.662613
 20
46.3264
 11
0.556229
 21
46.2881
  0
LINE
  8
0
 10
0.556229
 20
46.2881
 11
0.447632
 21
46.2565
  0
LINE
  8
0
 10
0.447632
 20
46.2565
 11
0.33728
 21
46.2319
  0
LINE
  8
0
 10
0.33728
 20
46.2319
 11
0.225586
 21
46.2142
  0
LINE
  8
0
 10
0.225586
 20
46.2142
 11
0.113022
 21
46.2035
  0
LINE
  8
0
 10
0.113022
 20
46.2035
 11
0
 21
46.2
  0
LINE
  8
0
 10
0
 20
46.2
 11
-0.113022
 21
46.2035
  0
LINE
  8
0
 10
-35.9014
 20
-42.3018
 11
-36.2469
 21
-42.2963
  0
LINE
  8
0
 10
-36.2469
 20
-42.2963
 11
-36.9366
 21
-42.2529
  0
LINE
  8
0
 10
-36.9366
 20
-42.2529
 11
-37.6221
 21
-42.1663
  0
LINE
  8
0
 10
-37.6221
 20
-42.1663
 11
-38.3009
 21
-42.0368
  0
LINE
  8
0
 10
-38.3009
 20
-42.0368
 11
-38.9703
 21
-41.865
  0
LINE
  8
0
 10
-38.9703
 20
-41.865
 11
-39.6275
 21
-41.6514
  0
LINE
  8
0
 10
-39.6275
 20
-41.6514
 11
-40.27
 21
-41.3971
  0
LINE
  8
0
 10
-40.27
 20
-41.3971
 11
-40.8953
 21
-41.1028
  0
LINE
  8
0
 10
-40.8953
 20
-41.1028
 11
-41.5008
 21
-40.7699
  0
LINE
  8
0
 10
-41.5008
 20
-40.7699
 11
-42.0843
 21
-40.3996
  0
LINE
  8
0
 10
-42.0843
 20
-40.3996
 11
-42.6433
 21
-39.9935
  0
LINE
  8
0
 10
-42.6433
 20
-39.9935
 11
-43.1758
 21
-39.553
  0
LINE
  8
0
 10
-43.1758
 20
-39.553
 11
-43.6795
 21
-39.0799
  0
LINE
  8
0
 10
-43.6795
 20
-39.0799
 11
-48.6795
 21
-34.0799
  0
LINE
  8
0
 10
-48.6795
 20
-34.0799
 11
-48.92
 21
-33.8318
  0
LINE
  8
0
 10
-48.92
 20
-33.8318
 11
-49.377
 21
-33.3134
  0
LINE
  8
0
 10
-49.377
 20
-33.3134
 11
-49.8006
 21
-32.7674
  0
LINE
  8
0
 10
-49.8006
 20
-32.7674
 11
-50.189
 21
-32.1958
  0
LINE
  8
0
 10
-50.189
 20
-32.1958
 11
-50.5407
 21
-31.601
  0
LINE
  8
0
 10
-50.5407
 20
-31.601
 11
-50.8545
 21
-30.9853
  0
LINE
  8
0
 10
-50.8545
 20
-30.9853
 11
-51.1289
 21
-30.3511
  0
LINE
  8
0
 10
-51.1289
 20
-30.3511
 11
-51.363
 21
-29.7009
  0
LINE
  8
0
 10
-51.363
 20
-29.7009
 11
-51.5558
 21
-29.0374
  0
LINE
  8
0
 10
-51.5558
 20
-29.0374
 11
-51.7065
 21
-28.3629
  0
LINE
  8
0
 10
-51.7065
 20
-28.3629
 11
-51.8146
 21
-27.6804
  0
LINE
  8
0
 10
-51.8146
 20
-27.6804
 11
-51.8797
 21
-26.9924
  0
LINE
  8
0
 10
-51.8797
 20
-26.9924
 11
-51.9014
 21
-26.3018
  0
LINE
  8
0
 10
-51.9014
 20
-26.3018
 11
-51.9014
 21
26.3018
  0
LINE
  8
0
 10
-51.9014
 20
26.3018
 11
-51.8959
 21
26.6473
  0
LINE
  8
0
 10
-51.8959
 20
26.6473
 11
-51.8526
 21
27.3369
  0
LINE
  8
0
 10
-51.8526
 20
27.3369
 11
-51.7659
 21
28.0225
  0
LINE
  8
0
 10
-51.7659
 20
28.0225
 11
-51.6364
 21
28.7013
  0
LINE
  8
0
 10
-51.6364
 20
28.7013
 11
-51.4646
 21
29.3707
  0
LINE
  8
0
 10
-51.4646
 20
29.3707
 11
-51.2511
 21
30.0279
  0
LINE
  8
0
 10
-51.2511
 20
30.0279
 11
-50.9967
 21
30.6704
  0
LINE
  8
0
 10
-50.9967
 20
30.6704
 11
-50.7024
 21
31.2957
  0
LINE
  8
0
 10
-50.7024
 20
31.2957
 11
-50.3695
 21
31.9012
  0
LINE
  8
0
 10
-50.3695
 20
31.9012
 11
-49.9993
 21
32.4847
  0
LINE
  8
0
 10
-49.9993
 20
32.4847
 11
-49.5931
 21
33.0437
  0
LINE
  8
0
 10
-49.5931
 20
33.0437
 11
-49.1526
 21
33.5762
  0
LINE
  8
0
 10
-49.1526
 20
33.5762
 11
-48.6795
 21
34.0799
  0
LINE
  8
0
 10
-48.6795
 20
34.0799
 11
-43.6795
 21
39.0799
  0
LINE
  8
0
 10
-43.6795
 20
39.0799
 11
-43.4314
 21
39.3204
  0
LINE
  8
0
 10
-43.4314
 20
39.3204
 11
-42.913
 21
39.7774
  0
LINE
  8
0
 10
-42.913
 20
39.7774
 11
-42.367
 21
40.2009
  0
LINE
  8
0
 10
-42.367
 20
40.2009
 11
-41.7955
 21
40.5894
  0
LINE
  8
0
 10
-41.7955
 20
40.5894
 11
-41.2007
 21
40.9411
  0
LINE
  8
0
 10
-41.2007
 20
40.9411
 11
-40.5849
 21
41.2549
  0
LINE
  8
0
 10
-40.5849
 20
41.2549
 11
-39.9507
 21
41.5293
  0
LINE
  8
0
 10
-39.9507
 20
41.5293
 11
-39.3006
 21
41.7634
  0
LINE
  8
0
 10
-39.3006
 20
41.7634
 11
-38.637
 21
41.9562
  0
LINE
  8
0
 10
-38.637
 20
41.9562
 11
-37.9626
 21
42.1069
  0
LINE
  8
0
 10
-37.9626
 20
42.1069
 11
-37.28
 21
42.215
  0
LINE
  8
0
 10
-37.28
 20
42.215
 11
-36.5921
 21
42.28
  0
LINE
  8
0
 10
-36.5921
 20
42.28
 11
-35.9014
 21
42.3018
  0
LINE
  8
0
 10
-35.9014
 20
42.3018
 11
35.9014
 21
42.3018
  0
LINE
  8
0
 10
35.9014
 20
42.3018
 11
36.2469
 21
42.2963
  0
LINE
  8
0
 10
36.2469
 20
42.2963
 11
36.9366
 21
42.2529
  0
LINE
  8
0
 10
36.9366
 20
42.2529
 11
37.6221
 21
42.1663
  0
LINE
  8
0
 10
37.6221
 20
42.1663
 11
38.3009
 21
42.0368
  0
LINE
  8
0
 10
38.3009
 20
42.0368
 11
38.9703
 21
41.865
  0
LINE
  8
0
 10
38.9703
 20
41.865
 11
39.6275
 21
41.6514
  0
LINE
  8
0
 10
39.6275
 20
41.6514
 11
40.27
 21
41.3971
  0
LINE
  8
0
 10
40.27
 20
41.3971
 11
40.8953
 21
41.1028
  0
LINE
  8
0
 10
40.8953
 20
41.1028
 11
41.5008
 21
40.7699
  0
LINE
  8
0
 10
41.5008
 20
40.7699
 11
42.0843
 21
40.3996
  0
LINE
  8
0
 10
42.0843
 20
40.3996
 11
42.6433
 21
39.9935
  0
LINE
  8
0
 10
42.6433
 20
39.9935
 11
43.1758
 21
39.553
  0
LINE
  8
0
 10
43.1758
 20
39.553
 11
43.6795
 21
39.0799
  0
LINE
  8
0
 10
43.6795
 20
39.0799
 11
48.6795
 21
34.0799
  0
LINE
  8
0
 10
48.6795
 20
34.0799
 11
48.92
 21
33.8318
  0
LINE
  8
0
 10
48.92
 20
33.8318
 11
49.377
 21
33.3134
  0
LINE
  8
0
 10
49.377
 20
33.3134
 11
49.8006
 21
32.7674
  0
LINE
  8
0
 10
49.8006
 20
32.7674
 11
50.189
 21
32.1958
  0
LINE
  8
0
 10
50.189
 20
32.1958
 11
50.5407
 21
31.601
  0
LINE
  8
0
 10
50.5407
 20
31.601
 11
50.8545
 21
30.9853
  0
LINE
  8
0
 10
50.8545
 20
30.9853
 11
51.1289
 21
30.3511
  0
LINE
  8
0
 10
51.1289
 20
30.3511
 11
51.363
 21
29.7009
  0
LINE
  8
0
 10
51.363
 20
29.7009
 11
51.5558
 21
29.0374
  0
LINE
  8
0
 10
51.5558
 20
29.0374
 11
51.7065
 21
28.3629
  0
LINE
  8
0
 10
51.7065
 20
28.3629
 11
51.8146
 21
27.6804
  0
LINE
  8
0
 10
51.8146
 20
27.6804
 11
51.8797
 21
26.9924
  0
LINE
  8
0
 10
51.8797
 20
26.9924
 11
51.9014
 21
26.3018
  0
LINE
  8
0
 10
51.9014
 20
26.3018
 11
51.9014
 21
-26.3018
  0
LINE
  8
0
 10
51.9014
 20
-26.3018
 11
51.8959
 21
-26.6473
  0
LINE
  8
0
 10
51.8959
 20
-26.6473
 11
51.8526
 21
-27.3369
  0
LINE
  8
0
 10
51.8526
 20
-27.3369
 11
51.7659
 21
-28.0225
  0
LINE
  8
0
 10
51.7659
 20
-28.0225
 11
51.6364
 21
-28.7013
  0
LINE
  8
0
 10
51.6364
 20
-28.7013
 11
51.4646
 21
-29.3707
  0
LINE
  8
0
 10
51.4646
 20
-29.3707
 11
51.2511
 21
-30.0279
  0
LINE
  8
0
 10
51.2511
 20
-30.0279
 11
50.9967
 21
-30.6704
  0
LINE
  8
0
 10
50.9967
 20
-30.6704
 11
50.7024
 21
-31.2957
  0
LINE
  8
0
 10
50.7024
 20
-31.2957
 11
50.3695
 21
-31.9012
  0
LINE
  8
0
 10
50.3695
 20
-31.9012
 11
49.9993
 21
-32.4847
  0
LINE
  8
0
 10
49.9993
 20
-32.4847
 11
49.5931
 21
-33.0437
  0
LINE
  8
0
 10
49.5931
 20
-33.0437
 11
49.1526
 21
-33.5762
  0
LINE
  8
0
 10
49.1526
 20
-33.5762
 11
48.6795
 21
-34.0799
  0
LINE
  8
0
 10
48.6795
 20
-34.0799
 11
43.6795
 21
-39.0799
  0
LINE
  8
0
 10
43.6795
 20
-39.0799
 11
43.4314
 21
-39.3204
  0
LINE
  8
0
 10
43.4314
 20
-39.3204
 11
42.913
 21
-39.7774
  0
LINE
  8
0
 10
42.913
 20
-39.7774
 11
42.367
 21
-40.2009
  0
LINE
  8
0
 10
42.367
 20
-40.2009
 11
41.7955
 21
-40.5894
  0
LINE
  8
0
 10
41.7955
 20
-40.5894
 11
41.2007
 21
-40.9411
  0
LINE
  8
0
 10
41.2007
 20
-40.9411
 11
40.5849
 21
-41.2549
  0
LINE
  8
0
 10
40.5849
 20
-41.2549
 11
39.9507
 21
-41.5293
  0
LINE
  8
0
 10
39.9507
 20
-41.5293
 11
39.3006
 21
-41.7634
  0
LINE
  8
0
 10
39.3006
 20
-41.7634
 11
38.637
 21
-41.9562
  0
LINE
  8
0
 10
38.637
 20
-41.9562
 11
37.9626
 21
-42.1069
  0
LINE
  8
0
 10
37.9626
 20
-42.1069
 11
37.28
 21
-42.215
  0
LINE
  8
0
 10
37.28
 20
-42.215
 11
36.5921
 21
-42.28
  0
LINE
  8
0
 10
36.5921
 20
-42.28
 11
35.9014
 21
-42.3018
  0
LINE
  8
0
 10
35.9014
 20
-42.3018
 11
-35.9014
 21
-42.3018
  0
LINE
  8
0
 10
-56.7227
 20
21.0054
 11
-56.8947
 21
21.0217
  0
LINE
  8
0
 10
-56.8947
 20
21.0217
 11
-57.0653
 21
21.0487
  0
LINE
  8
0
 10
-57.0653
 20
21.0487
 11
-57.2339
 21
21.0864
  0
LINE
  8
0
 10
-57.2339
 20
21.0864
 11
-57.3998
 21
21.1346
  0
LINE
  8
0
 10
-57.3998
 20
21.1346
 11
-57.5623
 21
21.1931
  0
LINE
  8
0
 10
-57.5623
 20
21.1931
 11
-57.7209
 21
21.2617
  0
LINE
  8
0
 10
-57.7209
 20
21.2617
 11
-57.8748
 21
21.3401
  0
LINE
  8
0
 10
-57.8748
 20
21.3401
 11
-58.0235
 21
21.4281
  0
LINE
  8
0
 10
-58.0235
 20
21.4281
 11
-58.1664
 21
21.5252
  0
LINE
  8
0
 10
-58.1664
 20
21.5252
 11
-58.3029
 21
21.6311
  0
LINE
  8
0
 10
-58.3029
 20
21.6311
 11
-58.4325
 21
21.7453
  0
LINE
  8
0
 10
-58.4325
 20
21.7453
 11
-58.5547
 21
21.8675
  0
LINE
  8
0
 10
-58.5547
 20
21.8675
 11
-58.6689
 21
21.9971
  0
LINE
  8
0
 10
-58.6689
 20
21.9971
 11
-58.7748
 21
22.1336
  0
LINE
  8
0
 10
-58.7748
 20
22.1336
 11
-58.8719
 21
22.2765
  0
LINE
  8
0
 10
-58.8719
 20
22.2765
 11
-58.9598
 21
22.4252
  0
LINE
  8
0
 10
-58.9598
 20
22.4252
 11
-59.0383
 21
22.5791
  0
LINE
  8
0
 10
-59.0383
 20
22.5791
 11
-59.1069
 21
22.7377
  0
LINE
  8
0
 10
-59.1069
 20
22.7377
 11
-59.1654
 21
22.9002
  0
LINE
  8
0
 10
-59.1654
 20
22.9002
 11
-59.2136
 21
23.0661
  0
LINE
  8
0
 10
-59.2136
 20
23.0661
 11
-59.2513
 21
23.2347
  0
LINE
  8
0
 10
-59.2513
 20
23.2347
 11
-59.2783
 21
23.4053
  0
LINE
  8
0
 10
-59.2783
 20
23.4053
 11
-59.2946
 21
23.5773
  0
LINE
  8
0
 10
-59.2946
 20
23.5773
 11
-59.3
 21
23.75
  0
LINE
  8
0
 10
-59.3
 20
23.75
 11
-59.2946
 21
23.9227
  0
LINE
  8
0
 10
-59.2946
 20
23.9227
 11
-59.2783
 21
24.0947
  0
LINE
  8
0
 10
-59.2783
 20
24.0947
 11
-59.2513
 21
24.2653
  0
LINE
  8
0
 10
-59.2513
 20
24.2653
 11
-59.2136
 21
24.4339
  0
LINE
  8
0
 10
-59.2136
 20
24.4339
 11
-59.1654
 21
24.5998
  0
LINE
  8
0
 10
-59.1654
 20
24.5998
 11
-59.1069
 21
24.7623
  0
LINE
  8
0
 10
-59.1069
 20
24.7623
 11
-59.0383
 21
24.9209
  0
LINE
  8
0
 10
-59.0383
 20
24.9209
 11
-58.9598
 21
25.0748
  0
LINE
  8
0
 10
-58.9598
 20
25.0748
 11
-58.8719
 21
25.2235
  0
LINE
  8
0
 10
-58.8719
 20
25.2235
 11
-58.7748
 21
25.3664
  0
LINE
  8
0
 10
-58.7748
 20
25.3664
 11
-58.6689
 21
25.5029
  0
LINE
  8
0
 10
-58.6689
 20
25.5029
 11
-58.5547
 21
25.6325
  0
LINE
  8
0
 10
-58.5547
 20
25.6325
 11
-58.4325
 21
25.7547
  0
LINE
  8
0
 10
-58.4325
 20
25.7547
 11
-58.3029
 21
25.8689
  0
LINE
  8
0
 10
-58.3029
 20
25.8689
 11
-58.1664
 21
25.9748
  0
LINE
  8
0
 10
-58.1664
 20
25.9748
 11
-58.0235
 21
26.0719
  0
LINE
  8
0
 10
-58.0235
 20
26.0719
 11
-57.8748
 21
26.1598
  0
LINE
  8
0
 10
-57.8748
 20
26.1598
 11
-57.7209
 21
26.2383
  0
LINE
  8
0
 10
-57.7209
 20
26.2383
 11
-57.5623
 21
26.3069
  0
LINE
  8
0
 10
-57.5623
 20
26.3069
 11
-57.3998
 21
26.3654
  0
LINE
  8
0
 10
-57.3998
 20
26.3654
 11
-57.2339
 21
26.4136
  0
LINE
  8
0
 10
-57.2339
 20
26.4136
 11
-57.0653
 21
26.4513
  0
LINE
  8
0
 10
-57.0653
 20
26.4513
 11
-56.8947
 21
26.4783
  0
LINE
  8
0
 10
-56.8947
 20
26.4783
 11
-56.7227
 21
26.4946
  0
LINE
  8
0
 10
-56.7227
 20
26.4946
 11
-56.55
 21
26.5
  0
LINE
  8
0
 10
-56.55
 20
26.5
 11
-56.3773
 21
26.4946
  0
LINE
  8
0
 10
-56.3773
 20
26.4946
 11
-56.2053
 21
26.4783
  0
LINE
  8
0
 10
-56.2053
 20
26.4783
 11
-56.0347
 21
26.4513
  0
LINE
  8
0
 10
-56.0347
 20
26.4513
 11
-55.8661
 21
26.4136
  0
LINE
  8
0
 10
-55.8661
 20
26.4136
 11
-55.7002
 21
26.3654
  0
LINE
  8
0
 10
-55.7002
 20
26.3654
 11
-55.5376
 21
26.3069
  0
LINE
  8
0
 10
-55.5376
 20
26.3069
 11
-55.3791
 21
26.2383
  0
LINE
  8
0
 10
-55.3791
 20
26.2383
 11
-55.2252
 21
26.1598
  0
LINE
  8
0
 10
-55.2252
 20
26.1598
 11
-55.0765
 21
26.0719
  0
LINE
  8
0
 10
-55.0765
 20
26.0719
 11
-54.9336
 21
25.9748
  0
LINE
  8
0
 10
-54.9336
 20
25.9748
 11
-54.7971
 21
25.8689
  0
LINE
  8
0
 10
-54.7971
 20
25.8689
 11
-54.6675
 21
25.7547
  0
LINE
  8
0
 10
-54.6675
 20
25.7547
 11
-54.5453
 21
25.6325
  0
LINE
  8
0
 10
-54.5453
 20
25.6325
 11
-54.4311
 21
25.5029
  0
LINE
  8
0
 10
-54.4311
 20
25.5029
 11
-54.3252
 21
25.3664
  0
LINE
  8
0
 10
-54.3252
 20
25.3664
 11
-54.2281
 21
25.2235
  0
LINE
  8
0
 10
-54.2281
 20
25.2235
 11
-54.1402
 21
25.0748
  0
LINE
  8
0
 10
-54.1402
 20
25.0748
 11
-54.0617
 21
24.9209
  0
LINE
  8
0
 10
-54.0617
 20
24.9209
 11
-53.9931
 21
24.7623
  0
LINE
  8
0
 10
-53.9931
 20
24.7623
 11
-53.9346
 21
24.5998
  0
LINE
  8
0
 10
-53.9346
 20
24.5998
 11
-53.8864
 21
24.4339
  0
LINE
  8
0
 10
-53.8864
 20
24.4339
 11
-53.8487
 21
24.2653
  0
LINE
  8
0
 10
-53.8487
 20
24.2653
 11
-53.8217
 21
24.0947
  0
LINE
  8
0
 10
-53.8217
 20
24.0947
 11
-53.8054
 21
23.9227
  0
LINE
  8
0
 10
-53.8054
 20
23.9227
 11
-53.8
 21
23.75
  0
LINE
  8
0
 10
-53.8
 20
23.75
 11
-53.8054
 21
23.5773
  0
LINE
  8
0
 10
-53.8054
 20
23.5773
 11
-53.8217
 21
23.4053
  0
LINE
  8
0
 10
-53.8217
 20
23.4053
 11
-53.8487
 21
23.2347
  0
LINE
  8
0
 10
-53.8487
 20
23.2347
 11
-53.8864
 21
23.0661
  0
LINE
  8
0
 10
-53.8864
 20
23.0661
 11
-53.9346
 21
22.9002
  0
LINE
  8
0
 10
-53.9346
 20
22.9002
 11
-53.9931
 21
22.7377
  0
LINE
  8
0
 10
-53.9931
 20
22.7377
 11
-54.0617
 21
22.5791
  0
LINE
  8
0
 10
-54.0617
 20
22.5791
 11
-54.1402
 21
22.4252
  0
LINE
  8
0
 10
-54.1402
 20
22.4252
 11
-54.2281
 21
22.2765
  0
LINE
  8
0
 10
-54.2281
 20
22.2765
 11
-54.3252
 21
22.1336
  0
LINE
  8
0
 10
-54.3252
 20
22.1336
 11
-54.4311
 21
21.9971
  0
LINE
  8
0
 10
-54.4311
 20
21.9971
 11
-54.5453
 21
21.8675
  0
LINE
  8
0
 10
-54.5453
 20
21.8675
 11
-54.6675
 21
21.7453
  0
LINE
  8
0
 10
-54.6675
 20
21.7453
 11
-54.7971
 21
21.6311
  0
LINE
  8
0
 10
-54.7971
 20
21.6311
 11
-54.9336
 21
21.5252
  0
LINE
  8
0
 10
-54.9336
 20
21.5252
 11
-55.0765
 21
21.4281
  0
LINE
  8
0
 10
-55.0765
 20
21.4281
 11
-55.2252
 21
21.3401
  0
LINE
  8
0
 10
-55.2252
 20
21.3401
 11
-55.3791
 21
21.2617
  0
LINE
  8
0
 10
-55.3791
 20
21.2617
 11
-55.5376
 21
21.1931
  0
LINE
  8
0
 10
-55.5376
 20
21.1931
 11
-55.7002
 21
21.1346
  0
LINE
  8
0
 10
-55.7002
 20
21.1346
 11
-55.8661
 21
21.0864
  0
LINE
  8
0
 10
-55.8661
 20
21.0864
 11
-56.0347
 21
21.0487
  0
LINE
  8
0
 10
-56.0347
 20
21.0487
 11
-56.2053
 21
21.0217
  0
LINE
  8
0
 10
-56.2053
 20
21.0217
 11
-56.3773
 21
21.0054
  0
LINE
  8
0
 10
-56.3773
 20
21.0054
 11
-56.55
 21
21
  0
LINE
  8
0
 10
-56.55
 20
21
 11
-56.7227
 21
21.0054
  0
LINE
  8
0
 10
56.3773
 20
21.0054
 11
56.2053
 21
21.0217
  0
LINE
  8
0
 10
56.2053
 20
21.0217
 11
56.0347
 21
21.0487
  0
LINE
  8
0
 10
56.0347
 20
21.0487
 11
55.8661
 21
21.0864
  0
LINE
  8
0
 10
55.8661
 20
21.0864
 11
55.7002
 21
21.1346
  0
LINE
  8
0
 10
55.7002
 20
21.1346
 11
55.5376
 21
21.1931
  0
LINE
  8
0
 10
55.5376
 20
21.1931
 11
55.3791
 21
21.2617
  0
LINE
  8
0
 10
55.3791
 20
21.2617
 11
55.2252
 21
21.3401
  0
LINE
  8
0
 10
55.2252
 20
21.3401
 11
55.0765
 21
21.4281
  0
LINE
  8
0
 10
55.0765
 20
21.4281
 11
54.9336
 21
21.5252
  0
LINE
  8
0
 10
54.9336
 20
21.5252
 11
54.7971
 21
21.6311
  0
LINE
  8
0
 10
54.7971
 20
21.6311
 11
54.6675
 21
21.7453
  0
LINE
  8
0
 10
54.6675
 20
21.7453
 11
54.5453
 21
21.8675
  0
LINE
  8
0
 10
54.5453
 20
21.8675
 11
54.4311
 21
21.9971
  0
LINE
  8
0
 10
54.4311
 20
21.9971
 11
54.3252
 21
22.1336
  0
LINE
  8
0
 10
54.3252
 20
22.1336
 11
54.2281
 21
22.2765
  0
LINE
  8
0
 10
54.2281
 20
22.2765
 11
54.1402
 21
22.4252
  0
LINE
  8
0
 10
54.1402
 20
22.4252
 11
54.0617
 21
22.5791
  0
LINE
  8
0
 10
54.0617
 20
22.5791
 11
53.9931
 21
22.7377
  0
LINE
  8
0
 10
53.9931
 20
22.7377
 11
53.9346
 21
22.9002
  0
LINE
  8
0
 10
53.9346
 20
22.9002
 11
53.8864
 21
23.0661
  0
LINE
  8
0
 10
53.8864
 20
23.0661
 11
53.8487
 21
23.2347
  0
LINE
  8
0
 10
53.8487
 20
23.2347
 11
53.8217
 21
23.4053
  0
LINE
  8
0
 10
53.8217
 20
23.4053
 11
53.8054
 21
23.5773
  0
LINE
  8
0
 10
53.8054
 20
23.5773
 11
53.8
 21
23.75
  0
LINE
  8
0
 10
53.8
 20
23.75
 11
53.8054
 21
23.9227
  0
LINE
  8
0
 10
53.8054
 20
23.9227
 11
53.8217
 21
24.0947
  0
LINE
  8
0
 10
53.8217
 20
24.0947
 11
53.8487
 21
24.2653
  0
LINE
  8
0
 10
53.8487
 20
24.2653
 11
53.8864
 21
24.4339
  0
LINE
  8
0
 10
53.8864
 20
24.4339
 11
53.9346
 21
24.5998
  0
LINE
  8
0
 10
53.9346
 20
24.5998
 11
53.9931
 21
24.7623
  0
LINE
  8
0
 10
53.9931
 20
24.7623
 11
54.0617
 21
24.9209
  0
LINE
  8
0
 10
54.0617
 20
24.9209
 11
54.1402
 21
25.0748
  0
LINE
  8
0
 10
54.1402
 20
25.0748
 11
54.2281
 21
25.2235
  0
LINE
  8
0
 10
54.2281
 20
25.2235
 11
54.3252
 21
25.3664
  0
LINE
  8
0
 10
54.3252
 20
25.3664
 11
54.4311
 21
25.5029
  0
LINE
  8
0
 10
54.4311
 20
25.5029
 11
54.5453
 21
25.6325
  0
LINE
  8
0
 10
54.5453
 20
25.6325
 11
54.6675
 21
25.7547
  0
LINE
  8
0
 10
54.6675
 20
25.7547
 11
54.7971
 21
25.8689
  0
LINE
  8
0
 10
54.7971
 20
25.8689
 11
54.9336
 21
25.9748
  0
LINE
  8
0
 10
54.9336
 20
25.9748
 11
55.0765
 21
26.0719
  0
LINE
  8
0
 10
55.0765
 20
26.0719
 11
55.2252
 21
26.1598
  0
LINE
  8
0
 10
55.2252
 20
26.1598
 11
55.3791
 21
26.2383
  0
LINE
  8
0
 10
55.3791
 20
26.2383
 11
55.5376
 21
26.3069
  0
LINE
  8
0
 10
55.5376
 20
26.3069
 11
55.7002
 21
26.3654
  0
LINE
  8
0
 10
55.7002
 20
26.3654
 11
55.8661
 21
26.4136
  0
LINE
  8
0
 10
55.8661
 20
26.4136
 11
56.0347
 21
26.4513
  0
LINE
  8
0
 10
56.0347
 20
26.4513
 11
56.2053
 21
26.4783
  0
LINE
  8
0
 10
56.2053
 20
26.4783
 11
56.3773
 21
26.4946
  0
LINE
  8
0
 10
56.3773
 20
26.4946
 11
56.55
 21
26.5
  0
LINE
  8
0
 10
56.55
 20
26.5
 11
56.7227
 21
26.4946
  0
LINE
  8
0
 10
56.7227
 20
26.4946
 11
56.8947
 21
26.4783
  0
LINE
  8
0
 10
56.8947
 20
26.4783
 11
57.0653
 21
26.4513
  0
LINE
  8
0
 10
57.0653
 20
26.4513
 11
57.2339
 21
26.4136
  0
LINE
  8
0
 10
57.2339
 20
26.4136
 11
57.3998
 21
26.3654
  0
LINE
  8
0
 10
57.3998
 20
26.3654
 11
57.5623
 21
26.3069
  0
LINE
  8
0
 10
57.5623
 20
26.3069
 11
57.7209
 21
26.2383
  0
LINE
  8
0
 10
57.7209
 20
26.2383
 11
57.8748
 21
26.1598
  0
LINE
  8
0
 10
57.8748
 20
26.1598
 11
58.0235
 21
26.0719
  0
LINE
  8
0
 10
58.0235
 20
26.0719
 11
58.1664
 21
25.9748
  0
LINE
  8
0
 10
58.1664
 20
25.9748
 11
58.3029
 21
25.8689
  0
LINE
  8
0
 10
58.3029
 20
25.8689
 11
58.4325
 21
25.7547
  0
LINE
  8
0
 10
58.4325
 20
25.7547
 11
58.5547
 21
25.6325
  0
LINE
  8
0
 10
58.5547
 20
25.6325
 11
58.6689
 21
25.5029
  0
LINE
  8
0
 10
58.6689
 20
25.5029
 11
58.7748
 21
25.3664
  0
LINE
  8
0
 10
58.7748
 20
25.3664
 11
58.8719
 21
25.2235
  0
LINE
  8
0
 10
58.8719
 20
25.2235
 11
58.9598
 21
25.0748
  0
LINE
  8
0
 10
58.9598
 20
25.0748
 11
59.0383
 21
24.9209
  0
LINE
  8
0
 10
59.0383
 20
24.9209
 11
59.1069
 21
24.7623
  0
LINE
  8
0
 10
59.1069
 20
24.7623
 11
59.1654
 21
24.5998
  0
LINE
  8
0
 10
59.1654
 20
24.5998
 11
59.2136
 21
24.4339
  0
LINE
  8
0
 10
59.2136
 20
24.4339
 11
59.2513
 21
24.2653
  0
LINE
  8
0
 10
59.2513
 20
24.2653
 11
59.2783
 21
24.0947
  0
LINE
  8
0
 10
59.2783
 20
24.0947
 11
59.2946
 21
23.9227
  0
LINE
  8
0
 10
59.2946
 20
23.9227
 11
59.3
 21
23.75
  0
LINE
  8
0
 10
59.3
 20
23.75
 11
59.2946
 21
23.5773
  0
LINE
  8
0
 10
59.2946
 20
23.5773
 11
59.2783
 21
23.4053
  0
LINE
  8
0
 10
59.2783
 20
23.4053
 11
59.2513
 21
23.2347
  0
LINE
  8
0
 10
59.2513
 20
23.2347
 11
59.2136
 21
23.0661
  0
LINE
  8
0
 10
59.2136
 20
23.0661
 11
59.1654
 21
22.9002
  0
LINE
  8
0
 10
59.1654
 20
22.9002
 11
59.1069
 21
22.7377
  0
LINE
  8
0
 10
59.1069
 20
22.7377
 11
59.0383
 21
22.5791
  0
LINE
  8
0
 10
59.0383
 20
22.5791
 11
58.9598
 21
22.4252
  0
LINE
  8
0
 10
58.9598
 20
22.4252
 11
58.8719
 21
22.2765
  0
LINE
  8
0
 10
58.8719
 20
22.2765
 11
58.7748
 21
22.1336
  0
LINE
  8
0
 10
58.7748
 20
22.1336
 11
58.6689
 21
21.9971
  0
LINE
  8
0
 10
58.6689
 20
21.9971
 11
58.5547
 21
21.8675
  0
LINE
  8
0
 10
58.5547
 20
21.8675
 11
58.4325
 21
21.7453
  0
LINE
  8
0
 10
58.4325
 20
21.7453
 11
58.3029
 21
21.6311
  0
LINE
  8
0
 10
58.3029
 20
21.6311
 11
58.1664
 21
21.5252
  0
LINE
  8
0
 10
58.1664
 20
21.5252
 11
58.0235
 21
21.4281
  0
LINE
  8
0
 10
58.0235
 20
21.4281
 11
57.8748
 21
21.3401
  0
LINE
  8
0
 10
57.8748
 20
21.3401
 11
57.7209
 21
21.2617
  0
LINE
  8
0
 10
57.7209
 20
21.2617
 11
57.5623
 21
21.1931
  0
LINE
  8
0
 10
57.5623
 20
21.1931
 11
57.3998
 21
21.1346
  0
LINE
  8
0
 10
57.3998
 20
21.1346
 11
57.2339
 21
21.0864
  0
LINE
  8
0
 10
57.2339
 20
21.0864
 11
57.0653
 21
21.0487
  0
LINE
  8
0
 10
57.0653
 20
21.0487
 11
56.8947
 21
21.0217
  0
LINE
  8
0
 10
56.8947
 20
21.0217
 11
56.7227
 21
21.0054
  0
LINE
  8
0
 10
56.7227
 20
21.0054
 11
56.55
 21
21
  0
LINE
  8
0
 10
56.55
 20
21
 11
56.3773
 21
21.0054
  0
LINE
  8
0
 10
-57.113
 20
-1.79645
 11
-57.2256
 21
-1.7858
  0
LINE
  8
0
 10
-57.2256
 20
-1.7858
 11
-57.3373
 21
-1.76811
  0
LINE
  8
0
 10
-57.3373
 20
-1.76811
 11
-57.4476
 21
-1.74344
  0
LINE
  8
0
 10
-57.4476
 20
-1.74344
 11
-57.5562
 21
-1.7119
  0
LINE
  8
0
 10
-57.5562
 20
-1.7119
 11
-57.6626
 21
-1.67358
  0
LINE
  8
0
 10
-57.6626
 20
-1.67358
 11
-57.7664
 21
-1.62868
  0
LINE
  8
0
 10
-57.7664
 20
-1.62868
 11
-57.8671
 21
-1.57735
  0
LINE
  8
0
 10
-57.8671
 20
-1.57735
 11
-57.9645
 21
-1.51978
  0
LINE
  8
0
 10
-57.9645
 20
-1.51978
 11
-58.058
 21
-1.45622
  0
LINE
  8
0
 10
-58.058
 20
-1.45622
 11
-58.1474
 21
-1.38692
  0
LINE
  8
0
 10
-58.1474
 20
-1.38692
 11
-58.2322
 21
-1.31213
  0
LINE
  8
0
 10
-58.2322
 20
-1.31213
 11
-58.3121
 21
-1.23218
  0
LINE
  8
0
 10
-58.3121
 20
-1.23218
 11
-58.3869
 21
-1.14735
  0
LINE
  8
0
 10
-58.3869
 20
-1.14735
 11
-58.4562
 21
-1.058
  0
LINE
  8
0
 10
-58.4562
 20
-1.058
 11
-58.5198
 21
-0.964478
  0
LINE
  8
0
 10
-58.5198
 20
-0.964478
 11
-58.5773
 21
-0.867142
  0
LINE
  8
0
 10
-58.5773
 20
-0.867142
 11
-58.6287
 21
-0.766388
  0
LINE
  8
0
 10
-58.6287
 20
-0.766388
 11
-58.6736
 21
-0.662613
  0
LINE
  8
0
 10
-58.6736
 20
-0.662613
 11
-58.7119
 21
-0.556229
  0
LINE
  8
0
 10
-58.7119
 20
-0.556229
 11
-58.7434
 21
-0.447632
  0
LINE
  8
0
 10
-58.7434
 20
-0.447632
 11
-58.7681
 21
-0.33728
  0
LINE
  8
0
 10
-58.7681
 20
-0.33728
 11
-58.7858
 21
-0.225586
  0
LINE
  8
0
 10
-58.7858
 20
-0.225586
 11
-58.7964
 21
-0.113022
  0
LINE
  8
0
 10
-58.7964
 20
-0.113022
 11
-58.8
 21
0
  0
LINE
  8
0
 10
-58.8
 20
0
 11
-58.7964
 21
0.113022
  0
LINE
  8
0
 10
-58.7964
 20
0.113022
 11
-58.7858
 21
0.225586
  0
LINE
  8
0
 10
-58.7858
 20
0.225586
 11
-58.7681
 21
0.33728
  0
LINE
  8
0
 10
-58.7681
 20
0.33728
 11
-58.7434
 21
0.447632
  0
LINE
  8
0
 10
-58.7434
 20
0.447632
 11
-58.7119
 21
0.556229
  0
LINE
  8
0
 10
-58.7119
 20
0.556229
 11
-58.6736
 21
0.662613
  0
LINE
  8
0
 10
-58.6736
 20
0.662613
 11
-58.6287
 21
0.766388
  0
LINE
  8
0
 10
-58.6287
 20
0.766388
 11
-58.5773
 21
0.867142
  0
LINE
  8
0
 10
-58.5773
 20
0.867142
 11
-58.5198
 21
0.964478
  0
LINE
  8
0
 10
-58.5198
 20
0.964478
 11
-58.4562
 21
1.058
  0
LINE
  8
0
 10
-58.4562
 20
1.058
 11
-58.3869
 21
1.14735
  0
LINE
  8
0
 10
-58.3869
 20
1.14735
 11
-58.3121
 21
1.23218
  0
LINE
  8
0
 10
-58.3121
 20
1.23218
 11
-58.2322
 21
1.31213
  0
LINE
  8
0
 10
-58.2322
 20
1.31213
 11
-58.1474
 21
1.38692
  0
LINE
  8
0
 10
-58.1474
 20
1.38692
 11
-58.058
 21
1.45622
  0
LINE
  8
0
 10
-58.058
 20
1.45622
 11
-57.9645
 21
1.51978
  0
LINE
  8
0
 10
-57.9645
 20
1.51978
 11
-57.8671
 21
1.57735
  0
LINE
  8
0
 10
-57.8671
 20
1.57735
 11
-57.7664
 21
1.62868
  0
LINE
  8
0
 10
-57.7664
 20
1.62868
 11
-57.6626
 21
1.67358
  0
LINE
  8
0
 10
-57.6626
 20
1.67358
 11
-57.5562
 21
1.7119
  0
LINE
  8
0
 10
-57.5562
 20
1.7119
 11
-57.4476
 21
1.74344
  0
LINE
  8
0
 10
-57.4476
 20
1.74344
 11
-57.3373
 21
1.76811
  0
LINE
  8
0
 10
-57.3373
 20
1.76811
 11
-57.2256
 21
1.7858
  0
LINE
  8
0
 10
-57.2256
 20
1.7858
 11
-57.113
 21
1.79645
  0
LINE
  8
0
 10
-57.113
 20
1.79645
 11
-57
 21
1.79999
  0
LINE
  8
0
 10
-57
 20
1.79999
 11
-56.887
 21
1.79645
  0
LINE
  8
0
 10
-56.887
 20
1.79645
 11
-56.7744
 21
1.7858
  0
LINE
  8
0
 10
-56.7744
 20
1.7858
 11
-56.6627
 21
1.76811
  0
LINE
  8
0
 10
-56.6627
 20
1.76811
 11
-56.5524
 21
1.74344
  0
LINE
  8
0
 10
-56.5524
 20
1.74344
 11
-56.4438
 21
1.7119
  0
LINE
  8
0
 10
-56.4438
 20
1.7119
 11
-56.3374
 21
1.67358
  0
LINE
  8
0
 10
-56.3374
 20
1.67358
 11
-56.2336
 21
1.62868
  0
LINE
  8
0
 10
-56.2336
 20
1.62868
 11
-56.1328
 21
1.57735
  0
LINE
  8
0
 10
-56.1328
 20
1.57735
 11
-56.0355
 21
1.51978
  0
LINE
  8
0
 10
-56.0355
 20
1.51978
 11
-55.942
 21
1.45622
  0
LINE
  8
0
 10
-55.942
 20
1.45622
 11
-55.8526
 21
1.38692
  0
LINE
  8
0
 10
-55.8526
 20
1.38692
 11
-55.7678
 21
1.31213
  0
LINE
  8
0
 10
-55.7678
 20
1.31213
 11
-55.6879
 21
1.23218
  0
LINE
  8
0
 10
-55.6879
 20
1.23218
 11
-55.6131
 21
1.14735
  0
LINE
  8
0
 10
-55.6131
 20
1.14735
 11
-55.5438
 21
1.058
  0
LINE
  8
0
 10
-55.5438
 20
1.058
 11
-55.4802
 21
0.964478
  0
LINE
  8
0
 10
-55.4802
 20
0.964478
 11
-55.4226
 21
0.867142
  0
LINE
  8
0
 10
-55.4226
 20
0.867142
 11
-55.3713
 21
0.766388
  0
LINE
  8
0
 10
-55.3713
 20
0.766388
 11
-55.3264
 21
0.662613
  0
LINE
  8
0
 10
-55.3264
 20
0.662613
 11
-55.2881
 21
0.556229
  0
LINE
  8
0
 10
-55.2881
 20
0.556229
 11
-55.2565
 21
0.447632
  0
LINE
  8
0
 10
-55.2565
 20
0.447632
 11
-55.2319
 21
0.33728
  0
LINE
  8
0
 10
-55.2319
 20
0.33728
 11
-55.2142
 21
0.225586
  0
LINE
  8
0
 10
-55.2142
 20
0.225586
 11
-55.2035
 21
0.113022
  0
LINE
  8
0
 10
-55.2035
 20
0.113022
 11
-55.2
 21
0
  0
LINE
  8
0
 10
-55.2
 20
0
 11
-55.2035
 21
-0.113022
  0
LINE
  8
0
 10
-55.2035
 20
-0.113022
 11
-55.2142
 21
-0.225586
  0
LINE
  8
0
 10
-55.2142
 20
-0.225586
 11
-55.2319
 21
-0.33728
  0
LINE
  8
0
 10
-55.2319
 20
-0.33728
 11
-55.2565
 21
-0.447632
  0
LINE
  8
0
 10
-55.2565
 20
-0.447632
 11
-55.2881
 21
-0.556229
  0
LINE
  8
0
 10
-55.2881
 20
-0.556229
 11
-55.3264
 21
-0.662613
  0
LINE
  8
0
 10
-55.3264
 20
-0.662613
 11
-55.3713
 21
-0.766388
  0
LINE
  8
0
 10
-55.3713
 20
-0.766388
 11
-55.4226
 21
-0.867142
  0
LINE
  8
0
 10
-55.4226
 20
-0.867142
 11
-55.4802
 21
-0.964478
  0
LINE
  8
0
 10
-55.4802
 20
-0.964478
 11
-55.5438
 21
-1.058
  0
LINE
  8
0
 10
-55.5438
 20
-1.058
 11
-55.6131
 21
-1.14735
  0
LINE
  8
0
 10
-55.6131
 20
-1.14735
 11
-55.6879
 21
-1.23218
  0
LINE
  8
0
 10
-55.6879
 20
-1.23218
 11
-55.7678
 21
-1.31213
  0
LINE
  8
0
 10
-55.7678
 20
-1.31213
 11
-55.8526
 21
-1.38692
  0
LINE
  8
0
 10
-55.8526
 20
-1.38692
 11
-55.942
 21
-1.45622
  0
LINE
  8
0
 10
-55.942
 20
-1.45622
 11
-56.0355
 21
-1.51978
  0
LINE
  8
0
 10
-56.0355
 20
-1.51978
 11
-56.1328
 21
-1.57735
  0
LINE
  8
0
 10
-56.1328
 20
-1.57735
 11
-56.2336
 21
-1.62868
  0
LINE
  8
0
 10
-56.2336
 20
-1.62868
 11
-56.3374
 21
-1.67358
  0
LINE
  8
0
 10
-56.3374
 20
-1.67358
 11
-56.4438
 21
-1.7119
  0
LINE
  8
0
 10
-56.4438
 20
-1.7119
 11
-56.5524
 21
-1.74344
  0
LINE
  8
0
 10
-56.5524
 20
-1.74344
 11
-56.6627
 21
-1.76811
  0
LINE
  8
0
 10
-56.6627
 20
-1.76811
 11
-56.7744
 21
-1.7858
  0
LINE
  8
0
 10
-56.7744
 20
-1.7858
 11
-56.887
 21
-1.79645
  0
LINE
  8
0
 10
-56.887
 20
-1.79645
 11
-57
 21
-1.79999
  0
LINE
  8
0
 10
-57
 20
-1.79999
 11
-57.113
 21
-1.79645
  0
LINE
  8
0
 10
56.887
 20
-1.79645
 11
56.7744
 21
-1.7858
  0
LINE
  8
0
 10
56.7744
 20
-1.7858
 11
56.6627
 21
-1.76811
  0
LINE
  8
0
 10
56.6627
 20
-1.76811
 11
56.5524
 21
-1.74344
  0
LINE
  8
0
 10
56.5524
 20
-1.74344
 11
56.4438
 21
-1.7119
  0
LINE
  8
0
 10
56.4438
 20
-1.7119
 11
56.3374
 21
-1.67358
  0
LINE
  8
0
 10
56.3374
 20
-1.67358
 11
56.2336
 21
-1.62868
  0
LINE
  8
0
 10
56.2336
 20
-1.62868
 11
56.1328
 21
-1.57735
  0
LINE
  8
0
 10
56.1328
 20
-1.57735
 11
56.0355
 21
-1.51978
  0
LINE
  8
0
 10
56.0355
 20
-1.51978
 11
55.942
 21
-1.45622
  0
LINE
  8
0
 10
55.942
 20
-1.45622
 11
55.8526
 21
-1.38692
  0
LINE
  8
0
 10
55.8526
 20
-1.38692
 11
55.7678
 21
-1.31213
  0
LINE
  8
0
 10
55.7678
 20
-1.31213
 11
55.6879
 21
-1.23218
  0
LINE
  8
0
 10
55.6879
 20
-1.23218
 11
55.6131
 21
-1.14735
  0
LINE
  8
0
 10
55.6131
 20
-1.14735
 11
55.5438
 21
-1.058
  0
LINE
  8
0
 10
55.5438
 20
-1.058
 11
55.4802
 21
-0.964478
  0
LINE
  8
0
 10
55.4802
 20
-0.964478
 11
55.4226
 21
-0.867142
  0
LINE
  8
0
 10
55.4226
 20
-0.867142
 11
55.3713
 21
-0.766388
  0
LINE
  8
0
 10
55.3713
 20
-0.766388
 11
55.3264
 21
-0.662613
  0
LINE
  8
0
 10
55.3264
 20
-0.662613
 11
55.2881
 21
-0.556229
  0
LINE
  8
0
 10
55.2881
 20
-0.556229
 11
55.2565
 21
-0.447632
  0
LINE
  8
0
 10
55.2565
 20
-0.447632
 11
55.2319
 21
-0.33728
  0
LINE
  8
0
 10
55.2319
 20
-0.33728
 11
55.2142
 21
-0.225586
  0
LINE
  8
0
 10
55.2142
 20
-0.225586
 11
55.2035
 21
-0.113022
  0
LINE
  8
0
 10
55.2035
 20
-0.113022
 11
55.2
 21
0
  0
LINE
  8
0
 10
55.2
 20
0
 11
55.2035
 21
0.113022
  0
LINE
  8
0
 10
55.2035
 20
0.113022
 11
55.2142
 21
0.225586
  0
LINE
  8
0
 10
55.2142
 20
0.225586
 11
55.2319
 21
0.33728
  0
LINE
  8
0
 10
55.2319
 20
0.33728
 11
55.2565
 21
0.447632
  0
LINE
  8
0
 10
55.2565
 20
0.447632
 11
55.2881
 21
0.556229
  0
LINE
  8
0
 10
55.2881
 20
0.556229
 11
55.3264
 21
0.662613
  0
LINE
  8
0
 10
55.3264
 20
0.662613
 11
55.3713
 21
0.766388
  0
LINE
  8
0
 10
55.3713
 20
0.766388
 11
55.4226
 21
0.867142
  0
LINE
  8
0
 10
55.4226
 20
0.867142
 11
55.4802
 21
0.964478
  0
LINE
  8
0
 10
55.4802
 20
0.964478
 11
55.5438
 21
1.058
  0
LINE
  8
0
 10
55.5438
 20
1.058
 11
55.6131
 21
1.14735
  0
LINE
  8
0
 10
55.6131
 20
1.14735
 11
55.6879
 21
1.23218
  0
LINE
  8
0
 10
55.6879
 20
1.23218
 11
55.7678
 21
1.31213
  0
LINE
  8
0
 10
55.7678
 20
1.31213
 11
55.8526
 21
1.38692
  0
LINE
  8
0
 10
55.8526
 20
1.38692
 11
55.942
 21
1.45622
  0
LINE
  8
0
 10
55.942
 20
1.45622
 11
56.0355
 21
1.51978
  0
LINE
  8
0
 10
56.0355
 20
1.51978
 11
56.1328
 21
1.57735
  0
LINE
  8
0
 10
56.1328
 20
1.57735
 11
56.2336
 21
1.62868
  0
LINE
  8
0
 10
56.2336
 20
1.62868
 11
56.3374
 21
1.67358
  0
LINE
  8
0
 10
56.3374
 20
1.67358
 11
56.4438
 21
1.7119
  0
LINE
  8
0
 10
56.4438
 20
1.7119
 11
56.5524
 21
1.74344
  0
LINE
  8
0
 10
56.5524
 20
1.74344
 11
56.6627
 21
1.76811
  0
LINE
  8
0
 10
56.6627
 20
1.76811
 11
56.7744
 21
1.7858
  0
LINE
  8
0
 10
56.7744
 20
1.7858
 11
56.887
 21
1.79645
  0
LINE
  8
0
 10
56.887
 20
1.79645
 11
57
 21
1.79999
  0
LINE
  8
0
 10
57
 20
1.79999
 11
57.113
 21
1.79645
  0
LINE
  8
0
 10
57.113
 20
1.79645
 11
57.2256
 21
1.7858
  0
LINE
  8
0
 10
57.2256
 20
1.7858
 11
57.3373
 21
1.76811
  0
LINE
  8
0
 10
57.3373
 20
1.76811
 11
57.4476
 21
1.74344
  0
LINE
  8
0
 10
57.4476
 20
1.74344
 11
57.5562
 21
1.7119
  0
LINE
  8
0
 10
57.5562
 20
1.7119
 11
57.6626
 21
1.67358
  0
LINE
  8
0
 10
57.6626
 20
1.67358
 11
57.7664
 21
1.62868
  0
LINE
  8
0
 10
57.7664
 20
1.62868
 11
57.8671
 21
1.57735
  0
LINE
  8
0
 10
57.8671
 20
1.57735
 11
57.9645
 21
1.51978
  0
LINE
  8
0
 10
57.9645
 20
1.51978
 11
58.058
 21
1.45622
  0
LINE
  8
0
 10
58.058
 20
1.45622
 11
58.1474
 21
1.38692
  0
LINE
  8
0
 10
58.1474
 20
1.38692
 11
58.2322
 21
1.31213
  0
LINE
  8
0
 10
58.2322
 20
1.31213
 11
58.3121
 21
1.23218
  0
LINE
  8
0
 10
58.3121
 20
1.23218
 11
58.3869
 21
1.14735
  0
LINE
  8
0
 10
58.3869
 20
1.14735
 11
58.4562
 21
1.058
  0
LINE
  8
0
 10
58.4562
 20
1.058
 11
58.5198
 21
0.964478
  0
LINE
  8
0
 10
58.5198
 20
0.964478
 11
58.5773
 21
0.867142
  0
LINE
  8
0
 10
58.5773
 20
0.867142
 11
58.6287
 21
0.766388
  0
LINE
  8
0
 10
58.6287
 20
0.766388
 11
58.6736
 21
0.662613
  0
LINE
  8
0
 10
58.6736
 20
0.662613
 11
58.7119
 21
0.556229
  0
LINE
  8
0
 10
58.7119
 20
0.556229
 11
58.7434
 21
0.447632
  0
LINE
  8
0
 10
58.7434
 20
0.447632
 11
58.7681
 21
0.33728
  0
LINE
  8
0
 10
58.7681
 20
0.33728
 11
58.7858
 21
0.225586
  0
LINE
  8
0
 10
58.7858
 20
0.225586
 11
58.7964
 21
0.113022
  0
LINE
  8
0
 10
58.7964
 20
0.113022
 11
58.8
 21
0
  0
LINE
  8
0
 10
58.8
 20
0
 11
58.7964
 21
-0.113022
  0
LINE
  8
0
 10
58.7964
 20
-0.113022
 11
58.7858
 21
-0.225586
  0
LINE
  8
0
 10
58.7858
 20
-0.225586
 11
58.7681
 21
-0.33728
  0
LINE
  8
0
 10
58.7681
 20
-0.33728
 11
58.7434
 21
-0.447632
  0
LINE
  8
0
 10
58.7434
 20
-0.447632
 11
58.7119
 21
-0.556229
  0
LINE
  8
0
 10
58.7119
 20
-0.556229
 11
58.6736
 21
-0.662613
  0
LINE
  8
0
 10
58.6736
 20
-0.662613
 11
58.6287
 21
-0.766388
  0
LINE
  8
0
 10
58.6287
 20
-0.766388
 11
58.5773
 21
-0.867142
  0
LINE
  8
0
 10
58.5773
 20
-0.867142
 11
58.5198
 21
-0.964478
  0
LINE
  8
0
 10
58.5198
 20
-0.964478
 11
58.4562
 21
-1.058
  0
LINE
  8
0
 10
58.4562
 20
-1.058
 11
58.3869
 21
-1.14735
  0
LINE
  8
0
 10
58.3869
 20
-1.14735
 11
58.3121
 21
-1.23218
  0
LINE
  8
0
 10
58.3121
 20
-1.23218
 11
58.2322
 21
-1.31213
  0
LINE
  8
0
 10
58.2322
 20
-1.31213
 11
58.1474
 21
-1.38692
  0
LINE
  8
0
 10
58.1474
 20
-1.38692
 11
58.058
 21
-1.45622
  0
LINE
  8
0
 10
58.058
 20
-1.45622
 11
57.9645
 21
-1.51978
  0
LINE
  8
0
 10
57.9645
 20
-1.51978
 11
57.8671
 21
-1.57735
  0
LINE
  8
0
 10
57.8671
 20
-1.57735
 11
57.7664
 21
-1.62868
  0
LINE
  8
0
 10
57.7664
 20
-1.62868
 11
57.6626
 21
-1.67358
  0
LINE
  8
0
 10
57.6626
 20
-1.67358
 11
57.5562
 21
-1.7119
  0
LINE
  8
0
 10
57.5562
 20
-1.7119
 11
57.4476
 21
-1.74344
  0
LINE
  8
0
 10
57.4476
 20
-1.74344
 11
57.3373
 21
-1.76811
  0
LINE
  8
0
 10
57.3373
 20
-1.76811
 11
57.2256
 21
-1.7858
  0
LINE
  8
0
 10
57.2256
 20
-1.7858
 11
57.113
 21
-1.79645
  0
LINE
  8
0
 10
57.113
 20
-1.79645
 11
57
 21
-1.79999
  0
LINE
  8
0
 10
57
 20
-1.79999
 11
56.887
 21
-1.79645
  0
LINE
  8
0
 10
-56.7227
 20
-26.4946
 11
-56.8947
 21
-26.4783
  0
LINE
  8
0
 10
-56.8947
 20
-26.4783
 11
-57.0653
 21
-26.4513
  0
LINE
  8
0
 10
-57.0653
 20
-26.4513
 11
-57.2339
 21
-26.4136
  0
LINE
  8
0
 10
-57.2339
 20
-26.4136
 11
-57.3998
 21
-26.3654
  0
LINE
  8
0
 10
-57.3998
 20
-26.3654
 11
-57.5623
 21
-26.3069
  0
LINE
  8
0
 10
-57.5623
 20
-26.3069
 11
-57.7209
 21
-26.2383
  0
LINE
  8
0
 10
-57.7209
 20
-26.2383
 11
-57.8748
 21
-26.1598
  0
LINE
  8
0
 10
-57.8748
 20
-26.1598
 11
-58.0235
 21
-26.0719
  0
LINE
  8
0
 10
-58.0235
 20
-26.0719
 11
-58.1664
 21
-25.9748
  0
LINE
  8
0
 10
-58.1664
 20
-25.9748
 11
-58.3029
 21
-25.8689
  0
LINE
  8
0
 10
-58.3029
 20
-25.8689
 11
-58.4325
 21
-25.7547
  0
LINE
  8
0
 10
-58.4325
 20
-25.7547
 11
-58.5547
 21
-25.6325
  0
LINE
  8
0
 10
-58.5547
 20
-25.6325
 11
-58.6689
 21
-25.5029
  0
LINE
  8
0
 10
-58.6689
 20
-25.5029
 11
-58.7748
 21
-25.3664
  0
LINE
  8
0
 10
-58.7748
 20
-25.3664
 11
-58.8719
 21
-25.2235
  0
LINE
  8
0
 10
-58.8719
 20
-25.2235
 11
-58.9598
 21
-25.0748
  0
LINE
  8
0
 10
-58.9598
 20
-25.0748
 11
-59.0383
 21
-24.9209
  0
LINE
  8
0
 10
-59.0383
 20
-24.9209
 11
-59.1069
 21
-24.7623
  0
LINE
  8
0
 10
-59.1069
 20
-24.7623
 11
-59.1654
 21
-24.5998
  0
LINE
  8
0
 10
-59.1654
 20
-24.5998
 11
-59.2136
 21
-24.4339
  0
LINE
  8
0
 10
-59.2136
 20
-24.4339
 11
-59.2513
 21
-24.2653
  0
LINE
  8
0
 10
-59.2513
 20
-24.2653
 11
-59.2783
 21
-24.0947
  0
LINE
  8
0
 10
-59.2783
 20
-24.0947
 11
-59.2946
 21
-23.9227
  0
LINE
  8
0
 10
-59.2946
 20
-23.9227
 11
-59.3
 21
-23.75
  0
LINE
  8
0
 10
-59.3
 20
-23.75
 11
-59.2946
 21
-23.5773
  0
LINE
  8
0
 10
-59.2946
 20
-23.5773
 11
-59.2783
 21
-23.4053
  0
LINE
  8
0
 10
-59.2783
 20
-23.4053
 11
-59.2513
 21
-23.2347
  0
LINE
  8
0
 10
-59.2513
 20
-23.2347
 11
-59.2136
 21
-23.0661
  0
LINE
  8
0
 10
-59.2136
 20
-23.0661
 11
-59.1654
 21
-22.9002
  0
LINE
  8
0
 10
-59.1654
 20
-22.9002
 11
-59.1069
 21
-22.7377
  0
LINE
  8
0
 10
-59.1069
 20
-22.7377
 11
-59.0383
 21
-22.5791
  0
LINE
  8
0
 10
-59.0383
 20
-22.5791
 11
-58.9598
 21
-22.4252
  0
LINE
  8
0
 10
-58.9598
 20
-22.4252
 11
-58.8719
 21
-22.2765
  0
LINE
  8
0
 10
-58.8719
 20
-22.2765
 11
-58.7748
 21
-22.1336
  0
LINE
  8
0
 10
-58.7748
 20
-22.1336
 11
-58.6689
 21
-21.9971
  0
LINE
  8
0
 10
-58.6689
 20
-21.9971
 11
-58.5547
 21
-21.8675
  0
LINE
  8
0
 10
-58.5547
 20
-21.8675
 11
-58.4325
 21
-21.7453
  0
LINE
  8
0
 10
-58.4325
 20
-21.7453
 11
-58.3029
 21
-21.6311
  0
LINE
  8
0
 10
-58.3029
 20
-21.6311
 11
-58.1664
 21
-21.5252
  0
LINE
  8
0
 10
-58.1664
 20
-21.5252
 11
-58.0235
 21
-21.4281
  0
LINE
  8
0
 10
-58.0235
 20
-21.4281
 11
-57.8748
 21
-21.3401
  0
LINE
  8
0
 10
-57.8748
 20
-21.3401
 11
-57.7209
 21
-21.2617
  0
LINE
  8
0
 10
-57.7209
 20
-21.2617
 11
-57.5623
 21
-21.1931
  0
LINE
  8
0
 10
-57.5623
 20
-21.1931
 11
-57.3998
 21
-21.1346
  0
LINE
  8
0
 10
-57.3998
 20
-21.1346
 11
-57.2339
 21
-21.0864
  0
LINE
  8
0
 10
-57.2339
 20
-21.0864
 11
-57.0653
 21
-21.0487
  0
LINE
  8
0
 10
-57.0653
 20
-21.0487
 11
-56.8947
 21
-21.0217
  0
LINE
  8
0
 10
-56.8947
 20
-21.0217
 11
-56.7227
 21
-21.0054
  0
LINE
  8
0
 10
-56.7227
 20
-21.0054
 11
-56.55
 21
-21
  0
LINE
  8
0
 10
-56.55
 20
-21
 11
-56.3773
 21
-21.0054
  0
LINE
  8
0
 10
-56.3773
 20
-21.0054
 11
-56.2053
 21
-21.0217
  0
LINE
  8
0
 10
-56.2053
 20
-21.0217
 11
-56.0347
 21
-21.0487
  0
LINE
  8
0
 10
-56.0347
 20
-21.0487
 11
-55.8661
 21
-21.0864
  0
LINE
  8
0
 10
-55.8661
 20
-21.0864
 11
-55.7002
 21
-21.1346
  0
LINE
  8
0
 10
-55.7002
 20
-21.1346
 11
-55.5376
 21
-21.1931
  0
LINE
  8
0
 10
-55.5376
 20
-21.1931
 11
-55.3791
 21
-21.2617
  0
LINE
  8
0
 10
-55.3791
 20
-21.2617
 11
-55.2252
 21
-21.3401
  0
LINE
  8
0
 10
-55.2252
 20
-21.3401
 11
-55.0765
 21
-21.4281
  0
LINE
  8
0
 10
-55.0765
 20
-21.4281
 11
-54.9336
 21
-21.5252
  0
LINE
  8
0
 10
-54.9336
 20
-21.5252
 11
-54.7971
 21
-21.6311
  0
LINE
  8
0
 10
-54.7971
 20
-21.6311
 11
-54.6675
 21
-21.7453
  0
LINE
  8
0
 10
-54.6675
 20
-21.7453
 11
-54.5453
 21
-21.8675
  0
LINE
  8
0
 10
-54.5453
 20
-21.8675
 11
-54.4311
 21
-21.9971
  0
LINE
  8
0
 10
-54.4311
 20
-21.9971
 11
-54.3252
 21
-22.1336
  0
LINE
  8
0
 10
-54.3252
 20
-22.1336
 11
-54.2281
 21
-22.2765
  0
LINE
  8
0
 10
-54.2281
 20
-22.2765
 11
-54.1402
 21
-22.4252
  0
LINE
  8
0
 10
-54.1402
 20
-22.4252
 11
-54.0617
 21
-22.5791
  0
LINE
  8
0
 10
-54.0617
 20
-22.5791
 11
-53.9931
 21
-22.7377
  0
LINE
  8
0
 10
-53.9931
 20
-22.7377
 11
-53.9346
 21
-22.9002
  0
LINE
  8
0
 10
-53.9346
 20
-22.9002
 11
-53.8864
 21
-23.0661
  0
LINE
  8
0
 10
-53.8864
 20
-23.0661
 11
-53.8487
 21
-23.2347
  0
LINE
  8
0
 10
-53.8487
 20
-23.2347
 11
-53.8217
 21
-23.4053
  0
LINE
  8
0
 10
-53.8217
 20
-23.4053
 11
-53.8054
 21
-23.5773
  0
LINE
  8
0
 10
-53.8054
 20
-23.5773
 11
-53.8
 21
-23.75
  0
LINE
  8
0
 10
-53.8
 20
-23.75
 11
-53.8054
 21
-23.9227
  0
LINE
  8
0
 10
-53.8054
 20
-23.9227
 11
-53.8217
 21
-24.0947
  0
LINE
  8
0
 10
-53.8217
 20
-24.0947
 11
-53.8487
 21
-24.2653
  0
LINE
  8
0
 10
-53.8487
 20
-24.2653
 11
-53.8864
 21
-24.4339
  0
LINE
  8
0
 10
-53.8864
 20
-24.4339
 11
-53.9346
 21
-24.5998
  0
LINE
  8
0
 10
-53.9346
 20
-24.5998
 11
-53.9931
 21
-24.7623
  0
LINE
  8
0
 10
-53.9931
 20
-24.7623
 11
-54.0617
 21
-24.9209
  0
LINE
  8
0
 10
-54.0617
 20
-24.9209
 11
-54.1402
 21
-25.0748
  0
LINE
  8
0
 10
-54.1402
 20
-25.0748
 11
-54.2281
 21
-25.2235
  0
LINE
  8
0
 10
-54.2281
 20
-25.2235
 11
-54.3252
 21
-25.3664
  0
LINE
  8
0
 10
-54.3252
 20
-25.3664
 11
-54.4311
 21
-25.5029
  0
LINE
  8
0
 10
-54.4311
 20
-25.5029
 11
-54.5453
 21
-25.6325
  0
LINE
  8
0
 10
-54.5453
 20
-25.6325
 11
-54.6675
 21
-25.7547
  0
LINE
  8
0
 10
-54.6675
 20
-25.7547
 11
-54.7971
 21
-25.8689
  0
LINE
  8
0
 10
-54.7971
 20
-25.8689
 11
-54.9336
 21
-25.9748
  0
LINE
  8
0
 10
-54.9336
 20
-25.9748
 11
-55.0765
 21
-26.0719
  0
LINE
  8
0
 10
-55.0765
 20
-26.0719
 11
-55.2252
 21
-26.1598
  0
LINE
  8
0
 10
-55.2252
 20
-26.1598
 11
-55.3791
 21
-26.2383
  0
LINE
  8
0
 10
-55.3791
 20
-26.2383
 11
-55.5376
 21
-26.3069
  0
LINE
  8
0
 10
-55.5376
 20
-26.3069
 11
-55.7002
 21
-26.3654
  0
LINE
  8
0
 10
-55.7002
 20
-26.3654
 11
-55.8661
 21
-26.4136
  0
LINE
  8
0
 10
-55.8661
 20
-26.4136
 11
-56.0347
 21
-26.4513
  0
LINE
  8
0
 10
-56.0347
 20
-26.4513
 11
-56.2053
 21
-26.4783
  0
LINE
  8
0
 10
-56.2053
 20
-26.4783
 11
-56.3773
 21
-26.4946
  0
LINE
  8
0
 10
-56.3773
 20
-26.4946
 11
-56.55
 21
-26.5
  0
LINE
  8
0
 10
-56.55
 20
-26.5
 11
-56.7227
 21
-26.4946
  0
LINE
  8
0
 10
56.3773
 20
-26.4946
 11
56.2053
 21
-26.4783
  0
LINE
  8
0
 10
56.2053
 20
-26.4783
 11
56.0347
 21
-26.4513
  0
LINE
  8
0
 10
56.0347
 20
-26.4513
 11
55.8661
 21
-26.4136
  0
LINE
  8
0
 10
55.8661
 20
-26.4136
 11
55.7002
 21
-26.3654
  0
LINE
  8
0
 10
55.7002
 20
-26.3654
 11
55.5376
 21
-26.3069
  0
LINE
  8
0
 10
55.5376
 20
-26.3069
 11
55.3791
 21
-26.2383
  0
LINE
  8
0
 10
55.3791
 20
-26.2383
 11
55.2252
 21
-26.1598
  0
LINE
  8
0
 10
55.2252
 20
-26.1598
 11
55.0765
 21
-26.0719
  0
LINE
  8
0
 10
55.0765
 20
-26.0719
 11
54.9336
 21
-25.9748
  0
LINE
  8
0
 10
54.9336
 20
-25.9748
 11
54.7971
 21
-25.8689
  0
LINE
  8
0
 10
54.7971
 20
-25.8689
 11
54.6675
 21
-25.7547
  0
LINE
  8
0
 10
54.6675
 20
-25.7547
 11
54.5453
 21
-25.6325
  0
LINE
  8
0
 10
54.5453
 20
-25.6325
 11
54.4311
 21
-25.5029
  0
LINE
  8
0
 10
54.4311
 20
-25.5029
 11
54.3252
 21
-25.3664
  0
LINE
  8
0
 10
54.3252
 20
-25.3664
 11
54.2281
 21
-25.2235
  0
LINE
  8
0
 10
54.2281
 20
-25.2235
 11
54.1402
 21
-25.0748
  0
LINE
  8
0
 10
54.1402
 20
-25.0748
 11
54.0617
 21
-24.9209
  0
LINE
  8
0
 10
54.0617
 20
-24.9209
 11
53.9931
 21
-24.7623
  0
LINE
  8
0
 10
53.9931
 20
-24.7623
 11
53.9346
 21
-24.5998
  0
LINE
  8
0
 10
53.9346
 20
-24.5998
 11
53.8864
 21
-24.4339
  0
LINE
  8
0
 10
53.8864
 20
-24.4339
 11
53.8487
 21
-24.2653
  0
LINE
  8
0
 10
53.8487
 20
-24.2653
 11
53.8217
 21
-24.0947
  0
LINE
  8
0
 10
53.8217
 20
-24.0947
 11
53.8054
 21
-23.9227
  0
LINE
  8
0
 10
53.8054
 20
-23.9227
 11
53.8
 21
-23.75
  0
LINE
  8
0
 10
53.8
 20
-23.75
 11
53.8054
 21
-23.5773
  0
LINE
  8
0
 10
53.8054
 20
-23.5773
 11
53.8217
 21
-23.4053
  0
LINE
  8
0
 10
53.8217
 20
-23.4053
 11
53.8487
 21
-23.2347
  0
LINE
  8
0
 10
53.8487
 20
-23.2347
 11
53.8864
 21
-23.0661
  0
LINE
  8
0
 10
53.8864
 20
-23.0661
 11
53.9346
 21
-22.9002
  0
LINE
  8
0
 10
53.9346
 20
-22.9002
 11
53.9931
 21
-22.7377
  0
LINE
  8
0
 10
53.9931
 20
-22.7377
 11
54.0617
 21
-22.5791
  0
LINE
  8
0
 10
54.0617
 20
-22.5791
 11
54.1402
 21
-22.4252
  0
LINE
  8
0
 10
54.1402
 20
-22.4252
 11
54.2281
 21
-22.2765
  0
LINE
  8
0
 10
54.2281
 20
-22.2765
 11
54.3252
 21
-22.1336
  0
LINE
  8
0
 10
54.3252
 20
-22.1336
 11
54.4311
 21
-21.9971
  0
LINE
  8
0
 10
54.4311
 20
-21.9971
 11
54.5453
 21
-21.8675
  0
LINE
  8
0
 10
54.5453
 20
-21.8675
 11
54.6675
 21
-21.7453
  0
LINE
  8
0
 10
54.6675
 20
-21.7453
 11
54.7971
 21
-21.6311
  0
LINE
  8
0
 10
54.7971
 20
-21.6311
 11
54.9336
 21
-21.5252
  0
LINE
  8
0
 10
54.9336
 20
-21.5252
 11
55.0765
 21
-21.4281
  0
LINE
  8
0
 10
55.0765
 20
-21.4281
 11
55.2252
 21
-21.3401
  0
LINE
  8
0
 10
55.2252
 20
-21.3401
 11
55.3791
 21
-21.2617
  0
LINE
  8
0
 10
55.3791
 20
-21.2617
 11
55.5376
 21
-21.1931
  0
LINE
  8
0
 10
55.5376
 20
-21.1931
 11
55.7002
 21
-21.1346
  0
LINE
  8
0
 10
55.7002
 20
-21.1346
 11
55.8661
 21
-21.0864
  0
LINE
  8
0
 10
55.8661
 20
-21.0864
 11
56.0347
 21
-21.0487
  0
LINE
  8
0
 10
56.0347
 20
-21.0487
 11
56.2053
 21
-21.0217
  0
LINE
  8
0
 10
56.2053
 20
-21.0217
 11
56.3773
 21
-21.0054
  0
LINE
  8
0
 10
56.3773
 20
-21.0054
 11
56.55
 21
-21
  0
LINE
  8
0
 10
56.55
 20
-21
 11
56.7227
 21
-21.0054
  0
LINE
  8
0
 10
56.7227
 20
-21.0054
 11
56.8947
 21
-21.0217
  0
LINE
  8
0
 10
56.8947
 20
-21.0217
 11
57.0653
 21
-21.0487
  0
LINE
  8
0
 10
57.0653
 20
-21.0487
 11
57.2339
 21
-21.0864
  0
LINE
  8
0
 10
57.2339
 20
-21.0864
 11
57.3998
 21
-21.1346
  0
LINE
  8
0
 10
57.3998
 20
-21.1346
 11
57.5623
 21
-21.1931
  0
LINE
  8
0
 10
57.5623
 20
-21.1931
 11
57.7209
 21
-21.2617
  0
LINE
  8
0
 10
57.7209
 20
-21.2617
 11
57.8748
 21
-21.3401
  0
LINE
  8
0
 10
57.8748
 20
-21.3401
 11
58.0235
 21
-21.4281
  0
LINE
  8
0
 10
58.0235
 20
-21.4281
 11
58.1664
 21
-21.5252
  0
LINE
  8
0
 10
58.1664
 20
-21.5252
 11
58.3029
 21
-21.6311
  0
LINE
  8
0
 10
58.3029
 20
-21.6311
 11
58.4325
 21
-21.7453
  0
LINE
  8
0
 10
58.4325
 20
-21.7453
 11
58.5547
 21
-21.8675
  0
LINE
  8
0
 10
58.5547
 20
-21.8675
 11
58.6689
 21
-21.9971
  0
LINE
  8
0
 10
58.6689
 20
-21.9971
 11
58.7748
 21
-22.1336
  0
LINE
  8
0
 10
58.7748
 20
-22.1336
 11
58.8719
 21
-22.2765
  0
LINE
  8
0
 10
58.8719
 20
-22.2765
 11
58.9598
 21
-22.4252
  0
LINE
  8
0
 10
58.9598
 20
-22.4252
 11
59.0383
 21
-22.5791
  0
LINE
  8
0
 10
59.0383
 20
-22.5791
 11
59.1069
 21
-22.7377
  0
LINE
  8
0
 10
59.1069
 20
-22.7377
 11
59.1654
 21
-22.9002
  0
LINE
  8
0
 10
59.1654
 20
-22.9002
 11
59.2136
 21
-23.0661
  0
LINE
  8
0
 10
59.2136
 20
-23.0661
 11
59.2513
 21
-23.2347
  0
LINE
  8
0
 10
59.2513
 20
-23.2347
 11
59.2783
 21
-23.4053
  0
LINE
  8
0
 10
59.2783
 20
-23.4053
 11
59.2946
 21
-23.5773
  0
LINE
  8
0
 10
59.2946
 20
-23.5773
 11
59.3
 21
-23.75
  0
LINE
  8
0
 10
59.3
 20
-23.75
 11
59.2946
 21
-23.9227
  0
LINE
  8
0
 10
59.2946
 20
-23.9227
 11
59.2783
 21
-24.0947
  0
LINE
  8
0
 10
59.2783
 20
-24.0947
 11
59.2513
 21
-24.2653
  0
LINE
  8
0
 10
59.2513
 20
-24.2653
 11
59.2136
 21
-24.4339
  0
LINE
  8
0
 10
59.2136
 20
-24.4339
 11
59.1654
 21
-24.5998
  0
LINE
  8
0
 10
59.1654
 20
-24.5998
 11
59.1069
 21
-24.7623
  0
LINE
  8
0
 10
59.1069
 20
-24.7623
 11
59.0383
 21
-24.9209
  0
LINE
  8
0
 10
59.0383
 20
-24.9209
 11
58.9598
 21
-25.0748
  0
LINE
  8
0
 10
58.9598
 20
-25.0748
 11
58.8719
 21
-25.2235
  0
LINE
  8
0
 10
58.8719
 20
-25.2235
 11
58.7748
 21
-25.3664
  0
LINE
  8
0
 10
58.7748
 20
-25.3664
 11
58.6689
 21
-25.5029
  0
LINE
  8
0
 10
58.6689
 20
-25.5029
 11
58.5547
 21
-25.6325
  0
LINE
  8
0
 10
58.5547
 20
-25.6325
 11
58.4325
 21
-25.7547
  0
LINE
  8
0
 10
58.4325
 20
-25.7547
 11
58.3029
 21
-25.8689
  0
LINE
  8
0
 10
58.3029
 20
-25.8689
 11
58.1664
 21
-25.9748
  0
LINE
  8
0
 10
58.1664
 20
-25.9748
 11
58.0235
 21
-26.0719
  0
LINE
  8
0
 10
58.0235
 20
-26.0719
 11
57.8748
 21
-26.1598
  0
LINE
  8
0
 10
57.8748
 20
-26.1598
 11
57.7209
 21
-26.2383
  0
LINE
  8
0
 10
57.7209
 20
-26.2383
 11
57.5623
 21
-26.3069
  0
LINE
  8
0
 10
57.5623
 20
-26.3069
 11
57.3998
 21
-26.3654
  0
LINE
  8
0
 10
57.3998
 20
-26.3654
 11
57.2339
 21
-26.4136
  0
LINE
  8
0
 10
57.2339
 20
-26.4136
 11
57.0653
 21
-26.4513
  0
LINE
  8
0
 10
57.0653
 20
-26.4513
 11
56.8947
 21
-26.4783
  0
LINE
  8
0
 10
56.8947
 20
-26.4783
 11
56.7227
 21
-26.4946
  0
LINE
  8
0
 10
56.7227
 20
-26.4946
 11
56.55
 21
-26.5
  0
LINE
  8
0
 10
56.55
 20
-26.5
 11
56.3773
 21
-26.4946
  0
LINE
  8
0
 10
-57.113
 20
-49.7964
 11
-57.2256
 21
-49.7858
  0
LINE
  8
0
 10
-57.2256
 20
-49.7858
 11
-57.3373
 21
-49.7681
  0
LINE
  8
0
 10
-57.3373
 20
-49.7681
 11
-57.4476
 21
-49.7434
  0
LINE
  8
0
 10
-57.4476
 20
-49.7434
 11
-57.5562
 21
-49.7119
  0
LINE
  8
0
 10
-57.5562
 20
-49.7119
 11
-57.6626
 21
-49.6736
  0
LINE
  8
0
 10
-57.6626
 20
-49.6736
 11
-57.7664
 21
-49.6287
  0
LINE
  8
0
 10
-57.7664
 20
-49.6287
 11
-57.8671
 21
-49.5773
  0
LINE
  8
0
 10
-57.8671
 20
-49.5773
 11
-57.9645
 21
-49.5198
  0
LINE
  8
0
 10
-57.9645
 20
-49.5198
 11
-58.058
 21
-49.4562
  0
LINE
  8
0
 10
-58.058
 20
-49.4562
 11
-58.1474
 21
-49.3869
  0
LINE
  8
0
 10
-58.1474
 20
-49.3869
 11
-58.2322
 21
-49.3121
  0
LINE
  8
0
 10
-58.2322
 20
-49.3121
 11
-58.3121
 21
-49.2322
  0
LINE
  8
0
 10
-58.3121
 20
-49.2322
 11
-58.3869
 21
-49.1474
  0
LINE
  8
0
 10
-58.3869
 20
-49.1474
 11
-58.4562
 21
-49.058
  0
LINE
  8
0
 10
-58.4562
 20
-49.058
 11
-58.5198
 21
-48.9645
  0
LINE
  8
0
 10
-58.5198
 20
-48.9645
 11
-58.5773
 21
-48.8671
  0
LINE
  8
0
 10
-58.5773
 20
-48.8671
 11
-58.6287
 21
-48.7664
  0
LINE
  8
0
 10
-58.6287
 20
-48.7664
 11
-58.6736
 21
-48.6626
  0
LINE
  8
0
 10
-58.6736
 20
-48.6626
 11
-58.7119
 21
-48.5562
  0
LINE
  8
0
 10
-58.7119
 20
-48.5562
 11
-58.7434
 21
-48.4476
  0
LINE
  8
0
 10
-58.7434
 20
-48.4476
 11
-58.7681
 21
-48.3373
  0
LINE
  8
0
 10
-58.7681
 20
-48.3373
 11
-58.7858
 21
-48.2256
  0
LINE
  8
0
 10
-58.7858
 20
-48.2256
 11
-58.7964
 21
-48.113
  0
LINE
  8
0
 10
-58.7964
 20
-48.113
 11
-58.8
 21
-48
  0
LINE
  8
0
 10
-58.8
 20
-48
 11
-58.7964
 21
-47.887
  0
LINE
  8
0
 10
-58.7964
 20
-47.887
 11
-58.7858
 21
-47.7744
  0
LINE
  8
0
 10
-58.7858
 20
-47.7744
 11
-58.7681
 21
-47.6627
  0
LINE
  8
0
 10
-58.7681
 20
-47.6627
 11
-58.7434
 21
-47.5524
  0
LINE
  8
0
 10
-58.7434
 20
-47.5524
 11
-58.7119
 21
-47.4438
  0
LINE
  8
0
 10
-58.7119
 20
-47.4438
 11
-58.6736
 21
-47.3374
  0
LINE
  8
0
 10
-58.6736
 20
-47.3374
 11
-58.6287
 21
-47.2336
  0
LINE
  8
0
 10
-58.6287
 20
-47.2336
 11
-58.5773
 21
-47.1328
  0
LINE
  8
0
 10
-58.5773
 20
-47.1328
 11
-58.5198
 21
-47.0355
  0
LINE
  8
0
 10
-58.5198
 20
-47.0355
 11
-58.4562
 21
-46.942
  0
LINE
  8
0
 10
-58.4562
 20
-46.942
 11
-58.3869
 21
-46.8526
  0
LINE
  8
0
 10
-58.3869
 20
-46.8526
 11
-58.3121
 21
-46.7678
  0
LINE
  8
0
 10
-58.3121
 20
-46.7678
 11
-58.2322
 21
-46.6879
  0
LINE
  8
0
 10
-58.2322
 20
-46.6879
 11
-58.1474
 21
-46.6131
  0
LINE
  8
0
 10
-58.1474
 20
-46.6131
 11
-58.058
 21
-46.5438
  0
LINE
  8
0
 10
-58.058
 20
-46.5438
 11
-57.9645
 21
-46.4802
  0
LINE
  8
0
 10
-57.9645
 20
-46.4802
 11
-57.8671
 21
-46.4226
  0
LINE
  8
0
 10
-57.8671
 20
-46.4226
 11
-57.7664
 21
-46.3713
  0
LINE
  8
0
 10
-57.7664
 20
-46.3713
 11
-57.6626
 21
-46.3264
  0
LINE
  8
0
 10
-57.6626
 20
-46.3264
 11
-57.5562
 21
-46.2881
  0
LINE
  8
0
 10
-57.5562
 20
-46.2881
 11
-57.4476
 21
-46.2565
  0
LINE
  8
0
 10
-57.4476
 20
-46.2565
 11
-57.3373
 21
-46.2319
  0
LINE
  8
0
 10
-57.3373
 20
-46.2319
 11
-57.2256
 21
-46.2142
  0
LINE
  8
0
 10
-57.2256
 20
-46.2142
 11
-57.113
 21
-46.2035
  0
LINE
  8
0
 10
-57.113
 20
-46.2035
 11
-57
 21
-46.2
  0
LINE
  8
0
 10
-57
 20
-46.2
 11
-56.887
 21
-46.2035
  0
LINE
  8
0
 10
-56.887
 20
-46.2035
 11
-56.7744
 21
-46.2142
  0
LINE
  8
0
 10
-56.7744
 20
-46.2142
 11
-56.6627
 21
-46.2319
  0
LINE
  8
0
 10
-56.6627
 20
-46.2319
 11
-56.5524
 21
-46.2565
  0
LINE
  8
0
 10
-56.5524
 20
-46.2565
 11
-56.4438
 21
-46.2881
  0
LINE
  8
0
 10
-56.4438
 20
-46.2881
 11
-56.3374
 21
-46.3264
  0
LINE
  8
0
 10
-56.3374
 20
-46.3264
 11
-56.2336
 21
-46.3713
  0
LINE
  8
0
 10
-56.2336
 20
-46.3713
 11
-56.1328
 21
-46.4226
  0
LINE
  8
0
 10
-56.1328
 20
-46.4226
 11
-56.0355
 21
-46.4802
  0
LINE
  8
0
 10
-56.0355
 20
-46.4802
 11
-55.942
 21
-46.5438
  0
LINE
  8
0
 10
-55.942
 20
-46.5438
 11
-55.8526
 21
-46.6131
  0
LINE
  8
0
 10
-55.8526
 20
-46.6131
 11
-55.7678
 21
-46.6879
  0
LINE
  8
0
 10
-55.7678
 20
-46.6879
 11
-55.6879
 21
-46.7678
  0
LINE
  8
0
 10
-55.6879
 20
-46.7678
 11
-55.6131
 21
-46.8526
  0
LINE
  8
0
 10
-55.6131
 20
-46.8526
 11
-55.5438
 21
-46.942
  0
LINE
  8
0
 10
-55.5438
 20
-46.942
 11
-55.4802
 21
-47.0355
  0
LINE
  8
0
 10
-55.4802
 20
-47.0355
 11
-55.4226
 21
-47.1328
  0
LINE
  8
0
 10
-55.4226
 20
-47.1328
 11
-55.3713
 21
-47.2336
  0
LINE
  8
0
 10
-55.3713
 20
-47.2336
 11
-55.3264
 21
-47.3374
  0
LINE
  8
0
 10
-55.3264
 20
-47.3374
 11
-55.2881
 21
-47.4438
  0
LINE
  8
0
 10
-55.2881
 20
-47.4438
 11
-55.2565
 21
-47.5524
  0
LINE
  8
0
 10
-55.2565
 20
-47.5524
 11
-55.2319
 21
-47.6627
  0
LINE
  8
0
 10
-55.2319
 20
-47.6627
 11
-55.2142
 21
-47.7744
  0
LINE
  8
0
 10
-55.2142
 20
-47.7744
 11
-55.2035
 21
-47.887
  0
LINE
  8
0
 10
-55.2035
 20
-47.887
 11
-55.2
 21
-48
  0
LINE
  8
0
 10
-55.2
 20
-48
 11
-55.2035
 21
-48.113
  0
LINE
  8
0
 10
-55.2035
 20
-48.113
 11
-55.2142
 21
-48.2256
  0
LINE
  8
0
 10
-55.2142
 20
-48.2256
 11
-55.2319
 21
-48.3373
  0
LINE
  8
0
 10
-55.2319
 20
-48.3373
 11
-55.2565
 21
-48.4476
  0
LINE
  8
0
 10
-55.2565
 20
-48.4476
 11
-55.2881
 21
-48.5562
  0
LINE
  8
0
 10
-55.2881
 20
-48.5562
 11
-55.3264
 21
-48.6626
  0
LINE
  8
0
 10
-55.3264
 20
-48.6626
 11
-55.3713
 21
-48.7664
  0
LINE
  8
0
 10
-55.3713
 20
-48.7664
 11
-55.4226
 21
-48.8671
  0
LINE
  8
0
 10
-55.4226
 20
-48.8671
 11
-55.4802
 21
-48.9645
  0
LINE
  8
0
 10
-55.4802
 20
-48.9645
 11
-55.5438
 21
-49.058
  0
LINE
  8
0
 10
-55.5438
 20
-49.058
 11
-55.6131
 21
-49.1474
  0
LINE
  8
0
 10
-55.6131
 20
-49.1474
 11
-55.6879
 21
-49.2322
  0
LINE
  8
0
 10
-55.6879
 20
-49.2322
 11
-55.7678
 21
-49.3121
  0
LINE
  8
0
 10
-55.7678
 20
-49.3121
 11
-55.8526
 21
-49.3869
  0
LINE
  8
0
 10
-55.8526
 20
-49.3869
 11
-55.942
 21
-49.4562
  0
LINE
  8
0
 10
-55.942
 20
-49.4562
 11
-56.0355
 21
-49.5198
  0
LINE
  8
0
 10
-56.0355
 20
-49.5198
 11
-56.1328
 21
-49.5773
  0
LINE
  8
0
 10
-56.1328
 20
-49.5773
 11
-56.2336
 21
-49.6287
  0
LINE
  8
0
 10
-56.2336
 20
-49.6287
 11
-56.3374
 21
-49.6736
  0
LINE
  8
0
 10
-56.3374
 20
-49.6736
 11
-56.4438
 21
-49.7119
  0
LINE
  8
0
 10
-56.4438
 20
-49.7119
 11
-56.5524
 21
-49.7434
  0
LINE
  8
0
 10
-56.5524
 20
-49.7434
 11
-56.6627
 21
-49.7681
  0
LINE
  8
0
 10
-56.6627
 20
-49.7681
 11
-56.7744
 21
-49.7858
  0
LINE
  8
0
 10
-56.7744
 20
-49.7858
 11
-56.887
 21
-49.7964
  0
LINE
  8
0
 10
-56.887
 20
-49.7964
 11
-57
 21
-49.8
  0
LINE
  8
0
 10
-57
 20
-49.8
 11
-57.113
 21
-49.7964
  0
LINE
  8
0
 10
56.887
 20
-49.7964
 11
56.7744
 21
-49.7858
  0
LINE
  8
0
 10
56.7744
 20
-49.7858
 11
56.6627
 21
-49.7681
  0
LINE
  8
0
 10
56.6627
 20
-49.7681
 11
56.5524
 21
-49.7434
  0
LINE
  8
0
 10
56.5524
 20
-49.7434
 11
56.4438
 21
-49.7119
  0
LINE
  8
0
 10
56.4438
 20
-49.7119
 11
56.3374
 21
-49.6736
  0
LINE
  8
0
 10
56.3374
 20
-49.6736
 11
56.2336
 21
-49.6287
  0
LINE
  8
0
 10
56.2336
 20
-49.6287
 11
56.1328
 21
-49.5773
  0
LINE
  8
0
 10
56.1328
 20
-49.5773
 11
56.0355
 21
-49.5198
  0
LINE
  8
0
 10
56.0355
 20
-49.5198
 11
55.942
 21
-49.4562
  0
LINE
  8
0
 10
55.942
 20
-49.4562
 11
55.8526
 21
-49.3869
  0
LINE
  8
0
 10
55.8526
 20
-49.3869
 11
55.7678
 21
-49.3121
  0
LINE
  8
0
 10
55.7678
 20
-49.3121
 11
55.6879
 21
-49.2322
  0
LINE
  8
0
 10
55.6879
 20
-49.2322
 11
55.6131
 21
-49.1474
  0
LINE
  8
0
 10
55.6131
 20
-49.1474
 11
55.5438
 21
-49.058
  0
LINE
  8
0
 10
55.5438
 20
-49.058
 11
55.4802
 21
-48.9645
  0
LINE
  8
0
 10
55.4802
 20
-48.9645
 11
55.4226
 21
-48.8671
  0
LINE
  8
0
 10
55.4226
 20
-48.8671
 11
55.3713
 21
-48.7664
  0
LINE
  8
0
 10
55.3713
 20
-48.7664
 11
55.3264
 21
-48.6626
  0
LINE
  8
0
 10
55.3264
 20
-48.6626
 11
55.2881
 21
-48.5562
  0
LINE
  8
0
 10
55.2881
 20
-48.5562
 11
55.2565
 21
-48.4476
  0
LINE
  8
0
 10
55.2565
 20
-48.4476
 11
55.2319
 21
-48.3373
  0
LINE
  8
0
 10
55.2319
 20
-48.3373
 11
55.2142
 21
-48.2256
  0
LINE
  8
0
 10
55.2142
 20
-48.2256
 11
55.2035
 21
-48.113
  0
LINE
  8
0
 10
55.2035
 20
-48.113
 11
55.2
 21
-48
  0
LINE
  8
0
 10
55.2
 20
-48
 11
55.2035
 21
-47.887
  0
LINE
  8
0
 10
55.2035
 20
-47.887
 11
55.2142
 21
-47.7744
  0
LINE
  8
0
 10
55.2142
 20
-47.7744
 11
55.2319
 21
-47.6627
  0
LINE
  8
0
 10
55.2319
 20
-47.6627
 11
55.2565
 21
-47.5524
  0
LINE
  8
0
 10
55.2565
 20
-47.5524
 11
55.2881
 21
-47.4438
  0
LINE
  8
0
 10
55.2881
 20
-47.4438
 11
55.3264
 21
-47.3374
  0
LINE
  8
0
 10
55.3264
 20
-47.3374
 11
55.3713
 21
-47.2336
  0
LINE
  8
0
 10
55.3713
 20
-47.2336
 11
55.4226
 21
-47.1328
  0
LINE
  8
0
 10
55.4226
 20
-47.1328
 11
55.4802
 21
-47.0355
  0
LINE
  8
0
 10
55.4802
 20
-47.0355
 11
55.5438
 21
-46.942
  0
LINE
  8
0
 10
55.5438
 20
-46.942
 11
55.6131
 21
-46.8526
  0
LINE
  8
0
 10
55.6131
 20
-46.8526
 11
55.6879
 21
-46.7678
  0
LINE
  8
0
 10
55.6879
 20
-46.7678
 11
55.7678
 21
-46.6879
  0
LINE
  8
0
 10
55.7678
 20
-46.6879
 11
55.8526
 21
-46.6131
  0
LINE
  8
0
 10
55.8526
 20
-46.6131
 11
55.942
 21
-46.5438
  0
LINE
  8
0
 10
55.942
 20
-46.5438
 11
56.0355
 21
-46.4802
  0
LINE
  8
0
 10
56.0355
 20
-46.4802
 11
56.1328
 21
-46.4226
  0
LINE
  8
0
 10
56.1328
 20
-46.4226
 11
56.2336
 21
-46.3713
  0
LINE
  8
0
 10
56.2336
 20
-46.3713
 11
56.3374
 21
-46.3264
  0
LINE
  8
0
 10
56.3374
 20
-46.3264
 11
56.4438
 21
-46.2881
  0
LINE
  8
0
 10
56.4438
 20
-46.2881
 11
56.5524
 21
-46.2565
  0
LINE
  8
0
 10
56.5524
 20
-46.2565
 11
56.6627
 21
-46.2319
  0
LINE
  8
0
 10
56.6627
 20
-46.2319
 11
56.7744
 21
-46.2142
  0
LINE
  8
0
 10
56.7744
 20
-46.2142
 11
56.887
 21
-46.2035
  0
LINE
  8
0
 10
56.887
 20
-46.2035
 11
57
 21
-46.2
  0
LINE
  8
0
 10
57
 20
-46.2
 11
57.113
 21
-46.2035
  0
LINE
  8
0
 10
57.113
 20
-46.2035
 11
57.2256
 21
-46.2142
  0
LINE
  8
0
 10
57.2256
 20
-46.2142
 11
57.3373
 21
-46.2319
  0
LINE
  8
0
 10
57.3373
 20
-46.2319
 11
57.4476
 21
-46.2565
  0
LINE
  8
0
 10
57.4476
 20
-46.2565
 11
57.5562
 21
-46.2881
  0
LINE
  8
0
 10
57.5562
 20
-46.2881
 11
57.6626
 21
-46.3264
  0
LINE
  8
0
 10
57.6626
 20
-46.3264
 11
57.7664
 21
-46.3713
  0
LINE
  8
0
 10
57.7664
 20
-46.3713
 11
57.8671
 21
-46.4226
  0
LINE
  8
0
 10
57.8671
 20
-46.4226
 11
57.9645
 21
-46.4802
  0
LINE
  8
0
 10
57.9645
 20
-46.4802
 11
58.058
 21
-46.5438
  0
LINE
  8
0
 10
58.058
 20
-46.5438
 11
58.1474
 21
-46.6131
  0
LINE
  8
0
 10
58.1474
 20
-46.6131
 11
58.2322
 21
-46.6879
  0
LINE
  8
0
 10
58.2322
 20
-46.6879
 11
58.3121
 21
-46.7678
  0
LINE
  8
0
 10
58.3121
 20
-46.7678
 11
58.3869
 21
-46.8526
  0
LINE
  8
0
 10
58.3869
 20
-46.8526
 11
58.4562
 21
-46.942
  0
LINE
  8
0
 10
58.4562
 20
-46.942
 11
58.5198
 21
-47.0355
  0
LINE
  8
0
 10
58.5198
 20
-47.0355
 11
58.5773
 21
-47.1328
  0
LINE
  8
0
 10
58.5773
 20
-47.1328
 11
58.6287
 21
-47.2336
  0
LINE
  8
0
 10
58.6287
 20
-47.2336
 11
58.6736
 21
-47.3374
  0
LINE
  8
0
 10
58.6736
 20
-47.3374
 11
58.7119
 21
-47.4438
  0
LINE
  8
0
 10
58.7119
 20
-47.4438
 11
58.7434
 21
-47.5524
  0
LINE
  8
0
 10
58.7434
 20
-47.5524
 11
58.7681
 21
-47.6627
  0
LINE
  8
0
 10
58.7681
 20
-47.6627
 11
58.7858
 21
-47.7744
  0
LINE
  8
0
 10
58.7858
 20
-47.7744
 11
58.7964
 21
-47.887
  0
LINE
  8
0
 10
58.7964
 20
-47.887
 11
58.8
 21
-48
  0
LINE
  8
0
 10
58.8
 20
-48
 11
58.7964
 21
-48.113
  0
LINE
  8
0
 10
58.7964
 20
-48.113
 11
58.7858
 21
-48.2256
  0
LINE
  8
0
 10
58.7858
 20
-48.2256
 11
58.7681
 21
-48.3373
  0
LINE
  8
0
 10
58.7681
 20
-48.3373
 11
58.7434
 21
-48.4476
  0
LINE
  8
0
 10
58.7434
 20
-48.4476
 11
58.7119
 21
-48.5562
  0
LINE
  8
0
 10
58.7119
 20
-48.5562
 11
58.6736
 21
-48.6626
  0
LINE
  8
0
 10
58.6736
 20
-48.6626
 11
58.6287
 21
-48.7664
  0
LINE
  8
0
 10
58.6287
 20
-48.7664
 11
58.5773
 21
-48.8671
  0
LINE
  8
0
 10
58.5773
 20
-48.8671
 11
58.5198
 21
-48.9645
  0
LINE
  8
0
 10
58.5198
 20
-48.9645
 11
58.4562
 21
-49.058
  0
LINE
  8
0
 10
58.4562
 20
-49.058
 11
58.3869
 21
-49.1474
  0
LINE
  8
0
 10
58.3869
 20
-49.1474
 11
58.3121
 21
-49.2322
  0
LINE
  8
0
 10
58.3121
 20
-49.2322
 11
58.2322
 21
-49.3121
  0
LINE
  8
0
 10
58.2322
 20
-49.3121
 11
58.1474
 21
-49.3869
  0
LINE
  8
0
 10
58.1474
 20
-49.3869
 11
58.058
 21
-49.4562
  0
LINE
  8
0
 10
58.058
 20
-49.4562
 11
57.9645
 21
-49.5198
  0
LINE
  8
0
 10
57.9645
 20
-49.5198
 11
57.8671
 21
-49.5773
  0
LINE
  8
0
 10
57.8671
 20
-49.5773
 11
57.7664
 21
-49.6287
  0
LINE
  8
0
 10
57.7664
 20
-49.6287
 11
57.6626
 21
-49.6736
  0
LINE
  8
0
 10
57.6626
 20
-49.6736
 11
57.5562
 21
-49.7119
  0
LINE
  8
0
 10
57.5562
 20
-49.7119
 11
57.4476
 21
-49.7434
  0
LINE
  8
0
 10
57.4476
 20
-49.7434
 11
57.3373
 21
-49.7681
  0
LINE
  8
0
 10
57.3373
 20
-49.7681
 11
57.2256
 21
-49.7858
  0
LINE
  8
0
 10
57.2256
 20
-49.7858
 11
57.113
 21
-49.7964
  0
LINE
  8
0
 10
57.113
 20
-49.7964
 11
57
 21
-49.8
  0
LINE
  8
0
 10
57
 20
-49.8
 11
56.887
 21
-49.7964
  0
LINE
  8
0
 10
-0.113022
 20
-49.7964
 11
-0.225586
 21
-49.7858
  0
LINE
  8
0
 10
-0.225586
 20
-49.7858
 11
-0.33728
 21
-49.7681
  0
LINE
  8
0
 10
-0.33728
 20
-49.7681
 11
-0.447632
 21
-49.7434
  0
LINE
  8
0
 10
-0.447632
 20
-49.7434
 11
-0.556229
 21
-49.7119
  0
LINE
  8
0
 10
-0.556229
 20
-49.7119
 11
-0.662613
 21
-49.6736
  0
LINE
  8
0
 10
-0.662613
 20
-49.6736
 11
-0.766388
 21
-49.6287
  0
LINE
  8
0
 10
-0.766388
 20
-49.6287
 11
-0.867142
 21
-49.5773
  0
LINE
  8
0
 10
-0.867142
 20
-49.5773
 11
-0.964478
 21
-49.5198
  0
LINE
  8
0
 10
-0.964478
 20
-49.5198
 11
-1.058
 21
-49.4562
  0
LINE
  8
0
 10
-1.058
 20
-49.4562
 11
-1.14735
 21
-49.3869
  0
LINE
  8
0
 10
-1.14735
 20
-49.3869
 11
-1.23218
 21
-49.3121
  0
LINE
  8
0
 10
-1.23218
 20
-49.3121
 11
-1.31213
 21
-49.2322
  0
LINE
  8
0
 10
-1.31213
 20
-49.2322
 11
-1.38692
 21
-49.1474
  0
LINE
  8
0
 10
-1.38692
 20
-49.1474
 11
-1.45622
 21
-49.058
  0
LINE
  8
0
 10
-1.45622
 20
-49.058
 11
-1.51978
 21
-48.9645
  0
LINE
  8
0
 10
-1.51978
 20
-48.9645
 11
-1.57735
 21
-48.8671
  0
LINE
  8
0
 10
-1.57735
 20
-48.8671
 11
-1.62868
 21
-48.7664
  0
LINE
  8
0
 10
-1.62868
 20
-48.7664
 11
-1.67358
 21
-48.6626
  0
LINE
  8
0
 10
-1.67358
 20
-48.6626
 11
-1.7119
 21
-48.5562
  0
LINE
  8
0
 10
-1.7119
 20
-48.5562
 11
-1.74344
 21
-48.4476
  0
LINE
  8
0
 10
-1.74344
 20
-48.4476
 11
-1.76811
 21
-48.3373
  0
LINE
  8
0
 10
-1.76811
 20
-48.3373
 11
-1.7858
 21
-48.2256
  0
LINE
  8
0
 10
-1.7858
 20
-48.2256
 11
-1.79645
 21
-48.113
  0
LINE
  8
0
 10
-1.79645
 20
-48.113
 11
-1.79999
 21
-48
  0
LINE
  8
0
 10
-1.79999
 20
-48
 11
-1.79645
 21
-47.887
  0
LINE
  8
0
 10
-1.79645
 20
-47.887
 11
-1.7858
 21
-47.7744
  0
LINE
  8
0
 10
-1.7858
 20
-47.7744
 11
-1.76811
 21
-47.6627
  0
LINE
  8
0
 10
-1.76811
 20
-47.6627
 11
-1.74344
 21
-47.5524
  0
LINE
  8
0
 10
-1.74344
 20
-47.5524
 11
-1.7119
 21
-47.4438
  0
LINE
  8
0
 10
-1.7119
 20
-47.4438
 11
-1.67358
 21
-47.3374
  0
LINE
  8
0
 10
-1.67358
 20
-47.3374
 11
-1.62868
 21
-47.2336
  0
LINE
  8
0
 10
-1.62868
 20
-47.2336
 11
-1.57735
 21
-47.1328
  0
LINE
  8
0
 10
-1.57735
 20
-47.1328
 11
-1.51978
 21
-47.0355
  0
LINE
  8
0
 10
-1.51978
 20
-47.0355
 11
-1.45622
 21
-46.942
  0
LINE
  8
0
 10
-1.45622
 20
-46.942
 11
-1.38692
 21
-46.8526
  0
LINE
  8
0
 10
-1.38692
 20
-46.8526
 11
-1.31213
 21
-46.7678
  0
LINE
  8
0
 10
-1.31213
 20
-46.7678
 11
-1.23218
 21
-46.6879
  0
LINE
  8
0
 10
-1.23218
 20
-46.6879
 11
-1.14735
 21
-46.6131
  0
LINE
  8
0
 10
-1.14735
 20
-46.6131
 11
-1.058
 21
-46.5438
  0
LINE
  8
0
 10
-1.058
 20
-46.5438
 11
-0.964478
 21
-46.4802
  0
LINE
  8
0
 10
-0.964478
 20
-46.4802
 11
-0.867142
 21
-46.4226
  0
LINE
  8
0
 10
-0.867142
 20
-46.4226
 11
-0.766388
 21
-46.3713
  0
LINE
  8
0
 10
-0.766388
 20
-46.3713
 11
-0.662613
 21
-46.3264
  0
LINE
  8
0
 10
-0.662613
 20
-46.3264
 11
-0.556229
 21
-46.2881
  0
LINE
  8
0
 10
-0.556229
 20
-46.2881
 11
-0.447632
 21
-46.2565
  0
LINE
  8
0
 10
-0.447632
 20
-46.2565
 11
-0.33728
 21
-46.2319
  0
LINE
  8
0
 10
-0.33728
 20
-46.2319
 11
-0.225586
 21
-46.2142
  0
LINE
  8
0
 10
-0.225586
 20
-46.2142
 11
-0.113022
 21
-46.2035
  0
LINE
  8
0
 10
-0.113022
 20
-46.2035
 11
0
 21
-46.2
  0
LINE
  8
0
 10
0
 20
-46.2
 11
0.113022
 21
-46.2035
  0
LINE
  8
0
 10
0.113022
 20
-46.2035
 11
0.225586
 21
-46.2142
  0
LINE
  8
0
 10
0.225586
 20
-46.2142
 11
0.33728
 21
-46.2319
  0
LINE
  8
0
 10
0.33728
 20
-46.2319
 11
0.447632
 21
-46.2565
  0
LINE
  8
0
 10
0.447632
 20
-46.2565
 11
0.556229
 21
-46.2881
  0
LINE
  8
0
 10
0.556229
 20
-46.2881
 11
0.662613
 21
-46.3264
  0
LINE
  8
0
 10
0.662613
 20
-46.3264
 11
0.766388
 21
-46.3713
  0
LINE
  8
0
 10
0.766388
 20
-46.3713
 11
0.867142
 21
-46.4226
  0
LINE
  8
0
 10
0.867142
 20
-46.4226
 11
0.964478
 21
-46.4802
  0
LINE
  8
0
 10
0.964478
 20
-46.4802
 11
1.058
 21
-46.5438
  0
LINE
  8
0
 10
1.058
 20
-46.5438
 11
1.14735
 21
-46.6131
  0
LINE
  8
0
 10
1.14735
 20
-46.6131
 11
1.23218
 21
-46.6879
  0
LINE
  8
0
 10
1.23218
 20
-46.6879
 11
1.31213
 21
-46.7678
  0
LINE
  8
0
 10
1.31213
 20
-46.7678
 11
1.38692
 21
-46.8526
  0
LINE
  8
0
 10
1.38692
 20
-46.8526
 11
1.45622
 21
-46.942
  0
LINE
  8
0
 10
1.45622
 20
-46.942
 11
1.51978
 21
-47.0355
  0
LINE
  8
0
 10
1.51978
 20
-47.0355
 11
1.57735
 21
-47.1328
  0
LINE
  8
0
 10
1.57735
 20
-47.1328
 11
1.62868
 21
-47.2336
  0
LINE
  8
0
 10
1.62868
 20
-47.2336
 11
1.67358
 21
-47.3374
  0
LINE
  8
0
 10
1.67358
 20
-47.3374
 11
1.7119
 21
-47.4438
  0
LINE
  8
0
 10
1.7119
 20
-47.4438
 11
1.74344
 21
-47.5524
  0
LINE
  8
0
 10
1.74344
 20
-47.5524
 11
1.76811
 21
-47.6627
  0
LINE
  8
0
 10
1.76811
 20
-47.6627
 11
1.7858
 21
-47.7744
  0
LINE
  8
0
 10
1.7858
 20
-47.7744
 11
1.79645
 21
-47.887
  0
LINE
  8
0
 10
1.79645
 20
-47.887
 11
1.79999
 21
-48
  0
LINE
  8
0
 10
1.79999
 20
-48
 11
1.79645
 21
-48.113
  0
LINE
  8
0
 10
1.79645
 20
-48.113
 11
1.7858
 21
-48.2256
  0
LINE
  8
0
 10
1.7858
 20
-48.2256
 11
1.76811
 21
-48.3373
  0
LINE
  8
0
 10
1.76811
 20
-48.3373
 11
1.74344
 21
-48.4476
  0
LINE
  8
0
 10
1.74344
 20
-48.4476
 11
1.7119
 21
-48.5562
  0
LINE
  8
0
 10
1.7119
 20
-48.5562
 11
1.67358
 21
-48.6626
  0
LINE
  8
0
 10
1.67358
 20
-48.6626
 11
1.62868
 21
-48.7664
  0
LINE
  8
0
 10
1.62868
 20
-48.7664
 11
1.57735
 21
-48.8671
  0
LINE
  8
0
 10
1.57735
 20
-48.8671
 11
1.51978
 21
-48.9645
  0
LINE
  8
0
 10
1.51978
 20
-48.9645
 11
1.45622
 21
-49.058
  0
LINE
  8
0
 10
1.45622
 20
-49.058
 11
1.38692
 21
-49.1474
  0
LINE
  8
0
 10
1.38692
 20
-49.1474
 11
1.31213
 21
-49.2322
  0
LINE
  8
0
 10
1.31213
 20
-49.2322
 11
1.23218
 21
-49.3121
  0
LINE
  8
0
 10
1.23218
 20
-49.3121
 11
1.14735
 21
-49.3869
  0
LINE
  8
0
 10
1.14735
 20
-49.3869
 11
1.058
 21
-49.4562
  0
LINE
  8
0
 10
1.058
 20
-49.4562
 11
0.964478
 21
-49.5198
  0
LINE
  8
0
 10
0.964478
 20
-49.5198
 11
0.867142
 21
-49.5773
  0
LINE
  8
0
 10
0.867142
 20
-49.5773
 11
0.766388
 21
-49.6287
  0
LINE
  8
0
 10
0.766388
 20
-49.6287
 11
0.662613
 21
-49.6736
  0
LINE
  8
0
 10
0.662613
 20
-49.6736
 11
0.556229
 21
-49.7119
  0
LINE
  8
0
 10
0.556229
 20
-49.7119
 11
0.447632
 21
-49.7434
  0
LINE
  8
0
 10
0.447632
 20
-49.7434
 11
0.33728
 21
-49.7681
  0
LINE
  8
0
 10
0.33728
 20
-49.7681
 11
0.225586
 21
-49.7858
  0
LINE
  8
0
 10
0.225586
 20
-49.7858
 11
0.113022
 21
-49.7964
  0
LINE
  8
0
 10
0.113022
 20
-49.7964
 11
0
 21
-49.8
  0
LINE
  8
0
 10
0
 20
-49.8
 11
-0.113022
 21
-49.7964
  0
ENDSEC
  0
SECTION
  2
OBJECTS
  0
DICTIONARY
  0
ENDSEC
  0
EOF
