  0
SECTION
  2
HEADER
  9
$ACADVER
  1
AC1014
  9
$HANDSEED
  5
FFFF
  9
$MEASUREMENT
 70
     1
  0
ENDSEC
  0
SECTION
  2
TABLES
  0
TABLE
  2
VPORT
  5
8
330
0
100
AcDbSymbolTable
 70
     4
  0
VPORT
  5
2E
330
8
100
AcDbSymbolTableRecord
100
AcDbViewportTableRecord
  2
*ACTIVE
 70
     0
 10
0.0
 20
0.0
 11
1.0
 21
1.0
 12
210.0
 22
148.5
 13
0.0
 23
0.0
 14
10.0
 24
10.0
 15
10.0
 25
10.0
 16
0.0
 26
0.0
 36
1.0
 17
0.0
 27
0.0
 37
0.0
 40
341.0
 41
1.24
 42
50.0
 43
0.0
 44
0.0
 50
0.0
 51
0.0
 71
     0
 72
   100
 73
     1
 74
     3
 75
     0
 76
     0
 77
     0
 78
     0
  0
ENDTAB
  0
TABLE
  2
LTYPE
  5
5
330
0
100
AcDbSymbolTable
 70
     1
  0
LTYPE
  5
14
330
5
100
AcDbSymbolTableRecord
100
AcDbLinetypeTableRecord
  2
BYBLOCK
 70
     0
  3

 72
    65
 73
     0
 40
0.0
  0
LTYPE
  5
15
330
5
100
AcDbSymbolTableRecord
100
AcDbLinetypeTableRecord
  2
BYLAYER
 70
     0
  3

 72
    65
 73
     0
 40
0.0
  0
LTYPE
  5
16
330
5
100
AcDbSymbolTableRecord
100
AcDbLinetypeTableRecord
  2
CONTINUOUS
 70
     0
  3
Solid line
 72
    65
 73
     0
 40
0.0
  0
ENDTAB
  0
TABLE
  2
LAYER
  5
2
100
AcDbSymbolTable
 70
2
  0
LAYER
  5
50
100
AcDbSymbolTableRecord
100
AcDbLayerTableRecord
  2
0
 70
0
  6
CONTINUOUS
  0
LAYER
  5
51
100
AcDbSymbolTableRecord
100
AcDbLayerTableRecord
  2
Layer_1
 70
0
  6
CONTINUOUS
  0
ENDTAB
  0
TABLE
  2
STYLE
  5
3
330
0
100
AcDbSymbolTable
 70
     1
  0
STYLE
  5
11
330
3
100
AcDbSymbolTableRecord
100
AcDbTextStyleTableRecord
  2
STANDARD
 70
     0
 40
0.0
 41
1.0
 50
0.0
 71
     0
 42
2.5
  3
txt
  4

  0
ENDTAB
  0
TABLE
  2
VIEW
  5
6
330
0
100
AcDbSymbolTable
 70
     0
  0
ENDTAB
  0
TABLE
  2
UCS
  5
7
330
0
100
AcDbSymbolTable
 70
     0
  0
ENDTAB
  0
TABLE
  2
APPID
  5
9
330
0
100
AcDbSymbolTable
 70
     2
  0
APPID
  5
12
330
9
100
AcDbSymbolTableRecord
100
AcDbRegAppTableRecord
  2
ACAD
 70
     0
  0
ENDTAB
  0
TABLE
  2
DIMSTYLE
  5
A
330
0
100
AcDbSymbolTable
 70
     1
  0
DIMSTYLE
105
27
330
A
100
AcDbSymbolTableRecord
100
AcDbDimStyleTableRecord
  2
ISO-25
 70
     0
  3

  4

  5

  6

  7

 40
1.0
 41
2.5
 42
0.625
 43
3.75
 44
1.25
 45
0.0
 46
0.0
 47
0.0
 48
0.0
140
2.5
141
2.5
142
0.0
143
0.03937007874016
144
1.0
145
0.0
146
1.0
147
0.625
 71
     0
 72
     0
 73
     0
 74
     0
 75
     0
 76
     0
 77
     1
 78
     8
170
     0
171
     3
172
     1
173
     0
174
     0
175
     0
176
     0
177
     0
178
     0
270
     2
271
     2
272
     2
273
     2
274
     3
340
11
275
     0
280
     0
281
     0
282
     0
283
     0
284
     8
285
     0
286
     0
287
     3
288
     0
  0
ENDTAB
  0
TABLE
  2
BLOCK_RECORD
  5
1
330
0
100
AcDbSymbolTable
 70
     1
  0
BLOCK_RECORD
  5
1F
330
1
100
AcDbSymbolTableRecord
100
AcDbBlockTableRecord
  2
*MODEL_SPACE
  0
BLOCK_RECORD
  5
1B
330
1
100
AcDbSymbolTableRecord
100
AcDbBlockTableRecord
  2
*PAPER_SPACE
  0
ENDTAB
  0
ENDSEC
  0
SECTION
  2
BLOCKS
  0
BLOCK
  5
20
330
1F
100
AcDbEntity
  8
0
100
AcDbBlockBegin
  2
*MODEL_SPACE
 70
     0
 10
0.0
 20
0.0
 30
0.0
  3
*MODEL_SPACE
  1

  0
ENDBLK
  5
21
330
1F
100
AcDbEntity
  8
0
100
AcDbBlockEnd
  0
BLOCK
  5
1C
330
1B
100
AcDbEntity
 67
     1
  8
0
100
AcDbBlockBegin
  2
*PAPER_SPACE
  1

  0
ENDBLK
  5
1D
330
1B
100
AcDbEntity
 67
     1
  8
0
100
AcDbBlockEnd
  0
ENDSEC
  0
SECTION
  2
ENTITIES
  0
LINE
  5
100
100
AcDbEntity
  8
Layer_1
 62
7
100
AcDbLine
 10
0.141111
 20
125.141102
 30
0.0
 11
0.141111
 21
0.141104
 31
0.0
  0
LINE
  5
101
100
AcDbEntity
  8
Layer_1
 62
7
100
AcDbLine
 10
0.141111
 20
0.141104
 30
0.0
 11
108.141115
 21
0.141104
 31
0.0
  0
LINE
  5
102
100
AcDbEntity
  8
Layer_1
 62
7
100
AcDbLine
 10
108.141115
 20
0.141104
 30
0.0
 11
108.141115
 21
125.141102
 31
0.0
  0
LINE
  5
103
100
AcDbEntity
  8
Layer_1
 62
7
100
AcDbLine
 10
108.141115
 20
125.141102
 30
0.0
 11
0.141111
 21
125.141102
 31
0.0
  0
SPLINE
  5
104
100
AcDbEntity
  8
Layer_1
 62
7
100
AcDbSpline
 70
0
 71
3
 72
10
 73
6
 74
4
 40
0.000000
 40
0.000000
 40
0.000000
 40
0.000000
 40
0.736944
 40
1.473712
 40
2.210652
 40
2.210652
 40
2.210652
 40
2.210652
 10
6.141110
 20
3.841102
 30
0.0
 10
5.894867
 20
3.871535
 30
0.0
 10
5.402439
 20
3.932394
 30
0.0
 10
4.768634
 20
4.383494
 30
0.0
 10
4.549842
 20
4.828823
 30
0.0
 10
4.440434
 20
5.051514
 30
0.0
 11
6.141110
 21
3.841102
 31
0.0
 11
5.419861
 21
3.992381
 31
0.0
 11
4.819603
 21
4.419603
 31
0.0
 11
4.440434
 21
5.051514
 31
0.0
  0
SPLINE
  5
105
100
AcDbEntity
  8
Layer_1
 62
7
100
AcDbSpline
 70
0
 71
3
 72
10
 73
6
 74
4
 40
0.000000
 40
0.000000
 40
0.000000
 40
0.000000
 40
0.736907
 40
1.473646
 40
2.210560
 40
2.210560
 40
2.210560
 40
2.210560
 10
4.440434
 20
5.051514
 30
0.0
 10
4.388511
 20
5.294125
 30
0.0
 10
4.284678
 20
5.779293
 30
0.0
 10
4.503264
 20
6.525875
 30
0.0
 10
4.852360
 20
6.878440
 30
0.0
 10
5.026928
 20
7.054744
 30
0.0
 11
4.440434
 21
5.051514
 31
0.0
 11
4.347068
 21
5.782482
 31
0.0
 11
4.554079
 21
6.489540
 31
0.0
 11
5.026928
 21
7.054744
 31
0.0
  0
SPLINE
  5
106
100
AcDbEntity
  8
Layer_1
 62
7
100
AcDbSpline
 70
0
 71
3
 72
10
 73
6
 74
4
 40
0.000000
 40
0.000000
 40
0.000000
 40
0.000000
 40
0.736901
 40
1.473642
 40
2.210542
 40
2.210542
 40
2.210542
 40
2.210542
 10
5.026928
 20
7.054744
 30
0.0
 10
5.239133
 20
7.183289
 30
0.0
 10
5.663497
 20
7.440350
 30
0.0
 10
6.440490
 20
7.478459
 30
0.0
 10
6.887950
 20
7.264098
 30
0.0
 10
7.111704
 20
7.156906
 30
0.0
 11
5.026928
 21
7.054744
 31
0.0
 11
5.686952
 21
7.382451
 31
0.0
 11
6.422809
 21
7.418527
 31
0.0
 11
7.111704
 21
7.156906
 31
0.0
  0
SPLINE
  5
107
100
AcDbEntity
  8
Layer_1
 62
7
100
AcDbSpline
 70
0
 71
3
 72
10
 73
6
 74
4
 40
0.000000
 40
0.000000
 40
0.000000
 40
0.000000
 40
0.736874
 40
1.473606
 40
2.210479
 40
2.210479
 40
2.210479
 40
2.210479
 10
7.111704
 20
7.156906
 30
0.0
 10
7.302668
 20
6.998532
 30
0.0
 10
7.684561
 20
6.681815
 30
0.0
 10
7.975148
 20
5.960223
 30
0.0
 10
7.919217
 20
5.467241
 30
0.0
 10
7.891249
 20
5.220726
 30
0.0
 11
7.111704
 21
7.156906
 31
0.0
 11
7.637545
 21
6.640694
 31
0.0
 11
7.912729
 21
5.957285
 31
0.0
 11
7.891249
 21
5.220726
 31
0.0
  0
LINE
  5
108
100
AcDbEntity
  8
Layer_1
 62
7
100
AcDbLine
 10
6.141110
 20
3.841102
 30
0.0
 11
6.141110
 21
3.841102
 31
0.0
  0
SPLINE
  5
109
100
AcDbEntity
  8
Layer_1
 62
7
100
AcDbSpline
 70
0
 71
3
 72
13
 73
9
 74
7
 40
0.000000
 40
0.000000
 40
0.000000
 40
0.000000
 40
0.736869
 40
1.473616
 40
2.210488
 40
2.269322
 40
2.328156
 40
2.386991
 40
2.386991
 40
2.386991
 40
2.386991
 10
7.891249
 20
5.220726
 30
0.0
 10
7.804280
 20
4.987253
 30
0.0
 10
7.630357
 20
4.520345
 30
0.0
 10
7.042392
 20
4.026782
 30
0.0
 10
6.542622
 20
3.867953
 30
0.0
 10
6.258720
 20
3.844720
 30
0.0
 10
6.199947
 20
3.841672
 30
0.0
 10
6.160723
 20
3.841292
 30
0.0
 10
6.141110
 20
3.841102
 30
0.0
 11
7.891249
 21
5.220726
 31
0.0
 11
7.575823
 21
4.554781
 31
0.0
 11
7.020275
 21
4.070878
 31
0.0
 11
6.317333
 21
3.849851
 31
0.0
 11
6.258698
 21
3.845012
 31
0.0
 11
6.199937
 21
3.842085
 31
0.0
 11
6.141110
 21
3.841102
 31
0.0
  0
SPLINE
  5
10a
100
AcDbEntity
  8
Layer_1
 62
7
100
AcDbSpline
 70
0
 71
3
 72
10
 73
6
 74
4
 40
0.000000
 40
0.000000
 40
0.000000
 40
0.000000
 40
0.736944
 40
1.473712
 40
2.210652
 40
2.210652
 40
2.210652
 40
2.210652
 10
6.141110
 20
32.341102
 30
0.0
 10
5.894867
 20
32.371535
 30
0.0
 10
5.402439
 20
32.432394
 30
0.0
 10
4.768634
 20
32.883494
 30
0.0
 10
4.549842
 20
33.328823
 30
0.0
 10
4.440434
 20
33.551513
 30
0.0
 11
6.141110
 21
32.341102
 31
0.0
 11
5.419861
 21
32.492381
 31
0.0
 11
4.819603
 21
32.919602
 31
0.0
 11
4.440434
 21
33.551513
 31
0.0
  0
SPLINE
  5
10b
100
AcDbEntity
  8
Layer_1
 62
7
100
AcDbSpline
 70
0
 71
3
 72
10
 73
6
 74
4
 40
0.000000
 40
0.000000
 40
0.000000
 40
0.000000
 40
0.736907
 40
1.473646
 40
2.210560
 40
2.210560
 40
2.210560
 40
2.210560
 10
4.440434
 20
33.551513
 30
0.0
 10
4.388511
 20
33.794125
 30
0.0
 10
4.284678
 20
34.279292
 30
0.0
 10
4.503264
 20
35.025874
 30
0.0
 10
4.852360
 20
35.378440
 30
0.0
 10
5.026928
 20
35.554744
 30
0.0
 11
4.440434
 21
33.551513
 31
0.0
 11
4.347068
 21
34.282481
 31
0.0
 11
4.554079
 21
34.989540
 31
0.0
 11
5.026928
 21
35.554744
 31
0.0
  0
SPLINE
  5
10c
100
AcDbEntity
  8
Layer_1
 62
7
100
AcDbSpline
 70
0
 71
3
 72
10
 73
6
 74
4
 40
0.000000
 40
0.000000
 40
0.000000
 40
0.000000
 40
0.736901
 40
1.473642
 40
2.210542
 40
2.210542
 40
2.210542
 40
2.210542
 10
5.026928
 20
35.554744
 30
0.0
 10
5.239133
 20
35.683288
 30
0.0
 10
5.663497
 20
35.940349
 30
0.0
 10
6.440490
 20
35.978458
 30
0.0
 10
6.887950
 20
35.764097
 30
0.0
 10
7.111704
 20
35.656905
 30
0.0
 11
5.026928
 21
35.554744
 31
0.0
 11
5.686952
 21
35.882451
 31
0.0
 11
6.422809
 21
35.918527
 31
0.0
 11
7.111704
 21
35.656905
 31
0.0
  0
SPLINE
  5
10d
100
AcDbEntity
  8
Layer_1
 62
7
100
AcDbSpline
 70
0
 71
3
 72
10
 73
6
 74
4
 40
0.000000
 40
0.000000
 40
0.000000
 40
0.000000
 40
0.736874
 40
1.473605
 40
2.210476
 40
2.210476
 40
2.210476
 40
2.210476
 10
7.111704
 20
35.656905
 30
0.0
 10
7.302668
 20
35.498531
 30
0.0
 10
7.684561
 20
35.181815
 30
0.0
 10
7.975148
 20
34.460224
 30
0.0
 10
7.919217
 20
33.967242
 30
0.0
 10
7.891249
 20
33.720728
 30
0.0
 11
7.111704
 21
35.656905
 31
0.0
 11
7.637545
 21
35.140694
 31
0.0
 11
7.912729
 21
34.457286
 31
0.0
 11
7.891249
 21
33.720728
 31
0.0
  0
LINE
  5
10e
100
AcDbEntity
  8
Layer_1
 62
7
100
AcDbLine
 10
6.141110
 20
32.341102
 30
0.0
 11
6.141110
 21
32.341102
 31
0.0
  0
SPLINE
  5
10f
100
AcDbEntity
  8
Layer_1
 62
7
100
AcDbSpline
 70
0
 71
3
 72
13
 73
9
 74
7
 40
0.000000
 40
0.000000
 40
0.000000
 40
0.000000
 40
0.736872
 40
1.473619
 40
2.210491
 40
2.269325
 40
2.328160
 40
2.386994
 40
2.386994
 40
2.386994
 40
2.386994
 10
7.891249
 20
33.720728
 30
0.0
 10
7.804281
 20
33.487254
 30
0.0
 10
7.630359
 20
33.020345
 30
0.0
 10
7.042392
 20
32.526781
 30
0.0
 10
6.542622
 20
32.367953
 30
0.0
 10
6.258720
 20
32.344719
 30
0.0
 10
6.199947
 20
32.341671
 30
0.0
 10
6.160723
 20
32.341291
 30
0.0
 10
6.141110
 20
32.341102
 30
0.0
 11
7.891249
 21
33.720728
 31
0.0
 11
7.575824
 21
33.054780
 31
0.0
 11
7.020275
 21
32.570877
 31
0.0
 11
6.317333
 21
32.349851
 31
0.0
 11
6.258698
 21
32.345011
 31
0.0
 11
6.199937
 21
32.342084
 31
0.0
 11
6.141110
 21
32.341102
 31
0.0
  0
SPLINE
  5
110
100
AcDbEntity
  8
Layer_1
 62
7
100
AcDbSpline
 70
0
 71
3
 72
10
 73
6
 74
4
 40
0.000000
 40
0.000000
 40
0.000000
 40
0.000000
 40
0.694089
 40
1.387944
 40
2.082171
 40
2.082171
 40
2.082171
 40
2.082171
 10
4.684911
 20
118.583102
 30
0.0
 10
4.570872
 20
118.786750
 30
0.0
 10
4.342831
 20
119.193979
 30
0.0
 10
4.310248
 20
119.921372
 30
0.0
 10
4.500023
 20
120.347743
 30
0.0
 10
4.594936
 20
120.560986
 30
0.0
 11
4.684911
 21
118.583102
 31
0.0
 11
4.394390
 21
119.213464
 31
0.0
 11
4.363100
 21
119.906614
 31
0.0
 11
4.594936
 21
120.560986
 31
0.0
  0
SPLINE
  5
111
100
AcDbEntity
  8
Layer_1
 62
7
100
AcDbSpline
 70
0
 71
3
 72
10
 73
6
 74
4
 40
0.000000
 40
0.000000
 40
0.000000
 40
0.000000
 40
0.690027
 40
1.379780
 40
2.069559
 40
2.069559
 40
2.069559
 40
2.069559
 10
4.594936
 20
120.560986
 30
0.0
 10
4.736044
 20
120.745064
 30
0.0
 10
5.018202
 20
121.113149
 30
0.0
 10
5.667615
 20
121.432340
 30
0.0
 10
6.131578
 20
121.427236
 30
0.0
 10
6.363564
 20
121.424684
 30
0.0
 11
4.594936
 21
120.560986
 31
0.0
 11
5.055975
 21
121.074387
 31
0.0
 11
5.675376
 21
121.377870
 31
0.0
 11
6.363564
 21
121.424684
 31
0.0
  0
SPLINE
  5
112
100
AcDbEntity
  8
Layer_1
 62
7
100
AcDbSpline
 70
0
 71
3
 72
10
 73
6
 74
4
 40
0.000000
 40
0.000000
 40
0.000000
 40
0.000000
 40
0.735841
 40
1.472094
 40
2.207955
 40
2.207955
 40
2.207955
 40
2.207955
 10
6.363564
 20
121.424684
 30
0.0
 10
6.603889
 20
121.364476
 30
0.0
 10
7.084673
 20
121.244026
 30
0.0
 10
7.657470
 20
120.718565
 30
0.0
 10
7.818413
 20
120.249731
 30
0.0
 10
7.898864
 20
120.015377
 30
0.0
 11
6.363564
 21
121.424684
 31
0.0
 11
7.059830
 21
121.186620
 31
0.0
 11
7.602303
 21
120.688833
 31
0.0
 11
7.898864
 21
120.015377
 31
0.0
  0
SPLINE
  5
113
100
AcDbEntity
  8
Layer_1
 62
7
100
AcDbSpline
 70
0
 71
3
 72
10
 73
6
 74
4
 40
0.000000
 40
0.000000
 40
0.000000
 40
0.000000
 40
0.747353
 40
1.495171
 40
2.242571
 40
2.242571
 40
2.242571
 40
2.242571
 10
7.898864
 20
120.015377
 30
0.0
 10
7.920726
 20
119.764598
 30
0.0
 10
7.964465
 20
119.262885
 30
0.0
 10
7.643032
 20
118.540298
 30
0.0
 10
7.241135
 20
118.236784
 30
0.0
 10
7.040242
 20
118.085070
 30
0.0
 11
7.898864
 21
120.015377
 31
0.0
 11
7.899980
 21
119.268025
 31
0.0
 11
7.596050
 21
118.584755
 31
0.0
 11
7.040242
 21
118.085070
 31
0.0
  0
SPLINE
  5
114
100
AcDbEntity
  8
Layer_1
 62
7
100
AcDbSpline
 70
0
 71
3
 72
10
 73
6
 74
4
 40
0.000000
 40
0.000000
 40
0.000000
 40
0.000000
 40
0.734900
 40
1.470123
 40
2.205183
 40
2.205183
 40
2.205183
 40
2.205183
 10
7.040242
 20
118.085070
 30
0.0
 10
6.812647
 20
117.987899
 30
0.0
 10
6.357357
 20
117.793515
 30
0.0
 10
5.584641
 20
117.866823
 30
0.0
 10
5.173191
 20
118.141963
 30
0.0
 10
4.967489
 20
118.279518
 30
0.0
 11
7.040242
 21
118.085070
 31
0.0
 11
6.342500
 21
117.854345
 31
0.0
 11
5.610527
 21
117.923407
 31
0.0
 11
4.967489
 21
118.279518
 31
0.0
  0
LINE
  5
115
100
AcDbEntity
  8
Layer_1
 62
7
100
AcDbLine
 10
4.684911
 20
118.583102
 30
0.0
 11
4.684911
 21
118.583102
 31
0.0
  0
SPLINE
  5
116
100
AcDbEntity
  8
Layer_1
 62
7
100
AcDbSpline
 70
0
 71
3
 72
10
 73
6
 74
4
 40
0.000000
 40
0.000000
 40
0.000000
 40
0.000000
 40
0.138563
 40
0.277113
 40
0.415651
 40
0.415651
 40
0.415651
 40
0.415651
 10
4.967489
 20
118.279518
 30
0.0
 10
4.933009
 20
118.310261
 30
0.0
 10
4.864051
 20
118.371743
 30
0.0
 10
4.768651
 20
118.472636
 30
0.0
 10
4.712824
 20
118.546281
 30
0.0
 10
4.684911
 20
118.583102
 30
0.0
 11
4.967489
 21
118.279518
 31
0.0
 11
4.865387
 21
118.373192
 31
0.0
 11
4.770591
 21
118.474235
 31
0.0
 11
4.684911
 21
118.583102
 31
0.0
  0
SPLINE
  5
117
100
AcDbEntity
  8
Layer_1
 62
7
100
AcDbSpline
 70
0
 71
3
 72
10
 73
6
 74
4
 40
0.000000
 40
0.000000
 40
0.000000
 40
0.000000
 40
0.736943
 40
1.473707
 40
2.210647
 40
2.210647
 40
2.210647
 40
2.210647
 10
4.684911
 20
90.083102
 30
0.0
 10
4.564776
 20
90.300196
 30
0.0
 10
4.324534
 20
90.734330
 30
0.0
 10
4.316913
 20
91.512247
 30
0.0
 10
4.548614
 20
91.950999
 30
0.0
 10
4.664479
 20
92.170401
 30
0.0
 11
4.684911
 21
90.083102
 31
0.0
 11
4.383310
 21
90.755502
 31
0.0
 11
4.376095
 21
91.492231
 31
0.0
 11
4.664479
 21
92.170401
 31
0.0
  0
SPLINE
  5
118
100
AcDbEntity
  8
Layer_1
 62
7
100
AcDbSpline
 70
0
 71
3
 72
10
 73
6
 74
4
 40
0.000000
 40
0.000000
 40
0.000000
 40
0.000000
 40
0.736910
 40
1.473650
 40
2.210555
 40
2.210555
 40
2.210555
 40
2.210555
 10
4.664479
 20
92.170401
 30
0.0
 10
4.830240
 20
92.355006
 30
0.0
 10
5.161723
 20
92.724172
 30
0.0
 10
5.894173
 20
92.986233
 30
0.0
 10
6.384600
 20
92.911043
 30
0.0
 10
6.629840
 20
92.873445
 30
0.0
 11
4.664479
 21
92.170401
 31
0.0
 11
5.200970
 21
92.675587
 31
0.0
 11
5.894655
 21
92.923755
 31
0.0
 11
6.629840
 21
92.873445
 31
0.0
  0
SPLINE
  5
119
100
AcDbEntity
  8
Layer_1
 62
7
100
AcDbSpline
 70
0
 71
3
 72
10
 73
6
 74
4
 40
0.000000
 40
0.000000
 40
0.000000
 40
0.000000
 40
0.736908
 40
1.473662
 40
2.210569
 40
2.210569
 40
2.210569
 40
2.210569
 10
6.629840
 20
92.873445
 30
0.0
 10
6.858561
 20
92.777308
 30
0.0
 10
7.315954
 20
92.585054
 30
0.0
 10
7.803496
 20
91.978861
 30
0.0
 10
7.893122
 20
91.490862
 30
0.0
 10
7.937940
 20
91.246837
 30
0.0
 11
6.629840
 21
92.873445
 31
0.0
 11
7.282901
 21
92.532057
 31
0.0
 11
7.744627
 21
91.957936
 31
0.0
 11
7.937940
 21
91.246837
 31
0.0
  0
SPLINE
  5
11a
100
AcDbEntity
  8
Layer_1
 62
7
100
AcDbSpline
 70
0
 71
3
 72
10
 73
6
 74
4
 40
0.000000
 40
0.000000
 40
0.000000
 40
0.000000
 40
0.736880
 40
1.473623
 40
2.210507
 40
2.210507
 40
2.210507
 40
2.210507
 10
7.937940
 20
91.246837
 30
0.0
 10
7.922055
 20
90.999250
 30
0.0
 10
7.890288
 20
90.504122
 30
0.0
 10
7.477242
 20
89.844926
 30
0.0
 10
7.045540
 20
89.600394
 30
0.0
 10
6.829668
 20
89.478117
 30
0.0
 11
7.937940
 21
91.246837
 31
0.0
 11
7.829377
 21
90.517998
 31
0.0
 11
7.438190
 21
89.893689
 31
0.0
 11
6.829668
 21
89.478117
 31
0.0
  0
LINE
  5
11b
100
AcDbEntity
  8
Layer_1
 62
7
100
AcDbLine
 10
4.684897
 20
90.083102
 30
0.0
 11
4.684911
 21
90.083102
 31
0.0
  0
SPLINE
  5
11c
100
AcDbEntity
  8
Layer_1
 62
7
100
AcDbSpline
 70
0
 71
3
 72
13
 73
9
 74
7
 40
0.000000
 40
0.000000
 40
0.000000
 40
0.000000
 40
0.736854
 40
1.473580
 40
2.210438
 40
2.269273
 40
2.328109
 40
2.386944
 40
2.386944
 40
2.386944
 40
2.386944
 10
6.829668
 20
89.478117
 30
0.0
 10
6.589673
 20
89.411231
 30
0.0
 10
6.109725
 20
89.277470
 30
0.0
 10
5.364832
 20
89.463069
 30
0.0
 10
4.942644
 20
89.774076
 30
0.0
 10
4.756951
 20
89.990076
 30
0.0
 10
4.719942
 20
90.035837
 30
0.0
 10
4.696579
 20
90.067347
 30
0.0
 10
4.684897
 20
90.083102
 30
0.0
 11
6.829668
 21
89.478117
 31
0.0
 11
6.105525
 21
89.341842
 31
0.0
 11
5.387523
 21
89.506884
 31
0.0
 11
4.795560
 21
89.945677
 31
0.0
 11
4.757175
 21
89.990267
 31
0.0
 11
4.720269
 21
90.036087
 31
0.0
 11
4.684897
 21
90.083102
 31
0.0
  0
SPLINE
  5
11d
100
AcDbEntity
  8
Layer_1
 62
7
100
AcDbSpline
 70
0
 71
3
 72
10
 73
6
 74
4
 40
0.000000
 40
0.000000
 40
0.000000
 40
0.000000
 40
0.736944
 40
1.473712
 40
2.210651
 40
2.210651
 40
2.210651
 40
2.210651
 10
4.684911
 20
61.583103
 30
0.0
 10
4.564774
 20
61.800196
 30
0.0
 10
4.324529
 20
62.234330
 30
0.0
 10
4.316906
 20
63.012250
 30
0.0
 10
4.548612
 20
63.451001
 30
0.0
 10
4.664479
 20
63.670401
 30
0.0
 11
4.684911
 21
61.583103
 31
0.0
 11
4.383305
 21
62.255501
 31
0.0
 11
4.376090
 21
62.992234
 31
0.0
 11
4.664479
 21
63.670401
 31
0.0
  0
SPLINE
  5
11e
100
AcDbEntity
  8
Layer_1
 62
7
100
AcDbSpline
 70
0
 71
3
 72
10
 73
6
 74
4
 40
0.000000
 40
0.000000
 40
0.000000
 40
0.000000
 40
0.736910
 40
1.473649
 40
2.210556
 40
2.210556
 40
2.210556
 40
2.210556
 10
4.664479
 20
63.670401
 30
0.0
 10
4.830236
 20
63.855011
 30
0.0
 10
5.161713
 20
64.224187
 30
0.0
 10
5.894174
 20
64.486221
 30
0.0
 10
6.384599
 20
64.411038
 30
0.0
 10
6.629840
 20
64.373442
 30
0.0
 11
4.664479
 21
63.670401
 31
0.0
 11
5.200963
 21
64.175595
 31
0.0
 11
5.894652
 21
64.423749
 31
0.0
 11
6.629840
 21
64.373442
 31
0.0
  0
SPLINE
  5
11f
100
AcDbEntity
  8
Layer_1
 62
7
100
AcDbSpline
 70
0
 71
3
 72
10
 73
6
 74
4
 40
0.000000
 40
0.000000
 40
0.000000
 40
0.000000
 40
0.736906
 40
1.473661
 40
2.210567
 40
2.210567
 40
2.210567
 40
2.210567
 10
6.629840
 20
64.373442
 30
0.0
 10
6.858562
 20
64.277310
 30
0.0
 10
7.315959
 20
64.085064
 30
0.0
 10
7.803499
 20
63.478867
 30
0.0
 10
7.893123
 20
62.990868
 30
0.0
 10
7.937940
 20
62.746843
 30
0.0
 11
6.629840
 21
64.373442
 31
0.0
 11
7.282904
 21
64.032066
 31
0.0
 11
7.744630
 21
63.457942
 31
0.0
 11
7.937940
 21
62.746843
 31
0.0
  0
SPLINE
  5
120
100
AcDbEntity
  8
Layer_1
 62
7
100
AcDbSpline
 70
0
 71
3
 72
10
 73
6
 74
4
 40
0.000000
 40
0.000000
 40
0.000000
 40
0.000000
 40
0.736885
 40
1.473635
 40
2.210523
 40
2.210523
 40
2.210523
 40
2.210523
 10
7.937940
 20
62.746843
 30
0.0
 10
7.922057
 20
62.499255
 30
0.0
 10
7.890293
 20
62.004123
 30
0.0
 10
7.477249
 20
61.344917
 30
0.0
 10
7.045542
 20
61.100386
 30
0.0
 10
6.829668
 20
60.978109
 30
0.0
 11
7.937940
 21
62.746843
 31
0.0
 11
7.829382
 21
62.017999
 31
0.0
 11
7.438194
 21
61.393681
 31
0.0
 11
6.829668
 21
60.978109
 31
0.0
  0
LINE
  5
121
100
AcDbEntity
  8
Layer_1
 62
7
100
AcDbLine
 10
4.684897
 20
61.583103
 30
0.0
 11
4.684911
 21
61.583103
 31
0.0
  0
SPLINE
  5
122
100
AcDbEntity
  8
Layer_1
 62
7
100
AcDbSpline
 70
0
 71
3
 72
13
 73
9
 74
7
 40
0.000000
 40
0.000000
 40
0.000000
 40
0.000000
 40
0.736853
 40
1.473581
 40
2.210435
 40
2.269272
 40
2.328109
 40
2.386945
 40
2.386945
 40
2.386945
 40
2.386945
 10
6.829668
 20
60.978109
 30
0.0
 10
6.589673
 20
60.911230
 30
0.0
 10
6.109723
 20
60.777485
 30
0.0
 10
5.364827
 20
60.963054
 30
0.0
 10
4.942638
 20
61.274068
 30
0.0
 10
4.756951
 20
61.490073
 30
0.0
 10
4.719942
 20
61.535835
 30
0.0
 10
4.696579
 20
61.567347
 30
0.0
 10
4.684897
 20
61.583103
 30
0.0
 11
6.829668
 21
60.978109
 31
0.0
 11
6.105523
 21
60.841848
 31
0.0
 11
5.387517
 21
61.006877
 31
0.0
 11
4.795560
 21
61.445672
 31
0.0
 11
4.757175
 21
61.490264
 31
0.0
 11
4.720269
 21
61.536086
 31
0.0
 11
4.684897
 21
61.583103
 31
0.0
  0
SPLINE
  5
123
100
AcDbEntity
  8
Layer_1
 62
7
100
AcDbSpline
 70
0
 71
3
 72
10
 73
6
 74
4
 40
0.000000
 40
0.000000
 40
0.000000
 40
0.000000
 40
1.125890
 40
2.251513
 40
3.377403
 40
3.377403
 40
3.377403
 40
3.377403
 10
32.007511
 20
121.415902
 30
0.0
 10
32.284550
 20
121.157170
 30
0.0
 10
32.838563
 20
120.639767
 30
0.0
 10
33.216898
 20
119.513046
 30
0.0
 10
33.087391
 20
118.766141
 30
0.0
 10
33.022630
 20
118.392644
 30
0.0
 11
32.007511
 21
121.415902
 31
0.0
 11
32.763161
 21
120.581263
 31
0.0
 11
33.121461
 21
119.514188
 31
0.0
 11
33.022630
 21
118.392644
 31
0.0
  0
SPLINE
  5
124
100
AcDbEntity
  8
Layer_1
 62
7
100
AcDbSpline
 70
0
 71
3
 72
10
 73
6
 74
4
 40
0.000000
 40
0.000000
 40
0.000000
 40
0.000000
 40
1.125854
 40
2.251452
 40
3.377306
 40
3.377306
 40
3.377306
 40
3.377306
 10
33.022630
 20
118.392644
 30
0.0
 10
32.868930
 20
118.046148
 30
0.0
 10
32.561564
 20
117.353234
 30
0.0
 10
31.620974
 20
116.626701
 30
0.0
 10
30.872874
 20
116.504405
 30
0.0
 10
30.498782
 20
116.443251
 30
0.0
 11
33.022630
 21
118.392644
 31
0.0
 11
32.481593
 21
117.405311
 31
0.0
 11
31.590786
 21
116.717246
 31
0.0
 11
30.498782
 21
116.443251
 31
0.0
  0
SPLINE
  5
125
100
AcDbEntity
  8
Layer_1
 62
7
100
AcDbSpline
 70
0
 71
3
 72
10
 73
6
 74
4
 40
0.000000
 40
0.000000
 40
0.000000
 40
0.000000
 40
1.125825
 40
2.251413
 40
3.377239
 40
3.377239
 40
3.377239
 40
3.377239
 10
30.498782
 20
116.443251
 30
0.0
 10
30.121063
 20
116.474947
 30
0.0
 10
29.365706
 20
116.538332
 30
0.0
 10
28.371132
 20
117.188983
 30
0.0
 10
28.010539
 20
117.855742
 30
0.0
 10
27.830224
 20
118.189156
 30
0.0
 11
30.498782
 21
116.443251
 31
0.0
 11
29.388714
 21
116.630950
 31
0.0
 11
28.446794
 21
117.247176
 31
0.0
 11
27.830224
 21
118.189156
 31
0.0
  0
SPLINE
  5
126
100
AcDbEntity
  8
Layer_1
 62
7
100
AcDbSpline
 70
0
 71
3
 72
10
 73
6
 74
4
 40
0.000000
 40
0.000000
 40
0.000000
 40
0.000000
 40
1.125797
 40
2.251381
 40
3.377182
 40
3.377182
 40
3.377182
 40
3.377182
 10
27.830224
 20
118.189156
 30
0.0
 10
27.736407
 20
118.556400
 30
0.0
 10
27.548791
 20
119.290817
 30
0.0
 10
27.837687
 20
120.443659
 30
0.0
 10
28.349525
 20
121.002767
 30
0.0
 10
28.605469
 20
121.282348
 30
0.0
 11
27.830224
 21
118.189156
 31
0.0
 11
27.643843
 21
119.299418
 31
0.0
 11
27.917465
 21
120.391238
 31
0.0
 11
28.605469
 21
121.282348
 31
0.0
  0
SPLINE
  5
127
100
AcDbEntity
  8
Layer_1
 62
7
100
AcDbSpline
 70
0
 71
3
 72
10
 73
6
 74
4
 40
0.000000
 40
0.000000
 40
0.000000
 40
0.000000
 40
1.125768
 40
2.251342
 40
3.377113
 40
3.377113
 40
3.377113
 40
3.377113
 10
28.605469
 20
121.282348
 30
0.0
 10
28.921688
 20
121.491317
 30
0.0
 10
29.554072
 20
121.909217
 30
0.0
 10
30.737920
 20
122.013984
 30
0.0
 10
31.433843
 20
121.713563
 30
0.0
 10
31.781835
 20
121.563340
 30
0.0
 11
28.605469
 21
121.282348
 31
0.0
 11
29.593340
 21
121.822224
 31
0.0
 11
30.714533
 21
121.921428
 31
0.0
 11
31.781835
 21
121.563340
 31
0.0
  0
LINE
  5
128
100
AcDbEntity
  8
Layer_1
 62
7
100
AcDbLine
 10
32.007511
 20
121.415902
 30
0.0
 11
32.007511
 21
121.415902
 31
0.0
  0
SPLINE
  5
129
100
AcDbEntity
  8
Layer_1
 62
7
100
AcDbSpline
 70
0
 71
3
 72
10
 73
6
 74
4
 40
0.000000
 40
0.000000
 40
0.000000
 40
0.000000
 40
0.089889
 40
0.179778
 40
0.269667
 40
0.269667
 40
0.269667
 40
0.269667
 10
31.781835
 20
121.563340
 30
0.0
 10
31.807546
 20
121.547951
 30
0.0
 10
31.858967
 20
121.517172
 30
0.0
 10
31.934259
 20
121.468008
 30
0.0
 10
31.983094
 20
121.433270
 30
0.0
 10
32.007511
 20
121.415902
 30
0.0
 11
31.781835
 21
121.563340
 31
0.0
 11
31.858661
 21
121.516673
 31
0.0
 11
31.933919
 21
121.467518
 31
0.0
 11
32.007511
 21
121.415902
 31
0.0
  0
SPLINE
  5
12a
100
AcDbEntity
  8
Layer_1
 62
7
100
AcDbSpline
 70
0
 71
3
 72
10
 73
6
 74
4
 40
0.000000
 40
0.000000
 40
0.000000
 40
0.000000
 40
1.125890
 40
2.251513
 40
3.377403
 40
3.377403
 40
3.377403
 40
3.377403
 10
32.007511
 20
8.315902
 30
0.0
 10
32.284550
 20
8.057170
 30
0.0
 10
32.838563
 20
7.539767
 30
0.0
 10
33.216898
 20
6.413047
 30
0.0
 10
33.087391
 20
5.666141
 30
0.0
 10
33.022630
 20
5.292644
 30
0.0
 11
32.007511
 21
8.315902
 31
0.0
 11
32.763161
 21
7.481263
 31
0.0
 11
33.121461
 21
6.414189
 31
0.0
 11
33.022630
 21
5.292644
 31
0.0
  0
SPLINE
  5
12b
100
AcDbEntity
  8
Layer_1
 62
7
100
AcDbSpline
 70
0
 71
3
 72
10
 73
6
 74
4
 40
0.000000
 40
0.000000
 40
0.000000
 40
0.000000
 40
1.125854
 40
2.251452
 40
3.377306
 40
3.377306
 40
3.377306
 40
3.377306
 10
33.022630
 20
5.292644
 30
0.0
 10
32.868930
 20
4.946148
 30
0.0
 10
32.561564
 20
4.253234
 30
0.0
 10
31.620974
 20
3.526702
 30
0.0
 10
30.872874
 20
3.404406
 30
0.0
 10
30.498782
 20
3.343251
 30
0.0
 11
33.022630
 21
5.292644
 31
0.0
 11
32.481593
 21
4.305312
 31
0.0
 11
31.590786
 21
3.617246
 31
0.0
 11
30.498782
 21
3.343251
 31
0.0
  0
SPLINE
  5
12c
100
AcDbEntity
  8
Layer_1
 62
7
100
AcDbSpline
 70
0
 71
3
 72
10
 73
6
 74
4
 40
0.000000
 40
0.000000
 40
0.000000
 40
0.000000
 40
1.125825
 40
2.251413
 40
3.377239
 40
3.377239
 40
3.377239
 40
3.377239
 10
30.498782
 20
3.343251
 30
0.0
 10
30.121063
 20
3.374947
 30
0.0
 10
29.365706
 20
3.438333
 30
0.0
 10
28.371132
 20
4.088983
 30
0.0
 10
28.010539
 20
4.755742
 30
0.0
 10
27.830224
 20
5.089157
 30
0.0
 11
30.498782
 21
3.343251
 31
0.0
 11
29.388714
 21
3.530950
 31
0.0
 11
28.446794
 21
4.147177
 31
0.0
 11
27.830224
 21
5.089157
 31
0.0
  0
SPLINE
  5
12d
100
AcDbEntity
  8
Layer_1
 62
7
100
AcDbSpline
 70
0
 71
3
 72
10
 73
6
 74
4
 40
0.000000
 40
0.000000
 40
0.000000
 40
0.000000
 40
1.125797
 40
2.251381
 40
3.377182
 40
3.377182
 40
3.377182
 40
3.377182
 10
27.830224
 20
5.089157
 30
0.0
 10
27.736407
 20
5.456400
 30
0.0
 10
27.548791
 20
6.190818
 30
0.0
 10
27.837687
 20
7.343659
 30
0.0
 10
28.349525
 20
7.902768
 30
0.0
 10
28.605469
 20
8.182349
 30
0.0
 11
27.830224
 21
5.089157
 31
0.0
 11
27.643843
 21
6.199419
 31
0.0
 11
27.917465
 21
7.291238
 31
0.0
 11
28.605469
 21
8.182349
 31
0.0
  0
SPLINE
  5
12e
100
AcDbEntity
  8
Layer_1
 62
7
100
AcDbSpline
 70
0
 71
3
 72
10
 73
6
 74
4
 40
0.000000
 40
0.000000
 40
0.000000
 40
0.000000
 40
1.125768
 40
2.251342
 40
3.377113
 40
3.377113
 40
3.377113
 40
3.377113
 10
28.605469
 20
8.182349
 30
0.0
 10
28.921688
 20
8.391317
 30
0.0
 10
29.554072
 20
8.809218
 30
0.0
 10
30.737920
 20
8.913984
 30
0.0
 10
31.433843
 20
8.613564
 30
0.0
 10
31.781835
 20
8.463341
 30
0.0
 11
28.605469
 21
8.182349
 31
0.0
 11
29.593340
 21
8.722224
 31
0.0
 11
30.714533
 21
8.821429
 31
0.0
 11
31.781835
 21
8.463341
 31
0.0
  0
LINE
  5
12f
100
AcDbEntity
  8
Layer_1
 62
7
100
AcDbLine
 10
32.007511
 20
8.315902
 30
0.0
 11
32.007511
 21
8.315902
 31
0.0
  0
SPLINE
  5
130
100
AcDbEntity
  8
Layer_1
 62
7
100
AcDbSpline
 70
0
 71
3
 72
10
 73
6
 74
4
 40
0.000000
 40
0.000000
 40
0.000000
 40
0.000000
 40
0.089889
 40
0.179778
 40
0.269667
 40
0.269667
 40
0.269667
 40
0.269667
 10
31.781835
 20
8.463341
 30
0.0
 10
31.807546
 20
8.447951
 30
0.0
 10
31.858967
 20
8.417172
 30
0.0
 10
31.934259
 20
8.368009
 30
0.0
 10
31.983094
 20
8.333271
 30
0.0
 10
32.007511
 20
8.315902
 30
0.0
 11
31.781835
 21
8.463341
 31
0.0
 11
31.858661
 21
8.416673
 31
0.0
 11
31.933919
 21
8.367518
 31
0.0
 11
32.007511
 21
8.315902
 31
0.0
  0
SPLINE
  5
131
100
AcDbEntity
  8
Layer_1
 62
7
100
AcDbSpline
 70
0
 71
3
 72
10
 73
6
 74
4
 40
0.000000
 40
0.000000
 40
0.000000
 40
0.000000
 40
0.736941
 40
1.473707
 40
2.210644
 40
2.210644
 40
2.210644
 40
2.210644
 10
53.083116
 20
7.097303
 30
0.0
 10
53.300207
 20
7.217441
 30
0.0
 10
53.734338
 20
7.457688
 30
0.0
 10
54.512257
 20
7.465311
 30
0.0
 10
54.951006
 20
7.233603
 30
0.0
 10
55.170406
 20
7.117736
 30
0.0
 11
53.083116
 21
7.097303
 31
0.0
 11
53.755510
 21
7.398911
 31
0.0
 11
54.492241
 21
7.406127
 31
0.0
 11
55.170406
 21
7.117736
 31
0.0
  0
SPLINE
  5
132
100
AcDbEntity
  8
Layer_1
 62
7
100
AcDbSpline
 70
0
 71
3
 72
10
 73
6
 74
4
 40
0.000000
 40
0.000000
 40
0.000000
 40
0.000000
 40
0.736910
 40
1.473647
 40
2.210556
 40
2.210556
 40
2.210556
 40
2.210556
 10
55.170406
 20
7.117736
 30
0.0
 10
55.355015
 20
6.951979
 30
0.0
 10
55.724191
 20
6.620502
 30
0.0
 10
55.986223
 20
5.888042
 30
0.0
 10
55.911046
 20
5.397616
 30
0.0
 10
55.873452
 20
5.152374
 30
0.0
 11
55.170406
 21
7.117736
 31
0.0
 11
55.675600
 21
6.581251
 31
0.0
 11
55.923753
 21
5.887564
 31
0.0
 11
55.873452
 21
5.152374
 31
0.0
  0
SPLINE
  5
133
100
AcDbEntity
  8
Layer_1
 62
7
100
AcDbSpline
 70
0
 71
3
 72
10
 73
6
 74
4
 40
0.000000
 40
0.000000
 40
0.000000
 40
0.000000
 40
0.736905
 40
1.473661
 40
2.210564
 40
2.210564
 40
2.210564
 40
2.210564
 10
55.873452
 20
5.152374
 30
0.0
 10
55.777317
 20
4.923654
 30
0.0
 10
55.585066
 20
4.466260
 30
0.0
 10
54.978875
 20
3.978717
 30
0.0
 10
54.490877
 20
3.889091
 30
0.0
 10
54.246853
 20
3.844274
 30
0.0
 11
55.873452
 21
5.152374
 31
0.0
 11
55.532070
 21
4.499314
 31
0.0
 11
54.957949
 21
4.037585
 31
0.0
 11
54.246853
 21
3.844274
 31
0.0
  0
SPLINE
  5
134
100
AcDbEntity
  8
Layer_1
 62
7
100
AcDbSpline
 70
0
 71
3
 72
10
 73
6
 74
4
 40
0.000000
 40
0.000000
 40
0.000000
 40
0.000000
 40
0.736885
 40
1.473635
 40
2.210526
 40
2.210526
 40
2.210526
 40
2.210526
 10
54.246853
 20
3.844274
 30
0.0
 10
53.999264
 20
3.860156
 30
0.0
 10
53.504131
 20
3.891918
 30
0.0
 10
52.844932
 20
4.304972
 30
0.0
 10
52.600394
 20
4.736675
 30
0.0
 10
52.478113
 20
4.952547
 30
0.0
 11
54.246853
 21
3.844274
 31
0.0
 11
53.518008
 21
3.952832
 31
0.0
 11
52.893694
 21
4.344024
 31
0.0
 11
52.478113
 21
4.952547
 31
0.0
  0
LINE
  5
135
100
AcDbEntity
  8
Layer_1
 62
7
100
AcDbLine
 10
53.083116
 20
7.097317
 30
0.0
 11
53.083116
 21
7.097303
 31
0.0
  0
SPLINE
  5
136
100
AcDbEntity
  8
Layer_1
 62
7
100
AcDbSpline
 70
0
 71
3
 72
13
 73
9
 74
7
 40
0.000000
 40
0.000000
 40
0.000000
 40
0.000000
 40
0.736855
 40
1.473582
 40
2.210438
 40
2.269274
 40
2.328110
 40
2.386946
 40
2.386946
 40
2.386946
 40
2.386946
 10
52.478113
 20
4.952547
 30
0.0
 10
52.411237
 20
5.192543
 30
0.0
 10
52.277497
 20
5.672493
 30
0.0
 10
52.463060
 20
6.417394
 30
0.0
 10
52.774086
 20
6.839573
 30
0.0
 10
52.990087
 20
7.025264
 30
0.0
 10
53.035849
 20
7.062272
 30
0.0
 10
53.067360
 20
7.085636
 30
0.0
 10
53.083116
 20
7.097317
 30
0.0
 11
52.478113
 21
4.952547
 31
0.0
 11
52.341858
 21
5.676694
 31
0.0
 11
52.506887
 21
6.394701
 31
0.0
 11
52.945688
 21
6.986655
 31
0.0
 11
52.990278
 21
7.025039
 31
0.0
 11
53.036100
 21
7.061945
 31
0.0
 11
53.083116
 21
7.097317
 31
0.0
  0
SPLINE
  5
137
100
AcDbEntity
  8
Layer_1
 62
7
100
AcDbSpline
 70
0
 71
3
 72
10
 73
6
 74
4
 40
0.000000
 40
0.000000
 40
0.000000
 40
0.000000
 40
0.736933
 40
1.473693
 40
2.210632
 40
2.210632
 40
2.210632
 40
2.210632
 10
55.941095
 20
119.641102
 30
0.0
 10
55.910675
 20
119.394859
 30
0.0
 10
55.849842
 20
118.902431
 30
0.0
 10
55.398731
 20
118.268641
 30
0.0
 10
54.953414
 20
118.049837
 30
0.0
 10
54.730729
 20
117.940422
 30
0.0
 11
55.941095
 21
119.641102
 31
0.0
 11
55.789847
 21
118.919857
 31
0.0
 11
55.362630
 21
118.319607
 31
0.0
 11
54.730729
 21
117.940422
 31
0.0
  0
SPLINE
  5
138
100
AcDbEntity
  8
Layer_1
 62
7
100
AcDbSpline
 70
0
 71
3
 72
10
 73
6
 74
4
 40
0.000000
 40
0.000000
 40
0.000000
 40
0.000000
 40
0.736919
 40
1.473667
 40
2.210593
 40
2.210593
 40
2.210593
 40
2.210593
 10
54.730729
 20
117.940422
 30
0.0
 10
54.488114
 20
117.888499
 30
0.0
 10
54.002939
 20
117.784664
 30
0.0
 10
53.256347
 20
118.003253
 30
0.0
 10
52.903771
 20
118.352348
 30
0.0
 10
52.727462
 20
118.526917
 30
0.0
 11
54.730729
 21
117.940422
 31
0.0
 11
53.999749
 21
117.847056
 31
0.0
 11
53.292682
 21
118.054067
 31
0.0
 11
52.727462
 21
118.526917
 31
0.0
  0
SPLINE
  5
139
100
AcDbEntity
  8
Layer_1
 62
7
100
AcDbSpline
 70
0
 71
3
 72
10
 73
6
 74
4
 40
0.000000
 40
0.000000
 40
0.000000
 40
0.000000
 40
0.736896
 40
1.473639
 40
2.210535
 40
2.210535
 40
2.210535
 40
2.210535
 10
52.727462
 20
118.526917
 30
0.0
 10
52.598921
 20
118.739122
 30
0.0
 10
52.341867
 20
119.163489
 30
0.0
 10
52.303765
 20
119.940477
 30
0.0
 10
52.518114
 20
120.387940
 30
0.0
 10
52.625300
 20
120.611695
 30
0.0
 11
52.727462
 21
118.526917
 31
0.0
 11
52.399766
 21
119.186940
 31
0.0
 11
52.363692
 21
119.922799
 31
0.0
 11
52.625300
 21
120.611695
 31
0.0
  0
SPLINE
  5
13a
100
AcDbEntity
  8
Layer_1
 62
7
100
AcDbSpline
 70
0
 71
3
 72
10
 73
6
 74
4
 40
0.000000
 40
0.000000
 40
0.000000
 40
0.000000
 40
0.736886
 40
1.473626
 40
2.210509
 40
2.210509
 40
2.210509
 40
2.210509
 10
52.625300
 20
120.611695
 30
0.0
 10
52.783678
 20
120.802661
 30
0.0
 10
53.100403
 20
121.184555
 30
0.0
 10
53.822004
 20
121.475148
 30
0.0
 10
54.314993
 20
121.419214
 30
0.0
 10
54.561511
 20
121.391244
 30
0.0
 11
52.625300
 21
120.611695
 31
0.0
 11
53.141525
 21
121.137541
 31
0.0
 11
53.824941
 21
121.412727
 31
0.0
 11
54.561511
 21
121.391244
 31
0.0
  0
LINE
  5
13b
100
AcDbEntity
  8
Layer_1
 62
7
100
AcDbLine
 10
55.941098
 20
119.641102
 30
0.0
 11
55.941095
 21
119.641102
 31
0.0
  0
SPLINE
  5
13c
100
AcDbEntity
  8
Layer_1
 62
7
100
AcDbSpline
 70
0
 71
3
 72
13
 73
9
 74
7
 40
0.000000
 40
0.000000
 40
0.000000
 40
0.000000
 40
0.736864
 40
1.473605
 40
2.210467
 40
2.269301
 40
2.328136
 40
2.386970
 40
2.386970
 40
2.386970
 40
2.386970
 10
54.561511
 20
121.391244
 30
0.0
 10
54.794980
 20
121.304270
 30
0.0
 10
55.261878
 20
121.130338
 30
0.0
 10
55.755448
 20
120.542384
 30
0.0
 10
55.914247
 20
120.042610
 30
0.0
 10
55.937481
 20
119.758712
 30
0.0
 10
55.940529
 20
119.699939
 30
0.0
 10
55.940908
 20
119.660714
 30
0.0
 10
55.941098
 20
119.641102
 30
0.0
 11
54.561511
 21
121.391244
 31
0.0
 11
55.227445
 21
121.075808
 31
0.0
 11
55.711344
 21
120.520263
 31
0.0
 11
55.932349
 21
119.817324
 31
0.0
 11
55.937189
 21
119.758690
 31
0.0
 11
55.940116
 21
119.699928
 31
0.0
 11
55.941098
 21
119.641102
 31
0.0
  0
SPLINE
  5
13d
100
AcDbEntity
  8
Layer_1
 62
7
100
AcDbSpline
 70
0
 71
3
 72
10
 73
6
 74
4
 40
0.000000
 40
0.000000
 40
0.000000
 40
0.000000
 40
1.125895
 40
2.251523
 40
3.377418
 40
3.377418
 40
3.377418
 40
3.377418
 10
77.041299
 20
121.806503
 30
0.0
 10
77.413459
 20
121.878554
 30
0.0
 10
78.157690
 20
122.022639
 30
0.0
 10
79.291612
 20
121.666449
 30
0.0
 10
79.819749
 20
121.122652
 30
0.0
 10
80.083849
 20
120.850721
 30
0.0
 11
77.041299
 21
121.806503
 31
0.0
 11
78.160701
 21
121.927250
 31
0.0
 11
79.234590
 21
121.589909
 31
0.0
 11
80.083849
 21
120.850721
 31
0.0
  0
SPLINE
  5
13e
100
AcDbEntity
  8
Layer_1
 62
7
100
AcDbSpline
 70
0
 71
3
 72
10
 73
6
 74
4
 40
0.000000
 40
0.000000
 40
0.000000
 40
0.000000
 40
1.125848
 40
2.251441
 40
3.377291
 40
3.377291
 40
3.377291
 40
3.377291
 10
80.083849
 20
120.850721
 30
0.0
 10
80.273824
 20
120.522709
 30
0.0
 10
80.653730
 20
119.866761
 30
0.0
 10
80.688644
 20
118.678770
 30
0.0
 10
80.347867
 20
118.001661
 30
0.0
 10
80.177459
 20
117.663069
 30
0.0
 11
80.083849
 21
120.850721
 31
0.0
 11
80.564595
 21
119.832675
 31
0.0
 11
80.597649
 21
118.707567
 31
0.0
 11
80.177459
 21
117.663069
 31
0.0
  0
SPLINE
  5
13f
100
AcDbEntity
  8
Layer_1
 62
7
100
AcDbSpline
 70
0
 71
3
 72
10
 73
6
 74
4
 40
0.000000
 40
0.000000
 40
0.000000
 40
0.000000
 40
1.125833
 40
2.251430
 40
3.377266
 40
3.377266
 40
3.377266
 40
3.377266
 10
80.177459
 20
117.663069
 30
0.0
 10
79.929800
 20
117.376113
 30
0.0
 10
79.434534
 20
116.802262
 30
0.0
 10
78.323536
 20
116.380085
 30
0.0
 10
77.572161
 20
116.480273
 30
0.0
 10
77.196434
 20
116.530373
 30
0.0
 11
80.177459
 21
117.663069
 31
0.0
 11
79.373126
 21
116.875320
 31
0.0
 11
78.320931
 21
116.475502
 31
0.0
 11
77.196434
 21
116.530373
 31
0.0
  0
SPLINE
  5
140
100
AcDbEntity
  8
Layer_1
 62
7
100
AcDbSpline
 70
0
 71
3
 72
10
 73
6
 74
4
 40
0.000000
 40
0.000000
 40
0.000000
 40
0.000000
 40
1.125790
 40
2.251365
 40
3.377160
 40
3.377160
 40
3.377160
 40
3.377160
 10
77.196434
 20
116.530373
 30
0.0
 10
76.844186
 20
116.670334
 30
0.0
 10
76.139757
 20
116.950230
 30
0.0
 10
75.376911
 20
117.861576
 30
0.0
 10
75.225437
 20
118.604293
 30
0.0
 10
75.149693
 20
118.975687
 30
0.0
 11
77.196434
 21
116.530373
 31
0.0
 11
76.188670
 21
117.032184
 31
0.0
 11
75.466212
 21
117.895303
 31
0.0
 11
75.149693
 21
118.975687
 31
0.0
  0
SPLINE
  5
141
100
AcDbEntity
  8
Layer_1
 62
7
100
AcDbSpline
 70
0
 71
3
 72
10
 73
6
 74
4
 40
0.000000
 40
0.000000
 40
0.000000
 40
0.000000
 40
1.125767
 40
2.251341
 40
3.377109
 40
3.377109
 40
3.377109
 40
3.377109
 10
75.149693
 20
118.975687
 30
0.0
 10
75.166502
 20
119.354342
 30
0.0
 10
75.200116
 20
120.111586
 30
0.0
 10
75.811195
 20
121.130924
 30
0.0
 10
76.463291
 20
121.517359
 30
0.0
 10
76.789367
 20
121.710592
 30
0.0
 11
75.149693
 21
118.975687
 31
0.0
 11
75.293575
 21
120.092222
 31
0.0
 11
75.872330
 21
121.057602
 31
0.0
 11
76.789367
 21
121.710592
 31
0.0
  0
LINE
  5
142
100
AcDbEntity
  8
Layer_1
 62
7
100
AcDbLine
 10
77.041299
 20
121.806503
 30
0.0
 11
77.041299
 21
121.806503
 31
0.0
  0
SPLINE
  5
143
100
AcDbEntity
  8
Layer_1
 62
7
100
AcDbSpline
 70
0
 71
3
 72
10
 73
6
 74
4
 40
0.000000
 40
0.000000
 40
0.000000
 40
0.000000
 40
0.089890
 40
0.179779
 40
0.269668
 40
0.269668
 40
0.269668
 40
0.269668
 10
76.789367
 20
121.710592
 30
0.0
 10
76.816931
 20
121.722347
 30
0.0
 10
76.872057
 20
121.745856
 30
0.0
 10
76.956087
 20
121.777868
 30
0.0
 10
77.012895
 20
121.796958
 30
0.0
 10
77.041299
 20
121.806503
 30
0.0
 11
76.789367
 21
121.710592
 31
0.0
 11
76.872281
 21
121.745314
 31
0.0
 11
76.956284
 21
121.777305
 31
0.0
 11
77.041299
 21
121.806503
 31
0.0
  0
SPLINE
  5
144
100
AcDbEntity
  8
Layer_1
 62
7
100
AcDbSpline
 70
0
 71
3
 72
10
 73
6
 74
4
 40
0.000000
 40
0.000000
 40
0.000000
 40
0.000000
 40
1.125889
 40
2.251510
 40
3.377398
 40
3.377398
 40
3.377398
 40
3.377398
 10
79.507526
 20
3.866305
 30
0.0
 10
79.175846
 20
3.682780
 30
0.0
 10
78.512566
 20
3.315774
 30
0.0
 10
77.324083
 20
3.304138
 30
0.0
 10
76.653752
 20
3.658106
 30
0.0
 10
76.318547
 20
3.835111
 30
0.0
 11
79.507526
 21
3.866305
 31
0.0
 11
78.480227
 21
3.405564
 31
0.0
 11
77.354660
 21
3.394549
 31
0.0
 11
76.318547
 21
3.835111
 31
0.0
  0
SPLINE
  5
145
100
AcDbEntity
  8
Layer_1
 62
7
100
AcDbSpline
 70
0
 71
3
 72
10
 73
6
 74
4
 40
0.000000
 40
0.000000
 40
0.000000
 40
0.000000
 40
1.125856
 40
2.251455
 40
3.377311
 40
3.377311
 40
3.377311
 40
3.377311
 10
76.318547
 20
3.835111
 30
0.0
 10
76.036507
 20
4.088364
 30
0.0
 10
75.472490
 20
4.594812
 30
0.0
 10
75.072181
 20
5.713881
 30
0.0
 10
75.187048
 20
6.463158
 30
0.0
 10
75.244489
 20
6.837839
 30
0.0
 11
76.318547
 21
3.835111
 31
0.0
 11
75.546731
 21
4.654776
 31
0.0
 11
75.167622
 21
5.714610
 31
0.0
 11
75.244489
 21
6.837839
 31
0.0
  0
SPLINE
  5
146
100
AcDbEntity
  8
Layer_1
 62
7
100
AcDbSpline
 70
0
 71
3
 72
10
 73
6
 74
4
 40
0.000000
 40
0.000000
 40
0.000000
 40
0.000000
 40
1.125820
 40
2.251401
 40
3.377223
 40
3.377223
 40
3.377223
 40
3.377223
 10
75.244489
 20
6.837839
 30
0.0
 10
75.391351
 20
7.187277
 30
0.0
 10
75.685043
 20
7.886077
 30
0.0
 10
76.611185
 20
8.630910
 30
0.0
 10
77.356734
 20
8.767817
 30
0.0
 10
77.729548
 20
8.836278
 30
0.0
 11
75.244489
 21
6.837839
 31
0.0
 11
75.766020
 21
7.835575
 31
0.0
 11
76.643148
 21
8.540968
 31
0.0
 11
77.729548
 21
8.836278
 31
0.0
  0
SPLINE
  5
147
100
AcDbEntity
  8
Layer_1
 62
7
100
AcDbSpline
 70
0
 71
3
 72
10
 73
6
 74
4
 40
0.000000
 40
0.000000
 40
0.000000
 40
0.000000
 40
1.125803
 40
2.251388
 40
3.377194
 40
3.377194
 40
3.377194
 40
3.377194
 10
77.729548
 20
8.836278
 30
0.0
 10
78.107811
 20
8.812018
 30
0.0
 10
78.864262
 20
8.763505
 30
0.0
 10
79.871413
 20
8.132504
 30
0.0
 10
80.244989
 20
7.472939
 30
0.0
 10
80.431795
 20
7.143125
 30
0.0
 11
77.729548
 21
8.836278
 31
0.0
 11
78.843071
 21
8.670447
 31
0.0
 11
79.796903
 21
8.072829
 31
0.0
 11
80.431795
 21
7.143125
 31
0.0
  0
SPLINE
  5
148
100
AcDbEntity
  8
Layer_1
 62
7
100
AcDbSpline
 70
0
 71
3
 72
10
 73
6
 74
4
 40
0.000000
 40
0.000000
 40
0.000000
 40
0.000000
 40
1.125769
 40
2.251345
 40
3.377116
 40
3.377116
 40
3.377116
 40
3.377116
 10
80.431795
 20
7.143125
 30
0.0
 10
80.532816
 20
6.777807
 30
0.0
 10
80.734841
 20
6.047234
 30
0.0
 10
80.468658
 20
4.888953
 30
0.0
 10
79.967894
 20
4.319920
 30
0.0
 10
79.717491
 20
4.035378
 30
0.0
 11
80.431795
 21
7.143125
 31
0.0
 11
80.639973
 21
6.036771
 31
0.0
 11
80.387859
 21
4.939794
 31
0.0
 11
79.717491
 21
4.035378
 31
0.0
  0
LINE
  5
149
100
AcDbEntity
  8
Layer_1
 62
7
100
AcDbLine
 10
79.507526
 20
3.866305
 30
0.0
 11
79.507526
 21
3.866305
 31
0.0
  0
SPLINE
  5
14a
100
AcDbEntity
  8
Layer_1
 62
7
100
AcDbSpline
 70
0
 71
3
 72
10
 73
6
 74
4
 40
0.000000
 40
0.000000
 40
0.000000
 40
0.000000
 40
0.089891
 40
0.179782
 40
0.269673
 40
0.269673
 40
0.269673
 40
0.269673
 10
79.717491
 20
4.035378
 30
0.0
 10
79.694909
 20
4.015681
 30
0.0
 10
79.649745
 20
3.976287
 30
0.0
 10
79.579720
 20
3.919872
 30
0.0
 10
79.531590
 20
3.884160
 30
0.0
 10
79.507526
 20
3.866305
 30
0.0
 11
79.717491
 21
4.035378
 31
0.0
 11
79.649365
 21
3.976733
 31
0.0
 11
79.579358
 21
3.920346
 31
0.0
 11
79.507526
 21
3.866305
 31
0.0
  0
SPLINE
  5
14b
100
AcDbEntity
  8
Layer_1
 62
7
100
AcDbSpline
 70
0
 71
3
 72
10
 73
6
 74
4
 40
0.000000
 40
0.000000
 40
0.000000
 40
0.000000
 40
0.736948
 40
1.473726
 40
2.210671
 40
2.210671
 40
2.210671
 40
2.210671
 10
103.941112
 20
62.641103
 30
0.0
 10
103.910680
 20
62.394859
 30
0.0
 10
103.849822
 20
61.902427
 30
0.0
 10
103.398731
 20
61.268603
 30
0.0
 10
102.953389
 20
61.049823
 30
0.0
 10
102.730692
 20
60.940421
 30
0.0
 11
103.941112
 21
62.641103
 31
0.0
 11
103.789837
 21
61.919849
 31
0.0
 11
103.362617
 21
61.319578
 31
0.0
 11
102.730692
 21
60.940421
 31
0.0
  0
SPLINE
  5
14c
100
AcDbEntity
  8
Layer_1
 62
7
100
AcDbSpline
 70
0
 71
3
 72
10
 73
6
 74
4
 40
0.000000
 40
0.000000
 40
0.000000
 40
0.000000
 40
0.736903
 40
1.473639
 40
2.210544
 40
2.210544
 40
2.210544
 40
2.210544
 10
102.730692
 20
60.940421
 30
0.0
 10
102.488082
 20
60.888506
 30
0.0
 10
102.002917
 20
60.784688
 30
0.0
 10
101.256330
 20
61.003240
 30
0.0
 10
100.903774
 20
61.352343
 30
0.0
 10
100.727476
 20
61.526915
 30
0.0
 11
102.730692
 21
60.940421
 31
0.0
 11
101.999727
 21
60.847069
 31
0.0
 11
101.292666
 21
61.054063
 31
0.0
 11
100.727476
 21
61.526915
 31
0.0
  0
SPLINE
  5
14d
100
AcDbEntity
  8
Layer_1
 62
7
100
AcDbSpline
 70
0
 71
3
 72
10
 73
6
 74
4
 40
0.000000
 40
0.000000
 40
0.000000
 40
0.000000
 40
0.736906
 40
1.473652
 40
2.210556
 40
2.210556
 40
2.210556
 40
2.210556
 10
100.727476
 20
61.526915
 30
0.0
 10
100.598931
 20
61.739122
 30
0.0
 10
100.341868
 20
62.163488
 30
0.0
 10
100.303758
 20
62.940487
 30
0.0
 10
100.518123
 20
63.387948
 30
0.0
 10
100.625317
 20
63.611702
 30
0.0
 11
100.727476
 21
61.526915
 31
0.0
 11
100.399767
 21
62.186943
 31
0.0
 11
100.363690
 21
62.922805
 31
0.0
 11
100.625317
 21
63.611702
 31
0.0
  0
SPLINE
  5
14e
100
AcDbEntity
  8
Layer_1
 62
7
100
AcDbSpline
 70
0
 71
3
 72
10
 73
6
 74
4
 40
0.000000
 40
0.000000
 40
0.000000
 40
0.000000
 40
0.736867
 40
1.473592
 40
2.210459
 40
2.210459
 40
2.210459
 40
2.210459
 10
100.625317
 20
63.611702
 30
0.0
 10
100.783685
 20
63.802670
 30
0.0
 10
101.100390
 20
64.184570
 30
0.0
 10
101.821989
 20
64.475125
 30
0.0
 10
102.314965
 20
64.419203
 30
0.0
 10
102.561477
 20
64.391239
 30
0.0
 11
100.625317
 21
63.611702
 31
0.0
 11
101.141514
 21
64.137547
 31
0.0
 11
101.824923
 21
64.412714
 31
0.0
 11
102.561477
 21
64.391239
 31
0.0
  0
LINE
  5
14f
100
AcDbEntity
  8
Layer_1
 62
7
100
AcDbLine
 10
103.941110
 20
62.641103
 30
0.0
 11
103.941112
 21
62.641103
 31
0.0
  0
SPLINE
  5
150
100
AcDbEntity
  8
Layer_1
 62
7
100
AcDbSpline
 70
0
 71
3
 72
13
 73
9
 74
7
 40
0.000000
 40
0.000000
 40
0.000000
 40
0.000000
 40
0.736871
 40
1.473620
 40
2.210494
 40
2.269331
 40
2.328168
 40
2.387006
 40
2.387006
 40
2.387006
 40
2.387006
 10
102.561477
 20
64.391239
 30
0.0
 10
102.794954
 20
64.304279
 30
0.0
 10
103.261867
 20
64.130374
 30
0.0
 10
103.755454
 20
63.542392
 30
0.0
 10
103.914188
 20
63.042617
 30
0.0
 10
103.937510
 20
62.758720
 30
0.0
 10
103.940545
 20
62.699943
 30
0.0
 10
103.940921
 20
62.660716
 30
0.0
 10
103.941110
 20
62.641103
 30
0.0
 11
102.561477
 21
64.391239
 31
0.0
 11
103.227434
 21
64.075833
 31
0.0
 11
103.711331
 21
63.520277
 31
0.0
 11
103.932361
 21
62.817334
 31
0.0
 11
103.937213
 21
62.758697
 31
0.0
 11
103.940133
 21
62.699932
 31
0.0
 11
103.941110
 21
62.641103
 31
0.0
  0
SPLINE
  5
151
100
AcDbEntity
  8
Layer_1
 62
7
100
AcDbSpline
 70
0
 71
3
 72
10
 73
6
 74
4
 40
0.000000
 40
0.000000
 40
0.000000
 40
0.000000
 40
0.736948
 40
1.473715
 40
2.210667
 40
2.210667
 40
2.210667
 40
2.210667
 10
103.199122
 20
89.684904
 30
0.0
 10
102.982026
 20
89.564769
 30
0.0
 10
102.547888
 20
89.324531
 30
0.0
 10
101.769962
 20
89.316915
 30
0.0
 10
101.331210
 20
89.548628
 30
0.0
 10
101.111806
 20
89.664499
 30
0.0
 11
103.199122
 21
89.684904
 31
0.0
 11
102.526715
 21
89.383306
 31
0.0
 11
101.789984
 21
89.376098
 31
0.0
 11
101.111806
 21
89.664499
 31
0.0
  0
SPLINE
  5
152
100
AcDbEntity
  8
Layer_1
 62
7
100
AcDbSpline
 70
0
 71
3
 72
10
 73
6
 74
4
 40
0.000000
 40
0.000000
 40
0.000000
 40
0.000000
 40
0.736905
 40
1.473644
 40
2.210545
 40
2.210545
 40
2.210545
 40
2.210545
 10
101.111806
 20
89.664499
 30
0.0
 10
100.927206
 20
89.830262
 30
0.0
 10
100.558048
 20
90.161750
 30
0.0
 10
100.295988
 20
90.894196
 30
0.0
 10
100.371181
 20
91.384621
 30
0.0
 10
100.408782
 20
91.629861
 30
0.0
 11
101.111806
 21
89.664499
 31
0.0
 11
100.606632
 21
90.200994
 31
0.0
 11
100.358467
 21
90.894679
 31
0.0
 11
100.408782
 21
91.629861
 31
0.0
  0
SPLINE
  5
153
100
AcDbEntity
  8
Layer_1
 62
7
100
AcDbSpline
 70
0
 71
3
 72
10
 73
6
 74
4
 40
0.000000
 40
0.000000
 40
0.000000
 40
0.000000
 40
0.736904
 40
1.473649
 40
2.210551
 40
2.210551
 40
2.210551
 40
2.210551
 10
100.408782
 20
91.629861
 30
0.0
 10
100.504916
 20
91.858581
 30
0.0
 10
100.697163
 20
92.315973
 30
0.0
 10
101.303350
 20
92.803512
 30
0.0
 10
101.791344
 20
92.893139
 30
0.0
 10
102.035367
 20
92.937958
 30
0.0
 11
100.408782
 21
91.629861
 31
0.0
 11
100.750161
 21
92.282921
 31
0.0
 11
101.324274
 21
92.744643
 31
0.0
 11
102.035367
 21
92.937958
 31
0.0
  0
SPLINE
  5
154
100
AcDbEntity
  8
Layer_1
 62
7
100
AcDbSpline
 70
0
 71
3
 72
10
 73
6
 74
4
 40
0.000000
 40
0.000000
 40
0.000000
 40
0.000000
 40
0.736883
 40
1.473627
 40
2.210514
 40
2.210514
 40
2.210514
 40
2.210514
 10
102.035367
 20
92.937958
 30
0.0
 10
102.282955
 20
92.922074
 30
0.0
 10
102.778084
 20
92.890309
 30
0.0
 10
103.437290
 20
92.477271
 30
0.0
 10
103.681816
 20
92.045563
 30
0.0
 10
103.804091
 20
91.829688
 30
0.0
 11
102.035367
 21
92.937958
 31
0.0
 11
102.764210
 21
92.829398
 31
0.0
 11
103.388524
 21
92.438216
 31
0.0
 11
103.804091
 21
91.829688
 31
0.0
  0
LINE
  5
155
100
AcDbEntity
  8
Layer_1
 62
7
100
AcDbLine
 10
103.199122
 20
89.684918
 30
0.0
 11
103.199122
 21
89.684904
 31
0.0
  0
SPLINE
  5
156
100
AcDbEntity
  8
Layer_1
 62
7
100
AcDbSpline
 70
0
 71
3
 72
13
 73
9
 74
7
 40
0.000000
 40
0.000000
 40
0.000000
 40
0.000000
 40
0.736852
 40
1.473578
 40
2.210436
 40
2.269271
 40
2.328105
 40
2.386938
 40
2.386938
 40
2.386938
 40
2.386938
 10
103.804091
 20
91.829688
 30
0.0
 10
103.870979
 20
91.589694
 30
0.0
 10
104.004746
 20
91.109748
 30
0.0
 10
103.819141
 20
90.364858
 30
0.0
 10
103.508145
 20
89.942662
 30
0.0
 10
103.292146
 20
89.756969
 30
0.0
 10
103.246387
 20
89.719960
 30
0.0
 10
103.214877
 20
89.696599
 30
0.0
 10
103.199122
 20
89.684918
 30
0.0
 11
103.804091
 21
91.829688
 31
0.0
 11
103.940371
 21
91.105548
 31
0.0
 11
103.775329
 21
90.387547
 31
0.0
 11
103.336544
 21
89.795577
 31
0.0
 11
103.291955
 21
89.757193
 31
0.0
 11
103.246136
 21
89.720288
 31
0.0
 11
103.199122
 21
89.684918
 31
0.0
  0
SPLINE
  5
157
100
AcDbEntity
  8
Layer_1
 62
7
100
AcDbSpline
 70
0
 71
3
 72
10
 73
6
 74
4
 40
0.000000
 40
0.000000
 40
0.000000
 40
0.000000
 40
0.736948
 40
1.473715
 40
2.210660
 40
2.210660
 40
2.210660
 40
2.210660
 10
101.083104
 20
121.097304
 30
0.0
 10
101.300200
 20
121.217438
 30
0.0
 10
101.734339
 20
121.457677
 30
0.0
 10
102.512260
 20
121.465299
 30
0.0
 10
102.951015
 20
121.233600
 30
0.0
 10
103.170420
 20
121.117737
 30
0.0
 11
101.083104
 21
121.097304
 31
0.0
 11
101.755511
 21
121.398903
 31
0.0
 11
102.492243
 21
121.406118
 31
0.0
 11
103.170420
 21
121.117737
 31
0.0
  0
SPLINE
  5
158
100
AcDbEntity
  8
Layer_1
 62
7
100
AcDbSpline
 70
0
 71
3
 72
10
 73
6
 74
4
 40
0.000000
 40
0.000000
 40
0.000000
 40
0.000000
 40
0.736905
 40
1.473644
 40
2.210545
 40
2.210545
 40
2.210545
 40
2.210545
 10
103.170420
 20
121.117737
 30
0.0
 10
103.355020
 20
120.951973
 30
0.0
 10
103.724177
 20
120.620484
 30
0.0
 10
103.986240
 20
119.888039
 30
0.0
 10
103.911045
 20
119.397614
 30
0.0
 10
103.873444
 20
119.152375
 30
0.0
 11
103.170420
 21
121.117737
 31
0.0
 11
103.675594
 21
120.581240
 31
0.0
 11
103.923760
 21
119.887556
 31
0.0
 11
103.873444
 21
119.152375
 31
0.0
  0
SPLINE
  5
159
100
AcDbEntity
  8
Layer_1
 62
7
100
AcDbSpline
 70
0
 71
3
 72
10
 73
6
 74
4
 40
0.000000
 40
0.000000
 40
0.000000
 40
0.000000
 40
0.736912
 40
1.473665
 40
2.210576
 40
2.210576
 40
2.210576
 40
2.210576
 10
103.873444
 20
119.152375
 30
0.0
 10
103.777309
 20
118.923652
 30
0.0
 10
103.585060
 20
118.466255
 30
0.0
 10
102.978861
 20
117.978715
 30
0.0
 10
102.490860
 20
117.889091
 30
0.0
 10
102.246834
 20
117.844275
 30
0.0
 11
103.873444
 21
119.152375
 31
0.0
 11
103.532061
 21
118.499308
 31
0.0
 11
102.957937
 21
118.037585
 31
0.0
 11
102.246834
 21
117.844275
 31
0.0
  0
SPLINE
  5
15a
100
AcDbEntity
  8
Layer_1
 62
7
100
AcDbSpline
 70
0
 71
3
 72
10
 73
6
 74
4
 40
0.000000
 40
0.000000
 40
0.000000
 40
0.000000
 40
0.736875
 40
1.473612
 40
2.210490
 40
2.210490
 40
2.210490
 40
2.210490
 10
102.246834
 20
117.844275
 30
0.0
 10
101.999249
 20
117.860162
 30
0.0
 10
101.504125
 20
117.891933
 30
0.0
 10
100.844930
 20
118.304971
 30
0.0
 10
100.600408
 20
118.736675
 30
0.0
 10
100.478136
 20
118.952548
 30
0.0
 11
102.246834
 21
117.844275
 31
0.0
 11
101.518000
 21
117.952842
 31
0.0
 11
100.893695
 21
118.344026
 31
0.0
 11
100.478136
 21
118.952548
 31
0.0
  0
LINE
  5
15b
100
AcDbEntity
  8
Layer_1
 62
7
100
AcDbLine
 10
101.083104
 20
121.097318
 30
0.0
 11
101.083104
 21
121.097304
 31
0.0
  0
SPLINE
  5
15c
100
AcDbEntity
  8
Layer_1
 62
7
100
AcDbSpline
 70
0
 71
3
 72
13
 73
9
 74
7
 40
0.000000
 40
0.000000
 40
0.000000
 40
0.000000
 40
0.736851
 40
1.473577
 40
2.210435
 40
2.269269
 40
2.328103
 40
2.386937
 40
2.386937
 40
2.386937
 40
2.386937
 10
100.478136
 20
118.952548
 30
0.0
 10
100.411247
 20
119.192541
 30
0.0
 10
100.277481
 20
119.672487
 30
0.0
 10
100.463087
 20
120.417378
 30
0.0
 10
100.774084
 20
120.839570
 30
0.0
 10
100.990079
 20
121.025267
 30
0.0
 10
101.035838
 20
121.062275
 30
0.0
 10
101.067349
 20
121.085637
 30
0.0
 10
101.083104
 20
121.097318
 30
0.0
 11
100.478136
 21
118.952548
 31
0.0
 11
100.341856
 21
119.676687
 31
0.0
 11
100.506898
 21
120.394688
 31
0.0
 11
100.945682
 21
120.986659
 31
0.0
 11
100.990270
 21
121.025043
 31
0.0
 11
101.036090
 21
121.061948
 31
0.0
 11
101.083104
 21
121.097318
 31
0.0
  0
SPLINE
  5
15d
100
AcDbEntity
  8
Layer_1
 62
7
100
AcDbSpline
 70
0
 71
3
 72
10
 73
6
 74
4
 40
0.000000
 40
0.000000
 40
0.000000
 40
0.000000
 40
0.736948
 40
1.473715
 40
2.210660
 40
2.210660
 40
2.210660
 40
2.210660
 10
103.199122
 20
32.684902
 30
0.0
 10
102.982026
 20
32.564768
 30
0.0
 10
102.547887
 20
32.324529
 30
0.0
 10
101.769967
 20
32.316907
 30
0.0
 10
101.331211
 20
32.548606
 30
0.0
 10
101.111806
 20
32.664469
 30
0.0
 11
103.199122
 21
32.684902
 31
0.0
 11
102.526715
 21
32.383303
 31
0.0
 11
101.789984
 21
32.376088
 31
0.0
 11
101.111806
 21
32.664469
 31
0.0
  0
SPLINE
  5
15e
100
AcDbEntity
  8
Layer_1
 62
7
100
AcDbSpline
 70
0
 71
3
 72
10
 73
6
 74
4
 40
0.000000
 40
0.000000
 40
0.000000
 40
0.000000
 40
0.736905
 40
1.473644
 40
2.210545
 40
2.210545
 40
2.210545
 40
2.210545
 10
101.111806
 20
32.664469
 30
0.0
 10
100.927207
 20
32.830233
 30
0.0
 10
100.558049
 20
33.161722
 30
0.0
 10
100.295986
 20
33.894167
 30
0.0
 10
100.371181
 20
34.384591
 30
0.0
 10
100.408782
 20
34.629831
 30
0.0
 11
101.111806
 21
32.664469
 31
0.0
 11
100.606632
 21
33.200966
 31
0.0
 11
100.358466
 21
33.894650
 31
0.0
 11
100.408782
 21
34.629831
 31
0.0
  0
SPLINE
  5
15f
100
AcDbEntity
  8
Layer_1
 62
7
100
AcDbSpline
 70
0
 71
3
 72
10
 73
6
 74
4
 40
0.000000
 40
0.000000
 40
0.000000
 40
0.000000
 40
0.736903
 40
1.473649
 40
2.210551
 40
2.210551
 40
2.210551
 40
2.210551
 10
100.408782
 20
34.629831
 30
0.0
 10
100.504916
 20
34.858551
 30
0.0
 10
100.697162
 20
35.315944
 30
0.0
 10
101.303351
 20
35.803482
 30
0.0
 10
101.791345
 20
35.893109
 30
0.0
 10
102.035367
 20
35.937928
 30
0.0
 11
100.408782
 21
34.629831
 31
0.0
 11
100.750160
 21
35.282891
 31
0.0
 11
101.324274
 21
35.744613
 31
0.0
 11
102.035367
 21
35.937928
 31
0.0
  0
SPLINE
  5
160
100
AcDbEntity
  8
Layer_1
 62
7
100
AcDbSpline
 70
0
 71
3
 72
10
 73
6
 74
4
 40
0.000000
 40
0.000000
 40
0.000000
 40
0.000000
 40
0.736884
 40
1.473628
 40
2.210514
 40
2.210514
 40
2.210514
 40
2.210514
 10
102.035367
 20
35.937928
 30
0.0
 10
102.282955
 20
35.922044
 30
0.0
 10
102.778084
 20
35.890278
 30
0.0
 10
103.437291
 20
35.477242
 30
0.0
 10
103.681816
 20
35.045533
 30
0.0
 10
103.804091
 20
34.829658
 30
0.0
 11
102.035367
 21
35.937928
 31
0.0
 11
102.764211
 21
35.829368
 31
0.0
 11
103.388525
 21
35.438186
 31
0.0
 11
103.804091
 21
34.829658
 31
0.0
  0
LINE
  5
161
100
AcDbEntity
  8
Layer_1
 62
7
100
AcDbLine
 10
103.199122
 20
32.684888
 30
0.0
 11
103.199122
 21
32.684902
 31
0.0
  0
SPLINE
  5
162
100
AcDbEntity
  8
Layer_1
 62
7
100
AcDbSpline
 70
0
 71
3
 72
13
 73
9
 74
7
 40
0.000000
 40
0.000000
 40
0.000000
 40
0.000000
 40
0.736851
 40
1.473577
 40
2.210435
 40
2.269269
 40
2.328103
 40
2.386937
 40
2.386937
 40
2.386937
 40
2.386937
 10
103.804091
 20
34.829658
 30
0.0
 10
103.870979
 20
34.589665
 30
0.0
 10
104.004745
 20
34.109719
 30
0.0
 10
103.819140
 20
33.364828
 30
0.0
 10
103.508142
 20
32.942636
 30
0.0
 10
103.292148
 20
32.756938
 30
0.0
 10
103.246388
 20
32.719930
 30
0.0
 10
103.214877
 20
32.696569
 30
0.0
 10
103.199122
 20
32.684888
 30
0.0
 11
103.804091
 21
34.829658
 31
0.0
 11
103.940371
 21
34.105519
 31
0.0
 11
103.775328
 21
33.387518
 31
0.0
 11
103.336544
 21
32.795547
 31
0.0
 11
103.291957
 21
32.757163
 31
0.0
 11
103.246137
 21
32.720258
 31
0.0
 11
103.199122
 21
32.684888
 31
0.0
  0
SPLINE
  5
163
100
AcDbEntity
  8
Layer_1
 62
7
100
AcDbSpline
 70
0
 71
3
 72
10
 73
6
 74
4
 40
0.000000
 40
0.000000
 40
0.000000
 40
0.000000
 40
0.736944
 40
1.473717
 40
2.210663
 40
2.210663
 40
2.210663
 40
2.210663
 10
100.341114
 20
5.641104
 30
0.0
 10
100.371547
 20
5.887348
 30
0.0
 10
100.432405
 20
6.379777
 30
0.0
 10
100.883501
 20
7.013592
 30
0.0
 10
101.328839
 20
7.232376
 30
0.0
 10
101.551534
 20
7.341781
 30
0.0
 11
100.341114
 21
5.641104
 31
0.0
 11
100.492391
 21
6.362354
 31
0.0
 11
100.919612
 21
6.962618
 31
0.0
 11
101.551534
 21
7.341781
 31
0.0
  0
SPLINE
  5
164
100
AcDbEntity
  8
Layer_1
 62
7
100
AcDbSpline
 70
0
 71
3
 72
10
 73
6
 74
4
 40
0.000000
 40
0.000000
 40
0.000000
 40
0.000000
 40
0.736901
 40
1.473637
 40
2.210545
 40
2.210545
 40
2.210545
 40
2.210545
 10
101.551534
 20
7.341781
 30
0.0
 10
101.794143
 20
7.393703
 30
0.0
 10
102.279308
 20
7.497535
 30
0.0
 10
103.025886
 20
7.278951
 30
0.0
 10
103.378448
 20
6.929857
 30
0.0
 10
103.554750
 20
6.755289
 30
0.0
 11
101.551534
 21
7.341781
 31
0.0
 11
102.282497
 21
7.435146
 31
0.0
 11
102.989552
 21
7.228136
 31
0.0
 11
103.554750
 21
6.755289
 31
0.0
  0
SPLINE
  5
165
100
AcDbEntity
  8
Layer_1
 62
7
100
AcDbSpline
 70
0
 71
3
 72
10
 73
6
 74
4
 40
0.000000
 40
0.000000
 40
0.000000
 40
0.000000
 40
0.736902
 40
1.473642
 40
2.210544
 40
2.210544
 40
2.210544
 40
2.210544
 10
103.554750
 20
6.755289
 30
0.0
 10
103.683293
 20
6.543083
 30
0.0
 10
103.940351
 20
6.118717
 30
0.0
 10
103.978464
 20
5.341725
 30
0.0
 10
103.764102
 20
4.894265
 30
0.0
 10
103.656909
 20
4.670511
 30
0.0
 11
103.554750
 21
6.755289
 31
0.0
 11
103.882454
 21
6.095263
 31
0.0
 11
103.918532
 21
5.359407
 31
0.0
 11
103.656909
 21
4.670511
 31
0.0
  0
SPLINE
  5
166
100
AcDbEntity
  8
Layer_1
 62
7
100
AcDbSpline
 70
0
 71
3
 72
10
 73
6
 74
4
 40
0.000000
 40
0.000000
 40
0.000000
 40
0.000000
 40
0.736869
 40
1.473600
 40
2.210469
 40
2.210469
 40
2.210469
 40
2.210469
 10
103.656909
 20
4.670511
 30
0.0
 10
103.498538
 20
4.479545
 30
0.0
 10
103.181827
 20
4.097650
 30
0.0
 10
102.460234
 20
3.807072
 30
0.0
 10
101.967254
 20
3.862999
 30
0.0
 10
101.720740
 20
3.890965
 30
0.0
 11
103.656909
 21
4.670511
 31
0.0
 11
103.140706
 21
4.144669
 31
0.0
 11
102.457297
 21
3.869488
 31
0.0
 11
101.720740
 21
3.890965
 31
0.0
  0
LINE
  5
167
100
AcDbEntity
  8
Layer_1
 62
7
100
AcDbLine
 10
100.341117
 20
5.641104
 30
0.0
 11
100.341114
 21
5.641104
 31
0.0
  0
LINE
  5
168
100
AcDbEntity
  8
Layer_1
 62
7
100
AcDbLine
 10
0.141111
 20
250.141101
 30
0.0
 11
0.141111
 21
125.141102
 31
0.0
  0
LINE
  5
169
100
AcDbEntity
  8
Layer_1
 62
7
100
AcDbLine
 10
108.141115
 20
125.141102
 30
0.0
 11
108.141115
 21
250.141101
 31
0.0
  0
LINE
  5
16a
100
AcDbEntity
  8
Layer_1
 62
7
100
AcDbLine
 10
108.141115
 20
250.141101
 30
0.0
 11
0.141111
 21
250.141101
 31
0.0
  0
SPLINE
  5
16b
100
AcDbEntity
  8
Layer_1
 62
7
100
AcDbSpline
 70
0
 71
3
 72
13
 73
9
 74
7
 40
0.000000
 40
0.000000
 40
0.000000
 40
0.000000
 40
0.736871
 40
1.473616
 40
2.210490
 40
2.269325
 40
2.328159
 40
2.386993
 40
2.386993
 40
2.386993
 40
2.386993
 10
101.720740
 20
3.890965
 30
0.0
 10
101.487267
 20
3.977932
 30
0.0
 10
101.020361
 20
4.151849
 30
0.0
 10
100.526771
 20
4.739823
 30
0.0
 10
100.368039
 20
5.239598
 30
0.0
 10
100.344717
 20
5.523493
 30
0.0
 10
100.341681
 20
5.582268
 30
0.0
 10
100.341305
 20
5.621492
 30
0.0
 10
100.341117
 20
5.641104
 30
0.0
 11
101.720740
 21
3.890965
 31
0.0
 11
101.054791
 21
4.206387
 31
0.0
 11
100.570895
 21
4.761939
 31
0.0
 11
100.349866
 21
5.464882
 31
0.0
 11
100.345013
 21
5.523516
 31
0.0
 11
100.342093
 21
5.582278
 31
0.0
 11
100.341117
 21
5.641104
 31
0.0
  0
SPLINE
  5
16c
100
AcDbEntity
  8
Layer_1
 62
7
100
AcDbSpline
 70
0
 71
3
 72
10
 73
6
 74
4
 40
0.000000
 40
0.000000
 40
0.000000
 40
0.000000
 40
0.736944
 40
1.473712
 40
2.210652
 40
2.210652
 40
2.210652
 40
2.210652
 10
6.141110
 20
128.841101
 30
0.0
 10
5.894867
 20
128.871534
 30
0.0
 10
5.402439
 20
128.932392
 30
0.0
 10
4.768634
 20
129.383493
 30
0.0
 10
4.549842
 20
129.828822
 30
0.0
 10
4.440434
 20
130.051512
 30
0.0
 11
6.141110
 21
128.841101
 31
0.0
 11
5.419861
 21
128.992380
 31
0.0
 11
4.819603
 21
129.419601
 31
0.0
 11
4.440434
 21
130.051512
 31
0.0
  0
SPLINE
  5
16d
100
AcDbEntity
  8
Layer_1
 62
7
100
AcDbSpline
 70
0
 71
3
 72
10
 73
6
 74
4
 40
0.000000
 40
0.000000
 40
0.000000
 40
0.000000
 40
0.736907
 40
1.473646
 40
2.210560
 40
2.210560
 40
2.210560
 40
2.210560
 10
4.440434
 20
130.051512
 30
0.0
 10
4.388511
 20
130.294124
 30
0.0
 10
4.284678
 20
130.779291
 30
0.0
 10
4.503264
 20
131.525873
 30
0.0
 10
4.852360
 20
131.878439
 30
0.0
 10
5.026928
 20
132.054742
 30
0.0
 11
4.440434
 21
130.051512
 31
0.0
 11
4.347068
 21
130.782480
 31
0.0
 11
4.554079
 21
131.489539
 31
0.0
 11
5.026928
 21
132.054742
 31
0.0
  0
SPLINE
  5
16e
100
AcDbEntity
  8
Layer_1
 62
7
100
AcDbSpline
 70
0
 71
3
 72
10
 73
6
 74
4
 40
0.000000
 40
0.000000
 40
0.000000
 40
0.000000
 40
0.736901
 40
1.473642
 40
2.210542
 40
2.210542
 40
2.210542
 40
2.210542
 10
5.026928
 20
132.054742
 30
0.0
 10
5.239133
 20
132.183287
 30
0.0
 10
5.663497
 20
132.440348
 30
0.0
 10
6.440490
 20
132.478457
 30
0.0
 10
6.887950
 20
132.264096
 30
0.0
 10
7.111704
 20
132.156904
 30
0.0
 11
5.026928
 21
132.054742
 31
0.0
 11
5.686952
 21
132.382450
 31
0.0
 11
6.422809
 21
132.418526
 31
0.0
 11
7.111704
 21
132.156904
 31
0.0
  0
SPLINE
  5
16f
100
AcDbEntity
  8
Layer_1
 62
7
100
AcDbSpline
 70
0
 71
3
 72
10
 73
6
 74
4
 40
0.000000
 40
0.000000
 40
0.000000
 40
0.000000
 40
0.736874
 40
1.473606
 40
2.210479
 40
2.210479
 40
2.210479
 40
2.210479
 10
7.111704
 20
132.156904
 30
0.0
 10
7.302668
 20
131.998530
 30
0.0
 10
7.684561
 20
131.681813
 30
0.0
 10
7.975148
 20
130.960221
 30
0.0
 10
7.919217
 20
130.467239
 30
0.0
 10
7.891249
 20
130.220724
 30
0.0
 11
7.111704
 21
132.156904
 31
0.0
 11
7.637545
 21
131.640692
 31
0.0
 11
7.912729
 21
130.957284
 31
0.0
 11
7.891249
 21
130.220724
 31
0.0
  0
LINE
  5
170
100
AcDbEntity
  8
Layer_1
 62
7
100
AcDbLine
 10
6.141110
 20
128.841101
 30
0.0
 11
6.141110
 21
128.841101
 31
0.0
  0
SPLINE
  5
171
100
AcDbEntity
  8
Layer_1
 62
7
100
AcDbSpline
 70
0
 71
3
 72
13
 73
9
 74
7
 40
0.000000
 40
0.000000
 40
0.000000
 40
0.000000
 40
0.736869
 40
1.473616
 40
2.210488
 40
2.269322
 40
2.328156
 40
2.386991
 40
2.386991
 40
2.386991
 40
2.386991
 10
7.891249
 20
130.220724
 30
0.0
 10
7.804280
 20
129.987251
 30
0.0
 10
7.630357
 20
129.520344
 30
0.0
 10
7.042392
 20
129.026781
 30
0.0
 10
6.542622
 20
128.867952
 30
0.0
 10
6.258720
 20
128.844718
 30
0.0
 10
6.199947
 20
128.841670
 30
0.0
 10
6.160723
 20
128.841290
 30
0.0
 10
6.141110
 20
128.841101
 30
0.0
 11
7.891249
 21
130.220724
 31
0.0
 11
7.575823
 21
129.554779
 31
0.0
 11
7.020275
 21
129.070877
 31
0.0
 11
6.317333
 21
128.849849
 31
0.0
 11
6.258698
 21
128.845010
 31
0.0
 11
6.199937
 21
128.842083
 31
0.0
 11
6.141110
 21
128.841101
 31
0.0
  0
SPLINE
  5
172
100
AcDbEntity
  8
Layer_1
 62
7
100
AcDbSpline
 70
0
 71
3
 72
10
 73
6
 74
4
 40
0.000000
 40
0.000000
 40
0.000000
 40
0.000000
 40
0.736944
 40
1.473712
 40
2.210652
 40
2.210652
 40
2.210652
 40
2.210652
 10
6.141110
 20
157.341100
 30
0.0
 10
5.894867
 20
157.371533
 30
0.0
 10
5.402439
 20
157.432392
 30
0.0
 10
4.768634
 20
157.883492
 30
0.0
 10
4.549842
 20
158.328821
 30
0.0
 10
4.440434
 20
158.551512
 30
0.0
 11
6.141110
 21
157.341100
 31
0.0
 11
5.419861
 21
157.492379
 31
0.0
 11
4.819603
 21
157.919600
 31
0.0
 11
4.440434
 21
158.551512
 31
0.0
  0
SPLINE
  5
173
100
AcDbEntity
  8
Layer_1
 62
7
100
AcDbSpline
 70
0
 71
3
 72
10
 73
6
 74
4
 40
0.000000
 40
0.000000
 40
0.000000
 40
0.000000
 40
0.736907
 40
1.473646
 40
2.210560
 40
2.210560
 40
2.210560
 40
2.210560
 10
4.440434
 20
158.551512
 30
0.0
 10
4.388511
 20
158.794123
 30
0.0
 10
4.284678
 20
159.279291
 30
0.0
 10
4.503264
 20
160.025873
 30
0.0
 10
4.852360
 20
160.378438
 30
0.0
 10
5.026928
 20
160.554742
 30
0.0
 11
4.440434
 21
158.551512
 31
0.0
 11
4.347068
 21
159.282480
 31
0.0
 11
4.554079
 21
159.989538
 31
0.0
 11
5.026928
 21
160.554742
 31
0.0
  0
SPLINE
  5
174
100
AcDbEntity
  8
Layer_1
 62
7
100
AcDbSpline
 70
0
 71
3
 72
10
 73
6
 74
4
 40
0.000000
 40
0.000000
 40
0.000000
 40
0.000000
 40
0.736901
 40
1.473642
 40
2.210542
 40
2.210542
 40
2.210542
 40
2.210542
 10
5.026928
 20
160.554742
 30
0.0
 10
5.239133
 20
160.683286
 30
0.0
 10
5.663497
 20
160.940348
 30
0.0
 10
6.440490
 20
160.978457
 30
0.0
 10
6.887950
 20
160.764096
 30
0.0
 10
7.111704
 20
160.656904
 30
0.0
 11
5.026928
 21
160.554742
 31
0.0
 11
5.686952
 21
160.882449
 31
0.0
 11
6.422809
 21
160.918525
 31
0.0
 11
7.111704
 21
160.656904
 31
0.0
  0
SPLINE
  5
175
100
AcDbEntity
  8
Layer_1
 62
7
100
AcDbSpline
 70
0
 71
3
 72
10
 73
6
 74
4
 40
0.000000
 40
0.000000
 40
0.000000
 40
0.000000
 40
0.736874
 40
1.473605
 40
2.210476
 40
2.210476
 40
2.210476
 40
2.210476
 10
7.111704
 20
160.656904
 30
0.0
 10
7.302668
 20
160.498530
 30
0.0
 10
7.684561
 20
160.181813
 30
0.0
 10
7.975148
 20
159.460222
 30
0.0
 10
7.919217
 20
158.967240
 30
0.0
 10
7.891249
 20
158.720726
 30
0.0
 11
7.111704
 21
160.656904
 31
0.0
 11
7.637545
 21
160.140692
 31
0.0
 11
7.912729
 21
159.457284
 31
0.0
 11
7.891249
 21
158.720726
 31
0.0
  0
LINE
  5
176
100
AcDbEntity
  8
Layer_1
 62
7
100
AcDbLine
 10
6.141110
 20
157.341100
 30
0.0
 11
6.141110
 21
157.341100
 31
0.0
  0
SPLINE
  5
177
100
AcDbEntity
  8
Layer_1
 62
7
100
AcDbSpline
 70
0
 71
3
 72
13
 73
9
 74
7
 40
0.000000
 40
0.000000
 40
0.000000
 40
0.000000
 40
0.736872
 40
1.473619
 40
2.210491
 40
2.269325
 40
2.328160
 40
2.386994
 40
2.386994
 40
2.386994
 40
2.386994
 10
7.891249
 20
158.720726
 30
0.0
 10
7.804281
 20
158.487252
 30
0.0
 10
7.630359
 20
158.020343
 30
0.0
 10
7.042392
 20
157.526779
 30
0.0
 10
6.542622
 20
157.367951
 30
0.0
 10
6.258720
 20
157.344718
 30
0.0
 10
6.199947
 20
157.341669
 30
0.0
 10
6.160723
 20
157.341290
 30
0.0
 10
6.141110
 20
157.341100
 30
0.0
 11
7.891249
 21
158.720726
 31
0.0
 11
7.575824
 21
158.054778
 31
0.0
 11
7.020275
 21
157.570876
 31
0.0
 11
6.317333
 21
157.349849
 31
0.0
 11
6.258698
 21
157.345009
 31
0.0
 11
6.199937
 21
157.342083
 31
0.0
 11
6.141110
 21
157.341100
 31
0.0
  0
SPLINE
  5
178
100
AcDbEntity
  8
Layer_1
 62
7
100
AcDbSpline
 70
0
 71
3
 72
10
 73
6
 74
4
 40
0.000000
 40
0.000000
 40
0.000000
 40
0.000000
 40
0.694089
 40
1.387944
 40
2.082171
 40
2.082171
 40
2.082171
 40
2.082171
 10
4.684911
 20
243.583100
 30
0.0
 10
4.570872
 20
243.786749
 30
0.0
 10
4.342831
 20
244.193977
 30
0.0
 10
4.310248
 20
244.921371
 30
0.0
 10
4.500023
 20
245.347742
 30
0.0
 10
4.594936
 20
245.560984
 30
0.0
 11
4.684911
 21
243.583100
 31
0.0
 11
4.394390
 21
244.213462
 31
0.0
 11
4.363100
 21
244.906612
 31
0.0
 11
4.594936
 21
245.560984
 31
0.0
  0
SPLINE
  5
179
100
AcDbEntity
  8
Layer_1
 62
7
100
AcDbSpline
 70
0
 71
3
 72
10
 73
6
 74
4
 40
0.000000
 40
0.000000
 40
0.000000
 40
0.000000
 40
0.690027
 40
1.379780
 40
2.069559
 40
2.069559
 40
2.069559
 40
2.069559
 10
4.594936
 20
245.560984
 30
0.0
 10
4.736044
 20
245.745063
 30
0.0
 10
5.018202
 20
246.113147
 30
0.0
 10
5.667615
 20
246.432338
 30
0.0
 10
6.131578
 20
246.427235
 30
0.0
 10
6.363564
 20
246.424683
 30
0.0
 11
4.594936
 21
245.560984
 31
0.0
 11
5.055975
 21
246.074385
 31
0.0
 11
5.675376
 21
246.377868
 31
0.0
 11
6.363564
 21
246.424683
 31
0.0
  0
SPLINE
  5
17a
100
AcDbEntity
  8
Layer_1
 62
7
100
AcDbSpline
 70
0
 71
3
 72
10
 73
6
 74
4
 40
0.000000
 40
0.000000
 40
0.000000
 40
0.000000
 40
0.735841
 40
1.472094
 40
2.207955
 40
2.207955
 40
2.207955
 40
2.207955
 10
6.363564
 20
246.424683
 30
0.0
 10
6.603889
 20
246.364474
 30
0.0
 10
7.084673
 20
246.244024
 30
0.0
 10
7.657470
 20
245.718563
 30
0.0
 10
7.818413
 20
245.249729
 30
0.0
 10
7.898864
 20
245.015375
 30
0.0
 11
6.363564
 21
246.424683
 31
0.0
 11
7.059830
 21
246.186618
 31
0.0
 11
7.602303
 21
245.688831
 31
0.0
 11
7.898864
 21
245.015375
 31
0.0
  0
SPLINE
  5
17b
100
AcDbEntity
  8
Layer_1
 62
7
100
AcDbSpline
 70
0
 71
3
 72
10
 73
6
 74
4
 40
0.000000
 40
0.000000
 40
0.000000
 40
0.000000
 40
0.747353
 40
1.495171
 40
2.242571
 40
2.242571
 40
2.242571
 40
2.242571
 10
7.898864
 20
245.015375
 30
0.0
 10
7.920726
 20
244.764596
 30
0.0
 10
7.964465
 20
244.262883
 30
0.0
 10
7.643032
 20
243.540296
 30
0.0
 10
7.241135
 20
243.236783
 30
0.0
 10
7.040242
 20
243.085068
 30
0.0
 11
7.898864
 21
245.015375
 31
0.0
 11
7.899980
 21
244.268023
 31
0.0
 11
7.596050
 21
243.584753
 31
0.0
 11
7.040242
 21
243.085068
 31
0.0
  0
SPLINE
  5
17c
100
AcDbEntity
  8
Layer_1
 62
7
100
AcDbSpline
 70
0
 71
3
 72
10
 73
6
 74
4
 40
0.000000
 40
0.000000
 40
0.000000
 40
0.000000
 40
0.734900
 40
1.470123
 40
2.205183
 40
2.205183
 40
2.205183
 40
2.205183
 10
7.040242
 20
243.085068
 30
0.0
 10
6.812647
 20
242.987897
 30
0.0
 10
6.357357
 20
242.793513
 30
0.0
 10
5.584641
 20
242.866822
 30
0.0
 10
5.173191
 20
243.141962
 30
0.0
 10
4.967489
 20
243.279516
 30
0.0
 11
7.040242
 21
243.085068
 31
0.0
 11
6.342500
 21
242.854343
 31
0.0
 11
5.610527
 21
242.923405
 31
0.0
 11
4.967489
 21
243.279516
 31
0.0
  0
LINE
  5
17d
100
AcDbEntity
  8
Layer_1
 62
7
100
AcDbLine
 10
4.684911
 20
243.583100
 30
0.0
 11
4.684911
 21
243.583100
 31
0.0
  0
SPLINE
  5
17e
100
AcDbEntity
  8
Layer_1
 62
7
100
AcDbSpline
 70
0
 71
3
 72
10
 73
6
 74
4
 40
0.000000
 40
0.000000
 40
0.000000
 40
0.000000
 40
0.138563
 40
0.277113
 40
0.415651
 40
0.415651
 40
0.415651
 40
0.415651
 10
4.967489
 20
243.279516
 30
0.0
 10
4.933009
 20
243.310259
 30
0.0
 10
4.864051
 20
243.371741
 30
0.0
 10
4.768651
 20
243.472634
 30
0.0
 10
4.712824
 20
243.546279
 30
0.0
 10
4.684911
 20
243.583100
 30
0.0
 11
4.967489
 21
243.279516
 31
0.0
 11
4.865387
 21
243.373190
 31
0.0
 11
4.770591
 21
243.474234
 31
0.0
 11
4.684911
 21
243.583100
 31
0.0
  0
SPLINE
  5
17f
100
AcDbEntity
  8
Layer_1
 62
7
100
AcDbSpline
 70
0
 71
3
 72
10
 73
6
 74
4
 40
0.000000
 40
0.000000
 40
0.000000
 40
0.000000
 40
0.736943
 40
1.473707
 40
2.210647
 40
2.210647
 40
2.210647
 40
2.210647
 10
4.684911
 20
215.083101
 30
0.0
 10
4.564776
 20
215.300194
 30
0.0
 10
4.324534
 20
215.734328
 30
0.0
 10
4.316913
 20
216.512246
 30
0.0
 10
4.548614
 20
216.950997
 30
0.0
 10
4.664479
 20
217.170399
 30
0.0
 11
4.684911
 21
215.083101
 31
0.0
 11
4.383310
 21
215.755501
 31
0.0
 11
4.376095
 21
216.492229
 31
0.0
 11
4.664479
 21
217.170399
 31
0.0
  0
SPLINE
  5
180
100
AcDbEntity
  8
Layer_1
 62
7
100
AcDbSpline
 70
0
 71
3
 72
10
 73
6
 74
4
 40
0.000000
 40
0.000000
 40
0.000000
 40
0.000000
 40
0.736910
 40
1.473650
 40
2.210555
 40
2.210555
 40
2.210555
 40
2.210555
 10
4.664479
 20
217.170399
 30
0.0
 10
4.830240
 20
217.355004
 30
0.0
 10
5.161723
 20
217.724170
 30
0.0
 10
5.894173
 20
217.986231
 30
0.0
 10
6.384600
 20
217.911042
 30
0.0
 10
6.629840
 20
217.873443
 30
0.0
 11
4.664479
 21
217.170399
 31
0.0
 11
5.200970
 21
217.675585
 31
0.0
 11
5.894655
 21
217.923753
 31
0.0
 11
6.629840
 21
217.873443
 31
0.0
  0
SPLINE
  5
181
100
AcDbEntity
  8
Layer_1
 62
7
100
AcDbSpline
 70
0
 71
3
 72
10
 73
6
 74
4
 40
0.000000
 40
0.000000
 40
0.000000
 40
0.000000
 40
0.736908
 40
1.473662
 40
2.210569
 40
2.210569
 40
2.210569
 40
2.210569
 10
6.629840
 20
217.873443
 30
0.0
 10
6.858561
 20
217.777306
 30
0.0
 10
7.315954
 20
217.585052
 30
0.0
 10
7.803496
 20
216.978859
 30
0.0
 10
7.893122
 20
216.490860
 30
0.0
 10
7.937940
 20
216.246836
 30
0.0
 11
6.629840
 21
217.873443
 31
0.0
 11
7.282901
 21
217.532055
 31
0.0
 11
7.744627
 21
216.957934
 31
0.0
 11
7.937940
 21
216.246836
 31
0.0
  0
SPLINE
  5
182
100
AcDbEntity
  8
Layer_1
 62
7
100
AcDbSpline
 70
0
 71
3
 72
10
 73
6
 74
4
 40
0.000000
 40
0.000000
 40
0.000000
 40
0.000000
 40
0.736880
 40
1.473623
 40
2.210507
 40
2.210507
 40
2.210507
 40
2.210507
 10
7.937940
 20
216.246836
 30
0.0
 10
7.922055
 20
215.999248
 30
0.0
 10
7.890288
 20
215.504121
 30
0.0
 10
7.477242
 20
214.844924
 30
0.0
 10
7.045540
 20
214.600393
 30
0.0
 10
6.829668
 20
214.478115
 30
0.0
 11
7.937940
 21
216.246836
 31
0.0
 11
7.829377
 21
215.517997
 31
0.0
 11
7.438190
 21
214.893687
 31
0.0
 11
6.829668
 21
214.478115
 31
0.0
  0
LINE
  5
183
100
AcDbEntity
  8
Layer_1
 62
7
100
AcDbLine
 10
4.684897
 20
215.083101
 30
0.0
 11
4.684911
 21
215.083101
 31
0.0
  0
SPLINE
  5
184
100
AcDbEntity
  8
Layer_1
 62
7
100
AcDbSpline
 70
0
 71
3
 72
13
 73
9
 74
7
 40
0.000000
 40
0.000000
 40
0.000000
 40
0.000000
 40
0.736854
 40
1.473580
 40
2.210438
 40
2.269273
 40
2.328109
 40
2.386944
 40
2.386944
 40
2.386944
 40
2.386944
 10
6.829668
 20
214.478115
 30
0.0
 10
6.589673
 20
214.411229
 30
0.0
 10
6.109725
 20
214.277469
 30
0.0
 10
5.364832
 20
214.463067
 30
0.0
 10
4.942644
 20
214.774074
 30
0.0
 10
4.756951
 20
214.990074
 30
0.0
 10
4.719942
 20
215.035835
 30
0.0
 10
4.696579
 20
215.067345
 30
0.0
 10
4.684897
 20
215.083101
 30
0.0
 11
6.829668
 21
214.478115
 31
0.0
 11
6.105525
 21
214.341840
 31
0.0
 11
5.387523
 21
214.506883
 31
0.0
 11
4.795560
 21
214.945675
 31
0.0
 11
4.757175
 21
214.990265
 31
0.0
 11
4.720269
 21
215.036086
 31
0.0
 11
4.684897
 21
215.083101
 31
0.0
  0
SPLINE
  5
185
100
AcDbEntity
  8
Layer_1
 62
7
100
AcDbSpline
 70
0
 71
3
 72
10
 73
6
 74
4
 40
0.000000
 40
0.000000
 40
0.000000
 40
0.000000
 40
0.736944
 40
1.473712
 40
2.210651
 40
2.210651
 40
2.210651
 40
2.210651
 10
4.684911
 20
186.583101
 30
0.0
 10
4.564774
 20
186.800194
 30
0.0
 10
4.324529
 20
187.234328
 30
0.0
 10
4.316906
 20
188.012249
 30
0.0
 10
4.548612
 20
188.450999
 30
0.0
 10
4.664479
 20
188.670400
 30
0.0
 11
4.684911
 21
186.583101
 31
0.0
 11
4.383305
 21
187.255500
 31
0.0
 11
4.376090
 21
187.992233
 31
0.0
 11
4.664479
 21
188.670400
 31
0.0
  0
SPLINE
  5
186
100
AcDbEntity
  8
Layer_1
 62
7
100
AcDbSpline
 70
0
 71
3
 72
10
 73
6
 74
4
 40
0.000000
 40
0.000000
 40
0.000000
 40
0.000000
 40
0.736910
 40
1.473649
 40
2.210556
 40
2.210556
 40
2.210556
 40
2.210556
 10
4.664479
 20
188.670400
 30
0.0
 10
4.830236
 20
188.855009
 30
0.0
 10
5.161713
 20
189.224185
 30
0.0
 10
5.894174
 20
189.486219
 30
0.0
 10
6.384599
 20
189.411036
 30
0.0
 10
6.629840
 20
189.373441
 30
0.0
 11
4.664479
 21
188.670400
 31
0.0
 11
5.200963
 21
189.175593
 31
0.0
 11
5.894652
 21
189.423747
 31
0.0
 11
6.629840
 21
189.373441
 31
0.0
  0
SPLINE
  5
187
100
AcDbEntity
  8
Layer_1
 62
7
100
AcDbSpline
 70
0
 71
3
 72
10
 73
6
 74
4
 40
0.000000
 40
0.000000
 40
0.000000
 40
0.000000
 40
0.736906
 40
1.473661
 40
2.210567
 40
2.210567
 40
2.210567
 40
2.210567
 10
6.629840
 20
189.373441
 30
0.0
 10
6.858562
 20
189.277308
 30
0.0
 10
7.315959
 20
189.085062
 30
0.0
 10
7.803499
 20
188.478866
 30
0.0
 10
7.893123
 20
187.990866
 30
0.0
 10
7.937940
 20
187.746842
 30
0.0
 11
6.629840
 21
189.373441
 31
0.0
 11
7.282904
 21
189.032064
 31
0.0
 11
7.744630
 21
188.457941
 31
0.0
 11
7.937940
 21
187.746842
 31
0.0
  0
SPLINE
  5
188
100
AcDbEntity
  8
Layer_1
 62
7
100
AcDbSpline
 70
0
 71
3
 72
10
 73
6
 74
4
 40
0.000000
 40
0.000000
 40
0.000000
 40
0.000000
 40
0.736885
 40
1.473635
 40
2.210523
 40
2.210523
 40
2.210523
 40
2.210523
 10
7.937940
 20
187.746842
 30
0.0
 10
7.922057
 20
187.499253
 30
0.0
 10
7.890293
 20
187.004121
 30
0.0
 10
7.477249
 20
186.344916
 30
0.0
 10
7.045542
 20
186.100384
 30
0.0
 10
6.829668
 20
185.978107
 30
0.0
 11
7.937940
 21
187.746842
 31
0.0
 11
7.829382
 21
187.017997
 31
0.0
 11
7.438194
 21
186.393679
 31
0.0
 11
6.829668
 21
185.978107
 31
0.0
  0
LINE
  5
189
100
AcDbEntity
  8
Layer_1
 62
7
100
AcDbLine
 10
4.684897
 20
186.583101
 30
0.0
 11
4.684911
 21
186.583101
 31
0.0
  0
SPLINE
  5
18a
100
AcDbEntity
  8
Layer_1
 62
7
100
AcDbSpline
 70
0
 71
3
 72
13
 73
9
 74
7
 40
0.000000
 40
0.000000
 40
0.000000
 40
0.000000
 40
0.736853
 40
1.473581
 40
2.210435
 40
2.269272
 40
2.328109
 40
2.386945
 40
2.386945
 40
2.386945
 40
2.386945
 10
6.829668
 20
185.978107
 30
0.0
 10
6.589673
 20
185.911229
 30
0.0
 10
6.109723
 20
185.777483
 30
0.0
 10
5.364827
 20
185.963052
 30
0.0
 10
4.942638
 20
186.274067
 30
0.0
 10
4.756951
 20
186.490071
 30
0.0
 10
4.719942
 20
186.535833
 30
0.0
 10
4.696579
 20
186.567345
 30
0.0
 10
4.684897
 20
186.583101
 30
0.0
 11
6.829668
 21
185.978107
 31
0.0
 11
6.105523
 21
185.841846
 31
0.0
 11
5.387517
 21
186.006875
 31
0.0
 11
4.795560
 21
186.445670
 31
0.0
 11
4.757175
 21
186.490262
 31
0.0
 11
4.720269
 21
186.536084
 31
0.0
 11
4.684897
 21
186.583101
 31
0.0
  0
SPLINE
  5
18b
100
AcDbEntity
  8
Layer_1
 62
7
100
AcDbSpline
 70
0
 71
3
 72
10
 73
6
 74
4
 40
0.000000
 40
0.000000
 40
0.000000
 40
0.000000
 40
1.125890
 40
2.251513
 40
3.377403
 40
3.377403
 40
3.377403
 40
3.377403
 10
32.007511
 20
246.415900
 30
0.0
 10
32.284550
 20
246.157168
 30
0.0
 10
32.838563
 20
245.639765
 30
0.0
 10
33.216898
 20
244.513045
 30
0.0
 10
33.087391
 20
243.766139
 30
0.0
 10
33.022630
 20
243.392642
 30
0.0
 11
32.007511
 21
246.415900
 31
0.0
 11
32.763161
 21
245.581261
 31
0.0
 11
33.121461
 21
244.514187
 31
0.0
 11
33.022630
 21
243.392642
 31
0.0
  0
SPLINE
  5
18c
100
AcDbEntity
  8
Layer_1
 62
7
100
AcDbSpline
 70
0
 71
3
 72
10
 73
6
 74
4
 40
0.000000
 40
0.000000
 40
0.000000
 40
0.000000
 40
1.125854
 40
2.251452
 40
3.377306
 40
3.377306
 40
3.377306
 40
3.377306
 10
33.022630
 20
243.392642
 30
0.0
 10
32.868930
 20
243.046146
 30
0.0
 10
32.561564
 20
242.353232
 30
0.0
 10
31.620974
 20
241.626700
 30
0.0
 10
30.872874
 20
241.504404
 30
0.0
 10
30.498782
 20
241.443249
 30
0.0
 11
33.022630
 21
243.392642
 31
0.0
 11
32.481593
 21
242.405310
 31
0.0
 11
31.590786
 21
241.717244
 31
0.0
 11
30.498782
 21
241.443249
 31
0.0
  0
SPLINE
  5
18d
100
AcDbEntity
  8
Layer_1
 62
7
100
AcDbSpline
 70
0
 71
3
 72
10
 73
6
 74
4
 40
0.000000
 40
0.000000
 40
0.000000
 40
0.000000
 40
1.125825
 40
2.251413
 40
3.377239
 40
3.377239
 40
3.377239
 40
3.377239
 10
30.498782
 20
241.443249
 30
0.0
 10
30.121063
 20
241.474945
 30
0.0
 10
29.365706
 20
241.538331
 30
0.0
 10
28.371132
 20
242.188981
 30
0.0
 10
28.010539
 20
242.855740
 30
0.0
 10
27.830224
 20
243.189155
 30
0.0
 11
30.498782
 21
241.443249
 31
0.0
 11
29.388714
 21
241.630948
 31
0.0
 11
28.446794
 21
242.247175
 31
0.0
 11
27.830224
 21
243.189155
 31
0.0
  0
SPLINE
  5
18e
100
AcDbEntity
  8
Layer_1
 62
7
100
AcDbSpline
 70
0
 71
3
 72
10
 73
6
 74
4
 40
0.000000
 40
0.000000
 40
0.000000
 40
0.000000
 40
1.125797
 40
2.251381
 40
3.377182
 40
3.377182
 40
3.377182
 40
3.377182
 10
27.830224
 20
243.189155
 30
0.0
 10
27.736407
 20
243.556398
 30
0.0
 10
27.548791
 20
244.290816
 30
0.0
 10
27.837687
 20
245.443657
 30
0.0
 10
28.349525
 20
246.002766
 30
0.0
 10
28.605469
 20
246.282347
 30
0.0
 11
27.830224
 21
243.189155
 31
0.0
 11
27.643843
 21
244.299417
 31
0.0
 11
27.917465
 21
245.391236
 31
0.0
 11
28.605469
 21
246.282347
 31
0.0
  0
SPLINE
  5
18f
100
AcDbEntity
  8
Layer_1
 62
7
100
AcDbSpline
 70
0
 71
3
 72
10
 73
6
 74
4
 40
0.000000
 40
0.000000
 40
0.000000
 40
0.000000
 40
1.125768
 40
2.251342
 40
3.377113
 40
3.377113
 40
3.377113
 40
3.377113
 10
28.605469
 20
246.282347
 30
0.0
 10
28.921688
 20
246.491315
 30
0.0
 10
29.554072
 20
246.909216
 30
0.0
 10
30.737920
 20
247.013982
 30
0.0
 10
31.433843
 20
246.713562
 30
0.0
 10
31.781835
 20
246.563339
 30
0.0
 11
28.605469
 21
246.282347
 31
0.0
 11
29.593340
 21
246.822222
 31
0.0
 11
30.714533
 21
246.921426
 31
0.0
 11
31.781835
 21
246.563339
 31
0.0
  0
LINE
  5
190
100
AcDbEntity
  8
Layer_1
 62
7
100
AcDbLine
 10
32.007511
 20
246.415900
 30
0.0
 11
32.007511
 21
246.415900
 31
0.0
  0
SPLINE
  5
191
100
AcDbEntity
  8
Layer_1
 62
7
100
AcDbSpline
 70
0
 71
3
 72
10
 73
6
 74
4
 40
0.000000
 40
0.000000
 40
0.000000
 40
0.000000
 40
0.089889
 40
0.179778
 40
0.269667
 40
0.269667
 40
0.269667
 40
0.269667
 10
31.781835
 20
246.563339
 30
0.0
 10
31.807546
 20
246.547949
 30
0.0
 10
31.858967
 20
246.517170
 30
0.0
 10
31.934259
 20
246.468006
 30
0.0
 10
31.983094
 20
246.433269
 30
0.0
 10
32.007511
 20
246.415900
 30
0.0
 11
31.781835
 21
246.563339
 31
0.0
 11
31.858661
 21
246.516671
 31
0.0
 11
31.933919
 21
246.467516
 31
0.0
 11
32.007511
 21
246.415900
 31
0.0
  0
SPLINE
  5
192
100
AcDbEntity
  8
Layer_1
 62
7
100
AcDbSpline
 70
0
 71
3
 72
10
 73
6
 74
4
 40
0.000000
 40
0.000000
 40
0.000000
 40
0.000000
 40
1.125890
 40
2.251513
 40
3.377403
 40
3.377403
 40
3.377403
 40
3.377403
 10
32.007511
 20
133.315900
 30
0.0
 10
32.284550
 20
133.057168
 30
0.0
 10
32.838563
 20
132.539765
 30
0.0
 10
33.216898
 20
131.413045
 30
0.0
 10
33.087391
 20
130.666140
 30
0.0
 10
33.022630
 20
130.292643
 30
0.0
 11
32.007511
 21
133.315900
 31
0.0
 11
32.763161
 21
132.481262
 31
0.0
 11
33.121461
 21
131.414187
 31
0.0
 11
33.022630
 21
130.292643
 31
0.0
  0
SPLINE
  5
193
100
AcDbEntity
  8
Layer_1
 62
7
100
AcDbSpline
 70
0
 71
3
 72
10
 73
6
 74
4
 40
0.000000
 40
0.000000
 40
0.000000
 40
0.000000
 40
1.125854
 40
2.251452
 40
3.377306
 40
3.377306
 40
3.377306
 40
3.377306
 10
33.022630
 20
130.292643
 30
0.0
 10
32.868930
 20
129.946146
 30
0.0
 10
32.561564
 20
129.253233
 30
0.0
 10
31.620974
 20
128.526700
 30
0.0
 10
30.872874
 20
128.404404
 30
0.0
 10
30.498782
 20
128.343249
 30
0.0
 11
33.022630
 21
130.292643
 31
0.0
 11
32.481593
 21
129.305310
 31
0.0
 11
31.590786
 21
128.617245
 31
0.0
 11
30.498782
 21
128.343249
 31
0.0
  0
SPLINE
  5
194
100
AcDbEntity
  8
Layer_1
 62
7
100
AcDbSpline
 70
0
 71
3
 72
10
 73
6
 74
4
 40
0.000000
 40
0.000000
 40
0.000000
 40
0.000000
 40
1.125825
 40
2.251413
 40
3.377239
 40
3.377239
 40
3.377239
 40
3.377239
 10
30.498782
 20
128.343249
 30
0.0
 10
30.121063
 20
128.374945
 30
0.0
 10
29.365706
 20
128.438331
 30
0.0
 10
28.371132
 20
129.088982
 30
0.0
 10
28.010539
 20
129.755740
 30
0.0
 10
27.830224
 20
130.089155
 30
0.0
 11
30.498782
 21
128.343249
 31
0.0
 11
29.388714
 21
128.530949
 31
0.0
 11
28.446794
 21
129.147175
 31
0.0
 11
27.830224
 21
130.089155
 31
0.0
  0
SPLINE
  5
195
100
AcDbEntity
  8
Layer_1
 62
7
100
AcDbSpline
 70
0
 71
3
 72
10
 73
6
 74
4
 40
0.000000
 40
0.000000
 40
0.000000
 40
0.000000
 40
1.125797
 40
2.251381
 40
3.377182
 40
3.377182
 40
3.377182
 40
3.377182
 10
27.830224
 20
130.089155
 30
0.0
 10
27.736407
 20
130.456399
 30
0.0
 10
27.548791
 20
131.190816
 30
0.0
 10
27.837687
 20
132.343658
 30
0.0
 10
28.349525
 20
132.902766
 30
0.0
 10
28.605469
 20
133.182347
 30
0.0
 11
27.830224
 21
130.089155
 31
0.0
 11
27.643843
 21
131.199417
 31
0.0
 11
27.917465
 21
132.291236
 31
0.0
 11
28.605469
 21
133.182347
 31
0.0
  0
SPLINE
  5
196
100
AcDbEntity
  8
Layer_1
 62
7
100
AcDbSpline
 70
0
 71
3
 72
10
 73
6
 74
4
 40
0.000000
 40
0.000000
 40
0.000000
 40
0.000000
 40
1.125768
 40
2.251342
 40
3.377113
 40
3.377113
 40
3.377113
 40
3.377113
 10
28.605469
 20
133.182347
 30
0.0
 10
28.921688
 20
133.391316
 30
0.0
 10
29.554072
 20
133.809216
 30
0.0
 10
30.737920
 20
133.913982
 30
0.0
 10
31.433843
 20
133.613562
 30
0.0
 10
31.781835
 20
133.463339
 30
0.0
 11
28.605469
 21
133.182347
 31
0.0
 11
29.593340
 21
133.722223
 31
0.0
 11
30.714533
 21
133.821427
 31
0.0
 11
31.781835
 21
133.463339
 31
0.0
  0
LINE
  5
197
100
AcDbEntity
  8
Layer_1
 62
7
100
AcDbLine
 10
32.007511
 20
133.315900
 30
0.0
 11
32.007511
 21
133.315900
 31
0.0
  0
SPLINE
  5
198
100
AcDbEntity
  8
Layer_1
 62
7
100
AcDbSpline
 70
0
 71
3
 72
10
 73
6
 74
4
 40
0.000000
 40
0.000000
 40
0.000000
 40
0.000000
 40
0.089889
 40
0.179778
 40
0.269667
 40
0.269667
 40
0.269667
 40
0.269667
 10
31.781835
 20
133.463339
 30
0.0
 10
31.807546
 20
133.447950
 30
0.0
 10
31.858967
 20
133.417171
 30
0.0
 10
31.934259
 20
133.368007
 30
0.0
 10
31.983094
 20
133.333269
 30
0.0
 10
32.007511
 20
133.315900
 30
0.0
 11
31.781835
 21
133.463339
 31
0.0
 11
31.858661
 21
133.416671
 31
0.0
 11
31.933919
 21
133.367516
 31
0.0
 11
32.007511
 21
133.315900
 31
0.0
  0
SPLINE
  5
199
100
AcDbEntity
  8
Layer_1
 62
7
100
AcDbSpline
 70
0
 71
3
 72
10
 73
6
 74
4
 40
0.000000
 40
0.000000
 40
0.000000
 40
0.000000
 40
0.736941
 40
1.473707
 40
2.210644
 40
2.210644
 40
2.210644
 40
2.210644
 10
53.083116
 20
132.097302
 30
0.0
 10
53.300207
 20
132.217439
 30
0.0
 10
53.734338
 20
132.457687
 30
0.0
 10
54.512257
 20
132.465309
 30
0.0
 10
54.951006
 20
132.233602
 30
0.0
 10
55.170406
 20
132.117734
 30
0.0
 11
53.083116
 21
132.097302
 31
0.0
 11
53.755510
 21
132.398910
 31
0.0
 11
54.492241
 21
132.406125
 31
0.0
 11
55.170406
 21
132.117734
 31
0.0
  0
SPLINE
  5
19a
100
AcDbEntity
  8
Layer_1
 62
7
100
AcDbSpline
 70
0
 71
3
 72
10
 73
6
 74
4
 40
0.000000
 40
0.000000
 40
0.000000
 40
0.000000
 40
0.736910
 40
1.473647
 40
2.210556
 40
2.210556
 40
2.210556
 40
2.210556
 10
55.170406
 20
132.117734
 30
0.0
 10
55.355015
 20
131.951977
 30
0.0
 10
55.724191
 20
131.620501
 30
0.0
 10
55.986223
 20
130.888040
 30
0.0
 10
55.911046
 20
130.397614
 30
0.0
 10
55.873452
 20
130.152373
 30
0.0
 11
55.170406
 21
132.117734
 31
0.0
 11
55.675600
 21
131.581250
 31
0.0
 11
55.923753
 21
130.887563
 31
0.0
 11
55.873452
 21
130.152373
 31
0.0
  0
SPLINE
  5
19b
100
AcDbEntity
  8
Layer_1
 62
7
100
AcDbSpline
 70
0
 71
3
 72
10
 73
6
 74
4
 40
0.000000
 40
0.000000
 40
0.000000
 40
0.000000
 40
0.736905
 40
1.473661
 40
2.210564
 40
2.210564
 40
2.210564
 40
2.210564
 10
55.873452
 20
130.152373
 30
0.0
 10
55.777317
 20
129.923652
 30
0.0
 10
55.585066
 20
129.466258
 30
0.0
 10
54.978875
 20
128.978715
 30
0.0
 10
54.490877
 20
128.889090
 30
0.0
 10
54.246853
 20
128.844273
 30
0.0
 11
55.873452
 21
130.152373
 31
0.0
 11
55.532070
 21
129.499312
 31
0.0
 11
54.957949
 21
129.037584
 31
0.0
 11
54.246853
 21
128.844273
 31
0.0
  0
SPLINE
  5
19c
100
AcDbEntity
  8
Layer_1
 62
7
100
AcDbSpline
 70
0
 71
3
 72
10
 73
6
 74
4
 40
0.000000
 40
0.000000
 40
0.000000
 40
0.000000
 40
0.736885
 40
1.473635
 40
2.210526
 40
2.210526
 40
2.210526
 40
2.210526
 10
54.246853
 20
128.844273
 30
0.0
 10
53.999264
 20
128.860155
 30
0.0
 10
53.504131
 20
128.891916
 30
0.0
 10
52.844932
 20
129.304971
 30
0.0
 10
52.600394
 20
129.736673
 30
0.0
 10
52.478113
 20
129.952545
 30
0.0
 11
54.246853
 21
128.844273
 31
0.0
 11
53.518008
 21
128.952830
 31
0.0
 11
52.893694
 21
129.344022
 31
0.0
 11
52.478113
 21
129.952545
 31
0.0
  0
LINE
  5
19d
100
AcDbEntity
  8
Layer_1
 62
7
100
AcDbLine
 10
53.083116
 20
132.097316
 30
0.0
 11
53.083116
 21
132.097302
 31
0.0
  0
SPLINE
  5
19e
100
AcDbEntity
  8
Layer_1
 62
7
100
AcDbSpline
 70
0
 71
3
 72
13
 73
9
 74
7
 40
0.000000
 40
0.000000
 40
0.000000
 40
0.000000
 40
0.736855
 40
1.473582
 40
2.210438
 40
2.269274
 40
2.328110
 40
2.386946
 40
2.386946
 40
2.386946
 40
2.386946
 10
52.478113
 20
129.952545
 30
0.0
 10
52.411237
 20
130.192541
 30
0.0
 10
52.277497
 20
130.672492
 30
0.0
 10
52.463060
 20
131.417392
 30
0.0
 10
52.774086
 20
131.839571
 30
0.0
 10
52.990087
 20
132.025262
 30
0.0
 10
53.035849
 20
132.062271
 30
0.0
 10
53.067360
 20
132.085634
 30
0.0
 10
53.083116
 20
132.097316
 30
0.0
 11
52.478113
 21
129.952545
 31
0.0
 11
52.341858
 21
130.676693
 31
0.0
 11
52.506887
 21
131.394699
 31
0.0
 11
52.945688
 21
131.986654
 31
0.0
 11
52.990278
 21
132.025038
 31
0.0
 11
53.036100
 21
132.061944
 31
0.0
 11
53.083116
 21
132.097316
 31
0.0
  0
SPLINE
  5
19f
100
AcDbEntity
  8
Layer_1
 62
7
100
AcDbSpline
 70
0
 71
3
 72
10
 73
6
 74
4
 40
0.000000
 40
0.000000
 40
0.000000
 40
0.000000
 40
0.736933
 40
1.473693
 40
2.210632
 40
2.210632
 40
2.210632
 40
2.210632
 10
55.941095
 20
244.641100
 30
0.0
 10
55.910675
 20
244.394857
 30
0.0
 10
55.849842
 20
243.902429
 30
0.0
 10
55.398731
 20
243.268639
 30
0.0
 10
54.953414
 20
243.049836
 30
0.0
 10
54.730729
 20
242.940421
 30
0.0
 11
55.941095
 21
244.641100
 31
0.0
 11
55.789847
 21
243.919855
 31
0.0
 11
55.362630
 21
243.319605
 31
0.0
 11
54.730729
 21
242.940421
 31
0.0
  0
SPLINE
  5
1a0
100
AcDbEntity
  8
Layer_1
 62
7
100
AcDbSpline
 70
0
 71
3
 72
10
 73
6
 74
4
 40
0.000000
 40
0.000000
 40
0.000000
 40
0.000000
 40
0.736919
 40
1.473667
 40
2.210593
 40
2.210593
 40
2.210593
 40
2.210593
 10
54.730729
 20
242.940421
 30
0.0
 10
54.488114
 20
242.888497
 30
0.0
 10
54.002939
 20
242.784663
 30
0.0
 10
53.256347
 20
243.003252
 30
0.0
 10
52.903771
 20
243.352347
 30
0.0
 10
52.727462
 20
243.526915
 30
0.0
 11
54.730729
 21
242.940421
 31
0.0
 11
53.999749
 21
242.847054
 31
0.0
 11
53.292682
 21
243.054065
 31
0.0
 11
52.727462
 21
243.526915
 31
0.0
  0
SPLINE
  5
1a1
100
AcDbEntity
  8
Layer_1
 62
7
100
AcDbSpline
 70
0
 71
3
 72
10
 73
6
 74
4
 40
0.000000
 40
0.000000
 40
0.000000
 40
0.000000
 40
0.736896
 40
1.473639
 40
2.210535
 40
2.210535
 40
2.210535
 40
2.210535
 10
52.727462
 20
243.526915
 30
0.0
 10
52.598921
 20
243.739121
 30
0.0
 10
52.341867
 20
244.163488
 30
0.0
 10
52.303765
 20
244.940476
 30
0.0
 10
52.518114
 20
245.387939
 30
0.0
 10
52.625300
 20
245.611694
 30
0.0
 11
52.727462
 21
243.526915
 31
0.0
 11
52.399766
 21
244.186938
 31
0.0
 11
52.363692
 21
244.922797
 31
0.0
 11
52.625300
 21
245.611694
 31
0.0
  0
SPLINE
  5
1a2
100
AcDbEntity
  8
Layer_1
 62
7
100
AcDbSpline
 70
0
 71
3
 72
10
 73
6
 74
4
 40
0.000000
 40
0.000000
 40
0.000000
 40
0.000000
 40
0.736886
 40
1.473626
 40
2.210509
 40
2.210509
 40
2.210509
 40
2.210509
 10
52.625300
 20
245.611694
 30
0.0
 10
52.783678
 20
245.802660
 30
0.0
 10
53.100403
 20
246.184554
 30
0.0
 10
53.822004
 20
246.475146
 30
0.0
 10
54.314993
 20
246.419212
 30
0.0
 10
54.561511
 20
246.391242
 30
0.0
 11
52.625300
 21
245.611694
 31
0.0
 11
53.141525
 21
246.137539
 31
0.0
 11
53.824941
 21
246.412725
 31
0.0
 11
54.561511
 21
246.391242
 31
0.0
  0
LINE
  5
1a3
100
AcDbEntity
  8
Layer_1
 62
7
100
AcDbLine
 10
55.941098
 20
244.641100
 30
0.0
 11
55.941095
 21
244.641100
 31
0.0
  0
SPLINE
  5
1a4
100
AcDbEntity
  8
Layer_1
 62
7
100
AcDbSpline
 70
0
 71
3
 72
13
 73
9
 74
7
 40
0.000000
 40
0.000000
 40
0.000000
 40
0.000000
 40
0.736864
 40
1.473605
 40
2.210467
 40
2.269301
 40
2.328136
 40
2.386970
 40
2.386970
 40
2.386970
 40
2.386970
 10
54.561511
 20
246.391242
 30
0.0
 10
54.794980
 20
246.304269
 30
0.0
 10
55.261878
 20
246.130336
 30
0.0
 10
55.755448
 20
245.542383
 30
0.0
 10
55.914247
 20
245.042609
 30
0.0
 10
55.937481
 20
244.758711
 30
0.0
 10
55.940529
 20
244.699937
 30
0.0
 10
55.940908
 20
244.660713
 30
0.0
 10
55.941098
 20
244.641100
 30
0.0
 11
54.561511
 21
246.391242
 31
0.0
 11
55.227445
 21
246.075806
 31
0.0
 11
55.711344
 21
245.520261
 31
0.0
 11
55.932349
 21
244.817323
 31
0.0
 11
55.937189
 21
244.758688
 31
0.0
 11
55.940116
 21
244.699927
 31
0.0
 11
55.941098
 21
244.641100
 31
0.0
  0
SPLINE
  5
1a5
100
AcDbEntity
  8
Layer_1
 62
7
100
AcDbSpline
 70
0
 71
3
 72
10
 73
6
 74
4
 40
0.000000
 40
0.000000
 40
0.000000
 40
0.000000
 40
1.125895
 40
2.251523
 40
3.377418
 40
3.377418
 40
3.377418
 40
3.377418
 10
77.041299
 20
246.806501
 30
0.0
 10
77.413459
 20
246.878552
 30
0.0
 10
78.157690
 20
247.022637
 30
0.0
 10
79.291612
 20
246.666447
 30
0.0
 10
79.819749
 20
246.122650
 30
0.0
 10
80.083849
 20
245.850719
 30
0.0
 11
77.041299
 21
246.806501
 31
0.0
 11
78.160701
 21
246.927248
 31
0.0
 11
79.234590
 21
246.589907
 31
0.0
 11
80.083849
 21
245.850719
 31
0.0
  0
SPLINE
  5
1a6
100
AcDbEntity
  8
Layer_1
 62
7
100
AcDbSpline
 70
0
 71
3
 72
10
 73
6
 74
4
 40
0.000000
 40
0.000000
 40
0.000000
 40
0.000000
 40
1.125848
 40
2.251441
 40
3.377291
 40
3.377291
 40
3.377291
 40
3.377291
 10
80.083849
 20
245.850719
 30
0.0
 10
80.273824
 20
245.522708
 30
0.0
 10
80.653730
 20
244.866759
 30
0.0
 10
80.688644
 20
243.678768
 30
0.0
 10
80.347867
 20
243.001660
 30
0.0
 10
80.177459
 20
242.663067
 30
0.0
 11
80.083849
 21
245.850719
 31
0.0
 11
80.564595
 21
244.832674
 31
0.0
 11
80.597649
 21
243.707566
 31
0.0
 11
80.177459
 21
242.663067
 31
0.0
  0
SPLINE
  5
1a7
100
AcDbEntity
  8
Layer_1
 62
7
100
AcDbSpline
 70
0
 71
3
 72
10
 73
6
 74
4
 40
0.000000
 40
0.000000
 40
0.000000
 40
0.000000
 40
1.125833
 40
2.251430
 40
3.377266
 40
3.377266
 40
3.377266
 40
3.377266
 10
80.177459
 20
242.663067
 30
0.0
 10
79.929800
 20
242.376111
 30
0.0
 10
79.434534
 20
241.802260
 30
0.0
 10
78.323536
 20
241.380083
 30
0.0
 10
77.572161
 20
241.480271
 30
0.0
 10
77.196434
 20
241.530371
 30
0.0
 11
80.177459
 21
242.663067
 31
0.0
 11
79.373126
 21
241.875318
 31
0.0
 11
78.320931
 21
241.475500
 31
0.0
 11
77.196434
 21
241.530371
 31
0.0
  0
SPLINE
  5
1a8
100
AcDbEntity
  8
Layer_1
 62
7
100
AcDbSpline
 70
0
 71
3
 72
10
 73
6
 74
4
 40
0.000000
 40
0.000000
 40
0.000000
 40
0.000000
 40
1.125790
 40
2.251365
 40
3.377160
 40
3.377160
 40
3.377160
 40
3.377160
 10
77.196434
 20
241.530371
 30
0.0
 10
76.844186
 20
241.670332
 30
0.0
 10
76.139757
 20
241.950228
 30
0.0
 10
75.376911
 20
242.861574
 30
0.0
 10
75.225437
 20
243.604291
 30
0.0
 10
75.149693
 20
243.975685
 30
0.0
 11
77.196434
 21
241.530371
 31
0.0
 11
76.188670
 21
242.032182
 31
0.0
 11
75.466212
 21
242.895301
 31
0.0
 11
75.149693
 21
243.975685
 31
0.0
  0
SPLINE
  5
1a9
100
AcDbEntity
  8
Layer_1
 62
7
100
AcDbSpline
 70
0
 71
3
 72
10
 73
6
 74
4
 40
0.000000
 40
0.000000
 40
0.000000
 40
0.000000
 40
1.125767
 40
2.251341
 40
3.377109
 40
3.377109
 40
3.377109
 40
3.377109
 10
75.149693
 20
243.975685
 30
0.0
 10
75.166502
 20
244.354340
 30
0.0
 10
75.200116
 20
245.111585
 30
0.0
 10
75.811195
 20
246.130923
 30
0.0
 10
76.463291
 20
246.517357
 30
0.0
 10
76.789367
 20
246.710591
 30
0.0
 11
75.149693
 21
243.975685
 31
0.0
 11
75.293575
 21
245.092220
 31
0.0
 11
75.872330
 21
246.057601
 31
0.0
 11
76.789367
 21
246.710591
 31
0.0
  0
LINE
  5
1aa
100
AcDbEntity
  8
Layer_1
 62
7
100
AcDbLine
 10
77.041299
 20
246.806501
 30
0.0
 11
77.041299
 21
246.806501
 31
0.0
  0
SPLINE
  5
1ab
100
AcDbEntity
  8
Layer_1
 62
7
100
AcDbSpline
 70
0
 71
3
 72
10
 73
6
 74
4
 40
0.000000
 40
0.000000
 40
0.000000
 40
0.000000
 40
0.089890
 40
0.179779
 40
0.269668
 40
0.269668
 40
0.269668
 40
0.269668
 10
76.789367
 20
246.710591
 30
0.0
 10
76.816931
 20
246.722345
 30
0.0
 10
76.872057
 20
246.745854
 30
0.0
 10
76.956087
 20
246.777867
 30
0.0
 10
77.012895
 20
246.796956
 30
0.0
 10
77.041299
 20
246.806501
 30
0.0
 11
76.789367
 21
246.710591
 31
0.0
 11
76.872281
 21
246.745312
 31
0.0
 11
76.956284
 21
246.777304
 31
0.0
 11
77.041299
 21
246.806501
 31
0.0
  0
SPLINE
  5
1ac
100
AcDbEntity
  8
Layer_1
 62
7
100
AcDbSpline
 70
0
 71
3
 72
10
 73
6
 74
4
 40
0.000000
 40
0.000000
 40
0.000000
 40
0.000000
 40
1.125889
 40
2.251510
 40
3.377398
 40
3.377398
 40
3.377398
 40
3.377398
 10
79.507526
 20
128.866303
 30
0.0
 10
79.175846
 20
128.682778
 30
0.0
 10
78.512566
 20
128.315772
 30
0.0
 10
77.324083
 20
128.304136
 30
0.0
 10
76.653752
 20
128.658104
 30
0.0
 10
76.318547
 20
128.835109
 30
0.0
 11
79.507526
 21
128.866303
 31
0.0
 11
78.480227
 21
128.405562
 31
0.0
 11
77.354660
 21
128.394547
 31
0.0
 11
76.318547
 21
128.835109
 31
0.0
  0
SPLINE
  5
1ad
100
AcDbEntity
  8
Layer_1
 62
7
100
AcDbSpline
 70
0
 71
3
 72
10
 73
6
 74
4
 40
0.000000
 40
0.000000
 40
0.000000
 40
0.000000
 40
1.125856
 40
2.251455
 40
3.377311
 40
3.377311
 40
3.377311
 40
3.377311
 10
76.318547
 20
128.835109
 30
0.0
 10
76.036507
 20
129.088362
 30
0.0
 10
75.472490
 20
129.594810
 30
0.0
 10
75.072181
 20
130.713879
 30
0.0
 10
75.187048
 20
131.463156
 30
0.0
 10
75.244489
 20
131.837838
 30
0.0
 11
76.318547
 21
128.835109
 31
0.0
 11
75.546731
 21
129.654774
 31
0.0
 11
75.167622
 21
130.714609
 31
0.0
 11
75.244489
 21
131.837838
 31
0.0
  0
SPLINE
  5
1ae
100
AcDbEntity
  8
Layer_1
 62
7
100
AcDbSpline
 70
0
 71
3
 72
10
 73
6
 74
4
 40
0.000000
 40
0.000000
 40
0.000000
 40
0.000000
 40
1.125820
 40
2.251401
 40
3.377223
 40
3.377223
 40
3.377223
 40
3.377223
 10
75.244489
 20
131.837838
 30
0.0
 10
75.391351
 20
132.187275
 30
0.0
 10
75.685043
 20
132.886076
 30
0.0
 10
76.611185
 20
133.630908
 30
0.0
 10
77.356734
 20
133.767815
 30
0.0
 10
77.729548
 20
133.836276
 30
0.0
 11
75.244489
 21
131.837838
 31
0.0
 11
75.766020
 21
132.835574
 31
0.0
 11
76.643148
 21
133.540967
 31
0.0
 11
77.729548
 21
133.836276
 31
0.0
  0
SPLINE
  5
1af
100
AcDbEntity
  8
Layer_1
 62
7
100
AcDbSpline
 70
0
 71
3
 72
10
 73
6
 74
4
 40
0.000000
 40
0.000000
 40
0.000000
 40
0.000000
 40
1.125803
 40
2.251388
 40
3.377194
 40
3.377194
 40
3.377194
 40
3.377194
 10
77.729548
 20
133.836276
 30
0.0
 10
78.107811
 20
133.812017
 30
0.0
 10
78.864262
 20
133.763503
 30
0.0
 10
79.871413
 20
133.132502
 30
0.0
 10
80.244989
 20
132.472938
 30
0.0
 10
80.431795
 20
132.143123
 30
0.0
 11
77.729548
 21
133.836276
 31
0.0
 11
78.843071
 21
133.670446
 31
0.0
 11
79.796903
 21
133.072827
 31
0.0
 11
80.431795
 21
132.143123
 31
0.0
  0
SPLINE
  5
1b0
100
AcDbEntity
  8
Layer_1
 62
7
100
AcDbSpline
 70
0
 71
3
 72
10
 73
6
 74
4
 40
0.000000
 40
0.000000
 40
0.000000
 40
0.000000
 40
1.125769
 40
2.251345
 40
3.377116
 40
3.377116
 40
3.377116
 40
3.377116
 10
80.431795
 20
132.143123
 30
0.0
 10
80.532816
 20
131.777805
 30
0.0
 10
80.734841
 20
131.047232
 30
0.0
 10
80.468658
 20
129.888951
 30
0.0
 10
79.967894
 20
129.319918
 30
0.0
 10
79.717491
 20
129.035377
 30
0.0
 11
80.431795
 21
132.143123
 31
0.0
 11
80.639973
 21
131.036770
 31
0.0
 11
80.387859
 21
129.939793
 31
0.0
 11
79.717491
 21
129.035377
 31
0.0
  0
LINE
  5
1b1
100
AcDbEntity
  8
Layer_1
 62
7
100
AcDbLine
 10
79.507526
 20
128.866303
 30
0.0
 11
79.507526
 21
128.866303
 31
0.0
  0
SPLINE
  5
1b2
100
AcDbEntity
  8
Layer_1
 62
7
100
AcDbSpline
 70
0
 71
3
 72
10
 73
6
 74
4
 40
0.000000
 40
0.000000
 40
0.000000
 40
0.000000
 40
0.089891
 40
0.179782
 40
0.269673
 40
0.269673
 40
0.269673
 40
0.269673
 10
79.717491
 20
129.035377
 30
0.0
 10
79.694909
 20
129.015679
 30
0.0
 10
79.649745
 20
128.976285
 30
0.0
 10
79.579720
 20
128.919870
 30
0.0
 10
79.531590
 20
128.884159
 30
0.0
 10
79.507526
 20
128.866303
 30
0.0
 11
79.717491
 21
129.035377
 31
0.0
 11
79.649365
 21
128.976731
 31
0.0
 11
79.579358
 21
128.920345
 31
0.0
 11
79.507526
 21
128.866303
 31
0.0
  0
SPLINE
  5
1b3
100
AcDbEntity
  8
Layer_1
 62
7
100
AcDbSpline
 70
0
 71
3
 72
10
 73
6
 74
4
 40
0.000000
 40
0.000000
 40
0.000000
 40
0.000000
 40
0.736948
 40
1.473726
 40
2.210671
 40
2.210671
 40
2.210671
 40
2.210671
 10
103.941112
 20
187.641102
 30
0.0
 10
103.910680
 20
187.394857
 30
0.0
 10
103.849822
 20
186.902426
 30
0.0
 10
103.398731
 20
186.268602
 30
0.0
 10
102.953389
 20
186.049822
 30
0.0
 10
102.730692
 20
185.940419
 30
0.0
 11
103.941112
 21
187.641102
 31
0.0
 11
103.789837
 21
186.919848
 31
0.0
 11
103.362617
 21
186.319577
 31
0.0
 11
102.730692
 21
185.940419
 31
0.0
  0
SPLINE
  5
1b4
100
AcDbEntity
  8
Layer_1
 62
7
100
AcDbSpline
 70
0
 71
3
 72
10
 73
6
 74
4
 40
0.000000
 40
0.000000
 40
0.000000
 40
0.000000
 40
0.736903
 40
1.473639
 40
2.210544
 40
2.210544
 40
2.210544
 40
2.210544
 10
102.730692
 20
185.940419
 30
0.0
 10
102.488082
 20
185.888504
 30
0.0
 10
102.002917
 20
185.784687
 30
0.0
 10
101.256330
 20
186.003238
 30
0.0
 10
100.903774
 20
186.352342
 30
0.0
 10
100.727476
 20
186.526914
 30
0.0
 11
102.730692
 21
185.940419
 31
0.0
 11
101.999727
 21
185.847067
 31
0.0
 11
101.292666
 21
186.054062
 31
0.0
 11
100.727476
 21
186.526914
 31
0.0
  0
SPLINE
  5
1b5
100
AcDbEntity
  8
Layer_1
 62
7
100
AcDbSpline
 70
0
 71
3
 72
10
 73
6
 74
4
 40
0.000000
 40
0.000000
 40
0.000000
 40
0.000000
 40
0.736906
 40
1.473652
 40
2.210556
 40
2.210556
 40
2.210556
 40
2.210556
 10
100.727476
 20
186.526914
 30
0.0
 10
100.598931
 20
186.739120
 30
0.0
 10
100.341868
 20
187.163487
 30
0.0
 10
100.303758
 20
187.940485
 30
0.0
 10
100.518123
 20
188.387946
 30
0.0
 10
100.625317
 20
188.611700
 30
0.0
 11
100.727476
 21
186.526914
 31
0.0
 11
100.399767
 21
187.186941
 31
0.0
 11
100.363690
 21
187.922803
 31
0.0
 11
100.625317
 21
188.611700
 31
0.0
  0
SPLINE
  5
1b6
100
AcDbEntity
  8
Layer_1
 62
7
100
AcDbSpline
 70
0
 71
3
 72
10
 73
6
 74
4
 40
0.000000
 40
0.000000
 40
0.000000
 40
0.000000
 40
0.736867
 40
1.473592
 40
2.210459
 40
2.210459
 40
2.210459
 40
2.210459
 10
100.625317
 20
188.611700
 30
0.0
 10
100.783685
 20
188.802669
 30
0.0
 10
101.100390
 20
189.184569
 30
0.0
 10
101.821989
 20
189.475123
 30
0.0
 10
102.314965
 20
189.419201
 30
0.0
 10
102.561477
 20
189.391238
 30
0.0
 11
100.625317
 21
188.611700
 31
0.0
 11
101.141514
 21
189.137545
 31
0.0
 11
101.824923
 21
189.412712
 31
0.0
 11
102.561477
 21
189.391238
 31
0.0
  0
LINE
  5
1b7
100
AcDbEntity
  8
Layer_1
 62
7
100
AcDbLine
 10
103.941110
 20
187.641102
 30
0.0
 11
103.941112
 21
187.641102
 31
0.0
  0
SPLINE
  5
1b8
100
AcDbEntity
  8
Layer_1
 62
7
100
AcDbSpline
 70
0
 71
3
 72
13
 73
9
 74
7
 40
0.000000
 40
0.000000
 40
0.000000
 40
0.000000
 40
0.736871
 40
1.473620
 40
2.210494
 40
2.269331
 40
2.328168
 40
2.387006
 40
2.387006
 40
2.387006
 40
2.387006
 10
102.561477
 20
189.391238
 30
0.0
 10
102.794954
 20
189.304278
 30
0.0
 10
103.261867
 20
189.130372
 30
0.0
 10
103.755454
 20
188.542391
 30
0.0
 10
103.914188
 20
188.042616
 30
0.0
 10
103.937510
 20
187.758718
 30
0.0
 10
103.940545
 20
187.699941
 30
0.0
 10
103.940921
 20
187.660715
 30
0.0
 10
103.941110
 20
187.641102
 30
0.0
 11
102.561477
 21
189.391238
 31
0.0
 11
103.227434
 21
189.075831
 31
0.0
 11
103.711331
 21
188.520275
 31
0.0
 11
103.932361
 21
187.817332
 31
0.0
 11
103.937213
 21
187.758695
 31
0.0
 11
103.940133
 21
187.699931
 31
0.0
 11
103.941110
 21
187.641102
 31
0.0
  0
SPLINE
  5
1b9
100
AcDbEntity
  8
Layer_1
 62
7
100
AcDbSpline
 70
0
 71
3
 72
10
 73
6
 74
4
 40
0.000000
 40
0.000000
 40
0.000000
 40
0.000000
 40
0.736948
 40
1.473715
 40
2.210667
 40
2.210667
 40
2.210667
 40
2.210667
 10
103.199122
 20
214.684902
 30
0.0
 10
102.982026
 20
214.564768
 30
0.0
 10
102.547888
 20
214.324529
 30
0.0
 10
101.769962
 20
214.316913
 30
0.0
 10
101.331210
 20
214.548626
 30
0.0
 10
101.111806
 20
214.664497
 30
0.0
 11
103.199122
 21
214.684902
 31
0.0
 11
102.526715
 21
214.383304
 31
0.0
 11
101.789984
 21
214.376096
 31
0.0
 11
101.111806
 21
214.664497
 31
0.0
  0
SPLINE
  5
1ba
100
AcDbEntity
  8
Layer_1
 62
7
100
AcDbSpline
 70
0
 71
3
 72
10
 73
6
 74
4
 40
0.000000
 40
0.000000
 40
0.000000
 40
0.000000
 40
0.736905
 40
1.473644
 40
2.210545
 40
2.210545
 40
2.210545
 40
2.210545
 10
101.111806
 20
214.664497
 30
0.0
 10
100.927206
 20
214.830260
 30
0.0
 10
100.558048
 20
215.161749
 30
0.0
 10
100.295988
 20
215.894195
 30
0.0
 10
100.371181
 20
216.384620
 30
0.0
 10
100.408782
 20
216.629859
 30
0.0
 11
101.111806
 21
214.664497
 31
0.0
 11
100.606632
 21
215.200993
 31
0.0
 11
100.358467
 21
215.894677
 31
0.0
 11
100.408782
 21
216.629859
 31
0.0
  0
SPLINE
  5
1bb
100
AcDbEntity
  8
Layer_1
 62
7
100
AcDbSpline
 70
0
 71
3
 72
10
 73
6
 74
4
 40
0.000000
 40
0.000000
 40
0.000000
 40
0.000000
 40
0.736904
 40
1.473649
 40
2.210551
 40
2.210551
 40
2.210551
 40
2.210551
 10
100.408782
 20
216.629859
 30
0.0
 10
100.504916
 20
216.858580
 30
0.0
 10
100.697163
 20
217.315971
 30
0.0
 10
101.303350
 20
217.803510
 30
0.0
 10
101.791344
 20
217.893138
 30
0.0
 10
102.035367
 20
217.937956
 30
0.0
 11
100.408782
 21
216.629859
 31
0.0
 11
100.750161
 21
217.282919
 31
0.0
 11
101.324274
 21
217.744642
 31
0.0
 11
102.035367
 21
217.937956
 31
0.0
  0
SPLINE
  5
1bc
100
AcDbEntity
  8
Layer_1
 62
7
100
AcDbSpline
 70
0
 71
3
 72
10
 73
6
 74
4
 40
0.000000
 40
0.000000
 40
0.000000
 40
0.000000
 40
0.736883
 40
1.473627
 40
2.210514
 40
2.210514
 40
2.210514
 40
2.210514
 10
102.035367
 20
217.937956
 30
0.0
 10
102.282955
 20
217.922072
 30
0.0
 10
102.778084
 20
217.890307
 30
0.0
 10
103.437290
 20
217.477269
 30
0.0
 10
103.681816
 20
217.045561
 30
0.0
 10
103.804091
 20
216.829686
 30
0.0
 11
102.035367
 21
217.937956
 31
0.0
 11
102.764210
 21
217.829397
 31
0.0
 11
103.388524
 21
217.438214
 31
0.0
 11
103.804091
 21
216.829686
 31
0.0
  0
LINE
  5
1bd
100
AcDbEntity
  8
Layer_1
 62
7
100
AcDbLine
 10
103.199122
 20
214.684916
 30
0.0
 11
103.199122
 21
214.684902
 31
0.0
  0
SPLINE
  5
1be
100
AcDbEntity
  8
Layer_1
 62
7
100
AcDbSpline
 70
0
 71
3
 72
13
 73
9
 74
7
 40
0.000000
 40
0.000000
 40
0.000000
 40
0.000000
 40
0.736852
 40
1.473578
 40
2.210436
 40
2.269271
 40
2.328105
 40
2.386938
 40
2.386938
 40
2.386938
 40
2.386938
 10
103.804091
 20
216.829686
 30
0.0
 10
103.870979
 20
216.589693
 30
0.0
 10
104.004746
 20
216.109746
 30
0.0
 10
103.819141
 20
215.364856
 30
0.0
 10
103.508145
 20
214.942661
 30
0.0
 10
103.292146
 20
214.756967
 30
0.0
 10
103.246387
 20
214.719959
 30
0.0
 10
103.214877
 20
214.696597
 30
0.0
 10
103.199122
 20
214.684916
 30
0.0
 11
103.804091
 21
216.829686
 31
0.0
 11
103.940371
 21
216.105546
 31
0.0
 11
103.775329
 21
215.387545
 31
0.0
 11
103.336544
 21
214.795575
 31
0.0
 11
103.291955
 21
214.757191
 31
0.0
 11
103.246136
 21
214.720286
 31
0.0
 11
103.199122
 21
214.684916
 31
0.0
  0
SPLINE
  5
1bf
100
AcDbEntity
  8
Layer_1
 62
7
100
AcDbSpline
 70
0
 71
3
 72
10
 73
6
 74
4
 40
0.000000
 40
0.000000
 40
0.000000
 40
0.000000
 40
0.736948
 40
1.473715
 40
2.210660
 40
2.210660
 40
2.210660
 40
2.210660
 10
101.083104
 20
246.097302
 30
0.0
 10
101.300200
 20
246.217436
 30
0.0
 10
101.734339
 20
246.457675
 30
0.0
 10
102.512260
 20
246.465298
 30
0.0
 10
102.951015
 20
246.233599
 30
0.0
 10
103.170420
 20
246.117735
 30
0.0
 11
101.083104
 21
246.097302
 31
0.0
 11
101.755511
 21
246.398901
 31
0.0
 11
102.492243
 21
246.406116
 31
0.0
 11
103.170420
 21
246.117735
 31
0.0
  0
SPLINE
  5
1c0
100
AcDbEntity
  8
Layer_1
 62
7
100
AcDbSpline
 70
0
 71
3
 72
10
 73
6
 74
4
 40
0.000000
 40
0.000000
 40
0.000000
 40
0.000000
 40
0.736905
 40
1.473644
 40
2.210545
 40
2.210545
 40
2.210545
 40
2.210545
 10
103.170420
 20
246.117735
 30
0.0
 10
103.355020
 20
245.951972
 30
0.0
 10
103.724177
 20
245.620482
 30
0.0
 10
103.986240
 20
244.888037
 30
0.0
 10
103.911045
 20
244.397613
 30
0.0
 10
103.873444
 20
244.152373
 30
0.0
 11
103.170420
 21
246.117735
 31
0.0
 11
103.675594
 21
245.581238
 31
0.0
 11
103.923760
 21
244.887555
 31
0.0
 11
103.873444
 21
244.152373
 31
0.0
  0
SPLINE
  5
1c1
100
AcDbEntity
  8
Layer_1
 62
7
100
AcDbSpline
 70
0
 71
3
 72
10
 73
6
 74
4
 40
0.000000
 40
0.000000
 40
0.000000
 40
0.000000
 40
0.736912
 40
1.473665
 40
2.210576
 40
2.210576
 40
2.210576
 40
2.210576
 10
103.873444
 20
244.152373
 30
0.0
 10
103.777309
 20
243.923650
 30
0.0
 10
103.585060
 20
243.466253
 30
0.0
 10
102.978861
 20
242.978713
 30
0.0
 10
102.490860
 20
242.889090
 30
0.0
 10
102.246834
 20
242.844273
 30
0.0
 11
103.873444
 21
244.152373
 31
0.0
 11
103.532061
 21
243.499307
 31
0.0
 11
102.957937
 21
243.037583
 31
0.0
 11
102.246834
 21
242.844273
 31
0.0
  0
SPLINE
  5
1c2
100
AcDbEntity
  8
Layer_1
 62
7
100
AcDbSpline
 70
0
 71
3
 72
10
 73
6
 74
4
 40
0.000000
 40
0.000000
 40
0.000000
 40
0.000000
 40
0.736875
 40
1.473612
 40
2.210490
 40
2.210490
 40
2.210490
 40
2.210490
 10
102.246834
 20
242.844273
 30
0.0
 10
101.999249
 20
242.860160
 30
0.0
 10
101.504125
 20
242.891932
 30
0.0
 10
100.844930
 20
243.304969
 30
0.0
 10
100.600408
 20
243.736673
 30
0.0
 10
100.478136
 20
243.952546
 30
0.0
 11
102.246834
 21
242.844273
 31
0.0
 11
101.518000
 21
242.952841
 31
0.0
 11
100.893695
 21
243.344024
 31
0.0
 11
100.478136
 21
243.952546
 31
0.0
  0
LINE
  5
1c3
100
AcDbEntity
  8
Layer_1
 62
7
100
AcDbLine
 10
101.083104
 20
246.097316
 30
0.0
 11
101.083104
 21
246.097302
 31
0.0
  0
SPLINE
  5
1c4
100
AcDbEntity
  8
Layer_1
 62
7
100
AcDbSpline
 70
0
 71
3
 72
13
 73
9
 74
7
 40
0.000000
 40
0.000000
 40
0.000000
 40
0.000000
 40
0.736851
 40
1.473577
 40
2.210435
 40
2.269269
 40
2.328103
 40
2.386937
 40
2.386937
 40
2.386937
 40
2.386937
 10
100.478136
 20
243.952546
 30
0.0
 10
100.411247
 20
244.192539
 30
0.0
 10
100.277481
 20
244.672485
 30
0.0
 10
100.463087
 20
245.417376
 30
0.0
 10
100.774084
 20
245.839568
 30
0.0
 10
100.990079
 20
246.025266
 30
0.0
 10
101.035838
 20
246.062274
 30
0.0
 10
101.067349
 20
246.085635
 30
0.0
 10
101.083104
 20
246.097316
 30
0.0
 11
100.478136
 21
243.952546
 31
0.0
 11
100.341856
 21
244.676685
 31
0.0
 11
100.506898
 21
245.394686
 31
0.0
 11
100.945682
 21
245.986657
 31
0.0
 11
100.990270
 21
246.025041
 31
0.0
 11
101.036090
 21
246.061946
 31
0.0
 11
101.083104
 21
246.097316
 31
0.0
  0
SPLINE
  5
1c5
100
AcDbEntity
  8
Layer_1
 62
7
100
AcDbSpline
 70
0
 71
3
 72
10
 73
6
 74
4
 40
0.000000
 40
0.000000
 40
0.000000
 40
0.000000
 40
0.736948
 40
1.473715
 40
2.210660
 40
2.210660
 40
2.210660
 40
2.210660
 10
103.199122
 20
157.684900
 30
0.0
 10
102.982026
 20
157.564766
 30
0.0
 10
102.547887
 20
157.324527
 30
0.0
 10
101.769967
 20
157.316905
 30
0.0
 10
101.331211
 20
157.548604
 30
0.0
 10
101.111806
 20
157.664467
 30
0.0
 11
103.199122
 21
157.684900
 31
0.0
 11
102.526715
 21
157.383302
 31
0.0
 11
101.789984
 21
157.376086
 31
0.0
 11
101.111806
 21
157.664467
 31
0.0
  0
SPLINE
  5
1c6
100
AcDbEntity
  8
Layer_1
 62
7
100
AcDbSpline
 70
0
 71
3
 72
10
 73
6
 74
4
 40
0.000000
 40
0.000000
 40
0.000000
 40
0.000000
 40
0.736905
 40
1.473644
 40
2.210545
 40
2.210545
 40
2.210545
 40
2.210545
 10
101.111806
 20
157.664467
 30
0.0
 10
100.927207
 20
157.830231
 30
0.0
 10
100.558049
 20
158.161720
 30
0.0
 10
100.295986
 20
158.894165
 30
0.0
 10
100.371181
 20
159.384590
 30
0.0
 10
100.408782
 20
159.629829
 30
0.0
 11
101.111806
 21
157.664467
 31
0.0
 11
100.606632
 21
158.200964
 31
0.0
 11
100.358466
 21
158.894648
 31
0.0
 11
100.408782
 21
159.629829
 31
0.0
  0
SPLINE
  5
1c7
100
AcDbEntity
  8
Layer_1
 62
7
100
AcDbSpline
 70
0
 71
3
 72
10
 73
6
 74
4
 40
0.000000
 40
0.000000
 40
0.000000
 40
0.000000
 40
0.736903
 40
1.473649
 40
2.210551
 40
2.210551
 40
2.210551
 40
2.210551
 10
100.408782
 20
159.629829
 30
0.0
 10
100.504916
 20
159.858550
 30
0.0
 10
100.697162
 20
160.315942
 30
0.0
 10
101.303351
 20
160.803480
 30
0.0
 10
101.791345
 20
160.893108
 30
0.0
 10
102.035367
 20
160.937926
 30
0.0
 11
100.408782
 21
159.629829
 31
0.0
 11
100.750160
 21
160.282889
 31
0.0
 11
101.324274
 21
160.744612
 31
0.0
 11
102.035367
 21
160.937926
 31
0.0
  0
SPLINE
  5
1c8
100
AcDbEntity
  8
Layer_1
 62
7
100
AcDbSpline
 70
0
 71
3
 72
10
 73
6
 74
4
 40
0.000000
 40
0.000000
 40
0.000000
 40
0.000000
 40
0.736884
 40
1.473628
 40
2.210514
 40
2.210514
 40
2.210514
 40
2.210514
 10
102.035367
 20
160.937926
 30
0.0
 10
102.282955
 20
160.922042
 30
0.0
 10
102.778084
 20
160.890276
 30
0.0
 10
103.437291
 20
160.477241
 30
0.0
 10
103.681816
 20
160.045532
 30
0.0
 10
103.804091
 20
159.829657
 30
0.0
 11
102.035367
 21
160.937926
 31
0.0
 11
102.764211
 21
160.829366
 31
0.0
 11
103.388525
 21
160.438185
 31
0.0
 11
103.804091
 21
159.829657
 31
0.0
  0
LINE
  5
1c9
100
AcDbEntity
  8
Layer_1
 62
7
100
AcDbLine
 10
103.199122
 20
157.684886
 30
0.0
 11
103.199122
 21
157.684900
 31
0.0
  0
SPLINE
  5
1ca
100
AcDbEntity
  8
Layer_1
 62
7
100
AcDbSpline
 70
0
 71
3
 72
13
 73
9
 74
7
 40
0.000000
 40
0.000000
 40
0.000000
 40
0.000000
 40
0.736851
 40
1.473577
 40
2.210435
 40
2.269269
 40
2.328103
 40
2.386937
 40
2.386937
 40
2.386937
 40
2.386937
 10
103.804091
 20
159.829657
 30
0.0
 10
103.870979
 20
159.589663
 30
0.0
 10
104.004745
 20
159.109717
 30
0.0
 10
103.819140
 20
158.364826
 30
0.0
 10
103.508142
 20
157.942634
 30
0.0
 10
103.292148
 20
157.756937
 30
0.0
 10
103.246388
 20
157.719929
 30
0.0
 10
103.214877
 20
157.696567
 30
0.0
 10
103.199122
 20
157.684886
 30
0.0
 11
103.804091
 21
159.829657
 31
0.0
 11
103.940371
 21
159.105517
 31
0.0
 11
103.775328
 21
158.387516
 31
0.0
 11
103.336544
 21
157.795546
 31
0.0
 11
103.291957
 21
157.757161
 31
0.0
 11
103.246137
 21
157.720256
 31
0.0
 11
103.199122
 21
157.684886
 31
0.0
  0
SPLINE
  5
1cb
100
AcDbEntity
  8
Layer_1
 62
7
100
AcDbSpline
 70
0
 71
3
 72
10
 73
6
 74
4
 40
0.000000
 40
0.000000
 40
0.000000
 40
0.000000
 40
0.736944
 40
1.473717
 40
2.210663
 40
2.210663
 40
2.210663
 40
2.210663
 10
100.341114
 20
130.641103
 30
0.0
 10
100.371547
 20
130.887346
 30
0.0
 10
100.432405
 20
131.379775
 30
0.0
 10
100.883501
 20
132.013590
 30
0.0
 10
101.328839
 20
132.232374
 30
0.0
 10
101.551534
 20
132.341779
 30
0.0
 11
100.341114
 21
130.641103
 31
0.0
 11
100.492391
 21
131.362353
 31
0.0
 11
100.919612
 21
131.962617
 31
0.0
 11
101.551534
 21
132.341779
 31
0.0
  0
SPLINE
  5
1cc
100
AcDbEntity
  8
Layer_1
 62
7
100
AcDbSpline
 70
0
 71
3
 72
10
 73
6
 74
4
 40
0.000000
 40
0.000000
 40
0.000000
 40
0.000000
 40
0.736901
 40
1.473637
 40
2.210545
 40
2.210545
 40
2.210545
 40
2.210545
 10
101.551534
 20
132.341779
 30
0.0
 10
101.794143
 20
132.393701
 30
0.0
 10
102.279308
 20
132.497533
 30
0.0
 10
103.025886
 20
132.278950
 30
0.0
 10
103.378448
 20
131.929855
 30
0.0
 10
103.554750
 20
131.755288
 30
0.0
 11
101.551534
 21
132.341779
 31
0.0
 11
102.282497
 21
132.435144
 31
0.0
 11
102.989552
 21
132.228134
 31
0.0
 11
103.554750
 21
131.755288
 31
0.0
  0
SPLINE
  5
1cd
100
AcDbEntity
  8
Layer_1
 62
7
100
AcDbSpline
 70
0
 71
3
 72
10
 73
6
 74
4
 40
0.000000
 40
0.000000
 40
0.000000
 40
0.000000
 40
0.736902
 40
1.473642
 40
2.210544
 40
2.210544
 40
2.210544
 40
2.210544
 10
103.554750
 20
131.755288
 30
0.0
 10
103.683293
 20
131.543081
 30
0.0
 10
103.940351
 20
131.118716
 30
0.0
 10
103.978464
 20
130.341723
 30
0.0
 10
103.764102
 20
129.894264
 30
0.0
 10
103.656909
 20
129.670509
 30
0.0
 11
103.554750
 21
131.755288
 31
0.0
 11
103.882454
 21
131.095261
 31
0.0
 11
103.918532
 21
130.359406
 31
0.0
 11
103.656909
 21
129.670509
 31
0.0
  0
SPLINE
  5
1ce
100
AcDbEntity
  8
Layer_1
 62
7
100
AcDbSpline
 70
0
 71
3
 72
10
 73
6
 74
4
 40
0.000000
 40
0.000000
 40
0.000000
 40
0.000000
 40
0.736869
 40
1.473600
 40
2.210469
 40
2.210469
 40
2.210469
 40
2.210469
 10
103.656909
 20
129.670509
 30
0.0
 10
103.498538
 20
129.479544
 30
0.0
 10
103.181827
 20
129.097648
 30
0.0
 10
102.460234
 20
128.807070
 30
0.0
 10
101.967254
 20
128.862997
 30
0.0
 10
101.720740
 20
128.890964
 30
0.0
 11
103.656909
 21
129.670509
 31
0.0
 11
103.140706
 21
129.144667
 31
0.0
 11
102.457297
 21
128.869487
 31
0.0
 11
101.720740
 21
128.890964
 31
0.0
  0
LINE
  5
1cf
100
AcDbEntity
  8
Layer_1
 62
7
100
AcDbLine
 10
100.341117
 20
130.641103
 30
0.0
 11
100.341114
 21
130.641103
 31
0.0
  0
SPLINE
  5
1d0
100
AcDbEntity
  8
Layer_1
 62
7
100
AcDbSpline
 70
0
 71
3
 72
13
 73
9
 74
7
 40
0.000000
 40
0.000000
 40
0.000000
 40
0.000000
 40
0.736871
 40
1.473616
 40
2.210490
 40
2.269325
 40
2.328159
 40
2.386993
 40
2.386993
 40
2.386993
 40
2.386993
 10
101.720740
 20
128.890964
 30
0.0
 10
101.487267
 20
128.977930
 30
0.0
 10
101.020361
 20
129.151848
 30
0.0
 10
100.526771
 20
129.739822
 30
0.0
 10
100.368039
 20
130.239596
 30
0.0
 10
100.344717
 20
130.523492
 30
0.0
 10
100.341681
 20
130.582266
 30
0.0
 10
100.341305
 20
130.621490
 30
0.0
 10
100.341117
 20
130.641103
 30
0.0
 11
101.720740
 21
128.890964
 31
0.0
 11
101.054791
 21
129.206385
 31
0.0
 11
100.570895
 21
129.761938
 31
0.0
 11
100.349866
 21
130.464880
 31
0.0
 11
100.345013
 21
130.523515
 31
0.0
 11
100.342093
 21
130.582276
 31
0.0
 11
100.341117
 21
130.641103
 31
0.0
  0
ENDSEC
  0
SECTION
  2
OBJECTS
  0
DICTIONARY
  5
C
330
0
100
AcDbDictionary
  3
ACAD_GROUP
350
D
  3
ACAD_MLINESTYLE
350
17
  0
DICTIONARY
  5
D
330
C
100
AcDbDictionary
  0
DICTIONARY
  5
1A
330
C
100
AcDbDictionary
  0
DICTIONARY
  5
17
330
C
100
AcDbDictionary
  3
STANDARD
350
18
  0
DICTIONARY
  5
19
330
C
100
AcDbDictionary
  0
ENDSEC
  0
EOF
